<?xml version="1.0" encoding="utf-8"?>
<!-- Generator: Adobe Illustrator 19.0.0, SVG Export Plug-In . SVG Version: 6.00 Build 0)  -->
<svg version="1.1" baseProfile="basic" id="Layer_1"
	 xmlns="http://www.w3.org/2000/svg" xmlns:xlink="http://www.w3.org/1999/xlink" x="0px" y="0px" viewBox="-10 337.7 595.3 61.5"
	 xml:space="preserve">
<style type="text/css">
	.st0{fill:#161616;}
</style>
<g id="XMLID_1500_">
	<g id="XMLID_1831_">
		<path id="XMLID_1836_" class="st0" d="M183.3,356.2c-0.4-0.9-1.3-1.4-2.2-1.9c-0.7-0.4-1.3,0.7-0.6,1.1s1.4,0.7,1.7,1.5
			C182.5,357.5,183.6,356.9,183.3,356.2L183.3,356.2z"/>
	</g>
</g>
<g id="XMLID_44_">
	<g id="XMLID_1824_">
		<path id="XMLID_1829_" class="st0" d="M182.2,356.3c-0.4,0.6-1,1-1.6,1.3c-0.7,0.4-0.1,1.5,0.6,1.1c0.8-0.5,1.5-1.1,2-1.8
			c0.2-0.3,0-0.7-0.2-0.9C182.7,355.9,182.4,356.1,182.2,356.3L182.2,356.3z"/>
	</g>
</g>
<g id="XMLID_20_">
	<g id="XMLID_37_">
		<path id="XMLID_47_" class="st0" d="M60.2,357.1c40.6-0.1,81.1,0.5,121.7,0.1c0.8,0,0.8-1.2,0-1.2c-40.6,0.5-81.1-0.2-121.7-0.1
			C59.4,355.9,59.4,357.1,60.2,357.1L60.2,357.1z"/>
	</g>
</g>
<g id="XMLID_123_">
	<g id="XMLID_125_">
		<path id="XMLID_129_" class="st0" d="M183.3,384.5c-0.4-0.9-1.3-1.4-2.2-1.9c-0.7-0.4-1.3,0.7-0.6,1.1c0.7,0.4,1.4,0.7,1.7,1.5
			C182.5,385.9,183.6,385.2,183.3,384.5L183.3,384.5z"/>
	</g>
</g>
<g id="XMLID_116_">
	<g id="XMLID_118_">
		<path id="XMLID_122_" class="st0" d="M182.2,384.7c-0.4,0.6-1,1-1.6,1.3c-0.7,0.4-0.1,1.5,0.6,1.1c0.8-0.5,1.5-1.1,2-1.8
			c0.2-0.3,0-0.7-0.2-0.9C182.7,384.3,182.4,384.4,182.2,384.7L182.2,384.7z"/>
	</g>
</g>
<g id="XMLID_81_">
	<g id="XMLID_28_">
		<path id="XMLID_33_" class="st0" d="M60.2,385.5c40.6-0.1,81.1,0.5,121.7,0.1c0.8,0,0.8-1.2,0-1.2c-40.6,0.5-81.1-0.2-121.7-0.1
			C59.4,384.3,59.4,385.5,60.2,385.5L60.2,385.5z"/>
	</g>
</g>
<g id="XMLID_1600_">
	<g id="XMLID_1703_">
		<path id="XMLID_1709_" class="st0" d="M18,348.9c0.4,2.8-0.1,5.9-0.1,8.7c0,0.8,1.2,0.8,1.3,0c0.1-3,0.5-6.1,0.1-9
			C19.1,347.8,17.9,348.1,18,348.9L18,348.9z"/>
	</g>
</g>
<g id="XMLID_1601_">
	<g id="XMLID_1695_">
		<path id="XMLID_1701_" class="st0" d="M21.1,351.5c-0.1,2.1-0.1,4.2-0.1,6.2c0,0.8,1.3,0.8,1.3,0c0-2.1,0-4.1,0.1-6.2
			C22.4,350.7,21.1,350.7,21.1,351.5L21.1,351.5z"/>
	</g>
</g>
<g id="XMLID_1602_">
	<g id="XMLID_1687_">
		<path id="XMLID_1693_" class="st0" d="M22.2,353.4c0.6-0.6,1.1-1.3,1.9-1.4c1.1-0.1,1.3,0.8,1.4,1.6c0.2,1.4,0.1,2.7,0,4.1
			c-0.1,0.8,1.2,0.8,1.3,0c0.1-1.3,0.2-2.6,0-3.9c-0.1-0.8-0.1-1.9-0.7-2.5c-0.6-0.6-1.7-0.7-2.5-0.6c-1,0.2-1.6,1-2.3,1.7
			C20.8,353.1,21.6,354,22.2,353.4L22.2,353.4z"/>
	</g>
</g>
<g id="XMLID_1603_">
	<g id="XMLID_1679_">
		<path id="XMLID_1684_" class="st0" d="M28.3,351.4c0.1,2.9,0.3,5.9,0.1,8.8c0,0.8,1.2,0.8,1.3,0c0.2-2.9,0-5.9-0.1-8.8
			C29.5,350.6,28.3,350.6,28.3,351.4L28.3,351.4z"/>
	</g>
</g>
<g id="XMLID_1605_">
	<g id="XMLID_1670_">
		<path id="XMLID_1676_" class="st0" d="M29.6,353.7c0.5-0.8,1.1-1.3,2-1.5c1.5-0.3,1.9,0.8,1.9,2.1c0,1.1,0.1,2.1-1,2.5
			c-1.1,0.5-2.1,0.1-2.8-0.8c-0.5-0.6-1.4,0.3-0.9,0.9c1.1,1.2,2.8,1.7,4.3,1c1.8-0.8,1.8-2.4,1.7-4.1c-0.1-1.4-0.7-2.9-2.3-3
			c-1.6-0.1-3.1,0.8-4,2.2C28.1,353.7,29.1,354.4,29.6,353.7L29.6,353.7z"/>
	</g>
</g>
<g id="XMLID_1606_">
	<g id="XMLID_1662_">
		<path id="XMLID_1668_" class="st0" d="M36.3,351.3c-0.3,1.6-0.4,3.3-0.1,5c0.3,1.3,1,1.8,2.2,1.9c3.6,0.4,3.7-4.3,3.6-6.8
			c0-0.8-1.3-0.8-1.3,0c0,1.6,0.3,5.4-1.9,5.6c-1.5,0.1-1.6-1.2-1.6-2.3c0-1,0-2,0.2-3C37.7,350.9,36.5,350.5,36.3,351.3L36.3,351.3
			z"/>
	</g>
</g>
<g id="XMLID_1608_">
	<g id="XMLID_1654_">
		<path id="XMLID_1660_" class="st0" d="M40.8,351.5c0,2.1,0,4.1-0.1,6.2c0,0.8,1.2,0.8,1.3,0c0.1-2.1,0.1-4.1,0.1-6.2
			C42,350.7,40.8,350.7,40.8,351.5L40.8,351.5z"/>
	</g>
</g>
<g id="XMLID_1610_">
	<g id="XMLID_1646_">
		<path id="XMLID_1652_" class="st0" d="M43.8,349.6c0,2.4-0.3,5.1,0.1,7.5c0.2,1.2,1,1.5,2.1,1.1c0.8-0.2,0.4-1.4-0.3-1.2
			c-0.9,0.3-0.5-0.6-0.5-1.2c0-0.7,0-1.5,0-2.2c0-1.4,0-2.7,0-4.1C45.1,348.8,43.8,348.8,43.8,349.6L43.8,349.6z"/>
	</g>
</g>
<g id="XMLID_1619_">
	<g id="XMLID_1639_">
		<path id="XMLID_1644_" class="st0" d="M43.1,352c1,0.3,2,0.3,3,0.1c0.8-0.2,0.5-1.4-0.3-1.2c-0.8,0.2-1.5,0.1-2.3-0.1
			C42.7,350.6,42.3,351.8,43.1,352L43.1,352z"/>
	</g>
</g>
<g id="XMLID_246_">
	<g id="XMLID_248_">
		<path id="XMLID_252_" class="st0" d="M18,377.3c0.4,2.8-0.1,5.9-0.1,8.7c0,0.8,1.2,0.8,1.3,0c0.1-3,0.5-6.1,0.1-9
			C19.1,376.2,17.9,376.5,18,377.3L18,377.3z"/>
	</g>
</g>
<g id="XMLID_239_">
	<g id="XMLID_241_">
		<path id="XMLID_245_" class="st0" d="M21.1,379.9c-0.1,2-0.1,4.1-0.1,6.2c0,0.8,1.3,0.8,1.3,0c0-2.1,0-4.1,0.1-6.2
			C22.4,379.1,21.1,379.1,21.1,379.9L21.1,379.9z"/>
	</g>
</g>
<g id="XMLID_232_">
	<g id="XMLID_234_">
		<path id="XMLID_238_" class="st0" d="M22.2,381.8c0.6-0.6,1.1-1.3,1.9-1.4c1.1-0.1,1.3,0.8,1.4,1.6c0.2,1.4,0.1,2.7,0,4.1
			c-0.1,0.8,1.2,0.8,1.3,0c0.1-1.3,0.2-2.6,0-3.9c-0.1-0.8-0.1-1.9-0.7-2.5c-0.6-0.6-1.7-0.7-2.5-0.6c-1,0.2-1.6,1-2.3,1.7
			C20.8,381.5,21.6,382.3,22.2,381.8L22.2,381.8z"/>
	</g>
</g>
<g id="XMLID_225_">
	<g id="XMLID_227_">
		<path id="XMLID_231_" class="st0" d="M28.3,379.7c0.1,2.9,0.3,5.9,0.1,8.8c0,0.8,1.2,0.8,1.3,0c0.2-2.9,0-5.9-0.1-8.8
			C29.5,378.9,28.3,378.9,28.3,379.7L28.3,379.7z"/>
	</g>
</g>
<g id="XMLID_218_">
	<g id="XMLID_220_">
		<path id="XMLID_224_" class="st0" d="M29.6,382c0.5-0.8,1.1-1.3,2-1.5c1.5-0.3,1.9,0.8,1.9,2.1c0,1.1,0.1,2.1-1,2.5
			c-1.1,0.5-2.1,0.1-2.8-0.8c-0.5-0.6-1.4,0.3-0.9,0.9c1.1,1.2,2.8,1.7,4.3,1c1.8-0.8,1.8-2.4,1.7-4.1c-0.1-1.4-0.7-2.9-2.3-3
			s-3.1,0.8-4,2.2C28.1,382.1,29.1,382.7,29.6,382L29.6,382z"/>
	</g>
</g>
<g id="XMLID_211_">
	<g id="XMLID_213_">
		<path id="XMLID_217_" class="st0" d="M36.3,379.7c-0.3,1.6-0.4,3.3-0.1,5c0.3,1.3,1,1.8,2.2,1.9c3.6,0.4,3.7-4.3,3.6-6.8
			c0-0.8-1.3-0.8-1.3,0c0,1.6,0.3,5.4-1.9,5.6c-1.5,0.1-1.6-1.2-1.6-2.3c0-1,0-2,0.2-3C37.7,379.2,36.5,378.9,36.3,379.7L36.3,379.7
			z"/>
	</g>
</g>
<g id="XMLID_204_">
	<g id="XMLID_206_">
		<path id="XMLID_210_" class="st0" d="M40.8,379.8c0,2.1,0,4.1-0.1,6.2c0,0.8,1.2,0.8,1.3,0c0.1-2.1,0.1-4.1,0.1-6.2
			C42,379,40.8,379,40.8,379.8L40.8,379.8z"/>
	</g>
</g>
<g id="XMLID_197_">
	<g id="XMLID_199_">
		<path id="XMLID_203_" class="st0" d="M43.8,378c0,2.4-0.3,5.1,0.1,7.5c0.2,1.2,1,1.5,2.1,1.1c0.8-0.2,0.4-1.4-0.3-1.2
			c-0.9,0.3-0.5-0.6-0.5-1.2c0-0.7,0-1.5,0-2.2c0-1.4,0-2.7,0-4.1C45.1,377.2,43.8,377.2,43.8,378L43.8,378z"/>
	</g>
</g>
<g id="XMLID_190_">
	<g id="XMLID_192_">
		<path id="XMLID_196_" class="st0" d="M43.1,380.4c1,0.3,2,0.3,3,0.1c0.8-0.2,0.5-1.4-0.3-1.2c-0.8,0.2-1.5,0.1-2.3-0.1
			C42.7,379,42.3,380.2,43.1,380.4L43.1,380.4z"/>
	</g>
</g>
<g id="XMLID_34_">
	<g id="XMLID_1159_">
		<g id="XMLID_275_">
			<path id="XMLID_279_" class="st0" d="M49,356.1c1-0.7,1.9-1.3,2.9-2c-0.3-0.2-0.6-0.5-0.9-0.7c-0.5,2.5-0.7,5-0.6,7.6
				c0,0.8,1.3,0.8,1.3,0c-0.1-2.4,0.1-4.9,0.6-7.3c0.1-0.5-0.4-1-0.9-0.7c-1,0.7-1.9,1.3-2.9,2C47.7,355.5,48.3,356.6,49,356.1
				L49,356.1z"/>
		</g>
	</g>
	<g id="XMLID_795_">
		<g id="XMLID_269_">
			<path id="XMLID_273_" class="st0" d="M48.1,361.8c1.7,0,3.4-0.1,5.1-0.2c0.8,0,0.8-1.3,0-1.3c-1.7,0.1-3.4,0.1-5.1,0.2
				C47.3,360.5,47.3,361.8,48.1,361.8L48.1,361.8z"/>
		</g>
	</g>
</g>
<g id="XMLID_32_">
	<g id="XMLID_266_">
		<path id="XMLID_288_" class="st0" d="M49.2,384.6c0.2-0.4,0.5-0.8,0.9-1c0.6-0.4,0.9-0.5,1.5,0c0.5,0.4,0.5,0.6,0.4,1.2
			c-0.1,0.4-0.3,0.8-0.4,1.1c-0.7,1.4-2,2.5-3.5,3c-0.7,0.2-0.5,1.2,0.2,1.2c2.2,0.2,4.3,0.1,6.5-0.1c0.8-0.1,0.8-1.3,0-1.3
			c-2.2,0.2-4.3,0.3-6.5,0.1c0.1,0.4,0.1,0.8,0.2,1.2c2.5-0.9,5.3-3.5,5-6.4c-0.4-3.2-4-1.7-5.1,0.2
			C47.7,384.6,48.8,385.3,49.2,384.6L49.2,384.6z"/>
	</g>
</g>
<g id="XMLID_406_">
	<g id="XMLID_407_">
		<path id="XMLID_408_" class="st0" d="M439.4,356.2c-0.4-0.9-1.3-1.4-2.2-1.9c-0.7-0.4-1.3,0.7-0.6,1.1c0.7,0.4,1.4,0.7,1.7,1.5
			C438.7,357.5,439.8,356.9,439.4,356.2L439.4,356.2z"/>
	</g>
</g>
<g id="XMLID_403_">
	<g id="XMLID_404_">
		<path id="XMLID_405_" class="st0" d="M438.3,356.3c-0.4,0.6-1,1-1.6,1.3c-0.7,0.4-0.1,1.5,0.6,1.1c0.8-0.5,1.5-1.1,2-1.8
			c0.2-0.3,0-0.7-0.2-0.9C438.9,355.9,438.5,356.1,438.3,356.3L438.3,356.3z"/>
	</g>
</g>
<g id="XMLID_1592_">
	<g id="XMLID_1817_">
		<path id="XMLID_1822_" class="st0" d="M324.5,355.7c-0.4-0.9-1.3-1.4-2.2-1.9c-0.7-0.4-1.3,0.7-0.6,1.1c0.7,0.4,1.4,0.7,1.7,1.5
			C323.7,357.1,324.8,356.4,324.5,355.7L324.5,355.7z"/>
	</g>
</g>
<g id="XMLID_1517_">
	<g id="XMLID_1809_">
		<path id="XMLID_1815_" class="st0" d="M323.4,355.9c-0.4,0.6-1,1-1.6,1.3c-0.7,0.4-0.1,1.5,0.6,1.1c0.8-0.5,1.5-1.1,2-1.8
			c0.2-0.3,0-0.7-0.2-0.9C323.9,355.5,323.6,355.6,323.4,355.9L323.4,355.9z"/>
	</g>
</g>
<g id="XMLID_402_">
	<g id="XMLID_1768_">
		<path id="XMLID_1774_" class="st0" d="M287.2,340.5c-0.4,3.5-0.2,7.1,0,10.6c0,0.8,1.3,0.8,1.3,0c-0.2-3.5-0.4-7.1,0-10.6
			C288.6,339.7,287.3,339.7,287.2,340.5L287.2,340.5z"/>
	</g>
</g>
<g id="XMLID_401_">
	<g id="XMLID_1760_">
		<path id="XMLID_1766_" class="st0" d="M297.3,351.5c1.2-1.1,2-2.5,3.2-3.6c0.6-0.6,2-1.3,2-2.2c0.1-0.8-1-1.5-1.4-2
			c-1.2-1.3-2.5-2.4-3.9-3.5c-0.6-0.5-1.5,0.4-0.9,0.9c0.9,0.7,1.8,1.5,2.6,2.3c0.3,0.3,2.3,1.9,2.2,2.3c0,0.5-1.9,1.8-2.3,2.2
			c-0.9,0.9-1.6,2-2.5,2.9C295.9,351.2,296.8,352.1,297.3,351.5L297.3,351.5z"/>
	</g>
</g>
<g id="XMLID_387_">
	<g id="XMLID_394_">
		<g id="XMLID_398_">
			<g id="XMLID_399_">
				<path id="XMLID_400_" class="st0" d="M290.8,372.1c0.6-0.1,1.1,1.6,1.3,2c0.3,0.7,0.7,1.3,1.2,1.9c0.7,1,1.4,1.8,2.7,1.6
					c0.8-0.2,0.5-1.4-0.3-1.2c-1.1,0.2-2.5-3-2.9-3.8c-0.4-1-1.1-1.9-2.3-1.6C289.6,371,290,372.2,290.8,372.1L290.8,372.1z"/>
			</g>
		</g>
		<g id="XMLID_395_">
			<g id="XMLID_396_">
				<path id="XMLID_397_" class="st0" d="M291,377.4c1.4-1.9,2.9-3.8,4.5-5.5c0.5-0.6-0.3-1.5-0.9-0.9c-1.7,1.8-3.3,3.8-4.7,5.8
					C289.4,377.4,290.5,378,291,377.4L291,377.4z"/>
			</g>
		</g>
	</g>
	<g id="XMLID_391_">
		<g id="XMLID_392_">
			<path id="XMLID_393_" class="st0" d="M287.2,368.8c-0.4,3.5-0.2,7.1,0,10.6c0,0.8,1.3,0.8,1.3,0c-0.2-3.5-0.4-7.1,0-10.6
				C288.6,368,287.3,368.1,287.2,368.8L287.2,368.8z"/>
		</g>
	</g>
	<g id="XMLID_388_">
		<g id="XMLID_389_">
			<path id="XMLID_390_" class="st0" d="M297.3,379.9c1.2-1.1,2-2.5,3.2-3.6c0.6-0.6,2-1.3,2-2.2c0.1-0.8-1-1.5-1.4-2
				c-1.2-1.3-2.5-2.4-3.9-3.5c-0.6-0.5-1.5,0.4-0.9,0.9c0.9,0.7,1.8,1.5,2.6,2.3c0.3,0.3,2.3,1.9,2.2,2.3c0,0.5-1.9,1.8-2.3,2.2
				c-0.9,0.9-1.6,2-2.5,2.9C295.9,379.6,296.8,380.4,297.3,379.9L297.3,379.9z"/>
		</g>
	</g>
</g>
<g id="XMLID_339_">
	<g id="XMLID_351_">
		<g id="XMLID_358_">
			<g id="XMLID_385_">
				<path id="XMLID_386_" class="st0" d="M426.8,372.1c0.6-0.1,1.1,1.6,1.3,2c0.3,0.7,0.7,1.3,1.2,1.9c0.7,1,1.4,1.8,2.7,1.6
					c0.8-0.2,0.5-1.4-0.3-1.2c-1.1,0.2-2.5-3-2.9-3.8c-0.4-1-1.1-1.9-2.3-1.6C425.7,371,426,372.2,426.8,372.1L426.8,372.1z"/>
			</g>
		</g>
		<g id="XMLID_354_">
			<g id="XMLID_356_">
				<path id="XMLID_357_" class="st0" d="M427,377.4c1.4-1.9,2.9-3.8,4.5-5.5c0.5-0.6-0.3-1.5-0.9-0.9c-1.7,1.8-3.3,3.8-4.7,5.8
					C425.5,377.4,426.6,378,427,377.4L427,377.4z"/>
			</g>
		</g>
	</g>
	<g id="XMLID_347_">
		<g id="XMLID_349_">
			<path id="XMLID_350_" class="st0" d="M423.3,368.8c-0.4,3.5-0.2,7.1,0,10.6c0,0.8,1.3,0.8,1.3,0c-0.2-3.5-0.4-7.1,0-10.6
				C424.6,368,423.4,368.1,423.3,368.8L423.3,368.8z"/>
		</g>
	</g>
	<g id="XMLID_341_">
		<g id="XMLID_342_">
			<path id="XMLID_343_" class="st0" d="M433.4,379.9c1.2-1.1,2-2.5,3.2-3.6c0.6-0.6,2-1.3,2-2.2c0.1-0.8-1-1.5-1.4-2
				c-1.2-1.3-2.5-2.4-3.9-3.5c-0.6-0.5-1.5,0.4-0.9,0.9c0.9,0.7,1.8,1.5,2.6,2.3c0.3,0.3,2.3,1.9,2.2,2.3c0,0.5-1.9,1.8-2.3,2.2
				c-0.9,0.9-1.6,2-2.5,2.9C431.9,379.6,432.8,380.4,433.4,379.9L433.4,379.9z"/>
		</g>
	</g>
</g>
<g id="XMLID_336_">
	<g id="XMLID_1728_">
		<path id="XMLID_1733_" class="st0" d="M393.2,356.9c15.1-0.2,30.3,0.6,45.4,0.1c0.8,0,0.8-1.3,0-1.3c-15.1,0.5-30.2-0.3-45.4-0.1
			C392.4,355.7,392.4,356.9,393.2,356.9L393.2,356.9z"/>
	</g>
</g>
<g id="XMLID_335_">
	<g id="XMLID_1719_">
		<path id="XMLID_1725_" class="st0" d="M287.5,356.8c12.1-0.1,24.3,0.5,36.4,0.1c0.8,0,0.8-1.3,0-1.3c-12.1,0.4-24.3-0.2-36.4-0.1
			C286.7,355.5,286.7,356.8,287.5,356.8L287.5,356.8z"/>
	</g>
</g>
<g id="XMLID_329_">
	<g id="XMLID_332_">
		<path id="XMLID_334_" class="st0" d="M439.4,384.5c-0.4-0.9-1.3-1.4-2.2-1.9c-0.7-0.4-1.3,0.7-0.6,1.1c0.7,0.4,1.4,0.7,1.7,1.5
			C438.7,385.9,439.8,385.2,439.4,384.5L439.4,384.5z"/>
	</g>
</g>
<g id="XMLID_325_">
	<g id="XMLID_327_">
		<path id="XMLID_328_" class="st0" d="M438.3,384.7c-0.4,0.6-1,1-1.6,1.3c-0.7,0.4-0.1,1.5,0.6,1.1c0.8-0.5,1.5-1.1,2-1.8
			c0.2-0.3,0-0.7-0.2-0.9C438.9,384.3,438.5,384.4,438.3,384.7L438.3,384.7z"/>
	</g>
</g>
<g id="XMLID_320_">
	<g id="XMLID_321_">
		<path id="XMLID_322_" class="st0" d="M324.5,384.1c-0.4-0.9-1.3-1.4-2.2-1.9c-0.7-0.4-1.3,0.7-0.6,1.1c0.7,0.4,1.4,0.7,1.7,1.5
			C323.7,385.4,324.8,384.8,324.5,384.1L324.5,384.1z"/>
	</g>
</g>
<g id="XMLID_314_">
	<g id="XMLID_315_">
		<path id="XMLID_318_" class="st0" d="M323.4,384.2c-0.4,0.6-1,1-1.6,1.3c-0.7,0.4-0.1,1.5,0.6,1.1c0.8-0.5,1.5-1.1,2-1.8
			c0.2-0.3,0-0.7-0.2-0.9C323.9,383.8,323.6,384,323.4,384.2L323.4,384.2z"/>
	</g>
</g>
<g id="XMLID_308_">
	<g id="XMLID_311_">
		<path id="XMLID_313_" class="st0" d="M393.2,385.3c15.1-0.2,30.3,0.6,45.4,0.1c0.8,0,0.8-1.3,0-1.3c-15.1,0.5-30.2-0.3-45.4-0.1
			C392.4,384,392.4,385.3,393.2,385.3L393.2,385.3z"/>
	</g>
</g>
<g id="XMLID_304_">
	<g id="XMLID_306_">
		<path id="XMLID_307_" class="st0" d="M287.5,385.1c12.1-0.1,24.3,0.5,36.4,0.1c0.8,0,0.8-1.3,0-1.3c-12.1,0.4-24.3-0.2-36.4-0.1
			C286.7,383.9,286.7,385.1,287.5,385.1L287.5,385.1z"/>
	</g>
</g>
<g id="XMLID_299_">
	<g id="XMLID_300_">
		<path id="XMLID_301_" class="st0" d="M245.3,348.5c0.4,2.8-0.1,5.9-0.1,8.7c0,0.8,1.2,0.8,1.3,0c0.1-3,0.5-6.1,0.1-9
			C246.4,347.4,245.2,347.7,245.3,348.5L245.3,348.5z"/>
	</g>
</g>
<g id="XMLID_293_">
	<g id="XMLID_294_">
		<path id="XMLID_297_" class="st0" d="M248.4,351.1c-0.1,2.1-0.1,4.1-0.1,6.2c0,0.8,1.3,0.8,1.3,0c0-2.1,0-4.1,0.1-6.2
			C249.7,350.3,248.4,350.3,248.4,351.1L248.4,351.1z"/>
	</g>
</g>
<g id="XMLID_284_">
	<g id="XMLID_290_">
		<path id="XMLID_292_" class="st0" d="M249.5,353c0.6-0.6,1.1-1.3,1.9-1.4c1.1-0.1,1.3,0.8,1.4,1.6c0.2,1.4,0.1,2.7,0,4.1
			c-0.1,0.8,1.2,0.8,1.3,0c0.1-1.3,0.2-2.6,0-3.9c-0.1-0.8-0.1-1.9-0.7-2.5s-1.7-0.7-2.5-0.6c-1,0.2-1.6,1-2.3,1.7
			C248.1,352.7,249,353.6,249.5,353L249.5,353z"/>
	</g>
</g>
<g id="XMLID_280_">
	<g id="XMLID_282_">
		<path id="XMLID_283_" class="st0" d="M255.6,351c0.1,2.9,0.3,5.9,0.1,8.8c0,0.8,1.2,0.8,1.3,0c0.2-2.9,0-5.9-0.1-8.8
			C256.9,350.2,255.6,350.2,255.6,351L255.6,351z"/>
	</g>
</g>
<g id="XMLID_261_">
	<g id="XMLID_262_">
		<path id="XMLID_263_" class="st0" d="M256.9,353.3c0.5-0.8,1.1-1.3,2-1.5c1.5-0.3,1.9,0.8,1.9,2.1c0,1.1,0.1,2.1-1,2.5
			c-1.1,0.5-2.1,0.1-2.8-0.8c-0.5-0.6-1.4,0.3-0.9,0.9c1.1,1.2,2.8,1.7,4.3,1c1.8-0.8,1.8-2.4,1.7-4.1c-0.1-1.4-0.7-2.9-2.3-3
			s-3.1,0.8-4,2.2C255.4,353.3,256.4,354,256.9,353.3L256.9,353.3z"/>
	</g>
</g>
<g id="XMLID_255_">
	<g id="XMLID_256_">
		<path id="XMLID_259_" class="st0" d="M263.6,350.9c-0.3,1.6-0.4,3.3-0.1,5c0.3,1.3,1,1.8,2.2,1.9c3.6,0.4,3.7-4.3,3.6-6.8
			c0-0.8-1.3-0.8-1.3,0c0,1.6,0.3,5.4-1.9,5.6c-1.5,0.1-1.6-1.2-1.6-2.3c0-1,0-2,0.2-3C265,350.5,263.8,350.1,263.6,350.9
			L263.6,350.9z"/>
	</g>
</g>
<g id="XMLID_188_">
	<g id="XMLID_189_">
		<path id="XMLID_254_" class="st0" d="M268.1,351.1c0,2.1,0,4.1-0.1,6.2c0,0.8,1.2,0.8,1.3,0c0.1-2.1,0.1-4.1,0.1-6.2
			C269.4,350.3,268.1,350.3,268.1,351.1L268.1,351.1z"/>
	</g>
</g>
<g id="XMLID_185_">
	<g id="XMLID_186_">
		<path id="XMLID_187_" class="st0" d="M271.1,349.2c0,2.4-0.3,5.1,0.1,7.5c0.2,1.2,1,1.5,2.1,1.1c0.8-0.2,0.4-1.4-0.3-1.2
			c-0.9,0.3-0.5-0.6-0.5-1.2c0-0.7,0-1.5,0-2.2c0-1.4,0-2.7,0-4.1C272.4,348.4,271.1,348.4,271.1,349.2L271.1,349.2z"/>
	</g>
</g>
<g id="XMLID_182_">
	<g id="XMLID_183_">
		<path id="XMLID_184_" class="st0" d="M270.4,351.6c1,0.3,2,0.3,3,0.1c0.8-0.2,0.5-1.4-0.3-1.2s-1.5,0.1-2.3-0.1
			C270,350.2,269.6,351.4,270.4,351.6L270.4,351.6z"/>
	</g>
</g>
<g id="XMLID_179_">
	<g id="XMLID_180_">
		<path id="XMLID_181_" class="st0" d="M245.3,376.9c0.4,2.8-0.1,5.9-0.1,8.7c0,0.8,1.2,0.8,1.3,0c0.1-3,0.5-6.1,0.1-9
			C246.4,375.8,245.2,376.1,245.3,376.9L245.3,376.9z"/>
	</g>
</g>
<g id="XMLID_176_">
	<g id="XMLID_177_">
		<path id="XMLID_178_" class="st0" d="M248.4,379.5c-0.1,2.1-0.1,4.1-0.1,6.2c0,0.8,1.3,0.8,1.3,0c0-2.1,0-4.1,0.1-6.2
			C249.7,378.7,248.4,378.7,248.4,379.5L248.4,379.5z"/>
	</g>
</g>
<g id="XMLID_173_">
	<g id="XMLID_174_">
		<path id="XMLID_175_" class="st0" d="M249.5,381.4c0.6-0.6,1.1-1.3,1.9-1.4c1.1-0.1,1.3,0.8,1.4,1.6c0.2,1.4,0.1,2.7,0,4.1
			c-0.1,0.8,1.2,0.8,1.3,0c0.1-1.3,0.2-2.6,0-3.9c-0.1-0.8-0.1-1.9-0.7-2.5s-1.7-0.7-2.5-0.6c-1,0.2-1.6,1-2.3,1.7
			C248.1,381.1,249,381.9,249.5,381.4L249.5,381.4z"/>
	</g>
</g>
<g id="XMLID_170_">
	<g id="XMLID_171_">
		<path id="XMLID_172_" class="st0" d="M255.6,379.3c0.1,2.9,0.3,5.9,0.1,8.8c0,0.8,1.2,0.8,1.3,0c0.2-2.9,0-5.9-0.1-8.8
			C256.9,378.5,255.6,378.5,255.6,379.3L255.6,379.3z"/>
	</g>
</g>
<g id="XMLID_167_">
	<g id="XMLID_168_">
		<path id="XMLID_169_" class="st0" d="M256.9,381.6c0.5-0.8,1.1-1.3,2-1.5c1.5-0.3,1.9,0.8,1.9,2.1c0,1.1,0.1,2.1-1,2.5
			c-1.1,0.5-2.1,0.1-2.8-0.8c-0.5-0.6-1.4,0.3-0.9,0.9c1.1,1.2,2.8,1.7,4.3,1c1.8-0.8,1.8-2.4,1.7-4.1c-0.1-1.4-0.7-2.9-2.3-3
			c-1.6-0.1-3.1,0.8-4,2.2C255.4,381.7,256.4,382.3,256.9,381.6L256.9,381.6z"/>
	</g>
</g>
<g id="XMLID_164_">
	<g id="XMLID_165_">
		<path id="XMLID_166_" class="st0" d="M263.6,379.3c-0.3,1.6-0.4,3.3-0.1,5c0.3,1.3,1,1.8,2.2,1.9c3.6,0.4,3.7-4.3,3.6-6.8
			c0-0.8-1.3-0.8-1.3,0c0,1.6,0.3,5.4-1.9,5.6c-1.5,0.1-1.6-1.2-1.6-2.3c0-1,0-2,0.2-3C265,378.8,263.8,378.5,263.6,379.3
			L263.6,379.3z"/>
	</g>
</g>
<g id="XMLID_161_">
	<g id="XMLID_162_">
		<path id="XMLID_163_" class="st0" d="M268.1,379.4c0,2.1,0,4.1-0.1,6.2c0,0.8,1.2,0.8,1.3,0c0.1-2.1,0.1-4.1,0.1-6.2
			C269.4,378.6,268.1,378.6,268.1,379.4L268.1,379.4z"/>
	</g>
</g>
<g id="XMLID_158_">
	<g id="XMLID_159_">
		<path id="XMLID_160_" class="st0" d="M271.1,377.6c0,2.4-0.3,5.1,0.1,7.5c0.2,1.2,1,1.5,2.1,1.1c0.8-0.2,0.4-1.4-0.3-1.2
			c-0.9,0.3-0.5-0.6-0.5-1.2c0-0.7,0-1.5,0-2.2c0-1.4,0-2.7,0-4.1C272.4,376.8,271.1,376.8,271.1,377.6L271.1,377.6z"/>
	</g>
</g>
<g id="XMLID_155_">
	<g id="XMLID_156_">
		<path id="XMLID_157_" class="st0" d="M270.4,380c1,0.3,2,0.3,3,0.1c0.8-0.2,0.5-1.4-0.3-1.2s-1.5,0.1-2.3-0.1
			C270,378.6,269.6,379.8,270.4,380L270.4,380z"/>
	</g>
</g>
<g id="XMLID_1627_">
	<g id="XMLID_1623_">
		<path id="XMLID_1635_" class="st0" d="M450.2,347.8c-2.4-0.2-5,2.2-4.7,4.6c0.3,2.7,1.3,5.9,4.5,5.6c5-0.4,6.2-10.6,0.3-10.1
			c-0.8,0.1-0.8,1.3,0,1.3c4.2-0.3,2.9,6.3,0.2,7.3c-2.3,0.9-2.9-1.3-3.5-3c-0.6-2.1,0.7-4.7,3.2-4.5
			C451,349.1,451,347.9,450.2,347.8L450.2,347.8z"/>
	</g>
</g>
<g id="XMLID_1642_">
	<g id="XMLID_1615_">
		<path id="XMLID_1621_" class="st0" d="M455.8,351.1c0.1,0.9,0.1,1.9,0.2,2.8c0,0.7,0,1.6,0.2,2.3c0.3,1.2,1.5,1.4,2.6,1.5
			c3.1,0,3.2-4.5,3.2-6.7c0-0.8-1.2-0.8-1.3,0c-0.1,2.1-0.2,4.2-0.3,6.3c0,0.8,1.2,0.8,1.3,0c0.1-2.1,0.2-4.2,0.3-6.3
			c-0.4,0-0.8,0-1.3,0c0,1.6,0.1,5.4-2.2,5.4c-1.3,0-1.3-1-1.3-2.1c-0.1-1.1-0.1-2.2-0.2-3.3C457,350.3,455.7,350.3,455.8,351.1
			L455.8,351.1z"/>
	</g>
</g>
<g id="XMLID_1649_">
	<g id="XMLID_1599_">
		<path id="XMLID_1613_" class="st0" d="M463.4,349.5c0.5,2.4-0.5,4.8,0,7.2c0.2,1.2,1.2,1.6,2.3,1.2c0.8-0.2,0.4-1.5-0.3-1.2
			c-1.3,0.4-0.6-3.3-0.6-3.9c0.1-1.2,0.1-2.4-0.2-3.6C464.5,348.4,463.3,348.7,463.4,349.5L463.4,349.5z"/>
	</g>
</g>
<g id="XMLID_1658_">
	<g id="XMLID_1591_">
		<path id="XMLID_1596_" class="st0" d="M463,351.7c0.8,0,1.6,0,2.3,0c0.8,0,0.8-1.2,0-1.3c-0.8,0-1.6,0-2.3,0
			C462.2,350.4,462.2,351.7,463,351.7L463,351.7z"/>
	</g>
</g>
<g id="XMLID_1666_">
	<g id="XMLID_1584_">
		<path id="XMLID_1588_" class="st0" d="M467,351.2c0.2,2.9,0.1,5.7-0.1,8.6c-0.1,0.8,1.2,0.8,1.3,0c0.3-2.9,0.3-5.7,0.1-8.6
			C468.2,350.4,467,350.3,467,351.2L467,351.2z"/>
	</g>
</g>
<g id="XMLID_1674_">
	<g id="XMLID_1577_">
		<path id="XMLID_1581_" class="st0" d="M468.1,353c0.4-0.7,1-1,1.8-1.2c0.5-0.1,1.3-0.1,1.7,0.3c0.2,0.3,0.2,0.9,0.3,1.3
			c0,0.6,0.2,1.5-0.1,2.1c-0.4,1-2.6,1.3-3.4,0.6c-0.6-0.5-1.5,0.4-0.9,0.9c1.2,1,3.2,0.9,4.5,0.1c1.4-0.8,1.2-2.8,1.1-4.1
			c-0.1-1.5-0.8-2.7-2.5-2.6c-1.4,0-2.8,0.7-3.5,1.9C466.6,353.1,467.7,353.7,468.1,353L468.1,353z"/>
	</g>
</g>
<g id="XMLID_1682_">
	<g id="XMLID_1570_">
		<path id="XMLID_1574_" class="st0" d="M474.8,351.1c0,1.5-0.3,3.3-0.1,4.8c0.2,1.2,1.4,1.5,2.5,1.6c3.4,0.3,3-3.9,3.2-6.2
			c0.1-0.7-1.1-0.9-1.2-0.2c-0.3,1.9-0.4,3.9-0.3,5.8c0.1,0.8,1.3,0.8,1.3,0c-0.1-1.8,0-3.7,0.3-5.5c-0.4-0.1-0.8-0.1-1.2-0.2
			c-0.1,0.9-0.2,1.9-0.3,2.8c-0.1,1.3-0.4,2.4-2.1,2c-1.2-0.2-0.9-1.4-0.9-2.3c0-0.9,0.1-1.9,0.1-2.8
			C476.1,350.3,474.9,350.3,474.8,351.1L474.8,351.1z"/>
	</g>
</g>
<g id="XMLID_1690_">
	<g id="XMLID_1563_">
		<path id="XMLID_1567_" class="st0" d="M482,349.3c0.1,2.2-0.1,4.6,0.2,6.8c0.1,1.1,0.9,2,2.1,1.6c0.7-0.3,0.4-1.5-0.3-1.2
			c-0.6,0.2-0.6-3.3-0.6-3.7c0-1.2-0.1-2.3-0.1-3.5C483.2,348.5,481.9,348.5,482,349.3L482,349.3z"/>
	</g>
</g>
<g id="XMLID_1698_">
	<g id="XMLID_1555_">
		<path id="XMLID_1560_" class="st0" d="M481.3,351.7c0.9,0.4,2.1,0.3,3.1,0.2c0.8,0,0.8-1.3,0-1.3c-0.4,0-0.8,0-1.2,0
			c-0.3,0-0.9,0.1-1.2-0.1C481.2,350.3,480.6,351.4,481.3,351.7L481.3,351.7z"/>
	</g>
</g>
<g id="XMLID_331_">
	<g id="XMLID_333_">
		<path id="XMLID_337_" class="st0" d="M450.2,376.2c-2.4-0.2-5,2.2-4.7,4.6c0.3,2.7,1.3,5.9,4.5,5.6
			C455,386,456.2,375.8,450.2,376.2c-0.7,0.2-0.7,1.4,0.1,1.4c4.2-0.3,2.9,6.3,0.2,7.3c-2.3,0.9-2.9-1.3-3.5-3
			c-0.6-2.1,0.7-4.7,3.2-4.5C451,377.5,451,376.2,450.2,376.2L450.2,376.2z"/>
	</g>
</g>
<g id="XMLID_324_">
	<g id="XMLID_326_">
		<path id="XMLID_330_" class="st0" d="M455.8,379.5c0.1,0.9,0.1,1.9,0.2,2.8c0,0.7,0,1.6,0.2,2.3c0.3,1.2,1.5,1.4,2.6,1.5
			c3.1,0,3.2-4.5,3.2-6.7c0-0.8-1.2-0.8-1.3,0c-0.1,2.1-0.2,4.2-0.3,6.3c0,0.8,1.2,0.8,1.3,0c0.1-2.1,0.2-4.2,0.3-6.3
			c-0.4,0-0.8,0-1.3,0c0,1.6,0.1,5.4-2.2,5.4c-1.3,0-1.3-1-1.3-2.1c-0.1-1.1-0.1-2.2-0.2-3.3C457,378.7,455.7,378.6,455.8,379.5
			L455.8,379.5z"/>
	</g>
</g>
<g id="XMLID_317_">
	<g id="XMLID_319_">
		<path id="XMLID_323_" class="st0" d="M463.4,377.8c0.5,2.4-0.5,4.8,0,7.2c0.2,1.2,1.2,1.6,2.3,1.2c0.8-0.2,0.4-1.5-0.3-1.2
			c-1.3,0.4-0.6-3.3-0.6-3.9c0.1-1.2,0.1-2.4-0.2-3.6C464.5,376.7,463.3,377,463.4,377.8L463.4,377.8z"/>
	</g>
</g>
<g id="XMLID_310_">
	<g id="XMLID_312_">
		<path id="XMLID_316_" class="st0" d="M463,380.1c0.8,0,1.6,0,2.3,0c0.8,0,0.8-1.2,0-1.3c-0.8,0-1.6,0-2.3,0
			C462.2,378.8,462.2,380,463,380.1L463,380.1z"/>
	</g>
</g>
<g id="XMLID_303_">
	<g id="XMLID_305_">
		<path id="XMLID_309_" class="st0" d="M467,379.5c0.2,2.9,0.1,5.7-0.1,8.6c-0.1,0.8,1.2,0.8,1.3,0c0.3-2.9,0.3-5.7,0.1-8.6
			C468.2,378.7,467,378.7,467,379.5L467,379.5z"/>
	</g>
</g>
<g id="XMLID_296_">
	<g id="XMLID_298_">
		<path id="XMLID_302_" class="st0" d="M468.1,381.3c0.4-0.7,1-1,1.8-1.2c0.5-0.1,1.3-0.1,1.7,0.3c0.2,0.3,0.2,0.9,0.3,1.3
			c0,0.6,0.2,1.5-0.1,2.1c-0.4,1-2.6,1.3-3.4,0.6c-0.6-0.5-1.5,0.4-0.9,0.9c1.2,1,3.2,0.9,4.5,0.1c1.4-0.8,1.2-2.8,1.1-4.1
			c-0.1-1.5-0.8-2.7-2.5-2.6c-1.4,0-2.8,0.7-3.5,1.9C466.6,381.4,467.7,382,468.1,381.3L468.1,381.3z"/>
	</g>
</g>
<g id="XMLID_289_">
	<g id="XMLID_291_">
		<path id="XMLID_295_" class="st0" d="M474.8,379.4c0,1.5-0.3,3.3-0.1,4.8c0.2,1.2,1.4,1.5,2.5,1.6c3.4,0.3,3-3.9,3.2-6.2
			c0.1-0.7-1.1-0.9-1.2-0.2c-0.3,1.9-0.4,3.9-0.3,5.8c0.1,0.8,1.3,0.8,1.3,0c-0.1-1.8,0-3.7,0.3-5.5c-0.4-0.1-0.8-0.1-1.2-0.2
			c-0.1,0.9-0.2,1.9-0.3,2.8c-0.1,1.3-0.4,2.4-2.1,2c-1.2-0.2-0.9-1.4-0.9-2.3s0.1-1.9,0.1-2.8C476.1,378.6,474.9,378.6,474.8,379.4
			L474.8,379.4z"/>
	</g>
</g>
<g id="XMLID_258_">
	<g id="XMLID_260_">
		<path id="XMLID_264_" class="st0" d="M482,377.6c0.1,2.2-0.1,4.6,0.2,6.8c0.1,1.1,0.9,2,2.1,1.6c0.7-0.3,0.4-1.5-0.3-1.2
			c-0.6,0.2-0.6-3.3-0.6-3.7c0-1.2-0.1-2.3-0.1-3.5C483.2,376.8,481.9,376.8,482,377.6L482,377.6z"/>
	</g>
</g>
<g id="XMLID_154_">
	<g id="XMLID_253_">
		<path id="XMLID_257_" class="st0" d="M481.3,380.1c0.9,0.4,2.1,0.3,3.1,0.2c0.8,0,0.8-1.3,0-1.3c-0.4,0-0.8,0-1.2,0
			c-0.3,0-0.9,0.1-1.2-0.1C481.2,378.6,480.6,379.7,481.3,380.1L481.3,380.1z"/>
	</g>
</g>
<g id="XMLID_1707_">
	<g id="XMLID_1549_">
		<path id="XMLID_1553_" class="st0" d="M332.1,367.1c0,1.6-0.5,3.1-0.6,4.6c-0.1,1.4,0,2.7,0.2,4c0.1,0.8,1.3,0.5,1.2-0.3
			c-0.2-1.4-0.3-2.9-0.2-4.3c0.1-1.4,0.5-2.7,0.5-4C333.3,366.3,332.1,366.3,332.1,367.1L332.1,367.1z"/>
	</g>
</g>
<g id="XMLID_1715_">
	<g id="XMLID_1542_">
		<path id="XMLID_1547_" class="st0" d="M332.4,367.6c0.8-0.1,4.4-0.5,4.6,0.8c0.2,1.5-1.1,1.9-2.2,2c-0.7,0.1-1.4,0-2-0.1
			c0,0.4,0,0.8,0,1.3c0.8-0.1,1.5-0.2,2.3-0.2c1.2,0,2.1,0.1,2.4,1.4c0.7,2.7-3.4,2.3-5.1,2.3c-0.8,0-0.8,1.2,0,1.3
			c2.3,0.1,6.7,0.2,6.6-3.3c-0.1-3.3-3.9-2.9-6.2-2.7c-0.8,0.1-0.8,1.2,0,1.3c2,0.2,5.9,0.1,5.6-2.9s-3.6-2.6-5.9-2.4
			C331.6,366.4,331.6,367.7,332.4,367.6L332.4,367.6z"/>
	</g>
</g>
<g id="XMLID_1723_">
	<g id="XMLID_1535_">
		<path id="XMLID_1540_" class="st0" d="M340.5,366.8c-0.4,2.8-0.4,5.7-0.3,8.5c0,0.8,1.3,0.8,1.3,0c-0.2-2.9-0.1-5.7,0.3-8.5
			C341.9,366,340.6,366,340.5,366.8L340.5,366.8z"/>
	</g>
</g>
<g id="XMLID_1731_">
	<g id="XMLID_1524_">
		<path id="XMLID_1532_" class="st0" d="M344.4,371.2c0.7-1.1,2.1-1.7,2.9-0.3c0.5,0.9,0.2,2.3,0.2,3.3c-0.1,1.1,0.3,2,1.5,1.8
			c0.8-0.1,0.5-1.3-0.3-1.2c0.3-0.1,0.1-3.1,0-3.5c-0.1-0.9-0.4-1.7-1.2-2.2c-1.5-0.9-3.2,0-4.1,1.3
			C342.9,371.2,344,371.8,344.4,371.2L344.4,371.2z"/>
	</g>
</g>
<g id="XMLID_1739_">
	<g id="XMLID_1514_">
		<path id="XMLID_1522_" class="st0" d="M347.8,371.2c-1.2,0.3-2.7,0.4-3.8,1c-0.8,0.4-1.3,1.7-1.1,2.5c0.3,1,1.6,1.3,2.4,1.2
			c1.2,0,2.2-0.6,3-1.4c0.6-0.6-0.3-1.4-0.9-0.9c-0.4,0.4-0.9,0.8-1.6,0.9c-0.6,0.2-2.2,0.2-1.7-0.9c0.3-0.6,1.2-0.7,1.8-0.8
			c0.7-0.2,1.3-0.3,2-0.5C348.9,372.3,348.6,371.1,347.8,371.2L347.8,371.2z"/>
	</g>
</g>
<g id="XMLID_1747_">
	<g id="XMLID_1507_">
		<path id="XMLID_1511_" class="st0" d="M356.1,370.7c-0.2-0.7-0.1-1.1-0.8-1.5c-0.7-0.4-1.6-0.4-2.4-0.4c-1.6,0.1-2.5,1.1-2.7,2.7
			c-0.2,1.5,0,3.5,1.5,4.2c0.7,0.4,1.8,0.5,2.6,0.4c0.8-0.2,1-0.8,1.7-1.1c0.7-0.4,0.1-1.5-0.6-1.1c-0.9,0.5-1.2,1.2-2.4,0.9
			c-1.3-0.3-1.6-1.3-1.6-2.5c0-1,0.2-2.2,1.5-2.3c0.4,0,0.9,0,1.3,0.1c0.6,0.2,0.5,0.4,0.7,1C355.2,371.8,356.4,371.5,356.1,370.7
			L356.1,370.7z"/>
	</g>
</g>
<g id="XMLID_1756_">
	<g id="XMLID_1498_">
		<path id="XMLID_1504_" class="st0" d="M357.6,366.8c-0.2,2.8,0.5,5.7,0.1,8.5c-0.1,0.8,1.1,1.1,1.2,0.3c0.5-3-0.3-5.9,0-8.8
			C358.9,366,357.7,366,357.6,366.8L357.6,366.8z"/>
	</g>
</g>
<g id="XMLID_1764_">
	<g id="XMLID_1490_">
		<path id="XMLID_1496_" class="st0" d="M359.3,372.9c0.1-0.3,0.5-0.6,0.7-0.8c0.3-0.3,0.6-0.5,0.8-0.8c0.6-0.5,1.1-1,1.6-1.6
			c0.5-0.6-0.4-1.5-0.9-0.9c-0.6,0.7-1.3,1.3-1.9,1.9c-0.6,0.5-1.3,1.1-1.5,1.9C357.9,373.4,359.1,373.7,359.3,372.9L359.3,372.9z"
			/>
	</g>
</g>
<g id="XMLID_1772_">
	<g id="XMLID_1482_">
		<path id="XMLID_1488_" class="st0" d="M359.3,371.6c0.1,0.7,0.6,1.3,1,1.9c0.5,0.7,1,1.5,1.6,2.2c0.5,0.6,1.5,0,1.1-0.6
			c-0.5-0.7-0.9-1.3-1.4-2c-0.4-0.6-0.9-1.1-1.1-1.8C360.4,370.5,359.2,370.8,359.3,371.6L359.3,371.6z"/>
	</g>
</g>
<g id="XMLID_1780_">
	<g id="XMLID_1443_">
		<path id="XMLID_1480_" class="st0" d="M364.3,366.8c0.1,2.9,0.1,5.7,0,8.6c0,0.8,1.2,0.8,1.3,0c0.1-2.9,0.2-5.7,0-8.6
			C365.5,366,364.3,366,364.3,366.8L364.3,366.8z"/>
	</g>
</g>
<g id="XMLID_1788_">
	<g id="XMLID_152_">
		<path id="XMLID_153_" class="st0" d="M365.2,367.8c1.4-0.1,3.4-1.1,4.1,0.6c0.9,2-2.5,2-3.7,2c-0.8,0-0.8,1.2,0,1.3
			c1.3,0.1,6.3-0.2,3.9,2.4c-1.1,1.2-2.8,1.3-4.4,1.1c-0.8-0.1-0.8,1.2,0,1.3c2,0.2,6.1-0.1,6.3-2.8c0.2-3.5-3.4-3.1-5.8-3.2
			c0,0.4,0,0.8,0,1.3c2.2-0.1,5.5-0.2,5-3.1c-0.5-3.1-3.1-2.3-5.5-2.1C364.4,366.7,364.4,367.9,365.2,367.8L365.2,367.8z"/>
	</g>
</g>
<g id="XMLID_1796_">
	<g id="XMLID_150_">
		<path id="XMLID_151_" class="st0" d="M375.9,368.6c-4.4,0.2-4.9,7.7-0.2,7.6C380.6,376.2,380.3,369.2,375.9,368.6
			c-0.9,0-0.9,1.3-0.1,1.3c2.9,0.3,3.2,5.2-0.1,5.1c-3.1-0.1-2.6-5,0.2-5.1C376.7,369.8,376.7,368.6,375.9,368.6L375.9,368.6z"/>
	</g>
</g>
<g id="XMLID_1805_">
	<g id="XMLID_148_">
		<path id="XMLID_149_" class="st0" d="M380.1,369.7c0.7,0.8,1.1,1.9,1.8,2.8c0.8,1.1,1.7,2.2,2.4,3.3c0.4,0.7,1.5,0.1,1.1-0.6
			c-0.7-1.1-1.5-2.2-2.4-3.3c-0.8-1-1.2-2.2-2-3.1C380.5,368.3,379.6,369.1,380.1,369.7L380.1,369.7z"/>
	</g>
</g>
<g id="XMLID_1813_">
	<g id="XMLID_146_">
		<path id="XMLID_147_" class="st0" d="M384.6,368.6c-2.2,1.9-3.3,4.6-5,6.8c-0.5,0.6,0.4,1.5,0.9,0.9c1.8-2.2,2.9-5,5-6.8
			C386.1,368.9,385.2,368,384.6,368.6L384.6,368.6z"/>
	</g>
</g>
<g id="XMLID_143_">
	<g id="XMLID_144_">
		<path id="XMLID_145_" class="st0" d="M325.4,346.5c18.4,0,36.8,0,55.1,0.1c2.1,0,4.7-0.4,6.8,0c4.8,0.8,5.2,3.8,5.3,7.6
			c0.1,4.4-0.1,8.8-0.3,13.3c-0.2,4.4-0.4,8.8-0.4,13.3c0,2.5,0.1,5,0.2,7.5c0.1,3.3,0.9,4.7-1.8,7c-2.5,2.2-3.8,1.7-6.9,1.5
			c-2.3-0.2-4.6-0.4-6.9-0.3c-4.2,0.1-8.4,0.6-12.6,0.4c-8.9-0.6-17.7-0.2-26.6-0.2c-2.2,0-4.5,0-6.7-0.2c-4.1-0.4-5.3-2.4-5.8-6.5
			c-0.5-4.3,0.1-9.1,0.1-13.5c0-4.5,0.1-9,0.1-13.5c0-2.4-1.3-15.3,0.9-16.4c0.7-0.4,0.1-1.5-0.6-1.1c-1.7,0.9-1.4,2.2-1.4,4
			c-0.1,5.1-0.1,10.3-0.1,15.4c0,4.5-0.1,9-0.1,13.5c0,4.7-0.9,10.2-0.1,14.8c1,5.3,7.8,4.6,11.8,4.7c9.2,0.1,18.4-0.6,27.6,0.1
			c4.6,0.3,9-0.1,13.5-0.3c4.2-0.2,8.5,0.9,12.7,0.4c1.3-0.1,3.3-0.3,4.1-1.6c1.5-2.5,0.1-8.3,0-11.1c-0.3-9.2,0.6-18.3,0.7-27.5
			c0.1-4.4,1.6-11.6-4.2-12.5c-5-0.9-10.8-0.1-15.8-0.1c-5.4,0-10.7,0-16.1,0c-10.8,0-21.6,0-32.4,0
			C324.6,345.2,324.6,346.4,325.4,346.5L325.4,346.5z"/>
	</g>
</g>
<g id="XMLID_1166_">
	<g id="XMLID_281_">
		<path id="XMLID_285_" class="st0" d="M292.7,341.8c-4-0.5-3.9,9.1,0.8,8.3c2-0.3,2.2-3.5,2.1-5c-0.2-2.6-1.4-3.7-4-3.4
			c-0.8,0.1-0.5,1.3,0.3,1.2c1-0.1,1.7-0.2,2.2,1c0.2,0.4,0.2,1.3,0.2,1.8c0,1-0.1,2.4-1.1,2.8c-2.8,1.1-2.8-5.7-0.6-5.5
			C293.5,343.2,293.5,341.9,292.7,341.8L292.7,341.8z"/>
	</g>
</g>
<g id="XMLID_140_">
	<g id="XMLID_141_">
		<path id="XMLID_142_" class="st0" d="M423.3,340.5c-0.4,3.5-0.2,7.1,0,10.6c0,0.8,1.3,0.8,1.3,0c-0.2-3.5-0.4-7.1,0-10.6
			C424.7,339.7,423.4,339.7,423.3,340.5L423.3,340.5z"/>
	</g>
</g>
<g id="XMLID_137_">
	<g id="XMLID_138_">
		<path id="XMLID_139_" class="st0" d="M433.4,351.5c1.2-1.1,2-2.5,3.2-3.6c0.6-0.6,2-1.3,2-2.2c0.1-0.8-1-1.5-1.4-2
			c-1.2-1.3-2.5-2.4-3.9-3.5c-0.6-0.5-1.5,0.4-0.9,0.9c0.9,0.7,1.8,1.5,2.6,2.3c0.3,0.3,2.3,1.9,2.2,2.3c0,0.5-1.9,1.8-2.3,2.2
			c-0.9,0.9-1.6,2-2.5,2.9C432,351.2,432.9,352.1,433.4,351.5L433.4,351.5z"/>
	</g>
</g>
<g id="XMLID_134_">
	<g id="XMLID_135_">
		<path id="XMLID_136_" class="st0" d="M428.8,341.8c-4-0.5-3.9,9.1,0.8,8.3c2-0.3,2.2-3.5,2.1-5c-0.2-2.6-1.4-3.7-4-3.4
			c-0.8,0.1-0.5,1.3,0.3,1.2c1-0.1,1.7-0.2,2.2,1c0.2,0.4,0.2,1.3,0.2,1.8c0,1-0.1,2.4-1.1,2.8c-2.8,1.1-2.8-5.7-0.6-5.5
			C429.6,343.2,429.6,341.9,428.8,341.8L428.8,341.8z"/>
	</g>
</g>
<g id="XMLID_113_">
	<g id="XMLID_131_">
		<g id="XMLID_132_">
			<path id="XMLID_133_" class="st0" d="M276.3,355.7c1-0.7,1.9-1.3,2.9-2c-0.3-0.2-0.6-0.5-0.9-0.7c-0.5,2.5-0.7,5-0.6,7.6
				c0,0.8,1.3,0.8,1.3,0c-0.1-2.4,0.1-4.9,0.6-7.3c0.1-0.5-0.4-1-0.9-0.7c-1,0.7-1.9,1.3-2.9,2C275,355.1,275.6,356.2,276.3,355.7
				L276.3,355.7z"/>
		</g>
	</g>
	<g id="XMLID_114_">
		<g id="XMLID_115_">
			<path id="XMLID_130_" class="st0" d="M275.4,361.4c1.7,0,3.4-0.1,5.1-0.2c0.8,0,0.8-1.3,0-1.3c-1.7,0.1-3.4,0.1-5.1,0.2
				C274.6,360.1,274.6,361.4,275.4,361.4L275.4,361.4z"/>
		</g>
	</g>
</g>
<g id="XMLID_110_">
	<g id="XMLID_111_">
		<path id="XMLID_112_" class="st0" d="M276.5,384.2c0.2-0.4,0.5-0.8,0.9-1c0.6-0.4,0.9-0.5,1.5,0c0.5,0.4,0.5,0.6,0.4,1.2
			c-0.1,0.4-0.3,0.8-0.4,1.1c-0.7,1.4-2,2.5-3.5,3c-0.7,0.2-0.5,1.2,0.2,1.2c2.2,0.2,4.3,0.1,6.5-0.1c0.8-0.1,0.8-1.3,0-1.3
			c-2.2,0.2-4.3,0.3-6.5,0.1c0.1,0.4,0.1,0.8,0.2,1.2c2.5-0.9,5.3-3.5,5-6.4c-0.4-3.2-4-1.7-5.1,0.2
			C275,384.2,276.1,384.9,276.5,384.2L276.5,384.2z"/>
	</g>
</g>
<g id="XMLID_345_">
	<g id="XMLID_353_">
		<g id="XMLID_355_">
			<path id="XMLID_359_" class="st0" d="M487.5,355.7c1-0.7,1.9-1.3,2.9-2c-0.3-0.2-0.6-0.5-0.9-0.7c-0.5,2.5-0.7,5-0.6,7.6
				c0,0.8,1.3,0.8,1.3,0c-0.1-2.4,0.1-4.9,0.6-7.3c0.1-0.5-0.4-1-0.9-0.7c-1,0.7-1.9,1.3-2.9,2C486.2,355.1,486.8,356.2,487.5,355.7
				L487.5,355.7z"/>
		</g>
	</g>
	<g id="XMLID_346_">
		<g id="XMLID_348_">
			<path id="XMLID_352_" class="st0" d="M486.6,361.4c1.7,0,3.4-0.1,5.1-0.2c0.8,0,0.8-1.3,0-1.3c-1.7,0.1-3.4,0.1-5.1,0.2
				C485.8,360.1,485.8,361.4,486.6,361.4L486.6,361.4z"/>
		</g>
	</g>
</g>
<g id="XMLID_338_">
	<g id="XMLID_340_">
		<path id="XMLID_344_" class="st0" d="M487.7,384.2c0.2-0.4,0.5-0.8,0.9-1c0.6-0.4,0.9-0.5,1.5,0c0.5,0.4,0.5,0.6,0.4,1.2
			c-0.1,0.4-0.3,0.8-0.4,1.1c-0.7,1.4-2,2.5-3.5,3c-0.7,0.2-0.5,1.2,0.2,1.2c2.2,0.2,4.3,0.1,6.5-0.1c0.8-0.1,0.8-1.3,0-1.3
			c-2.2,0.2-4.3,0.3-6.5,0.1c0.1,0.4,0.1,0.8,0.2,1.2c2.5-0.9,5.3-3.5,5-6.4c-0.4-3.2-4-1.7-5.1,0.2
			C486.2,384.2,487.3,384.9,487.7,384.2L487.7,384.2z"/>
	</g>
</g>
</svg>
