<?xml version="1.0" encoding="utf-8"?>
<!-- Generator: Adobe Illustrator 19.0.0, SVG Export Plug-In . SVG Version: 6.00 Build 0)  -->
<svg version="1.2" baseProfile="tiny" id="Layer_1" xmlns="http://www.w3.org/2000/svg" xmlns:xlink="http://www.w3.org/1999/xlink"
	 x="0px" y="0px" viewBox="0 0 595.3 61" xml:space="preserve">
<g id="XMLID_1500_">
	<g id="XMLID_1831_">
		<path id="XMLID_1836_" fill="#0F0F0D" d="M193.1,17.8c-0.4-0.9-1.3-1.4-2.2-1.9c-0.7-0.4-1.3,0.7-0.6,1.1s1.4,0.7,1.7,1.5
			C192.3,19.1,193.4,18.5,193.1,17.8L193.1,17.8z"/>
	</g>
</g>
<g id="XMLID_44_">
	<g id="XMLID_1824_">
		<path id="XMLID_1829_" fill="#0F0F0D" d="M192,17.9c-0.4,0.6-1,1-1.6,1.3c-0.7,0.4-0.1,1.5,0.6,1.1c0.8-0.5,1.5-1.1,2-1.8
			c0.2-0.3,0-0.7-0.2-0.9C192.5,17.5,192.2,17.7,192,17.9L192,17.9z"/>
	</g>
</g>
<g id="XMLID_20_">
	<g id="XMLID_37_">
		<path id="XMLID_47_" fill="#0F0F0D" d="M70,18.7c40.6-0.1,81.1,0.5,121.7,0.1c0.8,0,0.8-1.2,0-1.2c-40.6,0.5-81.1-0.2-121.7-0.1
			C69.2,17.5,69.2,18.7,70,18.7L70,18.7z"/>
	</g>
</g>
<g id="XMLID_123_">
	<g id="XMLID_125_">
		<path id="XMLID_129_" fill="#0F0F0D" d="M193.1,46.1c-0.4-0.9-1.3-1.4-2.2-1.9c-0.7-0.4-1.3,0.7-0.6,1.1c0.7,0.4,1.4,0.7,1.7,1.5
			C192.3,47.5,193.4,46.8,193.1,46.1L193.1,46.1z"/>
	</g>
</g>
<g id="XMLID_116_">
	<g id="XMLID_118_">
		<path id="XMLID_122_" fill="#0F0F0D" d="M192,46.3c-0.4,0.6-1,1-1.6,1.3c-0.7,0.4-0.1,1.5,0.6,1.1c0.8-0.5,1.5-1.1,2-1.8
			c0.2-0.3,0-0.7-0.2-0.9C192.5,45.9,192.2,46,192,46.3L192,46.3z"/>
	</g>
</g>
<g id="XMLID_81_">
	<g id="XMLID_28_">
		<path id="XMLID_33_" fill="#0F0F0D" d="M70,47.1c40.6-0.1,81.1,0.5,121.7,0.1c0.8,0,0.8-1.2,0-1.2c-40.6,0.5-81.1-0.2-121.7-0.1
			C69.2,45.9,69.2,47.1,70,47.1L70,47.1z"/>
	</g>
</g>
<g id="XMLID_1600_">
	<g id="XMLID_1703_">
		<path id="XMLID_1709_" fill="#0F0F0D" d="M27.8,10.5c0.4,2.8-0.1,5.9-0.1,8.7c0,0.8,1.2,0.8,1.3,0c0.1-3,0.5-6.1,0.1-9
			C28.9,9.4,27.7,9.7,27.8,10.5L27.8,10.5z"/>
	</g>
</g>
<g id="XMLID_1601_">
	<g id="XMLID_1695_">
		<path id="XMLID_1701_" fill="#0F0F0D" d="M30.9,13.1c-0.1,2.1-0.1,4.2-0.1,6.2c0,0.8,1.3,0.8,1.3,0c0-2.1,0-4.1,0.1-6.2
			C32.2,12.3,30.9,12.3,30.9,13.1L30.9,13.1z"/>
	</g>
</g>
<g id="XMLID_1602_">
	<g id="XMLID_1687_">
		<path id="XMLID_1693_" fill="#0F0F0D" d="M32,15c0.6-0.6,1.1-1.3,1.9-1.4c1.1-0.1,1.3,0.8,1.4,1.6c0.2,1.4,0.1,2.7,0,4.1
			c-0.1,0.8,1.2,0.8,1.3,0c0.1-1.3,0.2-2.6,0-3.9c-0.1-0.8-0.1-1.9-0.7-2.5c-0.6-0.6-1.7-0.7-2.5-0.6c-1,0.2-1.6,1-2.3,1.7
			C30.6,14.7,31.4,15.6,32,15L32,15z"/>
	</g>
</g>
<g id="XMLID_1603_">
	<g id="XMLID_1679_">
		<path id="XMLID_1684_" fill="#0F0F0D" d="M38.1,13c0.1,2.9,0.3,5.9,0.1,8.8c0,0.8,1.2,0.8,1.3,0c0.2-2.9,0-5.9-0.1-8.8
			C39.3,12.2,38.1,12.2,38.1,13L38.1,13z"/>
	</g>
</g>
<g id="XMLID_1605_">
	<g id="XMLID_1670_">
		<path id="XMLID_1676_" fill="#0F0F0D" d="M39.4,15.3c0.5-0.8,1.1-1.3,2-1.5c1.5-0.3,1.9,0.8,1.9,2.1c0,1.1,0.1,2.1-1,2.5
			c-1.1,0.5-2.1,0.1-2.8-0.8c-0.5-0.6-1.4,0.3-0.9,0.9c1.1,1.2,2.8,1.7,4.3,1c1.8-0.8,1.8-2.4,1.7-4.1c-0.1-1.4-0.7-2.9-2.3-3
			s-3.1,0.8-4,2.2C37.9,15.3,38.9,16,39.4,15.3L39.4,15.3z"/>
	</g>
</g>
<g id="XMLID_1606_">
	<g id="XMLID_1662_">
		<path id="XMLID_1668_" fill="#0F0F0D" d="M46.1,12.9c-0.3,1.6-0.4,3.3-0.1,5c0.3,1.3,1,1.8,2.2,1.9c3.6,0.4,3.7-4.3,3.6-6.8
			c0-0.8-1.3-0.8-1.3,0c0,1.6,0.3,5.4-1.9,5.6c-1.5,0.1-1.6-1.2-1.6-2.3c0-1,0-2,0.2-3C47.5,12.5,46.3,12.1,46.1,12.9L46.1,12.9z"/>
	</g>
</g>
<g id="XMLID_1608_">
	<g id="XMLID_1654_">
		<path id="XMLID_1660_" fill="#0F0F0D" d="M50.6,13.1c0,2.1,0,4.1-0.1,6.2c0,0.8,1.2,0.8,1.3,0c0.1-2.1,0.1-4.1,0.1-6.2
			C51.8,12.3,50.6,12.3,50.6,13.1L50.6,13.1z"/>
	</g>
</g>
<g id="XMLID_1610_">
	<g id="XMLID_1646_">
		<path id="XMLID_1652_" fill="#0F0F0D" d="M53.6,11.2c0,2.4-0.3,5.1,0.1,7.5c0.2,1.2,1,1.5,2.1,1.1c0.8-0.2,0.4-1.4-0.3-1.2
			C54.6,18.9,55,18,55,17.4c0-0.7,0-1.5,0-2.2c0-1.4,0-2.7,0-4.1C54.9,10.4,53.6,10.4,53.6,11.2L53.6,11.2z"/>
	</g>
</g>
<g id="XMLID_1619_">
	<g id="XMLID_1639_">
		<path id="XMLID_1644_" fill="#0F0F0D" d="M52.9,13.6c1,0.3,2,0.3,3,0.1c0.8-0.2,0.5-1.4-0.3-1.2s-1.5,0.1-2.3-0.1
			S52.1,13.4,52.9,13.6L52.9,13.6z"/>
	</g>
</g>
<g id="XMLID_246_">
	<g id="XMLID_248_">
		<path id="XMLID_252_" fill="#0F0F0D" d="M27.8,38.9c0.4,2.8-0.1,5.9-0.1,8.7c0,0.8,1.2,0.8,1.3,0c0.1-3,0.5-6.1,0.1-9
			C28.9,37.8,27.7,38.1,27.8,38.9L27.8,38.9z"/>
	</g>
</g>
<g id="XMLID_239_">
	<g id="XMLID_241_">
		<path id="XMLID_245_" fill="#0F0F0D" d="M30.9,41.5c-0.1,2-0.1,4.1-0.1,6.2c0,0.8,1.3,0.8,1.3,0c0-2.1,0-4.1,0.1-6.2
			C32.2,40.7,30.9,40.7,30.9,41.5L30.9,41.5z"/>
	</g>
</g>
<g id="XMLID_232_">
	<g id="XMLID_234_">
		<path id="XMLID_238_" fill="#0F0F0D" d="M32,43.4c0.6-0.6,1.1-1.3,1.9-1.4c1.1-0.1,1.3,0.8,1.4,1.6c0.2,1.4,0.1,2.7,0,4.1
			c-0.1,0.8,1.2,0.8,1.3,0c0.1-1.3,0.2-2.6,0-3.9c-0.1-0.8-0.1-1.9-0.7-2.5c-0.6-0.6-1.7-0.7-2.5-0.6c-1,0.2-1.6,1-2.3,1.7
			C30.6,43.1,31.4,43.9,32,43.4L32,43.4z"/>
	</g>
</g>
<g id="XMLID_225_">
	<g id="XMLID_227_">
		<path id="XMLID_231_" fill="#0F0F0D" d="M38.1,41.3c0.1,2.9,0.3,5.9,0.1,8.8c0,0.8,1.2,0.8,1.3,0c0.2-2.9,0-5.9-0.1-8.8
			C39.3,40.5,38.1,40.5,38.1,41.3L38.1,41.3z"/>
	</g>
</g>
<g id="XMLID_218_">
	<g id="XMLID_220_">
		<path id="XMLID_224_" fill="#0F0F0D" d="M39.4,43.6c0.5-0.8,1.1-1.3,2-1.5c1.5-0.3,1.9,0.8,1.9,2.1c0,1.1,0.1,2.1-1,2.5
			c-1.1,0.5-2.1,0.1-2.8-0.8c-0.5-0.6-1.4,0.3-0.9,0.9c1.1,1.2,2.8,1.7,4.3,1c1.8-0.8,1.8-2.4,1.7-4.1c-0.1-1.4-0.7-2.9-2.3-3
			s-3.1,0.8-4,2.2C37.9,43.7,38.9,44.3,39.4,43.6L39.4,43.6z"/>
	</g>
</g>
<g id="XMLID_211_">
	<g id="XMLID_213_">
		<path id="XMLID_217_" fill="#0F0F0D" d="M46.1,41.3c-0.3,1.6-0.4,3.3-0.1,5c0.3,1.3,1,1.8,2.2,1.9c3.6,0.4,3.7-4.3,3.6-6.8
			c0-0.8-1.3-0.8-1.3,0c0,1.6,0.3,5.4-1.9,5.6c-1.5,0.1-1.6-1.2-1.6-2.3c0-1,0-2,0.2-3C47.5,40.8,46.3,40.5,46.1,41.3L46.1,41.3z"/>
	</g>
</g>
<g id="XMLID_204_">
	<g id="XMLID_206_">
		<path id="XMLID_210_" fill="#0F0F0D" d="M50.6,41.4c0,2.1,0,4.1-0.1,6.2c0,0.8,1.2,0.8,1.3,0c0.1-2.1,0.1-4.1,0.1-6.2
			C51.8,40.6,50.6,40.6,50.6,41.4L50.6,41.4z"/>
	</g>
</g>
<g id="XMLID_197_">
	<g id="XMLID_199_">
		<path id="XMLID_203_" fill="#0F0F0D" d="M53.6,39.6c0,2.4-0.3,5.1,0.1,7.5c0.2,1.2,1,1.5,2.1,1.1c0.8-0.2,0.4-1.4-0.3-1.2
			c-0.9,0.3-0.5-0.6-0.5-1.2c0-0.7,0-1.5,0-2.2c0-1.4,0-2.7,0-4.1C54.9,38.8,53.6,38.8,53.6,39.6L53.6,39.6z"/>
	</g>
</g>
<g id="XMLID_190_">
	<g id="XMLID_192_">
		<path id="XMLID_196_" fill="#0F0F0D" d="M52.9,42c1,0.3,2,0.3,3,0.1c0.8-0.2,0.5-1.4-0.3-1.2s-1.5,0.1-2.3-0.1
			C52.5,40.6,52.1,41.8,52.9,42L52.9,42z"/>
	</g>
</g>
<g id="XMLID_34_">
	<g id="XMLID_1159_">
		<g id="XMLID_275_">
			<path id="XMLID_279_" fill="#0F0F0D" d="M58.8,17.7c1-0.7,1.9-1.3,2.9-2c-0.3-0.2-0.6-0.5-0.9-0.7c-0.5,2.5-0.7,5-0.6,7.6
				c0,0.8,1.3,0.8,1.3,0c-0.1-2.4,0.1-4.9,0.6-7.3c0.1-0.5-0.4-1-0.9-0.7c-1,0.7-1.9,1.3-2.9,2C57.5,17.1,58.1,18.2,58.8,17.7
				L58.8,17.7z"/>
		</g>
	</g>
	<g id="XMLID_795_">
		<g id="XMLID_269_">
			<path id="XMLID_273_" fill="#0F0F0D" d="M57.9,23.4c1.7,0,3.4-0.1,5.1-0.2c0.8,0,0.8-1.3,0-1.3c-1.7,0.1-3.4,0.1-5.1,0.2
				C57.1,22.1,57.1,23.4,57.9,23.4L57.9,23.4z"/>
		</g>
	</g>
</g>
<g id="XMLID_32_">
	<g id="XMLID_266_">
		<path id="XMLID_288_" fill="#0F0F0D" d="M59,46.2c0.2-0.4,0.5-0.8,0.9-1c0.6-0.4,0.9-0.5,1.5,0c0.5,0.4,0.5,0.6,0.4,1.2
			c-0.1,0.4-0.3,0.8-0.4,1.1c-0.7,1.4-2,2.5-3.5,3c-0.7,0.2-0.5,1.2,0.2,1.2c2.2,0.2,4.3,0.1,6.5-0.1c0.8-0.1,0.8-1.3,0-1.3
			c-2.2,0.2-4.3,0.3-6.5,0.1c0.1,0.4,0.1,0.8,0.2,1.2c2.5-0.9,5.3-3.5,5-6.4c-0.4-3.2-4-1.7-5.1,0.2C57.5,46.2,58.6,46.9,59,46.2
			L59,46.2z"/>
	</g>
</g>
<g id="XMLID_406_">
	<g id="XMLID_407_">
		<path id="XMLID_408_" fill="#0F0F0D" d="M449.2,17.8c-0.4-0.9-1.3-1.4-2.2-1.9c-0.7-0.4-1.3,0.7-0.6,1.1c0.7,0.4,1.4,0.7,1.7,1.5
			C448.5,19.1,449.6,18.5,449.2,17.8L449.2,17.8z"/>
	</g>
</g>
<g id="XMLID_403_">
	<g id="XMLID_404_">
		<path id="XMLID_405_" fill="#0F0F0D" d="M448.1,17.9c-0.4,0.6-1,1-1.6,1.3c-0.7,0.4-0.1,1.5,0.6,1.1c0.8-0.5,1.5-1.1,2-1.8
			c0.2-0.3,0-0.7-0.2-0.9C448.7,17.5,448.3,17.7,448.1,17.9L448.1,17.9z"/>
	</g>
</g>
<g id="XMLID_1592_">
	<g id="XMLID_1817_">
		<path id="XMLID_1822_" fill="#0F0F0D" d="M334.3,17.3c-0.4-0.9-1.3-1.4-2.2-1.9c-0.7-0.4-1.3,0.7-0.6,1.1c0.7,0.4,1.4,0.7,1.7,1.5
			C333.5,18.7,334.6,18,334.3,17.3L334.3,17.3z"/>
	</g>
</g>
<g id="XMLID_1517_">
	<g id="XMLID_1809_">
		<path id="XMLID_1815_" fill="#0F0F0D" d="M333.2,17.5c-0.4,0.6-1,1-1.6,1.3c-0.7,0.4-0.1,1.5,0.6,1.1c0.8-0.5,1.5-1.1,2-1.8
			c0.2-0.3,0-0.7-0.2-0.9C333.7,17.1,333.4,17.2,333.2,17.5L333.2,17.5z"/>
	</g>
</g>
<g id="XMLID_402_">
	<g id="XMLID_1768_">
		<path id="XMLID_1774_" fill="#0F0F0D" d="M297,2.1c-0.4,3.5-0.2,7.1,0,10.6c0,0.8,1.3,0.8,1.3,0c-0.2-3.5-0.4-7.1,0-10.6
			C298.4,1.3,297.1,1.3,297,2.1L297,2.1z"/>
	</g>
</g>
<g id="XMLID_401_">
	<g id="XMLID_1760_">
		<path id="XMLID_1766_" fill="#0F0F0D" d="M307.1,13.1c1.2-1.1,2-2.5,3.2-3.6c0.6-0.6,2-1.3,2-2.2c0.1-0.8-1-1.5-1.4-2
			c-1.2-1.3-2.5-2.4-3.9-3.5c-0.6-0.5-1.5,0.4-0.9,0.9c0.9,0.7,1.8,1.5,2.6,2.3c0.3,0.3,2.3,1.9,2.2,2.3c0,0.5-1.9,1.8-2.3,2.2
			c-0.9,0.9-1.6,2-2.5,2.9C305.7,12.8,306.6,13.7,307.1,13.1L307.1,13.1z"/>
	</g>
</g>
<g id="XMLID_387_">
	<g id="XMLID_394_">
		<g id="XMLID_398_">
			<g id="XMLID_399_">
				<path id="XMLID_400_" fill="#0F0F0D" d="M300.6,33.7c0.6-0.1,1.1,1.6,1.3,2c0.3,0.7,0.7,1.3,1.2,1.9c0.7,1,1.4,1.8,2.7,1.6
					c0.8-0.2,0.5-1.4-0.3-1.2c-1.1,0.2-2.5-3-2.9-3.8c-0.4-1-1.1-1.9-2.3-1.6C299.4,32.6,299.8,33.8,300.6,33.7L300.6,33.7z"/>
			</g>
		</g>
		<g id="XMLID_395_">
			<g id="XMLID_396_">
				<path id="XMLID_397_" fill="#0F0F0D" d="M300.8,39c1.4-1.9,2.9-3.8,4.5-5.5c0.5-0.6-0.3-1.5-0.9-0.9c-1.7,1.8-3.3,3.8-4.7,5.8
					C299.2,39,300.3,39.6,300.8,39L300.8,39z"/>
			</g>
		</g>
	</g>
	<g id="XMLID_391_">
		<g id="XMLID_392_">
			<path id="XMLID_393_" fill="#0F0F0D" d="M297,30.4c-0.4,3.5-0.2,7.1,0,10.6c0,0.8,1.3,0.8,1.3,0c-0.2-3.5-0.4-7.1,0-10.6
				C298.4,29.6,297.1,29.7,297,30.4L297,30.4z"/>
		</g>
	</g>
	<g id="XMLID_388_">
		<g id="XMLID_389_">
			<path id="XMLID_390_" fill="#0F0F0D" d="M307.1,41.5c1.2-1.1,2-2.5,3.2-3.6c0.6-0.6,2-1.3,2-2.2c0.1-0.8-1-1.5-1.4-2
				c-1.2-1.3-2.5-2.4-3.9-3.5c-0.6-0.5-1.5,0.4-0.9,0.9c0.9,0.7,1.8,1.5,2.6,2.3c0.3,0.3,2.3,1.9,2.2,2.3c0,0.5-1.9,1.8-2.3,2.2
				c-0.9,0.9-1.6,2-2.5,2.9C305.7,41.2,306.6,42,307.1,41.5L307.1,41.5z"/>
		</g>
	</g>
</g>
<g id="XMLID_351_">
	<g id="XMLID_358_">
		<g id="XMLID_385_">
			<path id="XMLID_386_" fill="#0F0F0D" d="M436.6,33.7c0.6-0.1,1.1,1.6,1.3,2c0.3,0.7,0.7,1.3,1.2,1.9c0.7,1,1.4,1.8,2.7,1.6
				c0.8-0.2,0.5-1.4-0.3-1.2c-1.1,0.2-2.5-3-2.9-3.8c-0.4-1-1.1-1.9-2.3-1.6C435.5,32.6,435.8,33.8,436.6,33.7L436.6,33.7z"/>
		</g>
	</g>
	<g id="XMLID_354_">
		<g id="XMLID_356_">
			<path id="XMLID_357_" fill="#0F0F0D" d="M436.8,39c1.4-1.9,2.9-3.8,4.5-5.5c0.5-0.6-0.3-1.5-0.9-0.9c-1.7,1.8-3.3,3.8-4.7,5.8
				C435.3,39,436.4,39.6,436.8,39L436.8,39z"/>
		</g>
	</g>
</g>
<g id="XMLID_9_">
	<g id="XMLID_22_">
		<g id="XMLID_23_">
			<path id="XMLID_127_" fill="#0F0F0D" d="M436.6,5.3c0.6-0.1,1.1,1.6,1.3,2c0.3,0.7,0.7,1.3,1.2,1.9c0.7,1,1.4,1.8,2.7,1.6
				c0.8-0.2,0.5-1.4-0.3-1.2c-1.1,0.2-2.5-3-2.9-3.8c-0.4-1-1.1-1.9-2.3-1.6C435.5,4.2,435.8,5.4,436.6,5.3L436.6,5.3z"/>
		</g>
	</g>
	<g id="XMLID_10_">
		<g id="XMLID_11_">
			<path id="XMLID_19_" fill="#0F0F0D" d="M436.8,10.6c1.4-1.9,2.9-3.8,4.5-5.5c0.5-0.6-0.3-1.5-0.9-0.9c-1.7,1.8-3.3,3.8-4.7,5.8
				C435.3,10.6,436.4,11.2,436.8,10.6L436.8,10.6z"/>
		</g>
	</g>
</g>
<g id="XMLID_347_">
	<g id="XMLID_349_">
		<path id="XMLID_350_" fill="#0F0F0D" d="M433.1,30.4c-0.4,3.5-0.2,7.1,0,10.6c0,0.8,1.3,0.8,1.3,0c-0.2-3.5-0.4-7.1,0-10.6
			C434.4,29.6,433.2,29.7,433.1,30.4L433.1,30.4z"/>
	</g>
</g>
<g id="XMLID_341_">
	<g id="XMLID_342_">
		<path id="XMLID_343_" fill="#0F0F0D" d="M443.2,41.5c1.2-1.1,2-2.5,3.2-3.6c0.6-0.6,2-1.3,2-2.2c0.1-0.8-1-1.5-1.4-2
			c-1.2-1.3-2.5-2.4-3.9-3.5c-0.6-0.5-1.5,0.4-0.9,0.9c0.9,0.7,1.8,1.5,2.6,2.3c0.3,0.3,2.3,1.9,2.2,2.3c0,0.5-1.9,1.8-2.3,2.2
			c-0.9,0.9-1.6,2-2.5,2.9C441.7,41.2,442.6,42,443.2,41.5L443.2,41.5z"/>
	</g>
</g>
<g id="XMLID_336_">
	<g id="XMLID_1728_">
		<path id="XMLID_1733_" fill="#0F0F0D" d="M403,18.5c15.1-0.2,30.3,0.6,45.4,0.1c0.8,0,0.8-1.3,0-1.3c-15.1,0.5-30.2-0.3-45.4-0.1
			C402.2,17.3,402.2,18.5,403,18.5L403,18.5z"/>
	</g>
</g>
<g id="XMLID_335_">
	<g id="XMLID_1719_">
		<path id="XMLID_1725_" fill="#0F0F0D" d="M297.3,18.4c12.1-0.1,24.3,0.5,36.4,0.1c0.8,0,0.8-1.3,0-1.3
			c-12.1,0.4-24.3-0.2-36.4-0.1C296.5,17.1,296.5,18.4,297.3,18.4L297.3,18.4z"/>
	</g>
</g>
<g id="XMLID_329_">
	<g id="XMLID_332_">
		<path id="XMLID_334_" fill="#0F0F0D" d="M449.2,46.1c-0.4-0.9-1.3-1.4-2.2-1.9c-0.7-0.4-1.3,0.7-0.6,1.1c0.7,0.4,1.4,0.7,1.7,1.5
			C448.5,47.5,449.6,46.8,449.2,46.1L449.2,46.1z"/>
	</g>
</g>
<g id="XMLID_325_">
	<g id="XMLID_327_">
		<path id="XMLID_328_" fill="#0F0F0D" d="M448.1,46.3c-0.4,0.6-1,1-1.6,1.3c-0.7,0.4-0.1,1.5,0.6,1.1c0.8-0.5,1.5-1.1,2-1.8
			c0.2-0.3,0-0.7-0.2-0.9C448.7,45.9,448.3,46,448.1,46.3L448.1,46.3z"/>
	</g>
</g>
<g id="XMLID_320_">
	<g id="XMLID_321_">
		<path id="XMLID_322_" fill="#0F0F0D" d="M334.3,45.7c-0.4-0.9-1.3-1.4-2.2-1.9c-0.7-0.4-1.3,0.7-0.6,1.1c0.7,0.4,1.4,0.7,1.7,1.5
			C333.5,47,334.6,46.4,334.3,45.7L334.3,45.7z"/>
	</g>
</g>
<g id="XMLID_314_">
	<g id="XMLID_315_">
		<path id="XMLID_318_" fill="#0F0F0D" d="M333.2,45.8c-0.4,0.6-1,1-1.6,1.3c-0.7,0.4-0.1,1.5,0.6,1.1c0.8-0.5,1.5-1.1,2-1.8
			c0.2-0.3,0-0.7-0.2-0.9C333.7,45.4,333.4,45.6,333.2,45.8L333.2,45.8z"/>
	</g>
</g>
<g id="XMLID_308_">
	<g id="XMLID_311_">
		<path id="XMLID_313_" fill="#0F0F0D" d="M403,46.9c15.1-0.2,30.3,0.6,45.4,0.1c0.8,0,0.8-1.3,0-1.3c-15.1,0.5-30.2-0.3-45.4-0.1
			C402.2,45.6,402.2,46.9,403,46.9L403,46.9z"/>
	</g>
</g>
<g id="XMLID_304_">
	<g id="XMLID_306_">
		<path id="XMLID_307_" fill="#0F0F0D" d="M297.3,46.7c12.1-0.1,24.3,0.5,36.4,0.1c0.8,0,0.8-1.3,0-1.3c-12.1,0.4-24.3-0.2-36.4-0.1
			C296.5,45.5,296.5,46.7,297.3,46.7L297.3,46.7z"/>
	</g>
</g>
<g id="XMLID_299_">
	<g id="XMLID_300_">
		<path id="XMLID_301_" fill="#0F0F0D" d="M255.1,10.1c0.4,2.8-0.1,5.9-0.1,8.7c0,0.8,1.2,0.8,1.3,0c0.1-3,0.5-6.1,0.1-9
			C256.2,9,255,9.3,255.1,10.1L255.1,10.1z"/>
	</g>
</g>
<g id="XMLID_293_">
	<g id="XMLID_294_">
		<path id="XMLID_297_" fill="#0F0F0D" d="M258.2,12.7c-0.1,2.1-0.1,4.1-0.1,6.2c0,0.8,1.3,0.8,1.3,0c0-2.1,0-4.1,0.1-6.2
			C259.5,11.9,258.2,11.9,258.2,12.7L258.2,12.7z"/>
	</g>
</g>
<g id="XMLID_284_">
	<g id="XMLID_290_">
		<path id="XMLID_292_" fill="#0F0F0D" d="M259.3,14.6c0.6-0.6,1.1-1.3,1.9-1.4c1.1-0.1,1.3,0.8,1.4,1.6c0.2,1.4,0.1,2.7,0,4.1
			c-0.1,0.8,1.2,0.8,1.3,0c0.1-1.3,0.2-2.6,0-3.9c-0.1-0.8-0.1-1.9-0.7-2.5s-1.7-0.7-2.5-0.6c-1,0.2-1.6,1-2.3,1.7
			C257.9,14.3,258.8,15.2,259.3,14.6L259.3,14.6z"/>
	</g>
</g>
<g id="XMLID_280_">
	<g id="XMLID_282_">
		<path id="XMLID_283_" fill="#0F0F0D" d="M265.4,12.6c0.1,2.9,0.3,5.9,0.1,8.8c0,0.8,1.2,0.8,1.3,0c0.2-2.9,0-5.9-0.1-8.8
			C266.7,11.8,265.4,11.8,265.4,12.6L265.4,12.6z"/>
	</g>
</g>
<g id="XMLID_261_">
	<g id="XMLID_262_">
		<path id="XMLID_263_" fill="#0F0F0D" d="M266.7,14.9c0.5-0.8,1.1-1.3,2-1.5c1.5-0.3,1.9,0.8,1.9,2.1c0,1.1,0.1,2.1-1,2.5
			c-1.1,0.5-2.1,0.1-2.8-0.8c-0.5-0.6-1.4,0.3-0.9,0.9c1.1,1.2,2.8,1.7,4.3,1c1.8-0.8,1.8-2.4,1.7-4.1c-0.1-1.4-0.7-2.9-2.3-3
			s-3.1,0.8-4,2.2C265.2,14.9,266.2,15.6,266.7,14.9L266.7,14.9z"/>
	</g>
</g>
<g id="XMLID_255_">
	<g id="XMLID_256_">
		<path id="XMLID_259_" fill="#0F0F0D" d="M273.4,12.5c-0.3,1.6-0.4,3.3-0.1,5c0.3,1.3,1,1.8,2.2,1.9c3.6,0.4,3.7-4.3,3.6-6.8
			c0-0.8-1.3-0.8-1.3,0c0,1.6,0.3,5.4-1.9,5.6c-1.5,0.1-1.6-1.2-1.6-2.3c0-1,0-2,0.2-3C274.8,12.1,273.6,11.7,273.4,12.5L273.4,12.5
			z"/>
	</g>
</g>
<g id="XMLID_188_">
	<g id="XMLID_189_">
		<path id="XMLID_254_" fill="#0F0F0D" d="M277.9,12.7c0,2.1,0,4.1-0.1,6.2c0,0.8,1.2,0.8,1.3,0c0.1-2.1,0.1-4.1,0.1-6.2
			C279.2,11.9,277.9,11.9,277.9,12.7L277.9,12.7z"/>
	</g>
</g>
<g id="XMLID_185_">
	<g id="XMLID_186_">
		<path id="XMLID_187_" fill="#0F0F0D" d="M280.9,10.8c0,2.4-0.3,5.1,0.1,7.5c0.2,1.2,1,1.5,2.1,1.1c0.8-0.2,0.4-1.4-0.3-1.2
			c-0.9,0.3-0.5-0.6-0.5-1.2c0-0.7,0-1.5,0-2.2c0-1.4,0-2.7,0-4.1C282.2,10,280.9,10,280.9,10.8L280.9,10.8z"/>
	</g>
</g>
<g id="XMLID_182_">
	<g id="XMLID_183_">
		<path id="XMLID_184_" fill="#0F0F0D" d="M280.2,13.2c1,0.3,2,0.3,3,0.1c0.8-0.2,0.5-1.4-0.3-1.2s-1.5,0.1-2.3-0.1
			S279.4,13,280.2,13.2L280.2,13.2z"/>
	</g>
</g>
<g id="XMLID_179_">
	<g id="XMLID_180_">
		<path id="XMLID_181_" fill="#0F0F0D" d="M255.1,38.5c0.4,2.8-0.1,5.9-0.1,8.7c0,0.8,1.2,0.8,1.3,0c0.1-3,0.5-6.1,0.1-9
			C256.2,37.4,255,37.7,255.1,38.5L255.1,38.5z"/>
	</g>
</g>
<g id="XMLID_176_">
	<g id="XMLID_177_">
		<path id="XMLID_178_" fill="#0F0F0D" d="M258.2,41.1c-0.1,2.1-0.1,4.1-0.1,6.2c0,0.8,1.3,0.8,1.3,0c0-2.1,0-4.1,0.1-6.2
			C259.5,40.3,258.2,40.3,258.2,41.1L258.2,41.1z"/>
	</g>
</g>
<g id="XMLID_173_">
	<g id="XMLID_174_">
		<path id="XMLID_175_" fill="#0F0F0D" d="M259.3,43c0.6-0.6,1.1-1.3,1.9-1.4c1.1-0.1,1.3,0.8,1.4,1.6c0.2,1.4,0.1,2.7,0,4.1
			c-0.1,0.8,1.2,0.8,1.3,0c0.1-1.3,0.2-2.6,0-3.9c-0.1-0.8-0.1-1.9-0.7-2.5s-1.7-0.7-2.5-0.6c-1,0.2-1.6,1-2.3,1.7
			C257.9,42.7,258.8,43.5,259.3,43L259.3,43z"/>
	</g>
</g>
<g id="XMLID_170_">
	<g id="XMLID_171_">
		<path id="XMLID_172_" fill="#0F0F0D" d="M265.4,40.9c0.1,2.9,0.3,5.9,0.1,8.8c0,0.8,1.2,0.8,1.3,0c0.2-2.9,0-5.9-0.1-8.8
			C266.7,40.1,265.4,40.1,265.4,40.9L265.4,40.9z"/>
	</g>
</g>
<g id="XMLID_167_">
	<g id="XMLID_168_">
		<path id="XMLID_169_" fill="#0F0F0D" d="M266.7,43.2c0.5-0.8,1.1-1.3,2-1.5c1.5-0.3,1.9,0.8,1.9,2.1c0,1.1,0.1,2.1-1,2.5
			c-1.1,0.5-2.1,0.1-2.8-0.8c-0.5-0.6-1.4,0.3-0.9,0.9c1.1,1.2,2.8,1.7,4.3,1c1.8-0.8,1.8-2.4,1.7-4.1c-0.1-1.4-0.7-2.9-2.3-3
			s-3.1,0.8-4,2.2C265.2,43.3,266.2,43.9,266.7,43.2L266.7,43.2z"/>
	</g>
</g>
<g id="XMLID_164_">
	<g id="XMLID_165_">
		<path id="XMLID_166_" fill="#0F0F0D" d="M273.4,40.9c-0.3,1.6-0.4,3.3-0.1,5c0.3,1.3,1,1.8,2.2,1.9c3.6,0.4,3.7-4.3,3.6-6.8
			c0-0.8-1.3-0.8-1.3,0c0,1.6,0.3,5.4-1.9,5.6c-1.5,0.1-1.6-1.2-1.6-2.3c0-1,0-2,0.2-3C274.8,40.4,273.6,40.1,273.4,40.9L273.4,40.9
			z"/>
	</g>
</g>
<g id="XMLID_161_">
	<g id="XMLID_162_">
		<path id="XMLID_163_" fill="#0F0F0D" d="M277.9,41c0,2.1,0,4.1-0.1,6.2c0,0.8,1.2,0.8,1.3,0c0.1-2.1,0.1-4.1,0.1-6.2
			C279.2,40.2,277.9,40.2,277.9,41L277.9,41z"/>
	</g>
</g>
<g id="XMLID_158_">
	<g id="XMLID_159_">
		<path id="XMLID_160_" fill="#0F0F0D" d="M280.9,39.2c0,2.4-0.3,5.1,0.1,7.5c0.2,1.2,1,1.5,2.1,1.1c0.8-0.2,0.4-1.4-0.3-1.2
			c-0.9,0.3-0.5-0.6-0.5-1.2c0-0.7,0-1.5,0-2.2c0-1.4,0-2.7,0-4.1C282.2,38.4,280.9,38.4,280.9,39.2L280.9,39.2z"/>
	</g>
</g>
<g id="XMLID_155_">
	<g id="XMLID_156_">
		<path id="XMLID_157_" fill="#0F0F0D" d="M280.2,41.6c1,0.3,2,0.3,3,0.1c0.8-0.2,0.5-1.4-0.3-1.2s-1.5,0.1-2.3-0.1
			C279.8,40.2,279.4,41.4,280.2,41.6L280.2,41.6z"/>
	</g>
</g>
<g id="XMLID_1627_">
	<g id="XMLID_1623_">
		<path id="XMLID_1635_" fill="#0F0F0D" d="M460,9.4c-2.4-0.2-5,2.2-4.7,4.6c0.3,2.7,1.3,5.9,4.5,5.6c5-0.4,6.2-10.6,0.3-10.1
			c-0.8,0.1-0.8,1.3,0,1.3c4.2-0.3,2.9,6.3,0.2,7.3c-2.3,0.9-2.9-1.3-3.5-3c-0.6-2.1,0.7-4.7,3.2-4.5C460.8,10.7,460.8,9.5,460,9.4
			L460,9.4z"/>
	</g>
</g>
<g id="XMLID_1642_">
	<g id="XMLID_1615_">
		<path id="XMLID_1621_" fill="#0F0F0D" d="M465.6,12.7c0.1,0.9,0.1,1.9,0.2,2.8c0,0.7,0,1.6,0.2,2.3c0.3,1.2,1.5,1.4,2.6,1.5
			c3.1,0,3.2-4.5,3.2-6.7c0-0.8-1.2-0.8-1.3,0c-0.1,2.1-0.2,4.2-0.3,6.3c0,0.8,1.2,0.8,1.3,0c0.1-2.1,0.2-4.2,0.3-6.3
			c-0.4,0-0.8,0-1.3,0c0,1.6,0.1,5.4-2.2,5.4c-1.3,0-1.3-1-1.3-2.1c-0.1-1.1-0.1-2.2-0.2-3.3C466.8,11.9,465.5,11.9,465.6,12.7
			L465.6,12.7z"/>
	</g>
</g>
<g id="XMLID_1649_">
	<g id="XMLID_1599_">
		<path id="XMLID_1613_" fill="#0F0F0D" d="M473.2,11.1c0.5,2.4-0.5,4.8,0,7.2c0.2,1.2,1.2,1.6,2.3,1.2c0.8-0.2,0.4-1.5-0.3-1.2
			c-1.3,0.4-0.6-3.3-0.6-3.9c0.1-1.2,0.1-2.4-0.2-3.6C474.3,10,473.1,10.3,473.2,11.1L473.2,11.1z"/>
	</g>
</g>
<g id="XMLID_1658_">
	<g id="XMLID_1591_">
		<path id="XMLID_1596_" fill="#0F0F0D" d="M472.8,13.3c0.8,0,1.6,0,2.3,0c0.8,0,0.8-1.2,0-1.3c-0.8,0-1.6,0-2.3,0
			C472,12,472,13.3,472.8,13.3L472.8,13.3z"/>
	</g>
</g>
<g id="XMLID_1666_">
	<g id="XMLID_1584_">
		<path id="XMLID_1588_" fill="#0F0F0D" d="M476.8,12.8c0.2,2.9,0.1,5.7-0.1,8.6c-0.1,0.8,1.2,0.8,1.3,0c0.3-2.9,0.3-5.7,0.1-8.6
			C478,12,476.8,11.9,476.8,12.8L476.8,12.8z"/>
	</g>
</g>
<g id="XMLID_1674_">
	<g id="XMLID_1577_">
		<path id="XMLID_1581_" fill="#0F0F0D" d="M477.9,14.6c0.4-0.7,1-1,1.8-1.2c0.5-0.1,1.3-0.1,1.7,0.3c0.2,0.3,0.2,0.9,0.3,1.3
			c0,0.6,0.2,1.5-0.1,2.1c-0.4,1-2.6,1.3-3.4,0.6c-0.6-0.5-1.5,0.4-0.9,0.9c1.2,1,3.2,0.9,4.5,0.1c1.4-0.8,1.2-2.8,1.1-4.1
			c-0.1-1.5-0.8-2.7-2.5-2.6c-1.4,0-2.8,0.7-3.5,1.9C476.4,14.7,477.5,15.3,477.9,14.6L477.9,14.6z"/>
	</g>
</g>
<g id="XMLID_1682_">
	<g id="XMLID_1570_">
		<path id="XMLID_1574_" fill="#0F0F0D" d="M484.6,12.7c0,1.5-0.3,3.3-0.1,4.8c0.2,1.2,1.4,1.5,2.5,1.6c3.4,0.3,3-3.9,3.2-6.2
			c0.1-0.7-1.1-0.9-1.2-0.2c-0.3,1.9-0.4,3.9-0.3,5.8c0.1,0.8,1.3,0.8,1.3,0c-0.1-1.8,0-3.7,0.3-5.5c-0.4-0.1-0.8-0.1-1.2-0.2
			c-0.1,0.9-0.2,1.9-0.3,2.8c-0.1,1.3-0.4,2.4-2.1,2c-1.2-0.2-0.9-1.4-0.9-2.3s0.1-1.9,0.1-2.8C485.9,11.9,484.7,11.9,484.6,12.7
			L484.6,12.7z"/>
	</g>
</g>
<g id="XMLID_1690_">
	<g id="XMLID_1563_">
		<path id="XMLID_1567_" fill="#0F0F0D" d="M491.8,10.9c0.1,2.2-0.1,4.6,0.2,6.8c0.1,1.1,0.9,2,2.1,1.6c0.7-0.3,0.4-1.5-0.3-1.2
			c-0.6,0.2-0.6-3.3-0.6-3.7c0-1.2-0.1-2.3-0.1-3.5C493,10.1,491.7,10.1,491.8,10.9L491.8,10.9z"/>
	</g>
</g>
<g id="XMLID_1698_">
	<g id="XMLID_1555_">
		<path id="XMLID_1560_" fill="#0F0F0D" d="M491.1,13.3c0.9,0.4,2.1,0.3,3.1,0.2c0.8,0,0.8-1.3,0-1.3c-0.4,0-0.8,0-1.2,0
			c-0.3,0-0.9,0.1-1.2-0.1C491,11.9,490.4,13,491.1,13.3L491.1,13.3z"/>
	</g>
</g>
<g id="XMLID_331_">
	<g id="XMLID_333_">
		<path id="XMLID_337_" fill="#0F0F0D" d="M460,37.8c-2.4-0.2-5,2.2-4.7,4.6c0.3,2.7,1.3,5.9,4.5,5.6C464.8,47.6,466,37.4,460,37.8
			c-0.7,0.2-0.7,1.4,0.1,1.4c4.2-0.3,2.9,6.3,0.2,7.3c-2.3,0.9-2.9-1.3-3.5-3c-0.6-2.1,0.7-4.7,3.2-4.5
			C460.8,39.1,460.8,37.8,460,37.8L460,37.8z"/>
	</g>
</g>
<g id="XMLID_324_">
	<g id="XMLID_326_">
		<path id="XMLID_330_" fill="#0F0F0D" d="M465.6,41.1c0.1,0.9,0.1,1.9,0.2,2.8c0,0.7,0,1.6,0.2,2.3c0.3,1.2,1.5,1.4,2.6,1.5
			c3.1,0,3.2-4.5,3.2-6.7c0-0.8-1.2-0.8-1.3,0c-0.1,2.1-0.2,4.2-0.3,6.3c0,0.8,1.2,0.8,1.3,0c0.1-2.1,0.2-4.2,0.3-6.3
			c-0.4,0-0.8,0-1.3,0c0,1.6,0.1,5.4-2.2,5.4c-1.3,0-1.3-1-1.3-2.1c-0.1-1.1-0.1-2.2-0.2-3.3C466.8,40.3,465.5,40.2,465.6,41.1
			L465.6,41.1z"/>
	</g>
</g>
<g id="XMLID_317_">
	<g id="XMLID_319_">
		<path id="XMLID_323_" fill="#0F0F0D" d="M473.2,39.4c0.5,2.4-0.5,4.8,0,7.2c0.2,1.2,1.2,1.6,2.3,1.2c0.8-0.2,0.4-1.5-0.3-1.2
			c-1.3,0.4-0.6-3.3-0.6-3.9c0.1-1.2,0.1-2.4-0.2-3.6C474.3,38.3,473.1,38.6,473.2,39.4L473.2,39.4z"/>
	</g>
</g>
<g id="XMLID_310_">
	<g id="XMLID_312_">
		<path id="XMLID_316_" fill="#0F0F0D" d="M472.8,41.7c0.8,0,1.6,0,2.3,0c0.8,0,0.8-1.2,0-1.3c-0.8,0-1.6,0-2.3,0
			C472,40.4,472,41.6,472.8,41.7L472.8,41.7z"/>
	</g>
</g>
<g id="XMLID_303_">
	<g id="XMLID_305_">
		<path id="XMLID_309_" fill="#0F0F0D" d="M476.8,41.1c0.2,2.9,0.1,5.7-0.1,8.6c-0.1,0.8,1.2,0.8,1.3,0c0.3-2.9,0.3-5.7,0.1-8.6
			C478,40.3,476.8,40.3,476.8,41.1L476.8,41.1z"/>
	</g>
</g>
<g id="XMLID_296_">
	<g id="XMLID_298_">
		<path id="XMLID_302_" fill="#0F0F0D" d="M477.9,42.9c0.4-0.7,1-1,1.8-1.2c0.5-0.1,1.3-0.1,1.7,0.3c0.2,0.3,0.2,0.9,0.3,1.3
			c0,0.6,0.2,1.5-0.1,2.1c-0.4,1-2.6,1.3-3.4,0.6c-0.6-0.5-1.5,0.4-0.9,0.9c1.2,1,3.2,0.9,4.5,0.1c1.4-0.8,1.2-2.8,1.1-4.1
			c-0.1-1.5-0.8-2.7-2.5-2.6c-1.4,0-2.8,0.7-3.5,1.9C476.4,43,477.5,43.6,477.9,42.9L477.9,42.9z"/>
	</g>
</g>
<g id="XMLID_289_">
	<g id="XMLID_291_">
		<path id="XMLID_295_" fill="#0F0F0D" d="M484.6,41c0,1.5-0.3,3.3-0.1,4.8c0.2,1.2,1.4,1.5,2.5,1.6c3.4,0.3,3-3.9,3.2-6.2
			c0.1-0.7-1.1-0.9-1.2-0.2c-0.3,1.9-0.4,3.9-0.3,5.8c0.1,0.8,1.3,0.8,1.3,0c-0.1-1.8,0-3.7,0.3-5.5c-0.4-0.1-0.8-0.1-1.2-0.2
			c-0.1,0.9-0.2,1.9-0.3,2.8c-0.1,1.3-0.4,2.4-2.1,2c-1.2-0.2-0.9-1.4-0.9-2.3c0-0.9,0.1-1.9,0.1-2.8
			C485.9,40.2,484.7,40.2,484.6,41L484.6,41z"/>
	</g>
</g>
<g id="XMLID_258_">
	<g id="XMLID_260_">
		<path id="XMLID_264_" fill="#0F0F0D" d="M491.8,39.2c0.1,2.2-0.1,4.6,0.2,6.8c0.1,1.1,0.9,2,2.1,1.6c0.7-0.3,0.4-1.5-0.3-1.2
			c-0.6,0.2-0.6-3.3-0.6-3.7c0-1.2-0.1-2.3-0.1-3.5C493,38.4,491.7,38.4,491.8,39.2L491.8,39.2z"/>
	</g>
</g>
<g id="XMLID_154_">
	<g id="XMLID_253_">
		<path id="XMLID_257_" fill="#0F0F0D" d="M491.1,41.7c0.9,0.4,2.1,0.3,3.1,0.2c0.8,0,0.8-1.3,0-1.3c-0.4,0-0.8,0-1.2,0
			c-0.3,0-0.9,0.1-1.2-0.1C491,40.2,490.4,41.3,491.1,41.7L491.1,41.7z"/>
	</g>
</g>
<g id="XMLID_1707_">
	<g id="XMLID_1549_">
		<path id="XMLID_1553_" fill="#0F0F0D" d="M341.9,28.7c0,1.6-0.5,3.1-0.6,4.6c-0.1,1.4,0,2.7,0.2,4c0.1,0.8,1.3,0.5,1.2-0.3
			c-0.2-1.4-0.3-2.9-0.2-4.3c0.1-1.4,0.5-2.7,0.5-4C343.1,27.9,341.9,27.9,341.9,28.7L341.9,28.7z"/>
	</g>
</g>
<g id="XMLID_1715_">
	<g id="XMLID_1542_">
		<path id="XMLID_1547_" fill="#0F0F0D" d="M342.2,29.2c0.8-0.1,4.4-0.5,4.6,0.8c0.2,1.5-1.1,1.9-2.2,2c-0.7,0.1-1.4,0-2-0.1
			c0,0.4,0,0.8,0,1.3c0.8-0.1,1.5-0.2,2.3-0.2c1.2,0,2.1,0.1,2.4,1.4c0.7,2.7-3.4,2.3-5.1,2.3c-0.8,0-0.8,1.2,0,1.3
			c2.3,0.1,6.7,0.2,6.6-3.3c-0.1-3.3-3.9-2.9-6.2-2.7c-0.8,0.1-0.8,1.2,0,1.3c2,0.2,5.9,0.1,5.6-2.9s-3.6-2.6-5.9-2.4
			C341.4,28,341.4,29.3,342.2,29.2L342.2,29.2z"/>
	</g>
</g>
<g id="XMLID_1723_">
	<g id="XMLID_1535_">
		<path id="XMLID_1540_" fill="#0F0F0D" d="M350.3,28.4c-0.4,2.8-0.4,5.7-0.3,8.5c0,0.8,1.3,0.8,1.3,0c-0.2-2.9-0.1-5.7,0.3-8.5
			C351.7,27.6,350.4,27.6,350.3,28.4L350.3,28.4z"/>
	</g>
</g>
<g id="XMLID_1731_">
	<g id="XMLID_1524_">
		<path id="XMLID_1532_" fill="#0F0F0D" d="M354.2,32.8c0.7-1.1,2.1-1.7,2.9-0.3c0.5,0.9,0.2,2.3,0.2,3.3c-0.1,1.1,0.3,2,1.5,1.8
			c0.8-0.1,0.5-1.3-0.3-1.2c0.3-0.1,0.1-3.1,0-3.5c-0.1-0.9-0.4-1.7-1.2-2.2c-1.5-0.9-3.2,0-4.1,1.3
			C352.7,32.8,353.8,33.4,354.2,32.8L354.2,32.8z"/>
	</g>
</g>
<g id="XMLID_1739_">
	<g id="XMLID_1514_">
		<path id="XMLID_1522_" fill="#0F0F0D" d="M357.6,32.8c-1.2,0.3-2.7,0.4-3.8,1c-0.8,0.4-1.3,1.7-1.1,2.5c0.3,1,1.6,1.3,2.4,1.2
			c1.2,0,2.2-0.6,3-1.4c0.6-0.6-0.3-1.4-0.9-0.9c-0.4,0.4-0.9,0.8-1.6,0.9c-0.6,0.2-2.2,0.2-1.7-0.9c0.3-0.6,1.2-0.7,1.8-0.8
			c0.7-0.2,1.3-0.3,2-0.5C358.7,33.9,358.4,32.7,357.6,32.8L357.6,32.8z"/>
	</g>
</g>
<g id="XMLID_1747_">
	<g id="XMLID_1507_">
		<path id="XMLID_1511_" fill="#0F0F0D" d="M365.9,32.3c-0.2-0.7-0.1-1.1-0.8-1.5c-0.7-0.4-1.6-0.4-2.4-0.4
			c-1.6,0.1-2.5,1.1-2.7,2.7c-0.2,1.5,0,3.5,1.5,4.2c0.7,0.4,1.8,0.5,2.6,0.4c0.8-0.2,1-0.8,1.7-1.1c0.7-0.4,0.1-1.5-0.6-1.1
			c-0.9,0.5-1.2,1.2-2.4,0.9c-1.3-0.3-1.6-1.3-1.6-2.5c0-1,0.2-2.2,1.5-2.3c0.4,0,0.9,0,1.3,0.1c0.6,0.2,0.5,0.4,0.7,1
			C365,33.4,366.2,33.1,365.9,32.3L365.9,32.3z"/>
	</g>
</g>
<g id="XMLID_1756_">
	<g id="XMLID_1498_">
		<path id="XMLID_1504_" fill="#0F0F0D" d="M367.4,28.4c-0.2,2.8,0.5,5.7,0.1,8.5c-0.1,0.8,1.1,1.1,1.2,0.3c0.5-3-0.3-5.9,0-8.8
			C368.7,27.6,367.5,27.6,367.4,28.4L367.4,28.4z"/>
	</g>
</g>
<g id="XMLID_1764_">
	<g id="XMLID_1490_">
		<path id="XMLID_1496_" fill="#0F0F0D" d="M369.1,34.5c0.1-0.3,0.5-0.6,0.7-0.8c0.3-0.3,0.6-0.5,0.8-0.8c0.6-0.5,1.1-1,1.6-1.6
			s-0.4-1.5-0.9-0.9c-0.6,0.7-1.3,1.3-1.9,1.9c-0.6,0.5-1.3,1.1-1.5,1.9C367.7,35,368.9,35.3,369.1,34.5L369.1,34.5z"/>
	</g>
</g>
<g id="XMLID_1772_">
	<g id="XMLID_1482_">
		<path id="XMLID_1488_" fill="#0F0F0D" d="M369.1,33.2c0.1,0.7,0.6,1.3,1,1.9c0.5,0.7,1,1.5,1.6,2.2c0.5,0.6,1.5,0,1.1-0.6
			c-0.5-0.7-0.9-1.3-1.4-2c-0.4-0.6-0.9-1.1-1.1-1.8C370.2,32.1,369,32.4,369.1,33.2L369.1,33.2z"/>
	</g>
</g>
<g id="XMLID_1780_">
	<g id="XMLID_1443_">
		<path id="XMLID_1480_" fill="#0F0F0D" d="M374.1,28.4c0.1,2.9,0.1,5.7,0,8.6c0,0.8,1.2,0.8,1.3,0c0.1-2.9,0.2-5.7,0-8.6
			C375.3,27.6,374.1,27.6,374.1,28.4L374.1,28.4z"/>
	</g>
</g>
<g id="XMLID_1788_">
	<g id="XMLID_152_">
		<path id="XMLID_153_" fill="#0F0F0D" d="M375,29.4c1.4-0.1,3.4-1.1,4.1,0.6c0.9,2-2.5,2-3.7,2c-0.8,0-0.8,1.2,0,1.3
			c1.3,0.1,6.3-0.2,3.9,2.4c-1.1,1.2-2.8,1.3-4.4,1.1c-0.8-0.1-0.8,1.2,0,1.3c2,0.2,6.1-0.1,6.3-2.8c0.2-3.5-3.4-3.1-5.8-3.2
			c0,0.4,0,0.8,0,1.3c2.2-0.1,5.5-0.2,5-3.1c-0.5-3.1-3.1-2.3-5.5-2.1C374.2,28.3,374.2,29.5,375,29.4L375,29.4z"/>
	</g>
</g>
<g id="XMLID_1796_">
	<g id="XMLID_150_">
		<path id="XMLID_151_" fill="#0F0F0D" d="M385.7,30.2c-4.4,0.2-4.9,7.7-0.2,7.6C390.4,37.8,390.1,30.8,385.7,30.2
			c-0.9,0-0.9,1.3-0.1,1.3c2.9,0.3,3.2,5.2-0.1,5.1c-3.1-0.1-2.6-5,0.2-5.1C386.5,31.4,386.5,30.2,385.7,30.2L385.7,30.2z"/>
	</g>
</g>
<g id="XMLID_1805_">
	<g id="XMLID_148_">
		<path id="XMLID_149_" fill="#0F0F0D" d="M389.9,31.3c0.7,0.8,1.1,1.9,1.8,2.8c0.8,1.1,1.7,2.2,2.4,3.3c0.4,0.7,1.5,0.1,1.1-0.6
			c-0.7-1.1-1.5-2.2-2.4-3.3c-0.8-1-1.2-2.2-2-3.1C390.3,29.9,389.4,30.7,389.9,31.3L389.9,31.3z"/>
	</g>
</g>
<g id="XMLID_1813_">
	<g id="XMLID_146_">
		<path id="XMLID_147_" fill="#0F0F0D" d="M394.4,30.2c-2.2,1.9-3.3,4.6-5,6.8c-0.5,0.6,0.4,1.5,0.9,0.9c1.8-2.2,2.9-5,5-6.8
			C395.9,30.5,395,29.6,394.4,30.2L394.4,30.2z"/>
	</g>
</g>
<g id="XMLID_143_">
	<g id="XMLID_144_">
		<path id="XMLID_145_" fill="#0F0F0D" d="M335.2,8.1c18.4,0,36.8,0,55.1,0.1c2.1,0,4.7-0.4,6.8,0c4.8,0.8,5.2,3.8,5.3,7.6
			c0.1,4.4-0.1,8.8-0.3,13.3c-0.2,4.4-0.4,8.8-0.4,13.3c0,2.5,0.1,5,0.2,7.5c0.1,3.3,0.9,4.7-1.8,7c-2.5,2.2-3.8,1.7-6.9,1.5
			c-2.3-0.2-4.6-0.4-6.9-0.3c-4.2,0.1-8.4,0.6-12.6,0.4c-8.9-0.6-17.7-0.2-26.6-0.2c-2.2,0-4.5,0-6.7-0.2c-4.1-0.4-5.3-2.4-5.8-6.5
			c-0.5-4.3,0.1-9.1,0.1-13.5c0-4.5,0.1-9,0.1-13.5c0-2.4-1.3-15.3,0.9-16.4c0.7-0.4,0.1-1.5-0.6-1.1c-1.7,0.9-1.4,2.2-1.4,4
			c-0.1,5.1-0.1,10.3-0.1,15.4c0,4.5-0.1,9-0.1,13.5c0,4.7-0.9,10.2-0.1,14.8c1,5.3,7.8,4.6,11.8,4.7c9.2,0.1,18.4-0.6,27.6,0.1
			c4.6,0.3,9-0.1,13.5-0.3c4.2-0.2,8.5,0.9,12.7,0.4c1.3-0.1,3.3-0.3,4.1-1.6c1.5-2.5,0.1-8.3,0-11.1c-0.3-9.2,0.6-18.3,0.7-27.5
			c0.1-4.4,1.6-11.6-4.2-12.5c-5-0.9-10.8-0.1-15.8-0.1c-5.4,0-10.7,0-16.1,0c-10.8,0-21.6,0-32.4,0C334.4,6.8,334.4,8,335.2,8.1
			L335.2,8.1z"/>
	</g>
</g>
<g id="XMLID_1166_">
	<g id="XMLID_281_">
		<path id="XMLID_285_" fill="#0F0F0D" d="M302.5,3.4c-4-0.5-3.9,9.1,0.8,8.3c2-0.3,2.2-3.5,2.1-5c-0.2-2.6-1.4-3.7-4-3.4
			c-0.8,0.1-0.5,1.3,0.3,1.2c1-0.1,1.7-0.2,2.2,1c0.2,0.4,0.2,1.3,0.2,1.8c0,1-0.1,2.4-1.1,2.8c-2.8,1.1-2.8-5.7-0.6-5.5
			C303.3,4.8,303.3,3.5,302.5,3.4L302.5,3.4z"/>
	</g>
</g>
<g id="XMLID_140_">
	<g id="XMLID_141_">
		<path id="XMLID_142_" fill="#0F0F0D" d="M426,2.1c-0.4,3.5-0.2,7.1,0,10.6c0,0.8,1.3,0.8,1.3,0c-0.2-3.5-0.4-7.1,0-10.6
			C427.4,1.3,426.1,1.3,426,2.1L426,2.1z"/>
	</g>
</g>
<g id="XMLID_137_">
	<g id="XMLID_138_">
		<path id="XMLID_139_" fill="#0F0F0D" d="M443.2,13.1c1.2-1.1,2-2.5,3.2-3.6c0.6-0.6,2-1.3,2-2.2c0.1-0.8-1-1.5-1.4-2
			c-1.2-1.3-2.5-2.4-3.9-3.5c-0.6-0.5-1.5,0.4-0.9,0.9c0.9,0.7,1.8,1.5,2.6,2.3c0.3,0.3,2.3,1.9,2.2,2.3c0,0.5-1.9,1.8-2.3,2.2
			c-0.9,0.9-1.6,2-2.5,2.9C441.8,12.8,442.7,13.7,443.2,13.1L443.2,13.1z"/>
	</g>
</g>
<g id="XMLID_113_">
	<g id="XMLID_131_">
		<g id="XMLID_132_">
			<path id="XMLID_133_" fill="#0F0F0D" d="M286.1,17.3c1-0.7,1.9-1.3,2.9-2c-0.3-0.2-0.6-0.5-0.9-0.7c-0.5,2.5-0.7,5-0.6,7.6
				c0,0.8,1.3,0.8,1.3,0c-0.1-2.4,0.1-4.9,0.6-7.3c0.1-0.5-0.4-1-0.9-0.7c-1,0.7-1.9,1.3-2.9,2C284.8,16.7,285.4,17.8,286.1,17.3
				L286.1,17.3z"/>
		</g>
	</g>
	<g id="XMLID_114_">
		<g id="XMLID_115_">
			<path id="XMLID_130_" fill="#0F0F0D" d="M285.2,23c1.7,0,3.4-0.1,5.1-0.2c0.8,0,0.8-1.3,0-1.3c-1.7,0.1-3.4,0.1-5.1,0.2
				C284.4,21.7,284.4,23,285.2,23L285.2,23z"/>
		</g>
	</g>
</g>
<g id="XMLID_110_">
	<g id="XMLID_111_">
		<path id="XMLID_112_" fill="#0F0F0D" d="M286.3,45.8c0.2-0.4,0.5-0.8,0.9-1c0.6-0.4,0.9-0.5,1.5,0c0.5,0.4,0.5,0.6,0.4,1.2
			c-0.1,0.4-0.3,0.8-0.4,1.1c-0.7,1.4-2,2.5-3.5,3c-0.7,0.2-0.5,1.2,0.2,1.2c2.2,0.2,4.3,0.1,6.5-0.1c0.8-0.1,0.8-1.3,0-1.3
			c-2.2,0.2-4.3,0.3-6.5,0.1c0.1,0.4,0.1,0.8,0.2,1.2c2.5-0.9,5.3-3.5,5-6.4c-0.4-3.2-4-1.7-5.1,0.2
			C284.8,45.8,285.9,46.5,286.3,45.8L286.3,45.8z"/>
	</g>
</g>
<g id="XMLID_345_">
	<g id="XMLID_353_">
		<g id="XMLID_355_">
			<path id="XMLID_359_" fill="#0F0F0D" d="M497.3,17.3c1-0.7,1.9-1.3,2.9-2c-0.3-0.2-0.6-0.5-0.9-0.7c-0.5,2.5-0.7,5-0.6,7.6
				c0,0.8,1.3,0.8,1.3,0c-0.1-2.4,0.1-4.9,0.6-7.3c0.1-0.5-0.4-1-0.9-0.7c-1,0.7-1.9,1.3-2.9,2C496,16.7,496.6,17.8,497.3,17.3
				L497.3,17.3z"/>
		</g>
	</g>
	<g id="XMLID_346_">
		<g id="XMLID_348_">
			<path id="XMLID_352_" fill="#0F0F0D" d="M496.4,23c1.7,0,3.4-0.1,5.1-0.2c0.8,0,0.8-1.3,0-1.3c-1.7,0.1-3.4,0.1-5.1,0.2
				C495.6,21.7,495.6,23,496.4,23L496.4,23z"/>
		</g>
	</g>
</g>
<g id="XMLID_338_">
	<g id="XMLID_340_">
		<path id="XMLID_344_" fill="#0F0F0D" d="M497.5,45.8c0.2-0.4,0.5-0.8,0.9-1c0.6-0.4,0.9-0.5,1.5,0c0.5,0.4,0.5,0.6,0.4,1.2
			c-0.1,0.4-0.3,0.8-0.4,1.1c-0.7,1.4-2,2.5-3.5,3c-0.7,0.2-0.5,1.2,0.2,1.2c2.2,0.2,4.3,0.1,6.5-0.1c0.8-0.1,0.8-1.3,0-1.3
			c-2.2,0.2-4.3,0.3-6.5,0.1c0.1,0.4,0.1,0.8,0.2,1.2c2.5-0.9,5.3-3.5,5-6.4c-0.4-3.2-4-1.7-5.1,0.2C496,45.8,497.1,46.5,497.5,45.8
			L497.5,45.8z"/>
	</g>
</g>
<g id="XMLID_363_">
	<g id="XMLID_233_">
		<path id="XMLID_46_" fill="#A2C754" d="M159.5,9.9c-3.1-0.4-6.3-0.2-9.4-0.2c-1.7,0-3.7,0.2-4.4,2c-0.5,1.3,0,3.7,0.2,5.1
			c0.1,0.9,0.3,1.9,0.3,2.8c0.1,1.3-0.7,2-0.9,3.2c-0.3,2.1,1.7,3.4,3.5,3.7c1.2,0.2,2.5-0.1,3.8-0.2c1.5-0.1,3,0,4.5,0
			c1.9,0,3.7-0.9,4.1-2.9c0.3-1.5,0-3.1,0-4.6c-0.1-1.8,0.1-3.5,0.4-5.3c0.2-1.3-0.9-3.1-2.4-2.4c-2.7,1.1-4.8,1.7-7.8,1.5
			c-1.6-0.1-4.1-0.5-5,1.3c-0.8,1.6,0.3,3.5,1.1,5c0.9,1.6,0.8,4,2.8,4.6c1,0.3,2.4,0.1,3.4,0.1c0.9,0,2.1,0.2,3-0.2
			c1.6-0.8,2.1-3.1,2.2-4.7c0.1-1.6-0.3-3.1-2.1-3.4c-1.9-0.3-5.1,0.1-6.8,0.9c-0.6,0.3-1,1.1-1,1.7c0.4,3.8,4.1,4.3,6.8,2.5
			c-0.8-1-1.6-2.1-2.4-3.1c-1.3,1.3-1.2,3.4,0.6,4.3c1.9,0.9,4.2-1.5,2.4-3.1c-1.5-1.3-3-1.7-4.9-1.4c-2.5,0.4-1.4,4.2,1.1,3.8
			c0.4,0.1,0.7,0.2,1.1,0.3c0.8-1,1.6-2.1,2.4-3.1c0.1,0.1,0.1,0.1,0.2,0.2c0.1,0.5,0.1,1,0.2,1.5c-0.1,0.1-0.1,0.1-0.2,0.2
			c1.5-1.6-0.5-4.4-2.4-3.1c-0.5,0.2-0.8,0.5-0.9,1c-0.3,0.6-0.7,1.1-1,1.7c0.7-0.3,3.4-0.6,4.3-0.4c-0.5-0.5-0.9-0.9-1.4-1.4
			c0.1,0.5,0.1,1-0.1,1.4c-0.2,0.8-0.3,1-0.2,0.4c-0.6,0.3-2.8,0.1-3.5,0c0.4,0.3,0.8,0.6,1.2,0.9c-0.3-0.4-2-5.7-2.4-4.9
			c-0.4,0.3-0.8,0.6-1.2,0.9c1.9-0.5,4.3,0.3,6.3,0.1c1.8-0.2,3.5-1,5.2-1.7c-0.8-0.8-1.6-1.6-2.4-2.4c-0.2,1.3-0.5,2.7-0.6,4
			c-0.1,1.4,0.7,3.9,0.2,5.2c-0.3,0.8-0.2,0.6-1.4,0.6c-0.8,0-1.6,0-2.3,0c-1.1,0-3.9,0.8-4.8-0.2c0.2,0.5,0.4,0.9,0.6,1.4
			c0-0.1,0.5-1,0.7-1.4c0.3-0.8,0.3-1.6,0.2-2.4c-0.1-1.5-0.4-2.9-0.5-4.4c0-0.3,0.1-0.6,0-0.9c0-0.1-0.5-1.3-0.5-0.8
			c-0.5,0.1-0.5,0.1-0.1,0c0.2,0,0.4,0,0.6,0c0.4,0,0.9,0,1.3,0c2.8,0,5.6-0.1,8.4,0.2C162,14.2,162,10.2,159.5,9.9L159.5,9.9z"/>
	</g>
	<g id="XMLID_222_">
		<path id="XMLID_45_" d="M152.7,9.6c-1.5,0-4.9-0.3-6.1,0.6c-1.4,1.1-0.2,6.1-0.2,7.7c0,1.8-1.3,6.9,0.1,8.4c1.2,1.4,5.7,0,7.3,0
			c1.5,0,6.5,1.1,7.5,0c0.5-0.5,0.1-2.2,0.1-2.7c-0.1-1.9-0.4-3.7-0.4-5.6c0-2.1,0.4-4.1,0.6-6.1c0.1-0.7,0.3-1.6-0.4-2.2
			c-0.5-0.4-1.5-0.2-2-0.2C157.1,9.5,154.9,9.6,152.7,9.6c-0.4,0-0.4,0.6,0,0.6c1.9,0,4.7-0.6,6.5-0.1c3,0.9,1.4,4.5,1.2,6.8
			c-0.1,2.2,0.7,4.6,0.4,6.7c-0.3,2-0.7,2-2.5,2.3c-1.3,0.2-2.7-0.1-4-0.2c-1.9,0-5.3,1-6.7-0.2c-1.5-1.3-0.7-4.6-0.6-6.5
			c0.1-2.2-0.8-6,0.6-7.6c1.2-1.4,3.3-1.2,5.1-1.2C153.1,10.2,153.1,9.6,152.7,9.6L152.7,9.6z"/>
	</g>
	<g id="XMLID_221_">
		<path id="XMLID_43_" fill="#FFFFFF" d="M151.8,20.5c1-1.7,2.5-3.1,3.8-4.6c0.3-0.3-0.2-0.7-0.4-0.4c-1.3,1.5-2.9,3-3.9,4.7
			C151.1,20.5,151.6,20.8,151.8,20.5L151.8,20.5z"/>
	</g>
	<g id="XMLID_214_">
		<path id="XMLID_42_" fill="#FFFFFF" d="M151.2,15.8c1.2,1.6,2.2,3.4,3.7,4.8c0.3,0.3,0.7-0.2,0.4-0.4c-1.4-1.4-2.4-3.1-3.6-4.7
			C151.5,15.2,151,15.5,151.2,15.8L151.2,15.8z"/>
	</g>
</g>
<g id="XMLID_205_">
	<path id="XMLID_39_" fill="#29B2DF" d="M116,47.5c0.2-0.9,0-1.7-0.5-2.4c-0.4-0.6-1-0.8-1.7-1c0.4,0.2,0.7,0.4,1.1,0.6
		c0,0-0.1-0.1-0.1-0.1c0.2,0.4,0.4,0.7,0.6,1.1c-0.4-1-0.9-1.7-2-2c-0.8-0.2-1.7,0-2.3,0.4c-0.3,0.2-0.7,0.5-1,0.8
		c-0.8,0.9-1,2.2-0.4,3.3c0.8,1.4,2.8,1.9,4.2,1.1c0.8-0.5,1.5-1.5,1.5-2.5c0-0.5-0.1-1-0.4-1.4c-0.1-0.2-0.3-0.4-0.4-0.6
		c-0.7-0.8-0.7,0.1-0.1,2.7c0.9-0.9,1-2.6,0-3.5c-1-0.9-2.5-1-3.5,0c-0.6,0.6-0.9,1.4-0.9,2.2c0,0.5,0.1,1,0.4,1.4
		c0.1,0.2,0.3,0.4,0.5,0.6c0.2,0.2,0.1,0.1-0.2-0.2c-0.1-0.4-0.2-0.8-0.3-1.3c0.1-0.3,0.2-0.6,0.2-0.9c0.3-0.3,0.6-0.6,0.9-0.9
		c0.3-0.3,1.3-0.3,1.7,0c0.3,0.3,0.6,0.6,0.9,0.9c0,0,0-0.1-0.1-0.1c0.1,0.4,0.2,0.8,0.3,1.3c0,0.1,0,0.3,0,0.4
		c-0.2,0.4-0.4,0.7-0.6,1.1c-0.3,0.2-0.4,0.3-0.3,0.2c0.1,0,0.1-0.1,0.2-0.1c0.7-0.5-0.6,0.3-1.3,0c-0.4-0.2-0.7-0.4-1.1-0.6
		c0,0,0,0,0.1,0.1c-0.2-0.4-0.4-0.7-0.6-1.1c0.2,0.5,0.4,0.9,0.8,1.3c0.3,0.3,0.7,0.5,1.1,0.6c0.2,0.1,0.2,0-0.2-0.1
		c-0.3-0.3-0.6-0.6-0.9-0.9c0,0,0,0.1,0.1,0.1c-0.1-0.6-0.2-1.3-0.3-1.9c0,0,0,0.1,0,0.1c-0.4,1.3,0.4,2.8,1.7,3.1
		C114.3,49.6,115.7,48.9,116,47.5L116,47.5z"/>
</g>
<g id="XMLID_216_">
	<path id="XMLID_35_" fill="#29B2DF" d="M111.6,22.8c0.2-0.2,0.4-0.4,0.6-0.6c0.6-0.1,1.3-0.2,1.9-0.3c-1.4-0.3-2.9-0.7-3.6-2
		c-0.9-1.6-0.6-3.2,1.2-3.9c1.5-0.7,2.9,0,3.2,1.6c0.3,1.8-0.8,2.3-1.6,3.7c1.4,0,2.9,0,4.3,0c-0.5-0.7-0.7-1.5-1-2.2
		c-0.1-0.3-0.2-0.5-0.3-0.8c-0.3-1-0.4-1-0.3-0.1c-0.4,0.5-0.8,1-1.1,1.5c-0.1,0-0.2,0.1-0.3,0.1c2.9-0.1,3.3-4,0.7-4.9
		c-3.1-1.1-6.4,0.4-6.2,4c0.1,1.4,0.5,3,1.9,3.6c1.4,0.7,2.6,0,3.7-0.2c3.2-0.3,3.2-5.3,0-5c-0.3,0-1.8,0.5-2,0.5
		c0.5,0.4,1,0.8,1.5,1.1c0-0.6-0.1-0.6-0.4,0c-0.6,0.4-0.5,0.7,0.3,0.7c0.2-1.6,0.4-3.3,0.7-4.9c-1.8,0.1-3.6,1-3.6,3
		c0,0.9,0.5,1.7,0.8,2.5c0.5,1.1,0.8,2.4,1.5,3.4c1,1.4,3.4,1.8,4.3,0c0.9-1.7,2.2-2.6,2.4-4.7c0.1-2-0.4-4.2-1.6-5.8
		c-2.6-3.4-7.5-3.3-10.6-0.8c-1.5,1.2-2.5,2.9-2.8,4.8c-0.4,2,0.5,3.8,1.5,5.5c1.4,2.4,7.6,5.9,9.4,2.4
		C117.4,22.5,113.1,19.9,111.6,22.8L111.6,22.8z"/>
</g>
<g id="XMLID_219_">
	<path id="XMLID_31_" fill="#29B2DF" d="M112.3,26.9c0,5.8-0.1,11.6-0.1,17.5c0,0.5,0.8,0.5,0.8,0c0-5.8,0.1-11.6,0.1-17.5
		C113.1,26.4,112.3,26.4,112.3,26.9L112.3,26.9z"/>
</g>
<g id="XMLID_26_">
	<path id="XMLID_30_" fill="#0F0F0D" d="M113.2,10.3c-3.7-0.1-7.4,3-8.1,6.7c-0.9,4.7,2.1,7.7,6.4,9.2c0.3,0.1,0.4-0.4,0.1-0.5
		c-3.9-1.4-6.9-4.2-6-8.7c0.7-3.3,4.1-6.4,7.6-6.2C113.5,10.8,113.5,10.3,113.2,10.3L113.2,10.3z"/>
</g>
<g id="XMLID_27_">
	<path id="XMLID_29_" fill="#0F0F0D" d="M113,10.8c3.7,0.7,6.7,2.6,7.1,6.5c0.5,4.6-2.1,7.1-6.3,8.4c-0.3,0.1-0.2,0.6,0.1,0.5
		c4.1-1.3,7.1-3.8,6.8-8.4c-0.4-4.5-3.2-6.7-7.6-7.5C112.8,10.3,112.7,10.8,113,10.8L113,10.8z"/>
</g>
<g id="XMLID_36_">
	<path id="XMLID_25_" fill="#0F0F0D" d="M111.2,26.2c0.4,0.1,0.7,0.2,1.1,0.4c0.3,0.1,0.4-0.4,0.1-0.5c-0.4-0.1-0.7-0.2-1.1-0.4
		C111,25.6,110.9,26.1,111.2,26.2L111.2,26.2z"/>
</g>
<g id="XMLID_38_">
	<path id="XMLID_21_" fill="#0F0F0D" d="M112.2,26.6c-0.1,5.7-0.2,11.4-0.1,17.2c0,0.3,0.5,0.3,0.5,0c-0.1-5.7,0-11.4,0.1-17.2
		C112.7,26.2,112.2,26.2,112.2,26.6L112.2,26.6z"/>
</g>
<g id="XMLID_41_">
	<path id="XMLID_18_" fill="#0F0F0D" d="M113.3,43.7c0-3,0-6.1,0-9.1c0-1-0.7-7.7,0.5-8.3c0.3-0.1,0-0.6-0.3-0.4
		c-1.1,0.5-0.7,2.9-0.7,3.8c0,4.7-0.1,9.4-0.1,14.1C112.8,44,113.3,44,113.3,43.7L113.3,43.7z"/>
</g>
<g id="XMLID_108_">
	<path id="XMLID_12_" fill="#0F0F0D" d="M112.2,43.4c-1.5,0.9-2.7,1.9-2.5,3.8c0.2,1.9,1.8,2.7,3.6,2.5c1.5-0.2,2.8-1.5,2.8-3
		c0-1.8-1.5-2.8-3-3.3c-0.3-0.1-0.4,0.4-0.1,0.5c1.1,0.4,2.2,1,2.6,2.2c0.4,1.6-1,3.1-2.6,3.2c-1.7,0.1-2.9-1-2.7-2.7
		c0.1-1.4,1.1-2,2.2-2.7C112.8,43.7,112.5,43.3,112.2,43.4L112.2,43.4z"/>
</g>
<g id="XMLID_126_">
	<path id="XMLID_7_" fill="#0F0F0D" d="M113.4,26.6c0,0,0.2-0.3,0.1-0.2c-0.1,0,0.2,0,0.3,0c0.3-0.1,0.2-0.6-0.1-0.5
		c-0.4,0.1-0.5,0.2-0.6,0.5C112.9,26.6,113.3,26.8,113.4,26.6L113.4,26.6z"/>
</g>
<g id="XMLID_244_">
	<path id="XMLID_6_" fill="#FFFFFF" d="M110.6,18.8c1.5,0,2.9,0,4.4-0.1c0.6,0,0.6-1,0-1c-1.5,0.1-2.9,0.1-4.4,0.1
		C110,17.8,110,18.8,110.6,18.8L110.6,18.8z"/>
</g>
<g id="XMLID_247_">
	<path id="XMLID_5_" fill="#FFFFFF" d="M112,16.3c0,1.3,0.1,2.7,0,4c0,0.6,1,0.6,1,0c0-1.3,0-2.7,0-4
		C112.9,15.6,111.9,15.6,112,16.3L112,16.3z"/>
</g>
<g id="XMLID_590_">
	<path id="XMLID_3_" fill="#0F0F0F" d="M428.3,7.5c2.2-0.2,4.4-0.1,6.6-0.2c-0.2-0.2-0.3-0.4-0.5-0.6c-0.2,1.3-0.3,2.4-0.2,3.7
		c0.1,0.6,1,0.6,1,0c-0.1-1.2-0.1-2.2,0.1-3.5c0-0.3-0.1-0.6-0.5-0.6c-2.2,0.2-4.4,0.1-6.6,0.2C427.7,6.6,427.7,7.6,428.3,7.5
		L428.3,7.5z"/>
</g>
</svg>
