<?xml version="1.0" encoding="utf-8"?>
<!-- Generator: Adobe Illustrator 19.0.0, SVG Export Plug-In . SVG Version: 6.00 Build 0)  -->
<svg version="1.1" id="Layer_1" xmlns="http://www.w3.org/2000/svg" xmlns:xlink="http://www.w3.org/1999/xlink" x="0px" y="0px"
	 viewBox="0 0 595.3 43" style="enable-background:new 0 0 595.3 43;" xml:space="preserve">
<style type="text/css">
	.st0{fill:#161616;}
</style>
<g id="XMLID_1500_">
	<g id="XMLID_1831_">
		<path id="XMLID_1836_" class="st0" d="M320.8,8.6c-0.4-0.9-1.3-1.4-2.2-1.9c-0.7-0.4-1.3,0.7-0.6,1.1c0.7,0.4,1.4,0.7,1.7,1.5
			C320.1,10,321.2,9.3,320.8,8.6L320.8,8.6z"/>
	</g>
</g>
<g id="XMLID_44_">
	<g id="XMLID_1824_">
		<path id="XMLID_1829_" class="st0" d="M319.8,8.8c-0.4,0.6-1,1-1.6,1.3c-0.7,0.4-0.1,1.5,0.6,1.1c0.8-0.5,1.5-1.1,2-1.8
			c0.2-0.3,0-0.7-0.2-0.9C320.3,8.4,320,8.5,319.8,8.8L319.8,8.8z"/>
	</g>
</g>
<g id="XMLID_20_">
	<g id="XMLID_37_">
		<path id="XMLID_47_" class="st0" d="M197.8,9.6c40.6-0.1,81.1,0.5,121.7,0.1c0.8,0,0.8-1.2,0-1.2c-40.6,0.5-81.1-0.2-121.7-0.1
			C197,8.4,197,9.6,197.8,9.6L197.8,9.6z"/>
	</g>
</g>
<g id="XMLID_123_">
	<g id="XMLID_125_">
		<path id="XMLID_129_" class="st0" d="M320.8,37c-0.4-0.9-1.3-1.4-2.2-1.9c-0.7-0.4-1.3,0.7-0.6,1.1c0.7,0.4,1.4,0.7,1.7,1.5
			C320.1,38.3,321.2,37.7,320.8,37L320.8,37z"/>
	</g>
</g>
<g id="XMLID_116_">
	<g id="XMLID_118_">
		<path id="XMLID_122_" class="st0" d="M319.8,37.1c-0.4,0.6-1,1-1.6,1.3c-0.7,0.4-0.1,1.5,0.6,1.1c0.8-0.5,1.5-1.1,2-1.8
			c0.2-0.3,0-0.7-0.2-0.9C320.3,36.7,320,36.9,319.8,37.1L319.8,37.1z"/>
	</g>
</g>
<g id="XMLID_81_">
	<g id="XMLID_28_">
		<path id="XMLID_33_" class="st0" d="M197.8,37.9c40.6-0.1,81.1,0.5,121.7,0.1c0.8,0,0.8-1.2,0-1.2c-40.6,0.5-81.1-0.2-121.7-0.1
			C197,36.8,197,38,197.8,37.9L197.8,37.9z"/>
	</g>
</g>
<g id="XMLID_1600_">
	<g id="XMLID_1703_">
		<path id="XMLID_1709_" class="st0" d="M155.5,1.4c0.4,2.8-0.1,5.9-0.1,8.7c0,0.8,1.2,0.8,1.3,0c0.1-3,0.5-6.1,0.1-9
			C156.6,0.3,155.4,0.6,155.5,1.4L155.5,1.4z"/>
	</g>
</g>
<g id="XMLID_1601_">
	<g id="XMLID_1695_">
		<path id="XMLID_1701_" class="st0" d="M158.6,4c-0.1,2.1-0.1,4.1-0.1,6.2c0,0.8,1.3,0.8,1.3,0c0-2.1,0-4.1,0.1-6.2
			C159.9,3.2,158.7,3.2,158.6,4L158.6,4z"/>
	</g>
</g>
<g id="XMLID_1602_">
	<g id="XMLID_1687_">
		<path id="XMLID_1693_" class="st0" d="M159.8,5.9c0.6-0.6,1.1-1.3,1.9-1.4c1.1-0.1,1.3,0.8,1.4,1.6c0.2,1.4,0.1,2.7,0,4.1
			c-0.1,0.8,1.2,0.8,1.3,0c0.1-1.3,0.2-2.6,0-3.9c-0.1-0.8-0.1-1.9-0.7-2.5c-0.6-0.6-1.7-0.7-2.5-0.6c-1,0.2-1.6,1-2.3,1.7
			C158.3,5.6,159.2,6.5,159.8,5.9L159.8,5.9z"/>
	</g>
</g>
<g id="XMLID_1603_">
	<g id="XMLID_1679_">
		<path id="XMLID_1684_" class="st0" d="M165.9,3.9c0.1,2.9,0.3,5.9,0.1,8.8c0,0.8,1.2,0.8,1.3,0c0.2-2.9,0-5.9-0.1-8.8
			C167.1,3.1,165.9,3.1,165.9,3.9L165.9,3.9z"/>
	</g>
</g>
<g id="XMLID_1605_">
	<g id="XMLID_1670_">
		<path id="XMLID_1676_" class="st0" d="M167.1,6.1c0.5-0.8,1.1-1.3,2-1.5c1.5-0.3,1.9,0.8,1.9,2.1c0,1.1,0.1,2.1-1,2.5
			c-1.1,0.5-2.1,0.1-2.8-0.8c-0.5-0.6-1.4,0.3-0.9,0.9c1.1,1.2,2.8,1.7,4.3,1c1.8-0.8,1.8-2.4,1.7-4.1c-0.1-1.4-0.7-2.9-2.3-3
			c-1.6-0.1-3.1,0.8-4,2.2C165.6,6.2,166.7,6.8,167.1,6.1L167.1,6.1z"/>
	</g>
</g>
<g id="XMLID_1606_">
	<g id="XMLID_1662_">
		<path id="XMLID_1668_" class="st0" d="M173.9,3.8c-0.3,1.6-0.4,3.3-0.1,5c0.3,1.3,1,1.8,2.2,1.9c3.6,0.4,3.7-4.3,3.6-6.8
			c0-0.8-1.3-0.8-1.3,0c0,1.6,0.3,5.4-1.9,5.6c-1.5,0.1-1.6-1.2-1.6-2.3c0-1,0-2,0.2-3C175.2,3.3,174,3,173.9,3.8L173.9,3.8z"/>
	</g>
</g>
<g id="XMLID_1608_">
	<g id="XMLID_1654_">
		<path id="XMLID_1660_" class="st0" d="M178.4,3.9c0,2.1,0,4.1-0.1,6.2c0,0.8,1.2,0.8,1.3,0c0.1-2.1,0.1-4.1,0.1-6.2
			C179.6,3.1,178.4,3.1,178.4,3.9L178.4,3.9z"/>
	</g>
</g>
<g id="XMLID_1610_">
	<g id="XMLID_1646_">
		<path id="XMLID_1652_" class="st0" d="M181.4,2.1c0,2.4-0.3,5.1,0.1,7.5c0.2,1.2,1,1.5,2.1,1.1c0.8-0.2,0.4-1.4-0.3-1.2
			c-0.9,0.3-0.5-0.6-0.5-1.2c0-0.7,0-1.5,0-2.2c0-1.4,0-2.7,0-4.1C182.6,1.3,181.4,1.3,181.4,2.1L181.4,2.1z"/>
	</g>
</g>
<g id="XMLID_1619_">
	<g id="XMLID_1639_">
		<path id="XMLID_1644_" class="st0" d="M180.7,4.5c1,0.3,2,0.3,3,0.1c0.8-0.2,0.5-1.4-0.3-1.2c-0.8,0.2-1.5,0.1-2.3-0.1
			C180.2,3.1,179.9,4.3,180.7,4.5L180.7,4.5z"/>
	</g>
</g>
<g id="XMLID_246_">
	<g id="XMLID_248_">
		<path id="XMLID_252_" class="st0" d="M155.5,29.7c0.4,2.8-0.1,5.9-0.1,8.7c0,0.8,1.2,0.8,1.3,0c0.1-3,0.5-6.1,0.1-9
			C156.6,28.6,155.4,29,155.5,29.7L155.5,29.7z"/>
	</g>
</g>
<g id="XMLID_239_">
	<g id="XMLID_241_">
		<path id="XMLID_245_" class="st0" d="M158.6,32.3c-0.1,2.1-0.1,4.1-0.1,6.2c0,0.8,1.3,0.8,1.3,0c0-2.1,0-4.1,0.1-6.2
			C159.9,31.5,158.7,31.5,158.6,32.3L158.6,32.3z"/>
	</g>
</g>
<g id="XMLID_232_">
	<g id="XMLID_234_">
		<path id="XMLID_238_" class="st0" d="M159.8,34.2c0.6-0.6,1.1-1.3,1.9-1.4c1.1-0.1,1.3,0.8,1.4,1.6c0.2,1.4,0.1,2.7,0,4.1
			c-0.1,0.8,1.2,0.8,1.3,0c0.1-1.3,0.2-2.6,0-3.9c-0.1-0.8-0.1-1.9-0.7-2.5c-0.6-0.6-1.7-0.7-2.5-0.6c-1,0.2-1.6,1-2.3,1.7
			C158.3,33.9,159.2,34.8,159.8,34.2L159.8,34.2z"/>
	</g>
</g>
<g id="XMLID_225_">
	<g id="XMLID_227_">
		<path id="XMLID_231_" class="st0" d="M165.9,32.2c0.1,2.9,0.3,5.9,0.1,8.8c0,0.8,1.2,0.8,1.3,0c0.2-2.9,0-5.9-0.1-8.8
			C167.1,31.4,165.9,31.4,165.9,32.2L165.9,32.2z"/>
	</g>
</g>
<g id="XMLID_218_">
	<g id="XMLID_220_">
		<path id="XMLID_224_" class="st0" d="M167.1,34.5c0.5-0.8,1.1-1.3,2-1.5c1.5-0.3,1.9,0.8,1.9,2.1c0,1.1,0.1,2.1-1,2.5
			c-1.1,0.5-2.1,0.1-2.8-0.8c-0.5-0.6-1.4,0.3-0.9,0.9c1.1,1.2,2.8,1.7,4.3,1c1.8-0.8,1.8-2.4,1.7-4.1c-0.1-1.4-0.7-2.9-2.3-3
			c-1.6-0.1-3.1,0.8-4,2.2C165.6,34.5,166.7,35.2,167.1,34.5L167.1,34.5z"/>
	</g>
</g>
<g id="XMLID_211_">
	<g id="XMLID_213_">
		<path id="XMLID_217_" class="st0" d="M173.9,32.1c-0.3,1.6-0.4,3.3-0.1,5c0.3,1.3,1,1.8,2.2,1.9c3.6,0.4,3.7-4.3,3.6-6.8
			c0-0.8-1.3-0.8-1.3,0c0,1.6,0.3,5.4-1.9,5.6c-1.5,0.1-1.6-1.2-1.6-2.3c0-1,0-2,0.2-3C175.2,31.7,174,31.3,173.9,32.1L173.9,32.1z"
			/>
	</g>
</g>
<g id="XMLID_204_">
	<g id="XMLID_206_">
		<path id="XMLID_210_" class="st0" d="M178.4,32.3c0,2.1,0,4.1-0.1,6.2c0,0.8,1.2,0.8,1.3,0c0.1-2.1,0.1-4.1,0.1-6.2
			C179.6,31.5,178.4,31.5,178.4,32.3L178.4,32.3z"/>
	</g>
</g>
<g id="XMLID_197_">
	<g id="XMLID_199_">
		<path id="XMLID_203_" class="st0" d="M181.4,30.4c0,2.4-0.3,5.1,0.1,7.5c0.2,1.2,1,1.5,2.1,1.1c0.8-0.2,0.4-1.4-0.3-1.2
			c-0.9,0.3-0.5-0.6-0.5-1.2c0-0.7,0-1.5,0-2.2c0-1.4,0-2.7,0-4.1C182.6,29.6,181.4,29.6,181.4,30.4L181.4,30.4z"/>
	</g>
</g>
<g id="XMLID_190_">
	<g id="XMLID_192_">
		<path id="XMLID_196_" class="st0" d="M180.7,32.9c1,0.3,2,0.3,3,0.1c0.8-0.2,0.5-1.4-0.3-1.2c-0.8,0.2-1.5,0.1-2.3-0.1
			C180.2,31.4,179.9,32.6,180.7,32.9L180.7,32.9z"/>
	</g>
</g>
<g id="XMLID_34_">
	<g id="XMLID_1159_">
		<g id="XMLID_275_">
			<path id="XMLID_279_" class="st0" d="M186.5,8.6c1-0.7,1.9-1.3,2.9-2c-0.3-0.2-0.6-0.5-0.9-0.7c-0.5,2.5-0.7,5-0.6,7.6
				c0,0.8,1.3,0.8,1.3,0c-0.1-2.4,0.1-4.9,0.6-7.3c0.1-0.5-0.4-1-0.9-0.7c-1,0.7-1.9,1.3-2.9,2C185.2,8,185.9,9.1,186.5,8.6
				L186.5,8.6z"/>
		</g>
	</g>
	<g id="XMLID_795_">
		<g id="XMLID_269_">
			<path id="XMLID_273_" class="st0" d="M185.6,14.2c1.7,0,3.4-0.1,5.1-0.2c0.8,0,0.8-1.3,0-1.3c-1.7,0.1-3.4,0.1-5.1,0.2
				C184.8,13,184.8,14.2,185.6,14.2L185.6,14.2z"/>
		</g>
	</g>
</g>
<g id="XMLID_32_">
	<g id="XMLID_266_">
		<path id="XMLID_288_" class="st0" d="M186.7,37c0.2-0.4,0.5-0.8,0.9-1c0.6-0.4,0.9-0.5,1.5,0c0.5,0.4,0.5,0.6,0.4,1.2
			c-0.1,0.4-0.3,0.8-0.4,1.1c-0.7,1.4-2,2.5-3.5,3c-0.7,0.2-0.5,1.2,0.2,1.2c2.2,0.2,4.3,0.1,6.5-0.1c0.8-0.1,0.8-1.3,0-1.3
			c-2.2,0.2-4.3,0.3-6.5,0.1c0.1,0.4,0.1,0.8,0.2,1.2c2.5-0.9,5.3-3.5,5-6.4c-0.4-3.2-4-1.7-5.1,0.2C185.2,37.1,186.3,37.7,186.7,37
			L186.7,37z"/>
	</g>
</g>
</svg>
