<?xml version="1.0" encoding="utf-8"?>
<!-- Generator: Adobe Illustrator 19.0.0, SVG Export Plug-In . SVG Version: 6.00 Build 0)  -->
<svg version="1.1" id="Layer_1" xmlns="http://www.w3.org/2000/svg" xmlns:xlink="http://www.w3.org/1999/xlink" x="0px" y="0px"
	 viewBox="0 0 595.3 141.7" style="enable-background:new 0 0 595.3 141.7;" xml:space="preserve">
<style type="text/css">
	.st0{fill:#161616;}
	.st1{opacity:0.5;}
</style>
<g id="XMLID_500_">
	<g id="XMLID_1473_">
		<path id="XMLID_1478_" class="st0" d="M205.9,36.6c-1.8,0-3.6,0.1-5.4,0.1c-1,0-1,1.5,0,1.5c1.8,0,3.6-0.1,5.4-0.1
			C206.8,38.1,206.8,36.6,205.9,36.6L205.9,36.6z"/>
	</g>
</g>
<g id="XMLID_501_">
	<g id="XMLID_1466_">
		<path id="XMLID_1471_" class="st0" d="M211.6,36.1c-2.5,0.8-3.7,3.3-3.9,5.9c-0.1,2.8,1.5,4.4,3.8,5.5c0.7,0.3,1.4-0.7,0.6-1.1
			c-1.5-0.7-2.8-1.4-3.1-3.2c-0.5-2.2,0.7-5.2,2.9-5.9C212.7,37.1,212.4,35.9,211.6,36.1L211.6,36.1z"/>
	</g>
</g>
<g id="XMLID_502_">
	<g id="XMLID_1459_">
		<path id="XMLID_1464_" class="st0" d="M218.7,37.2c3.9,1.6,3.8,7.8,0,9.4c-0.7,0.3-0.4,1.5,0.3,1.2c2.5-1,3.7-3,3.8-5.7
			c0-2.4-1.2-5-3.5-6C218.6,35.8,217.9,36.9,218.7,37.2L218.7,37.2z"/>
	</g>
</g>
<g id="XMLID_505_">
	<g id="XMLID_1453_">
		<path id="XMLID_1457_" class="st0" d="M212.8,39.4c0.7-0.2,1.4,1.8,1.6,2.3c0.4,0.8,0.9,1.5,1.3,2.2c0.7,1.1,1.5,2,3,1.7
			c0.8-0.2,0.5-1.4-0.3-1.2c-1.4,0.3-2.9-3.4-3.4-4.4c-0.5-1.1-1.2-2.1-2.5-1.8C211.7,38.4,212,39.6,212.8,39.4L212.8,39.4z"/>
	</g>
</g>
<g id="XMLID_507_">
	<g id="XMLID_1450_">
		<path id="XMLID_1465_" class="st0" d="M213,45.5c1.6-2.2,3.3-4.3,5.2-6.4c0.5-0.6-0.3-1.5-0.9-0.9c-1.9,2.1-3.7,4.3-5.4,6.6
			C211.4,45.5,212.5,46.2,213,45.5L213,45.5z"/>
	</g>
</g>
<g id="XMLID_41_">
	<g id="XMLID_1444_">
		<path id="XMLID_1448_" class="st0" d="M230.4,41c1.6,0.1,3.2,0,4.8-0.1c0.8-0.1,0.8-1.3,0-1.3c-1.6,0.2-3.2,0.2-4.8,0.1
			C229.6,39.8,229.6,41,230.4,41L230.4,41z"/>
	</g>
</g>
<g id="XMLID_508_">
	<g id="XMLID_1437_">
		<path id="XMLID_1442_" class="st0" d="M230.2,44.1c1.9,0,3.8,0,5.6-0.1c0.8,0,0.8-1.3,0-1.3c-1.9,0.1-3.8,0.1-5.6,0.1
			C229.4,42.8,229.4,44.1,230.2,44.1L230.2,44.1z"/>
	</g>
</g>
<g id="XMLID_566_">
	<g id="XMLID_1429_">
		<path id="XMLID_1434_" class="st0" d="M244.8,39.4c0.7-0.2,1.4,1.8,1.6,2.3c0.4,0.8,0.9,1.5,1.3,2.2c0.7,1.1,1.5,2,3,1.7
			c0.8-0.2,0.5-1.4-0.3-1.2c-1.4,0.3-2.9-3.4-3.4-4.4c-0.5-1.1-1.2-2.1-2.5-1.8C243.6,38.3,244,39.5,244.8,39.4L244.8,39.4z"/>
	</g>
</g>
<g id="XMLID_545_">
	<g id="XMLID_1419_">
		<path id="XMLID_1425_" class="st0" d="M244.9,45.5c1.6-2.2,3.3-4.3,5.2-6.4c0.5-0.6-0.3-1.5-0.9-0.9c-1.9,2.1-3.7,4.3-5.4,6.6
			C243.4,45.5,244.5,46.1,244.9,45.5L244.9,45.5z"/>
	</g>
</g>
<g id="XMLID_492_">
	<g id="XMLID_1412_">
		<path id="XMLID_1417_" class="st0" d="M208.3,32.3c-7.7-2.7-5.1,11.5-6.9,14.6c-0.5,0.8,0.8,1.6,1.3,0.8
			c1.6-2.8-0.2-15.7,5.2-13.9C208.8,34,209.2,32.6,208.3,32.3L208.3,32.3z"/>
	</g>
</g>
<g id="XMLID_589_">
	<g id="XMLID_1407_">
		<path id="XMLID_1411_" class="st0" d="M205.9,64.9c-1.8,0-3.6,0.1-5.4,0.1c-1,0-1,1.5,0,1.5c1.8,0,3.6-0.1,5.4-0.1
			C206.8,66.4,206.8,64.9,205.9,64.9L205.9,64.9z"/>
	</g>
</g>
<g id="XMLID_570_">
	<g id="XMLID_1401_">
		<path id="XMLID_1405_" class="st0" d="M211.6,64.5c-2.5,0.8-3.7,3.3-3.9,5.9c-0.1,2.8,1.5,4.4,3.8,5.5c0.7,0.3,1.4-0.7,0.6-1.1
			c-1.5-0.7-2.8-1.4-3.1-3.2c-0.5-2.2,0.7-5.2,2.9-5.9C212.7,65.4,212.4,64.2,211.6,64.5L211.6,64.5z"/>
	</g>
</g>
<g id="XMLID_565_">
	<g id="XMLID_1394_">
		<path id="XMLID_1398_" class="st0" d="M218.7,65.6c3.9,1.6,3.8,7.8,0,9.4c-0.7,0.3-0.4,1.5,0.3,1.2c2.5-1,3.7-3,3.8-5.7
			c0-2.4-1.2-5-3.5-6C218.6,64.2,217.9,65.2,218.7,65.6L218.7,65.6z"/>
	</g>
</g>
<g id="XMLID_564_">
	<g id="XMLID_1387_">
		<path id="XMLID_1391_" class="st0" d="M212.8,67.8c0.7-0.2,1.4,1.8,1.6,2.3c0.4,0.8,0.9,1.5,1.3,2.2c0.7,1.1,1.5,2,3,1.7
			c0.8-0.2,0.5-1.4-0.3-1.2c-1.4,0.3-2.9-3.4-3.4-4.4c-0.5-1.1-1.2-2.1-2.5-1.8C211.7,66.7,212,67.9,212.8,67.8L212.8,67.8z"/>
	</g>
</g>
<g id="XMLID_557_">
	<g id="XMLID_1378_">
		<path id="XMLID_1382_" class="st0" d="M213,73.9c1.6-2.2,3.3-4.3,5.2-6.4c0.5-0.6-0.3-1.5-0.9-0.9c-1.9,2.1-3.7,4.3-5.4,6.6
			C211.4,73.9,212.5,74.5,213,73.9L213,73.9z"/>
	</g>
</g>
<g id="XMLID_551_">
	<g id="XMLID_1371_">
		<path id="XMLID_1375_" class="st0" d="M230.4,69.4c1.6,0.1,3.2,0,4.8-0.1c0.8-0.1,0.8-1.3,0-1.3c-1.6,0.2-3.2,0.2-4.8,0.1
			C229.6,68.1,229.6,69.4,230.4,69.4L230.4,69.4z"/>
	</g>
</g>
<g id="XMLID_539_">
	<g id="XMLID_1364_">
		<path id="XMLID_1368_" class="st0" d="M230.2,72.4c1.9,0,3.8,0,5.6-0.1c0.8,0,0.8-1.3,0-1.3c-1.9,0.1-3.8,0.1-5.6,0.1
			C229.4,71.2,229.4,72.4,230.2,72.4L230.2,72.4z"/>
	</g>
</g>
<g id="XMLID_506_">
	<g id="XMLID_1357_">
		<path id="XMLID_1361_" class="st0" d="M252.5,67.8c0.7-0.2,1.4,1.8,1.6,2.3c0.4,0.8,0.9,1.5,1.3,2.2c0.7,1.1,1.5,2,3,1.7
			c0.8-0.2,0.5-1.4-0.3-1.2c-1.4,0.3-2.9-3.4-3.4-4.4c-0.5-1.1-1.2-2.1-2.5-1.8C251.4,66.7,251.7,67.9,252.5,67.8L252.5,67.8z"/>
	</g>
</g>
<g id="XMLID_504_">
	<g id="XMLID_1350_">
		<path id="XMLID_1354_" class="st0" d="M252.7,73.9c1.6-2.2,3.3-4.3,5.2-6.4c0.5-0.6-0.3-1.5-0.9-0.9c-1.9,2.1-3.7,4.3-5.4,6.6
			C251.1,73.9,252.2,74.5,252.7,73.9L252.7,73.9z"/>
	</g>
</g>
<g id="XMLID_499_">
	<g id="XMLID_1342_">
		<path id="XMLID_1346_" class="st0" d="M208.3,60.6c-7.7-2.7-5.1,11.5-6.9,14.6c-0.5,0.8,0.8,1.6,1.3,0.8
			c1.6-2.8-0.2-15.7,5.2-13.9C208.8,62.4,209.2,60.9,208.3,60.6L208.3,60.6z"/>
	</g>
</g>
<g id="XMLID_590_">
	<g id="XMLID_1335_">
		<path id="XMLID_1339_" class="st0" d="M243.8,70.4c2.2-0.2,4.4-0.1,6.6-0.2c-0.2-0.2-0.3-0.4-0.5-0.6c-0.2,1.3-0.3,2.4-0.2,3.7
			c0.1,0.6,1,0.6,1,0c-0.1-1.2-0.1-2.2,0.1-3.5c0-0.3-0.1-0.6-0.5-0.6c-2.2,0.2-4.4,0.1-6.6,0.2C243.2,69.5,243.1,70.4,243.8,70.4
			L243.8,70.4z"/>
	</g>
</g>
<g id="XMLID_705_">
	<g id="XMLID_1328_">
		<path id="XMLID_1332_" class="st0" d="M205.9,93.3c-1.8,0-3.6,0.1-5.4,0.1c-1,0-1,1.5,0,1.5c1.8,0,3.6-0.1,5.4-0.1
			C206.8,94.8,206.8,93.3,205.9,93.3L205.9,93.3z"/>
	</g>
</g>
<g id="XMLID_680_">
	<g id="XMLID_1322_">
		<path id="XMLID_1326_" class="st0" d="M211.6,92.8c-2.5,0.8-3.7,3.3-3.9,5.9c-0.1,2.8,1.5,4.4,3.8,5.5c0.7,0.3,1.4-0.7,0.6-1.1
			c-1.5-0.7-2.8-1.4-3.1-3.2c-0.5-2.2,0.7-5.2,2.9-5.9C212.7,93.8,212.4,92.6,211.6,92.8L211.6,92.8z"/>
	</g>
</g>
<g id="XMLID_655_">
	<g id="XMLID_1315_">
		<path id="XMLID_1319_" class="st0" d="M218.7,93.9c3.9,1.6,3.8,7.8,0,9.4c-0.7,0.3-0.4,1.5,0.3,1.2c2.5-1,3.7-3,3.8-5.7
			c0-2.4-1.2-5-3.5-6C218.6,92.5,217.9,93.6,218.7,93.9L218.7,93.9z"/>
	</g>
</g>
<g id="XMLID_648_">
	<g id="XMLID_1306_">
		<path id="XMLID_1310_" class="st0" d="M212.8,96.1c0.7-0.2,1.4,1.8,1.6,2.3c0.4,0.8,0.9,1.5,1.3,2.2c0.7,1.1,1.5,2,3,1.7
			c0.8-0.2,0.5-1.4-0.3-1.2c-1.4,0.3-2.9-3.4-3.4-4.4c-0.5-1.1-1.2-2.1-2.5-1.8C211.7,95.1,212,96.3,212.8,96.1L212.8,96.1z"/>
	</g>
</g>
<g id="XMLID_647_">
	<g id="XMLID_1298_">
		<path id="XMLID_1302_" class="st0" d="M213,102.2c1.6-2.2,3.3-4.3,5.2-6.4c0.5-0.6-0.3-1.5-0.9-0.9c-1.9,2.1-3.7,4.3-5.4,6.6
			C211.4,102.2,212.5,102.8,213,102.2L213,102.2z"/>
	</g>
</g>
<g id="XMLID_608_">
	<g id="XMLID_1291_">
		<path id="XMLID_1295_" class="st0" d="M230.4,97.7c1.6,0.1,3.2,0,4.8-0.1c0.8-0.1,0.8-1.3,0-1.3c-1.6,0.2-3.2,0.2-4.8,0.1
			C229.6,96.4,229.6,97.7,230.4,97.7L230.4,97.7z"/>
	</g>
</g>
<g id="XMLID_596_">
	<g id="XMLID_1283_">
		<path id="XMLID_1287_" class="st0" d="M230.2,100.8c1.9,0,3.8,0,5.6-0.1c0.8,0,0.8-1.3,0-1.3c-1.9,0.1-3.8,0.1-5.6,0.1
			C229.4,99.5,229.4,100.8,230.2,100.8L230.2,100.8z"/>
	</g>
</g>
<g id="XMLID_592_">
	<g id="XMLID_1276_">
		<path id="XMLID_1280_" class="st0" d="M208.3,89c-7.7-2.7-5.1,11.5-6.9,14.6c-0.5,0.8,0.8,1.6,1.3,0.8c1.6-2.8-0.2-15.7,5.2-13.9
			C208.8,90.7,209.2,89.3,208.3,89L208.3,89z"/>
	</g>
</g>
<g id="XMLID_712_">
	<g id="XMLID_1270_">
		<path id="XMLID_1274_" class="st0" d="M205.9,121.6c-1.8,0-3.6,0.1-5.4,0.1c-1,0-1,1.5,0,1.5c1.8,0,3.6-0.1,5.4-0.1
			C206.8,123.1,206.8,121.6,205.9,121.6L205.9,121.6z"/>
	</g>
</g>
<g id="XMLID_711_">
	<g id="XMLID_1263_">
		<path id="XMLID_1268_" class="st0" d="M211.6,121.2c-2.5,0.8-3.7,3.3-3.9,5.9c-0.1,2.8,1.5,4.4,3.8,5.5c0.7,0.3,1.4-0.7,0.6-1.1
			c-1.5-0.7-2.8-1.4-3.1-3.2c-0.5-2.2,0.7-5.2,2.9-5.9C212.7,122.1,212.4,120.9,211.6,121.2L211.6,121.2z"/>
	</g>
</g>
<g id="XMLID_710_">
	<g id="XMLID_1257_">
		<path id="XMLID_1261_" class="st0" d="M218.7,122.3c3.9,1.6,3.8,7.8,0,9.4c-0.7,0.3-0.4,1.5,0.3,1.2c2.5-1,3.7-3,3.8-5.7
			c0-2.4-1.2-5-3.5-6C218.6,120.9,217.9,121.9,218.7,122.3L218.7,122.3z"/>
	</g>
</g>
<g id="XMLID_709_">
	<g id="XMLID_1248_">
		<path id="XMLID_1255_" class="st0" d="M212.8,124.5c0.7-0.2,1.4,1.8,1.6,2.3c0.4,0.8,0.9,1.5,1.3,2.2c0.7,1.1,1.5,2,3,1.7
			c0.8-0.2,0.5-1.4-0.3-1.2c-1.4,0.3-2.9-3.4-3.4-4.4c-0.5-1.1-1.2-2.1-2.5-1.8C211.7,123.4,212,124.6,212.8,124.5L212.8,124.5z"/>
	</g>
</g>
<g id="XMLID_708_">
	<g id="XMLID_1241_">
		<path id="XMLID_1246_" class="st0" d="M213,130.5c1.6-2.2,3.3-4.3,5.2-6.4c0.5-0.6-0.3-1.5-0.9-0.9c-1.9,2.1-3.7,4.3-5.4,6.6
			C211.4,130.6,212.5,131.2,213,130.5L213,130.5z"/>
	</g>
</g>
<g id="XMLID_707_">
	<g id="XMLID_1234_">
		<path id="XMLID_1239_" class="st0" d="M230.4,126.1c1.6,0.1,3.2,0,4.8-0.1c0.8-0.1,0.8-1.3,0-1.3c-1.6,0.2-3.2,0.2-4.8,0.1
			C229.6,124.8,229.6,126,230.4,126.1L230.4,126.1z"/>
	</g>
</g>
<g id="XMLID_706_">
	<g id="XMLID_1227_">
		<path id="XMLID_1231_" class="st0" d="M230.2,129.1c1.9,0,3.8,0,5.6-0.1c0.8,0,0.8-1.3,0-1.3c-1.9,0.1-3.8,0.1-5.6,0.1
			C229.4,127.9,229.4,129.1,230.2,129.1L230.2,129.1z"/>
	</g>
</g>
<g id="XMLID_594_">
	<g id="XMLID_1220_">
		<path id="XMLID_1224_" class="st0" d="M208.3,117.3c-7.7-2.7-5.1,11.5-6.9,14.6c-0.5,0.8,0.8,1.6,1.3,0.8
			c1.6-2.8-0.2-15.7,5.2-13.9C208.8,119.1,209.2,117.6,208.3,117.3L208.3,117.3z"/>
	</g>
</g>
<g id="XMLID_715_">
	<g id="XMLID_1212_">
		<path id="XMLID_1216_" class="st0" d="M246.9,94.2c-4-0.4-3.8,8.9,0.8,8.1c1.9-0.3,2.1-3.4,2-4.8c-0.2-2.5-1.4-3.7-3.9-3.3
			c-0.8,0.1-0.5,1.3,0.3,1.2c1-0.1,1.6-0.2,2.1,1c0.2,0.4,0.2,1.2,0.2,1.7c0,1-0.1,2.3-1.1,2.7c-2.7,1.1-2.6-5.5-0.6-5.3
			C247.7,95.6,247.7,94.3,246.9,94.2L246.9,94.2z"/>
	</g>
</g>
<g id="XMLID_717_">
	<g id="XMLID_1207_">
		<path id="XMLID_1217_" class="st0" d="M245.3,125.3c0.9-0.6,1.9-1.3,2.8-1.9c-0.3-0.2-0.6-0.5-0.9-0.7c-0.4,2.4-0.6,4.9-0.6,7.4
			c0,0.8,1.3,0.8,1.3,0c-0.1-2.4,0.1-4.7,0.5-7.1c0.1-0.5-0.4-1-0.9-0.7c-0.9,0.6-1.9,1.3-2.8,1.9
			C244,124.7,244.6,125.8,245.3,125.3L245.3,125.3z"/>
	</g>
</g>
<g id="XMLID_718_">
	<g id="XMLID_1178_">
		<path id="XMLID_1182_" class="st0" d="M244.4,130.8c1.7,0,3.3-0.1,5-0.1c0.8,0,0.8-1.3,0-1.3c-1.7,0.1-3.3,0.1-5,0.1
			C243.6,129.6,243.6,130.8,244.4,130.8L244.4,130.8z"/>
	</g>
</g>
<g id="XMLID_1166_">
	<g id="XMLID_1198_">
		<path id="XMLID_1202_" class="st0" d="M151.1,93.2c-4-0.5-3.9,9.1,0.8,8.3c2-0.3,2.2-3.5,2.1-5c-0.2-2.6-1.4-3.7-4-3.4
			c-0.8,0.1-0.5,1.3,0.3,1.2c1-0.1,1.7-0.2,2.2,1c0.2,0.4,0.2,1.3,0.2,1.8c0,1-0.1,2.4-1.1,2.8c-2.8,1.1-2.8-5.7-0.6-5.5
			C151.9,94.5,151.9,93.3,151.1,93.2L151.1,93.2z"/>
	</g>
</g>
<g id="XMLID_1159_">
	<g id="XMLID_1190_">
		<path id="XMLID_1196_" class="st0" d="M149.4,125.2c1-0.7,1.9-1.3,2.9-2c-0.3-0.2-0.6-0.5-0.9-0.7c-0.5,2.5-0.7,5-0.6,7.6
			c0,0.8,1.3,0.8,1.3,0c-0.1-2.4,0.1-4.9,0.6-7.3c0.1-0.5-0.4-1-0.9-0.7c-1,0.7-1.9,1.3-2.9,2C148.1,124.5,148.8,125.6,149.4,125.2
			L149.4,125.2z"/>
	</g>
</g>
<g id="XMLID_795_">
	<g id="XMLID_1184_">
		<path id="XMLID_1188_" class="st0" d="M148.5,130.8c1.7,0,3.4-0.1,5.1-0.2c0.8,0,0.8-1.3,0-1.3c-1.7,0.1-3.4,0.1-5.1,0.2
			C147.7,129.6,147.7,130.8,148.5,130.8L148.5,130.8z"/>
	</g>
</g>
<g id="XMLID_841_">
	<g id="XMLID_1172_">
		<path id="XMLID_1176_" class="st0" d="M90.3,33.9c-0.2,3.5-0.3,7.1-0.2,10.6c0,0.8,1.3,0.8,1.3,0c-0.1-3.5,0-7.1,0.2-10.6
			C91.6,33.1,90.3,33.1,90.3,33.9L90.3,33.9z"/>
	</g>
</g>
<g id="XMLID_842_">
	<g id="XMLID_1169_">
		<path id="XMLID_1204_" class="st0" d="M99.6,40.2c-1.1-1.8-2.9-3-4.9-1.7c-1.6,1-2,4.1-1,5.6c1.1,1.5,3.9,1.7,5.2,0.4
			c0.8-0.7,0.9-1.8,0.9-2.8c0.1-1.9,0-3.8-0.1-5.7c0-0.8-1.2-0.8-1.3,0c-0.1,1.4,0.2,2.7,0.2,4.1c0,1.5-0.1,2.9-0.2,4.4
			c-0.1,0.8,1.2,0.8,1.3,0c0.1-1.5,0.2-2.9,0.2-4.4c0-1.4-0.2-2.7-0.2-4.1c-0.4,0-0.8,0-1.3,0c0.1,2,1.1,7.7-1.6,8
			c-1.9,0.2-2.6-1.3-2.3-3c0.5-2.6,2.9-2.2,4-0.3C98.9,41.5,100,40.9,99.6,40.2L99.6,40.2z"/>
	</g>
</g>
<g id="XMLID_843_">
	<g id="XMLID_1160_">
		<path id="XMLID_1167_" class="st0" d="M101.5,42.3c1.5,0,3.3,0.3,4.8,0c1-0.2,1-1,0.8-1.9c-0.1-1-0.6-2.1-1.6-2.5
			c-0.9-0.4-2.2-0.4-3,0.2c-1.8,1.3-2.3,4.2-0.8,5.9c1.5,1.8,4.3,2.1,5.4-0.3c0.3-0.7-0.8-1.4-1.1-0.6c-1.2,2.6-4.4,0.1-3.8-2.1
			c0.3-0.9,0.9-2.1,2-2c1.2,0,2,1.4,1.7,2.5c0.1-0.1,0.3-0.3,0.4-0.4c-0.7,0.2-1.7,0-2.5,0c-0.8,0-1.6,0-2.3,0
			C100.7,41.1,100.7,42.3,101.5,42.3L101.5,42.3z"/>
	</g>
</g>
<g id="XMLID_844_">
	<g id="XMLID_1152_">
		<path id="XMLID_1157_" class="st0" d="M109,38.6c0,2,0,4,0,6c0.4,0,0.8,0,1.3,0c0-0.9,0-1.8,0-2.7c0-1.2,0-2.6,1.7-2.5
			c1.9,0.1,1.6,3.7,1.5,5.1c0,0.8,1.2,0.8,1.3,0c0.1-1.5,0.1-3-0.4-4.5c-0.4-1.4-1-2-2.5-1.9c-1,0.1-2.4,0.5-2.8,1.5
			c-0.2,0.6-0.1,1.4-0.1,2c0,1,0,1.9,0,2.9c0,0.8,1.2,0.8,1.3,0c0-2,0-4,0-6C110.3,37.8,109,37.8,109,38.6L109,38.6z"/>
	</g>
</g>
<g id="XMLID_845_">
	<g id="XMLID_1143_">
		<path id="XMLID_1150_" class="st0" d="M116.7,36.3c-0.1,1.7-0.3,3.4-0.3,5.2c0,1-0.2,2.5,0.3,3.3c0.7,1.1,2.7,0.9,3-0.4
			c0.2-0.8-1-1.1-1.2-0.3c-0.6-0.1-0.9-0.5-0.8-1c0-0.3,0-0.6,0-1c0-0.6,0-1.3,0-1.9c0.1-1.3,0.2-2.6,0.2-3.9
			C118,35.5,116.8,35.5,116.7,36.3L116.7,36.3z"/>
	</g>
</g>
<g id="XMLID_846_">
	<g id="XMLID_1134_">
		<path id="XMLID_1140_" class="st0" d="M115.7,39.3c1.1,0,2.2,0.1,3.3,0.1c0.8,0,0.8-1.2,0-1.3c-1.1,0-2.2-0.1-3.3-0.1
			C114.9,38.1,114.9,39.3,115.7,39.3L115.7,39.3z"/>
	</g>
</g>
<g id="XMLID_848_">
	<g id="XMLID_1127_">
		<path id="XMLID_1131_" class="st0" d="M120.6,38.5c0.1,2.1,0,4.2-0.2,6.3c-0.1,0.8,1.2,0.8,1.3,0c0.2-2.1,0.2-4.2,0.2-6.3
			C121.8,37.7,120.6,37.7,120.6,38.5L120.6,38.5z"/>
	</g>
</g>
<g id="XMLID_850_">
	<g id="XMLID_1120_">
		<path id="XMLID_1124_" class="st0" d="M121.9,36.7C121.9,36.6,121.9,36.6,121.9,36.7c0-0.9-1.3-0.9-1.3-0.1c0,0,0,0.1,0,0.1
			C120.6,37.5,121.9,37.5,121.9,36.7L121.9,36.7z"/>
	</g>
</g>
<g id="XMLID_857_">
	<g id="XMLID_1113_">
		<path id="XMLID_1117_" class="st0" d="M123.7,36.3c-0.1,1.7-0.3,3.4-0.3,5.1c0,1-0.1,2.5,0.5,3.4c0.9,1.4,2.8,0.7,3.2-0.6
			c0.3-0.8-0.9-1.1-1.2-0.3c-0.8,0.3-1.2,0-1.1-0.7c-0.1-0.4-0.1-0.8-0.1-1.2c0-0.6,0-1.3,0-1.9c0.1-1.3,0.2-2.5,0.2-3.8
			C125,35.5,123.8,35.5,123.7,36.3L123.7,36.3z"/>
	</g>
</g>
<g id="XMLID_864_">
	<g id="XMLID_1106_">
		<path id="XMLID_1110_" class="st0" d="M123.2,39.4c0.8,0,1.7,0,2.5,0c0.8,0,0.8-1.3,0-1.3c-0.8,0-1.7,0-2.5,0
			C122.3,38.2,122.3,39.4,123.2,39.4L123.2,39.4z"/>
	</g>
</g>
<g id="XMLID_871_">
	<g id="XMLID_1099_">
		<path id="XMLID_1103_" class="st0" d="M127.1,38.8c0.8,2,1.3,4.3,2.4,6.2c0.2,0.4,0.9,0.4,1.1,0c0.9-1.9,1.6-3.9,2.3-5.9
			c-0.4-0.1-0.8-0.2-1.2-0.3c-0.4,1.5-1,2.8-1.7,4.2c-0.4,0.8-1.4,4.4-2.6,3.6c-0.7-0.5-1.3,0.6-0.6,1.1c1.4,1,2.6-0.1,3.2-1.4
			c1-2.3,2.2-4.7,2.8-7.1c0.2-0.8-1-1.1-1.2-0.3c-0.6,1.9-1.3,3.7-2.2,5.6c0.4,0,0.7,0,1.1,0c-1-1.8-1.6-4-2.3-5.9
			C128,37.7,126.8,38,127.1,38.8L127.1,38.8z"/>
	</g>
</g>
<g id="XMLID_849_">
	<g id="XMLID_1093_">
		<path id="XMLID_1098_" class="st0" d="M91.3,73.1c0-1.5,0.2-2.9,0.1-4.4c-0.1-1.5-0.2-2.9-0.1-4.4c-0.4,0.1-0.8,0.2-1.2,0.3
			c0.9,1.5,2.1,2.5,3.1,3.9c1.1,1.6,2,3.3,2.9,5.1c0.2,0.5,1,0.4,1.1-0.1c0.7-3,0-6.1,0.4-9.2c0.1-0.8-1.1-0.8-1.3,0
			c-0.4,2.9,0.3,5.9-0.4,8.8c0.4,0,0.8-0.1,1.1-0.1c-0.9-1.7-1.8-3.5-2.9-5.1c-0.9-1.4-2.2-2.5-3.1-3.9c-0.3-0.6-1.1-0.3-1.2,0.3
			c-0.1,1.5,0,2.9,0.1,4.4c0.1,1.5-0.1,2.9-0.1,4.4C90.1,73.9,91.3,73.9,91.3,73.1L91.3,73.1z"/>
	</g>
</g>
<g id="XMLID_851_">
	<g id="XMLID_1086_">
		<path id="XMLID_1091_" class="st0" d="M99.6,70.6c1,0.1,2.1,0.2,3.1,0.2c0.7,0,1.7,0.1,2.4-0.1c1-0.3,0.9-1.6,0.7-2.5
			c-0.5-2.2-3.9-2.8-5.6-1.5c-0.9,0.7-1.2,1.8-1.2,2.9c0,1.1,0.1,2.6,1,3.4c1.6,1.5,5,1.3,5.8-0.9c0.3-0.8-0.9-1.1-1.2-0.3
			c-0.6,1.7-3.6,1-4.1-0.4c-0.5-1.4-0.3-3.6,1.3-4c0.5-0.1,1.2-0.1,1.8,0.1c0.8,0.2,1.8,1.6,0.8,2.1c-0.5,0.2-1.5,0-2.1,0
			c-0.9,0-1.7-0.1-2.6-0.2C98.8,69.3,98.8,70.5,99.6,70.6L99.6,70.6z"/>
	</g>
</g>
<g id="XMLID_858_">
	<g id="XMLID_1080_">
		<path id="XMLID_1084_" class="st0" d="M112.5,69c-0.8-1.7-2.4-3.2-4.3-2.1c-1.7,0.9-2,3.4-1.3,5c0.7,1.5,2.5,2.5,4.1,1.7
			c2-1.1,2.1-4.4,1.9-6.3c-0.1-0.8-1.2-0.8-1.3,0c-0.1,1.5-0.2,3-0.1,4.5c0,0.7,0.2,1.8-0.1,2.5c-0.8,2-2.9,1.1-3.7-0.2
			c-0.4-0.7-1.5-0.1-1.1,0.6c1,1.8,3.6,2.9,5.3,1.2c0.8-0.8,0.8-2.2,0.8-3.2c0-1.8,0-3.6,0.1-5.4c-0.4,0-0.8,0-1.3,0
			c0.1,1.4-0.3,7.4-3.1,4.9c-0.9-0.8-0.9-2.5-0.4-3.5c1-1.7,2.7-0.2,3.3,1C111.8,70.4,112.9,69.8,112.5,69L112.5,69z"/>
	</g>
</g>
<g id="XMLID_859_">
	<g id="XMLID_1074_">
		<path id="XMLID_1078_" class="st0" d="M116,68.7c0-0.9,1.5-1.2,2.2-1c0.9,0.3,0.8,1.7,0.6,2.4c-0.1,0.9-0.3,1.8-1.3,2.2
			c-0.7,0.2-2.4,0.4-1.9-0.9c0.3-0.9,1.7-0.7,2.4-0.7c0.5,0,0.5-0.1,0.7,0.5c0.1,0.2,0,0.5,0.1,0.7c0.1,0.8,0.5,1.4,1.3,1.7
			c0.8,0.3,1.1-0.9,0.3-1.2c-0.6-0.2-0.4-1.6-0.6-2.1c-0.2-0.4-0.4-0.7-0.9-0.8c-1-0.2-2.8-0.1-3.7,0.5c-0.9,0.7-1.1,2-0.6,2.9
			c0.6,1.1,1.8,1,2.8,0.7c1.4-0.3,2.1-1,2.4-2.4c0.3-1.2,0.5-2.9-0.2-4c-0.6-0.9-1.8-0.9-2.8-0.8c-1.2,0.2-2.2,0.9-2.2,2.2
			C114.7,69.5,116,69.5,116,68.7L116,68.7z"/>
	</g>
</g>
<g id="XMLID_860_">
	<g id="XMLID_1066_">
		<path id="XMLID_1070_" class="st0" d="M122.4,65.1c-0.2,1.5-0.3,3-0.3,4.5c0,1-0.2,2.7,0.3,3.7c0.5,1,2,1.1,2.7,0.3
			c0.5-0.6-0.6-1.3-1.1-0.6c-0.4,0.5-0.6-2.1-0.6-2.1c0-0.6,0-1.3,0-1.9c0-1.3,0.1-2.6,0.3-3.9C123.8,64.3,122.5,64.3,122.4,65.1
			L122.4,65.1z"/>
	</g>
</g>
<g id="XMLID_872_">
	<g id="XMLID_1060_">
		<path id="XMLID_1064_" class="st0" d="M120.9,67.7c0.6,0.3,1.1,0.3,1.8,0.3c0.6,0,1.3,0.1,1.9-0.1c0.8-0.2,0.5-1.4-0.3-1.2
			c-0.4,0.1-0.9,0-1.3,0c-0.4,0-1,0.1-1.4-0.1C120.9,66.2,120.2,67.3,120.9,67.7L120.9,67.7z"/>
	</g>
</g>
<g id="XMLID_874_">
	<g id="XMLID_1054_">
		<path id="XMLID_1058_" class="st0" d="M126,64.4c0,0.2,0,0.3,0,0.5c0,0.8,1.3,0.8,1.3,0c0-0.2,0-0.3,0-0.5
			C127.4,63.6,126.1,63.6,126,64.4L126,64.4z"/>
	</g>
</g>
<g id="XMLID_933_">
	<g id="XMLID_1048_">
		<path id="XMLID_1052_" class="st0" d="M126.1,67.2c0.2,1.9,0.3,3.9,0.3,5.8c0,0.8,1.3,0.8,1.3,0c0-1.9-0.1-3.9-0.3-5.8
			C127.2,66.4,126,66.4,126.1,67.2L126.1,67.2z"/>
	</g>
</g>
<g id="XMLID_940_">
	<g id="XMLID_1042_">
		<path id="XMLID_1046_" class="st0" d="M133.4,66.9c-1.2-1.4-3.7-0.1-4.5,1.2c-1,1.8-0.3,4.1,1.4,5.2c1.8,1,4,0.4,4.4-1.7
			c0.3-1.8,0.4-4.8-2-5.2c-0.8-0.1-1.1,1.1-0.3,1.2c1.4,0.2,1.3,1.7,1.2,2.8c-0.1,0.7-0.1,1.5-0.7,1.9c-0.6,0.4-1.3,0.2-1.8-0.1
			c-1-0.6-1.6-1.8-1.2-2.9c0.2-0.7,1.9-2.5,2.7-1.5C133.1,68.4,133.9,67.5,133.4,66.9L133.4,66.9z"/>
	</g>
</g>
<g id="XMLID_947_">
	<g id="XMLID_1036_">
		<path id="XMLID_1040_" class="st0" d="M136.4,66.9c-0.2,2.1,0.3,4.2,0.1,6.2c0.4-0.1,0.8-0.1,1.2-0.2c-0.2-1,0-2.1,0.1-3.1
			c0-0.7-0.1-1.4,0.6-1.9c0.3-0.2,1-0.4,1.5-0.3c1.2,0.2,1,1.8,1,2.8c0,0.9,0,1.9,0,2.8c0,0.8,1.2,0.8,1.3,0
			c0.1-1.7,0.2-3.5-0.1-5.1c-0.3-1.4-1.3-1.8-2.7-1.6c-1.1,0.1-2.2,0.7-2.6,1.9c-0.2,0.7-0.2,1.5-0.2,2.3c-0.1,0.9-0.1,1.8,0,2.7
			c0.2,0.7,1.2,0.5,1.2-0.2c0.2-2.1-0.2-4.2-0.1-6.2C137.7,66.1,136.4,66.1,136.4,66.9L136.4,66.9z"/>
	</g>
</g>
<g id="XMLID_954_">
	<g id="XMLID_1030_">
		<path id="XMLID_1034_" class="st0" d="M97.6,94.6c-0.6-1.7-2.9-2.7-4.6-2.3c-2.2,0.5-3.1,3.3-3.1,5.2c-0.1,4.4,5.3,6,7.8,2.5
			c0.5-0.6-0.6-1.3-1.1-0.6c-1.7,2.2-5.2,1.4-5.4-1.5c-0.1-1.1,0.3-2.3,0.8-3.3c0.9-1.5,3.8-1.8,4.5,0.2
			C96.6,95.7,97.8,95.3,97.6,94.6L97.6,94.6z"/>
	</g>
</g>
<g id="XMLID_961_">
	<g id="XMLID_1023_">
		<path id="XMLID_1028_" class="st0" d="M103.6,95.1c-1.4-1.1-3.5,0-4.1,1.4c-0.8,1.7-0.8,4.2,1.1,5.1c0.8,0.4,1.7,0.5,2.6,0.4
			c1-0.2,1.5-1,1.9-1.9c0.8-1.9,0.6-3.8-1.2-5c-0.7-0.4-1.3,0.6-0.6,1.1c2.2,1.4,0.8,5.4-1.9,4.3c-2.3-1-0.3-5.9,1.7-4.3
			C103.6,96.7,104.2,95.6,103.6,95.1L103.6,95.1z"/>
	</g>
</g>
<g id="XMLID_968_">
	<g id="XMLID_1016_">
		<path id="XMLID_1021_" class="st0" d="M106.7,95.4c0.1,2,0.1,4,0.1,6c0.4,0,0.8,0,1.3,0c0-1.5-0.4-5,1.6-5.4
			c1.9-0.4,1.5,4.3,1.5,5.5c0,0.8,1.2,0.8,1.3,0c0-2,0.6-6.9-2.6-6.8c-3.2,0.1-3,4.5-3,6.7c0,0.8,1.2,0.8,1.3,0c0.1-2,0-4-0.1-6
			C107.9,94.6,106.7,94.6,106.7,95.4L106.7,95.4z"/>
	</g>
</g>
<g id="XMLID_975_">
	<g id="XMLID_1009_">
		<path id="XMLID_1014_" class="st0" d="M119.1,96.7c-0.1-2.3-4-2.6-5-0.8c-0.5,0.9,0,1.7,0.8,2.2c0.7,0.4,1.5,0.7,2.1,1.2
			c2.2,1.7-1.7,2.3-1.8,0.9c-0.1-0.8-1.3-0.8-1.3,0c0.2,2.2,3.6,2.8,4.8,1.2c0.7-0.9,0.2-2-0.6-2.7c-0.5-0.4-1.2-0.8-1.8-1.1
			c-0.6-0.3-1-0.3-0.7-1c0-0.5,0.3-0.7,0.9-0.5c0.6-0.1,1,0.2,1.3,0.7C117.9,97.5,119.1,97.5,119.1,96.7L119.1,96.7z"/>
	</g>
</g>
<g id="XMLID_982_">
	<g id="XMLID_1002_">
		<path id="XMLID_1007_" class="st0" d="M121,93.6c-0.2,2.1-0.4,4.3-0.2,6.4c0.1,1.1,0.6,1.9,1.8,1.9c0.8,0,0.8-1.2,0-1.3
			c-1.1-0.1-0.4-6.3-0.3-7.1C122.3,92.8,121.1,92.8,121,93.6L121,93.6z"/>
	</g>
</g>
<g id="XMLID_989_">
	<g id="XMLID_995_">
		<path id="XMLID_1000_" class="st0" d="M120.7,96c0.7-0.1,1.4-0.1,2.1,0c0.3,0,0.6-0.3,0.6-0.6c0-0.4-0.3-0.6-0.6-0.6
			c-0.7-0.1-1.4-0.1-2.1,0C119.9,94.8,119.9,96.1,120.7,96L120.7,96z"/>
	</g>
</g>
<g id="XMLID_996_">
	<g id="XMLID_988_">
		<path id="XMLID_993_" class="st0" d="M125.6,97.2c0.3-0.5,0.8-0.9,1.4-1c0.4-0.1,0.8,0,1.2,0.3c0.3,0.3,0.4,0.6,0.4,1
			c0,0.1-2.1,0.2-2.4,0.3c-1.1,0.4-2.3,1.5-1.9,2.9c0.4,1.4,2.5,1.5,3.6,1.2c1.6-0.4,1.6-2.2,1.9-3.6c-0.4-0.1-0.8-0.1-1.2-0.2
			c0,1.2-0.5,4.2,1.5,4c0.8-0.1,0.8-1.3,0-1.3c-0.5,0.1-0.3-2.5-0.3-2.7c0-0.7-1.1-0.9-1.2-0.2c-0.1,0.7-0.1,2.4-1,2.7
			c-0.5,0.2-1.9,0.2-2.1-0.5c-0.1-0.5,0.7-1,1.1-1.2c1.1-0.4,3.3,0.3,3.3-1.5c0-3.1-4-3.2-5.3-0.9C124.2,97.3,125.3,97.9,125.6,97.2
			L125.6,97.2z"/>
	</g>
</g>
<g id="XMLID_1003_">
	<g id="XMLID_981_">
		<path id="XMLID_986_" class="st0" d="M131.9,95.5c0.3,1.9,0.3,3.8,0.2,5.6c0.4,0,0.8,0,1.3,0c-0.1-1.4-0.4-4.3,1.2-4.9
			c1.3-0.4,1.4,1.3,1.5,2.1c0.1,0.9,0.2,1.8,0.2,2.7c0,0.8,1.3,0.8,1.3,0c-0.1-1.8,0.2-6.5-2.8-6.3c-2.9,0.2-2.8,4.3-2.6,6.3
			c0.1,0.8,1.2,0.8,1.3,0c0.1-2,0-4-0.2-6C133,94.4,131.8,94.8,131.9,95.5L131.9,95.5z"/>
	</g>
</g>
<g id="XMLID_1010_">
	<g id="XMLID_974_">
		<path id="XMLID_979_" class="st0" d="M139.5,93.7c0,2.2-0.2,4.5,0,6.6c0.1,0.9,0.7,1.8,1.7,1.4c0.7-0.3,0.4-1.5-0.3-1.2
			c0,0-0.1-3-0.1-3.3c0-1.2,0-2.3,0-3.5C140.8,92.9,139.5,92.9,139.5,93.7L139.5,93.7z"/>
	</g>
</g>
<g id="XMLID_1017_">
	<g id="XMLID_967_">
		<path id="XMLID_972_" class="st0" d="M138.7,96c0.9,0,1.8,0,2.7,0.1c0.8,0.1,1.1-1.1,0.3-1.2c-1-0.1-2-0.2-3-0.1
			C137.9,94.8,137.9,96.1,138.7,96L138.7,96z"/>
	</g>
</g>
<g id="XMLID_1024_">
	<g id="XMLID_960_">
		<path id="XMLID_965_" class="st0" d="M143,99.1c0.9-0.1,1.8-0.4,2.7,0c0.7,0.3,1.1-0.9,0.3-1.2c-1-0.4-2-0.2-3,0
			C142.2,98,142.2,99.2,143,99.1L143,99.1z"/>
	</g>
</g>
<g id="XMLID_1146_">
	<g id="XMLID_953_">
		<path id="XMLID_958_" class="st0" d="M97.6,122.9c-0.6-1.7-2.9-2.7-4.6-2.3c-2.2,0.5-3.1,3.3-3.1,5.2c-0.1,4.4,5.3,6,7.8,2.5
			c0.5-0.6-0.6-1.3-1.1-0.6c-1.7,2.2-5.2,1.4-5.4-1.5c-0.1-1.1,0.3-2.3,0.8-3.3c0.9-1.5,3.8-1.8,4.5,0.2
			C96.6,124,97.8,123.6,97.6,122.9L97.6,122.9z"/>
	</g>
</g>
<g id="XMLID_1139_">
	<g id="XMLID_946_">
		<path id="XMLID_951_" class="st0" d="M103.6,123.4c-1.4-1.1-3.5,0-4.1,1.4c-0.8,1.7-0.8,4.2,1.1,5.1c0.8,0.4,1.7,0.5,2.6,0.4
			c1-0.2,1.5-1,1.9-1.9c0.8-1.9,0.6-3.8-1.2-5c-0.7-0.4-1.3,0.6-0.6,1.1c2.2,1.4,0.8,5.4-1.9,4.3c-2.3-1-0.3-5.9,1.7-4.3
			C103.6,125,104.2,123.9,103.6,123.4L103.6,123.4z"/>
	</g>
</g>
<g id="XMLID_1132_">
	<g id="XMLID_939_">
		<path id="XMLID_944_" class="st0" d="M106.7,123.7c0.1,2,0.1,4,0.1,6c0.4,0,0.8,0,1.3,0c0-1.5-0.4-5,1.6-5.4
			c1.9-0.4,1.5,4.3,1.5,5.5c0,0.8,1.2,0.8,1.3,0c0-2,0.6-6.9-2.6-6.8c-3.2,0.1-3,4.5-3,6.7c0,0.8,1.2,0.8,1.3,0c0.1-2,0-4-0.1-6
			C107.9,122.9,106.7,122.9,106.7,123.7L106.7,123.7z"/>
	</g>
</g>
<g id="XMLID_1125_">
	<g id="XMLID_930_">
		<path id="XMLID_935_" class="st0" d="M119.1,125c-0.1-2.3-4-2.6-5-0.8c-0.5,0.9,0,1.7,0.8,2.2c0.7,0.4,1.5,0.7,2.1,1.2
			c2.2,1.7-1.7,2.3-1.8,0.9c-0.1-0.8-1.3-0.8-1.3,0c0.2,2.2,3.6,2.8,4.8,1.2c0.7-0.9,0.2-2-0.6-2.7c-0.5-0.4-1.2-0.8-1.8-1.1
			c-0.6-0.3-1-0.3-0.7-1c0-0.5,0.3-0.7,0.9-0.5c0.6-0.1,1,0.2,1.3,0.7C117.9,125.8,119.1,125.8,119.1,125L119.1,125z"/>
	</g>
</g>
<g id="XMLID_1118_">
	<g id="XMLID_924_">
		<path id="XMLID_928_" class="st0" d="M121,121.9c-0.2,2.1-0.4,4.3-0.2,6.4c0.1,1.1,0.6,1.9,1.8,1.9c0.8,0,0.8-1.2,0-1.3
			c-1.1-0.1-0.4-6.3-0.3-7.1C122.3,121.1,121.1,121.1,121,121.9L121,121.9z"/>
	</g>
</g>
<g id="XMLID_1111_">
	<g id="XMLID_918_">
		<path id="XMLID_922_" class="st0" d="M120.7,124.3c0.7-0.1,1.4-0.1,2.1,0c0.3,0,0.6-0.3,0.6-0.6c0-0.4-0.3-0.6-0.6-0.6
			c-0.7-0.1-1.4-0.1-2.1,0C119.9,123.1,119.9,124.4,120.7,124.3L120.7,124.3z"/>
	</g>
</g>
<g id="XMLID_1104_">
	<g id="XMLID_912_">
		<path id="XMLID_916_" class="st0" d="M125.6,125.5c0.3-0.5,0.8-0.9,1.4-1c0.4-0.1,0.8,0,1.2,0.3c0.3,0.3,0.4,0.6,0.4,1
			c0,0.1-2.1,0.2-2.4,0.3c-1.1,0.4-2.3,1.5-1.9,2.9c0.4,1.4,2.5,1.5,3.6,1.2c1.6-0.4,1.6-2.2,1.9-3.6c-0.4-0.1-0.8-0.1-1.2-0.2
			c0,1.2-0.5,4.2,1.5,4c0.8-0.1,0.8-1.3,0-1.3c-0.5,0.1-0.3-2.5-0.3-2.7c0-0.7-1.1-0.9-1.2-0.2c-0.1,0.7-0.1,2.4-1,2.7
			c-0.5,0.2-1.9,0.2-2.1-0.5c-0.1-0.5,0.7-1,1.1-1.2c1.1-0.4,3.3,0.3,3.3-1.5c0-3.1-4-3.2-5.3-0.9
			C124.2,125.6,125.3,126.2,125.6,125.5L125.6,125.5z"/>
	</g>
</g>
<g id="XMLID_1097_">
	<g id="XMLID_906_">
		<path id="XMLID_910_" class="st0" d="M131.9,123.8c0.3,1.9,0.3,3.8,0.2,5.6c0.4,0,0.8,0,1.3,0c-0.1-1.4-0.4-4.3,1.2-4.9
			c1.3-0.4,1.4,1.3,1.5,2.1c0.1,0.9,0.2,1.8,0.2,2.7c0,0.8,1.3,0.8,1.3,0c-0.1-1.8,0.2-6.5-2.8-6.3c-2.9,0.2-2.8,4.3-2.6,6.3
			c0.1,0.8,1.2,0.8,1.3,0c0.1-2,0-4-0.2-6C133,122.7,131.8,123,131.9,123.8L131.9,123.8z"/>
	</g>
</g>
<g id="XMLID_1090_">
	<g id="XMLID_900_">
		<path id="XMLID_904_" class="st0" d="M139.5,122c0,2.2-0.2,4.5,0,6.6c0.1,0.9,0.7,1.8,1.7,1.4c0.7-0.3,0.4-1.5-0.3-1.2
			c0,0-0.1-3-0.1-3.3c0-1.2,0-2.3,0-3.5C140.8,121.2,139.5,121.2,139.5,122L139.5,122z"/>
	</g>
</g>
<g id="XMLID_1073_">
	<g id="XMLID_894_">
		<path id="XMLID_898_" class="st0" d="M138.7,124.3c0.9,0,1.8,0,2.7,0.1c0.8,0.1,1.1-1.1,0.3-1.2c-1-0.1-2-0.2-3-0.1
			C137.9,123.1,137.9,124.3,138.7,124.3L138.7,124.3z"/>
	</g>
</g>
<g id="XMLID_839_">
	<g id="XMLID_888_">
		<path id="XMLID_892_" class="st0" d="M143,127.4c0.9-0.1,1.8-0.4,2.7,0c0.7,0.3,1.1-0.9,0.3-1.2c-1-0.4-2-0.2-3,0
			C142.2,126.3,142.2,127.5,143,127.4L143,127.4z"/>
	</g>
</g>
<g id="XMLID_938_">
	<g id="XMLID_883_">
		<path id="XMLID_887_" class="st0" d="M317,37.5c-4-0.4-3.8,8.9,0.8,8.1c1.9-0.3,2.1-3.4,2-4.8c-0.2-2.5-1.4-3.7-3.9-3.3
			c-0.8,0.1-0.5,1.3,0.3,1.2c1-0.1,1.6-0.2,2.1,1c0.2,0.4,0.2,1.2,0.2,1.7c0,1-0.1,2.3-1.1,2.7c-2.7,1.1-2.6-5.5-0.6-5.3
			C317.8,38.9,317.8,37.6,317,37.5L317,37.5z"/>
	</g>
</g>
<g id="XMLID_2037_">
	<g id="XMLID_876_">
		<path id="XMLID_880_" class="st0" d="M365.4,9.8c-4.4-0.5-4.2,9.8,0.9,8.9c2.1-0.4,2.4-3.7,2.3-5.4c-0.2-2.8-1.5-4-4.3-3.7
			c-0.9,0.1-0.5,1.5,0.4,1.3c1.1-0.1,1.8-0.2,2.3,1.1c0.2,0.5,0.2,1.4,0.2,1.9c0,1.1-0.1,2.6-1.2,3c-3,1.2-2.9-6.1-0.6-5.9
			C366.3,11.3,366.3,9.9,365.4,9.8L365.4,9.8z"/>
	</g>
</g>
<g id="XMLID_937_">
	<g id="XMLID_1243_">
		<g id="XMLID_869_">
			<path id="XMLID_881_" class="st0" d="M471.3,40.3c0.9-0.6,1.9-1.3,2.8-1.9c-0.3-0.2-0.6-0.5-0.9-0.7c-0.4,2.4-0.6,4.9-0.6,7.4
				c0,0.8,1.3,0.8,1.3,0c-0.1-2.4,0.1-4.7,0.5-7.1c0.1-0.5-0.4-1-0.9-0.7c-0.9,0.6-1.9,1.3-2.8,1.9C470,39.7,470.7,40.7,471.3,40.3
				L471.3,40.3z"/>
		</g>
	</g>
	<g id="XMLID_1236_">
		<g id="XMLID_854_">
			<path id="XMLID_865_" class="st0" d="M470.5,45.8c1.7,0,3.3-0.1,5-0.1c0.8,0,0.8-1.3,0-1.3c-1.7,0.1-3.3,0.1-5,0.1
				C469.7,44.5,469.7,45.8,470.5,45.8L470.5,45.8z"/>
		</g>
	</g>
</g>
<g id="XMLID_2044_">
	<g id="XMLID_2052_">
		<g id="XMLID_835_">
			<path id="XMLID_840_" class="st0" d="M477.8,12.8c1-0.7,2.1-1.4,3.1-2.1c-0.3-0.3-0.7-0.5-1-0.8c-0.5,2.7-0.7,5.4-0.6,8.2
				c0,0.9,1.4,0.9,1.4,0c-0.1-2.6,0.1-5.2,0.6-7.8c0.1-0.5-0.5-1.2-1-0.8c-1,0.7-2.1,1.4-3.1,2.1C476.4,12.2,477.1,13.3,477.8,12.8
				L477.8,12.8z"/>
		</g>
	</g>
	<g id="XMLID_2045_">
		<g id="XMLID_829_">
			<path id="XMLID_833_" class="st0" d="M476.8,18.9c1.8,0,3.7-0.1,5.5-0.2c0.9,0,0.9-1.4,0-1.4c-1.8,0.1-3.7,0.1-5.5,0.2
				C475.9,17.5,475.9,18.9,476.8,18.9L476.8,18.9z"/>
		</g>
	</g>
</g>
<g id="XMLID_1251_">
	<g id="XMLID_825_">
		<path id="XMLID_852_" class="st0" d="M311.9,35.6c1.8,0,3.7,0,5.5,0c0.8,0,1.7-0.1,2.5,0c1.4,0.2,1.7,0.1,1.9,1.5
			c0.3,1.5,0,3.2-0.2,4.7c-0.1,1.2,0.3,3.5-0.1,4.6c-0.7,1.6-3.6,0.9-4.9,0.9c-0.9,0-2,0.1-2.9-0.1c-1.4-0.2-1.4-0.2-1.6-1.7
			c-0.2-1.5,0.1-3.2,0.2-4.7c0-1.8,0-3.7-0.1-5.5c0-0.5-0.8-0.5-0.8,0c0.1,2.3,0.2,4.6,0.1,7c0,1.7-0.5,3.7-0.2,5.4
			c0,0.1,0.1,0.2,0.3,0.3c1.5,0.4,3.6,0.1,5.1,0.2c1.4,0,3.7,0.6,5,0.1c0.5-0.2,0.4-0.1,0.7-0.7c0.5-1.4,0-3.7,0.1-5.3
			c0.2-1.7,0.3-3.3,0.2-5c0-0.6,0.2-1.8-0.4-2.2c-0.5-0.4-2.7-0.1-3.3-0.1c-2.3,0-4.6,0-7,0C311.5,34.8,311.5,35.6,311.9,35.6
			L311.9,35.6z"/>
	</g>
</g>
<g id="XMLID_1192_">
	<g id="XMLID_819_">
		<path id="XMLID_823_" class="st0" d="M317,65.9c-4-0.4-3.8,8.9,0.8,8.1c1.9-0.3,2.1-3.4,2-4.8c-0.2-2.5-1.4-3.7-3.9-3.3
			c-0.8,0.1-0.5,1.3,0.3,1.2c1-0.1,1.6-0.2,2.1,1c0.2,0.4,0.2,1.2,0.2,1.7c0,1-0.1,2.3-1.1,2.7c-2.7,1.1-2.6-5.5-0.6-5.3
			C317.8,67.2,317.8,66,317,65.9L317,65.9z"/>
	</g>
</g>
<g id="XMLID_856_">
	<g id="XMLID_813_">
		<path id="XMLID_817_" class="st0" d="M311.9,63.9c1.8,0,3.7,0,5.5,0c0.8,0,1.7-0.1,2.5,0c1.4,0.2,1.7,0.1,1.9,1.5
			c0.3,1.5,0,3.2-0.2,4.7c-0.1,1.2,0.3,3.5-0.1,4.6c-0.7,1.6-3.6,0.9-4.9,0.9c-0.9,0-2,0.1-2.9-0.1c-1.4-0.2-1.4-0.2-1.6-1.7
			c-0.2-1.5,0.1-3.2,0.2-4.7c0-1.8,0-3.7-0.1-5.5c0-0.5-0.8-0.5-0.8,0c0.1,2.3,0.2,4.6,0.1,7c0,1.7-0.5,3.7-0.2,5.4
			c0,0.1,0.1,0.2,0.3,0.3c1.5,0.4,3.6,0.1,5.1,0.2c1.4,0,3.7,0.6,5,0.1c0.5-0.2,0.4-0.1,0.7-0.7c0.5-1.4,0-3.7,0.1-5.3
			c0.2-1.7,0.3-3.3,0.2-5c0-0.6,0.2-1.8-0.4-2.2c-0.5-0.4-2.7-0.1-3.3-0.1c-2.3,0-4.6,0-7,0C311.5,63.2,311.5,63.9,311.9,63.9
			L311.9,63.9z"/>
	</g>
</g>
<g id="XMLID_1233_">
	<g id="XMLID_806_">
		<path id="XMLID_811_" class="st0" d="M317,94.2c-4-0.4-3.8,8.9,0.8,8.1c1.9-0.3,2.1-3.4,2-4.8c-0.2-2.5-1.4-3.7-3.9-3.3
			c-0.8,0.1-0.5,1.3,0.3,1.2c1-0.1,1.6-0.2,2.1,1c0.2,0.4,0.2,1.2,0.2,1.7c0,1-0.1,2.3-1.1,2.7c-2.7,1.1-2.6-5.5-0.6-5.3
			C317.8,95.6,317.8,94.3,317,94.2L317,94.2z"/>
	</g>
</g>
<g id="XMLID_1218_">
	<g id="XMLID_1226_">
		<g id="XMLID_799_">
			<path id="XMLID_803_" class="st0" d="M471.3,125.3c0.9-0.6,1.9-1.3,2.8-1.9c-0.3-0.2-0.6-0.5-0.9-0.7c-0.4,2.4-0.6,4.9-0.6,7.4
				c0,0.8,1.3,0.8,1.3,0c-0.1-2.4,0.1-4.7,0.5-7.1c0.1-0.5-0.4-1-0.9-0.7c-0.9,0.6-1.9,1.3-2.8,1.9
				C470,124.7,470.7,125.8,471.3,125.3L471.3,125.3z"/>
		</g>
	</g>
	<g id="XMLID_1219_">
		<g id="XMLID_792_">
			<path id="XMLID_797_" class="st0" d="M470.5,130.8c1.7,0,3.3-0.1,5-0.1c0.8,0,0.8-1.3,0-1.3c-1.7,0.1-3.3,0.1-5,0.1
				C469.7,129.6,469.7,130.8,470.5,130.8L470.5,130.8z"/>
		</g>
	</g>
</g>
<g id="XMLID_1211_">
	<g id="XMLID_786_">
		<path id="XMLID_790_" class="st0" d="M311.9,92.3c1.8,0,3.7,0,5.5,0c0.8,0,1.7-0.1,2.5,0c1.4,0.2,1.7,0.1,1.9,1.5
			c0.3,1.5,0,3.2-0.2,4.7c-0.1,1.2,0.3,3.5-0.1,4.6c-0.7,1.6-3.6,0.9-4.9,0.9c-0.9,0-2,0.1-2.9-0.1c-1.4-0.2-1.4-0.2-1.6-1.7
			c-0.2-1.5,0.1-3.2,0.2-4.7c0-1.8,0-3.7-0.1-5.5c0-0.5-0.8-0.5-0.8,0c0.1,2.3,0.2,4.6,0.1,7c0,1.7-0.5,3.7-0.2,5.4
			c0,0.1,0.1,0.2,0.3,0.3c1.5,0.4,3.6,0.1,5.1,0.2c1.4,0,3.7,0.6,5,0.1c0.5-0.2,0.4-0.1,0.7-0.7c0.5-1.4,0-3.7,0.1-5.3
			c0.2-1.7,0.3-3.3,0.2-5c0-0.6,0.2-1.8-0.4-2.2c-0.5-0.4-2.7-0.1-3.3-0.1c-2.3,0-4.6,0-7,0C311.5,91.5,311.5,92.3,311.9,92.3
			L311.9,92.3z"/>
	</g>
</g>
<g id="XMLID_1303_">
	<g id="XMLID_780_">
		<path id="XMLID_784_" class="st0" d="M317,122.6c-4-0.4-3.8,8.9,0.8,8.1c1.9-0.3,2.1-3.4,2-4.8c-0.2-2.5-1.4-3.7-3.9-3.3
			c-0.8,0.1-0.5,1.3,0.3,1.2c1-0.1,1.6-0.2,2.1,1c0.2,0.4,0.2,1.2,0.2,1.7c0,1-0.1,2.3-1.1,2.7c-2.7,1.1-2.6-5.5-0.6-5.3
			C317.8,123.9,317.8,122.7,317,122.6L317,122.6z"/>
	</g>
</g>
<g id="XMLID_1281_">
	<g id="XMLID_774_">
		<path id="XMLID_778_" class="st0" d="M311.9,120.6c1.8,0,3.7,0,5.5,0c0.8,0,1.7-0.1,2.5,0c1.4,0.2,1.7,0.1,1.9,1.5
			c0.3,1.5,0,3.2-0.2,4.7c-0.1,1.2,0.3,3.5-0.1,4.6c-0.7,1.6-3.6,0.9-4.9,0.9c-0.9,0-2,0.1-2.9-0.1c-1.4-0.2-1.4-0.2-1.6-1.7
			c-0.2-1.5,0.1-3.2,0.2-4.7c0-1.8,0-3.7-0.1-5.5c0-0.5-0.8-0.5-0.8,0c0.1,2.3,0.2,4.6,0.1,7c0,1.7-0.5,3.7-0.2,5.4
			c0,0.1,0.1,0.2,0.3,0.3c1.5,0.4,3.6,0.1,5.1,0.2c1.4,0,3.7,0.6,5,0.1c0.5-0.2,0.4-0.1,0.7-0.7c0.5-1.4,0-3.7,0.1-5.3
			c0.2-1.7,0.3-3.3,0.2-5c0-0.6,0.2-1.8-0.4-2.2c-0.5-0.4-2.7-0.1-3.3-0.1c-2.3,0-4.6,0-7,0C311.5,119.9,311.5,120.6,311.9,120.6
			L311.9,120.6z"/>
	</g>
</g>
<g id="XMLID_1191_">
	<g id="XMLID_768_">
		<path id="XMLID_772_" class="st0" d="M472.9,65.9c-4-0.4-3.8,8.9,0.8,8.1c1.9-0.3,2.1-3.4,2-4.8c-0.2-2.5-1.4-3.7-3.9-3.3
			c-0.8,0.1-0.5,1.3,0.3,1.2c1-0.1,1.6-0.2,2.1,1c0.2,0.4,0.2,1.2,0.2,1.7c0,1-0.1,2.3-1.1,2.7c-2.7,1.1-2.6-5.5-0.6-5.3
			C473.7,67.2,473.7,66,472.9,65.9L472.9,65.9z"/>
	</g>
</g>
<g id="XMLID_1164_">
	<g id="XMLID_762_">
		<path id="XMLID_766_" class="st0" d="M467.9,63.9c1.8,0,3.7,0,5.5,0c0.8,0,1.7-0.1,2.5,0c1.4,0.2,1.7,0.1,1.9,1.5
			c0.3,1.5,0,3.2-0.2,4.7c-0.1,1.2,0.3,3.5-0.1,4.6c-0.7,1.6-3.6,0.9-4.9,0.9c-0.9,0-2,0.1-2.9-0.1c-1.4-0.2-1.4-0.2-1.6-1.7
			c-0.2-1.5,0.1-3.2,0.2-4.7c0-1.8,0-3.7-0.1-5.5c0-0.5-0.8-0.5-0.8,0c0.1,2.3,0.2,4.6,0.1,7c0,1.7-0.5,3.7-0.2,5.4
			c0,0.1,0.1,0.2,0.3,0.3c1.5,0.4,3.6,0.1,5.1,0.2c1.4,0,3.7,0.6,5,0.1c0.5-0.2,0.4-0.1,0.7-0.7c0.5-1.4,0-3.7,0.1-5.3
			c0.2-1.7,0.3-3.3,0.2-5c0-0.6,0.2-1.8-0.4-2.2c-0.5-0.4-2.7-0.1-3.3-0.1c-2.3,0-4.6,0-7,0C467.4,63.2,467.4,63.9,467.9,63.9
			L467.9,63.9z"/>
	</g>
</g>
<g id="XMLID_1156_">
	<g id="XMLID_756_">
		<path id="XMLID_760_" class="st0" d="M472.9,94.2c-4-0.4-3.8,8.9,0.8,8.1c1.9-0.3,2.1-3.4,2-4.8c-0.2-2.5-1.4-3.7-3.9-3.3
			c-0.8,0.1-0.5,1.3,0.3,1.2c1-0.1,1.6-0.2,2.1,1c0.2,0.4,0.2,1.2,0.2,1.7c0,1-0.1,2.3-1.1,2.7c-2.7,1.1-2.6-5.5-0.6-5.3
			C473.7,95.6,473.7,94.3,472.9,94.2L472.9,94.2z"/>
	</g>
</g>
<g id="XMLID_484_">
	<g id="XMLID_750_">
		<path id="XMLID_754_" class="st0" d="M467.9,92.3c1.8,0,3.7,0,5.5,0c0.8,0,1.7-0.1,2.5,0c1.4,0.2,1.7,0.1,1.9,1.5
			c0.3,1.5,0,3.2-0.2,4.7c-0.1,1.2,0.3,3.5-0.1,4.6c-0.7,1.6-3.6,0.9-4.9,0.9c-0.9,0-2,0.1-2.9-0.1c-1.4-0.2-1.4-0.2-1.6-1.7
			c-0.2-1.5,0.1-3.2,0.2-4.7c0-1.8,0-3.7-0.1-5.5c0-0.5-0.8-0.5-0.8,0c0.1,2.3,0.2,4.6,0.1,7c0,1.7-0.5,3.7-0.2,5.4
			c0,0.1,0.1,0.2,0.3,0.3c1.5,0.4,3.6,0.1,5.1,0.2c1.4,0,3.7,0.6,5,0.1c0.5-0.2,0.4-0.1,0.7-0.7c0.5-1.4,0-3.7,0.1-5.3
			c0.2-1.7,0.3-3.3,0.2-5c0-0.6,0.2-1.8-0.4-2.2c-0.5-0.4-2.7-0.1-3.3-0.1c-2.3,0-4.6,0-7,0C467.4,91.5,467.4,92.3,467.9,92.3
			L467.9,92.3z"/>
	</g>
</g>
<g id="XMLID_1435_">
	<g id="XMLID_744_">
		<path id="XMLID_748_" class="st0" d="M359.5,37.5c-4-0.4-3.8,8.9,0.8,8.1c1.9-0.3,2.1-3.4,2-4.8c-0.2-2.5-1.4-3.7-3.9-3.3
			c-0.8,0.1-0.5,1.3,0.3,1.2c1-0.1,1.6-0.2,2.1,1c0.2,0.4,0.2,1.2,0.2,1.7c0,1-0.1,2.3-1.1,2.7c-2.7,1.1-2.6-5.5-0.6-5.3
			C360.3,38.9,360.3,37.6,359.5,37.5L359.5,37.5z"/>
	</g>
</g>
<g id="XMLID_1420_">
	<g id="XMLID_1428_">
		<g id="XMLID_738_">
			<path id="XMLID_742_" class="st0" d="M428.8,40.3c0.9-0.6,1.9-1.3,2.8-1.9c-0.3-0.2-0.6-0.5-0.9-0.7c-0.4,2.4-0.6,4.9-0.6,7.4
				c0,0.8,1.3,0.8,1.3,0c-0.1-2.4,0.1-4.7,0.5-7.1c0.1-0.5-0.4-1-0.9-0.7c-0.9,0.6-1.9,1.3-2.8,1.9
				C427.5,39.7,428.2,40.7,428.8,40.3L428.8,40.3z"/>
		</g>
	</g>
	<g id="XMLID_1421_">
		<g id="XMLID_732_">
			<path id="XMLID_736_" class="st0" d="M427.9,45.8c1.7,0,3.3-0.1,5-0.1c0.8,0,0.8-1.3,0-1.3c-1.7,0.1-3.3,0.1-5,0.1
				C427.1,44.5,427.1,45.8,427.9,45.8L427.9,45.8z"/>
		</g>
	</g>
</g>
<g id="XMLID_1413_">
	<g id="XMLID_726_">
		<path id="XMLID_730_" class="st0" d="M354.5,35.6c1.8,0,3.7,0,5.5,0c0.8,0,1.7-0.1,2.5,0c1.4,0.2,1.7,0.1,1.9,1.5
			c0.3,1.5,0,3.2-0.2,4.7c-0.1,1.2,0.3,3.5-0.1,4.6c-0.7,1.6-3.6,0.9-4.9,0.9c-0.9,0-2,0.1-2.9-0.1c-1.4-0.2-1.4-0.2-1.6-1.7
			c-0.2-1.5,0.1-3.2,0.2-4.7c0-1.8,0-3.7-0.1-5.5c0-0.5-0.8-0.5-0.8,0c0.1,2.3,0.2,4.6,0.1,7c0,1.7-0.5,3.7-0.2,5.4
			c0,0.1,0.1,0.2,0.3,0.3c1.5,0.4,3.6,0.1,5.1,0.2c1.4,0,3.7,0.6,5,0.1c0.5-0.2,0.4-0.1,0.7-0.7c0.5-1.4,0-3.7,0.1-5.3
			c0.2-1.7,0.3-3.3,0.2-5c0-0.6,0.2-1.8-0.4-2.2c-0.5-0.4-2.7-0.1-3.3-0.1c-2.3,0-4.6,0-7,0C354,34.8,354,35.6,354.5,35.6
			L354.5,35.6z"/>
	</g>
</g>
<g id="XMLID_1384_">
	<g id="XMLID_1392_">
		<g id="XMLID_720_">
			<path id="XMLID_724_" class="st0" d="M428.8,68.6c0.9-0.6,1.9-1.3,2.8-1.9c-0.3-0.2-0.6-0.5-0.9-0.7c-0.4,2.4-0.6,4.9-0.6,7.4
				c0,0.8,1.3,0.8,1.3,0c-0.1-2.4,0.1-4.7,0.5-7.1c0.1-0.5-0.4-1-0.9-0.7c-0.9,0.6-1.9,1.3-2.8,1.9C427.5,68,428.2,69.1,428.8,68.6
				L428.8,68.6z"/>
		</g>
	</g>
	<g id="XMLID_1385_">
		<g id="XMLID_703_">
			<path id="XMLID_716_" class="st0" d="M427.9,74.1c1.7,0,3.3-0.1,5-0.1c0.8,0,0.8-1.3,0-1.3c-1.7,0.1-3.3,0.1-5,0.1
				C427.1,72.9,427.1,74.1,427.9,74.1L427.9,74.1z"/>
		</g>
	</g>
</g>
<g id="XMLID_1363_">
	<g id="XMLID_697_">
		<path id="XMLID_701_" class="st0" d="M359.5,94.2c-4-0.4-3.8,8.9,0.8,8.1c1.9-0.3,2.1-3.4,2-4.8c-0.2-2.5-1.4-3.7-3.9-3.3
			c-0.8,0.1-0.5,1.3,0.3,1.2c1-0.1,1.6-0.2,2.1,1c0.2,0.4,0.2,1.2,0.2,1.7c0,1-0.1,2.3-1.1,2.7c-2.7,1.1-2.6-5.5-0.6-5.3
			C360.3,95.6,360.3,94.3,359.5,94.2L359.5,94.2z"/>
	</g>
</g>
<g id="XMLID_1348_">
	<g id="XMLID_1356_">
		<g id="XMLID_691_">
			<path id="XMLID_695_" class="st0" d="M428.8,97c0.9-0.6,1.9-1.3,2.8-1.9c-0.3-0.2-0.6-0.5-0.9-0.7c-0.4,2.4-0.6,4.9-0.6,7.4
				c0,0.8,1.3,0.8,1.3,0c-0.1-2.4,0.1-4.7,0.5-7.1c0.1-0.5-0.4-1-0.9-0.7c-0.9,0.6-1.9,1.3-2.8,1.9C427.5,96.4,428.2,97.4,428.8,97
				L428.8,97z"/>
		</g>
	</g>
	<g id="XMLID_1349_">
		<g id="XMLID_685_">
			<path id="XMLID_689_" class="st0" d="M427.9,102.5c1.7,0,3.3-0.1,5-0.1c0.8,0,0.8-1.3,0-1.3c-1.7,0.1-3.3,0.1-5,0.1
				C427.1,101.2,427.1,102.5,427.9,102.5L427.9,102.5z"/>
		</g>
	</g>
</g>
<g id="XMLID_1341_">
	<g id="XMLID_678_">
		<path id="XMLID_683_" class="st0" d="M354.5,92.3c1.8,0,3.7,0,5.5,0c0.8,0,1.7-0.1,2.5,0c1.4,0.2,1.7,0.1,1.9,1.5
			c0.3,1.5,0,3.2-0.2,4.7c-0.1,1.2,0.3,3.5-0.1,4.6c-0.7,1.6-3.6,0.9-4.9,0.9c-0.9,0-2,0.1-2.9-0.1c-1.4-0.2-1.4-0.2-1.6-1.7
			c-0.2-1.5,0.1-3.2,0.2-4.7c0-1.8,0-3.7-0.1-5.5c0-0.5-0.8-0.5-0.8,0c0.1,2.3,0.2,4.6,0.1,7c0,1.7-0.5,3.7-0.2,5.4
			c0,0.1,0.1,0.2,0.3,0.3c1.5,0.4,3.6,0.1,5.1,0.2c1.4,0,3.7,0.6,5,0.1c0.5-0.2,0.4-0.1,0.7-0.7c0.5-1.4,0-3.7,0.1-5.3
			c0.2-1.7,0.3-3.3,0.2-5c0-0.6,0.2-1.8-0.4-2.2c-0.5-0.4-2.7-0.1-3.3-0.1c-2.3,0-4.6,0-7,0C354,91.5,354,92.3,354.5,92.3
			L354.5,92.3z"/>
	</g>
</g>
<g id="XMLID_1312_">
	<g id="XMLID_1320_">
		<g id="XMLID_673_">
			<path id="XMLID_677_" class="st0" d="M428.8,125.3c0.9-0.6,1.9-1.3,2.8-1.9c-0.3-0.2-0.6-0.5-0.9-0.7c-0.4,2.4-0.6,4.9-0.6,7.4
				c0,0.8,1.3,0.8,1.3,0c-0.1-2.4,0.1-4.7,0.5-7.1c0.1-0.5-0.4-1-0.9-0.7c-0.9,0.6-1.9,1.3-2.8,1.9
				C427.5,124.7,428.2,125.8,428.8,125.3L428.8,125.3z"/>
		</g>
	</g>
	<g id="XMLID_1313_">
		<g id="XMLID_667_">
			<path id="XMLID_671_" class="st0" d="M427.9,130.8c1.7,0,3.3-0.1,5-0.1c0.8,0,0.8-1.3,0-1.3c-1.7,0.1-3.3,0.1-5,0.1
				C427.1,129.6,427.1,130.8,427.9,130.8L427.9,130.8z"/>
		</g>
	</g>
</g>
<g id="XMLID_1333_">
	<g id="XMLID_1399_">
		<g id="XMLID_661_">
			<path id="XMLID_665_" class="st0" d="M358,68.6c0.9-0.6,1.9-1.3,2.8-1.9c-0.3-0.2-0.6-0.5-0.9-0.7c-0.4,2.4-0.6,4.9-0.6,7.4
				c0,0.8,1.3,0.8,1.3,0c-0.1-2.4,0.1-4.7,0.5-7.1c0.1-0.5-0.4-1-0.9-0.7c-0.9,0.6-1.9,1.3-2.8,1.9C356.7,68,357.3,69.1,358,68.6
				L358,68.6z"/>
		</g>
	</g>
	<g id="XMLID_1377_">
		<g id="XMLID_654_">
			<path id="XMLID_659_" class="st0" d="M357.1,74.1c1.7,0,3.3-0.1,5-0.1c0.8,0,0.8-1.3,0-1.3c-1.7,0.1-3.3,0.1-5,0.1
				C356.3,72.9,356.3,74.1,357.1,74.1L357.1,74.1z"/>
		</g>
	</g>
</g>
<g id="XMLID_1289_">
	<g id="XMLID_1297_">
		<g id="XMLID_475_">
			<path id="XMLID_479_" class="st0" d="M358,125.3c0.9-0.6,1.9-1.3,2.8-1.9c-0.3-0.2-0.6-0.5-0.9-0.7c-0.4,2.4-0.6,4.9-0.6,7.4
				c0,0.8,1.3,0.8,1.3,0c-0.1-2.4,0.1-4.7,0.5-7.1c0.1-0.5-0.4-1-0.9-0.7c-0.9,0.6-1.9,1.3-2.8,1.9
				C356.7,124.7,357.3,125.8,358,125.3L358,125.3z"/>
		</g>
	</g>
	<g id="XMLID_1290_">
		<g id="XMLID_468_">
			<path id="XMLID_473_" class="st0" d="M357.1,130.8c1.7,0,3.3-0.1,5-0.1c0.8,0,0.8-1.3,0-1.3c-1.7,0.1-3.3,0.1-5,0.1
				C356.3,129.6,356.3,130.8,357.1,130.8L357.1,130.8z"/>
		</g>
	</g>
</g>
<g id="XMLID_866_">
	<g id="XMLID_645_">
		<path id="XMLID_651_" class="st0" d="M326.9,42.1c7.5-0.2,15.1,0.5,22.5,0.1c0.6,0,0.6-1,0-1c-7.5,0.4-15-0.3-22.5-0.1
			C326.3,41.1,326.3,42.1,326.9,42.1L326.9,42.1z"/>
	</g>
</g>
<g id="XMLID_867_">
	<g id="XMLID_639_">
		<path id="XMLID_643_" class="st0" d="M350.2,41.2c-0.4-0.9-1.3-1.5-2.2-1.9c-0.8-0.5-1.6,0.8-0.8,1.3c0.7,0.4,1.3,0.7,1.7,1.4
			C349.3,42.9,350.6,42.1,350.2,41.2L350.2,41.2z"/>
	</g>
</g>
<g id="XMLID_1137_">
	<g id="XMLID_632_">
		<path id="XMLID_637_" class="st0" d="M348.9,41.4c-0.4,0.5-0.9,1-1.5,1.3c-0.8,0.5-0.1,1.8,0.8,1.3c0.8-0.5,1.5-1.1,2.1-1.8
			c0.2-0.3,0-0.8-0.3-1C349.6,40.9,349.2,41.1,348.9,41.4L348.9,41.4z"/>
	</g>
</g>
<g id="XMLID_1474_">
	<g id="XMLID_626_">
		<path id="XMLID_630_" class="st0" d="M326.9,70.4c7.5-0.2,15.1,0.5,22.5,0.1c0.6,0,0.6-1,0-1c-7.5,0.4-15-0.3-22.5-0.1
			C326.3,69.5,326.3,70.5,326.9,70.4L326.9,70.4z"/>
	</g>
</g>
<g id="XMLID_1462_">
	<g id="XMLID_620_">
		<path id="XMLID_624_" class="st0" d="M350.2,69.6c-0.4-0.9-1.3-1.5-2.2-1.9c-0.8-0.5-1.6,0.8-0.8,1.3c0.7,0.4,1.3,0.7,1.7,1.4
			C349.3,71.2,350.6,70.5,350.2,69.6L350.2,69.6z"/>
	</g>
</g>
<g id="XMLID_1144_">
	<g id="XMLID_614_">
		<path id="XMLID_618_" class="st0" d="M348.9,69.8c-0.4,0.5-0.9,1-1.5,1.3c-0.8,0.5-0.1,1.8,0.8,1.3c0.8-0.5,1.5-1.1,2.1-1.8
			c0.2-0.3,0-0.8-0.3-1C349.6,69.3,349.2,69.4,348.9,69.8L348.9,69.8z"/>
	</g>
</g>
<g id="XMLID_1513_">
	<g id="XMLID_607_">
		<path id="XMLID_612_" class="st0" d="M326.9,98.8c7.5-0.2,15.1,0.5,22.5,0.1c0.6,0,0.6-1,0-1c-7.5,0.4-15-0.3-22.5-0.1
			C326.3,97.8,326.3,98.8,326.9,98.8L326.9,98.8z"/>
	</g>
</g>
<g id="XMLID_1506_">
	<g id="XMLID_601_">
		<path id="XMLID_605_" class="st0" d="M350.2,97.9c-0.4-0.9-1.3-1.5-2.2-1.9c-0.8-0.5-1.6,0.8-0.8,1.3c0.7,0.4,1.3,0.7,1.7,1.4
			C349.3,99.6,350.6,98.8,350.2,97.9L350.2,97.9z"/>
	</g>
</g>
<g id="XMLID_1499_">
	<g id="XMLID_593_">
		<path id="XMLID_599_" class="st0" d="M348.9,98.1c-0.4,0.5-0.9,1-1.5,1.3c-0.8,0.5-0.1,1.8,0.8,1.3c0.8-0.5,1.5-1.1,2.1-1.8
			c0.2-0.3,0-0.8-0.3-1C349.6,97.6,349.2,97.8,348.9,98.1L348.9,98.1z"/>
	</g>
</g>
<g id="XMLID_1534_">
	<g id="XMLID_584_">
		<path id="XMLID_588_" class="st0" d="M326.9,127.1c7.5-0.2,15.1,0.5,22.5,0.1c0.6,0,0.6-1,0-1c-7.5,0.4-15-0.3-22.5-0.1
			C326.3,126.1,326.3,127.1,326.9,127.1L326.9,127.1z"/>
	</g>
</g>
<g id="XMLID_1527_">
	<g id="XMLID_578_">
		<path id="XMLID_582_" class="st0" d="M350.2,126.3c-0.4-0.9-1.3-1.5-2.2-1.9c-0.8-0.5-1.6,0.8-0.8,1.3c0.7,0.4,1.3,0.7,1.7,1.4
			C349.3,127.9,350.6,127.2,350.2,126.3L350.2,126.3z"/>
	</g>
</g>
<g id="XMLID_1520_">
	<g id="XMLID_572_">
		<path id="XMLID_576_" class="st0" d="M348.9,126.5c-0.4,0.5-0.9,1-1.5,1.3c-0.8,0.5-0.1,1.8,0.8,1.3c0.8-0.5,1.5-1.1,2.1-1.8
			c0.2-0.3,0-0.8-0.3-1C349.6,126,349.2,126.1,348.9,126.5L348.9,126.5z"/>
	</g>
</g>
<g id="XMLID_1618_">
	<g id="XMLID_562_">
		<path id="XMLID_569_" class="st0" d="M440.3,42.1c7.5-0.2,15.1,0.5,22.5,0.1c0.6,0,0.6-1,0-1c-7.5,0.4-15-0.3-22.5-0.1
			C439.7,41.1,439.7,42.1,440.3,42.1L440.3,42.1z"/>
	</g>
</g>
<g id="XMLID_1611_">
	<g id="XMLID_555_">
		<path id="XMLID_560_" class="st0" d="M463.6,41.2c-0.4-0.9-1.3-1.5-2.2-1.9c-0.8-0.5-1.6,0.8-0.8,1.3c0.7,0.4,1.3,0.7,1.7,1.4
			C462.7,42.9,464,42.1,463.6,41.2L463.6,41.2z"/>
	</g>
</g>
<g id="XMLID_1604_">
	<g id="XMLID_548_">
		<path id="XMLID_553_" class="st0" d="M462.3,41.4c-0.4,0.5-0.9,1-1.5,1.3c-0.8,0.5-0.1,1.8,0.8,1.3c0.8-0.5,1.5-1.1,2.1-1.8
			c0.2-0.3,0-0.8-0.3-1C463,40.9,462.6,41.1,462.3,41.4L462.3,41.4z"/>
	</g>
</g>
<g id="XMLID_1597_">
	<g id="XMLID_541_">
		<path id="XMLID_546_" class="st0" d="M440.3,70.4c7.5-0.2,15.1,0.5,22.5,0.1c0.6,0,0.6-1,0-1c-7.5,0.4-15-0.3-22.5-0.1
			C439.7,69.5,439.7,70.5,440.3,70.4L440.3,70.4z"/>
	</g>
</g>
<g id="XMLID_1590_">
	<g id="XMLID_534_">
		<path id="XMLID_538_" class="st0" d="M463.6,69.6c-0.4-0.9-1.3-1.5-2.2-1.9c-0.8-0.5-1.6,0.8-0.8,1.3c0.7,0.4,1.3,0.7,1.7,1.4
			C462.7,71.2,464,70.5,463.6,69.6L463.6,69.6z"/>
	</g>
</g>
<g id="XMLID_1583_">
	<g id="XMLID_528_">
		<path id="XMLID_532_" class="st0" d="M462.3,69.8c-0.4,0.5-0.9,1-1.5,1.3c-0.8,0.5-0.1,1.8,0.8,1.3c0.8-0.5,1.5-1.1,2.1-1.8
			c0.2-0.3,0-0.8-0.3-1C463,69.3,462.6,69.4,462.3,69.8L462.3,69.8z"/>
	</g>
</g>
<g id="XMLID_1576_">
	<g id="XMLID_522_">
		<path id="XMLID_526_" class="st0" d="M440.3,98.8c7.5-0.2,15.1,0.5,22.5,0.1c0.6,0,0.6-1,0-1c-7.5,0.4-15-0.3-22.5-0.1
			C439.7,97.8,439.7,98.8,440.3,98.8L440.3,98.8z"/>
	</g>
</g>
<g id="XMLID_1569_">
	<g id="XMLID_516_">
		<path id="XMLID_520_" class="st0" d="M463.6,97.9c-0.4-0.9-1.3-1.5-2.2-1.9c-0.8-0.5-1.6,0.8-0.8,1.3c0.7,0.4,1.3,0.7,1.7,1.4
			C462.7,99.6,464,98.8,463.6,97.9L463.6,97.9z"/>
	</g>
</g>
<g id="XMLID_1562_">
	<g id="XMLID_510_">
		<path id="XMLID_514_" class="st0" d="M462.3,98.1c-0.4,0.5-0.9,1-1.5,1.3c-0.8,0.5-0.1,1.8,0.8,1.3c0.8-0.5,1.5-1.1,2.1-1.8
			c0.2-0.3,0-0.8-0.3-1C463,97.6,462.6,97.8,462.3,98.1L462.3,98.1z"/>
	</g>
</g>
<g id="XMLID_1516_">
	<g id="XMLID_488_">
		<path id="XMLID_493_" class="st0" d="M440.3,127.1c7.5-0.2,15.1,0.5,22.5,0.1c0.6,0,0.6-1,0-1c-7.5,0.4-15-0.3-22.5-0.1
			C439.7,126.1,439.7,127.1,440.3,127.1L440.3,127.1z"/>
	</g>
</g>
<g id="XMLID_1494_">
	<g id="XMLID_495_">
		<path id="XMLID_503_" class="st0" d="M463.6,126.3c-0.4-0.9-1.3-1.5-2.2-1.9c-0.8-0.5-1.6,0.8-0.8,1.3c0.7,0.4,1.3,0.7,1.7,1.4
			C462.7,127.9,464,127.2,463.6,126.3L463.6,126.3z"/>
	</g>
</g>
<g id="XMLID_1487_">
	<g id="XMLID_481_">
		<path id="XMLID_486_" class="st0" d="M462.3,126.5c-0.4,0.5-0.9,1-1.5,1.3c-0.8,0.5-0.1,1.8,0.8,1.3c0.8-0.5,1.5-1.1,2.1-1.8
			c0.2-0.3,0-0.8-0.3-1C463,126,462.6,126.1,462.3,126.5L462.3,126.5z"/>
	</g>
</g>
<g id="XMLID_1626_" class="st1">
	<g id="XMLID_463_">
		<path id="XMLID_467_" class="st0" d="M301.6,21.9c25.3,0.5,50.6,1.2,75.8-0.2c0.6,0,0.6-1,0-1c-25.3,1.4-50.6,0.7-75.8,0.2
			C301,20.9,301,21.9,301.6,21.9L301.6,21.9z"/>
	</g>
</g>
<g id="XMLID_863_" class="st1">
	<g id="XMLID_457_">
		<path id="XMLID_461_" class="st0" d="M415,21.9c25.3,0.5,50.6,1.2,75.8-0.2c0.6,0,0.6-1,0-1c-25.3,1.4-50.6,0.7-75.8,0.2
			C414.4,20.9,414.4,21.9,415,21.9L415,21.9z"/>
	</g>
</g>
<g id="XMLID_1266_" class="st1">
	<g id="XMLID_451_">
		<path id="XMLID_455_" class="st0" d="M188.3,21.9c25.3,0.5,50.6,1.2,75.8-0.2c0.6,0,0.6-1,0-1c-25.3,1.4-50.6,0.7-75.8,0.2
			C187.6,20.9,187.6,21.9,188.3,21.9L188.3,21.9z"/>
	</g>
</g>
<g id="XMLID_1467_" class="st1">
	<g id="XMLID_445_">
		<path id="XMLID_449_" class="st0" d="M74.9,21.9c25.3,0.5,50.6,1.2,75.8-0.2c0.6,0,0.6-1,0-1c-25.3,1.4-50.6,0.7-75.8,0.2
			C74.2,20.9,74.2,21.9,74.9,21.9L74.9,21.9z"/>
	</g>
</g>
<g id="XMLID_1628_">
	<g id="XMLID_438_">
		<path id="XMLID_442_" class="st0" d="M88.1,8.4c-2.9-0.4-5,2.1-5.2,4.8c-0.3,3.2,1.5,5,4.6,5.1c1.4,0,2.9-0.2,3.8-1.3
			c0.8-1,0.8-2.5,0.9-3.8c0.2-1.5,0.1-2.7-1.2-3.7c-1.3-1-3.1-1.2-4.8-1.2c-1,0-1,1.5,0,1.5c1,0,1.9,0.1,2.9,0.4
			c1.3,0.5,1.6,1.3,1.6,2.7c0,0.7-0.1,1.8-0.3,2.5c-0.5,1.3-1.8,1.4-2.9,1.4c-0.9,0-2.2-0.1-2.8-1.1c-0.5-0.8-0.4-2-0.3-2.9
			c0.3-1.9,1.7-3.2,3.7-3C89.1,10,89.1,8.5,88.1,8.4L88.1,8.4z"/>
	</g>
</g>
<g id="XMLID_1629_">
	<g id="XMLID_432_">
		<path id="XMLID_436_" class="st0" d="M93.3,11.5c0.4,2.9-0.4,5.8-0.1,8.6c0.1,1,1.6,1,1.5,0c-0.3-3,0.5-6,0.1-9
			C94.6,10.1,93.2,10.5,93.3,11.5L93.3,11.5z"/>
	</g>
</g>
<g id="XMLID_1630_">
	<g id="XMLID_426_">
		<path id="XMLID_430_" class="st0" d="M94.7,13.6c0.6-0.5,1.3-1,2.1-1.1c1.3-0.1,1.4,1,1.3,2c-0.1,0.6-0.3,1.4-0.7,1.9
			c-0.7,0.7-1.7,0.7-2.2-0.2c-0.5-0.8-1.8-0.1-1.3,0.8c0.7,1.2,2.1,1.8,3.4,1.3c1.5-0.6,2.1-2.2,2.3-3.7c0.2-1.5-0.1-3-1.7-3.4
			c-1.6-0.5-3,0.5-4.2,1.4C92.9,13.1,94,14.2,94.7,13.6L94.7,13.6z"/>
	</g>
</g>
<g id="XMLID_1631_">
	<g id="XMLID_420_">
		<path id="XMLID_424_" class="st0" d="M101.2,15.2c1.7,0.1,3.4,0.1,5.1,0c0.5,0,0.8-0.5,0.7-0.9c-0.3-2-1.3-3.2-3.4-3.2
			c-1.9-0.1-3,1.2-3.3,3c-0.2,1.5,0.3,3.4,1.7,4.1c1.5,0.8,3.7,0.4,4.6-1.1c0.5-0.8-0.8-1.6-1.3-0.8c-0.5,0.9-2.2,0.9-2.9,0.3
			c-0.6-0.6-0.8-1.6-0.6-2.5c0.2-0.9,0.8-1.6,1.8-1.6c1.4,0.1,1.8,0.9,1.9,2.1c0.2-0.3,0.5-0.6,0.7-0.9c-1.7,0.1-3.4,0.1-5.1,0
			C100.2,13.6,100.2,15.1,101.2,15.2L101.2,15.2z"/>
	</g>
</g>
<g id="XMLID_1632_">
	<g id="XMLID_414_">
		<path id="XMLID_418_" class="st0" d="M108.1,11.7c0,1.9,0,3.7-0.1,5.5c0,1,1.4,0.9,1.5,0c0.2-1.4,0-4.8,2-4.9c1,0,1-1.5,0-1.5
			c-3.3,0.1-3.3,4-3.5,6.4c0.5,0,1,0,1.5,0c0.1-1.8,0.1-3.7,0.1-5.5C109.5,10.7,108,10.7,108.1,11.7L108.1,11.7z"/>
	</g>
</g>
<g id="XMLID_1633_">
	<g id="XMLID_408_">
		<path id="XMLID_412_" class="st0" d="M113.3,13.4c0.8-0.6,2.5-1.9,3.1-0.4c0,0.2,0.1,0.5,0.1,0.7c0.7-0.1,0.7-0.2,0.2-0.3
			c-0.4-0.1-0.8,0-1.1,0c-1.4,0.2-3.5,1-3.7,2.6c-0.2,1.7,1.7,2.1,3,2.1c0.8,0,1.6-0.3,2.1-0.9c0.5-0.6,0.5-1.5,0.8-2.2
			c-0.5-0.1-1-0.1-1.5-0.2c-0.1,1.6-0.4,3.3,1.6,3.3c1,0,1-1.5,0-1.5c-0.4,0-0.2-0.2-0.2-0.7c0-0.4,0-0.8,0.1-1.2
			c0-0.9-1.2-1-1.5-0.2c-0.4,1.1-0.3,2.1-1.8,2c-0.3,0-0.5-0.1-0.8-0.1c0-0.3,0-0.5,0-0.8c0.2-0.3,1.1-0.6,1.5-0.7
			c0.9-0.3,2.6,0.5,2.8-1c0.1-1.1-0.3-2.6-1.3-3.1c-1.3-0.6-3.1,0.4-4.1,1.2C111.8,12.7,112.6,14,113.3,13.4L113.3,13.4z"/>
	</g>
</g>
<g id="XMLID_1636_">
	<g id="XMLID_402_">
		<path id="XMLID_406_" class="st0" d="M119.8,9.6c-0.1,1.2-0.2,2.5-0.2,3.7c-0.1,1.1-0.3,2.3-0.1,3.4c0.2,1.2,1.2,1.9,2.4,1.3
			c0.9-0.4,0.1-1.7-0.8-1.3c-0.1,0,0-3.3,0-3.4c0.1-1.2,0.2-2.5,0.2-3.7C121.3,8.6,119.8,8.6,119.8,9.6L119.8,9.6z"/>
	</g>
</g>
<g id="XMLID_1638_">
	<g id="XMLID_396_">
		<path id="XMLID_400_" class="st0" d="M118.6,12.1c1.1,0,2.1,0.1,3.2,0.3c0.9,0.2,1.3-1.3,0.4-1.4c-1.2-0.2-2.4-0.3-3.6-0.3
			C117.7,10.6,117.6,12.1,118.6,12.1L118.6,12.1z"/>
	</g>
</g>
<g id="XMLID_1650_">
	<g id="XMLID_390_">
		<path id="XMLID_394_" class="st0" d="M123.3,11.4c0,1.9,0.3,3.9-0.1,5.8c-0.2,0.9,1.2,1.3,1.4,0.4c0.4-2,0.2-4.1,0.2-6.2
			C124.8,10.5,123.3,10.5,123.3,11.4L123.3,11.4z"/>
	</g>
</g>
<g id="XMLID_1657_">
	<g id="XMLID_384_">
		<path id="XMLID_388_" class="st0" d="M124.7,9.4c0-0.1,0-0.1,0-0.2c0-1-1.5-1-1.5,0c0,0.1,0,0.1,0,0.2
			C123.2,10.4,124.7,10.4,124.7,9.4L124.7,9.4z"/>
	</g>
</g>
<g id="XMLID_1664_">
	<g id="XMLID_378_">
		<path id="XMLID_382_" class="st0" d="M129.2,10.7c-2.2,0-3.5,1.9-3.7,4c-0.1,0.9,0,2.1,0.8,2.7c0.7,0.6,1.9,0.9,2.8,0.9
			c2.2,0,3-2,3.1-3.9c0.2-2.4-1.3-3.5-3.5-3.8c-0.9-0.1-1.4,1.3-0.4,1.4c1.1,0.2,2.3,0.3,2.4,1.6c0.1,1-0.2,2.7-1.2,3.1
			c-0.5,0.2-1.1,0-1.6-0.2c-0.7-0.3-0.9-0.6-0.9-1.4c0-1.4,0.6-2.9,2.2-2.9C130.1,12.2,130.1,10.7,129.2,10.7L129.2,10.7z"/>
	</g>
</g>
<g id="XMLID_1671_">
	<g id="XMLID_372_">
		<path id="XMLID_376_" class="st0" d="M133.2,11.6c0,0.9,0,1.8,0.1,2.8c0,0.9,0.2,1.9-0.1,2.8c-0.3,0.9,1.1,1.3,1.4,0.4
			c0.3-0.9,0.2-1.8,0.1-2.8c0-1.1,0-2.1-0.1-3.2C134.7,10.7,133.2,10.7,133.2,11.6L133.2,11.6z"/>
	</g>
</g>
<g id="XMLID_1678_">
	<g id="XMLID_366_">
		<path id="XMLID_370_" class="st0" d="M134.5,13.4c0.4-0.3,0.8-0.6,1.3-0.8c1-0.3,1.5,0.1,1.6,1.1c0.2,1.2,0.1,2.4-0.1,3.6
			c-0.2,0.9,1.3,1.3,1.4,0.4c0.3-1.7,0.8-4.7-0.6-6c-1.4-1.3-3.5-0.3-4.7,0.7C132.7,13,133.8,14,134.5,13.4L134.5,13.4z"/>
	</g>
</g>
<g id="XMLID_1685_">
	<g id="XMLID_360_">
		<path id="XMLID_364_" class="st0" d="M207.5,8.4c-1.6,0-3.1,0-4.7,0c-0.7,0-1.1,0-1.5,0.6c-0.4,0.8-0.3,2.5-0.3,3.4
			c-0.1,1.7,0,3.3,0.1,5c0.1,1,1.6,1,1.5,0c-0.1-1.3-0.1-2.7-0.1-4c0-1.2-0.1-2.8,0.3-4c-0.2,0.2-0.3,0.3-0.5,0.5
			c0.7-0.2,1.8,0,2.6,0c0.9,0,1.8,0,2.6,0C208.5,9.9,208.5,8.4,207.5,8.4L207.5,8.4z"/>
	</g>
</g>
<g id="XMLID_1692_">
	<g id="XMLID_354_">
		<path id="XMLID_358_" class="st0" d="M201.9,13.9c1.1-0.1,2.2-0.2,3.3-0.1c1,0,1-1.5,0-1.5c-1.1-0.1-2.2,0-3.3,0.1
			C200.9,12.5,200.9,14,201.9,13.9L201.9,13.9z"/>
	</g>
</g>
<g id="XMLID_1699_">
	<g id="XMLID_348_">
		<path id="XMLID_352_" class="st0" d="M209,11.3c-0.3,2.4-1,7,2.5,7.1c3.5,0.1,3.6-4.4,3.4-7c-0.1-1-1.5-1-1.5,0
			c0,2,0.1,4.1,0.1,6.1c0,1,1.5,1,1.5,0c0-2-0.1-4.1-0.1-6.1c-0.5,0-1,0-1.5,0c0.1,1.5,0.4,5.9-2.1,5.5c-1.8-0.3-1-4.3-0.8-5.6
			C210.6,10.3,209.1,10.3,209,11.3L209,11.3z"/>
	</g>
</g>
<g id="XMLID_1706_">
	<g id="XMLID_342_">
		<path id="XMLID_346_" class="st0" d="M216.2,11.5c0,2,0,4-0.1,6c-0.1,1,1.4,1,1.5,0c0.1-2,0.1-4,0.1-6
			C217.7,10.5,216.2,10.5,216.2,11.5L216.2,11.5z"/>
	</g>
</g>
<g id="XMLID_1713_">
	<g id="XMLID_336_">
		<path id="XMLID_340_" class="st0" d="M217.6,13.6c0.4-0.5,1-1,1.7-1.1c0.8-0.1,1,0.5,1.2,1.2c0.3,1.3,0.2,2.6,0.2,3.9
			c-0.1,1,1.4,1,1.5,0c0.1-2,0.3-4.5-1.1-6.2c-1.1-1.4-3.6,0.2-4.5,1.1C215.9,13.2,216.9,14.3,217.6,13.6L217.6,13.6z"/>
	</g>
</g>
<g id="XMLID_1720_">
	<g id="XMLID_330_">
		<path id="XMLID_334_" class="st0" d="M229,12.5c-1.5-3.2-5.9-1.3-6.1,1.8c-0.1,1.4,0.7,3.4,2.1,3.9c1.6,0.6,3-0.4,4-1.5
			c0.7-0.7-0.4-1.8-1.1-1.1c-0.5,0.5-1.1,1.2-1.8,1.2c-1.1,0.1-1.7-1.2-1.8-2.2c-0.1-1.8,2.4-3.4,3.3-1.4
			C228.1,14.1,229.4,13.3,229,12.5L229,12.5z"/>
	</g>
</g>
<g id="XMLID_1727_">
	<g id="XMLID_324_">
		<path id="XMLID_328_" class="st0" d="M230.5,9.5c-0.1,1.3-0.1,2.6-0.2,3.9c-0.1,1.1-0.3,2.4-0.1,3.5c0.2,1.1,1.1,1.9,2.2,1.5
			c0.9-0.3,0.5-1.8-0.4-1.4c-0.5,0.2-0.2-3.2-0.2-3.5c0.1-1.3,0.1-2.6,0.2-3.9C232,8.6,230.5,8.6,230.5,9.5L230.5,9.5z"/>
	</g>
</g>
<g id="XMLID_1734_">
	<g id="XMLID_318_">
		<path id="XMLID_322_" class="st0" d="M229.6,12.3c0.9,0,1.9-0.1,2.7,0.1c0.9,0.3,1.3-1.1,0.4-1.4c-1-0.3-2.1-0.2-3.1-0.2
			C228.6,10.8,228.6,12.3,229.6,12.3L229.6,12.3z"/>
	</g>
</g>
<g id="XMLID_1741_">
	<g id="XMLID_312_">
		<path id="XMLID_316_" class="st0" d="M233.9,11.6c0.1,2.1,0.1,4.2-0.1,6.3c-0.1,1,1.4,1,1.5,0c0.1-2.1,0.2-4.2,0.1-6.3
			C235.4,10.7,233.9,10.7,233.9,11.6L233.9,11.6z"/>
	</g>
</g>
<g id="XMLID_1748_">
	<g id="XMLID_306_">
		<path id="XMLID_310_" class="st0" d="M235.6,9.5c0-0.1,0-0.1,0-0.2c0-1-1.5-1-1.5,0c0,0.1,0,0.1,0,0.2
			C234.1,10.4,235.6,10.4,235.6,9.5L235.6,9.5z"/>
	</g>
</g>
<g id="XMLID_1755_">
	<g id="XMLID_300_">
		<path id="XMLID_304_" class="st0" d="M239.6,10.8c-4.3-0.6-5.1,7.7-0.5,7.6c2,0,3.4-1.5,3.4-3.4c0-1.8-0.6-4.4-2.9-4.2
			c-1,0.1-1,1.6,0,1.5c1.2-0.1,1.3,1.5,1.4,2.3c0.1,1.2-0.4,2.1-1.7,2.3c-1.4,0.2-2-1.1-1.9-2.3c0.1-0.7,0.7-2.5,1.7-2.3
			C240.2,12.4,240.6,11,239.6,10.8L239.6,10.8z"/>
	</g>
</g>
<g id="XMLID_1762_">
	<g id="XMLID_294_">
		<path id="XMLID_298_" class="st0" d="M243.8,11.3c-0.3,2-0.3,4-0.1,6.1c0.1,0.9,1.6,1,1.5,0c-0.1-1.6-0.3-3.8,1.2-4.8
			c0.5-0.4,1.2-0.3,1.6,0.2c0.2,0.2,0.3,1.4,0.3,1.6c0.1,1,0,2-0.2,3c-0.2,0.9,1.3,1.3,1.4,0.4c0.4-2.1,0.9-7.5-2.6-7.1
			c-3.2,0.3-3.5,4.2-3.4,6.7c0.5,0,1,0,1.5,0c-0.2-2-0.2-4.1,0.1-6.1C245.4,10.4,243.9,10.4,243.8,11.3L243.8,11.3z"/>
	</g>
</g>
<g id="XMLID_1769_">
	<g id="XMLID_288_">
		<path id="XMLID_292_" class="st0" d="M309.8,8.8c0.4,2.9-0.5,5.8-0.3,8.8c0.1,1,1.6,1,1.5,0c-0.2-3,0.7-5.8,0.3-8.8
			C311.1,7.8,309.6,7.8,309.8,8.8L309.8,8.8z"/>
	</g>
</g>
<g id="XMLID_1776_">
	<g id="XMLID_282_">
		<path id="XMLID_286_" class="st0" d="M312.7,11.7c0.4,2-0.1,4.1-0.3,6.1c-0.1,1,1.4,1,1.5,0c0.2-2.2,0.7-4.3,0.3-6.5
			C314,10.3,312.5,10.7,312.7,11.7L312.7,11.7z"/>
	</g>
</g>
<g id="XMLID_1783_">
	<g id="XMLID_276_">
		<path id="XMLID_280_" class="st0" d="M314.1,13.6c0.8-0.9,2.7-2.3,2.9-0.2c0.2,1.3,0,2.8-0.1,4.2c-0.1,1,1.4,1,1.5,0
			c0.1-1.4,0.1-2.8,0.1-4.2c0-0.8,0-1.6-0.8-2.1c-1.7-1.2-3.5,0.1-4.7,1.3C312.3,13.3,313.4,14.3,314.1,13.6L314.1,13.6z"/>
	</g>
</g>
<g id="XMLID_1790_">
	<g id="XMLID_270_">
		<path id="XMLID_274_" class="st0" d="M320,11.5c-0.2,2.8-0.3,5.7-0.5,8.5c-0.1,1,1.4,1,1.5,0c0.2-2.8,0.3-5.7,0.5-8.5
			C321.6,10.6,320,10.6,320,11.5L320,11.5z"/>
	</g>
</g>
<g id="XMLID_1797_">
	<g id="XMLID_264_">
		<path id="XMLID_268_" class="st0" d="M321.1,13.5c0.6-0.3,1.2-0.9,1.9-1.1c1.1-0.2,1.3,0.8,1.4,1.6c0.1,0.7,0.1,1.8-0.4,2.3
			c-0.3,0.3-0.8,0.5-1.2,0.5c-0.7,0.1-1-0.1-1.3-0.7c-0.4-0.9-1.7-0.1-1.3,0.8c0.8,1.5,2.1,1.7,3.6,1.2c1.4-0.5,2.1-1.8,2.1-3.3
			c0-1.3-0.2-3.2-1.6-3.8c-1.5-0.7-2.8,0.5-4,1.2C319.5,12.7,320.2,14,321.1,13.5L321.1,13.5z"/>
	</g>
</g>
<g id="XMLID_1804_">
	<g id="XMLID_258_">
		<path id="XMLID_262_" class="st0" d="M327.2,11.2c-0.6,2.4-1.3,7.1,2.6,6.9c2.9-0.1,3.8-4.8,3.3-7c-0.2-0.9-1.4-0.6-1.5,0.2
			c-0.2,2.1-0.2,4.2-0.2,6.3c0,1,1.5,1,1.5,0c0-2.1,0-4.2,0.2-6.3c-0.5,0.1-1,0.1-1.5,0.2c0.3,1.3-0.2,4.6-1.7,5
			c-2.4,0.6-1.6-3.6-1.2-4.8C328.9,10.7,327.5,10.3,327.2,11.2L327.2,11.2z"/>
	</g>
</g>
<g id="XMLID_1811_">
	<g id="XMLID_252_">
		<path id="XMLID_256_" class="st0" d="M334.8,9.6c-0.2,2.3-0.2,4.6,0.1,6.9c0.1,1.1,0.6,2.3,2,1.9c0.9-0.3,0.5-1.7-0.4-1.4
			c-0.1,0-0.2-6.7-0.2-7.3C336.4,8.6,334.9,8.6,334.8,9.6L334.8,9.6z"/>
	</g>
</g>
<g id="XMLID_2038_">
	<g id="XMLID_246_">
		<path id="XMLID_250_" class="st0" d="M356.1,9.6c-0.2,2.3-0.2,4.6,0.1,6.9c0.1,1.1,0.6,2.3,2,1.9c0.9-0.3,0.5-1.7-0.4-1.4
			c-0.1,0-0.2-6.7-0.2-7.3C357.7,8.6,356.2,8.6,356.1,9.6L356.1,9.6z"/>
	</g>
</g>
<g id="XMLID_1867_">
	<g id="XMLID_240_">
		<path id="XMLID_244_" class="st0" d="M469.5,9.6c-0.2,2.3-0.2,4.6,0.1,6.9c0.1,1.1,0.6,2.3,2,1.9c0.9-0.3,0.5-1.7-0.4-1.4
			c-0.1,0-0.2-6.7-0.2-7.3C471,8.6,469.5,8.6,469.5,9.6L469.5,9.6z"/>
	</g>
</g>
<g id="XMLID_1818_">
	<g id="XMLID_234_">
		<path id="XMLID_238_" class="st0" d="M333.7,11.8c0.3,0.5,0.9,0.5,1.4,0.5c0.6,0,1.2,0,1.8,0c1,0,1-1.5,0-1.5c-0.4,0-0.8,0-1.2,0
			c-0.3,0-0.8,0.1-1.1,0c0.1,0.1,0.3,0.2,0.4,0.3c0,0,0-0.1,0-0.1C334.6,10.2,333.3,11,333.7,11.8L333.7,11.8z"/>
	</g>
</g>
<g id="XMLID_1825_">
	<g id="XMLID_228_">
		<path id="XMLID_232_" class="st0" d="M338.6,11.9c0,0.1,0.1,0.3,0.1,0.4c0.3,0.9,1.7,0.5,1.4-0.4c0-0.1-0.1-0.3-0.1-0.4
			C339.8,10.5,338.3,10.9,338.6,11.9L338.6,11.9z"/>
	</g>
</g>
<g id="XMLID_1832_">
	<g id="XMLID_222_">
		<path id="XMLID_226_" class="st0" d="M338.7,17.5c0.1,0.3,0.3,0.6,0.5,0.7c0.4,0.2,0.8,0.1,1-0.3c0.2-0.3,0.1-0.9-0.3-1
			c0,0.1,0.1,0.1,0.1,0.2C340,16.1,338.6,16.5,338.7,17.5L338.7,17.5z"/>
	</g>
</g>
<g id="XMLID_1839_">
	<g id="XMLID_216_">
		<path id="XMLID_220_" class="st0" d="M345.1,8.8c0.1,3,0.1,5.9,0.1,8.9c0,1,1.5,1,1.5,0c0-3,0-5.9-0.1-8.9
			C346.6,7.8,345.1,7.8,345.1,8.8L345.1,8.8z"/>
	</g>
</g>
<g id="XMLID_1846_">
	<g id="XMLID_210_">
		<path id="XMLID_214_" class="st0" d="M346.5,13.2c0.7-0.4,1.6-1.1,2.5-0.8c0.8,0.2,1,1.1,1,1.8c0,1.8-1.6,3.2-3.2,1.9
			c-0.8-0.6-1.5,0.7-0.8,1.3c2.6,1.9,5.5-0.3,5.5-3.2c0-1.2-0.5-2.5-1.6-3.1c-1.4-0.7-2.9,0-4.1,0.8C345,12.5,345.7,13.8,346.5,13.2
			L346.5,13.2z"/>
	</g>
</g>
<g id="XMLID_1853_">
	<g id="XMLID_204_">
		<path id="XMLID_208_" class="st0" d="M352.5,11.6c0.1,2.1-0.4,4.1-0.1,6.2c0.1,1,1.6,0.5,1.4-0.4c-0.3-1.9,0.2-3.9,0.1-5.8
			C353.9,10.7,352.4,10.7,352.5,11.6L352.5,11.6z"/>
	</g>
</g>
<g id="XMLID_1860_">
	<g id="XMLID_198_">
		<path id="XMLID_202_" class="st0" d="M354.1,9.3c0-0.1,0-0.1,0-0.2c0-1-1.5-1-1.5,0c0,0.1,0,0.1,0,0.2
			C352.6,10.3,354.1,10.3,354.1,9.3L354.1,9.3z"/>
	</g>
</g>
<g id="XMLID_1874_">
	<g id="XMLID_192_">
		<path id="XMLID_196_" class="st0" d="M355.3,12.3c1,0,2.1,0.1,3.1,0c1,0,1-1.5,0-1.5c-1,0-2.1,0-3.1,0
			C354.3,10.7,354.3,12.2,355.3,12.3L355.3,12.3z"/>
	</g>
</g>
<g id="XMLID_2029_">
	<g id="XMLID_186_">
		<path id="XMLID_190_" class="st0" d="M423.2,8.8c0.4,2.9-0.5,5.8-0.3,8.8c0.1,1,1.6,1,1.5,0c-0.2-3,0.7-5.8,0.3-8.8
			C424.5,7.8,423,7.8,423.2,8.8L423.2,8.8z"/>
	</g>
</g>
<g id="XMLID_2022_">
	<g id="XMLID_180_">
		<path id="XMLID_184_" class="st0" d="M426.1,11.7c0.4,2-0.1,4.1-0.3,6.1c-0.1,1,1.4,1,1.5,0c0.2-2.2,0.7-4.3,0.3-6.5
			C427.4,10.3,425.9,10.7,426.1,11.7L426.1,11.7z"/>
	</g>
</g>
<g id="XMLID_2015_">
	<g id="XMLID_174_">
		<path id="XMLID_178_" class="st0" d="M427.4,13.6c0.8-0.9,2.7-2.3,2.9-0.2c0.2,1.3,0,2.8-0.1,4.2c-0.1,1,1.4,1,1.5,0
			c0.1-1.4,0.1-2.8,0.1-4.2c0-0.8,0-1.6-0.8-2.1c-1.7-1.2-3.5,0.1-4.7,1.3C425.7,13.3,426.8,14.3,427.4,13.6L427.4,13.6z"/>
	</g>
</g>
<g id="XMLID_2008_">
	<g id="XMLID_168_">
		<path id="XMLID_172_" class="st0" d="M433.4,11.5c-0.2,2.8-0.3,5.7-0.5,8.5c-0.1,1,1.4,1,1.5,0c0.2-2.8,0.3-5.7,0.5-8.5
			C434.9,10.6,433.4,10.6,433.4,11.5L433.4,11.5z"/>
	</g>
</g>
<g id="XMLID_2001_">
	<g id="XMLID_162_">
		<path id="XMLID_166_" class="st0" d="M434.5,13.5c0.6-0.3,1.2-0.9,1.9-1.1c1.1-0.2,1.3,0.8,1.4,1.6c0.1,0.7,0.1,1.8-0.4,2.3
			c-0.3,0.3-0.8,0.5-1.2,0.5c-0.7,0.1-1-0.1-1.3-0.7c-0.4-0.9-1.7-0.1-1.3,0.8c0.8,1.5,2.1,1.7,3.6,1.2c1.4-0.5,2.1-1.8,2.1-3.3
			c0-1.3-0.2-3.2-1.6-3.8c-1.5-0.7-2.8,0.5-4,1.2C432.9,12.7,433.6,14,434.5,13.5L434.5,13.5z"/>
	</g>
</g>
<g id="XMLID_1994_">
	<g id="XMLID_156_">
		<path id="XMLID_160_" class="st0" d="M440.6,11.2c-0.6,2.4-1.3,7.1,2.6,6.9c2.9-0.1,3.8-4.8,3.3-7c-0.2-0.9-1.4-0.6-1.5,0.2
			c-0.2,2.1-0.2,4.2-0.2,6.3c0,1,1.5,1,1.5,0c0-2.1,0-4.2,0.2-6.3c-0.5,0.1-1,0.1-1.5,0.2c0.3,1.3-0.2,4.6-1.7,5
			c-2.4,0.6-1.6-3.6-1.2-4.8C442.3,10.7,440.9,10.3,440.6,11.2L440.6,11.2z"/>
	</g>
</g>
<g id="XMLID_1987_">
	<g id="XMLID_150_">
		<path id="XMLID_154_" class="st0" d="M448.2,9.6c-0.2,2.3-0.2,4.6,0.1,6.9c0.1,1.1,0.6,2.3,2,1.9c0.9-0.3,0.5-1.7-0.4-1.4
			c-0.1,0-0.2-6.7-0.2-7.3C449.8,8.6,448.3,8.6,448.2,9.6L448.2,9.6z"/>
	</g>
</g>
<g id="XMLID_1980_">
	<g id="XMLID_144_">
		<path id="XMLID_148_" class="st0" d="M447.1,11.8c0.3,0.5,0.9,0.5,1.4,0.5c0.6,0,1.2,0,1.8,0c1,0,1-1.5,0-1.5c-0.4,0-0.8,0-1.2,0
			c-0.3,0-0.8,0.1-1.1,0c0.1,0.1,0.3,0.2,0.4,0.3c0,0,0-0.1,0-0.1C448,10.2,446.7,11,447.1,11.8L447.1,11.8z"/>
	</g>
</g>
<g id="XMLID_1973_">
	<g id="XMLID_138_">
		<path id="XMLID_142_" class="st0" d="M452,11.9c0,0.1,0.1,0.3,0.1,0.4c0.3,0.9,1.7,0.5,1.4-0.4c0-0.1-0.1-0.3-0.1-0.4
			C453.1,10.5,451.7,10.9,452,11.9L452,11.9z"/>
	</g>
</g>
<g id="XMLID_1966_">
	<g id="XMLID_132_">
		<path id="XMLID_136_" class="st0" d="M452.1,17.5c0.1,0.3,0.3,0.6,0.5,0.7c0.4,0.2,0.8,0.1,1-0.3c0.2-0.3,0.1-0.9-0.3-1
			c0,0.1,0.1,0.1,0.1,0.2C453.4,16.1,452,16.5,452.1,17.5L452.1,17.5z"/>
	</g>
</g>
<g id="XMLID_1959_">
	<g id="XMLID_126_">
		<path id="XMLID_130_" class="st0" d="M458.5,8.8c0.1,3,0.1,5.9,0.1,8.9c0,1,1.5,1,1.5,0c0-3,0-5.9-0.1-8.9
			C460,7.8,458.5,7.8,458.5,8.8L458.5,8.8z"/>
	</g>
</g>
<g id="XMLID_1952_">
	<g id="XMLID_120_">
		<path id="XMLID_124_" class="st0" d="M459.9,13.2c0.7-0.4,1.6-1.1,2.5-0.8c0.8,0.2,1,1.1,1,1.8c0,1.8-1.6,3.2-3.2,1.9
			c-0.8-0.6-1.5,0.7-0.8,1.3c2.6,1.9,5.5-0.3,5.5-3.2c0-1.2-0.5-2.5-1.6-3.1c-1.4-0.7-2.9,0-4.1,0.8
			C458.4,12.5,459.1,13.8,459.9,13.2L459.9,13.2z"/>
	</g>
</g>
<g id="XMLID_1945_">
	<g id="XMLID_114_">
		<path id="XMLID_118_" class="st0" d="M465.9,11.6c0.1,2.1-0.4,4.1-0.1,6.2c0.1,1,1.6,0.5,1.4-0.4c-0.3-1.9,0.2-3.9,0.1-5.8
			C467.3,10.7,465.8,10.7,465.9,11.6L465.9,11.6z"/>
	</g>
</g>
<g id="XMLID_1938_">
	<g id="XMLID_108_">
		<path id="XMLID_112_" class="st0" d="M467.5,9.3c0-0.1,0-0.1,0-0.2c0-1-1.5-1-1.5,0c0,0.1,0,0.1,0,0.2
			C466,10.3,467.5,10.3,467.5,9.3L467.5,9.3z"/>
	</g>
</g>
<g id="XMLID_38_">
	<g id="XMLID_102_">
		<path id="XMLID_106_" class="st0" d="M468.7,12.3c1,0,2.1,0.1,3.1,0c1,0,1-1.5,0-1.5c-1,0-2.1,0-3.1,0
			C467.7,10.7,467.7,12.2,468.7,12.3L468.7,12.3z"/>
	</g>
</g>
<g id="XMLID_1252_">
	<g id="XMLID_96_">
		<path id="XMLID_100_" class="st0" d="M468,35.3c1.7-0.1,3.2-0.2,4.8,0c1.1,0.1,3.2-0.5,4.1-0.1c1.7,0.7,1,4.3,0.9,5.8
			c-0.1,1.8,0.1,4.2-0.8,5.7c-0.8,1.3-1.3,1-2.7,1c-1,0-2,0-3-0.1c-1.4,0-2.7,0.3-3.4-1.4c-0.2-0.5-0.1-1.5-0.1-2
			c-0.1-1.7-0.1-3.4,0-5.1c0-0.6-0.1-2.2,0.1-2.8c0.6-1.3,2.1-1.2,3.3-1.2c0.5,0,0.5-0.7,0-0.8c-1.2-0.1-3.1-0.6-3.8,0.7
			c-0.6,1-0.3,3-0.3,4.1c-0.1,1.6-0.1,3.1,0,4.7c0.1,1.1-0.5,3.7,0.7,4.4c0.7,0.5,2.4,0.2,3.2,0.2c1.9,0,3.7,0.1,5.6,0
			c1.4-0.1,1.8-0.2,2-1.7c0.3-3.2,0.4-6.6,0.4-9.9c0-1.8,0.1-2.3-1.8-2.3c-3-0.1-6-0.1-9,0.1C467.5,34.6,467.5,35.4,468,35.3
			L468,35.3z"/>
	</g>
</g>
<g id="XMLID_1253_">
	<g id="XMLID_90_">
		<path id="XMLID_94_" class="st0" d="M425.4,35.3c1.7-0.1,3.2-0.2,4.8,0c1.1,0.1,3.2-0.5,4.1-0.1c1.7,0.7,1,4.3,0.9,5.8
			c-0.1,1.8,0.1,4.2-0.8,5.7c-0.8,1.3-1.3,1-2.7,1c-1,0-2,0-3-0.1c-1.4,0-2.7,0.3-3.4-1.4c-0.2-0.5-0.1-1.5-0.1-2
			c-0.1-1.7-0.1-3.4,0-5.1c0-0.6-0.1-2.2,0.1-2.8c0.6-1.3,2.1-1.2,3.3-1.2c0.5,0,0.5-0.7,0-0.8c-1.2-0.1-3.1-0.6-3.8,0.7
			c-0.6,1-0.3,3-0.3,4.1c-0.1,1.6-0.1,3.1,0,4.7c0.1,1.1-0.5,3.7,0.7,4.4c0.7,0.5,2.4,0.2,3.2,0.2c1.9,0,3.7,0.1,5.6,0
			c1.4-0.1,1.8-0.2,2-1.7c0.3-3.2,0.4-6.6,0.4-9.9c0-1.8,0.1-2.3-1.8-2.3c-3-0.1-6-0.1-9,0.1C425,34.6,425,35.4,425.4,35.3
			L425.4,35.3z"/>
	</g>
</g>
<g id="XMLID_472_">
	<g id="XMLID_84_">
		<path id="XMLID_88_" class="st0" d="M425.4,63.7c1.7-0.1,3.2-0.2,4.8,0c1.1,0.1,3.2-0.5,4.1-0.1c1.7,0.7,1,4.3,0.9,5.8
			c-0.1,1.8,0.1,4.2-0.8,5.7c-0.8,1.3-1.3,1-2.7,1c-1,0-2,0-3-0.1c-1.4,0-2.7,0.3-3.4-1.4c-0.2-0.5-0.1-1.5-0.1-2
			c-0.1-1.7-0.1-3.4,0-5.1c0-0.6-0.1-2.2,0.1-2.8c0.6-1.3,2.1-1.2,3.3-1.2c0.5,0,0.5-0.7,0-0.8c-1.2-0.1-3.1-0.6-3.8,0.7
			c-0.6,1-0.3,3-0.3,4.1c-0.1,1.6-0.1,3.1,0,4.7c0.1,1.1-0.5,3.7,0.7,4.4c0.7,0.5,2.4,0.2,3.2,0.2c1.9,0,3.7,0.1,5.6,0
			c1.4-0.1,1.8-0.2,2-1.7c0.3-3.2,0.4-6.6,0.4-9.9c0-1.8,0.1-2.3-1.8-2.3c-3-0.1-6-0.1-9,0.1C425,63,425,63.7,425.4,63.7L425.4,63.7
			z"/>
	</g>
</g>
<g id="XMLID_633_">
	<g id="XMLID_78_">
		<path id="XMLID_82_" class="st0" d="M425.4,92c1.7-0.1,3.2-0.2,4.8,0c1.1,0.1,3.2-0.5,4.1-0.1c1.7,0.7,1,4.3,0.9,5.8
			c-0.1,1.8,0.1,4.2-0.8,5.7c-0.8,1.3-1.3,1-2.7,1c-1,0-2,0-3-0.1c-1.4,0-2.7,0.3-3.4-1.4c-0.2-0.5-0.1-1.5-0.1-2
			c-0.1-1.7-0.1-3.4,0-5.1c0-0.6-0.1-2.2,0.1-2.8c0.6-1.3,2.1-1.2,3.3-1.2c0.5,0,0.5-0.7,0-0.8c-1.2-0.1-3.1-0.6-3.8,0.7
			c-0.6,1-0.3,3-0.3,4.1c-0.1,1.6-0.1,3.1,0,4.7c0.1,1.1-0.5,3.7,0.7,4.4c0.7,0.5,2.4,0.2,3.2,0.2c1.9,0,3.7,0.1,5.6,0
			c1.4-0.1,1.8-0.2,2-1.7c0.3-3.2,0.4-6.6,0.4-9.9c0-1.8,0.1-2.3-1.8-2.3c-3-0.1-6-0.1-9,0.1C425,91.3,425,92.1,425.4,92L425.4,92z"
			/>
	</g>
</g>
<g id="XMLID_1206_">
	<g id="XMLID_72_">
		<path id="XMLID_76_" class="st0" d="M425.4,120.4c1.7-0.1,3.2-0.2,4.8,0c1.1,0.1,3.2-0.5,4.1-0.1c1.7,0.7,1,4.3,0.9,5.8
			c-0.1,1.8,0.1,4.2-0.8,5.7c-0.8,1.3-1.3,1-2.7,1c-1,0-2,0-3-0.1c-1.4,0-2.7,0.3-3.4-1.4c-0.2-0.5-0.1-1.5-0.1-2
			c-0.1-1.7-0.1-3.4,0-5.1c0-0.6-0.1-2.2,0.1-2.8c0.6-1.3,2.1-1.2,3.3-1.2c0.5,0,0.5-0.7,0-0.8c-1.2-0.1-3.1-0.6-3.8,0.7
			c-0.6,1-0.3,3-0.3,4.1c-0.1,1.6-0.1,3.1,0,4.7c0.1,1.1-0.5,3.7,0.7,4.4c0.7,0.5,2.4,0.2,3.2,0.2c1.9,0,3.7,0.1,5.6,0
			c1.4-0.1,1.8-0.2,2-1.7c0.3-3.2,0.4-6.6,0.4-9.9c0-1.8,0.1-2.3-1.8-2.3c-3-0.1-6-0.1-9,0.1C425,119.7,425,120.4,425.4,120.4
			L425.4,120.4z"/>
	</g>
</g>
<g id="XMLID_1311_">
	<g id="XMLID_66_">
		<path id="XMLID_70_" class="st0" d="M354.6,120.4c1.7-0.1,3.2-0.2,4.8,0c1.1,0.1,3.2-0.5,4.1-0.1c1.7,0.7,1,4.3,0.9,5.8
			c-0.1,1.8,0.1,4.2-0.8,5.7c-0.8,1.3-1.3,1-2.7,1c-1,0-2,0-3-0.1c-1.4,0-2.7,0.3-3.4-1.4c-0.2-0.5-0.1-1.5-0.1-2
			c-0.1-1.7-0.1-3.4,0-5.1c0-0.6-0.1-2.2,0.1-2.8c0.6-1.3,2.1-1.2,3.3-1.2c0.5,0,0.5-0.7,0-0.8c-1.2-0.1-3.1-0.6-3.8,0.7
			c-0.6,1-0.3,3-0.3,4.1c-0.1,1.6-0.1,3.1,0,4.7c0.1,1.1-0.5,3.7,0.7,4.4c0.7,0.5,2.4,0.2,3.2,0.2c1.9,0,3.7,0.1,5.6,0
			c1.4-0.1,1.8-0.2,2-1.7c0.3-3.2,0.4-6.6,0.4-9.9c0-1.8,0.1-2.3-1.8-2.3c-3-0.1-6-0.1-9,0.1C354.1,119.7,354.1,120.4,354.6,120.4
			L354.6,120.4z"/>
	</g>
</g>
<g id="XMLID_1334_">
	<g id="XMLID_60_">
		<path id="XMLID_64_" class="st0" d="M354.6,63.7c1.7-0.1,3.2-0.2,4.8,0c1.1,0.1,3.2-0.5,4.1-0.1c1.7,0.7,1,4.3,0.9,5.8
			c-0.1,1.8,0.1,4.2-0.8,5.7c-0.8,1.3-1.3,1-2.7,1c-1,0-2,0-3-0.1c-1.4,0-2.7,0.3-3.4-1.4c-0.2-0.5-0.1-1.5-0.1-2
			c-0.1-1.7-0.1-3.4,0-5.1c0-0.6-0.1-2.2,0.1-2.8c0.6-1.3,2.1-1.2,3.3-1.2c0.5,0,0.5-0.7,0-0.8c-1.2-0.1-3.1-0.6-3.8,0.7
			c-0.6,1-0.3,3-0.3,4.1c-0.1,1.6-0.1,3.1,0,4.7c0.1,1.1-0.5,3.7,0.7,4.4c0.7,0.5,2.4,0.2,3.2,0.2c1.9,0,3.7,0.1,5.6,0
			c1.4-0.1,1.8-0.2,2-1.7c0.3-3.2,0.4-6.6,0.4-9.9c0-1.8,0.1-2.3-1.8-2.3c-3-0.1-6-0.1-9,0.1C354.1,63,354.1,63.7,354.6,63.7
			L354.6,63.7z"/>
	</g>
</g>
<g id="XMLID_1370_">
	<g id="XMLID_54_">
		<path id="XMLID_58_" class="st0" d="M468,120.4c1.7-0.1,3.2-0.2,4.8,0c1.1,0.1,3.2-0.5,4.1-0.1c1.7,0.7,1,4.3,0.9,5.8
			c-0.1,1.8,0.1,4.2-0.8,5.7c-0.8,1.3-1.3,1-2.7,1c-1,0-2,0-3-0.1c-1.4,0-2.7,0.3-3.4-1.4c-0.2-0.5-0.1-1.5-0.1-2
			c-0.1-1.7-0.1-3.4,0-5.1c0-0.6-0.1-2.2,0.1-2.8c0.6-1.3,2.1-1.2,3.3-1.2c0.5,0,0.5-0.7,0-0.8c-1.2-0.1-3.1-0.6-3.8,0.7
			c-0.6,1-0.3,3-0.3,4.1c-0.1,1.6-0.1,3.1,0,4.7c0.1,1.1-0.5,3.7,0.7,4.4c0.7,0.5,2.4,0.2,3.2,0.2c1.9,0,3.7,0.1,5.6,0
			c1.4-0.1,1.8-0.2,2-1.7c0.3-3.2,0.4-6.6,0.4-9.9c0-1.8,0.1-2.3-1.8-2.3c-3-0.1-6-0.1-9,0.1C467.5,119.7,467.5,120.4,468,120.4
			L468,120.4z"/>
	</g>
</g>
</svg>
