<?xml version="1.0" encoding="utf-8"?>
<!-- Generator: Adobe Illustrator 19.0.0, SVG Export Plug-In . SVG Version: 6.00 Build 0)  -->
<svg version="1.1" id="Layer_1" xmlns="http://www.w3.org/2000/svg" xmlns:xlink="http://www.w3.org/1999/xlink" x="0px" y="0px"
	 viewBox="0 0 595.3 116.5" style="enable-background:new 0 0 595.3 116.5;" xml:space="preserve">
<style type="text/css">
	.st0{fill:#161616;}
	.st1{opacity:0.5;}
</style>
<g id="XMLID_500_">
	<g id="XMLID_1473_">
		<path id="XMLID_1478_" class="st0" d="M205,27c-1.6,0-3.2,0.1-4.8,0.1c-0.9,0-0.9,1.4,0,1.3c1.6,0,3.2-0.1,4.8-0.1
			C205.9,28.4,205.9,27,205,27L205,27z"/>
	</g>
</g>
<g id="XMLID_501_">
	<g id="XMLID_1466_">
		<path id="XMLID_1471_" class="st0" d="M210.2,26.6c-2.2,0.7-3.4,3-3.5,5.2c-0.1,2.5,1.3,3.9,3.4,5c0.6,0.3,1.2-0.7,0.6-1
			c-1.3-0.7-2.5-1.3-2.8-2.9c-0.4-2,0.6-4.7,2.6-5.3C211.2,27.5,210.9,26.4,210.2,26.6L210.2,26.6z"/>
	</g>
</g>
<g id="XMLID_502_">
	<g id="XMLID_1459_">
		<path id="XMLID_1464_" class="st0" d="M216.5,27.6c3.5,1.5,3.4,7,0,8.4c-0.7,0.3-0.4,1.4,0.3,1.1c2.2-0.9,3.4-2.7,3.4-5.1
			c0-2.1-1.1-4.5-3.1-5.3C216.4,26.3,215.9,27.3,216.5,27.6L216.5,27.6z"/>
	</g>
</g>
<g id="XMLID_505_">
	<g id="XMLID_1453_">
		<path id="XMLID_1457_" class="st0" d="M211.2,29.6c0.7-0.2,1.2,1.6,1.4,2c0.4,0.7,0.8,1.3,1.2,1.9c0.7,1,1.4,1.8,2.6,1.6
			c0.7-0.1,0.4-1.2-0.3-1.1c-1.2,0.3-2.6-3.1-3-3.9c-0.4-1-1.1-1.9-2.3-1.6C210.2,28.6,210.5,29.7,211.2,29.6L211.2,29.6z"/>
	</g>
</g>
<g id="XMLID_507_">
	<g id="XMLID_1447_">
		<path id="XMLID_1451_" class="st0" d="M211.4,35c1.4-2,3-3.9,4.7-5.7c0.5-0.5-0.3-1.3-0.8-0.8c-1.7,1.9-3.4,3.8-4.8,5.9
			C210,35.1,211,35.6,211.4,35L211.4,35z"/>
	</g>
</g>
<g id="XMLID_41_">
	<g id="XMLID_1441_">
		<path id="XMLID_1445_" class="st0" d="M227,31c1.4,0.1,2.8,0,4.3-0.1c0.7-0.1,0.7-1.2,0-1.1c-1.4,0.2-2.8,0.2-4.3,0.1
			C226.3,29.9,226.3,31,227,31L227,31z"/>
	</g>
</g>
<g id="XMLID_508_">
	<g id="XMLID_1434_">
		<path id="XMLID_1439_" class="st0" d="M226.8,33.8c1.7,0,3.4,0,5-0.1c0.7,0,0.7-1.2,0-1.1c-1.7,0.1-3.4,0.1-5,0.1
			C226.1,32.6,226.1,33.8,226.8,33.8L226.8,33.8z"/>
	</g>
</g>
<g id="XMLID_566_">
	<g id="XMLID_1427_">
		<path id="XMLID_1432_" class="st0" d="M239.9,29.5c0.7-0.2,1.2,1.6,1.4,2c0.4,0.7,0.8,1.3,1.2,1.9c0.7,1,1.4,1.8,2.6,1.6
			c0.7-0.1,0.4-1.2-0.3-1.1c-1.2,0.3-2.6-3.1-3-3.9c-0.4-1-1.1-1.9-2.3-1.6C238.9,28.6,239.2,29.7,239.9,29.5L239.9,29.5z"/>
	</g>
</g>
<g id="XMLID_545_">
	<g id="XMLID_1419_">
		<path id="XMLID_1425_" class="st0" d="M240.1,35c1.4-2,3-3.9,4.7-5.7c0.5-0.5-0.3-1.3-0.8-0.8c-1.7,1.9-3.4,3.8-4.8,5.9
			C238.7,35,239.6,35.6,240.1,35L240.1,35z"/>
	</g>
</g>
<g id="XMLID_492_">
	<g id="XMLID_1412_">
		<path id="XMLID_1417_" class="st0" d="M207.2,23.2c-6.9-2.4-4.6,10.3-6.2,13.1c-0.4,0.8,0.7,1.4,1.2,0.7
			c1.4-2.5-0.1-14.1,4.6-12.5C207.7,24.7,208.1,23.5,207.2,23.2L207.2,23.2z"/>
	</g>
</g>
<g id="XMLID_589_">
	<g id="XMLID_1406_">
		<path id="XMLID_1410_" class="st0" d="M205,52.5c-1.6,0-3.2,0.1-4.8,0.1c-0.9,0-0.9,1.4,0,1.3c1.6,0,3.2-0.1,4.8-0.1
			C205.9,53.8,205.9,52.4,205,52.5L205,52.5z"/>
	</g>
</g>
<g id="XMLID_570_">
	<g id="XMLID_1400_">
		<path id="XMLID_1404_" class="st0" d="M210.2,52c-2.2,0.7-3.4,3-3.5,5.2c-0.1,2.5,1.3,3.9,3.4,5c0.6,0.3,1.2-0.7,0.6-1
			c-1.3-0.7-2.5-1.3-2.8-2.9c-0.4-2,0.6-4.7,2.6-5.3C211.2,52.9,210.9,51.8,210.2,52L210.2,52z"/>
	</g>
</g>
<g id="XMLID_565_">
	<g id="XMLID_1393_">
		<path id="XMLID_1397_" class="st0" d="M216.5,53c3.5,1.5,3.4,7,0,8.4c-0.7,0.3-0.4,1.4,0.3,1.1c2.2-0.9,3.4-2.7,3.4-5.1
			c0-2.1-1.1-4.5-3.1-5.3C216.4,51.8,215.9,52.7,216.5,53L216.5,53z"/>
	</g>
</g>
<g id="XMLID_564_">
	<g id="XMLID_1386_">
		<path id="XMLID_1390_" class="st0" d="M211.2,55c0.7-0.2,1.2,1.6,1.4,2c0.4,0.7,0.8,1.3,1.2,1.9c0.7,1,1.4,1.8,2.6,1.6
			c0.7-0.1,0.4-1.2-0.3-1.1c-1.2,0.3-2.6-3.1-3-3.9c-0.4-1-1.1-1.9-2.3-1.6C210.2,54.1,210.5,55.1,211.2,55L211.2,55z"/>
	</g>
</g>
<g id="XMLID_557_">
	<g id="XMLID_1378_">
		<path id="XMLID_1382_" class="st0" d="M211.4,60.4c1.4-2,3-3.9,4.7-5.7c0.5-0.5-0.3-1.3-0.8-0.8c-1.7,1.9-3.4,3.8-4.8,5.9
			C210,60.5,211,61,211.4,60.4L211.4,60.4z"/>
	</g>
</g>
<g id="XMLID_551_">
	<g id="XMLID_1371_">
		<path id="XMLID_1375_" class="st0" d="M227,56.4c1.4,0.1,2.8,0,4.3-0.1c0.7-0.1,0.7-1.2,0-1.1c-1.4,0.2-2.8,0.2-4.3,0.1
			C226.3,55.3,226.3,56.4,227,56.4L227,56.4z"/>
	</g>
</g>
<g id="XMLID_539_">
	<g id="XMLID_1364_">
		<path id="XMLID_1368_" class="st0" d="M226.8,59.2c1.7,0,3.4,0,5-0.1c0.7,0,0.7-1.2,0-1.1c-1.7,0.1-3.4,0.1-5,0.1
			C226.1,58,226.1,59.2,226.8,59.2L226.8,59.2z"/>
	</g>
</g>
<g id="XMLID_506_">
	<g id="XMLID_1357_">
		<path id="XMLID_1361_" class="st0" d="M246.8,55c0.7-0.2,1.2,1.6,1.4,2c0.4,0.7,0.8,1.3,1.2,1.9c0.7,1,1.4,1.8,2.6,1.6
			c0.7-0.1,0.4-1.2-0.3-1.1c-1.2,0.3-2.6-3.1-3-3.9c-0.4-1-1.1-1.9-2.3-1.6C245.8,54.1,246.1,55.1,246.8,55L246.8,55z"/>
	</g>
</g>
<g id="XMLID_504_">
	<g id="XMLID_1350_">
		<path id="XMLID_1354_" class="st0" d="M247,60.4c1.4-2,3-3.9,4.7-5.7c0.5-0.5-0.3-1.3-0.8-0.8c-1.7,1.9-3.4,3.8-4.8,5.9
			C245.6,60.5,246.6,61,247,60.4L247,60.4z"/>
	</g>
</g>
<g id="XMLID_499_">
	<g id="XMLID_1342_">
		<path id="XMLID_1346_" class="st0" d="M207.2,48.6c-6.9-2.4-4.6,10.3-6.2,13.1c-0.4,0.8,0.7,1.4,1.2,0.7
			c1.4-2.5-0.1-14.1,4.6-12.5C207.7,50.2,208.1,48.9,207.2,48.6L207.2,48.6z"/>
	</g>
</g>
<g id="XMLID_590_">
	<g id="XMLID_1335_">
		<path id="XMLID_1339_" class="st0" d="M239,57.3c1.9-0.2,3.9-0.1,5.9-0.2c-0.1-0.2-0.3-0.4-0.4-0.5c-0.2,1.1-0.2,2.2-0.1,3.3
			c0,0.5,0.9,0.5,0.9,0c-0.1-1.1-0.1-2,0.1-3.1c0-0.3-0.1-0.6-0.4-0.5c-2,0.1-3.9,0.1-5.9,0.2C238.5,56.5,238.5,57.4,239,57.3
			L239,57.3z"/>
	</g>
</g>
<g id="XMLID_705_">
	<g id="XMLID_1327_">
		<path id="XMLID_1331_" class="st0" d="M205,77.9c-1.6,0-3.2,0.1-4.8,0.1c-0.9,0-0.9,1.4,0,1.3c1.6,0,3.2-0.1,4.8-0.1
			C205.9,79.2,205.9,77.8,205,77.9L205,77.9z"/>
	</g>
</g>
<g id="XMLID_680_">
	<g id="XMLID_1321_">
		<path id="XMLID_1325_" class="st0" d="M210.2,77.5c-2.2,0.7-3.4,3-3.5,5.2c-0.1,2.5,1.3,3.9,3.4,5c0.6,0.3,1.2-0.7,0.6-1
			c-1.3-0.7-2.5-1.3-2.8-2.9c-0.4-2,0.6-4.7,2.6-5.3C211.2,78.3,210.9,77.2,210.2,77.5L210.2,77.5z"/>
	</g>
</g>
<g id="XMLID_655_">
	<g id="XMLID_1314_">
		<path id="XMLID_1318_" class="st0" d="M216.5,78.4c3.5,1.5,3.4,7,0,8.4c-0.7,0.3-0.4,1.4,0.3,1.1c2.2-0.9,3.4-2.7,3.4-5.1
			c0-2.1-1.1-4.5-3.1-5.3C216.4,77.2,215.9,78.1,216.5,78.4L216.5,78.4z"/>
	</g>
</g>
<g id="XMLID_648_">
	<g id="XMLID_1305_">
		<path id="XMLID_1309_" class="st0" d="M211.2,80.4c0.7-0.2,1.2,1.6,1.4,2c0.4,0.7,0.8,1.3,1.2,1.9c0.7,1,1.4,1.8,2.6,1.6
			c0.7-0.1,0.4-1.2-0.3-1.1c-1.2,0.3-2.6-3.1-3-3.9c-0.4-1-1.1-1.9-2.3-1.6C210.2,79.5,210.5,80.5,211.2,80.4L211.2,80.4z"/>
	</g>
</g>
<g id="XMLID_647_">
	<g id="XMLID_1298_">
		<path id="XMLID_1302_" class="st0" d="M211.4,85.8c1.4-2,3-3.9,4.7-5.7c0.5-0.5-0.3-1.3-0.8-0.8c-1.7,1.9-3.4,3.8-4.8,5.9
			C210,85.9,211,86.4,211.4,85.8L211.4,85.8z"/>
	</g>
</g>
<g id="XMLID_608_">
	<g id="XMLID_1291_">
		<path id="XMLID_1295_" class="st0" d="M227,81.8c1.4,0.1,2.8,0,4.3-0.1c0.7-0.1,0.7-1.2,0-1.1c-1.4,0.2-2.8,0.2-4.3,0.1
			C226.3,80.7,226.3,81.8,227,81.8L227,81.8z"/>
	</g>
</g>
<g id="XMLID_596_">
	<g id="XMLID_1283_">
		<path id="XMLID_1287_" class="st0" d="M226.8,84.6c1.7,0,3.4,0,5-0.1c0.7,0,0.7-1.2,0-1.1c-1.7,0.1-3.4,0.1-5,0.1
			C226.1,83.4,226.1,84.6,226.8,84.6L226.8,84.6z"/>
	</g>
</g>
<g id="XMLID_592_">
	<g id="XMLID_1276_">
		<path id="XMLID_1280_" class="st0" d="M207.2,74c-6.9-2.4-4.6,10.3-6.2,13.1c-0.4,0.8,0.7,1.4,1.2,0.7c1.4-2.5-0.1-14.1,4.6-12.5
			C207.7,75.6,208.1,74.3,207.2,74L207.2,74z"/>
	</g>
</g>
<g id="XMLID_712_">
	<g id="XMLID_1270_">
		<path id="XMLID_1274_" class="st0" d="M205,103.3c-1.6,0-3.2,0.1-4.8,0.1c-0.9,0-0.9,1.4,0,1.3c1.6,0,3.2-0.1,4.8-0.1
			C205.9,104.6,205.9,103.2,205,103.3L205,103.3z"/>
	</g>
</g>
<g id="XMLID_711_">
	<g id="XMLID_1263_">
		<path id="XMLID_1268_" class="st0" d="M210.2,102.9c-2.2,0.7-3.4,3-3.5,5.2c-0.1,2.5,1.3,3.9,3.4,5c0.6,0.3,1.2-0.7,0.6-1
			c-1.3-0.7-2.5-1.3-2.8-2.9c-0.4-2,0.6-4.7,2.6-5.3C211.2,103.7,210.9,102.6,210.2,102.9L210.2,102.9z"/>
	</g>
</g>
<g id="XMLID_710_">
	<g id="XMLID_1257_">
		<path id="XMLID_1261_" class="st0" d="M216.5,103.8c3.5,1.5,3.4,7,0,8.4c-0.7,0.3-0.4,1.4,0.3,1.1c2.2-0.9,3.4-2.7,3.4-5.1
			c0-2.1-1.1-4.5-3.1-5.3C216.4,102.6,215.9,103.5,216.5,103.8L216.5,103.8z"/>
	</g>
</g>
<g id="XMLID_709_">
	<g id="XMLID_1248_">
		<path id="XMLID_1255_" class="st0" d="M211.2,105.8c0.7-0.2,1.2,1.6,1.4,2c0.4,0.7,0.8,1.3,1.2,1.9c0.7,1,1.4,1.8,2.6,1.6
			c0.7-0.1,0.4-1.2-0.3-1.1c-1.2,0.3-2.6-3.1-3-3.9c-0.4-1-1.1-1.9-2.3-1.6C210.2,104.9,210.5,105.9,211.2,105.8L211.2,105.8z"/>
	</g>
</g>
<g id="XMLID_708_">
	<g id="XMLID_1241_">
		<path id="XMLID_1246_" class="st0" d="M211.4,111.3c1.4-2,3-3.9,4.7-5.7c0.5-0.5-0.3-1.3-0.8-0.8c-1.7,1.9-3.4,3.8-4.8,5.9
			C210,111.3,211,111.8,211.4,111.3L211.4,111.3z"/>
	</g>
</g>
<g id="XMLID_707_">
	<g id="XMLID_1234_">
		<path id="XMLID_1239_" class="st0" d="M227,107.3c1.4,0.1,2.8,0,4.3-0.1c0.7-0.1,0.7-1.2,0-1.1c-1.4,0.2-2.8,0.2-4.3,0.1
			C226.3,106.1,226.3,107.2,227,107.3L227,107.3z"/>
	</g>
</g>
<g id="XMLID_706_">
	<g id="XMLID_1227_">
		<path id="XMLID_1231_" class="st0" d="M226.8,110c1.7,0,3.4,0,5-0.1c0.7,0,0.7-1.2,0-1.1c-1.7,0.1-3.4,0.1-5,0.1
			C226.1,108.9,226.1,110,226.8,110L226.8,110z"/>
	</g>
</g>
<g id="XMLID_594_">
	<g id="XMLID_1220_">
		<path id="XMLID_1224_" class="st0" d="M207.2,99.4c-6.9-2.4-4.6,10.3-6.2,13.1c-0.4,0.8,0.7,1.4,1.2,0.7
			c1.4-2.5-0.1-14.1,4.6-12.5C207.7,101,208.1,99.7,207.2,99.4L207.2,99.4z"/>
	</g>
</g>
<g id="XMLID_715_">
	<g id="XMLID_1212_">
		<path id="XMLID_1216_" class="st0" d="M241.8,78.7c-3.5-0.4-3.4,8,0.7,7.2c1.7-0.3,1.9-3,1.8-4.3c-0.1-2.3-1.2-3.3-3.5-3
			c-0.7,0.1-0.4,1.2,0.3,1.1c0.9-0.1,1.5-0.2,1.9,0.9c0.2,0.4,0.2,1.1,0.2,1.6c0,0.9-0.1,2.1-0.9,2.4c-2.4,1-2.4-5-0.5-4.8
			C242.5,79.9,242.5,78.8,241.8,78.7L241.8,78.7z"/>
	</g>
</g>
<g id="XMLID_717_">
	<g id="XMLID_1204_">
		<path id="XMLID_1209_" class="st0" d="M240.4,106.6c0.8-0.6,1.7-1.2,2.5-1.7c-0.3-0.2-0.5-0.4-0.8-0.6c-0.4,2.2-0.6,4.4-0.5,6.6
			c0,0.7,1.1,0.7,1.1,0c-0.1-2.1,0.1-4.2,0.5-6.3c0.1-0.4-0.4-0.9-0.8-0.6c-0.8,0.6-1.7,1.2-2.5,1.7
			C239.2,106,239.8,107,240.4,106.6L240.4,106.6z"/>
	</g>
</g>
<g id="XMLID_718_">
	<g id="XMLID_1178_">
		<path id="XMLID_1182_" class="st0" d="M239.6,111.5c1.5,0,3-0.1,4.4-0.1c0.7,0,0.7-1.2,0-1.1c-1.5,0.1-3,0.1-4.4,0.1
			C238.9,110.4,238.9,111.5,239.6,111.5L239.6,111.5z"/>
	</g>
</g>
<g id="XMLID_1166_">
	<g id="XMLID_1198_">
		<path id="XMLID_1202_" class="st0" d="M156,77.8c-3.6-0.4-3.5,8.1,0.7,7.4c1.7-0.3,2-3.1,1.9-4.5c-0.1-2.3-1.2-3.4-3.5-3
			c-0.7,0.1-0.4,1.2,0.3,1.1c0.9-0.1,1.5-0.2,2,0.9c0.2,0.4,0.2,1.1,0.2,1.6c0,0.9-0.1,2.1-1,2.5c-2.5,1-2.5-5.1-0.5-4.9
			C156.7,79,156.7,77.9,156,77.8L156,77.8z"/>
	</g>
</g>
<g id="XMLID_1159_">
	<g id="XMLID_1190_">
		<path id="XMLID_1196_" class="st0" d="M154.5,106.4c0.9-0.6,1.7-1.2,2.6-1.8c-0.3-0.2-0.5-0.4-0.8-0.6c-0.4,2.3-0.6,4.5-0.5,6.8
			c0,0.7,1.1,0.7,1.1,0c-0.1-2.2,0.1-4.4,0.5-6.5c0.1-0.4-0.4-0.9-0.8-0.6c-0.9,0.6-1.7,1.2-2.6,1.8
			C153.3,105.9,153.9,106.8,154.5,106.4L154.5,106.4z"/>
	</g>
</g>
<g id="XMLID_795_">
	<g id="XMLID_1184_">
		<path id="XMLID_1188_" class="st0" d="M153.7,111.5c1.5,0,3-0.1,4.6-0.1c0.7,0,0.7-1.2,0-1.1c-1.5,0.1-3,0.1-4.6,0.1
			C152.9,110.4,152.9,111.5,153.7,111.5L153.7,111.5z"/>
	</g>
</g>
<g id="XMLID_841_">
	<g id="XMLID_1172_">
		<path id="XMLID_1176_" class="st0" d="M101.5,24.6c-0.2,3.2-0.2,6.3-0.2,9.5c0,0.7,1.1,0.7,1.1,0c0-3.2,0-6.4,0.2-9.5
			C102.6,23.9,101.5,23.9,101.5,24.6L101.5,24.6z"/>
	</g>
</g>
<g id="XMLID_842_">
	<g id="XMLID_1165_">
		<path id="XMLID_1170_" class="st0" d="M109.8,30.3c-0.9-1.6-2.6-2.7-4.4-1.5c-1.4,0.9-1.8,3.7-0.9,5c1,1.3,3.5,1.5,4.7,0.4
			c0.7-0.7,0.8-1.6,0.8-2.5c0.1-1.7,0-3.4-0.1-5.1c0-0.7-1.1-0.7-1.1,0c0,1.2,0.2,2.4,0.2,3.7c0,1.3-0.1,2.6-0.2,3.9
			c0,0.7,1.1,0.7,1.1,0c0.1-1.3,0.2-2.6,0.2-3.9c0-1.2-0.2-2.5-0.2-3.7c-0.4,0-0.7,0-1.1,0c0.1,1.8,1,6.9-1.4,7.1
			c-1.7,0.2-2.4-1.2-2.1-2.7c0.4-2.3,2.6-1.9,3.6-0.3C109.2,31.4,110.1,30.9,109.8,30.3L109.8,30.3z"/>
	</g>
</g>
<g id="XMLID_843_">
	<g id="XMLID_1157_">
		<path id="XMLID_1162_" class="st0" d="M111.5,32.2c1.4,0,2.9,0.2,4.3,0c0.9-0.1,0.9-0.9,0.7-1.7c-0.1-0.9-0.5-1.8-1.4-2.2
			c-0.8-0.4-2-0.3-2.7,0.2c-1.6,1.2-2.1,3.8-0.8,5.3c1.4,1.6,3.8,1.8,4.8-0.3c0.3-0.7-0.7-1.2-1-0.6c-1.1,2.4-4,0.1-3.4-1.9
			c0.2-0.8,0.8-1.8,1.8-1.8c1.1,0,1.8,1.2,1.5,2.2c0.1-0.1,0.3-0.3,0.4-0.4c-0.6,0.2-1.5,0-2.2,0c-0.7,0-1.4,0-2.1,0
			C110.7,31,110.7,32.2,111.5,32.2L111.5,32.2z"/>
	</g>
</g>
<g id="XMLID_844_">
	<g id="XMLID_1150_">
		<path id="XMLID_1154_" class="st0" d="M118.2,28.8c0,1.8,0,3.6,0,5.4c0.4,0,0.7,0,1.1,0c0-0.8,0-1.6,0-2.4c0-1.1,0-2.3,1.5-2.3
			c1.7,0.1,1.4,3.3,1.3,4.6c0,0.7,1.1,0.7,1.1,0c0-1.3,0.1-2.7-0.3-4c-0.4-1.2-0.9-1.8-2.2-1.7c-0.9,0.1-2.1,0.4-2.5,1.4
			c-0.2,0.5-0.1,1.2-0.1,1.8c0,0.9,0,1.7,0,2.6c0,0.7,1.1,0.7,1.1,0c0-1.8,0-3.6,0-5.4C119.4,28.1,118.2,28.1,118.2,28.8L118.2,28.8
			z"/>
	</g>
</g>
<g id="XMLID_845_">
	<g id="XMLID_1142_">
		<path id="XMLID_1148_" class="st0" d="M125.1,26.8c-0.1,1.5-0.2,3.1-0.2,4.6c0,0.9-0.2,2.2,0.3,3c0.6,1,2.4,0.8,2.7-0.3
			c0.2-0.7-0.9-1-1.1-0.3c-0.6-0.1-0.8-0.4-0.8-0.9c0-0.3,0-0.6,0-0.9c0-0.6,0-1.2,0-1.7c0-1.2,0.1-2.3,0.2-3.5
			C126.3,26.1,125.2,26.1,125.1,26.8L125.1,26.8z"/>
	</g>
</g>
<g id="XMLID_846_">
	<g id="XMLID_1134_">
		<path id="XMLID_1140_" class="st0" d="M124.2,29.5c1,0,2,0.1,3,0.1c0.7,0,0.7-1.1,0-1.1c-1,0-2-0.1-3-0.1
			C123.5,28.4,123.5,29.5,124.2,29.5L124.2,29.5z"/>
	</g>
</g>
<g id="XMLID_848_">
	<g id="XMLID_1127_">
		<path id="XMLID_1131_" class="st0" d="M128.6,28.8c0,1.9,0,3.8-0.2,5.7c-0.1,0.7,1.1,0.7,1.1,0c0.2-1.9,0.2-3.8,0.2-5.7
			C129.7,28.1,128.6,28.1,128.6,28.8L128.6,28.8z"/>
	</g>
</g>
<g id="XMLID_850_">
	<g id="XMLID_1120_">
		<path id="XMLID_1124_" class="st0" d="M129.7,27.1C129.7,27.1,129.7,27,129.7,27.1c0-0.8-1.1-0.8-1.1-0.1c0,0,0,0.1,0,0.1
			C128.6,27.8,129.7,27.8,129.7,27.1L129.7,27.1z"/>
	</g>
</g>
<g id="XMLID_857_">
	<g id="XMLID_1113_">
		<path id="XMLID_1117_" class="st0" d="M131.4,26.8c-0.1,1.5-0.3,3-0.3,4.6c0,0.9-0.1,2.3,0.4,3c0.8,1.2,2.5,0.7,2.9-0.5
			c0.2-0.7-0.8-1-1.1-0.3c-0.8,0.2-1.1,0-1-0.6c-0.1-0.3-0.1-0.7-0.1-1.1c0-0.6,0-1.1,0-1.7c0.1-1.1,0.2-2.3,0.2-3.4
			C132.6,26.1,131.4,26.1,131.4,26.8L131.4,26.8z"/>
	</g>
</g>
<g id="XMLID_864_">
	<g id="XMLID_1106_">
		<path id="XMLID_1110_" class="st0" d="M130.9,29.6c0.7,0,1.5,0,2.2,0c0.7,0,0.7-1.1,0-1.1c-0.7,0-1.5,0-2.2,0
			C130.2,28.5,130.2,29.6,130.9,29.6L130.9,29.6z"/>
	</g>
</g>
<g id="XMLID_871_">
	<g id="XMLID_1099_">
		<path id="XMLID_1103_" class="st0" d="M134.5,29c0.7,1.8,1.2,3.9,2.1,5.6c0.2,0.3,0.8,0.4,1,0c0.8-1.7,1.5-3.5,2.1-5.2
			c-0.4-0.1-0.7-0.2-1.1-0.3c-0.4,1.3-0.9,2.5-1.5,3.8c-0.3,0.7-1.2,4-2.3,3.2c-0.6-0.4-1.2,0.6-0.6,1c1.3,0.9,2.4-0.1,2.9-1.3
			c0.9-2,1.9-4.2,2.5-6.4c0.2-0.7-0.9-1-1.1-0.3c-0.6,1.7-1.2,3.4-1.9,5c0.3,0,0.6,0,1,0c-0.9-1.6-1.4-3.6-2-5.3
			C135.3,28,134.2,28.3,134.5,29L134.5,29z"/>
	</g>
</g>
<g id="XMLID_849_">
	<g id="XMLID_1092_">
		<path id="XMLID_1096_" class="st0" d="M102.4,59.8c0-1.3,0.2-2.6,0.1-3.9c-0.1-1.3-0.2-2.6-0.1-3.9c-0.3,0.1-0.7,0.2-1,0.3
			c0.8,1.3,1.9,2.3,2.8,3.5c1,1.5,1.8,3,2.6,4.6c0.2,0.4,0.9,0.3,1-0.1c0.6-2.7,0-5.5,0.4-8.2c0.1-0.7-1-0.7-1.1,0
			c-0.3,2.6,0.3,5.3-0.3,7.9c0.3,0,0.7-0.1,1-0.1c-0.8-1.6-1.6-3.1-2.6-4.6c-0.8-1.3-2-2.2-2.8-3.5c-0.3-0.5-1-0.2-1,0.3
			c-0.1,1.3,0,2.6,0.1,3.9c0.1,1.3-0.1,2.6-0.1,3.9C101.2,60.5,102.4,60.5,102.4,59.8L102.4,59.8z"/>
	</g>
</g>
<g id="XMLID_851_">
	<g id="XMLID_1085_">
		<path id="XMLID_1089_" class="st0" d="M109.8,57.5c0.9,0.1,1.8,0.1,2.8,0.1c0.7,0,1.5,0.1,2.1-0.1c0.9-0.3,0.8-1.5,0.7-2.2
			c-0.5-2-3.5-2.5-5-1.4c-0.8,0.6-1.1,1.6-1.1,2.6c0,1,0.1,2.4,0.9,3.1c1.4,1.3,4.5,1.2,5.2-0.8c0.2-0.7-0.8-1-1.1-0.3
			c-0.5,1.5-3.3,0.9-3.7-0.3c-0.5-1.2-0.3-3.2,1.2-3.6c0.5-0.1,1.1-0.1,1.6,0.1c0.7,0.2,1.6,1.4,0.7,1.9c-0.4,0.2-1.4,0-1.8,0
			c-0.8,0-1.5-0.1-2.3-0.1C109.1,56.3,109.1,57.4,109.8,57.5L109.8,57.5z"/>
	</g>
</g>
<g id="XMLID_858_">
	<g id="XMLID_1079_">
		<path id="XMLID_1083_" class="st0" d="M121.4,56.1c-0.7-1.5-2.1-2.8-3.9-1.9c-1.5,0.8-1.8,3-1.2,4.5c0.6,1.4,2.2,2.3,3.6,1.5
			c1.8-1,1.8-3.9,1.7-5.7c-0.1-0.7-1.1-0.7-1.1,0c-0.1,1.4-0.2,2.7-0.1,4.1c0,0.7,0.2,1.6-0.1,2.2c-0.7,1.8-2.6,1-3.3-0.1
			c-0.4-0.6-1.3-0.1-1,0.6c0.9,1.6,3.2,2.6,4.8,1.1c0.7-0.7,0.7-2,0.7-2.9c0-1.6,0-3.2,0.1-4.9c-0.4,0-0.7,0-1.1,0
			c0.1,1.2-0.3,6.6-2.8,4.4c-0.8-0.7-0.8-2.3-0.3-3.1c0.9-1.5,2.5-0.2,3,0.9C120.7,57.3,121.7,56.8,121.4,56.1L121.4,56.1z"/>
	</g>
</g>
<g id="XMLID_859_">
	<g id="XMLID_1072_">
		<path id="XMLID_1077_" class="st0" d="M124.5,55.8c0-0.8,1.4-1.1,2-0.9c0.8,0.3,0.7,1.5,0.6,2.1c-0.1,0.8-0.3,1.7-1.2,2
			c-0.6,0.2-2.1,0.4-1.7-0.8c0.3-0.8,1.5-0.6,2.1-0.7c0.4,0,0.5-0.1,0.6,0.4c0,0.2,0,0.4,0.1,0.7c0.1,0.8,0.4,1.3,1.1,1.5
			c0.7,0.2,1-0.8,0.3-1.1c-0.6-0.2-0.3-1.5-0.5-1.9c-0.1-0.4-0.4-0.6-0.8-0.7c-0.9-0.2-2.5-0.1-3.3,0.5c-0.8,0.6-1,1.8-0.5,2.6
			c0.5,1,1.6,0.9,2.5,0.7c1.2-0.3,1.9-0.9,2.2-2.1c0.3-1.1,0.5-2.6-0.2-3.6c-0.5-0.8-1.6-0.8-2.5-0.7c-1.1,0.1-1.9,0.8-2,2
			C123.3,56.5,124.5,56.5,124.5,55.8L124.5,55.8z"/>
	</g>
</g>
<g id="XMLID_860_">
	<g id="XMLID_1066_">
		<path id="XMLID_1070_" class="st0" d="M130.2,52.6c-0.2,1.4-0.2,2.7-0.2,4.1c0,0.9-0.1,2.5,0.2,3.3c0.4,0.9,1.8,1,2.4,0.3
			c0.4-0.6-0.5-1.1-1-0.6c-0.3,0.4-0.5-1.9-0.5-1.9c0-0.6,0-1.2,0-1.7c0-1.2,0.1-2.3,0.2-3.5C131.4,51.9,130.3,51.9,130.2,52.6
			L130.2,52.6z"/>
	</g>
</g>
<g id="XMLID_872_">
	<g id="XMLID_1060_">
		<path id="XMLID_1064_" class="st0" d="M128.9,54.9c0.5,0.3,1,0.2,1.6,0.2c0.6,0,1.1,0.1,1.7-0.1c0.7-0.2,0.4-1.2-0.3-1.1
			c-0.4,0.1-0.8,0-1.2,0c-0.4,0-0.9,0.1-1.2-0.1C128.8,53.6,128.3,54.6,128.9,54.9L128.9,54.9z"/>
	</g>
</g>
<g id="XMLID_874_">
	<g id="XMLID_1054_">
		<path id="XMLID_1058_" class="st0" d="M133.5,51.9c0,0.2,0,0.3,0,0.5c0,0.7,1.2,0.7,1.1,0c0-0.2,0-0.3,0-0.5
			C134.7,51.2,133.6,51.2,133.5,51.9L133.5,51.9z"/>
	</g>
</g>
<g id="XMLID_933_">
	<g id="XMLID_1048_">
		<path id="XMLID_1052_" class="st0" d="M133.5,54.4c0.2,1.7,0.3,3.5,0.3,5.2c0,0.7,1.1,0.7,1.1,0c0-1.7-0.1-3.5-0.3-5.2
			C134.6,53.7,133.4,53.7,133.5,54.4L133.5,54.4z"/>
	</g>
</g>
<g id="XMLID_940_">
	<g id="XMLID_1042_">
		<path id="XMLID_1046_" class="st0" d="M140.1,54.2c-1.1-1.2-3.3-0.1-4,1.1c-0.9,1.6-0.3,3.7,1.3,4.6c1.6,0.9,3.6,0.4,3.9-1.5
			c0.3-1.6,0.4-4.3-1.8-4.6c-0.7-0.1-1,1-0.3,1.1c1.2,0.2,1.1,1.6,1.1,2.5c0,0.7-0.1,1.3-0.7,1.7c-0.5,0.3-1.1,0.2-1.7-0.1
			c-0.9-0.5-1.4-1.6-1.1-2.6c0.2-0.7,1.7-2.2,2.4-1.4C139.8,55.5,140.6,54.7,140.1,54.2L140.1,54.2z"/>
	</g>
</g>
<g id="XMLID_947_">
	<g id="XMLID_1036_">
		<path id="XMLID_1040_" class="st0" d="M142.7,54.2c-0.2,1.9,0.2,3.7,0,5.6c0.4,0,0.7-0.1,1.1-0.1c-0.2-0.9,0-1.9,0-2.8
			c0-0.6-0.1-1.2,0.6-1.7c0.3-0.2,0.9-0.4,1.3-0.3c1.1,0.2,0.9,1.6,0.9,2.5c0,0.8,0,1.7,0,2.5c0,0.7,1.1,0.7,1.1,0
			c0.1-1.5,0.2-3.1-0.1-4.6c-0.2-1.2-1.2-1.6-2.4-1.5c-1,0.1-2,0.6-2.3,1.7c-0.2,0.6-0.1,1.4-0.2,2c-0.1,0.9-0.1,1.6,0,2.5
			c0.1,0.7,1,0.4,1.1-0.1c0.2-1.9-0.2-3.7,0-5.6C143.9,53.5,142.8,53.5,142.7,54.2L142.7,54.2z"/>
	</g>
</g>
<g id="XMLID_954_">
	<g id="XMLID_1030_">
		<path id="XMLID_1034_" class="st0" d="M108,79c-0.6-1.6-2.6-2.4-4.2-2c-1.9,0.4-2.8,2.9-2.8,4.7c-0.1,3.9,4.7,5.3,7,2.3
			c0.4-0.6-0.5-1.1-1-0.6c-1.5,2-4.7,1.2-4.9-1.3c-0.1-1,0.2-2.1,0.7-2.9c0.8-1.3,3.4-1.6,4.1,0.2C107.1,80,108.2,79.7,108,79
			L108,79z"/>
	</g>
</g>
<g id="XMLID_961_">
	<g id="XMLID_1023_">
		<path id="XMLID_1028_" class="st0" d="M113.4,79.5c-1.2-1-3.1,0-3.7,1.2c-0.7,1.5-0.7,3.7,1,4.5c0.7,0.3,1.6,0.5,2.3,0.3
			c0.9-0.2,1.3-0.9,1.7-1.7c0.8-1.7,0.5-3.4-1.1-4.4c-0.6-0.4-1.2,0.6-0.6,1c2,1.3,0.7,4.9-1.7,3.9c-2.1-0.9-0.3-5.3,1.5-3.9
			C113.4,80.9,113.9,79.9,113.4,79.5L113.4,79.5z"/>
	</g>
</g>
<g id="XMLID_968_">
	<g id="XMLID_1016_">
		<path id="XMLID_1021_" class="st0" d="M116.2,79.7c0.1,1.8,0.1,3.6,0.1,5.4c0.4,0,0.7,0,1.1,0c0-1.3-0.3-4.5,1.4-4.9
			c1.7-0.4,1.4,3.9,1.4,4.9c0,0.7,1.1,0.7,1.1,0c0-1.8,0.5-6.2-2.4-6.1c-2.8,0.1-2.7,4-2.7,6c0,0.7,1.1,0.7,1.1,0
			c0.1-1.8,0-3.6-0.1-5.4C117.3,79,116.1,79,116.2,79.7L116.2,79.7z"/>
	</g>
</g>
<g id="XMLID_975_">
	<g id="XMLID_1009_">
		<path id="XMLID_1014_" class="st0" d="M127.3,80.9c-0.1-2-3.6-2.4-4.5-0.7c-0.5,0.8,0,1.5,0.7,2c0.6,0.4,1.3,0.7,1.9,1.1
			c1.9,1.5-1.5,2.1-1.6,0.8c-0.1-0.7-1.2-0.7-1.1,0c0.2,1.9,3.2,2.5,4.3,1c0.6-0.8,0.2-1.8-0.5-2.4c-0.5-0.4-1.1-0.7-1.6-1
			c-0.5-0.3-0.9-0.3-0.6-0.9c0-0.5,0.3-0.6,0.8-0.5c0.5-0.1,0.9,0.1,1.2,0.6C126.2,81.6,127.3,81.6,127.3,80.9L127.3,80.9z"/>
	</g>
</g>
<g id="XMLID_982_">
	<g id="XMLID_1002_">
		<path id="XMLID_1007_" class="st0" d="M129,78.2c-0.1,1.9-0.4,3.9-0.2,5.7c0.1,1,0.6,1.7,1.6,1.7c0.7,0,0.7-1.1,0-1.1
			c-1-0.1-0.3-5.6-0.3-6.3C130.2,77.4,129.1,77.4,129,78.2L129,78.2z"/>
	</g>
</g>
<g id="XMLID_989_">
	<g id="XMLID_995_">
		<path id="XMLID_1000_" class="st0" d="M128.7,80.3c0.6-0.1,1.3-0.1,1.9,0c0.7,0.1,0.7-1,0-1.1c-0.6-0.1-1.3-0.1-1.9,0
			C128,79.3,128,80.4,128.7,80.3L128.7,80.3z"/>
	</g>
</g>
<g id="XMLID_996_">
	<g id="XMLID_988_">
		<path id="XMLID_993_" class="st0" d="M133.1,81.4c0.2-0.4,0.7-0.8,1.2-0.9c0.4-0.1,0.8,0,1.1,0.3c0.3,0.3,0.4,0.6,0.4,0.9
			c0,0.1-1.9,0.2-2.1,0.2c-1,0.4-2.1,1.4-1.7,2.6c0.4,1.2,2.2,1.4,3.2,1.1c1.5-0.4,1.5-2,1.7-3.2c-0.4,0-0.7-0.1-1.1-0.1
			c0,1.1-0.5,3.8,1.3,3.6c0.7-0.1,0.7-1.2,0-1.1c-0.4,0-0.2-2.2-0.2-2.4c0-0.6-1-0.8-1.1-0.1c-0.1,0.7-0.1,2.1-0.9,2.4
			c-0.4,0.2-1.7,0.1-1.9-0.4c-0.1-0.5,0.6-0.9,1-1.1c1-0.4,2.9,0.3,3-1.3c0-2.8-3.6-2.9-4.8-0.8C131.8,81.5,132.8,82,133.1,81.4
			L133.1,81.4z"/>
	</g>
</g>
<g id="XMLID_1003_">
	<g id="XMLID_981_">
		<path id="XMLID_986_" class="st0" d="M138.7,79.9c0.2,1.7,0.3,3.4,0.2,5.1c0.4,0,0.7,0,1.1,0c-0.1-1.2-0.4-3.9,1.1-4.4
			c1.1-0.3,1.2,1.1,1.3,1.9c0.1,0.8,0.1,1.6,0.2,2.4c0,0.7,1.1,0.7,1.1,0c-0.1-1.6,0.1-5.8-2.5-5.6c-2.6,0.2-2.5,3.8-2.3,5.6
			c0.1,0.7,1.1,0.7,1.1,0c0.1-1.8,0-3.6-0.2-5.4C139.7,78.9,138.7,79.2,138.7,79.9L138.7,79.9z"/>
	</g>
</g>
<g id="XMLID_1010_">
	<g id="XMLID_974_">
		<path id="XMLID_979_" class="st0" d="M145.6,78.2c0,1.9-0.2,4,0,5.9c0.1,0.8,0.6,1.6,1.5,1.2c0.7-0.3,0.4-1.3-0.3-1.1
			c0,0-0.1-2.7-0.1-3c0-1,0-2.1,0-3.1C146.7,77.5,145.6,77.5,145.6,78.2L145.6,78.2z"/>
	</g>
</g>
<g id="XMLID_1017_">
	<g id="XMLID_967_">
		<path id="XMLID_972_" class="st0" d="M144.9,80.3c0.8,0,1.6,0,2.4,0.1c0.7,0.1,1-1,0.3-1.1c-0.9-0.1-1.8-0.2-2.7-0.1
			C144.1,79.2,144.1,80.3,144.9,80.3L144.9,80.3z"/>
	</g>
</g>
<g id="XMLID_1024_">
	<g id="XMLID_960_">
		<path id="XMLID_965_" class="st0" d="M148.7,83.1c0.8-0.1,1.6-0.3,2.4,0c0.7,0.3,1-0.8,0.3-1.1c-0.9-0.4-1.8-0.1-2.7,0
			C148,82.1,148,83.2,148.7,83.1L148.7,83.1z"/>
	</g>
</g>
<g id="XMLID_1146_">
	<g id="XMLID_953_">
		<path id="XMLID_958_" class="st0" d="M108,104.4c-0.6-1.6-2.6-2.4-4.2-2c-1.9,0.4-2.8,2.9-2.8,4.7c-0.1,3.9,4.7,5.3,7,2.3
			c0.4-0.6-0.5-1.1-1-0.6c-1.5,2-4.7,1.2-4.9-1.3c-0.1-1,0.2-2.1,0.7-2.9c0.8-1.3,3.4-1.6,4.1,0.2
			C107.1,105.3,108.2,105.1,108,104.4L108,104.4z"/>
	</g>
</g>
<g id="XMLID_1139_">
	<g id="XMLID_946_">
		<path id="XMLID_951_" class="st0" d="M113.4,104.8c-1.2-1-3.1,0-3.7,1.2c-0.7,1.5-0.7,3.7,1,4.5c0.7,0.3,1.6,0.5,2.3,0.3
			c0.9-0.2,1.3-0.9,1.7-1.7c0.8-1.7,0.5-3.4-1.1-4.4c-0.6-0.4-1.2,0.6-0.6,1c2,1.3,0.7,4.9-1.7,3.9c-2.1-0.9-0.3-5.3,1.5-3.9
			C113.4,106.2,113.9,105.3,113.4,104.8L113.4,104.8z"/>
	</g>
</g>
<g id="XMLID_1132_">
	<g id="XMLID_939_">
		<path id="XMLID_944_" class="st0" d="M116.2,105.1c0.1,1.8,0.1,3.6,0.1,5.4c0.4,0,0.7,0,1.1,0c0-1.3-0.3-4.5,1.4-4.9
			c1.7-0.4,1.4,3.9,1.4,4.9c0,0.7,1.1,0.7,1.1,0c0-1.8,0.5-6.2-2.4-6.1c-2.8,0.1-2.7,4-2.7,6c0,0.7,1.1,0.7,1.1,0
			c0.1-1.8,0-3.6-0.1-5.4C117.3,104.4,116.1,104.4,116.2,105.1L116.2,105.1z"/>
	</g>
</g>
<g id="XMLID_1125_">
	<g id="XMLID_930_">
		<path id="XMLID_935_" class="st0" d="M127.3,106.3c-0.1-2-3.6-2.4-4.5-0.7c-0.5,0.8,0,1.5,0.7,2c0.6,0.4,1.3,0.7,1.9,1.1
			c1.9,1.5-1.5,2.1-1.6,0.8c-0.1-0.7-1.2-0.7-1.1,0c0.2,1.9,3.2,2.5,4.3,1c0.6-0.8,0.2-1.8-0.5-2.4c-0.5-0.4-1.1-0.7-1.6-1
			c-0.5-0.3-0.9-0.3-0.6-0.9c0-0.5,0.3-0.6,0.8-0.5c0.5-0.1,0.9,0.1,1.2,0.6C126.2,107,127.3,107,127.3,106.3L127.3,106.3z"/>
	</g>
</g>
<g id="XMLID_1118_">
	<g id="XMLID_924_">
		<path id="XMLID_928_" class="st0" d="M129,103.5c-0.1,1.9-0.4,3.9-0.2,5.7c0.1,1,0.6,1.7,1.6,1.7c0.7,0,0.7-1.1,0-1.1
			c-1-0.1-0.3-5.6-0.3-6.3C130.2,102.8,129.1,102.8,129,103.5L129,103.5z"/>
	</g>
</g>
<g id="XMLID_1111_">
	<g id="XMLID_918_">
		<path id="XMLID_922_" class="st0" d="M128.7,105.6c0.6-0.1,1.3-0.1,1.9,0c0.7,0.1,0.7-1,0-1.1c-0.6-0.1-1.3-0.1-1.9,0
			C128,104.6,128,105.7,128.7,105.6L128.7,105.6z"/>
	</g>
</g>
<g id="XMLID_1104_">
	<g id="XMLID_912_">
		<path id="XMLID_916_" class="st0" d="M133.1,106.7c0.2-0.4,0.7-0.8,1.2-0.9c0.4-0.1,0.8,0,1.1,0.3c0.3,0.3,0.4,0.6,0.4,0.9
			c0,0.1-1.9,0.2-2.1,0.2c-1,0.4-2.1,1.4-1.7,2.6c0.4,1.2,2.2,1.4,3.2,1.1c1.5-0.4,1.5-2,1.7-3.2c-0.4,0-0.7-0.1-1.1-0.1
			c0,1.1-0.5,3.8,1.3,3.6c0.7-0.1,0.7-1.2,0-1.1c-0.4,0-0.2-2.2-0.2-2.4c0-0.6-1-0.8-1.1-0.1c-0.1,0.7-0.1,2.1-0.9,2.4
			c-0.4,0.2-1.7,0.1-1.9-0.4c-0.1-0.5,0.6-0.9,1-1.1c1-0.4,2.9,0.3,3-1.3c0-2.8-3.6-2.9-4.8-0.8
			C131.8,106.8,132.8,107.4,133.1,106.7L133.1,106.7z"/>
	</g>
</g>
<g id="XMLID_1097_">
	<g id="XMLID_906_">
		<path id="XMLID_910_" class="st0" d="M138.7,105.2c0.2,1.7,0.3,3.4,0.2,5.1c0.4,0,0.7,0,1.1,0c-0.1-1.2-0.4-3.9,1.1-4.4
			c1.1-0.3,1.2,1.1,1.3,1.9c0.1,0.8,0.1,1.6,0.2,2.4c0,0.7,1.1,0.7,1.1,0c-0.1-1.6,0.1-5.8-2.5-5.6c-2.6,0.2-2.5,3.8-2.3,5.6
			c0.1,0.7,1.1,0.7,1.1,0c0.1-1.8,0-3.6-0.2-5.4C139.7,104.2,138.7,104.5,138.7,105.2L138.7,105.2z"/>
	</g>
</g>
<g id="XMLID_1090_">
	<g id="XMLID_900_">
		<path id="XMLID_904_" class="st0" d="M145.6,103.6c0,1.9-0.2,4,0,5.9c0.1,0.8,0.6,1.6,1.5,1.2c0.7-0.3,0.4-1.3-0.3-1.1
			c0,0-0.1-2.7-0.1-3c0-1,0-2.1,0-3.1C146.7,102.9,145.6,102.9,145.6,103.6L145.6,103.6z"/>
	</g>
</g>
<g id="XMLID_1073_">
	<g id="XMLID_894_">
		<path id="XMLID_898_" class="st0" d="M144.9,105.6c0.8,0,1.6,0,2.4,0.1c0.7,0.1,1-1,0.3-1.1c-0.9-0.1-1.8-0.2-2.7-0.1
			C144.1,104.6,144.1,105.7,144.9,105.6L144.9,105.6z"/>
	</g>
</g>
<g id="XMLID_839_">
	<g id="XMLID_888_">
		<path id="XMLID_892_" class="st0" d="M148.7,108.4c0.8-0.1,1.6-0.3,2.4,0c0.7,0.3,1-0.8,0.3-1.1c-0.9-0.4-1.8-0.1-2.7,0
			C148,107.4,148,108.5,148.7,108.4L148.7,108.4z"/>
	</g>
</g>
<g id="XMLID_938_">
	<g id="XMLID_882_">
		<path id="XMLID_886_" class="st0" d="M304.6,27.9c-3.5-0.4-3.4,8,0.7,7.2c1.7-0.3,1.9-3,1.8-4.3c-0.1-2.3-1.2-3.3-3.5-3
			c-0.7,0.1-0.4,1.2,0.3,1.1c0.9-0.1,1.5-0.2,1.9,0.9c0.2,0.4,0.2,1.1,0.2,1.6c0,0.9-0.1,2.1-0.9,2.4c-2.4,1-2.4-5-0.5-4.8
			C305.3,29.1,305.3,28,304.6,27.9L304.6,27.9z"/>
	</g>
</g>
<g id="XMLID_2037_">
	<g id="XMLID_876_">
		<path id="XMLID_880_" class="st0" d="M348,3c-3.9-0.4-3.8,8.8,0.8,8c1.9-0.3,2.1-3.3,2-4.8c-0.2-2.5-1.3-3.6-3.8-3.3
			c-0.8,0.1-0.5,1.3,0.3,1.2c0.9-0.1,1.6-0.2,2.1,1c0.2,0.4,0.2,1.2,0.2,1.7c0,1-0.1,2.3-1.1,2.7c-2.7,1.1-2.6-5.5-0.6-5.3
			C348.8,4.3,348.8,3.1,348,3L348,3z"/>
	</g>
</g>
<g id="XMLID_937_">
	<g id="XMLID_1243_">
		<g id="XMLID_865_">
			<path id="XMLID_873_" class="st0" d="M443,30.4c0.8-0.6,1.7-1.2,2.5-1.7c-0.3-0.2-0.5-0.4-0.8-0.6c-0.4,2.2-0.6,4.4-0.5,6.6
				c0,0.7,1.1,0.7,1.1,0c-0.1-2.1,0.1-4.2,0.5-6.3c0.1-0.4-0.4-0.9-0.8-0.6c-0.8,0.6-1.7,1.2-2.5,1.7
				C441.8,29.8,442.4,30.8,443,30.4L443,30.4z"/>
		</g>
	</g>
	<g id="XMLID_1236_">
		<g id="XMLID_852_">
			<path id="XMLID_861_" class="st0" d="M442.2,35.3c1.5,0,3-0.1,4.4-0.1c0.7,0,0.7-1.2,0-1.1c-1.5,0.1-3,0.1-4.4,0.1
				C441.5,34.2,441.5,35.3,442.2,35.3L442.2,35.3z"/>
		</g>
	</g>
</g>
<g id="XMLID_2044_">
	<g id="XMLID_2052_">
		<g id="XMLID_835_">
			<path id="XMLID_840_" class="st0" d="M448.8,5.8c0.9-0.6,1.9-1.3,2.8-1.9c-0.3-0.2-0.6-0.5-0.9-0.7c-0.4,2.4-0.6,4.9-0.6,7.3
				c0,0.8,1.3,0.8,1.2,0c-0.1-2.4,0.1-4.7,0.5-7c0.1-0.5-0.4-1-0.9-0.7c-0.9,0.6-1.9,1.3-2.8,1.9C447.5,5.1,448.1,6.2,448.8,5.8
				L448.8,5.8z"/>
		</g>
	</g>
	<g id="XMLID_2045_">
		<g id="XMLID_829_">
			<path id="XMLID_833_" class="st0" d="M447.9,11.2c1.6,0,3.3-0.1,4.9-0.1c0.8,0,0.8-1.3,0-1.2c-1.6,0.1-3.3,0.1-4.9,0.1
				C447.1,10,447.1,11.2,447.9,11.2L447.9,11.2z"/>
		</g>
	</g>
</g>
<g id="XMLID_1251_">
	<g id="XMLID_823_">
		<path id="XMLID_827_" class="st0" d="M300.1,26.1c1.6,0,3.3,0,4.9,0c0.7,0,1.5-0.1,2.2,0c1.3,0.2,1.5,0.1,1.7,1.4
			c0.2,1.3,0,2.9-0.2,4.2c-0.1,1.1,0.3,3.1-0.1,4.1c-0.6,1.4-3.2,0.8-4.4,0.8c-0.8,0-1.8,0.1-2.6-0.1c-1.2-0.2-1.2-0.2-1.4-1.5
			c-0.2-1.3,0.1-2.9,0.1-4.2c0-1.7,0-3.3-0.1-5c0-0.4-0.7-0.4-0.7,0c0.1,2.1,0.1,4.2,0.1,6.2c0,1.5-0.4,3.3-0.2,4.8
			c0,0.1,0.1,0.2,0.2,0.2c1.3,0.4,3.2,0.1,4.6,0.1c1.2,0,3.3,0.5,4.4,0.1c0.5-0.2,0.4-0.1,0.6-0.6c0.5-1.2,0-3.4,0.1-4.7
			c0.1-1.5,0.2-3,0.2-4.5c0-0.5,0.2-1.6-0.3-2c-0.5-0.4-2.4-0.1-3-0.1c-2.1,0-4.2,0-6.3,0C299.7,25.5,299.7,26.1,300.1,26.1
			L300.1,26.1z"/>
	</g>
</g>
<g id="XMLID_1192_">
	<g id="XMLID_817_">
		<path id="XMLID_821_" class="st0" d="M304.6,53.3c-3.5-0.4-3.4,8,0.7,7.2c1.7-0.3,1.9-3,1.8-4.3c-0.1-2.3-1.2-3.3-3.5-3
			c-0.7,0.1-0.4,1.2,0.3,1.1c0.9-0.1,1.5-0.2,1.9,0.9c0.2,0.4,0.2,1.1,0.2,1.6c0,0.9-0.1,2.1-0.9,2.4c-2.4,1-2.4-5-0.5-4.8
			C305.3,54.5,305.3,53.4,304.6,53.3L304.6,53.3z"/>
	</g>
</g>
<g id="XMLID_856_">
	<g id="XMLID_811_">
		<path id="XMLID_815_" class="st0" d="M300.1,51.5c1.6,0,3.3,0,4.9,0c0.7,0,1.5-0.1,2.2,0c1.3,0.2,1.5,0.1,1.7,1.4
			c0.2,1.3,0,2.9-0.2,4.2c-0.1,1.1,0.3,3.1-0.1,4.1c-0.6,1.4-3.2,0.8-4.4,0.8c-0.8,0-1.8,0.1-2.6-0.1c-1.2-0.2-1.2-0.2-1.4-1.5
			c-0.2-1.3,0.1-2.9,0.1-4.2c0-1.7,0-3.3-0.1-5c0-0.4-0.7-0.4-0.7,0c0.1,2.1,0.1,4.2,0.1,6.2c0,1.5-0.4,3.3-0.2,4.8
			c0,0.1,0.1,0.2,0.2,0.2c1.3,0.4,3.2,0.1,4.6,0.1c1.2,0,3.3,0.5,4.4,0.1c0.5-0.2,0.4-0.1,0.6-0.6c0.5-1.2,0-3.4,0.1-4.7
			c0.1-1.5,0.2-3,0.2-4.5c0-0.5,0.2-1.6-0.3-2c-0.5-0.4-2.4-0.1-3-0.1c-2.1,0-4.2,0-6.3,0C299.7,50.9,299.7,51.5,300.1,51.5
			L300.1,51.5z"/>
	</g>
</g>
<g id="XMLID_1233_">
	<g id="XMLID_805_">
		<path id="XMLID_809_" class="st0" d="M304.6,78.7c-3.5-0.4-3.4,8,0.7,7.2c1.7-0.3,1.9-3,1.8-4.3c-0.1-2.3-1.2-3.3-3.5-3
			c-0.7,0.1-0.4,1.2,0.3,1.1c0.9-0.1,1.5-0.2,1.9,0.9c0.2,0.4,0.2,1.1,0.2,1.6c0,0.9-0.1,2.1-0.9,2.4c-2.4,1-2.4-5-0.5-4.8
			C305.3,79.9,305.3,78.8,304.6,78.7L304.6,78.7z"/>
	</g>
</g>
<g id="XMLID_1218_">
	<g id="XMLID_1226_">
		<g id="XMLID_799_">
			<path id="XMLID_803_" class="st0" d="M443,106.6c0.8-0.6,1.7-1.2,2.5-1.7c-0.3-0.2-0.5-0.4-0.8-0.6c-0.4,2.2-0.6,4.4-0.5,6.6
				c0,0.7,1.1,0.7,1.1,0c-0.1-2.1,0.1-4.2,0.5-6.3c0.1-0.4-0.4-0.9-0.8-0.6c-0.8,0.6-1.7,1.2-2.5,1.7C441.8,106,442.4,107,443,106.6
				L443,106.6z"/>
		</g>
	</g>
	<g id="XMLID_1219_">
		<g id="XMLID_792_">
			<path id="XMLID_797_" class="st0" d="M442.2,111.5c1.5,0,3-0.1,4.4-0.1c0.7,0,0.7-1.2,0-1.1c-1.5,0.1-3,0.1-4.4,0.1
				C441.5,110.4,441.5,111.5,442.2,111.5L442.2,111.5z"/>
		</g>
	</g>
</g>
<g id="XMLID_1211_">
	<g id="XMLID_786_">
		<path id="XMLID_790_" class="st0" d="M300.1,76.9c1.6,0,3.3,0,4.9,0c0.7,0,1.5-0.1,2.2,0c1.3,0.2,1.5,0.1,1.7,1.4
			c0.2,1.3,0,2.9-0.2,4.2c-0.1,1.1,0.3,3.1-0.1,4.1c-0.6,1.4-3.2,0.8-4.4,0.8c-0.8,0-1.8,0.1-2.6-0.1c-1.2-0.2-1.2-0.2-1.4-1.5
			c-0.2-1.3,0.1-2.9,0.1-4.2c0-1.7,0-3.3-0.1-5c0-0.4-0.7-0.4-0.7,0c0.1,2.1,0.1,4.2,0.1,6.2c0,1.5-0.4,3.3-0.2,4.8
			c0,0.1,0.1,0.2,0.2,0.2c1.3,0.4,3.2,0.1,4.6,0.1c1.2,0,3.3,0.5,4.4,0.1c0.5-0.2,0.4-0.1,0.6-0.6c0.5-1.2,0-3.4,0.1-4.7
			c0.1-1.5,0.2-3,0.2-4.5c0-0.5,0.2-1.6-0.3-2c-0.5-0.4-2.4-0.1-3-0.1c-2.1,0-4.2,0-6.3,0C299.7,76.3,299.7,76.9,300.1,76.9
			L300.1,76.9z"/>
	</g>
</g>
<g id="XMLID_1303_">
	<g id="XMLID_780_">
		<path id="XMLID_784_" class="st0" d="M304.6,104.1c-3.5-0.4-3.4,8,0.7,7.2c1.7-0.3,1.9-3,1.8-4.3c-0.1-2.3-1.2-3.3-3.5-3
			c-0.7,0.1-0.4,1.2,0.3,1.1c0.9-0.1,1.5-0.2,1.9,0.9c0.2,0.4,0.2,1.1,0.2,1.6c0,0.9-0.1,2.1-0.9,2.4c-2.4,1-2.4-5-0.5-4.8
			C305.3,105.3,305.3,104.2,304.6,104.1L304.6,104.1z"/>
	</g>
</g>
<g id="XMLID_1281_">
	<g id="XMLID_774_">
		<path id="XMLID_778_" class="st0" d="M300.1,102.4c1.6,0,3.3,0,4.9,0c0.7,0,1.5-0.1,2.2,0c1.3,0.2,1.5,0.1,1.7,1.4
			c0.2,1.3,0,2.9-0.2,4.2c-0.1,1.1,0.3,3.1-0.1,4.1c-0.6,1.4-3.2,0.8-4.4,0.8c-0.8,0-1.8,0.1-2.6-0.1c-1.2-0.2-1.2-0.2-1.4-1.5
			c-0.2-1.3,0.1-2.9,0.1-4.2c0-1.7,0-3.3-0.1-5c0-0.4-0.7-0.4-0.7,0c0.1,2.1,0.1,4.2,0.1,6.2c0,1.5-0.4,3.3-0.2,4.8
			c0,0.1,0.1,0.2,0.2,0.2c1.3,0.4,3.2,0.1,4.6,0.1c1.2,0,3.3,0.5,4.4,0.1c0.5-0.2,0.4-0.1,0.6-0.6c0.5-1.2,0-3.4,0.1-4.7
			c0.1-1.5,0.2-3,0.2-4.5c0-0.5,0.2-1.6-0.3-2c-0.5-0.4-2.4-0.1-3-0.1c-2.1,0-4.2,0-6.3,0C299.7,101.7,299.7,102.4,300.1,102.4
			L300.1,102.4z"/>
	</g>
</g>
<g id="XMLID_1191_">
	<g id="XMLID_768_">
		<path id="XMLID_772_" class="st0" d="M444.4,53.3c-3.5-0.4-3.4,8,0.7,7.2c1.7-0.3,1.9-3,1.8-4.3c-0.1-2.3-1.2-3.3-3.5-3
			c-0.7,0.1-0.4,1.2,0.3,1.1c0.9-0.1,1.5-0.2,1.9,0.9c0.2,0.4,0.2,1.1,0.2,1.6c0,0.9-0.1,2.1-0.9,2.4c-2.4,1-2.4-5-0.5-4.8
			C445.1,54.5,445.1,53.4,444.4,53.3L444.4,53.3z"/>
	</g>
</g>
<g id="XMLID_1164_">
	<g id="XMLID_762_">
		<path id="XMLID_766_" class="st0" d="M439.9,51.5c1.6,0,3.3,0,4.9,0c0.7,0,1.5-0.1,2.2,0c1.3,0.2,1.5,0.1,1.7,1.4
			c0.2,1.3,0,2.9-0.2,4.2c-0.1,1.1,0.3,3.1-0.1,4.1c-0.6,1.4-3.2,0.8-4.4,0.8c-0.8,0-1.8,0.1-2.6-0.1c-1.2-0.2-1.2-0.2-1.4-1.5
			c-0.2-1.3,0.1-2.9,0.1-4.2c0-1.7,0-3.3-0.1-5c0-0.4-0.7-0.4-0.7,0c0.1,2.1,0.1,4.2,0.1,6.2c0,1.5-0.4,3.3-0.2,4.8
			c0,0.1,0.1,0.2,0.2,0.2c1.3,0.4,3.2,0.1,4.6,0.1c1.2,0,3.3,0.5,4.4,0.1c0.5-0.2,0.4-0.1,0.6-0.6c0.5-1.2,0-3.4,0.1-4.7
			c0.1-1.5,0.2-3,0.2-4.5c0-0.5,0.2-1.6-0.3-2c-0.5-0.4-2.4-0.1-3-0.1c-2.1,0-4.2,0-6.3,0C439.4,50.9,439.4,51.5,439.9,51.5
			L439.9,51.5z"/>
	</g>
</g>
<g id="XMLID_1156_">
	<g id="XMLID_756_">
		<path id="XMLID_760_" class="st0" d="M444.4,78.7c-3.5-0.4-3.4,8,0.7,7.2c1.7-0.3,1.9-3,1.8-4.3c-0.1-2.3-1.2-3.3-3.5-3
			c-0.7,0.1-0.4,1.2,0.3,1.1c0.9-0.1,1.5-0.2,1.9,0.9c0.2,0.4,0.2,1.1,0.2,1.6c0,0.9-0.1,2.1-0.9,2.4c-2.4,1-2.4-5-0.5-4.8
			C445.1,79.9,445.1,78.8,444.4,78.7L444.4,78.7z"/>
	</g>
</g>
<g id="XMLID_484_">
	<g id="XMLID_750_">
		<path id="XMLID_754_" class="st0" d="M439.9,76.9c1.6,0,3.3,0,4.9,0c0.7,0,1.5-0.1,2.2,0c1.3,0.2,1.5,0.1,1.7,1.4
			c0.2,1.3,0,2.9-0.2,4.2c-0.1,1.1,0.3,3.1-0.1,4.1c-0.6,1.4-3.2,0.8-4.4,0.8c-0.8,0-1.8,0.1-2.6-0.1c-1.2-0.2-1.2-0.2-1.4-1.5
			c-0.2-1.3,0.1-2.9,0.1-4.2c0-1.7,0-3.3-0.1-5c0-0.4-0.7-0.4-0.7,0c0.1,2.1,0.1,4.2,0.1,6.2c0,1.5-0.4,3.3-0.2,4.8
			c0,0.1,0.1,0.2,0.2,0.2c1.3,0.4,3.2,0.1,4.6,0.1c1.2,0,3.3,0.5,4.4,0.1c0.5-0.2,0.4-0.1,0.6-0.6c0.5-1.2,0-3.4,0.1-4.7
			c0.1-1.5,0.2-3,0.2-4.5c0-0.5,0.2-1.6-0.3-2c-0.5-0.4-2.4-0.1-3-0.1c-2.1,0-4.2,0-6.3,0C439.4,76.3,439.4,76.9,439.9,76.9
			L439.9,76.9z"/>
	</g>
</g>
<g id="XMLID_1435_">
	<g id="XMLID_744_">
		<path id="XMLID_748_" class="st0" d="M342.7,27.9c-3.5-0.4-3.4,8,0.7,7.2c1.7-0.3,1.9-3,1.8-4.3c-0.1-2.3-1.2-3.3-3.5-3
			c-0.7,0.1-0.4,1.2,0.3,1.1c0.9-0.1,1.5-0.2,1.9,0.9c0.2,0.4,0.2,1.1,0.2,1.6c0,0.9-0.1,2.1-0.9,2.4c-2.4,1-2.4-5-0.5-4.8
			C343.4,29.1,343.4,28,342.7,27.9L342.7,27.9z"/>
	</g>
</g>
<g id="XMLID_1420_">
	<g id="XMLID_1428_">
		<g id="XMLID_738_">
			<path id="XMLID_742_" class="st0" d="M404.9,30.4c0.8-0.6,1.7-1.2,2.5-1.7c-0.3-0.2-0.5-0.4-0.8-0.6c-0.4,2.2-0.6,4.4-0.5,6.6
				c0,0.7,1.1,0.7,1.1,0c-0.1-2.1,0.1-4.2,0.5-6.3c0.1-0.4-0.4-0.9-0.8-0.6c-0.8,0.6-1.7,1.2-2.5,1.7
				C403.7,29.8,404.3,30.8,404.9,30.4L404.9,30.4z"/>
		</g>
	</g>
	<g id="XMLID_1421_">
		<g id="XMLID_732_">
			<path id="XMLID_736_" class="st0" d="M404.1,35.3c1.5,0,3-0.1,4.4-0.1c0.7,0,0.7-1.2,0-1.1c-1.5,0.1-3,0.1-4.4,0.1
				C403.4,34.2,403.4,35.3,404.1,35.3L404.1,35.3z"/>
		</g>
	</g>
</g>
<g id="XMLID_1413_">
	<g id="XMLID_726_">
		<path id="XMLID_730_" class="st0" d="M338.2,26.1c1.6,0,3.3,0,4.9,0c0.7,0,1.5-0.1,2.2,0c1.3,0.2,1.5,0.1,1.7,1.4
			c0.2,1.3,0,2.9-0.2,4.2c-0.1,1.1,0.3,3.1-0.1,4.1c-0.6,1.4-3.2,0.8-4.4,0.8c-0.8,0-1.8,0.1-2.6-0.1c-1.2-0.2-1.2-0.2-1.4-1.5
			c-0.2-1.3,0.1-2.9,0.1-4.2c0-1.7,0-3.3-0.1-5c0-0.4-0.7-0.4-0.7,0c0.1,2.1,0.1,4.2,0.1,6.2c0,1.5-0.4,3.3-0.2,4.8
			c0,0.1,0.1,0.2,0.2,0.2c1.3,0.4,3.2,0.1,4.6,0.1c1.2,0,3.3,0.5,4.4,0.1c0.5-0.2,0.4-0.1,0.6-0.6c0.5-1.2,0-3.4,0.1-4.7
			c0.1-1.5,0.2-3,0.2-4.5c0-0.5,0.2-1.6-0.3-2c-0.5-0.4-2.4-0.1-3-0.1c-2.1,0-4.2,0-6.3,0C337.8,25.5,337.8,26.1,338.2,26.1
			L338.2,26.1z"/>
	</g>
</g>
<g id="XMLID_1384_">
	<g id="XMLID_1392_">
		<g id="XMLID_720_">
			<path id="XMLID_724_" class="st0" d="M404.9,55.8c0.8-0.6,1.7-1.2,2.5-1.7c-0.3-0.2-0.5-0.4-0.8-0.6c-0.4,2.2-0.6,4.4-0.5,6.6
				c0,0.7,1.1,0.7,1.1,0c-0.1-2.1,0.1-4.2,0.5-6.3c0.1-0.4-0.4-0.9-0.8-0.6c-0.8,0.6-1.7,1.2-2.5,1.7
				C403.7,55.2,404.3,56.2,404.9,55.8L404.9,55.8z"/>
		</g>
	</g>
	<g id="XMLID_1385_">
		<g id="XMLID_703_">
			<path id="XMLID_716_" class="st0" d="M404.1,60.7c1.5,0,3-0.1,4.4-0.1c0.7,0,0.7-1.2,0-1.1c-1.5,0.1-3,0.1-4.4,0.1
				C403.4,59.6,403.4,60.7,404.1,60.7L404.1,60.7z"/>
		</g>
	</g>
</g>
<g id="XMLID_1363_">
	<g id="XMLID_697_">
		<path id="XMLID_701_" class="st0" d="M342.7,78.7c-3.5-0.4-3.4,8,0.7,7.2c1.7-0.3,1.9-3,1.8-4.3c-0.1-2.3-1.2-3.3-3.5-3
			c-0.7,0.1-0.4,1.2,0.3,1.1c0.9-0.1,1.5-0.2,1.9,0.9c0.2,0.4,0.2,1.1,0.2,1.6c0,0.9-0.1,2.1-0.9,2.4c-2.4,1-2.4-5-0.5-4.8
			C343.4,79.9,343.4,78.8,342.7,78.7L342.7,78.7z"/>
	</g>
</g>
<g id="XMLID_1348_">
	<g id="XMLID_1356_">
		<g id="XMLID_691_">
			<path id="XMLID_695_" class="st0" d="M404.9,81.2c0.8-0.6,1.7-1.2,2.5-1.7c-0.3-0.2-0.5-0.4-0.8-0.6c-0.4,2.2-0.6,4.4-0.5,6.6
				c0,0.7,1.1,0.7,1.1,0c-0.1-2.1,0.1-4.2,0.5-6.3c0.1-0.4-0.4-0.9-0.8-0.6c-0.8,0.6-1.7,1.2-2.5,1.7
				C403.7,80.6,404.3,81.6,404.9,81.2L404.9,81.2z"/>
		</g>
	</g>
	<g id="XMLID_1349_">
		<g id="XMLID_685_">
			<path id="XMLID_689_" class="st0" d="M404.1,86.1c1.5,0,3-0.1,4.4-0.1c0.7,0,0.7-1.2,0-1.1c-1.5,0.1-3,0.1-4.4,0.1
				C403.4,85,403.4,86.1,404.1,86.1L404.1,86.1z"/>
		</g>
	</g>
</g>
<g id="XMLID_1341_">
	<g id="XMLID_678_">
		<path id="XMLID_683_" class="st0" d="M338.2,76.9c1.6,0,3.3,0,4.9,0c0.7,0,1.5-0.1,2.2,0c1.3,0.2,1.5,0.1,1.7,1.4
			c0.2,1.3,0,2.9-0.2,4.2c-0.1,1.1,0.3,3.1-0.1,4.1c-0.6,1.4-3.2,0.8-4.4,0.8c-0.8,0-1.8,0.1-2.6-0.1c-1.2-0.2-1.2-0.2-1.4-1.5
			c-0.2-1.3,0.1-2.9,0.1-4.2c0-1.7,0-3.3-0.1-5c0-0.4-0.7-0.4-0.7,0c0.1,2.1,0.1,4.2,0.1,6.2c0,1.5-0.4,3.3-0.2,4.8
			c0,0.1,0.1,0.2,0.2,0.2c1.3,0.4,3.2,0.1,4.6,0.1c1.2,0,3.3,0.5,4.4,0.1c0.5-0.2,0.4-0.1,0.6-0.6c0.5-1.2,0-3.4,0.1-4.7
			c0.1-1.5,0.2-3,0.2-4.5c0-0.5,0.2-1.6-0.3-2c-0.5-0.4-2.4-0.1-3-0.1c-2.1,0-4.2,0-6.3,0C337.8,76.3,337.8,76.9,338.2,76.9
			L338.2,76.9z"/>
	</g>
</g>
<g id="XMLID_1312_">
	<g id="XMLID_1320_">
		<g id="XMLID_672_">
			<path id="XMLID_676_" class="st0" d="M404.9,106.6c0.8-0.6,1.7-1.2,2.5-1.7c-0.3-0.2-0.5-0.4-0.8-0.6c-0.4,2.2-0.6,4.4-0.5,6.6
				c0,0.7,1.1,0.7,1.1,0c-0.1-2.1,0.1-4.2,0.5-6.3c0.1-0.4-0.4-0.9-0.8-0.6c-0.8,0.6-1.7,1.2-2.5,1.7
				C403.7,106,404.3,107,404.9,106.6L404.9,106.6z"/>
		</g>
	</g>
	<g id="XMLID_1313_">
		<g id="XMLID_666_">
			<path id="XMLID_670_" class="st0" d="M404.1,111.5c1.5,0,3-0.1,4.4-0.1c0.7,0,0.7-1.2,0-1.1c-1.5,0.1-3,0.1-4.4,0.1
				C403.4,110.4,403.4,111.5,404.1,111.5L404.1,111.5z"/>
		</g>
	</g>
</g>
<g id="XMLID_1333_">
	<g id="XMLID_1399_">
		<g id="XMLID_660_">
			<path id="XMLID_664_" class="st0" d="M341.4,55.8c0.8-0.6,1.7-1.2,2.5-1.7c-0.3-0.2-0.5-0.4-0.8-0.6c-0.4,2.2-0.6,4.4-0.5,6.6
				c0,0.7,1.1,0.7,1.1,0c-0.1-2.1,0.1-4.2,0.5-6.3c0.1-0.4-0.4-0.9-0.8-0.6c-0.8,0.6-1.7,1.2-2.5,1.7
				C340.2,55.2,340.8,56.2,341.4,55.8L341.4,55.8z"/>
		</g>
	</g>
	<g id="XMLID_1377_">
		<g id="XMLID_653_">
			<path id="XMLID_658_" class="st0" d="M340.6,60.7c1.5,0,3-0.1,4.4-0.1c0.7,0,0.7-1.2,0-1.1c-1.5,0.1-3,0.1-4.4,0.1
				C339.9,59.6,339.8,60.7,340.6,60.7L340.6,60.7z"/>
		</g>
	</g>
</g>
<g id="XMLID_1289_">
	<g id="XMLID_1297_">
		<g id="XMLID_645_">
			<path id="XMLID_651_" class="st0" d="M341.4,106.6c0.8-0.6,1.7-1.2,2.5-1.7c-0.3-0.2-0.5-0.4-0.8-0.6c-0.4,2.2-0.6,4.4-0.5,6.6
				c0,0.7,1.1,0.7,1.1,0c-0.1-2.1,0.1-4.2,0.5-6.3c0.1-0.4-0.4-0.9-0.8-0.6c-0.8,0.6-1.7,1.2-2.5,1.7
				C340.2,106,340.8,107,341.4,106.6L341.4,106.6z"/>
		</g>
	</g>
	<g id="XMLID_1290_">
		<g id="XMLID_468_">
			<path id="XMLID_473_" class="st0" d="M340.6,111.5c1.5,0,3-0.1,4.4-0.1c0.7,0,0.7-1.2,0-1.1c-1.5,0.1-3,0.1-4.4,0.1
				C339.9,110.4,339.8,111.5,340.6,111.5L340.6,111.5z"/>
		</g>
	</g>
</g>
<g id="XMLID_866_">
	<g id="XMLID_639_">
		<path id="XMLID_643_" class="st0" d="M313.6,32c6.7-0.1,13.5,0.5,20.2,0.1c0.6,0,0.6-0.9,0-0.9c-6.7,0.4-13.5-0.2-20.2-0.1
			C313,31.1,313,32,313.6,32L313.6,32z"/>
	</g>
</g>
<g id="XMLID_867_">
	<g id="XMLID_632_">
		<path id="XMLID_637_" class="st0" d="M334.4,31.2c-0.4-0.8-1.2-1.3-2-1.7c-0.8-0.4-1.4,0.7-0.7,1.2c0.6,0.3,1.2,0.6,1.5,1.3
			C333.6,32.7,334.8,32,334.4,31.2L334.4,31.2z"/>
	</g>
</g>
<g id="XMLID_1137_">
	<g id="XMLID_626_">
		<path id="XMLID_630_" class="st0" d="M333.3,31.4c-0.4,0.5-0.8,0.9-1.4,1.2c-0.8,0.4-0.1,1.6,0.7,1.2c0.7-0.4,1.3-1,1.8-1.6
			c0.2-0.3,0-0.7-0.2-0.9C333.8,30.9,333.5,31.1,333.3,31.4L333.3,31.4z"/>
	</g>
</g>
<g id="XMLID_1474_">
	<g id="XMLID_620_">
		<path id="XMLID_624_" class="st0" d="M313.6,57.4c6.7-0.1,13.5,0.5,20.2,0.1c0.6,0,0.6-0.9,0-0.9c-6.7,0.4-13.5-0.2-20.2-0.1
			C313,56.5,313,57.4,313.6,57.4L313.6,57.4z"/>
	</g>
</g>
<g id="XMLID_1462_">
	<g id="XMLID_614_">
		<path id="XMLID_618_" class="st0" d="M334.4,56.6c-0.4-0.8-1.2-1.3-2-1.7c-0.8-0.4-1.4,0.7-0.7,1.2c0.6,0.3,1.2,0.6,1.5,1.3
			C333.6,58.1,334.8,57.4,334.4,56.6L334.4,56.6z"/>
	</g>
</g>
<g id="XMLID_1144_">
	<g id="XMLID_607_">
		<path id="XMLID_612_" class="st0" d="M333.3,56.8c-0.4,0.5-0.8,0.9-1.4,1.2c-0.8,0.4-0.1,1.6,0.7,1.2c0.7-0.4,1.3-1,1.8-1.6
			c0.2-0.3,0-0.7-0.2-0.9C333.8,56.3,333.5,56.5,333.3,56.8L333.3,56.8z"/>
	</g>
</g>
<g id="XMLID_1513_">
	<g id="XMLID_601_">
		<path id="XMLID_605_" class="st0" d="M313.6,82.8c6.7-0.1,13.5,0.5,20.2,0.1c0.6,0,0.6-0.9,0-0.9c-6.7,0.4-13.5-0.2-20.2-0.1
			C313,81.9,313,82.8,313.6,82.8L313.6,82.8z"/>
	</g>
</g>
<g id="XMLID_1506_">
	<g id="XMLID_593_">
		<path id="XMLID_599_" class="st0" d="M334.4,82c-0.4-0.8-1.2-1.3-2-1.7c-0.8-0.4-1.4,0.7-0.7,1.2c0.6,0.3,1.2,0.6,1.5,1.3
			C333.6,83.5,334.8,82.8,334.4,82L334.4,82z"/>
	</g>
</g>
<g id="XMLID_1499_">
	<g id="XMLID_584_">
		<path id="XMLID_588_" class="st0" d="M333.3,82.2c-0.4,0.5-0.8,0.9-1.4,1.2c-0.8,0.4-0.1,1.6,0.7,1.2c0.7-0.4,1.3-1,1.8-1.6
			c0.2-0.3,0-0.7-0.2-0.9C333.8,81.7,333.5,81.9,333.3,82.2L333.3,82.2z"/>
	</g>
</g>
<g id="XMLID_1534_">
	<g id="XMLID_578_">
		<path id="XMLID_582_" class="st0" d="M313.6,108.2c6.7-0.1,13.5,0.5,20.2,0.1c0.6,0,0.6-0.9,0-0.9c-6.7,0.4-13.5-0.2-20.2-0.1
			C313,107.3,313,108.2,313.6,108.2L313.6,108.2z"/>
	</g>
</g>
<g id="XMLID_1527_">
	<g id="XMLID_572_">
		<path id="XMLID_576_" class="st0" d="M334.4,107.4c-0.4-0.8-1.2-1.3-2-1.7c-0.8-0.4-1.4,0.7-0.7,1.2c0.6,0.3,1.2,0.6,1.5,1.3
			C333.6,108.9,334.8,108.2,334.4,107.4L334.4,107.4z"/>
	</g>
</g>
<g id="XMLID_1520_">
	<g id="XMLID_562_">
		<path id="XMLID_569_" class="st0" d="M333.3,107.6c-0.4,0.5-0.8,0.9-1.4,1.2c-0.8,0.4-0.1,1.6,0.7,1.2c0.7-0.4,1.3-1,1.8-1.6
			c0.2-0.3,0-0.7-0.2-0.9C333.8,107.1,333.5,107.3,333.3,107.6L333.3,107.6z"/>
	</g>
</g>
<g id="XMLID_1618_">
	<g id="XMLID_555_">
		<path id="XMLID_560_" class="st0" d="M415.2,32c6.7-0.1,13.5,0.5,20.2,0.1c0.6,0,0.6-0.9,0-0.9c-6.7,0.4-13.5-0.2-20.2-0.1
			C414.6,31.1,414.6,32,415.2,32L415.2,32z"/>
	</g>
</g>
<g id="XMLID_1611_">
	<g id="XMLID_548_">
		<path id="XMLID_553_" class="st0" d="M436.1,31.2c-0.4-0.8-1.2-1.3-2-1.7c-0.8-0.4-1.4,0.7-0.7,1.2c0.6,0.3,1.2,0.6,1.5,1.3
			C435.3,32.7,436.4,32,436.1,31.2L436.1,31.2z"/>
	</g>
</g>
<g id="XMLID_1604_">
	<g id="XMLID_541_">
		<path id="XMLID_546_" class="st0" d="M434.9,31.4c-0.4,0.5-0.8,0.9-1.4,1.2c-0.8,0.4-0.1,1.6,0.7,1.2c0.7-0.4,1.3-1,1.8-1.6
			c0.2-0.3,0-0.7-0.2-0.9C435.5,30.9,435.1,31.1,434.9,31.4L434.9,31.4z"/>
	</g>
</g>
<g id="XMLID_1597_">
	<g id="XMLID_534_">
		<path id="XMLID_538_" class="st0" d="M415.2,57.4c6.7-0.1,13.5,0.5,20.2,0.1c0.6,0,0.6-0.9,0-0.9c-6.7,0.4-13.5-0.2-20.2-0.1
			C414.6,56.5,414.6,57.4,415.2,57.4L415.2,57.4z"/>
	</g>
</g>
<g id="XMLID_1590_">
	<g id="XMLID_528_">
		<path id="XMLID_532_" class="st0" d="M436.1,56.6c-0.4-0.8-1.2-1.3-2-1.7c-0.8-0.4-1.4,0.7-0.7,1.2c0.6,0.3,1.2,0.6,1.5,1.3
			C435.3,58.1,436.4,57.4,436.1,56.6L436.1,56.6z"/>
	</g>
</g>
<g id="XMLID_1583_">
	<g id="XMLID_522_">
		<path id="XMLID_526_" class="st0" d="M434.9,56.8c-0.4,0.5-0.8,0.9-1.4,1.2c-0.8,0.4-0.1,1.6,0.7,1.2c0.7-0.4,1.3-1,1.8-1.6
			c0.2-0.3,0-0.7-0.2-0.9C435.5,56.3,435.1,56.5,434.9,56.8L434.9,56.8z"/>
	</g>
</g>
<g id="XMLID_1576_">
	<g id="XMLID_516_">
		<path id="XMLID_520_" class="st0" d="M415.2,82.8c6.7-0.1,13.5,0.5,20.2,0.1c0.6,0,0.6-0.9,0-0.9c-6.7,0.4-13.5-0.2-20.2-0.1
			C414.6,81.9,414.6,82.8,415.2,82.8L415.2,82.8z"/>
	</g>
</g>
<g id="XMLID_1569_">
	<g id="XMLID_510_">
		<path id="XMLID_514_" class="st0" d="M436.1,82c-0.4-0.8-1.2-1.3-2-1.7c-0.8-0.4-1.4,0.7-0.7,1.2c0.6,0.3,1.2,0.6,1.5,1.3
			C435.3,83.5,436.4,82.8,436.1,82L436.1,82z"/>
	</g>
</g>
<g id="XMLID_1562_">
	<g id="XMLID_495_">
		<path id="XMLID_503_" class="st0" d="M434.9,82.2c-0.4,0.5-0.8,0.9-1.4,1.2c-0.8,0.4-0.1,1.6,0.7,1.2c0.7-0.4,1.3-1,1.8-1.6
			c0.2-0.3,0-0.7-0.2-0.9C435.5,81.7,435.1,81.9,434.9,82.2L434.9,82.2z"/>
	</g>
</g>
<g id="XMLID_1516_">
	<g id="XMLID_488_">
		<path id="XMLID_493_" class="st0" d="M415.2,108.2c6.7-0.1,13.5,0.5,20.2,0.1c0.6,0,0.6-0.9,0-0.9c-6.7,0.4-13.5-0.2-20.2-0.1
			C414.6,107.3,414.6,108.2,415.2,108.2L415.2,108.2z"/>
	</g>
</g>
<g id="XMLID_1494_">
	<g id="XMLID_481_">
		<path id="XMLID_486_" class="st0" d="M436.1,107.4c-0.4-0.8-1.2-1.3-2-1.7c-0.8-0.4-1.4,0.7-0.7,1.2c0.6,0.3,1.2,0.6,1.5,1.3
			C435.3,108.9,436.4,108.2,436.1,107.4L436.1,107.4z"/>
	</g>
</g>
<g id="XMLID_1487_">
	<g id="XMLID_475_">
		<path id="XMLID_479_" class="st0" d="M434.9,107.6c-0.4,0.5-0.8,0.9-1.4,1.2c-0.8,0.4-0.1,1.6,0.7,1.2c0.7-0.4,1.3-1,1.8-1.6
			c0.2-0.3,0-0.7-0.2-0.9C435.5,107.1,435.1,107.3,434.9,107.6L434.9,107.6z"/>
	</g>
</g>
<g id="XMLID_1626_" class="st1">
	<g id="XMLID_462_">
		<path id="XMLID_466_" class="st0" d="M290.9,13.9c22.7,0.4,45.3,1.1,68-0.2c0.6,0,0.6-0.9,0-0.9c-22.6,1.2-45.3,0.6-68,0.2
			C290.3,13,290.3,13.9,290.9,13.9L290.9,13.9z"/>
	</g>
</g>
<g id="XMLID_863_" class="st1">
	<g id="XMLID_456_">
		<path id="XMLID_460_" class="st0" d="M392.5,13.9c22.7,0.4,45.3,1.1,68-0.2c0.6,0,0.6-0.9,0-0.9c-22.6,1.2-45.3,0.6-68,0.2
			C391.9,13,391.9,13.9,392.5,13.9L392.5,13.9z"/>
	</g>
</g>
<g id="XMLID_1266_" class="st1">
	<g id="XMLID_450_">
		<path id="XMLID_454_" class="st0" d="M189.3,13.9c22.7,0.4,45.3,1.1,68-0.2c0.6,0,0.6-0.9,0-0.9c-22.6,1.2-45.3,0.6-68,0.2
			C188.7,13,188.7,13.9,189.3,13.9L189.3,13.9z"/>
	</g>
</g>
<g id="XMLID_1467_" class="st1">
	<g id="XMLID_444_">
		<path id="XMLID_448_" class="st0" d="M87.6,13.9c22.7,0.4,45.3,1.1,68-0.2c0.6,0,0.6-0.9,0-0.9c-22.6,1.2-45.3,0.6-68,0.2
			C87,13,87,13.9,87.6,13.9L87.6,13.9z"/>
	</g>
</g>
<g id="XMLID_1628_">
	<g id="XMLID_438_">
		<path id="XMLID_442_" class="st0" d="M99.5,1.7C96.9,1.4,95,3.6,94.8,6c-0.2,2.9,1.3,4.5,4.2,4.6c1.2,0,2.6-0.2,3.4-1.2
			c0.7-0.9,0.7-2.3,0.8-3.4c0.1-1.3,0.1-2.5-1.1-3.3c-1.2-0.9-2.8-1.1-4.3-1.1C97,1.6,97,3,97.9,3c0.9,0,1.7,0.1,2.6,0.4
			c1.2,0.4,1.4,1.2,1.4,2.4c0,0.7-0.1,1.6-0.3,2.2c-0.4,1.2-1.6,1.3-2.6,1.2c-0.8,0-2-0.1-2.5-0.9c-0.4-0.7-0.4-1.8-0.3-2.6
			c0.3-1.7,1.5-2.9,3.3-2.7C100.3,3.2,100.3,1.8,99.5,1.7L99.5,1.7z"/>
	</g>
</g>
<g id="XMLID_1629_">
	<g id="XMLID_432_">
		<path id="XMLID_436_" class="st0" d="M104.2,4.5c0.4,2.6-0.4,5.2-0.1,7.7c0.1,0.9,1.4,0.9,1.3,0c-0.3-2.7,0.5-5.4,0-8.1
			C105.3,3.3,104,3.7,104.2,4.5L104.2,4.5z"/>
	</g>
</g>
<g id="XMLID_1630_">
	<g id="XMLID_426_">
		<path id="XMLID_430_" class="st0" d="M105.4,6.4c0.5-0.4,1.1-0.9,1.8-1c1.1-0.1,1.3,0.9,1.1,1.8c-0.1,0.6-0.2,1.2-0.6,1.7
			c-0.6,0.7-1.5,0.7-2-0.2c-0.4-0.7-1.6-0.1-1.2,0.7c0.6,1.1,1.9,1.6,3.1,1.2c1.4-0.5,1.9-2,2.1-3.3c0.2-1.3-0.1-2.7-1.5-3.1
			c-1.4-0.4-2.7,0.5-3.7,1.3C103.8,6,104.7,7,105.4,6.4L105.4,6.4z"/>
	</g>
</g>
<g id="XMLID_1631_">
	<g id="XMLID_420_">
		<path id="XMLID_424_" class="st0" d="M111.2,7.8c1.5,0.1,3.1,0.1,4.6,0c0.5,0,0.7-0.4,0.6-0.9c-0.3-1.8-1.2-2.8-3-2.9
			c-1.7-0.1-2.7,1.1-2.9,2.7c-0.2,1.3,0.3,3,1.5,3.7c1.3,0.7,3.3,0.4,4.1-1c0.4-0.7-0.7-1.4-1.2-0.7c-0.5,0.8-1.9,0.8-2.6,0.3
			c-0.6-0.5-0.7-1.5-0.6-2.2c0.2-0.8,0.7-1.4,1.6-1.4c1.2,0,1.6,0.8,1.7,1.9c0.2-0.3,0.4-0.6,0.6-0.9c-1.5,0.1-3.1,0.1-4.6,0
			C110.3,6.5,110.3,7.8,111.2,7.8L111.2,7.8z"/>
	</g>
</g>
<g id="XMLID_1632_">
	<g id="XMLID_414_">
		<path id="XMLID_418_" class="st0" d="M117.4,4.7c0,1.7,0,3.3-0.1,5c0,0.9,1.3,0.8,1.3,0c0.1-1.3,0-4.3,1.8-4.4
			c0.9,0,0.9-1.4,0-1.3c-2.9,0.1-2.9,3.6-3.2,5.7c0.4,0,0.9,0,1.3,0c0.1-1.7,0.1-3.3,0.1-5C118.7,3.8,117.4,3.8,117.4,4.7L117.4,4.7
			z"/>
	</g>
</g>
<g id="XMLID_1633_">
	<g id="XMLID_408_">
		<path id="XMLID_412_" class="st0" d="M122.1,6.3c0.7-0.6,2.2-1.7,2.7-0.4c0,0.2,0.1,0.4,0.1,0.7c0.6-0.1,0.7-0.2,0.2-0.3
			c-0.3-0.1-0.7,0-1,0c-1.2,0.2-3.1,0.9-3.3,2.4c-0.2,1.5,1.6,1.9,2.7,1.8c0.7,0,1.4-0.3,1.9-0.8c0.5-0.6,0.5-1.3,0.7-2
			c-0.4-0.1-0.9-0.1-1.3-0.2c-0.1,1.4-0.4,3,1.5,3c0.9,0,0.9-1.3,0-1.3c-0.4,0-0.2-0.2-0.2-0.6c0-0.3,0-0.7,0.1-1
			c0-0.8-1.1-0.9-1.3-0.2c-0.3,0.9-0.3,1.9-1.6,1.8c-0.2,0-0.5-0.1-0.7-0.1c0-0.2,0-0.5,0-0.7c0.2-0.3,1-0.5,1.3-0.6
			c0.9-0.3,2.4,0.4,2.5-0.9c0.1-1-0.2-2.4-1.2-2.8c-1.2-0.6-2.8,0.4-3.7,1.1C120.7,5.6,121.4,6.8,122.1,6.3L122.1,6.3z"/>
	</g>
</g>
<g id="XMLID_1636_">
	<g id="XMLID_402_">
		<path id="XMLID_406_" class="st0" d="M127.9,2.8c-0.1,1.1-0.1,2.2-0.2,3.3c-0.1,1-0.3,2.1-0.1,3.1c0.2,1.1,1.1,1.7,2.1,1.2
			c0.8-0.4,0.1-1.5-0.7-1.2c-0.1,0,0-2.9,0-3.1c0.1-1.1,0.1-2.2,0.2-3.3C129.3,2,127.9,2,127.9,2.8L127.9,2.8z"/>
	</g>
</g>
<g id="XMLID_1638_">
	<g id="XMLID_396_">
		<path id="XMLID_400_" class="st0" d="M126.8,5.1c1,0,1.9,0.1,2.8,0.2c0.8,0.2,1.2-1.1,0.4-1.3c-1.1-0.2-2.1-0.3-3.2-0.3
			C126,3.8,126,5.1,126.8,5.1L126.8,5.1z"/>
	</g>
</g>
<g id="XMLID_1650_">
	<g id="XMLID_390_">
		<path id="XMLID_394_" class="st0" d="M131,4.5c0,1.7,0.2,3.5-0.1,5.2c-0.2,0.8,1.1,1.2,1.3,0.4c0.4-1.8,0.2-3.7,0.2-5.5
			C132.4,3.6,131,3.6,131,4.5L131,4.5z"/>
	</g>
</g>
<g id="XMLID_1657_">
	<g id="XMLID_384_">
		<path id="XMLID_388_" class="st0" d="M132.3,2.7c0,0,0-0.1,0-0.1c0-0.9-1.3-0.9-1.3,0c0,0,0,0.1,0,0.1
			C130.9,3.5,132.3,3.5,132.3,2.7L132.3,2.7z"/>
	</g>
</g>
<g id="XMLID_1664_">
	<g id="XMLID_378_">
		<path id="XMLID_382_" class="st0" d="M136.3,3.8c-2,0-3.2,1.7-3.3,3.6c-0.1,0.8,0,1.9,0.7,2.4c0.6,0.5,1.7,0.8,2.5,0.8
			c1.9,0,2.7-1.8,2.8-3.5c0.2-2.2-1.1-3.1-3.1-3.4c-0.8-0.1-1.2,1.2-0.4,1.3c1,0.1,2,0.3,2.2,1.5c0.1,0.9-0.2,2.4-1.1,2.7
			c-0.4,0.1-1,0-1.4-0.2c-0.7-0.3-0.8-0.5-0.8-1.3c0-1.2,0.6-2.6,2-2.6C137.1,5.2,137.1,3.8,136.3,3.8L136.3,3.8z"/>
	</g>
</g>
<g id="XMLID_1671_">
	<g id="XMLID_372_">
		<path id="XMLID_376_" class="st0" d="M139.9,4.7c0,0.8,0,1.7,0.1,2.5c0,0.8,0.2,1.7-0.1,2.5c-0.3,0.8,1,1.2,1.3,0.4
			c0.3-0.8,0.1-1.7,0.1-2.5c0-1,0-1.9-0.1-2.9C141.2,3.8,139.9,3.8,139.9,4.7L139.9,4.7z"/>
	</g>
</g>
<g id="XMLID_1678_">
	<g id="XMLID_366_">
		<path id="XMLID_370_" class="st0" d="M141.1,6.3c0.4-0.3,0.8-0.6,1.2-0.7c0.9-0.3,1.3,0.1,1.5,1c0.1,1,0.1,2.2-0.1,3.2
			c-0.2,0.8,1.1,1.2,1.3,0.4c0.3-1.5,0.7-4.2-0.6-5.4c-1.2-1.2-3.1-0.2-4.2,0.7C139.5,5.9,140.4,6.8,141.1,6.3L141.1,6.3z"/>
	</g>
</g>
<g id="XMLID_1685_">
	<g id="XMLID_360_">
		<path id="XMLID_364_" class="st0" d="M206.5,1.8c-1.4,0-2.8,0-4.2,0c-0.6,0-1,0-1.3,0.5c-0.4,0.7-0.2,2.3-0.3,3.1
			c-0.1,1.5,0,3,0.1,4.5c0.1,0.9,1.4,0.9,1.3,0c-0.1-1.2-0.1-2.4-0.1-3.6c0-1.1-0.1-2.5,0.2-3.5c-0.2,0.2-0.3,0.3-0.5,0.5
			c0.7-0.2,1.6,0,2.3,0c0.8,0,1.6,0,2.4,0C207.4,3.2,207.4,1.8,206.5,1.8L206.5,1.8z"/>
	</g>
</g>
<g id="XMLID_1692_">
	<g id="XMLID_354_">
		<path id="XMLID_358_" class="st0" d="M201.4,6.7c1-0.1,1.9-0.1,2.9-0.1c0.9,0,0.9-1.3,0-1.3c-1-0.1-1.9,0-2.9,0.1
			C200.6,5.5,200.6,6.8,201.4,6.7L201.4,6.7z"/>
	</g>
</g>
<g id="XMLID_1699_">
	<g id="XMLID_348_">
		<path id="XMLID_352_" class="st0" d="M207.8,4.4c-0.3,2.2-0.9,6.2,2.2,6.3c3.2,0.1,3.2-4,3-6.2c-0.1-0.9-1.4-0.9-1.3,0
			c0,1.8,0.1,3.6,0.1,5.5c0,0.9,1.4,0.9,1.3,0c0-1.8-0.1-3.6-0.1-5.5c-0.4,0-0.9,0-1.3,0c0.1,1.4,0.4,5.3-1.8,4.9
			c-1.6-0.3-0.9-3.9-0.7-5C209.3,3.5,207.9,3.5,207.8,4.4L207.8,4.4z"/>
	</g>
</g>
<g id="XMLID_1706_">
	<g id="XMLID_342_">
		<path id="XMLID_346_" class="st0" d="M214.3,4.5c0,1.8,0,3.6-0.1,5.3c0,0.9,1.3,0.9,1.3,0c0.1-1.8,0.1-3.6,0.1-5.3
			C215.7,3.6,214.3,3.6,214.3,4.5L214.3,4.5z"/>
	</g>
</g>
<g id="XMLID_1713_">
	<g id="XMLID_336_">
		<path id="XMLID_340_" class="st0" d="M215.5,6.4c0.4-0.4,0.9-0.9,1.5-1c0.8-0.1,0.9,0.5,1,1.1c0.3,1.1,0.2,2.3,0.1,3.5
			c-0.1,0.9,1.3,0.9,1.3,0c0.1-1.8,0.2-4.1-1-5.5c-1-1.2-3.2,0.1-4,1C214,6.1,215,7.1,215.5,6.4L215.5,6.4z"/>
	</g>
</g>
<g id="XMLID_1720_">
	<g id="XMLID_330_">
		<path id="XMLID_334_" class="st0" d="M225.8,5.4c-1.4-2.9-5.3-1.1-5.5,1.6c-0.1,1.3,0.6,3,1.9,3.5c1.4,0.5,2.7-0.4,3.6-1.3
			c0.6-0.6-0.4-1.6-1-1c-0.4,0.5-1,1-1.6,1.1c-1,0.1-1.5-1.1-1.6-2c-0.1-1.6,2.1-3.1,3-1.3C225,6.9,226.1,6.2,225.8,5.4L225.8,5.4z"
			/>
	</g>
</g>
<g id="XMLID_1727_">
	<g id="XMLID_324_">
		<path id="XMLID_328_" class="st0" d="M227.1,2.8C227,4,227,5.1,226.9,6.3c-0.1,1-0.3,2.1-0.1,3.1c0.2,1,1,1.7,2,1.3
			c0.8-0.3,0.4-1.6-0.4-1.3c-0.5,0.2-0.2-2.9-0.2-3.2c0.1-1.2,0.1-2.3,0.2-3.5C228.5,1.9,227.1,1.9,227.1,2.8L227.1,2.8z"/>
	</g>
</g>
<g id="XMLID_1734_">
	<g id="XMLID_318_">
		<path id="XMLID_322_" class="st0" d="M226.3,5.2c0.8,0,1.7-0.1,2.4,0.1c0.8,0.3,1.2-1,0.4-1.3c-0.9-0.3-1.9-0.2-2.8-0.2
			C225.5,3.9,225.5,5.2,226.3,5.2L226.3,5.2z"/>
	</g>
</g>
<g id="XMLID_1741_">
	<g id="XMLID_312_">
		<path id="XMLID_316_" class="st0" d="M230.2,4.7c0.1,1.9,0.1,3.7-0.1,5.6c-0.1,0.9,1.3,0.9,1.3,0c0.1-1.9,0.1-3.7,0.1-5.6
			C231.5,3.8,230.1,3.8,230.2,4.7L230.2,4.7z"/>
	</g>
</g>
<g id="XMLID_1748_">
	<g id="XMLID_306_">
		<path id="XMLID_310_" class="st0" d="M231.7,2.7c0-0.1,0-0.1,0-0.2c0-0.9-1.3-0.9-1.3,0c0,0.1,0,0.1,0,0.2
			C230.3,3.6,231.7,3.6,231.7,2.7L231.7,2.7z"/>
	</g>
</g>
<g id="XMLID_1755_">
	<g id="XMLID_300_">
		<path id="XMLID_304_" class="st0" d="M235.3,4c-3.8-0.5-4.6,6.9-0.4,6.8c1.8,0,3.1-1.3,3.1-3.1c0-1.6-0.6-4-2.6-3.7
			c-0.9,0.1-0.9,1.4,0,1.3c1.1-0.1,1.2,1.3,1.2,2.1c0.1,1.1-0.4,1.9-1.5,2c-1.3,0.2-1.8-1-1.7-2.1c0-0.6,0.6-2.2,1.5-2.1
			C235.8,5.4,236.2,4.1,235.3,4L235.3,4z"/>
	</g>
</g>
<g id="XMLID_1762_">
	<g id="XMLID_294_">
		<path id="XMLID_298_" class="st0" d="M239,4.4c-0.2,1.8-0.3,3.6-0.1,5.4c0.1,0.8,1.4,0.9,1.3,0c-0.1-1.4-0.3-3.4,1.1-4.3
			c0.5-0.3,1.1-0.3,1.5,0.2c0.2,0.2,0.2,1.3,0.3,1.5c0.1,0.9,0,1.8-0.1,2.7c-0.2,0.8,1.1,1.2,1.3,0.4c0.3-1.9,0.8-6.7-2.3-6.4
			c-2.9,0.3-3.2,3.7-3,6c0.4,0,0.9,0,1.3,0c-0.2-1.8-0.2-3.6,0.1-5.4C240.5,3.5,239.1,3.5,239,4.4L239,4.4z"/>
	</g>
</g>
<g id="XMLID_1769_">
	<g id="XMLID_288_">
		<path id="XMLID_292_" class="st0" d="M298.2,2.1c0.4,2.6-0.5,5.2-0.3,7.9c0.1,0.9,1.4,0.9,1.3,0c-0.2-2.6,0.6-5.2,0.3-7.9
			C299.4,1.2,298.1,1.2,298.2,2.1L298.2,2.1z"/>
	</g>
</g>
<g id="XMLID_1776_">
	<g id="XMLID_282_">
		<path id="XMLID_286_" class="st0" d="M300.8,4.7c0.3,1.8-0.1,3.6-0.3,5.5c-0.1,0.9,1.3,0.9,1.3,0c0.2-2,0.6-3.9,0.2-5.8
			C301.9,3.5,300.6,3.8,300.8,4.7L300.8,4.7z"/>
	</g>
</g>
<g id="XMLID_1783_">
	<g id="XMLID_276_">
		<path id="XMLID_280_" class="st0" d="M302,6.5c0.8-0.8,2.4-2.1,2.6-0.2c0.2,1.2,0,2.5-0.1,3.7c-0.1,0.9,1.3,0.9,1.3,0
			c0.1-1.2,0.1-2.5,0.1-3.7c0-0.7,0-1.5-0.7-1.9c-1.5-1.1-3.2,0.1-4.2,1.2C300.5,6.1,301.4,7.1,302,6.5L302,6.5z"/>
	</g>
</g>
<g id="XMLID_1790_">
	<g id="XMLID_270_">
		<path id="XMLID_274_" class="st0" d="M307.3,4.6c-0.1,2.6-0.3,5.1-0.4,7.7c0,0.9,1.3,0.9,1.3,0c0.1-2.6,0.3-5.1,0.4-7.7
			C308.7,3.7,307.4,3.7,307.3,4.6L307.3,4.6z"/>
	</g>
</g>
<g id="XMLID_1797_">
	<g id="XMLID_264_">
		<path id="XMLID_268_" class="st0" d="M308.3,6.4c0.5-0.3,1.1-0.8,1.7-1c1-0.2,1.2,0.7,1.2,1.5c0.1,0.7,0.1,1.6-0.4,2.1
			c-0.3,0.3-0.7,0.4-1.1,0.4c-0.6,0.1-0.9-0.1-1.1-0.6c-0.4-0.8-1.6-0.1-1.2,0.7c0.7,1.3,1.9,1.6,3.3,1.1c1.3-0.4,1.9-1.6,1.9-2.9
			c0-1.2-0.2-2.9-1.4-3.4c-1.3-0.6-2.5,0.4-3.6,1C306.9,5.6,307.6,6.8,308.3,6.4L308.3,6.4z"/>
	</g>
</g>
<g id="XMLID_1804_">
	<g id="XMLID_258_">
		<path id="XMLID_262_" class="st0" d="M313.8,4.3c-0.6,2.2-1.1,6.3,2.3,6.2c2.6-0.1,3.4-4.3,2.9-6.3c-0.2-0.8-1.3-0.5-1.3,0.2
			c-0.2,1.9-0.2,3.7-0.2,5.6c0,0.9,1.4,0.9,1.3,0c0-1.9,0-3.8,0.2-5.6c-0.4,0.1-0.9,0.1-1.3,0.2c0.3,1.2-0.2,4.1-1.6,4.4
			c-2.2,0.5-1.4-3.2-1.1-4.3C315.3,3.8,314.1,3.5,313.8,4.3L313.8,4.3z"/>
	</g>
</g>
<g id="XMLID_1811_">
	<g id="XMLID_252_">
		<path id="XMLID_256_" class="st0" d="M320.6,2.8c-0.1,2-0.1,4.1,0.1,6.1c0.1,1,0.5,2.1,1.8,1.7c0.8-0.3,0.5-1.6-0.4-1.3
			c-0.1,0-0.2-6-0.1-6.5C322,2,320.7,2,320.6,2.8L320.6,2.8z"/>
	</g>
</g>
<g id="XMLID_2038_">
	<g id="XMLID_246_">
		<path id="XMLID_250_" class="st0" d="M339.7,2.8c-0.1,2-0.1,4.1,0.1,6.1c0.1,1,0.5,2.1,1.8,1.7c0.8-0.3,0.5-1.6-0.4-1.3
			c-0.1,0-0.2-6-0.1-6.5C341.1,2,339.7,2,339.7,2.8L339.7,2.8z"/>
	</g>
</g>
<g id="XMLID_1867_">
	<g id="XMLID_240_">
		<path id="XMLID_244_" class="st0" d="M441.3,2.8c-0.1,2-0.1,4.1,0.1,6.1c0.1,1,0.5,2.1,1.8,1.7c0.8-0.3,0.5-1.6-0.4-1.3
			c-0.1,0-0.2-6-0.1-6.5C442.7,2,441.4,2,441.3,2.8L441.3,2.8z"/>
	</g>
</g>
<g id="XMLID_1818_">
	<g id="XMLID_234_">
		<path id="XMLID_238_" class="st0" d="M319.6,4.9c0.2,0.5,0.7,0.4,1.2,0.4c0.6,0,1.1,0,1.7,0c0.9,0,0.9-1.3,0-1.3
			c-0.4,0-0.7,0-1.1,0c-0.3,0-0.7,0.1-1,0c0.1,0.1,0.3,0.2,0.4,0.3c0,0,0,0,0-0.1C320.4,3.4,319.2,4.1,319.6,4.9L319.6,4.9z"/>
	</g>
</g>
<g id="XMLID_1825_">
	<g id="XMLID_228_">
		<path id="XMLID_232_" class="st0" d="M324,4.9c0,0.1,0.1,0.2,0.1,0.3c0.3,0.8,1.6,0.5,1.3-0.4c0-0.1-0.1-0.2-0.1-0.3
			C325,3.7,323.7,4,324,4.9L324,4.9z"/>
	</g>
</g>
<g id="XMLID_1832_">
	<g id="XMLID_222_">
		<path id="XMLID_226_" class="st0" d="M324.1,9.9c0,0.3,0.2,0.5,0.5,0.6c0.8,0.3,1.5-0.8,0.7-1.2c0,0.1,0.1,0.1,0.1,0.2
			C325.3,8.7,324,9,324.1,9.9L324.1,9.9z"/>
	</g>
</g>
<g id="XMLID_1839_">
	<g id="XMLID_216_">
		<path id="XMLID_220_" class="st0" d="M329.8,2.1c0.1,2.7,0.1,5.3,0.1,8c0,0.9,1.3,0.9,1.3,0c0-2.7,0-5.3-0.1-8
			C331.2,1.3,329.8,1.3,329.8,2.1L329.8,2.1z"/>
	</g>
</g>
<g id="XMLID_1846_">
	<g id="XMLID_210_">
		<path id="XMLID_214_" class="st0" d="M331.1,6.1c0.6-0.4,1.4-1,2.2-0.8c0.7,0.2,0.9,1,0.9,1.6c0,1.7-1.4,2.8-2.9,1.7
			c-0.7-0.5-1.4,0.6-0.7,1.2c2.3,1.7,4.9-0.3,4.9-2.9c0-1.1-0.4-2.2-1.4-2.8c-1.3-0.7-2.6,0-3.7,0.7C329.7,5.4,330.4,6.6,331.1,6.1
			L331.1,6.1z"/>
	</g>
</g>
<g id="XMLID_1853_">
	<g id="XMLID_204_">
		<path id="XMLID_208_" class="st0" d="M336.4,4.7c0.1,1.9-0.4,3.7-0.1,5.6c0.1,0.9,1.4,0.5,1.3-0.4c-0.3-1.7,0.2-3.5,0.1-5.2
			C337.7,3.8,336.4,3.8,336.4,4.7L336.4,4.7z"/>
	</g>
</g>
<g id="XMLID_1860_">
	<g id="XMLID_198_">
		<path id="XMLID_202_" class="st0" d="M337.9,2.6c0-0.1,0-0.1,0-0.2c0-0.9-1.3-0.9-1.3,0c0,0.1,0,0.1,0,0.2
			C336.6,3.4,337.9,3.4,337.9,2.6L337.9,2.6z"/>
	</g>
</g>
<g id="XMLID_1874_">
	<g id="XMLID_192_">
		<path id="XMLID_196_" class="st0" d="M339,5.2c0.9,0,1.9,0.1,2.8,0c0.9,0,0.9-1.4,0-1.3c-0.9,0-1.9,0-2.8,0
			C338.1,3.8,338.1,5.2,339,5.2L339,5.2z"/>
	</g>
</g>
<g id="XMLID_2029_">
	<g id="XMLID_186_">
		<path id="XMLID_190_" class="st0" d="M399.8,2.1c0.4,2.6-0.5,5.2-0.3,7.9c0.1,0.9,1.4,0.9,1.3,0c-0.2-2.6,0.6-5.2,0.3-7.9
			C401,1.2,399.7,1.2,399.8,2.1L399.8,2.1z"/>
	</g>
</g>
<g id="XMLID_2022_">
	<g id="XMLID_180_">
		<path id="XMLID_184_" class="st0" d="M402.4,4.7c0.3,1.8-0.1,3.6-0.3,5.5c-0.1,0.9,1.3,0.9,1.3,0c0.2-2,0.6-3.9,0.2-5.8
			C403.6,3.5,402.3,3.8,402.4,4.7L402.4,4.7z"/>
	</g>
</g>
<g id="XMLID_2015_">
	<g id="XMLID_174_">
		<path id="XMLID_178_" class="st0" d="M403.6,6.5c0.8-0.8,2.4-2.1,2.6-0.2c0.2,1.2,0,2.5-0.1,3.7c-0.1,0.9,1.3,0.9,1.3,0
			c0.1-1.2,0.1-2.5,0.1-3.7c0-0.7,0-1.5-0.7-1.9c-1.5-1.1-3.2,0.1-4.2,1.2C402.1,6.1,403,7.1,403.6,6.5L403.6,6.5z"/>
	</g>
</g>
<g id="XMLID_2008_">
	<g id="XMLID_168_">
		<path id="XMLID_172_" class="st0" d="M409,4.6c-0.1,2.6-0.3,5.1-0.4,7.7c0,0.9,1.3,0.9,1.3,0c0.1-2.6,0.3-5.1,0.4-7.7
			C410.4,3.7,409,3.7,409,4.6L409,4.6z"/>
	</g>
</g>
<g id="XMLID_2001_">
	<g id="XMLID_162_">
		<path id="XMLID_166_" class="st0" d="M409.9,6.4c0.5-0.3,1.1-0.8,1.7-1c1-0.2,1.2,0.7,1.2,1.5c0.1,0.7,0.1,1.6-0.4,2.1
			c-0.3,0.3-0.7,0.4-1.1,0.4c-0.6,0.1-0.9-0.1-1.1-0.6c-0.4-0.8-1.6-0.1-1.2,0.7c0.7,1.3,1.9,1.6,3.3,1.1c1.3-0.4,1.9-1.6,1.9-2.9
			c0-1.2-0.2-2.9-1.4-3.4c-1.3-0.6-2.5,0.4-3.6,1C408.5,5.6,409.2,6.8,409.9,6.4L409.9,6.4z"/>
	</g>
</g>
<g id="XMLID_1994_">
	<g id="XMLID_156_">
		<path id="XMLID_160_" class="st0" d="M415.5,4.3c-0.6,2.2-1.1,6.3,2.3,6.2c2.6-0.1,3.4-4.3,2.9-6.3c-0.2-0.8-1.3-0.5-1.3,0.2
			c-0.2,1.9-0.2,3.7-0.2,5.6c0,0.9,1.4,0.9,1.3,0c0-1.9,0-3.8,0.2-5.6c-0.4,0.1-0.9,0.1-1.3,0.2c0.3,1.2-0.2,4.1-1.6,4.4
			c-2.2,0.5-1.4-3.2-1.1-4.3C417,3.8,415.7,3.5,415.5,4.3L415.5,4.3z"/>
	</g>
</g>
<g id="XMLID_1987_">
	<g id="XMLID_150_">
		<path id="XMLID_154_" class="st0" d="M422.3,2.8c-0.1,2-0.1,4.1,0.1,6.1c0.1,1,0.5,2.1,1.8,1.7c0.8-0.3,0.5-1.6-0.4-1.3
			c-0.1,0-0.2-6-0.1-6.5C423.7,2,422.3,2,422.3,2.8L422.3,2.8z"/>
	</g>
</g>
<g id="XMLID_1980_">
	<g id="XMLID_144_">
		<path id="XMLID_148_" class="st0" d="M421.3,4.9c0.2,0.5,0.7,0.4,1.2,0.4c0.6,0,1.1,0,1.7,0c0.9,0,0.9-1.3,0-1.3
			c-0.4,0-0.7,0-1.1,0c-0.3,0-0.7,0.1-1,0c0.1,0.1,0.3,0.2,0.4,0.3c0,0,0,0,0-0.1C422,3.4,420.9,4.1,421.3,4.9L421.3,4.9z"/>
	</g>
</g>
<g id="XMLID_1973_">
	<g id="XMLID_138_">
		<path id="XMLID_142_" class="st0" d="M425.6,4.9c0,0.1,0.1,0.2,0.1,0.3c0.3,0.8,1.6,0.5,1.3-0.4c0-0.1-0.1-0.2-0.1-0.3
			C426.7,3.7,425.4,4,425.6,4.9L425.6,4.9z"/>
	</g>
</g>
<g id="XMLID_1966_">
	<g id="XMLID_132_">
		<path id="XMLID_136_" class="st0" d="M425.8,9.9c0,0.3,0.2,0.5,0.5,0.6c0.8,0.3,1.5-0.8,0.7-1.2c0,0.1,0.1,0.1,0.1,0.2
			C426.9,8.7,425.6,9,425.8,9.9L425.8,9.9z"/>
	</g>
</g>
<g id="XMLID_1959_">
	<g id="XMLID_126_">
		<path id="XMLID_130_" class="st0" d="M431.5,2.1c0.1,2.7,0.1,5.3,0.1,8c0,0.9,1.3,0.9,1.3,0c0-2.7,0-5.3-0.1-8
			C432.8,1.3,431.4,1.3,431.5,2.1L431.5,2.1z"/>
	</g>
</g>
<g id="XMLID_1952_">
	<g id="XMLID_120_">
		<path id="XMLID_124_" class="st0" d="M432.8,6.1c0.6-0.4,1.4-1,2.2-0.8c0.7,0.2,0.9,1,0.9,1.6c0,1.7-1.4,2.8-2.9,1.7
			c-0.7-0.5-1.4,0.6-0.7,1.2c2.3,1.7,4.9-0.3,4.9-2.9c0-1.1-0.4-2.2-1.4-2.8c-1.3-0.7-2.6,0-3.7,0.7C431.3,5.4,432,6.6,432.8,6.1
			L432.8,6.1z"/>
	</g>
</g>
<g id="XMLID_1945_">
	<g id="XMLID_114_">
		<path id="XMLID_118_" class="st0" d="M438.1,4.7c0.1,1.9-0.4,3.7-0.1,5.6c0.1,0.9,1.4,0.5,1.3-0.4c-0.3-1.7,0.2-3.5,0.1-5.2
			C439.4,3.8,438,3.8,438.1,4.7L438.1,4.7z"/>
	</g>
</g>
<g id="XMLID_1938_">
	<g id="XMLID_108_">
		<path id="XMLID_112_" class="st0" d="M439.5,2.6c0-0.1,0-0.1,0-0.2c0-0.9-1.3-0.9-1.3,0c0,0.1,0,0.1,0,0.2
			C438.2,3.4,439.5,3.4,439.5,2.6L439.5,2.6z"/>
	</g>
</g>
<g id="XMLID_38_">
	<g id="XMLID_102_">
		<path id="XMLID_106_" class="st0" d="M440.6,5.2c0.9,0,1.9,0.1,2.8,0c0.9,0,0.9-1.4,0-1.3c-0.9,0-1.9,0-2.8,0
			C439.7,3.8,439.7,5.2,440.6,5.2L440.6,5.2z"/>
	</g>
</g>
<g id="XMLID_1252_">
	<g id="XMLID_96_">
		<path id="XMLID_100_" class="st0" d="M440,25.9c1.5-0.1,2.9-0.1,4.3,0c1,0.1,2.9-0.4,3.7-0.1c1.6,0.6,0.9,3.9,0.8,5.2
			c-0.1,1.6,0.1,3.8-0.8,5.1c-0.7,1.1-1.2,0.9-2.4,0.9c-0.9,0-1.8,0-2.7,0c-1.2,0-2.4,0.3-3.1-1.2c-0.2-0.4-0.1-1.3-0.1-1.8
			c-0.1-1.5-0.1-3.1,0-4.6c0-0.6-0.1-2,0.1-2.5c0.5-1.2,1.9-1.1,2.9-1c0.4,0,0.4-0.6,0-0.7c-1.1-0.1-2.8-0.5-3.4,0.6
			c-0.5,0.9-0.2,2.7-0.3,3.6c-0.1,1.4-0.1,2.8,0,4.2c0.1,1-0.5,3.3,0.6,4c0.7,0.4,2.2,0.1,2.8,0.2c1.7,0,3.4,0.1,5,0
			c1.3-0.1,1.6-0.2,1.8-1.5c0.3-2.9,0.3-6,0.4-8.9c0-1.6,0.1-2.1-1.6-2.1c-2.7-0.1-5.4-0.1-8.1,0.1C439.5,25.3,439.5,25.9,440,25.9
			L440,25.9z"/>
	</g>
</g>
<g id="XMLID_1253_">
	<g id="XMLID_90_">
		<path id="XMLID_94_" class="st0" d="M401.8,25.9c1.5-0.1,2.9-0.1,4.3,0c1,0.1,2.9-0.4,3.7-0.1c1.6,0.6,0.9,3.9,0.8,5.2
			c-0.1,1.6,0.1,3.8-0.8,5.1c-0.7,1.1-1.2,0.9-2.4,0.9c-0.9,0-1.8,0-2.7,0c-1.2,0-2.4,0.3-3.1-1.2c-0.2-0.4-0.1-1.3-0.1-1.8
			c-0.1-1.5-0.1-3.1,0-4.6c0-0.6-0.1-2,0.1-2.5c0.5-1.2,1.9-1.1,2.9-1c0.4,0,0.4-0.6,0-0.7c-1.1-0.1-2.8-0.5-3.4,0.6
			c-0.5,0.9-0.2,2.7-0.3,3.6c-0.1,1.4-0.1,2.8,0,4.2c0.1,1-0.5,3.3,0.6,4c0.7,0.4,2.2,0.1,2.8,0.2c1.7,0,3.4,0.1,5,0
			c1.3-0.1,1.6-0.2,1.8-1.5c0.3-2.9,0.3-6,0.4-8.9c0-1.6,0.1-2.1-1.6-2.1c-2.7-0.1-5.4-0.1-8.1,0.1
			C401.4,25.3,401.4,25.9,401.8,25.9L401.8,25.9z"/>
	</g>
</g>
<g id="XMLID_472_">
	<g id="XMLID_84_">
		<path id="XMLID_88_" class="st0" d="M401.8,51.3c1.5-0.1,2.9-0.1,4.3,0c1,0.1,2.9-0.4,3.7-0.1c1.6,0.6,0.9,3.9,0.8,5.2
			c-0.1,1.6,0.1,3.8-0.8,5.1c-0.7,1.1-1.2,0.9-2.4,0.9c-0.9,0-1.8,0-2.7,0c-1.2,0-2.4,0.3-3.1-1.2c-0.2-0.4-0.1-1.3-0.1-1.8
			c-0.1-1.5-0.1-3.1,0-4.6c0-0.6-0.1-2,0.1-2.5c0.5-1.2,1.9-1.1,2.9-1c0.4,0,0.4-0.6,0-0.7c-1.1-0.1-2.8-0.5-3.4,0.6
			c-0.5,0.9-0.2,2.7-0.3,3.6c-0.1,1.4-0.1,2.8,0,4.2c0.1,1-0.5,3.3,0.6,4c0.7,0.4,2.2,0.1,2.8,0.2c1.7,0,3.4,0.1,5,0
			c1.3-0.1,1.6-0.2,1.8-1.5c0.3-2.9,0.3-6,0.4-8.9c0-1.6,0.1-2.1-1.6-2.1c-2.7-0.1-5.4-0.1-8.1,0.1
			C401.4,50.7,401.4,51.3,401.8,51.3L401.8,51.3z"/>
	</g>
</g>
<g id="XMLID_633_">
	<g id="XMLID_78_">
		<path id="XMLID_82_" class="st0" d="M401.8,76.7c1.5-0.1,2.9-0.1,4.3,0c1,0.1,2.9-0.4,3.7-0.1c1.6,0.6,0.9,3.9,0.8,5.2
			c-0.1,1.6,0.1,3.8-0.8,5.1c-0.7,1.1-1.2,0.9-2.4,0.9c-0.9,0-1.8,0-2.7,0c-1.2,0-2.4,0.3-3.1-1.2c-0.2-0.4-0.1-1.3-0.1-1.8
			c-0.1-1.5-0.1-3.1,0-4.6c0-0.6-0.1-2,0.1-2.5c0.5-1.2,1.9-1.1,2.9-1c0.4,0,0.4-0.6,0-0.7c-1.1-0.1-2.8-0.5-3.4,0.6
			c-0.5,0.9-0.2,2.7-0.3,3.6c-0.1,1.4-0.1,2.8,0,4.2c0.1,1-0.5,3.3,0.6,4c0.7,0.4,2.2,0.1,2.8,0.2c1.7,0,3.4,0.1,5,0
			c1.3-0.1,1.6-0.2,1.8-1.5c0.3-2.9,0.3-6,0.4-8.9c0-1.6,0.1-2.1-1.6-2.1c-2.7-0.1-5.4-0.1-8.1,0.1
			C401.4,76.1,401.4,76.8,401.8,76.7L401.8,76.7z"/>
	</g>
</g>
<g id="XMLID_1206_">
	<g id="XMLID_72_">
		<path id="XMLID_76_" class="st0" d="M401.8,102.1c1.5-0.1,2.9-0.1,4.3,0c1,0.1,2.9-0.4,3.7-0.1c1.6,0.6,0.9,3.9,0.8,5.2
			c-0.1,1.6,0.1,3.8-0.8,5.1c-0.7,1.1-1.2,0.9-2.4,0.9c-0.9,0-1.8,0-2.7,0c-1.2,0-2.4,0.3-3.1-1.2c-0.2-0.4-0.1-1.3-0.1-1.8
			c-0.1-1.5-0.1-3.1,0-4.6c0-0.6-0.1-2,0.1-2.5c0.5-1.2,1.9-1.1,2.9-1c0.4,0,0.4-0.6,0-0.7c-1.1-0.1-2.8-0.5-3.4,0.6
			c-0.5,0.9-0.2,2.7-0.3,3.6c-0.1,1.4-0.1,2.8,0,4.2c0.1,1-0.5,3.3,0.6,4c0.7,0.4,2.2,0.1,2.8,0.2c1.7,0,3.4,0.1,5,0
			c1.3-0.1,1.6-0.2,1.8-1.5c0.3-2.9,0.3-6,0.4-8.9c0-1.6,0.1-2.1-1.6-2.1c-2.7-0.1-5.4-0.1-8.1,0.1
			C401.4,101.5,401.4,102.2,401.8,102.1L401.8,102.1z"/>
	</g>
</g>
<g id="XMLID_1311_">
	<g id="XMLID_66_">
		<path id="XMLID_70_" class="st0" d="M338.3,102.1c1.5-0.1,2.9-0.1,4.3,0c1,0.1,2.9-0.4,3.7-0.1c1.6,0.6,0.9,3.9,0.8,5.2
			c-0.1,1.6,0.1,3.8-0.8,5.1c-0.7,1.1-1.2,0.9-2.4,0.9c-0.9,0-1.8,0-2.7,0c-1.2,0-2.4,0.3-3.1-1.2c-0.2-0.4-0.1-1.3-0.1-1.8
			c-0.1-1.5-0.1-3.1,0-4.6c0-0.6-0.1-2,0.1-2.5c0.5-1.2,1.9-1.1,2.9-1c0.4,0,0.4-0.6,0-0.7c-1.1-0.1-2.8-0.5-3.4,0.6
			c-0.5,0.9-0.2,2.7-0.3,3.6c-0.1,1.4-0.1,2.8,0,4.2c0.1,1-0.5,3.3,0.6,4c0.7,0.4,2.2,0.1,2.8,0.2c1.7,0,3.4,0.1,5,0
			c1.3-0.1,1.6-0.2,1.8-1.5c0.3-2.9,0.3-6,0.4-8.9c0-1.6,0.1-2.1-1.6-2.1c-2.7-0.1-5.4-0.1-8.1,0.1
			C337.9,101.5,337.9,102.2,338.3,102.1L338.3,102.1z"/>
	</g>
</g>
<g id="XMLID_1334_">
	<g id="XMLID_60_">
		<path id="XMLID_64_" class="st0" d="M338.3,51.3c1.5-0.1,2.9-0.1,4.3,0c1,0.1,2.9-0.4,3.7-0.1c1.6,0.6,0.9,3.9,0.8,5.2
			c-0.1,1.6,0.1,3.8-0.8,5.1c-0.7,1.1-1.2,0.9-2.4,0.9c-0.9,0-1.8,0-2.7,0c-1.2,0-2.4,0.3-3.1-1.2c-0.2-0.4-0.1-1.3-0.1-1.8
			c-0.1-1.5-0.1-3.1,0-4.6c0-0.6-0.1-2,0.1-2.5c0.5-1.2,1.9-1.1,2.9-1c0.4,0,0.4-0.6,0-0.7c-1.1-0.1-2.8-0.5-3.4,0.6
			c-0.5,0.9-0.2,2.7-0.3,3.6c-0.1,1.4-0.1,2.8,0,4.2c0.1,1-0.5,3.3,0.6,4c0.7,0.4,2.2,0.1,2.8,0.2c1.7,0,3.4,0.1,5,0
			c1.3-0.1,1.6-0.2,1.8-1.5c0.3-2.9,0.3-6,0.4-8.9c0-1.6,0.1-2.1-1.6-2.1c-2.7-0.1-5.4-0.1-8.1,0.1
			C337.9,50.7,337.9,51.3,338.3,51.3L338.3,51.3z"/>
	</g>
</g>
<g id="XMLID_1370_">
	<g id="XMLID_54_">
		<path id="XMLID_58_" class="st0" d="M440,102.1c1.5-0.1,2.9-0.1,4.3,0c1,0.1,2.9-0.4,3.7-0.1c1.6,0.6,0.9,3.9,0.8,5.2
			c-0.1,1.6,0.1,3.8-0.8,5.1c-0.7,1.1-1.2,0.9-2.4,0.9c-0.9,0-1.8,0-2.7,0c-1.2,0-2.4,0.3-3.1-1.2c-0.2-0.4-0.1-1.3-0.1-1.8
			c-0.1-1.5-0.1-3.1,0-4.6c0-0.6-0.1-2,0.1-2.5c0.5-1.2,1.9-1.1,2.9-1c0.4,0,0.4-0.6,0-0.7c-1.1-0.1-2.8-0.5-3.4,0.6
			c-0.5,0.9-0.2,2.7-0.3,3.6c-0.1,1.4-0.1,2.8,0,4.2c0.1,1-0.5,3.3,0.6,4c0.7,0.4,2.2,0.1,2.8,0.2c1.7,0,3.4,0.1,5,0
			c1.3-0.1,1.6-0.2,1.8-1.5c0.3-2.9,0.3-6,0.4-8.9c0-1.6,0.1-2.1-1.6-2.1c-2.7-0.1-5.4-0.1-8.1,0.1
			C439.5,101.5,439.5,102.2,440,102.1L440,102.1z"/>
	</g>
</g>
</svg>
