<?xml version="1.0" encoding="utf-8"?>
<!-- Generator: Adobe Illustrator 19.0.0, SVG Export Plug-In . SVG Version: 6.00 Build 0)  -->
<svg version="1.1" id="Layer_1" xmlns="http://www.w3.org/2000/svg" xmlns:xlink="http://www.w3.org/1999/xlink" x="0px" y="0px"
	 viewBox="0 0 595.3 141.7" style="enable-background:new 0 0 595.3 141.7;" xml:space="preserve">
<style type="text/css">
	.st0{fill:#161616;}
	.st1{opacity:0.5;}
</style>
<g id="XMLID_500_">
	<g id="XMLID_1473_">
		<path id="XMLID_1478_" class="st0" d="M220,36.6c-1.8,0-3.6,0.1-5.4,0.1c-1,0-1,1.5,0,1.5c1.8,0,3.6-0.1,5.4-0.1
			C221,38.1,221,36.6,220,36.6L220,36.6z"/>
	</g>
</g>
<g id="XMLID_501_">
	<g id="XMLID_1466_">
		<path id="XMLID_1471_" class="st0" d="M225.8,36.1c-2.5,0.8-3.7,3.3-3.9,5.9c-0.1,2.8,1.5,4.4,3.8,5.5c0.7,0.3,1.4-0.7,0.6-1.1
			c-1.5-0.7-2.8-1.4-3.1-3.2c-0.5-2.2,0.7-5.2,2.9-5.9C226.9,37.1,226.6,35.9,225.8,36.1L225.8,36.1z"/>
	</g>
</g>
<g id="XMLID_502_">
	<g id="XMLID_1459_">
		<path id="XMLID_1464_" class="st0" d="M232.9,37.2c3.9,1.6,3.8,7.8,0,9.4c-0.7,0.3-0.4,1.5,0.3,1.2c2.5-1,3.7-3,3.8-5.7
			c0-2.4-1.2-5-3.5-6C232.8,35.8,232.1,36.9,232.9,37.2L232.9,37.2z"/>
	</g>
</g>
<g id="XMLID_505_">
	<g id="XMLID_1453_">
		<path id="XMLID_1457_" class="st0" d="M227,39.4c0.7-0.2,1.4,1.8,1.6,2.3c0.4,0.8,0.9,1.5,1.3,2.2c0.7,1.1,1.5,2,3,1.7
			c0.8-0.2,0.5-1.4-0.3-1.2c-1.4,0.3-2.9-3.4-3.4-4.4c-0.5-1.1-1.2-2.1-2.5-1.8C225.9,38.4,226.2,39.6,227,39.4L227,39.4z"/>
	</g>
</g>
<g id="XMLID_507_">
	<g id="XMLID_1450_">
		<path id="XMLID_1465_" class="st0" d="M227.1,45.5c1.6-2.2,3.3-4.3,5.2-6.4c0.5-0.6-0.3-1.5-0.9-0.9c-1.9,2.1-3.7,4.3-5.4,6.6
			C225.6,45.5,226.7,46.2,227.1,45.5L227.1,45.5z"/>
	</g>
</g>
<g id="XMLID_41_">
	<g id="XMLID_1444_">
		<path id="XMLID_1448_" class="st0" d="M244.6,41c1.6,0.1,3.2,0,4.8-0.1c0.8-0.1,0.8-1.3,0-1.3c-1.6,0.2-3.2,0.2-4.8,0.1
			C243.8,39.8,243.8,41,244.6,41L244.6,41z"/>
	</g>
</g>
<g id="XMLID_508_">
	<g id="XMLID_1437_">
		<path id="XMLID_1442_" class="st0" d="M244.3,44.1c1.9,0,3.8,0,5.6-0.1c0.8,0,0.8-1.3,0-1.3c-1.9,0.1-3.8,0.1-5.6,0.1
			C243.5,42.8,243.5,44.1,244.3,44.1L244.3,44.1z"/>
	</g>
</g>
<g id="XMLID_566_">
	<g id="XMLID_1429_">
		<path id="XMLID_1434_" class="st0" d="M258.9,39.4c0.7-0.2,1.4,1.8,1.6,2.3c0.4,0.8,0.9,1.5,1.3,2.2c0.7,1.1,1.5,2,3,1.7
			c0.8-0.2,0.5-1.4-0.3-1.2c-1.4,0.3-2.9-3.4-3.4-4.4c-0.5-1.1-1.2-2.1-2.5-1.8C257.8,38.3,258.1,39.5,258.9,39.4L258.9,39.4z"/>
	</g>
</g>
<g id="XMLID_545_">
	<g id="XMLID_1419_">
		<path id="XMLID_1425_" class="st0" d="M259.1,45.5c1.6-2.2,3.3-4.3,5.2-6.4c0.5-0.6-0.3-1.5-0.9-0.9c-1.9,2.1-3.7,4.3-5.4,6.6
			C257.6,45.5,258.6,46.1,259.1,45.5L259.1,45.5z"/>
	</g>
</g>
<g id="XMLID_492_">
	<g id="XMLID_1412_">
		<path id="XMLID_1417_" class="st0" d="M222.5,32.3c-7.7-2.7-5.1,11.5-6.9,14.6c-0.5,0.8,0.8,1.6,1.3,0.8
			c1.6-2.8-0.2-15.7,5.2-13.9C223,34,223.4,32.6,222.5,32.3L222.5,32.3z"/>
	</g>
</g>
<g id="XMLID_589_">
	<g id="XMLID_1407_">
		<path id="XMLID_1411_" class="st0" d="M220,64.9c-1.8,0-3.6,0.1-5.4,0.1c-1,0-1,1.5,0,1.5c1.8,0,3.6-0.1,5.4-0.1
			C221,66.4,221,64.9,220,64.9L220,64.9z"/>
	</g>
</g>
<g id="XMLID_570_">
	<g id="XMLID_1401_">
		<path id="XMLID_1405_" class="st0" d="M225.8,64.5c-2.5,0.8-3.7,3.3-3.9,5.9c-0.1,2.8,1.5,4.4,3.8,5.5c0.7,0.3,1.4-0.7,0.6-1.1
			c-1.5-0.7-2.8-1.4-3.1-3.2c-0.5-2.2,0.7-5.2,2.9-5.9C226.9,65.4,226.6,64.2,225.8,64.5L225.8,64.5z"/>
	</g>
</g>
<g id="XMLID_565_">
	<g id="XMLID_1394_">
		<path id="XMLID_1398_" class="st0" d="M232.9,65.6c3.9,1.6,3.8,7.8,0,9.4c-0.7,0.3-0.4,1.5,0.3,1.2c2.5-1,3.7-3,3.8-5.7
			c0-2.4-1.2-5-3.5-6C232.8,64.2,232.1,65.2,232.9,65.6L232.9,65.6z"/>
	</g>
</g>
<g id="XMLID_564_">
	<g id="XMLID_1387_">
		<path id="XMLID_1391_" class="st0" d="M227,67.8c0.7-0.2,1.4,1.8,1.6,2.3c0.4,0.8,0.9,1.5,1.3,2.2c0.7,1.1,1.5,2,3,1.7
			c0.8-0.2,0.5-1.4-0.3-1.2c-1.4,0.3-2.9-3.4-3.4-4.4c-0.5-1.1-1.2-2.1-2.5-1.8C225.9,66.7,226.2,67.9,227,67.8L227,67.8z"/>
	</g>
</g>
<g id="XMLID_557_">
	<g id="XMLID_1378_">
		<path id="XMLID_1382_" class="st0" d="M227.1,73.9c1.6-2.2,3.3-4.3,5.2-6.4c0.5-0.6-0.3-1.5-0.9-0.9c-1.9,2.1-3.7,4.3-5.4,6.6
			C225.6,73.9,226.7,74.5,227.1,73.9L227.1,73.9z"/>
	</g>
</g>
<g id="XMLID_551_">
	<g id="XMLID_1371_">
		<path id="XMLID_1375_" class="st0" d="M244.6,69.4c1.6,0.1,3.2,0,4.8-0.1c0.8-0.1,0.8-1.3,0-1.3c-1.6,0.2-3.2,0.2-4.8,0.1
			C243.8,68.1,243.8,69.4,244.6,69.4L244.6,69.4z"/>
	</g>
</g>
<g id="XMLID_539_">
	<g id="XMLID_1364_">
		<path id="XMLID_1368_" class="st0" d="M244.3,72.4c1.9,0,3.8,0,5.6-0.1c0.8,0,0.8-1.3,0-1.3c-1.9,0.1-3.8,0.1-5.6,0.1
			C243.5,71.2,243.5,72.4,244.3,72.4L244.3,72.4z"/>
	</g>
</g>
<g id="XMLID_506_">
	<g id="XMLID_1357_">
		<path id="XMLID_1361_" class="st0" d="M266.7,67.8c0.7-0.2,1.4,1.8,1.6,2.3c0.4,0.8,0.9,1.5,1.3,2.2c0.7,1.1,1.5,2,3,1.7
			c0.8-0.2,0.5-1.4-0.3-1.2c-1.4,0.3-2.9-3.4-3.4-4.4c-0.5-1.1-1.2-2.1-2.5-1.8C265.5,66.7,265.9,67.9,266.7,67.8L266.7,67.8z"/>
	</g>
</g>
<g id="XMLID_504_">
	<g id="XMLID_1350_">
		<path id="XMLID_1354_" class="st0" d="M266.8,73.9c1.6-2.2,3.3-4.3,5.2-6.4c0.5-0.6-0.3-1.5-0.9-0.9c-1.9,2.1-3.7,4.3-5.4,6.6
			C265.3,73.9,266.4,74.5,266.8,73.9L266.8,73.9z"/>
	</g>
</g>
<g id="XMLID_499_">
	<g id="XMLID_1342_">
		<path id="XMLID_1346_" class="st0" d="M222.5,60.6c-7.7-2.7-5.1,11.5-6.9,14.6c-0.5,0.8,0.8,1.6,1.3,0.8
			c1.6-2.8-0.2-15.7,5.2-13.9C223,62.4,223.4,60.9,222.5,60.6L222.5,60.6z"/>
	</g>
</g>
<g id="XMLID_590_">
	<g id="XMLID_1335_">
		<path id="XMLID_1339_" class="st0" d="M257.9,70.4c2.2-0.2,4.4-0.1,6.6-0.2c-0.2-0.2-0.3-0.4-0.5-0.6c-0.2,1.3-0.3,2.4-0.2,3.7
			c0.1,0.6,1,0.6,1,0c-0.1-1.2-0.1-2.2,0.1-3.5c0-0.3-0.1-0.6-0.5-0.6c-2.2,0.2-4.4,0.1-6.6,0.2C257.3,69.5,257.3,70.4,257.9,70.4
			L257.9,70.4z"/>
	</g>
</g>
<g id="XMLID_705_">
	<g id="XMLID_1328_">
		<path id="XMLID_1332_" class="st0" d="M220,93.3c-1.8,0-3.6,0.1-5.4,0.1c-1,0-1,1.5,0,1.5c1.8,0,3.6-0.1,5.4-0.1
			C221,94.8,221,93.3,220,93.3L220,93.3z"/>
	</g>
</g>
<g id="XMLID_680_">
	<g id="XMLID_1322_">
		<path id="XMLID_1326_" class="st0" d="M225.8,92.8c-2.5,0.8-3.7,3.3-3.9,5.9c-0.1,2.8,1.5,4.4,3.8,5.5c0.7,0.3,1.4-0.7,0.6-1.1
			c-1.5-0.7-2.8-1.4-3.1-3.2c-0.5-2.2,0.7-5.2,2.9-5.9C226.9,93.8,226.6,92.6,225.8,92.8L225.8,92.8z"/>
	</g>
</g>
<g id="XMLID_655_">
	<g id="XMLID_1315_">
		<path id="XMLID_1319_" class="st0" d="M232.9,93.9c3.9,1.6,3.8,7.8,0,9.4c-0.7,0.3-0.4,1.5,0.3,1.2c2.5-1,3.7-3,3.8-5.7
			c0-2.4-1.2-5-3.5-6C232.8,92.5,232.1,93.6,232.9,93.9L232.9,93.9z"/>
	</g>
</g>
<g id="XMLID_648_">
	<g id="XMLID_1306_">
		<path id="XMLID_1310_" class="st0" d="M227,96.1c0.7-0.2,1.4,1.8,1.6,2.3c0.4,0.8,0.9,1.5,1.3,2.2c0.7,1.1,1.5,2,3,1.7
			c0.8-0.2,0.5-1.4-0.3-1.2c-1.4,0.3-2.9-3.4-3.4-4.4c-0.5-1.1-1.2-2.1-2.5-1.8C225.9,95.1,226.2,96.3,227,96.1L227,96.1z"/>
	</g>
</g>
<g id="XMLID_647_">
	<g id="XMLID_1298_">
		<path id="XMLID_1302_" class="st0" d="M227.1,102.2c1.6-2.2,3.3-4.3,5.2-6.4c0.5-0.6-0.3-1.5-0.9-0.9c-1.9,2.1-3.7,4.3-5.4,6.6
			C225.6,102.2,226.7,102.8,227.1,102.2L227.1,102.2z"/>
	</g>
</g>
<g id="XMLID_608_">
	<g id="XMLID_1291_">
		<path id="XMLID_1295_" class="st0" d="M244.6,97.7c1.6,0.1,3.2,0,4.8-0.1c0.8-0.1,0.8-1.3,0-1.3c-1.6,0.2-3.2,0.2-4.8,0.1
			C243.8,96.4,243.8,97.7,244.6,97.7L244.6,97.7z"/>
	</g>
</g>
<g id="XMLID_596_">
	<g id="XMLID_1283_">
		<path id="XMLID_1287_" class="st0" d="M244.3,100.8c1.9,0,3.8,0,5.6-0.1c0.8,0,0.8-1.3,0-1.3c-1.9,0.1-3.8,0.1-5.6,0.1
			C243.5,99.5,243.5,100.8,244.3,100.8L244.3,100.8z"/>
	</g>
</g>
<g id="XMLID_592_">
	<g id="XMLID_1276_">
		<path id="XMLID_1280_" class="st0" d="M222.5,89c-7.7-2.7-5.1,11.5-6.9,14.6c-0.5,0.8,0.8,1.6,1.3,0.8c1.6-2.8-0.2-15.7,5.2-13.9
			C223,90.7,223.4,89.3,222.5,89L222.5,89z"/>
	</g>
</g>
<g id="XMLID_712_">
	<g id="XMLID_1270_">
		<path id="XMLID_1274_" class="st0" d="M220,121.6c-1.8,0-3.6,0.1-5.4,0.1c-1,0-1,1.5,0,1.5c1.8,0,3.6-0.1,5.4-0.1
			C221,123.1,221,121.6,220,121.6L220,121.6z"/>
	</g>
</g>
<g id="XMLID_711_">
	<g id="XMLID_1263_">
		<path id="XMLID_1268_" class="st0" d="M225.8,121.2c-2.5,0.8-3.7,3.3-3.9,5.9c-0.1,2.8,1.5,4.4,3.8,5.5c0.7,0.3,1.4-0.7,0.6-1.1
			c-1.5-0.7-2.8-1.4-3.1-3.2c-0.5-2.2,0.7-5.2,2.9-5.9C226.9,122.1,226.6,120.9,225.8,121.2L225.8,121.2z"/>
	</g>
</g>
<g id="XMLID_710_">
	<g id="XMLID_1257_">
		<path id="XMLID_1261_" class="st0" d="M232.9,122.3c3.9,1.6,3.8,7.8,0,9.4c-0.7,0.3-0.4,1.5,0.3,1.2c2.5-1,3.7-3,3.8-5.7
			c0-2.4-1.2-5-3.5-6C232.8,120.9,232.1,121.9,232.9,122.3L232.9,122.3z"/>
	</g>
</g>
<g id="XMLID_709_">
	<g id="XMLID_1248_">
		<path id="XMLID_1255_" class="st0" d="M227,124.5c0.7-0.2,1.4,1.8,1.6,2.3c0.4,0.8,0.9,1.5,1.3,2.2c0.7,1.1,1.5,2,3,1.7
			c0.8-0.2,0.5-1.4-0.3-1.2c-1.4,0.3-2.9-3.4-3.4-4.4c-0.5-1.1-1.2-2.1-2.5-1.8C225.9,123.4,226.2,124.6,227,124.5L227,124.5z"/>
	</g>
</g>
<g id="XMLID_708_">
	<g id="XMLID_1241_">
		<path id="XMLID_1246_" class="st0" d="M227.1,130.5c1.6-2.2,3.3-4.3,5.2-6.4c0.5-0.6-0.3-1.5-0.9-0.9c-1.9,2.1-3.7,4.3-5.4,6.6
			C225.6,130.6,226.7,131.2,227.1,130.5L227.1,130.5z"/>
	</g>
</g>
<g id="XMLID_707_">
	<g id="XMLID_1234_">
		<path id="XMLID_1239_" class="st0" d="M244.6,126.1c1.6,0.1,3.2,0,4.8-0.1c0.8-0.1,0.8-1.3,0-1.3c-1.6,0.2-3.2,0.2-4.8,0.1
			C243.8,124.8,243.8,126,244.6,126.1L244.6,126.1z"/>
	</g>
</g>
<g id="XMLID_706_">
	<g id="XMLID_1227_">
		<path id="XMLID_1231_" class="st0" d="M244.3,129.1c1.9,0,3.8,0,5.6-0.1c0.8,0,0.8-1.3,0-1.3c-1.9,0.1-3.8,0.1-5.6,0.1
			C243.5,127.9,243.5,129.1,244.3,129.1L244.3,129.1z"/>
	</g>
</g>
<g id="XMLID_594_">
	<g id="XMLID_1220_">
		<path id="XMLID_1224_" class="st0" d="M222.5,117.3c-7.7-2.7-5.1,11.5-6.9,14.6c-0.5,0.8,0.8,1.6,1.3,0.8
			c1.6-2.8-0.2-15.7,5.2-13.9C223,119.1,223.4,117.6,222.5,117.3L222.5,117.3z"/>
	</g>
</g>
<g id="XMLID_715_">
	<g id="XMLID_1212_">
		<path id="XMLID_1216_" class="st0" d="M261.1,94.2c-4-0.4-3.8,8.9,0.8,8.1c1.9-0.3,2.1-3.4,2-4.8c-0.2-2.5-1.4-3.7-3.9-3.3
			c-0.8,0.1-0.5,1.3,0.3,1.2c1-0.1,1.6-0.2,2.1,1c0.2,0.4,0.2,1.2,0.2,1.7c0,1-0.1,2.3-1.1,2.7c-2.7,1.1-2.6-5.5-0.6-5.3
			C261.9,95.6,261.9,94.3,261.1,94.2L261.1,94.2z"/>
	</g>
</g>
<g id="XMLID_717_">
	<g id="XMLID_1207_">
		<path id="XMLID_1217_" class="st0" d="M259.4,125.3c0.9-0.6,1.9-1.3,2.8-1.9c-0.3-0.2-0.6-0.5-0.9-0.7c-0.4,2.4-0.6,4.9-0.6,7.4
			c0,0.8,1.3,0.8,1.3,0c-0.1-2.4,0.1-4.7,0.5-7.1c0.1-0.5-0.4-1-0.9-0.7c-0.9,0.6-1.9,1.3-2.8,1.9
			C258.2,124.7,258.8,125.8,259.4,125.3L259.4,125.3z"/>
	</g>
</g>
<g id="XMLID_718_">
	<g id="XMLID_1178_">
		<path id="XMLID_1182_" class="st0" d="M258.6,130.8c1.7,0,3.3-0.1,5-0.1c0.8,0,0.8-1.3,0-1.3c-1.7,0.1-3.3,0.1-5,0.1
			C257.8,129.6,257.8,130.8,258.6,130.8L258.6,130.8z"/>
	</g>
</g>
<g id="XMLID_1166_">
	<g id="XMLID_1198_">
		<path id="XMLID_1202_" class="st0" d="M165.3,93.2c-4-0.5-3.9,9.1,0.8,8.3c2-0.3,2.2-3.5,2.1-5c-0.2-2.6-1.4-3.7-4-3.4
			c-0.8,0.1-0.5,1.3,0.3,1.2c1-0.1,1.7-0.2,2.2,1c0.2,0.4,0.2,1.3,0.2,1.8c0,1-0.1,2.4-1.1,2.8c-2.8,1.1-2.8-5.7-0.6-5.5
			C166.1,94.5,166.1,93.3,165.3,93.2L165.3,93.2z"/>
	</g>
</g>
<g id="XMLID_1159_">
	<g id="XMLID_1190_">
		<path id="XMLID_1196_" class="st0" d="M163.6,125.2c1-0.7,1.9-1.3,2.9-2c-0.3-0.2-0.6-0.5-0.9-0.7c-0.5,2.5-0.7,5-0.6,7.6
			c0,0.8,1.3,0.8,1.3,0c-0.1-2.4,0.1-4.9,0.6-7.3c0.1-0.5-0.4-1-0.9-0.7c-1,0.7-1.9,1.3-2.9,2C162.3,124.5,162.9,125.6,163.6,125.2
			L163.6,125.2z"/>
	</g>
</g>
<g id="XMLID_795_">
	<g id="XMLID_1184_">
		<path id="XMLID_1188_" class="st0" d="M162.7,130.8c1.7,0,3.4-0.1,5.1-0.2c0.8,0,0.8-1.3,0-1.3c-1.7,0.1-3.4,0.1-5.1,0.2
			C161.9,129.6,161.9,130.8,162.7,130.8L162.7,130.8z"/>
	</g>
</g>
<g id="XMLID_841_">
	<g id="XMLID_1172_">
		<path id="XMLID_1176_" class="st0" d="M104.5,33.9c-0.2,3.5-0.3,7.1-0.2,10.6c0,0.8,1.3,0.8,1.3,0c-0.1-3.5,0-7.1,0.2-10.6
			C105.8,33.1,104.5,33.1,104.5,33.9L104.5,33.9z"/>
	</g>
</g>
<g id="XMLID_842_">
	<g id="XMLID_1169_">
		<path id="XMLID_1204_" class="st0" d="M113.8,40.2c-1.1-1.8-2.9-3-4.9-1.7c-1.6,1-2,4.1-1,5.6c1.1,1.5,3.9,1.7,5.2,0.4
			c0.8-0.7,0.9-1.8,0.9-2.8c0.1-1.9,0-3.8-0.1-5.7c0-0.8-1.2-0.8-1.3,0c-0.1,1.4,0.2,2.7,0.2,4.1c0,1.5-0.1,2.9-0.2,4.4
			c-0.1,0.8,1.2,0.8,1.3,0c0.1-1.5,0.2-2.9,0.2-4.4c0-1.4-0.2-2.7-0.2-4.1c-0.4,0-0.8,0-1.3,0c0.1,2,1.1,7.7-1.6,8
			c-1.9,0.2-2.6-1.3-2.3-3c0.5-2.6,2.9-2.2,4-0.3C113.1,41.5,114.2,40.9,113.8,40.2L113.8,40.2z"/>
	</g>
</g>
<g id="XMLID_843_">
	<g id="XMLID_1160_">
		<path id="XMLID_1167_" class="st0" d="M115.6,42.3c1.5,0,3.3,0.3,4.8,0c1-0.2,1-1,0.8-1.9c-0.1-1-0.6-2.1-1.6-2.5
			c-0.9-0.4-2.2-0.4-3,0.2c-1.8,1.3-2.3,4.2-0.8,5.9c1.5,1.8,4.3,2.1,5.4-0.3c0.3-0.7-0.8-1.4-1.1-0.6c-1.2,2.6-4.4,0.1-3.8-2.1
			c0.3-0.9,0.9-2.1,2-2c1.2,0,2,1.4,1.7,2.5c0.1-0.1,0.3-0.3,0.4-0.4c-0.7,0.2-1.7,0-2.5,0c-0.8,0-1.6,0-2.3,0
			C114.8,41.1,114.8,42.3,115.6,42.3L115.6,42.3z"/>
	</g>
</g>
<g id="XMLID_844_">
	<g id="XMLID_1152_">
		<path id="XMLID_1157_" class="st0" d="M123.2,38.6c0,2,0,4,0,6c0.4,0,0.8,0,1.3,0c0-0.9,0-1.8,0-2.7c0-1.2,0-2.6,1.7-2.5
			c1.9,0.1,1.6,3.7,1.5,5.1c0,0.8,1.2,0.8,1.2,0c0.1-1.5,0.1-3-0.4-4.5c-0.4-1.4-1-2-2.5-1.9c-1,0.1-2.4,0.5-2.8,1.5
			c-0.2,0.6-0.1,1.4-0.1,2c0,1,0,1.9,0,2.9c0,0.8,1.2,0.8,1.3,0c0-2,0-4,0-6C124.5,37.8,123.2,37.8,123.2,38.6L123.2,38.6z"/>
	</g>
</g>
<g id="XMLID_845_">
	<g id="XMLID_1143_">
		<path id="XMLID_1150_" class="st0" d="M130.9,36.3c-0.1,1.7-0.3,3.4-0.3,5.2c0,1-0.2,2.5,0.3,3.3c0.7,1.1,2.7,0.9,3-0.4
			c0.2-0.8-1-1.1-1.2-0.3c-0.6-0.1-0.9-0.5-0.8-1c0-0.3,0-0.6,0-1c0-0.6,0-1.3,0-1.9c0.1-1.3,0.2-2.6,0.2-3.9
			C132.2,35.5,130.9,35.5,130.9,36.3L130.9,36.3z"/>
	</g>
</g>
<g id="XMLID_846_">
	<g id="XMLID_1134_">
		<path id="XMLID_1140_" class="st0" d="M129.8,39.3c1.1,0,2.2,0.1,3.3,0.1c0.8,0,0.8-1.2,0-1.3c-1.1,0-2.2-0.1-3.3-0.1
			C129,38.1,129,39.3,129.8,39.3L129.8,39.3z"/>
	</g>
</g>
<g id="XMLID_848_">
	<g id="XMLID_1127_">
		<path id="XMLID_1131_" class="st0" d="M134.8,38.5c0.1,2.1,0,4.2-0.2,6.3c-0.1,0.8,1.2,0.8,1.3,0c0.2-2.1,0.2-4.2,0.2-6.3
			C136,37.7,134.7,37.7,134.8,38.5L134.8,38.5z"/>
	</g>
</g>
<g id="XMLID_850_">
	<g id="XMLID_1120_">
		<path id="XMLID_1124_" class="st0" d="M136,36.7C136,36.6,136,36.6,136,36.7c0-0.9-1.3-0.9-1.3-0.1c0,0,0,0.1,0,0.1
			C134.8,37.5,136,37.5,136,36.7L136,36.7z"/>
	</g>
</g>
<g id="XMLID_857_">
	<g id="XMLID_1113_">
		<path id="XMLID_1117_" class="st0" d="M137.9,36.3c-0.1,1.7-0.3,3.4-0.3,5.1c0,1-0.1,2.5,0.5,3.4c0.9,1.4,2.8,0.7,3.2-0.6
			c0.3-0.8-0.9-1.1-1.2-0.3c-0.8,0.3-1.2,0-1.1-0.7c-0.1-0.4-0.1-0.8-0.1-1.2c0-0.6,0-1.3,0-1.9c0.1-1.3,0.2-2.5,0.2-3.8
			C139.2,35.5,137.9,35.5,137.9,36.3L137.9,36.3z"/>
	</g>
</g>
<g id="XMLID_864_">
	<g id="XMLID_1106_">
		<path id="XMLID_1110_" class="st0" d="M137.3,39.4c0.8,0,1.7,0,2.5,0c0.8,0,0.8-1.3,0-1.3c-0.8,0-1.7,0-2.5,0
			C136.5,38.2,136.5,39.4,137.3,39.4L137.3,39.4z"/>
	</g>
</g>
<g id="XMLID_871_">
	<g id="XMLID_1099_">
		<path id="XMLID_1103_" class="st0" d="M141.3,38.8c0.8,2,1.3,4.3,2.4,6.2c0.2,0.4,0.9,0.4,1.1,0c0.9-1.9,1.6-3.9,2.3-5.9
			c-0.4-0.1-0.8-0.2-1.2-0.3c-0.4,1.5-1,2.8-1.7,4.2c-0.4,0.8-1.4,4.4-2.6,3.6c-0.7-0.5-1.3,0.6-0.6,1.1c1.4,1,2.6-0.1,3.2-1.4
			c1-2.3,2.2-4.7,2.8-7.1c0.2-0.8-1-1.1-1.2-0.3c-0.6,1.9-1.3,3.7-2.2,5.6c0.4,0,0.7,0,1.1,0c-1-1.8-1.6-4-2.3-5.9
			C142.2,37.7,141,38,141.3,38.8L141.3,38.8z"/>
	</g>
</g>
<g id="XMLID_849_">
	<g id="XMLID_1093_">
		<path id="XMLID_1098_" class="st0" d="M105.5,73.1c0-1.5,0.2-2.9,0.1-4.4c-0.1-1.5-0.2-2.9-0.1-4.4c-0.4,0.1-0.8,0.2-1.2,0.3
			c0.9,1.5,2.1,2.5,3.1,3.9c1.1,1.6,2,3.3,2.9,5.1c0.2,0.5,1,0.4,1.1-0.1c0.7-3,0-6.1,0.4-9.2c0.1-0.8-1.1-0.8-1.3,0
			c-0.4,2.9,0.3,5.9-0.4,8.8c0.4,0,0.8-0.1,1.1-0.1c-0.9-1.7-1.8-3.5-2.9-5.1c-0.9-1.4-2.2-2.5-3.1-3.9c-0.3-0.6-1.1-0.3-1.2,0.3
			c-0.1,1.5,0,2.9,0.1,4.4c0.1,1.5-0.1,2.9-0.1,4.4C104.2,73.9,105.5,73.9,105.5,73.1L105.5,73.1z"/>
	</g>
</g>
<g id="XMLID_851_">
	<g id="XMLID_1086_">
		<path id="XMLID_1091_" class="st0" d="M113.8,70.6c1,0.1,2.1,0.2,3.1,0.2c0.7,0,1.7,0.1,2.4-0.1c1-0.3,0.9-1.6,0.7-2.5
			c-0.5-2.2-3.9-2.8-5.6-1.5c-0.9,0.7-1.2,1.8-1.2,2.9c0,1.1,0.1,2.6,1,3.4c1.6,1.5,5,1.3,5.8-0.9c0.3-0.8-0.9-1.1-1.2-0.3
			c-0.6,1.7-3.6,1-4.1-0.4c-0.5-1.4-0.3-3.6,1.3-4c0.5-0.1,1.2-0.1,1.8,0.1c0.8,0.2,1.8,1.6,0.8,2.1c-0.5,0.2-1.5,0-2.1,0
			c-0.9,0-1.7-0.1-2.6-0.2C113,69.3,113,70.5,113.8,70.6L113.8,70.6z"/>
	</g>
</g>
<g id="XMLID_858_">
	<g id="XMLID_1080_">
		<path id="XMLID_1084_" class="st0" d="M126.7,69c-0.8-1.7-2.4-3.2-4.3-2.1c-1.7,0.9-2,3.4-1.3,5c0.7,1.5,2.5,2.5,4.1,1.7
			c2-1.1,2.1-4.4,1.9-6.3c-0.1-0.8-1.2-0.8-1.3,0c-0.1,1.5-0.2,3-0.1,4.5c0,0.7,0.2,1.8-0.1,2.5c-0.8,2-2.9,1.1-3.7-0.2
			c-0.4-0.7-1.5-0.1-1.1,0.6c1,1.8,3.6,2.9,5.3,1.2c0.8-0.8,0.8-2.2,0.8-3.2c0-1.8,0-3.6,0.1-5.4c-0.4,0-0.8,0-1.3,0
			c0.1,1.4-0.3,7.4-3.1,4.9c-0.9-0.8-0.9-2.5-0.4-3.5c1-1.7,2.7-0.2,3.3,1C126,70.4,127,69.8,126.7,69L126.7,69z"/>
	</g>
</g>
<g id="XMLID_859_">
	<g id="XMLID_1074_">
		<path id="XMLID_1078_" class="st0" d="M130.2,68.7c0-0.9,1.5-1.2,2.2-1c0.9,0.3,0.8,1.7,0.6,2.4c-0.1,0.9-0.3,1.8-1.3,2.2
			c-0.7,0.2-2.4,0.4-1.9-0.9c0.3-0.9,1.7-0.7,2.4-0.7c0.5,0,0.5-0.1,0.7,0.5c0.1,0.2,0,0.5,0.1,0.7c0.1,0.8,0.5,1.4,1.3,1.7
			c0.8,0.3,1.1-0.9,0.3-1.2c-0.6-0.2-0.4-1.6-0.6-2.1c-0.2-0.4-0.4-0.7-0.9-0.8c-1-0.2-2.8-0.1-3.7,0.5c-0.9,0.7-1.1,2-0.6,2.9
			c0.6,1.1,1.8,1,2.8,0.7c1.4-0.3,2.1-1,2.4-2.4c0.3-1.2,0.5-2.9-0.2-4c-0.6-0.9-1.8-0.9-2.8-0.8c-1.2,0.2-2.2,0.9-2.2,2.2
			C128.9,69.5,130.1,69.5,130.2,68.7L130.2,68.7z"/>
	</g>
</g>
<g id="XMLID_860_">
	<g id="XMLID_1066_">
		<path id="XMLID_1070_" class="st0" d="M136.6,65.1c-0.2,1.5-0.3,3-0.3,4.5c0,1-0.2,2.7,0.3,3.7c0.5,1,2,1.1,2.7,0.3
			c0.5-0.6-0.6-1.3-1.1-0.6c-0.4,0.5-0.6-2.1-0.6-2.1c0-0.6,0-1.3,0-1.9c0-1.3,0.1-2.6,0.3-3.9C137.9,64.3,136.7,64.3,136.6,65.1
			L136.6,65.1z"/>
	</g>
</g>
<g id="XMLID_872_">
	<g id="XMLID_1060_">
		<path id="XMLID_1064_" class="st0" d="M135.1,67.7c0.6,0.3,1.1,0.3,1.8,0.3c0.6,0,1.3,0.1,1.9-0.1c0.8-0.2,0.5-1.4-0.3-1.2
			c-0.4,0.1-0.9,0-1.3,0c-0.4,0-1,0.1-1.4-0.1C135,66.2,134.4,67.3,135.1,67.7L135.1,67.7z"/>
	</g>
</g>
<g id="XMLID_874_">
	<g id="XMLID_1054_">
		<path id="XMLID_1058_" class="st0" d="M140.2,64.4c0,0.2,0,0.3,0,0.5c0,0.8,1.3,0.8,1.3,0c0-0.2,0-0.3,0-0.5
			C141.6,63.6,140.3,63.6,140.2,64.4L140.2,64.4z"/>
	</g>
</g>
<g id="XMLID_933_">
	<g id="XMLID_1048_">
		<path id="XMLID_1052_" class="st0" d="M140.2,67.2c0.2,1.9,0.3,3.9,0.3,5.8c0,0.8,1.3,0.8,1.3,0c0-1.9-0.1-3.9-0.3-5.8
			C141.4,66.4,140.2,66.4,140.2,67.2L140.2,67.2z"/>
	</g>
</g>
<g id="XMLID_940_">
	<g id="XMLID_1042_">
		<path id="XMLID_1046_" class="st0" d="M147.6,66.9c-1.2-1.4-3.7-0.1-4.5,1.2c-1,1.8-0.3,4.1,1.4,5.2c1.8,1,4,0.4,4.4-1.7
			c0.3-1.8,0.4-4.8-2-5.2c-0.8-0.1-1.1,1.1-0.3,1.2c1.4,0.2,1.3,1.7,1.2,2.8c-0.1,0.7-0.1,1.5-0.7,1.9c-0.6,0.4-1.3,0.2-1.8-0.1
			c-1-0.6-1.6-1.8-1.2-2.9c0.2-0.7,1.9-2.5,2.7-1.5C147.2,68.4,148.1,67.5,147.6,66.9L147.6,66.9z"/>
	</g>
</g>
<g id="XMLID_947_">
	<g id="XMLID_1036_">
		<path id="XMLID_1040_" class="st0" d="M150.5,66.9c-0.2,2.1,0.3,4.2,0.1,6.2c0.4-0.1,0.8-0.1,1.2-0.2c-0.2-1,0-2.1,0.1-3.1
			c0-0.7-0.1-1.4,0.6-1.9c0.3-0.2,1-0.4,1.5-0.3c1.2,0.2,1,1.8,1,2.8c0,0.9,0,1.9,0,2.8c0,0.8,1.2,0.8,1.3,0
			c0.1-1.7,0.2-3.5-0.1-5.1c-0.3-1.4-1.3-1.8-2.7-1.6c-1.1,0.1-2.2,0.7-2.6,1.9c-0.2,0.7-0.2,1.5-0.2,2.3c-0.1,0.9-0.1,1.8,0,2.7
			c0.2,0.7,1.2,0.5,1.2-0.2c0.2-2.1-0.2-4.2-0.1-6.2C151.8,66.1,150.6,66.1,150.5,66.9L150.5,66.9z"/>
	</g>
</g>
<g id="XMLID_954_">
	<g id="XMLID_1030_">
		<path id="XMLID_1034_" class="st0" d="M111.7,94.6c-0.6-1.7-2.9-2.7-4.6-2.3c-2.2,0.5-3.1,3.3-3.1,5.2c-0.1,4.4,5.3,6,7.8,2.5
			c0.5-0.6-0.6-1.3-1.1-0.6c-1.7,2.2-5.2,1.4-5.4-1.5c-0.1-1.1,0.3-2.3,0.8-3.3c0.9-1.5,3.8-1.8,4.5,0.2
			C110.8,95.7,112,95.3,111.7,94.6L111.7,94.6z"/>
	</g>
</g>
<g id="XMLID_961_">
	<g id="XMLID_1023_">
		<path id="XMLID_1028_" class="st0" d="M117.7,95.1c-1.4-1.1-3.5,0-4.1,1.4c-0.8,1.7-0.8,4.2,1.1,5.1c0.8,0.4,1.7,0.5,2.6,0.4
			c1-0.2,1.5-1,1.9-1.9c0.8-1.9,0.6-3.8-1.2-5c-0.7-0.4-1.3,0.6-0.6,1.1c2.2,1.4,0.8,5.4-1.9,4.3c-2.3-1-0.3-5.9,1.7-4.3
			C117.8,96.7,118.4,95.6,117.7,95.1L117.7,95.1z"/>
	</g>
</g>
<g id="XMLID_968_">
	<g id="XMLID_1016_">
		<path id="XMLID_1021_" class="st0" d="M120.9,95.4c0.1,2,0.1,4,0.1,6c0.4,0,0.8,0,1.3,0c0-1.5-0.4-5,1.6-5.4
			c1.9-0.4,1.5,4.3,1.5,5.5c0,0.8,1.2,0.8,1.3,0c0-2,0.6-6.9-2.6-6.8c-3.2,0.1-3,4.5-3,6.7c0,0.8,1.2,0.8,1.3,0c0.1-2,0-4-0.1-6
			C122.1,94.6,120.9,94.6,120.9,95.4L120.9,95.4z"/>
	</g>
</g>
<g id="XMLID_975_">
	<g id="XMLID_1009_">
		<path id="XMLID_1014_" class="st0" d="M133.3,96.7c-0.1-2.3-4-2.6-5-0.8c-0.5,0.9,0,1.7,0.8,2.2c0.7,0.4,1.5,0.7,2.1,1.2
			c2.2,1.7-1.7,2.3-1.8,0.9c-0.1-0.8-1.3-0.8-1.3,0c0.2,2.2,3.6,2.8,4.8,1.2c0.7-0.9,0.2-2-0.6-2.7c-0.5-0.4-1.2-0.8-1.8-1.1
			c-0.6-0.3-1-0.3-0.7-1c0-0.5,0.3-0.7,0.9-0.5c0.6-0.1,1,0.2,1.3,0.7C132.1,97.5,133.3,97.5,133.3,96.7L133.3,96.7z"/>
	</g>
</g>
<g id="XMLID_982_">
	<g id="XMLID_1002_">
		<path id="XMLID_1007_" class="st0" d="M135.2,93.6c-0.2,2.1-0.4,4.3-0.2,6.4c0.1,1.1,0.6,1.9,1.8,1.9c0.8,0,0.8-1.2,0-1.3
			c-1.1-0.1-0.4-6.3-0.3-7.1C136.5,92.8,135.3,92.8,135.2,93.6L135.2,93.6z"/>
	</g>
</g>
<g id="XMLID_989_">
	<g id="XMLID_995_">
		<path id="XMLID_1000_" class="st0" d="M134.9,96c0.7-0.1,1.4-0.1,2.1,0c0.3,0,0.6-0.3,0.6-0.6c0-0.4-0.3-0.6-0.6-0.6
			c-0.7-0.1-1.4-0.1-2.1,0C134.1,94.8,134.1,96.1,134.9,96L134.9,96z"/>
	</g>
</g>
<g id="XMLID_996_">
	<g id="XMLID_988_">
		<path id="XMLID_993_" class="st0" d="M139.8,97.2c0.3-0.5,0.8-0.9,1.4-1c0.4-0.1,0.8,0,1.2,0.3c0.3,0.3,0.4,0.6,0.4,1
			c0,0.1-2.1,0.2-2.4,0.3c-1.1,0.4-2.3,1.5-1.9,2.9c0.4,1.4,2.5,1.5,3.6,1.2c1.6-0.4,1.6-2.2,1.9-3.6c-0.4-0.1-0.8-0.1-1.2-0.2
			c0,1.2-0.5,4.2,1.5,4c0.8-0.1,0.8-1.3,0-1.3c-0.5,0.1-0.3-2.5-0.3-2.7c0-0.7-1.1-0.9-1.2-0.2c-0.1,0.7-0.1,2.4-1,2.7
			c-0.5,0.2-1.9,0.2-2.1-0.5c-0.1-0.5,0.7-1,1.1-1.2c1.1-0.4,3.3,0.3,3.3-1.5c0-3.1-4-3.2-5.3-0.9C138.3,97.3,139.4,97.9,139.8,97.2
			L139.8,97.2z"/>
	</g>
</g>
<g id="XMLID_1003_">
	<g id="XMLID_981_">
		<path id="XMLID_986_" class="st0" d="M146.1,95.5c0.3,1.9,0.3,3.8,0.2,5.6c0.4,0,0.8,0,1.3,0c-0.1-1.4-0.4-4.3,1.2-4.9
			c1.3-0.4,1.4,1.3,1.5,2.1c0.1,0.9,0.2,1.8,0.2,2.7c0,0.8,1.3,0.8,1.3,0c-0.1-1.8,0.2-6.5-2.8-6.3c-2.9,0.2-2.8,4.3-2.6,6.3
			c0.1,0.8,1.2,0.8,1.3,0c0.1-2,0-4-0.2-6C147.2,94.4,146,94.8,146.1,95.5L146.1,95.5z"/>
	</g>
</g>
<g id="XMLID_1010_">
	<g id="XMLID_974_">
		<path id="XMLID_979_" class="st0" d="M153.7,93.7c0,2.2-0.2,4.5,0,6.6c0.1,0.9,0.7,1.8,1.7,1.4c0.7-0.3,0.4-1.5-0.3-1.2
			c0,0-0.1-3-0.1-3.3c0-1.2,0-2.3,0-3.5C155,92.9,153.7,92.9,153.7,93.7L153.7,93.7z"/>
	</g>
</g>
<g id="XMLID_1017_">
	<g id="XMLID_967_">
		<path id="XMLID_972_" class="st0" d="M152.9,96c0.9,0,1.8,0,2.7,0.1c0.8,0.1,1.1-1.1,0.3-1.2c-1-0.1-2-0.2-3-0.1
			C152.1,94.8,152.1,96.1,152.9,96L152.9,96z"/>
	</g>
</g>
<g id="XMLID_1024_">
	<g id="XMLID_960_">
		<path id="XMLID_965_" class="st0" d="M157.2,99.1c0.9-0.1,1.8-0.4,2.7,0c0.7,0.3,1.1-0.9,0.3-1.2c-1-0.4-2-0.2-3,0
			C156.4,98,156.4,99.2,157.2,99.1L157.2,99.1z"/>
	</g>
</g>
<g id="XMLID_1146_">
	<g id="XMLID_953_">
		<path id="XMLID_958_" class="st0" d="M111.7,122.9c-0.6-1.7-2.9-2.7-4.6-2.3c-2.2,0.5-3.1,3.3-3.1,5.2c-0.1,4.4,5.3,6,7.8,2.5
			c0.5-0.6-0.6-1.3-1.1-0.6c-1.7,2.2-5.2,1.4-5.4-1.5c-0.1-1.1,0.3-2.3,0.8-3.3c0.9-1.5,3.8-1.8,4.5,0.2
			C110.8,124,112,123.6,111.7,122.9L111.7,122.9z"/>
	</g>
</g>
<g id="XMLID_1139_">
	<g id="XMLID_946_">
		<path id="XMLID_951_" class="st0" d="M117.7,123.4c-1.4-1.1-3.5,0-4.1,1.4c-0.8,1.7-0.8,4.2,1.1,5.1c0.8,0.4,1.7,0.5,2.6,0.4
			c1-0.2,1.5-1,1.9-1.9c0.8-1.9,0.6-3.8-1.2-5c-0.7-0.4-1.3,0.6-0.6,1.1c2.2,1.4,0.8,5.4-1.9,4.3c-2.3-1-0.3-5.9,1.7-4.3
			C117.8,125,118.4,123.9,117.7,123.4L117.7,123.4z"/>
	</g>
</g>
<g id="XMLID_1132_">
	<g id="XMLID_939_">
		<path id="XMLID_944_" class="st0" d="M120.9,123.7c0.1,2,0.1,4,0.1,6c0.4,0,0.8,0,1.3,0c0-1.5-0.4-5,1.6-5.4
			c1.9-0.4,1.5,4.3,1.5,5.5c0,0.8,1.2,0.8,1.3,0c0-2,0.6-6.9-2.6-6.8c-3.2,0.1-3,4.5-3,6.7c0,0.8,1.2,0.8,1.3,0c0.1-2,0-4-0.1-6
			C122.1,122.9,120.9,122.9,120.9,123.7L120.9,123.7z"/>
	</g>
</g>
<g id="XMLID_1125_">
	<g id="XMLID_930_">
		<path id="XMLID_935_" class="st0" d="M133.3,125c-0.1-2.3-4-2.6-5-0.8c-0.5,0.9,0,1.7,0.8,2.2c0.7,0.4,1.5,0.7,2.1,1.2
			c2.2,1.7-1.7,2.3-1.8,0.9c-0.1-0.8-1.3-0.8-1.3,0c0.2,2.2,3.6,2.8,4.8,1.2c0.7-0.9,0.2-2-0.6-2.7c-0.5-0.4-1.2-0.8-1.8-1.1
			c-0.6-0.3-1-0.3-0.7-1c0-0.5,0.3-0.7,0.9-0.5c0.6-0.1,1,0.2,1.3,0.7C132.1,125.8,133.3,125.8,133.3,125L133.3,125z"/>
	</g>
</g>
<g id="XMLID_1118_">
	<g id="XMLID_924_">
		<path id="XMLID_928_" class="st0" d="M135.2,121.9c-0.2,2.1-0.4,4.3-0.2,6.4c0.1,1.1,0.6,1.9,1.8,1.9c0.8,0,0.8-1.2,0-1.3
			c-1.1-0.1-0.4-6.3-0.3-7.1C136.5,121.1,135.3,121.1,135.2,121.9L135.2,121.9z"/>
	</g>
</g>
<g id="XMLID_1111_">
	<g id="XMLID_918_">
		<path id="XMLID_922_" class="st0" d="M134.9,124.3c0.7-0.1,1.4-0.1,2.1,0c0.3,0,0.6-0.3,0.6-0.6c0-0.4-0.3-0.6-0.6-0.6
			c-0.7-0.1-1.4-0.1-2.1,0C134.1,123.1,134.1,124.4,134.9,124.3L134.9,124.3z"/>
	</g>
</g>
<g id="XMLID_1104_">
	<g id="XMLID_912_">
		<path id="XMLID_916_" class="st0" d="M139.8,125.5c0.3-0.5,0.8-0.9,1.4-1c0.4-0.1,0.8,0,1.2,0.3c0.3,0.3,0.4,0.6,0.4,1
			c0,0.1-2.1,0.2-2.4,0.3c-1.1,0.4-2.3,1.5-1.9,2.9c0.4,1.4,2.5,1.5,3.6,1.2c1.6-0.4,1.6-2.2,1.9-3.6c-0.4-0.1-0.8-0.1-1.2-0.2
			c0,1.2-0.5,4.2,1.5,4c0.8-0.1,0.8-1.3,0-1.3c-0.5,0.1-0.3-2.5-0.3-2.7c0-0.7-1.1-0.9-1.2-0.2c-0.1,0.7-0.1,2.4-1,2.7
			c-0.5,0.2-1.9,0.2-2.1-0.5c-0.1-0.5,0.7-1,1.1-1.2c1.1-0.4,3.3,0.3,3.3-1.5c0-3.1-4-3.2-5.3-0.9
			C138.3,125.6,139.4,126.2,139.8,125.5L139.8,125.5z"/>
	</g>
</g>
<g id="XMLID_1097_">
	<g id="XMLID_906_">
		<path id="XMLID_910_" class="st0" d="M146.1,123.8c0.3,1.9,0.3,3.8,0.2,5.6c0.4,0,0.8,0,1.3,0c-0.1-1.4-0.4-4.3,1.2-4.9
			c1.3-0.4,1.4,1.3,1.5,2.1c0.1,0.9,0.2,1.8,0.2,2.7c0,0.8,1.3,0.8,1.3,0c-0.1-1.8,0.2-6.5-2.8-6.3c-2.9,0.2-2.8,4.3-2.6,6.3
			c0.1,0.8,1.2,0.8,1.3,0c0.1-2,0-4-0.2-6C147.2,122.7,146,123,146.1,123.8L146.1,123.8z"/>
	</g>
</g>
<g id="XMLID_1090_">
	<g id="XMLID_900_">
		<path id="XMLID_904_" class="st0" d="M153.7,122c0,2.2-0.2,4.5,0,6.6c0.1,0.9,0.7,1.8,1.7,1.4c0.7-0.3,0.4-1.5-0.3-1.2
			c0,0-0.1-3-0.1-3.3c0-1.2,0-2.3,0-3.5C155,121.2,153.7,121.2,153.7,122L153.7,122z"/>
	</g>
</g>
<g id="XMLID_1073_">
	<g id="XMLID_894_">
		<path id="XMLID_898_" class="st0" d="M152.9,124.3c0.9,0,1.8,0,2.7,0.1c0.8,0.1,1.1-1.1,0.3-1.2c-1-0.1-2-0.2-3-0.1
			C152.1,123.1,152.1,124.3,152.9,124.3L152.9,124.3z"/>
	</g>
</g>
<g id="XMLID_839_">
	<g id="XMLID_888_">
		<path id="XMLID_892_" class="st0" d="M157.2,127.4c0.9-0.1,1.8-0.4,2.7,0c0.7,0.3,1.1-0.9,0.3-1.2c-1-0.4-2-0.2-3,0
			C156.4,126.3,156.4,127.5,157.2,127.4L157.2,127.4z"/>
	</g>
</g>
<g id="XMLID_938_">
	<g id="XMLID_883_">
		<path id="XMLID_887_" class="st0" d="M331.1,37.5c-4-0.4-3.8,8.9,0.8,8.1c1.9-0.3,2.1-3.4,2-4.8c-0.2-2.5-1.4-3.7-3.9-3.3
			c-0.8,0.1-0.5,1.3,0.3,1.2c1-0.1,1.6-0.2,2.1,1c0.2,0.4,0.2,1.2,0.2,1.7c0,1-0.1,2.3-1.1,2.7c-2.7,1.1-2.6-5.5-0.6-5.3
			C331.9,38.9,331.9,37.6,331.1,37.5L331.1,37.5z"/>
	</g>
</g>
<g id="XMLID_2037_">
	<g id="XMLID_876_">
		<path id="XMLID_880_" class="st0" d="M379.5,9.8c-4.4-0.5-4.2,9.8,0.9,8.9c2.1-0.4,2.4-3.7,2.3-5.4c-0.2-2.8-1.5-4-4.3-3.7
			c-0.9,0.1-0.5,1.5,0.4,1.3c1.1-0.1,1.8-0.2,2.3,1.1c0.2,0.5,0.2,1.4,0.2,1.9c0,1.1-0.1,2.6-1.2,3c-3,1.2-2.9-6.1-0.6-5.9
			C380.4,11.3,380.4,9.9,379.5,9.8L379.5,9.8z"/>
	</g>
</g>
<g id="XMLID_937_">
	<g id="XMLID_1243_">
		<g id="XMLID_869_">
			<path id="XMLID_881_" class="st0" d="M485.5,40.3c0.9-0.6,1.9-1.3,2.8-1.9c-0.3-0.2-0.6-0.5-0.9-0.7c-0.4,2.4-0.6,4.9-0.6,7.4
				c0,0.8,1.3,0.8,1.3,0c-0.1-2.4,0.1-4.7,0.5-7.1c0.1-0.5-0.4-1-0.9-0.7c-0.9,0.6-1.9,1.3-2.8,1.9
				C484.2,39.7,484.8,40.7,485.5,40.3L485.5,40.3z"/>
		</g>
	</g>
	<g id="XMLID_1236_">
		<g id="XMLID_854_">
			<path id="XMLID_865_" class="st0" d="M484.6,45.8c1.7,0,3.3-0.1,5-0.1c0.8,0,0.8-1.3,0-1.3c-1.7,0.1-3.3,0.1-5,0.1
				C483.8,44.5,483.8,45.8,484.6,45.8L484.6,45.8z"/>
		</g>
	</g>
</g>
<g id="XMLID_2044_">
	<g id="XMLID_2052_">
		<g id="XMLID_835_">
			<path id="XMLID_840_" class="st0" d="M492,12.8c1-0.7,2.1-1.4,3.1-2.1c-0.3-0.3-0.7-0.5-1-0.8c-0.5,2.7-0.7,5.4-0.6,8.2
				c0,0.9,1.4,0.9,1.4,0c-0.1-2.6,0.1-5.2,0.6-7.8c0.1-0.5-0.5-1.2-1-0.8c-1,0.7-2.1,1.4-3.1,2.1C490.5,12.2,491.2,13.3,492,12.8
				L492,12.8z"/>
		</g>
	</g>
	<g id="XMLID_2045_">
		<g id="XMLID_829_">
			<path id="XMLID_833_" class="st0" d="M491,18.9c1.8,0,3.7-0.1,5.5-0.2c0.9,0,0.9-1.4,0-1.4c-1.8,0.1-3.7,0.1-5.5,0.2
				C490.1,17.5,490.1,18.9,491,18.9L491,18.9z"/>
		</g>
	</g>
</g>
<g id="XMLID_1251_">
	<g id="XMLID_825_">
		<path id="XMLID_852_" class="st0" d="M326.1,35.6c1.8,0,3.7,0,5.5,0c0.8,0,1.7-0.1,2.5,0c1.4,0.2,1.7,0.1,1.9,1.5
			c0.3,1.5,0,3.2-0.2,4.7c-0.1,1.2,0.3,3.5-0.1,4.6c-0.7,1.6-3.6,0.9-4.9,0.9c-0.9,0-2,0.1-2.9-0.1c-1.4-0.2-1.4-0.2-1.6-1.7
			c-0.2-1.5,0.1-3.2,0.2-4.7c0-1.8,0-3.7-0.1-5.5c0-0.5-0.8-0.5-0.8,0c0.1,2.3,0.2,4.6,0.1,7c0,1.7-0.5,3.7-0.2,5.4
			c0,0.1,0.1,0.2,0.3,0.3c1.5,0.4,3.6,0.1,5.1,0.2c1.4,0,3.7,0.6,5,0.1c0.5-0.2,0.4-0.1,0.7-0.7c0.5-1.4,0-3.7,0.1-5.3
			c0.2-1.7,0.3-3.3,0.2-5c0-0.6,0.2-1.8-0.4-2.2c-0.5-0.4-2.7-0.1-3.3-0.1c-2.3,0-4.6,0-7,0C325.6,34.8,325.6,35.6,326.1,35.6
			L326.1,35.6z"/>
	</g>
</g>
<g id="XMLID_1192_">
	<g id="XMLID_819_">
		<path id="XMLID_823_" class="st0" d="M331.1,65.9c-4-0.4-3.8,8.9,0.8,8.1c1.9-0.3,2.1-3.4,2-4.8c-0.2-2.5-1.4-3.7-3.9-3.3
			c-0.8,0.1-0.5,1.3,0.3,1.2c1-0.1,1.6-0.2,2.1,1c0.2,0.4,0.2,1.2,0.2,1.7c0,1-0.1,2.3-1.1,2.7c-2.7,1.1-2.6-5.5-0.6-5.3
			C331.9,67.2,331.9,66,331.1,65.9L331.1,65.9z"/>
	</g>
</g>
<g id="XMLID_856_">
	<g id="XMLID_813_">
		<path id="XMLID_817_" class="st0" d="M326.1,63.9c1.8,0,3.7,0,5.5,0c0.8,0,1.7-0.1,2.5,0c1.4,0.2,1.7,0.1,1.9,1.5
			c0.3,1.5,0,3.2-0.2,4.7c-0.1,1.2,0.3,3.5-0.1,4.6c-0.7,1.6-3.6,0.9-4.9,0.9c-0.9,0-2,0.1-2.9-0.1c-1.4-0.2-1.4-0.2-1.6-1.7
			c-0.2-1.5,0.1-3.2,0.2-4.7c0-1.8,0-3.7-0.1-5.5c0-0.5-0.8-0.5-0.8,0c0.1,2.3,0.2,4.6,0.1,7c0,1.7-0.5,3.7-0.2,5.4
			c0,0.1,0.1,0.2,0.3,0.3c1.5,0.4,3.6,0.1,5.1,0.2c1.4,0,3.7,0.6,5,0.1c0.5-0.2,0.4-0.1,0.7-0.7c0.5-1.4,0-3.7,0.1-5.3
			c0.2-1.7,0.3-3.3,0.2-5c0-0.6,0.2-1.8-0.4-2.2c-0.5-0.4-2.7-0.1-3.3-0.1c-2.3,0-4.6,0-7,0C325.6,63.2,325.6,63.9,326.1,63.9
			L326.1,63.9z"/>
	</g>
</g>
<g id="XMLID_1233_">
	<g id="XMLID_806_">
		<path id="XMLID_811_" class="st0" d="M331.1,94.2c-4-0.4-3.8,8.9,0.8,8.1c1.9-0.3,2.1-3.4,2-4.8c-0.2-2.5-1.4-3.7-3.9-3.3
			c-0.8,0.1-0.5,1.3,0.3,1.2c1-0.1,1.6-0.2,2.1,1c0.2,0.4,0.2,1.2,0.2,1.7c0,1-0.1,2.3-1.1,2.7c-2.7,1.1-2.6-5.5-0.6-5.3
			C331.9,95.6,331.9,94.3,331.1,94.2L331.1,94.2z"/>
	</g>
</g>
<g id="XMLID_1218_">
	<g id="XMLID_1226_">
		<g id="XMLID_799_">
			<path id="XMLID_803_" class="st0" d="M485.5,125.3c0.9-0.6,1.9-1.3,2.8-1.9c-0.3-0.2-0.6-0.5-0.9-0.7c-0.4,2.4-0.6,4.9-0.6,7.4
				c0,0.8,1.3,0.8,1.3,0c-0.1-2.4,0.1-4.7,0.5-7.1c0.1-0.5-0.4-1-0.9-0.7c-0.9,0.6-1.9,1.3-2.8,1.9
				C484.2,124.7,484.8,125.8,485.5,125.3L485.5,125.3z"/>
		</g>
	</g>
	<g id="XMLID_1219_">
		<g id="XMLID_792_">
			<path id="XMLID_797_" class="st0" d="M484.6,130.8c1.7,0,3.3-0.1,5-0.1c0.8,0,0.8-1.3,0-1.3c-1.7,0.1-3.3,0.1-5,0.1
				C483.8,129.6,483.8,130.8,484.6,130.8L484.6,130.8z"/>
		</g>
	</g>
</g>
<g id="XMLID_1211_">
	<g id="XMLID_786_">
		<path id="XMLID_790_" class="st0" d="M326.1,92.3c1.8,0,3.7,0,5.5,0c0.8,0,1.7-0.1,2.5,0c1.4,0.2,1.7,0.1,1.9,1.5
			c0.3,1.5,0,3.2-0.2,4.7c-0.1,1.2,0.3,3.5-0.1,4.6c-0.7,1.6-3.6,0.9-4.9,0.9c-0.9,0-2,0.1-2.9-0.1c-1.4-0.2-1.4-0.2-1.6-1.7
			c-0.2-1.5,0.1-3.2,0.2-4.7c0-1.8,0-3.7-0.1-5.5c0-0.5-0.8-0.5-0.8,0c0.1,2.3,0.2,4.6,0.1,7c0,1.7-0.5,3.7-0.2,5.4
			c0,0.1,0.1,0.2,0.3,0.3c1.5,0.4,3.6,0.1,5.1,0.2c1.4,0,3.7,0.6,5,0.1c0.5-0.2,0.4-0.1,0.7-0.7c0.5-1.4,0-3.7,0.1-5.3
			c0.2-1.7,0.3-3.3,0.2-5c0-0.6,0.2-1.8-0.4-2.2c-0.5-0.4-2.7-0.1-3.3-0.1c-2.3,0-4.6,0-7,0C325.6,91.5,325.6,92.3,326.1,92.3
			L326.1,92.3z"/>
	</g>
</g>
<g id="XMLID_1303_">
	<g id="XMLID_780_">
		<path id="XMLID_784_" class="st0" d="M331.1,122.6c-4-0.4-3.8,8.9,0.8,8.1c1.9-0.3,2.1-3.4,2-4.8c-0.2-2.5-1.4-3.7-3.9-3.3
			c-0.8,0.1-0.5,1.3,0.3,1.2c1-0.1,1.6-0.2,2.1,1c0.2,0.4,0.2,1.2,0.2,1.7c0,1-0.1,2.3-1.1,2.7c-2.7,1.1-2.6-5.5-0.6-5.3
			C331.9,123.9,331.9,122.7,331.1,122.6L331.1,122.6z"/>
	</g>
</g>
<g id="XMLID_1281_">
	<g id="XMLID_774_">
		<path id="XMLID_778_" class="st0" d="M326.1,120.6c1.8,0,3.7,0,5.5,0c0.8,0,1.7-0.1,2.5,0c1.4,0.2,1.7,0.1,1.9,1.5
			c0.3,1.5,0,3.2-0.2,4.7c-0.1,1.2,0.3,3.5-0.1,4.6c-0.7,1.6-3.6,0.9-4.9,0.9c-0.9,0-2,0.1-2.9-0.1c-1.4-0.2-1.4-0.2-1.6-1.7
			c-0.2-1.5,0.1-3.2,0.2-4.7c0-1.8,0-3.7-0.1-5.5c0-0.5-0.8-0.5-0.8,0c0.1,2.3,0.2,4.6,0.1,7c0,1.7-0.5,3.7-0.2,5.4
			c0,0.1,0.1,0.2,0.3,0.3c1.5,0.4,3.6,0.1,5.1,0.2c1.4,0,3.7,0.6,5,0.1c0.5-0.2,0.4-0.1,0.7-0.7c0.5-1.4,0-3.7,0.1-5.3
			c0.2-1.7,0.3-3.3,0.2-5c0-0.6,0.2-1.8-0.4-2.2c-0.5-0.4-2.7-0.1-3.3-0.1c-2.3,0-4.6,0-7,0C325.6,119.9,325.6,120.6,326.1,120.6
			L326.1,120.6z"/>
	</g>
</g>
<g id="XMLID_1191_">
	<g id="XMLID_768_">
		<path id="XMLID_772_" class="st0" d="M487,65.9c-4-0.4-3.8,8.9,0.8,8.1c1.9-0.3,2.1-3.4,2-4.8c-0.2-2.5-1.4-3.7-3.9-3.3
			c-0.8,0.1-0.5,1.3,0.3,1.2c1-0.1,1.6-0.2,2.1,1c0.2,0.4,0.2,1.2,0.2,1.7c0,1-0.1,2.3-1.1,2.7c-2.7,1.1-2.6-5.5-0.6-5.3
			C487.8,67.2,487.8,66,487,65.9L487,65.9z"/>
	</g>
</g>
<g id="XMLID_1164_">
	<g id="XMLID_762_">
		<path id="XMLID_766_" class="st0" d="M482,63.9c1.8,0,3.7,0,5.5,0c0.8,0,1.7-0.1,2.5,0c1.4,0.2,1.7,0.1,1.9,1.5
			c0.3,1.5,0,3.2-0.2,4.7c-0.1,1.2,0.3,3.5-0.1,4.6c-0.7,1.6-3.6,0.9-4.9,0.9c-0.9,0-2,0.1-2.9-0.1c-1.4-0.2-1.4-0.2-1.6-1.7
			c-0.2-1.5,0.1-3.2,0.2-4.7c0-1.8,0-3.7-0.1-5.5c0-0.5-0.8-0.5-0.8,0c0.1,2.3,0.2,4.6,0.1,7c0,1.7-0.5,3.7-0.2,5.4
			c0,0.1,0.1,0.2,0.3,0.3c1.5,0.4,3.6,0.1,5.1,0.2c1.4,0,3.7,0.6,5,0.1c0.5-0.2,0.4-0.1,0.7-0.7c0.5-1.4,0-3.7,0.1-5.3
			c0.2-1.7,0.3-3.3,0.2-5c0-0.6,0.2-1.8-0.4-2.2c-0.5-0.4-2.7-0.1-3.3-0.1c-2.3,0-4.6,0-7,0C481.5,63.2,481.5,63.9,482,63.9
			L482,63.9z"/>
	</g>
</g>
<g id="XMLID_1156_">
	<g id="XMLID_756_">
		<path id="XMLID_760_" class="st0" d="M487,94.2c-4-0.4-3.8,8.9,0.8,8.1c1.9-0.3,2.1-3.4,2-4.8c-0.2-2.5-1.4-3.7-3.9-3.3
			c-0.8,0.1-0.5,1.3,0.3,1.2c1-0.1,1.6-0.2,2.1,1c0.2,0.4,0.2,1.2,0.2,1.7c0,1-0.1,2.3-1.1,2.7c-2.7,1.1-2.6-5.5-0.6-5.3
			C487.8,95.6,487.8,94.3,487,94.2L487,94.2z"/>
	</g>
</g>
<g id="XMLID_484_">
	<g id="XMLID_750_">
		<path id="XMLID_754_" class="st0" d="M482,92.3c1.8,0,3.7,0,5.5,0c0.8,0,1.7-0.1,2.5,0c1.4,0.2,1.7,0.1,1.9,1.5
			c0.3,1.5,0,3.2-0.2,4.7c-0.1,1.2,0.3,3.5-0.1,4.6c-0.7,1.6-3.6,0.9-4.9,0.9c-0.9,0-2,0.1-2.9-0.1c-1.4-0.2-1.4-0.2-1.6-1.7
			c-0.2-1.5,0.1-3.2,0.2-4.7c0-1.8,0-3.7-0.1-5.5c0-0.5-0.8-0.5-0.8,0c0.1,2.3,0.2,4.6,0.1,7c0,1.7-0.5,3.7-0.2,5.4
			c0,0.1,0.1,0.2,0.3,0.3c1.5,0.4,3.6,0.1,5.1,0.2c1.4,0,3.7,0.6,5,0.1c0.5-0.2,0.4-0.1,0.7-0.7c0.5-1.4,0-3.7,0.1-5.3
			c0.2-1.7,0.3-3.3,0.2-5c0-0.6,0.2-1.8-0.4-2.2c-0.5-0.4-2.7-0.1-3.3-0.1c-2.3,0-4.6,0-7,0C481.5,91.5,481.5,92.3,482,92.3
			L482,92.3z"/>
	</g>
</g>
<g id="XMLID_1435_">
	<g id="XMLID_744_">
		<path id="XMLID_748_" class="st0" d="M373.7,37.5c-4-0.4-3.8,8.9,0.8,8.1c1.9-0.3,2.1-3.4,2-4.8c-0.2-2.5-1.4-3.7-3.9-3.3
			c-0.8,0.1-0.5,1.3,0.3,1.2c1-0.1,1.6-0.2,2.1,1c0.2,0.4,0.2,1.2,0.2,1.7c0,1-0.1,2.3-1.1,2.7c-2.7,1.1-2.6-5.5-0.6-5.3
			C374.5,38.9,374.4,37.6,373.7,37.5L373.7,37.5z"/>
	</g>
</g>
<g id="XMLID_1420_">
	<g id="XMLID_1428_">
		<g id="XMLID_738_">
			<path id="XMLID_742_" class="st0" d="M443,40.3c0.9-0.6,1.9-1.3,2.8-1.9c-0.3-0.2-0.6-0.5-0.9-0.7c-0.4,2.4-0.6,4.9-0.6,7.4
				c0,0.8,1.3,0.8,1.3,0c-0.1-2.4,0.1-4.7,0.5-7.1c0.1-0.5-0.4-1-0.9-0.7c-0.9,0.6-1.9,1.3-2.8,1.9C441.7,39.7,442.3,40.7,443,40.3
				L443,40.3z"/>
		</g>
	</g>
	<g id="XMLID_1421_">
		<g id="XMLID_732_">
			<path id="XMLID_736_" class="st0" d="M442.1,45.8c1.7,0,3.3-0.1,5-0.1c0.8,0,0.8-1.3,0-1.3c-1.7,0.1-3.3,0.1-5,0.1
				C441.3,44.5,441.3,45.8,442.1,45.8L442.1,45.8z"/>
		</g>
	</g>
</g>
<g id="XMLID_1413_">
	<g id="XMLID_726_">
		<path id="XMLID_730_" class="st0" d="M368.6,35.6c1.8,0,3.7,0,5.5,0c0.8,0,1.7-0.1,2.5,0c1.4,0.2,1.7,0.1,1.9,1.5
			c0.3,1.5,0,3.2-0.2,4.7c-0.1,1.2,0.3,3.5-0.1,4.6c-0.7,1.6-3.6,0.9-4.9,0.9c-0.9,0-2,0.1-2.9-0.1c-1.4-0.2-1.4-0.2-1.6-1.7
			c-0.2-1.5,0.1-3.2,0.2-4.7c0-1.8,0-3.7-0.1-5.5c0-0.5-0.8-0.5-0.8,0c0.1,2.3,0.2,4.6,0.1,7c0,1.7-0.5,3.7-0.2,5.4
			c0,0.1,0.1,0.2,0.3,0.3c1.5,0.4,3.6,0.1,5.1,0.2c1.4,0,3.7,0.6,5,0.1c0.5-0.2,0.4-0.1,0.7-0.7c0.5-1.4,0-3.7,0.1-5.3
			c0.2-1.7,0.3-3.3,0.2-5c0-0.6,0.2-1.8-0.4-2.2c-0.5-0.4-2.7-0.1-3.3-0.1c-2.3,0-4.6,0-7,0C368.2,34.8,368.2,35.6,368.6,35.6
			L368.6,35.6z"/>
	</g>
</g>
<g id="XMLID_1384_">
	<g id="XMLID_1392_">
		<g id="XMLID_720_">
			<path id="XMLID_724_" class="st0" d="M443,68.6c0.9-0.6,1.9-1.3,2.8-1.9c-0.3-0.2-0.6-0.5-0.9-0.7c-0.4,2.4-0.6,4.9-0.6,7.4
				c0,0.8,1.3,0.8,1.3,0c-0.1-2.4,0.1-4.7,0.5-7.1c0.1-0.5-0.4-1-0.9-0.7c-0.9,0.6-1.9,1.3-2.8,1.9C441.7,68,442.3,69.1,443,68.6
				L443,68.6z"/>
		</g>
	</g>
	<g id="XMLID_1385_">
		<g id="XMLID_703_">
			<path id="XMLID_716_" class="st0" d="M442.1,74.1c1.7,0,3.3-0.1,5-0.1c0.8,0,0.8-1.3,0-1.3c-1.7,0.1-3.3,0.1-5,0.1
				C441.3,72.9,441.3,74.1,442.1,74.1L442.1,74.1z"/>
		</g>
	</g>
</g>
<g id="XMLID_1363_">
	<g id="XMLID_697_">
		<path id="XMLID_701_" class="st0" d="M373.7,94.2c-4-0.4-3.8,8.9,0.8,8.1c1.9-0.3,2.1-3.4,2-4.8c-0.2-2.5-1.4-3.7-3.9-3.3
			c-0.8,0.1-0.5,1.3,0.3,1.2c1-0.1,1.6-0.2,2.1,1c0.2,0.4,0.2,1.2,0.2,1.7c0,1-0.1,2.3-1.1,2.7c-2.7,1.1-2.6-5.5-0.6-5.3
			C374.5,95.6,374.4,94.3,373.7,94.2L373.7,94.2z"/>
	</g>
</g>
<g id="XMLID_1348_">
	<g id="XMLID_1356_">
		<g id="XMLID_691_">
			<path id="XMLID_695_" class="st0" d="M443,97c0.9-0.6,1.9-1.3,2.8-1.9c-0.3-0.2-0.6-0.5-0.9-0.7c-0.4,2.4-0.6,4.9-0.6,7.4
				c0,0.8,1.3,0.8,1.3,0c-0.1-2.4,0.1-4.7,0.5-7.1c0.1-0.5-0.4-1-0.9-0.7c-0.9,0.6-1.9,1.3-2.8,1.9C441.7,96.4,442.3,97.4,443,97
				L443,97z"/>
		</g>
	</g>
	<g id="XMLID_1349_">
		<g id="XMLID_685_">
			<path id="XMLID_689_" class="st0" d="M442.1,102.5c1.7,0,3.3-0.1,5-0.1c0.8,0,0.8-1.3,0-1.3c-1.7,0.1-3.3,0.1-5,0.1
				C441.3,101.2,441.3,102.5,442.1,102.5L442.1,102.5z"/>
		</g>
	</g>
</g>
<g id="XMLID_1341_">
	<g id="XMLID_678_">
		<path id="XMLID_683_" class="st0" d="M368.6,92.3c1.8,0,3.7,0,5.5,0c0.8,0,1.7-0.1,2.5,0c1.4,0.2,1.7,0.1,1.9,1.5
			c0.3,1.5,0,3.2-0.2,4.7c-0.1,1.2,0.3,3.5-0.1,4.6c-0.7,1.6-3.6,0.9-4.9,0.9c-0.9,0-2,0.1-2.9-0.1c-1.4-0.2-1.4-0.2-1.6-1.7
			c-0.2-1.5,0.1-3.2,0.2-4.7c0-1.8,0-3.7-0.1-5.5c0-0.5-0.8-0.5-0.8,0c0.1,2.3,0.2,4.6,0.1,7c0,1.7-0.5,3.7-0.2,5.4
			c0,0.1,0.1,0.2,0.3,0.3c1.5,0.4,3.6,0.1,5.1,0.2c1.4,0,3.7,0.6,5,0.1c0.5-0.2,0.4-0.1,0.7-0.7c0.5-1.4,0-3.7,0.1-5.3
			c0.2-1.7,0.3-3.3,0.2-5c0-0.6,0.2-1.8-0.4-2.2c-0.5-0.4-2.7-0.1-3.3-0.1c-2.3,0-4.6,0-7,0C368.2,91.5,368.2,92.3,368.6,92.3
			L368.6,92.3z"/>
	</g>
</g>
<g id="XMLID_1312_">
	<g id="XMLID_1320_">
		<g id="XMLID_673_">
			<path id="XMLID_677_" class="st0" d="M443,125.3c0.9-0.6,1.9-1.3,2.8-1.9c-0.3-0.2-0.6-0.5-0.9-0.7c-0.4,2.4-0.6,4.9-0.6,7.4
				c0,0.8,1.3,0.8,1.3,0c-0.1-2.4,0.1-4.7,0.5-7.1c0.1-0.5-0.4-1-0.9-0.7c-0.9,0.6-1.9,1.3-2.8,1.9
				C441.7,124.7,442.3,125.8,443,125.3L443,125.3z"/>
		</g>
	</g>
	<g id="XMLID_1313_">
		<g id="XMLID_667_">
			<path id="XMLID_671_" class="st0" d="M442.1,130.8c1.7,0,3.3-0.1,5-0.1c0.8,0,0.8-1.3,0-1.3c-1.7,0.1-3.3,0.1-5,0.1
				C441.3,129.6,441.3,130.8,442.1,130.8L442.1,130.8z"/>
		</g>
	</g>
</g>
<g id="XMLID_1333_">
	<g id="XMLID_1399_">
		<g id="XMLID_661_">
			<path id="XMLID_665_" class="st0" d="M372.1,68.6c0.9-0.6,1.9-1.3,2.8-1.9c-0.3-0.2-0.6-0.5-0.9-0.7c-0.4,2.4-0.6,4.9-0.6,7.4
				c0,0.8,1.3,0.8,1.3,0c-0.1-2.4,0.1-4.7,0.5-7.1c0.1-0.5-0.4-1-0.9-0.7c-0.9,0.6-1.9,1.3-2.8,1.9C370.8,68,371.5,69.1,372.1,68.6
				L372.1,68.6z"/>
		</g>
	</g>
	<g id="XMLID_1377_">
		<g id="XMLID_654_">
			<path id="XMLID_659_" class="st0" d="M371.3,74.1c1.7,0,3.3-0.1,5-0.1c0.8,0,0.8-1.3,0-1.3c-1.7,0.1-3.3,0.1-5,0.1
				C370.5,72.9,370.4,74.1,371.3,74.1L371.3,74.1z"/>
		</g>
	</g>
</g>
<g id="XMLID_1289_">
	<g id="XMLID_1297_">
		<g id="XMLID_475_">
			<path id="XMLID_479_" class="st0" d="M372.1,125.3c0.9-0.6,1.9-1.3,2.8-1.9c-0.3-0.2-0.6-0.5-0.9-0.7c-0.4,2.4-0.6,4.9-0.6,7.4
				c0,0.8,1.3,0.8,1.3,0c-0.1-2.4,0.1-4.7,0.5-7.1c0.1-0.5-0.4-1-0.9-0.7c-0.9,0.6-1.9,1.3-2.8,1.9
				C370.8,124.7,371.5,125.8,372.1,125.3L372.1,125.3z"/>
		</g>
	</g>
	<g id="XMLID_1290_">
		<g id="XMLID_468_">
			<path id="XMLID_473_" class="st0" d="M371.3,130.8c1.7,0,3.3-0.1,5-0.1c0.8,0,0.8-1.3,0-1.3c-1.7,0.1-3.3,0.1-5,0.1
				C370.5,129.6,370.4,130.8,371.3,130.8L371.3,130.8z"/>
		</g>
	</g>
</g>
<g id="XMLID_866_">
	<g id="XMLID_645_">
		<path id="XMLID_651_" class="st0" d="M341.1,42.1c7.5-0.2,15.1,0.5,22.5,0.1c0.6,0,0.6-1,0-1c-7.5,0.4-15-0.3-22.5-0.1
			C340.5,41.1,340.5,42.1,341.1,42.1L341.1,42.1z"/>
	</g>
</g>
<g id="XMLID_867_">
	<g id="XMLID_639_">
		<path id="XMLID_643_" class="st0" d="M364.4,41.2c-0.4-0.9-1.3-1.5-2.2-1.9c-0.8-0.5-1.6,0.8-0.8,1.3c0.7,0.4,1.3,0.7,1.7,1.4
			C363.5,42.9,364.8,42.1,364.4,41.2L364.4,41.2z"/>
	</g>
</g>
<g id="XMLID_1137_">
	<g id="XMLID_632_">
		<path id="XMLID_637_" class="st0" d="M363.1,41.4c-0.4,0.5-0.9,1-1.5,1.3c-0.8,0.5-0.1,1.8,0.8,1.3c0.8-0.5,1.5-1.1,2.1-1.8
			c0.2-0.3,0-0.8-0.3-1C363.8,40.9,363.4,41.1,363.1,41.4L363.1,41.4z"/>
	</g>
</g>
<g id="XMLID_1474_">
	<g id="XMLID_626_">
		<path id="XMLID_630_" class="st0" d="M341.1,70.4c7.5-0.2,15.1,0.5,22.5,0.1c0.6,0,0.6-1,0-1c-7.5,0.4-15-0.3-22.5-0.1
			C340.5,69.5,340.5,70.5,341.1,70.4L341.1,70.4z"/>
	</g>
</g>
<g id="XMLID_1462_">
	<g id="XMLID_620_">
		<path id="XMLID_624_" class="st0" d="M364.4,69.6c-0.4-0.9-1.3-1.5-2.2-1.9c-0.8-0.5-1.6,0.8-0.8,1.3c0.7,0.4,1.3,0.7,1.7,1.4
			C363.5,71.2,364.8,70.5,364.4,69.6L364.4,69.6z"/>
	</g>
</g>
<g id="XMLID_1144_">
	<g id="XMLID_614_">
		<path id="XMLID_618_" class="st0" d="M363.1,69.8c-0.4,0.5-0.9,1-1.5,1.3c-0.8,0.5-0.1,1.8,0.8,1.3c0.8-0.5,1.5-1.1,2.1-1.8
			c0.2-0.3,0-0.8-0.3-1C363.8,69.3,363.4,69.4,363.1,69.8L363.1,69.8z"/>
	</g>
</g>
<g id="XMLID_1513_">
	<g id="XMLID_607_">
		<path id="XMLID_612_" class="st0" d="M341.1,98.8c7.5-0.2,15.1,0.5,22.5,0.1c0.6,0,0.6-1,0-1c-7.5,0.4-15-0.3-22.5-0.1
			C340.5,97.8,340.5,98.8,341.1,98.8L341.1,98.8z"/>
	</g>
</g>
<g id="XMLID_1506_">
	<g id="XMLID_601_">
		<path id="XMLID_605_" class="st0" d="M364.4,97.9c-0.4-0.9-1.3-1.5-2.2-1.9c-0.8-0.5-1.6,0.8-0.8,1.3c0.7,0.4,1.3,0.7,1.7,1.4
			C363.5,99.6,364.8,98.8,364.4,97.9L364.4,97.9z"/>
	</g>
</g>
<g id="XMLID_1499_">
	<g id="XMLID_593_">
		<path id="XMLID_599_" class="st0" d="M363.1,98.1c-0.4,0.5-0.9,1-1.5,1.3c-0.8,0.5-0.1,1.8,0.8,1.3c0.8-0.5,1.5-1.1,2.1-1.8
			c0.2-0.3,0-0.8-0.3-1C363.8,97.6,363.4,97.8,363.1,98.1L363.1,98.1z"/>
	</g>
</g>
<g id="XMLID_1534_">
	<g id="XMLID_584_">
		<path id="XMLID_588_" class="st0" d="M341.1,127.1c7.5-0.2,15.1,0.5,22.5,0.1c0.6,0,0.6-1,0-1c-7.5,0.4-15-0.3-22.5-0.1
			C340.5,126.1,340.5,127.1,341.1,127.1L341.1,127.1z"/>
	</g>
</g>
<g id="XMLID_1527_">
	<g id="XMLID_578_">
		<path id="XMLID_582_" class="st0" d="M364.4,126.3c-0.4-0.9-1.3-1.5-2.2-1.9c-0.8-0.5-1.6,0.8-0.8,1.3c0.7,0.4,1.3,0.7,1.7,1.4
			C363.5,127.9,364.8,127.2,364.4,126.3L364.4,126.3z"/>
	</g>
</g>
<g id="XMLID_1520_">
	<g id="XMLID_572_">
		<path id="XMLID_576_" class="st0" d="M363.1,126.5c-0.4,0.5-0.9,1-1.5,1.3c-0.8,0.5-0.1,1.8,0.8,1.3c0.8-0.5,1.5-1.1,2.1-1.8
			c0.2-0.3,0-0.8-0.3-1C363.8,126,363.4,126.1,363.1,126.5L363.1,126.5z"/>
	</g>
</g>
<g id="XMLID_1618_">
	<g id="XMLID_562_">
		<path id="XMLID_569_" class="st0" d="M454.5,42.1c7.5-0.2,15.1,0.5,22.5,0.1c0.6,0,0.6-1,0-1c-7.5,0.4-15-0.3-22.5-0.1
			C453.9,41.1,453.9,42.1,454.5,42.1L454.5,42.1z"/>
	</g>
</g>
<g id="XMLID_1611_">
	<g id="XMLID_555_">
		<path id="XMLID_560_" class="st0" d="M477.8,41.2c-0.4-0.9-1.3-1.5-2.2-1.9c-0.8-0.5-1.6,0.8-0.8,1.3c0.7,0.4,1.3,0.7,1.7,1.4
			C476.9,42.9,478.2,42.1,477.8,41.2L477.8,41.2z"/>
	</g>
</g>
<g id="XMLID_1604_">
	<g id="XMLID_548_">
		<path id="XMLID_553_" class="st0" d="M476.5,41.4c-0.4,0.5-0.9,1-1.5,1.3c-0.8,0.5-0.1,1.8,0.8,1.3c0.8-0.5,1.5-1.1,2.1-1.8
			c0.2-0.3,0-0.8-0.3-1C477.1,40.9,476.7,41.1,476.5,41.4L476.5,41.4z"/>
	</g>
</g>
<g id="XMLID_1597_">
	<g id="XMLID_541_">
		<path id="XMLID_546_" class="st0" d="M454.5,70.4c7.5-0.2,15.1,0.5,22.5,0.1c0.6,0,0.6-1,0-1c-7.5,0.4-15-0.3-22.5-0.1
			C453.9,69.5,453.9,70.5,454.5,70.4L454.5,70.4z"/>
	</g>
</g>
<g id="XMLID_1590_">
	<g id="XMLID_534_">
		<path id="XMLID_538_" class="st0" d="M477.8,69.6c-0.4-0.9-1.3-1.5-2.2-1.9c-0.8-0.5-1.6,0.8-0.8,1.3c0.7,0.4,1.3,0.7,1.7,1.4
			C476.9,71.2,478.2,70.5,477.8,69.6L477.8,69.6z"/>
	</g>
</g>
<g id="XMLID_1583_">
	<g id="XMLID_528_">
		<path id="XMLID_532_" class="st0" d="M476.5,69.8c-0.4,0.5-0.9,1-1.5,1.3c-0.8,0.5-0.1,1.8,0.8,1.3c0.8-0.5,1.5-1.1,2.1-1.8
			c0.2-0.3,0-0.8-0.3-1C477.1,69.3,476.7,69.4,476.5,69.8L476.5,69.8z"/>
	</g>
</g>
<g id="XMLID_1576_">
	<g id="XMLID_522_">
		<path id="XMLID_526_" class="st0" d="M454.5,98.8c7.5-0.2,15.1,0.5,22.5,0.1c0.6,0,0.6-1,0-1c-7.5,0.4-15-0.3-22.5-0.1
			C453.9,97.8,453.9,98.8,454.5,98.8L454.5,98.8z"/>
	</g>
</g>
<g id="XMLID_1569_">
	<g id="XMLID_516_">
		<path id="XMLID_520_" class="st0" d="M477.8,97.9c-0.4-0.9-1.3-1.5-2.2-1.9c-0.8-0.5-1.6,0.8-0.8,1.3c0.7,0.4,1.3,0.7,1.7,1.4
			C476.9,99.6,478.2,98.8,477.8,97.9L477.8,97.9z"/>
	</g>
</g>
<g id="XMLID_1562_">
	<g id="XMLID_510_">
		<path id="XMLID_514_" class="st0" d="M476.5,98.1c-0.4,0.5-0.9,1-1.5,1.3c-0.8,0.5-0.1,1.8,0.8,1.3c0.8-0.5,1.5-1.1,2.1-1.8
			c0.2-0.3,0-0.8-0.3-1C477.1,97.6,476.7,97.8,476.5,98.1L476.5,98.1z"/>
	</g>
</g>
<g id="XMLID_1516_">
	<g id="XMLID_488_">
		<path id="XMLID_493_" class="st0" d="M454.5,127.1c7.5-0.2,15.1,0.5,22.5,0.1c0.6,0,0.6-1,0-1c-7.5,0.4-15-0.3-22.5-0.1
			C453.9,126.1,453.9,127.1,454.5,127.1L454.5,127.1z"/>
	</g>
</g>
<g id="XMLID_1494_">
	<g id="XMLID_495_">
		<path id="XMLID_503_" class="st0" d="M477.8,126.3c-0.4-0.9-1.3-1.5-2.2-1.9c-0.8-0.5-1.6,0.8-0.8,1.3c0.7,0.4,1.3,0.7,1.7,1.4
			C476.9,127.9,478.2,127.2,477.8,126.3L477.8,126.3z"/>
	</g>
</g>
<g id="XMLID_1487_">
	<g id="XMLID_481_">
		<path id="XMLID_486_" class="st0" d="M476.5,126.5c-0.4,0.5-0.9,1-1.5,1.3c-0.8,0.5-0.1,1.8,0.8,1.3c0.8-0.5,1.5-1.1,2.1-1.8
			c0.2-0.3,0-0.8-0.3-1C477.1,126,476.7,126.1,476.5,126.5L476.5,126.5z"/>
	</g>
</g>
<g id="XMLID_1626_" class="st1">
	<g id="XMLID_463_">
		<path id="XMLID_467_" class="st0" d="M315.8,21.9c25.3,0.5,50.6,1.2,75.8-0.2c0.6,0,0.6-1,0-1c-25.3,1.4-50.6,0.7-75.8,0.2
			C315.2,20.9,315.2,21.9,315.8,21.9L315.8,21.9z"/>
	</g>
</g>
<g id="XMLID_863_" class="st1">
	<g id="XMLID_457_">
		<path id="XMLID_461_" class="st0" d="M429.2,21.9c25.3,0.5,50.6,1.2,75.8-0.2c0.6,0,0.6-1,0-1c-25.3,1.4-50.6,0.7-75.8,0.2
			C428.6,20.9,428.6,21.9,429.2,21.9L429.2,21.9z"/>
	</g>
</g>
<g id="XMLID_1266_" class="st1">
	<g id="XMLID_451_">
		<path id="XMLID_455_" class="st0" d="M202.4,21.9c25.3,0.5,50.6,1.2,75.8-0.2c0.6,0,0.6-1,0-1c-25.3,1.4-50.6,0.7-75.8,0.2
			C201.8,20.9,201.8,21.9,202.4,21.9L202.4,21.9z"/>
	</g>
</g>
<g id="XMLID_1467_" class="st1">
	<g id="XMLID_445_">
		<path id="XMLID_449_" class="st0" d="M89,21.9c25.3,0.5,50.6,1.2,75.8-0.2c0.6,0,0.6-1,0-1c-25.3,1.4-50.6,0.7-75.8,0.2
			C88.4,20.9,88.4,21.9,89,21.9L89,21.9z"/>
	</g>
</g>
<g id="XMLID_1628_">
	<g id="XMLID_438_">
		<path id="XMLID_442_" class="st0" d="M102.3,8.4c-2.9-0.4-5,2.1-5.2,4.8c-0.3,3.2,1.5,5,4.6,5.1c1.4,0,2.9-0.2,3.8-1.3
			c0.8-1,0.8-2.5,0.9-3.8c0.2-1.5,0.1-2.7-1.2-3.7c-1.3-1-3.1-1.2-4.8-1.2c-1,0-1,1.5,0,1.5c1,0,1.9,0.1,2.9,0.4
			c1.3,0.5,1.6,1.3,1.6,2.7c0,0.7-0.1,1.8-0.3,2.5c-0.5,1.3-1.8,1.4-2.9,1.4c-0.9,0-2.2-0.1-2.8-1.1c-0.5-0.8-0.4-2-0.3-2.9
			c0.3-1.9,1.7-3.2,3.7-3C103.2,10,103.2,8.5,102.3,8.4L102.3,8.4z"/>
	</g>
</g>
<g id="XMLID_1629_">
	<g id="XMLID_432_">
		<path id="XMLID_436_" class="st0" d="M107.5,11.5c0.4,2.9-0.4,5.8-0.1,8.6c0.1,1,1.6,1,1.5,0c-0.3-3,0.5-6,0.1-9
			C108.8,10.1,107.4,10.5,107.5,11.5L107.5,11.5z"/>
	</g>
</g>
<g id="XMLID_1630_">
	<g id="XMLID_426_">
		<path id="XMLID_430_" class="st0" d="M108.9,13.6c0.6-0.5,1.3-1,2.1-1.1c1.3-0.1,1.4,1,1.3,2c-0.1,0.6-0.3,1.4-0.7,1.9
			c-0.7,0.7-1.7,0.7-2.2-0.2c-0.5-0.8-1.8-0.1-1.3,0.8c0.7,1.2,2.1,1.8,3.4,1.3c1.5-0.6,2.1-2.2,2.3-3.7c0.2-1.5-0.1-3-1.7-3.4
			c-1.6-0.5-3,0.5-4.2,1.4C107.1,13.1,108.1,14.2,108.9,13.6L108.9,13.6z"/>
	</g>
</g>
<g id="XMLID_1631_">
	<g id="XMLID_420_">
		<path id="XMLID_424_" class="st0" d="M115.3,15.2c1.7,0.1,3.4,0.1,5.1,0c0.5,0,0.8-0.5,0.7-0.9c-0.3-2-1.3-3.2-3.4-3.2
			c-1.9-0.1-3,1.2-3.3,3c-0.2,1.5,0.3,3.4,1.7,4.1c1.5,0.8,3.7,0.4,4.6-1.1c0.5-0.8-0.8-1.6-1.3-0.8c-0.5,0.9-2.2,0.9-2.9,0.3
			c-0.6-0.6-0.8-1.6-0.6-2.5c0.2-0.9,0.8-1.6,1.8-1.6c1.4,0.1,1.8,0.9,1.9,2.1c0.2-0.3,0.5-0.6,0.7-0.9c-1.7,0.1-3.4,0.1-5.1,0
			C114.4,13.6,114.4,15.1,115.3,15.2L115.3,15.2z"/>
	</g>
</g>
<g id="XMLID_1632_">
	<g id="XMLID_414_">
		<path id="XMLID_418_" class="st0" d="M122.2,11.7c0,1.9,0,3.7-0.1,5.5c0,1,1.4,0.9,1.5,0c0.2-1.4,0-4.8,2-4.9c1,0,1-1.5,0-1.5
			c-3.3,0.1-3.3,4-3.5,6.4c0.5,0,1,0,1.5,0c0.1-1.8,0.1-3.7,0.1-5.5C123.7,10.7,122.2,10.7,122.2,11.7L122.2,11.7z"/>
	</g>
</g>
<g id="XMLID_1633_">
	<g id="XMLID_408_">
		<path id="XMLID_412_" class="st0" d="M127.5,13.4c0.8-0.6,2.5-1.9,3.1-0.4c0,0.2,0.1,0.5,0.1,0.7c0.7-0.1,0.7-0.2,0.2-0.3
			c-0.4-0.1-0.8,0-1.1,0c-1.4,0.2-3.5,1-3.7,2.6c-0.2,1.7,1.7,2.1,3,2.1c0.8,0,1.6-0.3,2.1-0.9c0.5-0.6,0.5-1.5,0.8-2.2
			c-0.5-0.1-1-0.1-1.5-0.2c-0.1,1.6-0.4,3.3,1.6,3.3c1,0,1-1.5,0-1.5c-0.4,0-0.2-0.2-0.2-0.7c0-0.4,0-0.8,0.1-1.2
			c0-0.9-1.2-1-1.5-0.2c-0.4,1.1-0.3,2.1-1.8,2c-0.3,0-0.5-0.1-0.8-0.1c0-0.3,0-0.5,0-0.8c0.2-0.3,1.1-0.6,1.5-0.7
			c0.9-0.3,2.6,0.5,2.8-1c0.1-1.1-0.3-2.6-1.3-3.1c-1.3-0.6-3.1,0.4-4.1,1.2C126,12.7,126.7,14,127.5,13.4L127.5,13.4z"/>
	</g>
</g>
<g id="XMLID_1636_">
	<g id="XMLID_402_">
		<path id="XMLID_406_" class="st0" d="M133.9,9.6c-0.1,1.2-0.2,2.5-0.2,3.7c-0.1,1.1-0.3,2.3-0.1,3.4c0.2,1.2,1.2,1.9,2.4,1.3
			c0.9-0.4,0.1-1.7-0.8-1.3c-0.1,0,0-3.3,0-3.4c0.1-1.2,0.2-2.5,0.2-3.7C135.5,8.6,134,8.6,133.9,9.6L133.9,9.6z"/>
	</g>
</g>
<g id="XMLID_1638_">
	<g id="XMLID_396_">
		<path id="XMLID_400_" class="st0" d="M132.8,12.1c1.1,0,2.1,0.1,3.2,0.3c0.9,0.2,1.3-1.3,0.4-1.4c-1.2-0.2-2.4-0.3-3.6-0.3
			C131.8,10.6,131.8,12.1,132.8,12.1L132.8,12.1z"/>
	</g>
</g>
<g id="XMLID_1650_">
	<g id="XMLID_390_">
		<path id="XMLID_394_" class="st0" d="M137.4,11.4c0,1.9,0.3,3.9-0.1,5.8c-0.2,0.9,1.2,1.3,1.4,0.4c0.4-2,0.2-4.1,0.2-6.2
			C138.9,10.5,137.4,10.5,137.4,11.4L137.4,11.4z"/>
	</g>
</g>
<g id="XMLID_1657_">
	<g id="XMLID_384_">
		<path id="XMLID_388_" class="st0" d="M138.9,9.4c0-0.1,0-0.1,0-0.2c0-1-1.5-1-1.5,0c0,0.1,0,0.1,0,0.2
			C137.4,10.4,138.9,10.4,138.9,9.4L138.9,9.4z"/>
	</g>
</g>
<g id="XMLID_1664_">
	<g id="XMLID_378_">
		<path id="XMLID_382_" class="st0" d="M143.3,10.7c-2.2,0-3.5,1.9-3.7,4c-0.1,0.9,0,2.1,0.8,2.7c0.7,0.6,1.9,0.9,2.8,0.9
			c2.2,0,3-2,3.1-3.9c0.2-2.4-1.3-3.5-3.5-3.8c-0.9-0.1-1.4,1.3-0.4,1.4c1.1,0.2,2.3,0.3,2.4,1.6c0.1,1-0.2,2.7-1.2,3.1
			c-0.5,0.2-1.1,0-1.6-0.2c-0.7-0.3-0.9-0.6-0.9-1.4c0-1.4,0.6-2.9,2.2-2.9C144.3,12.2,144.3,10.7,143.3,10.7L143.3,10.7z"/>
	</g>
</g>
<g id="XMLID_1671_">
	<g id="XMLID_372_">
		<path id="XMLID_376_" class="st0" d="M147.4,11.6c0,0.9,0,1.8,0.1,2.8c0,0.9,0.2,1.9-0.1,2.8c-0.3,0.9,1.1,1.3,1.4,0.4
			c0.3-0.9,0.2-1.8,0.1-2.8c0-1.1,0-2.1-0.1-3.2C148.9,10.7,147.4,10.7,147.4,11.6L147.4,11.6z"/>
	</g>
</g>
<g id="XMLID_1678_">
	<g id="XMLID_366_">
		<path id="XMLID_370_" class="st0" d="M148.7,13.4c0.4-0.3,0.8-0.6,1.3-0.8c1-0.3,1.5,0.1,1.6,1.1c0.2,1.2,0.1,2.4-0.1,3.6
			c-0.2,0.9,1.3,1.3,1.4,0.4c0.3-1.7,0.8-4.7-0.6-6c-1.4-1.3-3.5-0.3-4.7,0.7C146.9,13,148,14,148.7,13.4L148.7,13.4z"/>
	</g>
</g>
<g id="XMLID_1685_">
	<g id="XMLID_360_">
		<path id="XMLID_364_" class="st0" d="M221.7,8.4c-1.6,0-3.1,0-4.7,0c-0.7,0-1.1,0-1.5,0.6c-0.4,0.8-0.3,2.5-0.3,3.4
			c-0.1,1.7,0,3.3,0.1,5c0.1,1,1.6,1,1.5,0c-0.1-1.3-0.1-2.7-0.1-4c0-1.2-0.1-2.8,0.3-4c-0.2,0.2-0.3,0.3-0.5,0.5
			c0.7-0.2,1.8,0,2.6,0c0.9,0,1.8,0,2.6,0C222.7,9.9,222.7,8.4,221.7,8.4L221.7,8.4z"/>
	</g>
</g>
<g id="XMLID_1692_">
	<g id="XMLID_354_">
		<path id="XMLID_358_" class="st0" d="M216,13.9c1.1-0.1,2.2-0.2,3.3-0.1c1,0,1-1.5,0-1.5c-1.1-0.1-2.2,0-3.3,0.1
			C215.1,12.5,215.1,14,216,13.9L216,13.9z"/>
	</g>
</g>
<g id="XMLID_1699_">
	<g id="XMLID_348_">
		<path id="XMLID_352_" class="st0" d="M223.2,11.3c-0.3,2.4-1,7,2.5,7.1c3.5,0.1,3.6-4.4,3.4-7c-0.1-1-1.5-1-1.5,0
			c0,2,0.1,4.1,0.1,6.1c0,1,1.5,1,1.5,0c0-2-0.1-4.1-0.1-6.1c-0.5,0-1,0-1.5,0c0.1,1.5,0.4,5.9-2.1,5.5c-1.8-0.3-1-4.3-0.8-5.6
			C224.8,10.3,223.3,10.3,223.2,11.3L223.2,11.3z"/>
	</g>
</g>
<g id="XMLID_1706_">
	<g id="XMLID_342_">
		<path id="XMLID_346_" class="st0" d="M230.4,11.5c0,2,0,4-0.1,6c-0.1,1,1.4,1,1.5,0c0.1-2,0.1-4,0.1-6
			C231.9,10.5,230.4,10.5,230.4,11.5L230.4,11.5z"/>
	</g>
</g>
<g id="XMLID_1713_">
	<g id="XMLID_336_">
		<path id="XMLID_340_" class="st0" d="M231.8,13.6c0.4-0.5,1-1,1.7-1.1c0.8-0.1,1,0.5,1.2,1.2c0.3,1.3,0.2,2.6,0.2,3.9
			c-0.1,1,1.4,1,1.5,0c0.1-2,0.3-4.5-1.1-6.2c-1.1-1.4-3.6,0.2-4.5,1.1C230,13.2,231.1,14.3,231.8,13.6L231.8,13.6z"/>
	</g>
</g>
<g id="XMLID_1720_">
	<g id="XMLID_330_">
		<path id="XMLID_334_" class="st0" d="M243.2,12.5c-1.5-3.2-5.9-1.3-6.1,1.8c-0.1,1.4,0.7,3.4,2.1,3.9c1.6,0.6,3-0.4,4-1.5
			c0.7-0.7-0.4-1.8-1.1-1.1c-0.5,0.5-1.1,1.2-1.8,1.2c-1.1,0.1-1.7-1.2-1.8-2.2c-0.1-1.8,2.4-3.4,3.3-1.4
			C242.3,14.1,243.6,13.3,243.2,12.5L243.2,12.5z"/>
	</g>
</g>
<g id="XMLID_1727_">
	<g id="XMLID_324_">
		<path id="XMLID_328_" class="st0" d="M244.6,9.5c-0.1,1.3-0.1,2.6-0.2,3.9c-0.1,1.1-0.3,2.4-0.1,3.5c0.2,1.1,1.1,1.9,2.2,1.5
			c0.9-0.3,0.5-1.8-0.4-1.4c-0.5,0.2-0.2-3.2-0.2-3.5c0.1-1.3,0.1-2.6,0.2-3.9C246.2,8.6,244.7,8.6,244.6,9.5L244.6,9.5z"/>
	</g>
</g>
<g id="XMLID_1734_">
	<g id="XMLID_318_">
		<path id="XMLID_322_" class="st0" d="M243.8,12.3c0.9,0,1.9-0.1,2.7,0.1c0.9,0.3,1.3-1.1,0.4-1.4c-1-0.3-2.1-0.2-3.1-0.2
			C242.8,10.8,242.8,12.3,243.8,12.3L243.8,12.3z"/>
	</g>
</g>
<g id="XMLID_1741_">
	<g id="XMLID_312_">
		<path id="XMLID_316_" class="st0" d="M248.1,11.6c0.1,2.1,0.1,4.2-0.1,6.3c-0.1,1,1.4,1,1.5,0c0.1-2.1,0.2-4.2,0.1-6.3
			C249.5,10.7,248,10.7,248.1,11.6L248.1,11.6z"/>
	</g>
</g>
<g id="XMLID_1748_">
	<g id="XMLID_306_">
		<path id="XMLID_310_" class="st0" d="M249.7,9.5c0-0.1,0-0.1,0-0.2c0-1-1.5-1-1.5,0c0,0.1,0,0.1,0,0.2
			C248.2,10.4,249.7,10.4,249.7,9.5L249.7,9.5z"/>
	</g>
</g>
<g id="XMLID_1755_">
	<g id="XMLID_300_">
		<path id="XMLID_304_" class="st0" d="M253.8,10.8c-4.3-0.6-5.1,7.7-0.5,7.6c2,0,3.4-1.5,3.4-3.4c0-1.8-0.6-4.4-2.9-4.2
			c-1,0.1-1,1.6,0,1.5c1.2-0.1,1.3,1.5,1.4,2.3c0.1,1.2-0.4,2.1-1.7,2.3c-1.4,0.2-2-1.1-1.9-2.3c0.1-0.7,0.7-2.5,1.7-2.3
			C254.4,12.4,254.8,11,253.8,10.8L253.8,10.8z"/>
	</g>
</g>
<g id="XMLID_1762_">
	<g id="XMLID_294_">
		<path id="XMLID_298_" class="st0" d="M257.9,11.3c-0.3,2-0.3,4-0.1,6.1c0.1,0.9,1.6,1,1.5,0c-0.1-1.6-0.3-3.8,1.2-4.8
			c0.5-0.4,1.2-0.3,1.6,0.2c0.2,0.2,0.3,1.4,0.3,1.6c0.1,1,0,2-0.2,3c-0.2,0.9,1.3,1.3,1.4,0.4c0.4-2.1,0.9-7.5-2.6-7.1
			c-3.2,0.3-3.5,4.2-3.4,6.7c0.5,0,1,0,1.5,0c-0.2-2-0.2-4.1,0.1-6.1C259.5,10.4,258,10.4,257.9,11.3L257.9,11.3z"/>
	</g>
</g>
<g id="XMLID_1769_">
	<g id="XMLID_288_">
		<path id="XMLID_292_" class="st0" d="M323.9,8.8c0.4,2.9-0.5,5.8-0.3,8.8c0.1,1,1.6,1,1.5,0c-0.2-3,0.7-5.8,0.3-8.8
			C325.3,7.8,323.8,7.8,323.9,8.8L323.9,8.8z"/>
	</g>
</g>
<g id="XMLID_1776_">
	<g id="XMLID_282_">
		<path id="XMLID_286_" class="st0" d="M326.9,11.7c0.4,2-0.1,4.1-0.3,6.1c-0.1,1,1.4,1,1.5,0c0.2-2.2,0.7-4.3,0.3-6.5
			C328.2,10.3,326.7,10.7,326.9,11.7L326.9,11.7z"/>
	</g>
</g>
<g id="XMLID_1783_">
	<g id="XMLID_276_">
		<path id="XMLID_280_" class="st0" d="M328.2,13.6c0.8-0.9,2.7-2.3,2.9-0.2c0.2,1.3,0,2.8-0.1,4.2c-0.1,1,1.4,1,1.5,0
			c0.1-1.4,0.1-2.8,0.1-4.2c0-0.8,0-1.6-0.8-2.1c-1.7-1.2-3.5,0.1-4.7,1.3C326.5,13.3,327.6,14.3,328.2,13.6L328.2,13.6z"/>
	</g>
</g>
<g id="XMLID_1790_">
	<g id="XMLID_270_">
		<path id="XMLID_274_" class="st0" d="M334.2,11.5c-0.2,2.8-0.3,5.7-0.5,8.5c-0.1,1,1.4,1,1.5,0c0.2-2.8,0.3-5.7,0.5-8.5
			C335.7,10.6,334.2,10.6,334.2,11.5L334.2,11.5z"/>
	</g>
</g>
<g id="XMLID_1797_">
	<g id="XMLID_264_">
		<path id="XMLID_268_" class="st0" d="M335.3,13.5c0.6-0.3,1.2-0.9,1.9-1.1c1.1-0.2,1.3,0.8,1.4,1.6c0.1,0.7,0.1,1.8-0.4,2.3
			c-0.3,0.3-0.8,0.5-1.2,0.5c-0.7,0.1-1-0.1-1.3-0.7c-0.4-0.9-1.7-0.1-1.3,0.8c0.8,1.5,2.1,1.7,3.6,1.2c1.4-0.5,2.1-1.8,2.1-3.3
			c0-1.3-0.2-3.2-1.6-3.8c-1.5-0.7-2.8,0.5-4,1.2C333.7,12.7,334.4,14,335.3,13.5L335.3,13.5z"/>
	</g>
</g>
<g id="XMLID_1804_">
	<g id="XMLID_258_">
		<path id="XMLID_262_" class="st0" d="M341.4,11.2c-0.6,2.4-1.3,7.1,2.6,6.9c2.9-0.1,3.8-4.8,3.3-7c-0.2-0.9-1.4-0.6-1.5,0.2
			c-0.2,2.1-0.2,4.2-0.2,6.3c0,1,1.5,1,1.5,0c0-2.1,0-4.2,0.2-6.3c-0.5,0.1-1,0.1-1.5,0.2c0.3,1.3-0.2,4.6-1.7,5
			c-2.4,0.6-1.6-3.6-1.2-4.8C343.1,10.7,341.7,10.3,341.4,11.2L341.4,11.2z"/>
	</g>
</g>
<g id="XMLID_1811_">
	<g id="XMLID_252_">
		<path id="XMLID_256_" class="st0" d="M349,9.6c-0.2,2.3-0.2,4.6,0.1,6.9c0.1,1.1,0.6,2.3,2,1.9c0.9-0.3,0.5-1.7-0.4-1.4
			c-0.1,0-0.2-6.7-0.2-7.3C350.6,8.6,349.1,8.6,349,9.6L349,9.6z"/>
	</g>
</g>
<g id="XMLID_2038_">
	<g id="XMLID_246_">
		<path id="XMLID_250_" class="st0" d="M370.3,9.6c-0.2,2.3-0.2,4.6,0.1,6.9c0.1,1.1,0.6,2.3,2,1.9c0.9-0.3,0.5-1.7-0.4-1.4
			c-0.1,0-0.2-6.7-0.2-7.3C371.8,8.6,370.3,8.6,370.3,9.6L370.3,9.6z"/>
	</g>
</g>
<g id="XMLID_1867_">
	<g id="XMLID_240_">
		<path id="XMLID_244_" class="st0" d="M483.7,9.6c-0.2,2.3-0.2,4.6,0.1,6.9c0.1,1.1,0.6,2.3,2,1.9c0.9-0.3,0.5-1.7-0.4-1.4
			c-0.1,0-0.2-6.7-0.2-7.3C485.2,8.6,483.7,8.6,483.7,9.6L483.7,9.6z"/>
	</g>
</g>
<g id="XMLID_1818_">
	<g id="XMLID_234_">
		<path id="XMLID_238_" class="st0" d="M347.9,11.8c0.3,0.5,0.9,0.5,1.4,0.5c0.6,0,1.2,0,1.8,0c1,0,1-1.5,0-1.5c-0.4,0-0.8,0-1.2,0
			c-0.3,0-0.8,0.1-1.1,0c0.1,0.1,0.3,0.2,0.4,0.3c0,0,0-0.1,0-0.1C348.7,10.2,347.5,11,347.9,11.8L347.9,11.8z"/>
	</g>
</g>
<g id="XMLID_1825_">
	<g id="XMLID_228_">
		<path id="XMLID_232_" class="st0" d="M352.8,11.9c0,0.1,0.1,0.3,0.1,0.4c0.3,0.9,1.7,0.5,1.4-0.4c0-0.1-0.1-0.3-0.1-0.4
			C353.9,10.5,352.5,10.9,352.8,11.9L352.8,11.9z"/>
	</g>
</g>
<g id="XMLID_1832_">
	<g id="XMLID_222_">
		<path id="XMLID_226_" class="st0" d="M352.9,17.5c0.1,0.3,0.3,0.6,0.5,0.7c0.4,0.2,0.8,0.1,1-0.3c0.2-0.3,0.1-0.9-0.3-1
			c0,0.1,0.1,0.1,0.1,0.2C354.2,16.1,352.7,16.5,352.9,17.5L352.9,17.5z"/>
	</g>
</g>
<g id="XMLID_1839_">
	<g id="XMLID_216_">
		<path id="XMLID_220_" class="st0" d="M359.3,8.8c0.1,3,0.1,5.9,0.1,8.9c0,1,1.5,1,1.5,0c0-3,0-5.9-0.1-8.9
			C360.8,7.8,359.3,7.8,359.3,8.8L359.3,8.8z"/>
	</g>
</g>
<g id="XMLID_1846_">
	<g id="XMLID_210_">
		<path id="XMLID_214_" class="st0" d="M360.7,13.2c0.7-0.4,1.6-1.1,2.5-0.8c0.8,0.2,1,1.1,1,1.8c0,1.8-1.6,3.2-3.2,1.9
			c-0.8-0.6-1.5,0.7-0.8,1.3c2.6,1.9,5.5-0.3,5.5-3.2c0-1.2-0.5-2.5-1.6-3.1c-1.4-0.7-2.9,0-4.1,0.8
			C359.1,12.5,359.9,13.8,360.7,13.2L360.7,13.2z"/>
	</g>
</g>
<g id="XMLID_1853_">
	<g id="XMLID_204_">
		<path id="XMLID_208_" class="st0" d="M366.6,11.6c0.1,2.1-0.4,4.1-0.1,6.2c0.1,1,1.6,0.5,1.4-0.4c-0.3-1.9,0.2-3.9,0.1-5.8
			C368.1,10.7,366.6,10.7,366.6,11.6L366.6,11.6z"/>
	</g>
</g>
<g id="XMLID_1860_">
	<g id="XMLID_198_">
		<path id="XMLID_202_" class="st0" d="M368.3,9.3c0-0.1,0-0.1,0-0.2c0-1-1.5-1-1.5,0c0,0.1,0,0.1,0,0.2
			C366.8,10.3,368.3,10.3,368.3,9.3L368.3,9.3z"/>
	</g>
</g>
<g id="XMLID_1874_">
	<g id="XMLID_192_">
		<path id="XMLID_196_" class="st0" d="M369.5,12.3c1,0,2.1,0.1,3.1,0c1,0,1-1.5,0-1.5c-1,0-2.1,0-3.1,0
			C368.5,10.7,368.5,12.2,369.5,12.3L369.5,12.3z"/>
	</g>
</g>
<g id="XMLID_2029_">
	<g id="XMLID_186_">
		<path id="XMLID_190_" class="st0" d="M437.3,8.8c0.4,2.9-0.5,5.8-0.3,8.8c0.1,1,1.6,1,1.5,0c-0.2-3,0.7-5.8,0.3-8.8
			C438.7,7.8,437.2,7.8,437.3,8.8L437.3,8.8z"/>
	</g>
</g>
<g id="XMLID_2022_">
	<g id="XMLID_180_">
		<path id="XMLID_184_" class="st0" d="M440.3,11.7c0.4,2-0.1,4.1-0.3,6.1c-0.1,1,1.4,1,1.5,0c0.2-2.2,0.7-4.3,0.3-6.5
			C441.5,10.3,440.1,10.7,440.3,11.7L440.3,11.7z"/>
	</g>
</g>
<g id="XMLID_2015_">
	<g id="XMLID_174_">
		<path id="XMLID_178_" class="st0" d="M441.6,13.6c0.8-0.9,2.7-2.3,2.9-0.2c0.2,1.3,0,2.8-0.1,4.2c-0.1,1,1.4,1,1.5,0
			c0.1-1.4,0.1-2.8,0.1-4.2c0-0.8,0-1.6-0.8-2.1c-1.7-1.2-3.5,0.1-4.7,1.3C439.9,13.3,440.9,14.3,441.6,13.6L441.6,13.6z"/>
	</g>
</g>
<g id="XMLID_2008_">
	<g id="XMLID_168_">
		<path id="XMLID_172_" class="st0" d="M447.6,11.5c-0.2,2.8-0.3,5.7-0.5,8.5c-0.1,1,1.4,1,1.5,0c0.2-2.8,0.3-5.7,0.5-8.5
			C449.1,10.6,447.6,10.6,447.6,11.5L447.6,11.5z"/>
	</g>
</g>
<g id="XMLID_2001_">
	<g id="XMLID_162_">
		<path id="XMLID_166_" class="st0" d="M448.7,13.5c0.6-0.3,1.2-0.9,1.9-1.1c1.1-0.2,1.3,0.8,1.4,1.6c0.1,0.7,0.1,1.8-0.4,2.3
			c-0.3,0.3-0.8,0.5-1.2,0.5c-0.7,0.1-1-0.1-1.3-0.7c-0.4-0.9-1.7-0.1-1.3,0.8c0.8,1.5,2.1,1.7,3.6,1.2c1.4-0.5,2.1-1.8,2.1-3.3
			c0-1.3-0.2-3.2-1.6-3.8c-1.5-0.7-2.8,0.5-4,1.2C447.1,12.7,447.8,14,448.7,13.5L448.7,13.5z"/>
	</g>
</g>
<g id="XMLID_1994_">
	<g id="XMLID_156_">
		<path id="XMLID_160_" class="st0" d="M454.8,11.2c-0.6,2.4-1.3,7.1,2.6,6.9c2.9-0.1,3.8-4.8,3.3-7c-0.2-0.9-1.4-0.6-1.5,0.2
			c-0.2,2.1-0.2,4.2-0.2,6.3c0,1,1.5,1,1.5,0c0-2.1,0-4.2,0.2-6.3c-0.5,0.1-1,0.1-1.5,0.2c0.3,1.3-0.2,4.6-1.7,5
			c-2.4,0.6-1.6-3.6-1.2-4.8C456.5,10.7,455.1,10.3,454.8,11.2L454.8,11.2z"/>
	</g>
</g>
<g id="XMLID_1987_">
	<g id="XMLID_150_">
		<path id="XMLID_154_" class="st0" d="M462.4,9.6c-0.2,2.3-0.2,4.6,0.1,6.9c0.1,1.1,0.6,2.3,2,1.9c0.9-0.3,0.5-1.7-0.4-1.4
			c-0.1,0-0.2-6.7-0.2-7.3C464,8.6,462.5,8.6,462.4,9.6L462.4,9.6z"/>
	</g>
</g>
<g id="XMLID_1980_">
	<g id="XMLID_144_">
		<path id="XMLID_148_" class="st0" d="M461.3,11.8c0.3,0.5,0.9,0.5,1.4,0.5c0.6,0,1.2,0,1.8,0c1,0,1-1.5,0-1.5c-0.4,0-0.8,0-1.2,0
			c-0.3,0-0.8,0.1-1.1,0c0.1,0.1,0.3,0.2,0.4,0.3c0,0,0-0.1,0-0.1C462.1,10.2,460.8,11,461.3,11.8L461.3,11.8z"/>
	</g>
</g>
<g id="XMLID_1973_">
	<g id="XMLID_138_">
		<path id="XMLID_142_" class="st0" d="M466.2,11.9c0,0.1,0.1,0.3,0.1,0.4c0.3,0.9,1.7,0.5,1.4-0.4c0-0.1-0.1-0.3-0.1-0.4
			C467.3,10.5,465.9,10.9,466.2,11.9L466.2,11.9z"/>
	</g>
</g>
<g id="XMLID_1966_">
	<g id="XMLID_132_">
		<path id="XMLID_136_" class="st0" d="M466.3,17.5c0.1,0.3,0.3,0.6,0.5,0.7c0.4,0.2,0.8,0.1,1-0.3c0.2-0.3,0.1-0.9-0.3-1
			c0,0.1,0.1,0.1,0.1,0.2C467.6,16.1,466.1,16.5,466.3,17.5L466.3,17.5z"/>
	</g>
</g>
<g id="XMLID_1959_">
	<g id="XMLID_126_">
		<path id="XMLID_130_" class="st0" d="M472.7,8.8c0.1,3,0.1,5.9,0.1,8.9c0,1,1.5,1,1.5,0c0-3,0-5.9-0.1-8.9
			C474.1,7.8,472.6,7.8,472.7,8.8L472.7,8.8z"/>
	</g>
</g>
<g id="XMLID_1952_">
	<g id="XMLID_120_">
		<path id="XMLID_124_" class="st0" d="M474.1,13.2c0.7-0.4,1.6-1.1,2.5-0.8c0.8,0.2,1,1.1,1,1.8c0,1.8-1.6,3.2-3.2,1.9
			c-0.8-0.6-1.5,0.7-0.8,1.3c2.6,1.9,5.5-0.3,5.5-3.2c0-1.2-0.5-2.5-1.6-3.1c-1.4-0.7-2.9,0-4.1,0.8
			C472.5,12.5,473.3,13.8,474.1,13.2L474.1,13.2z"/>
	</g>
</g>
<g id="XMLID_1945_">
	<g id="XMLID_114_">
		<path id="XMLID_118_" class="st0" d="M480,11.6c0.1,2.1-0.4,4.1-0.1,6.2c0.1,1,1.6,0.5,1.4-0.4c-0.3-1.9,0.2-3.9,0.1-5.8
			C481.5,10.7,480,10.7,480,11.6L480,11.6z"/>
	</g>
</g>
<g id="XMLID_1938_">
	<g id="XMLID_108_">
		<path id="XMLID_112_" class="st0" d="M481.7,9.3c0-0.1,0-0.1,0-0.2c0-1-1.5-1-1.5,0c0,0.1,0,0.1,0,0.2
			C480.2,10.3,481.7,10.3,481.7,9.3L481.7,9.3z"/>
	</g>
</g>
<g id="XMLID_38_">
	<g id="XMLID_102_">
		<path id="XMLID_106_" class="st0" d="M482.8,12.3c1,0,2.1,0.1,3.1,0c1,0,1-1.5,0-1.5c-1,0-2.1,0-3.1,0
			C481.9,10.7,481.9,12.2,482.8,12.3L482.8,12.3z"/>
	</g>
</g>
<g id="XMLID_1252_">
	<g id="XMLID_96_">
		<path id="XMLID_100_" class="st0" d="M482.1,35.3c1.7-0.1,3.2-0.2,4.8,0c1.1,0.1,3.2-0.5,4.1-0.1c1.7,0.7,1,4.3,0.9,5.8
			c-0.1,1.8,0.1,4.2-0.8,5.7c-0.8,1.3-1.3,1-2.7,1c-1,0-2,0-3-0.1c-1.4,0-2.7,0.3-3.4-1.4c-0.2-0.5-0.1-1.5-0.1-2
			c-0.1-1.7-0.1-3.4,0-5.1c0-0.6-0.1-2.2,0.1-2.8c0.6-1.3,2.1-1.2,3.3-1.2c0.5,0,0.5-0.7,0-0.8c-1.2-0.1-3.1-0.6-3.8,0.7
			c-0.6,1-0.3,3-0.3,4.1c-0.1,1.6-0.1,3.1,0,4.7c0.1,1.1-0.5,3.7,0.7,4.4c0.7,0.5,2.4,0.2,3.2,0.2c1.9,0,3.7,0.1,5.6,0
			c1.4-0.1,1.8-0.2,2-1.7c0.3-3.2,0.4-6.6,0.4-9.9c0-1.8,0.1-2.3-1.8-2.3c-3-0.1-6-0.1-9,0.1C481.7,34.6,481.6,35.4,482.1,35.3
			L482.1,35.3z"/>
	</g>
</g>
<g id="XMLID_1253_">
	<g id="XMLID_90_">
		<path id="XMLID_94_" class="st0" d="M439.6,35.3c1.7-0.1,3.2-0.2,4.8,0c1.1,0.1,3.2-0.5,4.1-0.1c1.7,0.7,1,4.3,0.9,5.8
			c-0.1,1.8,0.1,4.2-0.8,5.7c-0.8,1.3-1.3,1-2.7,1c-1,0-2,0-3-0.1c-1.4,0-2.7,0.3-3.4-1.4c-0.2-0.5-0.1-1.5-0.1-2
			c-0.1-1.7-0.1-3.4,0-5.1c0-0.6-0.1-2.2,0.1-2.8c0.6-1.3,2.1-1.2,3.3-1.2c0.5,0,0.5-0.7,0-0.8c-1.2-0.1-3.1-0.6-3.8,0.7
			c-0.6,1-0.3,3-0.3,4.1c-0.1,1.6-0.1,3.1,0,4.7c0.1,1.1-0.5,3.7,0.7,4.4c0.7,0.5,2.4,0.2,3.2,0.2c1.9,0,3.7,0.1,5.6,0
			c1.4-0.1,1.8-0.2,2-1.7c0.3-3.2,0.4-6.6,0.4-9.9c0-1.8,0.1-2.3-1.8-2.3c-3-0.1-6-0.1-9,0.1C439.1,34.6,439.1,35.4,439.6,35.3
			L439.6,35.3z"/>
	</g>
</g>
<g id="XMLID_472_">
	<g id="XMLID_84_">
		<path id="XMLID_88_" class="st0" d="M439.6,63.7c1.7-0.1,3.2-0.2,4.8,0c1.1,0.1,3.2-0.5,4.1-0.1c1.7,0.7,1,4.3,0.9,5.8
			c-0.1,1.8,0.1,4.2-0.8,5.7c-0.8,1.3-1.3,1-2.7,1c-1,0-2,0-3-0.1c-1.4,0-2.7,0.3-3.4-1.4c-0.2-0.5-0.1-1.5-0.1-2
			c-0.1-1.7-0.1-3.4,0-5.1c0-0.6-0.1-2.2,0.1-2.8c0.6-1.3,2.1-1.2,3.3-1.2c0.5,0,0.5-0.7,0-0.8c-1.2-0.1-3.1-0.6-3.8,0.7
			c-0.6,1-0.3,3-0.3,4.1c-0.1,1.6-0.1,3.1,0,4.7c0.1,1.1-0.5,3.7,0.7,4.4c0.7,0.5,2.4,0.2,3.2,0.2c1.9,0,3.7,0.1,5.6,0
			c1.4-0.1,1.8-0.2,2-1.7c0.3-3.2,0.4-6.6,0.4-9.9c0-1.8,0.1-2.3-1.8-2.3c-3-0.1-6-0.1-9,0.1C439.1,63,439.1,63.7,439.6,63.7
			L439.6,63.7z"/>
	</g>
</g>
<g id="XMLID_633_">
	<g id="XMLID_78_">
		<path id="XMLID_82_" class="st0" d="M439.6,92c1.7-0.1,3.2-0.2,4.8,0c1.1,0.1,3.2-0.5,4.1-0.1c1.7,0.7,1,4.3,0.9,5.8
			c-0.1,1.8,0.1,4.2-0.8,5.7c-0.8,1.3-1.3,1-2.7,1c-1,0-2,0-3-0.1c-1.4,0-2.7,0.3-3.4-1.4c-0.2-0.5-0.1-1.5-0.1-2
			c-0.1-1.7-0.1-3.4,0-5.1c0-0.6-0.1-2.2,0.1-2.8c0.6-1.3,2.1-1.2,3.3-1.2c0.5,0,0.5-0.7,0-0.8c-1.2-0.1-3.1-0.6-3.8,0.7
			c-0.6,1-0.3,3-0.3,4.1c-0.1,1.6-0.1,3.1,0,4.7c0.1,1.1-0.5,3.7,0.7,4.4c0.7,0.5,2.4,0.2,3.2,0.2c1.9,0,3.7,0.1,5.6,0
			c1.4-0.1,1.8-0.2,2-1.7c0.3-3.2,0.4-6.6,0.4-9.9c0-1.8,0.1-2.3-1.8-2.3c-3-0.1-6-0.1-9,0.1C439.1,91.3,439.1,92.1,439.6,92
			L439.6,92z"/>
	</g>
</g>
<g id="XMLID_1206_">
	<g id="XMLID_72_">
		<path id="XMLID_76_" class="st0" d="M439.6,120.4c1.7-0.1,3.2-0.2,4.8,0c1.1,0.1,3.2-0.5,4.1-0.1c1.7,0.7,1,4.3,0.9,5.8
			c-0.1,1.8,0.1,4.2-0.8,5.7c-0.8,1.3-1.3,1-2.7,1c-1,0-2,0-3-0.1c-1.4,0-2.7,0.3-3.4-1.4c-0.2-0.5-0.1-1.5-0.1-2
			c-0.1-1.7-0.1-3.4,0-5.1c0-0.6-0.1-2.2,0.1-2.8c0.6-1.3,2.1-1.2,3.3-1.2c0.5,0,0.5-0.7,0-0.8c-1.2-0.1-3.1-0.6-3.8,0.7
			c-0.6,1-0.3,3-0.3,4.1c-0.1,1.6-0.1,3.1,0,4.7c0.1,1.1-0.5,3.7,0.7,4.4c0.7,0.5,2.4,0.2,3.2,0.2c1.9,0,3.7,0.1,5.6,0
			c1.4-0.1,1.8-0.2,2-1.7c0.3-3.2,0.4-6.6,0.4-9.9c0-1.8,0.1-2.3-1.8-2.3c-3-0.1-6-0.1-9,0.1C439.1,119.7,439.1,120.4,439.6,120.4
			L439.6,120.4z"/>
	</g>
</g>
<g id="XMLID_1311_">
	<g id="XMLID_66_">
		<path id="XMLID_70_" class="st0" d="M368.7,120.4c1.7-0.1,3.2-0.2,4.8,0c1.1,0.1,3.2-0.5,4.1-0.1c1.7,0.7,1,4.3,0.9,5.8
			c-0.1,1.8,0.1,4.2-0.8,5.7c-0.8,1.3-1.3,1-2.7,1c-1,0-2,0-3-0.1c-1.4,0-2.7,0.3-3.4-1.4c-0.2-0.5-0.1-1.5-0.1-2
			c-0.1-1.7-0.1-3.4,0-5.1c0-0.6-0.1-2.2,0.1-2.8c0.6-1.3,2.1-1.2,3.3-1.2c0.5,0,0.5-0.7,0-0.8c-1.2-0.1-3.1-0.6-3.8,0.7
			c-0.6,1-0.3,3-0.3,4.1c-0.1,1.6-0.1,3.1,0,4.7c0.1,1.1-0.5,3.7,0.7,4.4c0.7,0.5,2.4,0.2,3.2,0.2c1.9,0,3.7,0.1,5.6,0
			c1.4-0.1,1.8-0.2,2-1.7c0.3-3.2,0.4-6.6,0.4-9.9c0-1.8,0.1-2.3-1.8-2.3c-3-0.1-6-0.1-9,0.1C368.3,119.7,368.3,120.4,368.7,120.4
			L368.7,120.4z"/>
	</g>
</g>
<g id="XMLID_1334_">
	<g id="XMLID_60_">
		<path id="XMLID_64_" class="st0" d="M368.7,63.7c1.7-0.1,3.2-0.2,4.8,0c1.1,0.1,3.2-0.5,4.1-0.1c1.7,0.7,1,4.3,0.9,5.8
			c-0.1,1.8,0.1,4.2-0.8,5.7c-0.8,1.3-1.3,1-2.7,1c-1,0-2,0-3-0.1c-1.4,0-2.7,0.3-3.4-1.4c-0.2-0.5-0.1-1.5-0.1-2
			c-0.1-1.7-0.1-3.4,0-5.1c0-0.6-0.1-2.2,0.1-2.8c0.6-1.3,2.1-1.2,3.3-1.2c0.5,0,0.5-0.7,0-0.8c-1.2-0.1-3.1-0.6-3.8,0.7
			c-0.6,1-0.3,3-0.3,4.1c-0.1,1.6-0.1,3.1,0,4.7c0.1,1.1-0.5,3.7,0.7,4.4c0.7,0.5,2.4,0.2,3.2,0.2c1.9,0,3.7,0.1,5.6,0
			c1.4-0.1,1.8-0.2,2-1.7c0.3-3.2,0.4-6.6,0.4-9.9c0-1.8,0.1-2.3-1.8-2.3c-3-0.1-6-0.1-9,0.1C368.3,63,368.3,63.7,368.7,63.7
			L368.7,63.7z"/>
	</g>
</g>
<g id="XMLID_1370_">
	<g id="XMLID_54_">
		<path id="XMLID_58_" class="st0" d="M482.1,120.4c1.7-0.1,3.2-0.2,4.8,0c1.1,0.1,3.2-0.5,4.1-0.1c1.7,0.7,1,4.3,0.9,5.8
			c-0.1,1.8,0.1,4.2-0.8,5.7c-0.8,1.3-1.3,1-2.7,1c-1,0-2,0-3-0.1c-1.4,0-2.7,0.3-3.4-1.4c-0.2-0.5-0.1-1.5-0.1-2
			c-0.1-1.7-0.1-3.4,0-5.1c0-0.6-0.1-2.2,0.1-2.8c0.6-1.3,2.1-1.2,3.3-1.2c0.5,0,0.5-0.7,0-0.8c-1.2-0.1-3.1-0.6-3.8,0.7
			c-0.6,1-0.3,3-0.3,4.1c-0.1,1.6-0.1,3.1,0,4.7c0.1,1.1-0.5,3.7,0.7,4.4c0.7,0.5,2.4,0.2,3.2,0.2c1.9,0,3.7,0.1,5.6,0
			c1.4-0.1,1.8-0.2,2-1.7c0.3-3.2,0.4-6.6,0.4-9.9c0-1.8,0.1-2.3-1.8-2.3c-3-0.1-6-0.1-9,0.1C481.7,119.7,481.6,120.4,482.1,120.4
			L482.1,120.4z"/>
	</g>
</g>
</svg>
