<?xml version="1.0" encoding="utf-8"?>
<!-- Generator: Adobe Illustrator 19.0.0, SVG Export Plug-In . SVG Version: 6.00 Build 0)  -->
<svg version="1.1" id="Layer_1" xmlns="http://www.w3.org/2000/svg" xmlns:xlink="http://www.w3.org/1999/xlink" x="0px" y="0px"
	 viewBox="0 0 381.5 120.6" style="enable-background:new 0 0 381.5 120.6;" xml:space="preserve">
<style type="text/css">
	.st0{fill:none;stroke:#655852;stroke-width:1.0586;stroke-miterlimit:10;}
	.st1{fill:#655852;}
	.st2{font-family:'MyriadPro-Regular';}
	.st3{font-size:9.6751px;}
	.st4{fill:none;stroke:#655852;stroke-width:0.8796;stroke-miterlimit:10;}
	.st5{fill:none;stroke:#655852;stroke-width:1.0655;stroke-miterlimit:10;}
	.st6{font-size:12px;}
	.st7{fill:#412E27;}
	.st8{opacity:0.5;fill:none;stroke:#412E27;stroke-miterlimit:10;stroke-dasharray:3;}
</style>
<line id="XMLID_1_" class="st0" x1="18.6" y1="38.4" x2="55.4" y2="38.4"/>
<text id="XMLID_3_" transform="matrix(1 0 0 1 65.9986 41.2568)" class="st1 st2 st3">Identity</text>
<path id="XMLID_2_" class="st4" d="M105.6,46H57.6c-1.2,0-2.2-1-2.2-2.2V33.1c0-1.2,1-2.2,2.2-2.2h47.9c1.2,0,2.2,1,2.2,2.2v10.8
	C107.8,45,106.8,46,105.6,46z"/>
<line id="XMLID_10_" class="st0" x1="18.6" y1="62.5" x2="55.4" y2="62.5"/>
<text id="XMLID_9_" transform="matrix(1 0 0 1 63.127 65.6325)" class="st1 st2 st3">Negation</text>
<path id="XMLID_8_" class="st4" d="M105.8,70.4H57.9c-1.2,0-2.2-1-2.2-2.2V57.4c0-1.2,1-2.2,2.2-2.2h47.9c1.2,0,2.2,1,2.2,2.2v10.8
	C108,69.4,107,70.4,105.8,70.4z"/>
<line id="XMLID_14_" class="st0" x1="18.6" y1="86.6" x2="55.4" y2="86.6"/>
<text id="XMLID_13_" transform="matrix(1 0 0 1 59.5957 89.4457)" class="st1 st2 st3">Constant-0</text>
<path id="XMLID_12_" class="st4" d="M105.8,94.2H57.9c-1.2,0-2.2-1-2.2-2.2V81.2c0-1.2,1-2.2,2.2-2.2h47.9c1.2,0,2.2,1,2.2,2.2V92
	C108,93.2,107,94.2,105.8,94.2z"/>
<line id="XMLID_18_" class="st0" x1="18.6" y1="110.7" x2="55.4" y2="110.7"/>
<line id="XMLID_23_" class="st5" x1="107.8" y1="38.4" x2="145.1" y2="38.4"/>
<line id="XMLID_15_" class="st5" x1="107.8" y1="62.5" x2="145.1" y2="62.5"/>
<line id="XMLID_11_" class="st5" x1="107.8" y1="86.6" x2="145.1" y2="86.6"/>
<line id="XMLID_7_" class="st5" x1="107.8" y1="110.7" x2="145.1" y2="110.7"/>
<text id="XMLID_17_" transform="matrix(1 0 0 1 59.5957 113.5406)" class="st1 st2 st3">Constant-1</text>
<text id="XMLID_22_" transform="matrix(1 0 0 1 10.7342 41.9547)" class="st1 st2 st6">0</text>
<text id="XMLID_21_" transform="matrix(1 0 0 1 10.7342 66.0492)" class="st1 st2 st6">0</text>
<text id="XMLID_20_" transform="matrix(1 0 0 1 10.7342 90.1437)" class="st1 st2 st6">0</text>
<text id="XMLID_19_" transform="matrix(1 0 0 1 10.7342 114.2381)" class="st1 st2 st6">0</text>
<text id="XMLID_27_" transform="matrix(1 0 0 1 146.9835 41.9547)" class="st1 st2 st6">0</text>
<text id="XMLID_26_" transform="matrix(1 0 0 1 146.9835 66.0492)" class="st1 st2 st6">1</text>
<text id="XMLID_25_" transform="matrix(1 0 0 1 146.9835 90.1437)" class="st1 st2 st6">0</text>
<text id="XMLID_24_" transform="matrix(1 0 0 1 146.9835 114.2381)" class="st1 st2 st6">1</text>
<path id="XMLID_16_" class="st4" d="M105.8,118.3H57.9c-1.2,0-2.2-1-2.2-2.2v-10.8c0-1.2,1-2.2,2.2-2.2h47.9c1.2,0,2.2,1,2.2,2.2
	v10.8C108,117.3,107,118.3,105.8,118.3z"/>
<g id="XMLID_28_">
	<g id="XMLID_558_">
		<path id="XMLID_562_" class="st7" d="M0.2,5.8C0.3,7.1,0,8.4,0,9.6c0,1.3,0.1,2.6,0.2,4c0,0.6,1.2,0.5,1.2-0.1
			c-0.1-1.3-0.2-2.6-0.2-4c0-1.3,0.3-2.6,0.2-3.8C1.3,5.1,0.1,5.3,0.2,5.8L0.2,5.8z"/>
	</g>
</g>
<g id="XMLID_31_">
	<g id="XMLID_552_">
		<path id="XMLID_556_" class="st7" d="M3,8.3c0.1,1.8,0.1,3.5,0.1,5.3c0,0.6,1.1,0.4,1.2-0.1c0.1-1.1,0.2-4.7,1.8-4.7
			c1.6,0,1.2,4,1,4.9C7,14.2,8.2,14,8.3,13.5c0.3-1.4,0.5-5.9-1.9-5.7C5.5,7.9,4.5,8.3,4.1,9.1c-0.7,1.3-0.9,2.9-1,4.4
			c0.4,0,0.8-0.1,1.2-0.1c0-1.8-0.1-3.5-0.1-5.3C4.1,7.6,3,7.8,3,8.3L3,8.3z"/>
	</g>
</g>
<g id="XMLID_32_">
	<g id="XMLID_546_">
		<path id="XMLID_550_" class="st7" d="M9.7,8.3c-0.1,2.6,0.4,5.1,0.4,7.7c0,0.6,1.2,0.4,1.2-0.1c0-2.6-0.5-5.1-0.4-7.7
			C10.9,7.6,9.7,7.8,9.7,8.3L9.7,8.3z"/>
	</g>
</g>
<g id="XMLID_33_">
	<g id="XMLID_540_">
		<path id="XMLID_544_" class="st7" d="M10.9,9.9c0.7-0.7,1.4-1.5,2.4-1.3c0.9,0.2,1,1.2,1,2.1c0,0.6,0.1,1.7-0.3,2.2
			c-0.8,0.8-2-0.3-2.7-0.7c-0.3-0.2-1.4,0.3-0.9,0.6c1.4,0.9,2.2,1.6,3.8,0.9c1.2-0.5,1.3-1.7,1.3-2.9c0-1.3-0.3-2.9-1.8-3
			c-1.6-0.1-2.8,0.9-3.7,1.9C9.5,10.1,10.6,10.2,10.9,9.9L10.9,9.9z"/>
	</g>
</g>
<g id="XMLID_34_">
	<g id="XMLID_534_">
		<path id="XMLID_538_" class="st7" d="M16.6,8.4c0,2-0.7,6.2,2.6,5.4c2.7-0.6,3.1-4,2.9-6.3c0-0.2-1.1,0-1.2,0.3
			c-0.1,1.3-0.2,2.5-0.4,3.8c-0.1,0.9-0.2,1.8,0.7,2.4c0.3,0.2,1.2-0.3,1.1-0.4c-1-0.6-0.6-1.8-0.5-2.8c0.1-1.1,0.2-2.2,0.3-3.3
			c-0.4,0.1-0.8,0.2-1.2,0.3c0.1,1,0.1,2-0.1,3c-0.2,0.8-0.8,3.2-2.2,2.5c-0.7-0.4-0.7-1.4-0.7-2c0-1.1,0-2.1,0-3.2
			C17.7,7.9,16.6,8.1,16.6,8.4L16.6,8.4z"/>
	</g>
</g>
<g id="XMLID_35_">
	<g id="XMLID_528_">
		<path id="XMLID_532_" class="st7" d="M22.5,8.5c1.1,0.4,2.5,0.2,3.6,0c0.1,0,0.7-0.1,0.7-0.3c0-0.2-0.4-0.1-0.5-0.1
			c-0.9,0.1-2,0.3-2.9,0c-0.2-0.1-0.6,0.1-0.8,0.2C22.6,8.2,22.3,8.4,22.5,8.5L22.5,8.5z"/>
	</g>
</g>
<g id="XMLID_36_">
	<g id="XMLID_522_">
		<path id="XMLID_526_" class="st7" d="M23.5,6.6c-0.2,1.9-0.2,3.7,0.2,5.6c0.3,1.3,0.6,1.8,2,1.6c0.5-0.1,1-0.7,0.2-0.6
			c-1.8,0.3-1.3-5.7-1.2-6.7C24.8,6,23.6,6.2,23.5,6.6L23.5,6.6z"/>
	</g>
</g>
<g id="XMLID_40_">
	<g id="XMLID_516_">
		<path id="XMLID_520_" class="st7" d="M13.9,19.1c-0.3,2.2-0.5,4.4-0.4,6.6c0,0.5,1,0.4,1-0.1c-0.1-2.2,0.1-4.4,0.4-6.6
			C14.9,18.5,13.9,18.7,13.9,19.1L13.9,19.1z"/>
	</g>
</g>
<g id="XMLID_47_">
	<g id="XMLID_510_">
		<path id="XMLID_514_" class="st7" d="M11,23.1c0.9,1.1,1.8,2.2,2.4,3.5c0.1,0.3,0.7,0.1,0.8-0.1c0.9-1.7,2.6-2,4-3.2
			c0.4-0.3-0.5-0.3-0.7-0.1c-0.8,0.7-1.8,1-2.7,1.6c-0.6,0.5-1.1,1-1.4,1.7c0.3,0,0.6-0.1,0.8-0.1c-0.6-1.3-1.6-2.4-2.5-3.6
			C11.6,22.6,10.8,22.9,11,23.1L11,23.1z"/>
	</g>
</g>
<g id="XMLID_54_">
	<g id="XMLID_504_">
		<path id="XMLID_508_" class="st7" d="M61.4,0.2c-2.6-0.6-5.1,1.9-4.7,4.5c0.5,2.8,3,4.4,5.6,2.9c2.4-1.4,3.5-5.7,0.5-7.1
			C60.3-0.7,58,0.3,57,2.8c-0.1,0.2,1,0.1,1.1-0.2c0.4-0.9,0.8-1.8,1.8-1.9c0.9-0.2,1.9,0.1,2.6,0.7c1.2,1.1,1.1,3.1,0.4,4.5
			c-0.6,1.2-2.1,2.3-3.3,1.5c-0.6-0.4-1.1-1.1-1.4-1.8c-0.3-0.8-0.5-1.7-0.4-2.6c0.2-1.1,1.3-2.6,2.6-2.3
			C60.7,0.8,61.7,0.3,61.4,0.2L61.4,0.2z"/>
	</g>
</g>
<g id="XMLID_61_">
	<g id="XMLID_498_">
		<path id="XMLID_502_" class="st7" d="M65.4,2.8c0.8,2.4,0.2,5.4,0.1,7.9c0,0.5,1.1,0.2,1.2-0.2c0.1-2.5,0.7-5.6-0.1-8
			C66.4,2.1,65.3,2.4,65.4,2.8L65.4,2.8z"/>
	</g>
</g>
<g id="XMLID_68_">
	<g id="XMLID_492_">
		<path id="XMLID_496_" class="st7" d="M67.1,3.9c0.6-0.4,1.1-0.9,1.8-0.6c0.6,0.3,0.8,0.9,1,1.5c0.1,0.5,0.1,1.1,0,1.6
			c-0.1,0.5-0.2,0.6-0.7,0.9c-0.3,0.3-0.6,0.3-1,0.1c-0.4,0-0.6-0.1-0.6-0.4c0-0.4-1.2-0.1-1.2,0.3c0.1,1.3,2,1.1,2.9,0.8
			c1.2-0.4,1.7-1.4,1.8-2.6c0-1.1-0.4-2.7-1.7-3c-1.3-0.2-2.2,0.4-3.2,1.2C65.7,4.2,66.8,4.2,67.1,3.9L67.1,3.9z"/>
	</g>
</g>
<g id="XMLID_75_">
	<g id="XMLID_486_">
		<path id="XMLID_490_" class="st7" d="M72.4,5.7c1.3,0,4.6,0.5,4.6-1.5c0-1.7-1.9-2.6-3.4-1.7c-1.4,0.9-2.5,2.9-1.4,4.5
			c0.9,1.3,3,1.9,4.4,1c0.6-0.5-0.3-0.7-0.7-0.4c-0.8,0.6-2.1-0.4-2.6-1c-0.7-1-0.3-2,0.4-2.9c0.4-0.5,0.9-1,1.6-0.5
			C75.8,3.4,76,4,75.9,4.5c-0.1,0.6-0.4,0.5-1,0.5c-0.7,0-1.3,0-2,0C72.4,5,71.7,5.7,72.4,5.7L72.4,5.7z"/>
	</g>
</g>
<g id="XMLID_82_">
	<g id="XMLID_480_">
		<path id="XMLID_484_" class="st7" d="M78.1,3c0.1,1.7,0.2,3.4,0.4,5.1c0.4-0.1,0.8-0.2,1.2-0.3c-0.1-0.8-0.1-1.7,0.1-2.5
			c0.1-0.4,0.5-2.3,1.1-2.1c0.4,0.1,1.4-0.5,0.7-0.6c-2.8-0.6-3.4,3.6-3,5.5c0.1,0.4,1.2,0.1,1.2-0.3c-0.2-1.7-0.3-3.4-0.4-5.1
			C79.3,2.3,78.1,2.5,78.1,3L78.1,3z"/>
	</g>
</g>
<g id="XMLID_89_">
	<g id="XMLID_474_">
		<path id="XMLID_478_" class="st7" d="M83,3.2c0.2-0.2,1.2-0.2,1.5,0c0.4,0.2,0.6,1,0.6,1.4c0.2,1.1,0.2,2.3,0.1,3.4
			c-0.1,0.5,1.1,0.3,1.2-0.1c0.1-1.4,0.4-4.1-0.8-5.1c-0.5-0.4-1.3-0.3-1.9-0.2c-0.6,0-1.1,0.1-1.6,0.5c-0.2,0.2-0.1,0.3,0.1,0.4
			C82.5,3.5,82.9,3.4,83,3.2L83,3.2z"/>
	</g>
</g>
<g id="XMLID_96_">
	<g id="XMLID_468_">
		<path id="XMLID_472_" class="st7" d="M85.7,4.6c-1.5-0.1-3.8,0.5-3.8,2.3c0,0.8,0.4,1.2,1.2,1.3c1,0.1,1.8-0.4,2.6-0.9
			C86.4,7,85.4,6.8,85,7.1c-0.4,0.2-0.8,0.6-1.2,0.6c-0.6,0-0.7-0.5-0.7-0.9c0-0.4,0.1-0.8,0.4-1.1c0.3-0.3,1-0.4,1.4-0.4
			c0.3,0,0.6,0,0.8-0.2C85.9,4.9,86,4.7,85.7,4.6L85.7,4.6z"/>
	</g>
</g>
<g id="XMLID_103_">
	<g id="XMLID_462_">
		<path id="XMLID_466_" class="st7" d="M88.3,1.1c-0.2,1-0.2,2-0.1,3C88.2,5,88,6.7,88.6,7.5c0.5,0.7,2,1,2.4,0.2
			c0.3-0.5-0.9-0.5-1.1-0.1c-0.1,0.2-0.4-1.5-0.5-1.7c-0.1-0.6-0.1-1.2-0.2-1.9c-0.1-1.1-0.1-2,0.1-3.1C89.5,0.5,88.3,0.6,88.3,1.1
			L88.3,1.1z"/>
	</g>
</g>
<g id="XMLID_110_">
	<g id="XMLID_456_">
		<path id="XMLID_460_" class="st7" d="M87.2,3.3c1,0.1,2.1,0.1,3.1,0c0.7,0,0.9-0.9,0.1-0.8c-0.9,0-1.9,0-2.8,0
			c-0.3,0-0.6,0.1-0.8,0.4C86.8,3,86.9,3.2,87.2,3.3L87.2,3.3z"/>
	</g>
</g>
<g id="XMLID_117_">
	<g id="XMLID_450_">
		<path id="XMLID_454_" class="st7" d="M92,2.8c0,1.7,0,3.4,0,5.1c0,0.4,1.2,0.2,1.2-0.3c0-1.6,0-3.3,0-4.9C93.2,2.2,92,2.4,92,2.8
			L92,2.8z"/>
	</g>
</g>
<g id="XMLID_124_">
	<g id="XMLID_444_">
		<path id="XMLID_448_" class="st7" d="M91.9,0.4c-0.2,0.5-0.2,0.9,0.1,1.3c0.2,0.5,1.3,0,1.1-0.5c-0.1-0.2-0.1-0.5,0-0.7
			C93.3-0.1,92.1-0.1,91.9,0.4L91.9,0.4z"/>
	</g>
</g>
<g id="XMLID_131_">
	<g id="XMLID_438_">
		<path id="XMLID_442_" class="st7" d="M97.9,2.6c-1.9-0.6-4.1,1.7-3.7,3.5c0.5,2,3.6,2.7,5,1.3c0.8-0.7,1-2.1,0.9-3.1
			c-0.2-1.2-1.3-1.9-2.4-2c-2.1-0.2-4.4,1.7-3.4,3.9c0.1,0.3,1.3-0.1,1.2-0.3c-0.7-1.6,0.7-3.8,2.5-2.8c1.2,0.7,1.2,2.1,0.8,3.3
			c-0.2,0.7-0.5,1.3-1.4,1.2c-0.7-0.1-1.4-0.6-1.8-1.2c-0.4-0.6-0.4-1.3-0.1-1.9c0.2-0.4,0.8-1.7,1.4-1.5
			C97.2,3.2,98.2,2.8,97.9,2.6L97.9,2.6z"/>
	</g>
</g>
<g id="XMLID_138_">
	<g id="XMLID_432_">
		<path id="XMLID_436_" class="st7" d="M101.3,2.9c0.1,1.8,0.1,3.5-0.1,5.3c0,0.2,1.1,0,1.2-0.3c0.1-0.9,0.2-1.9,0.3-2.8
			c0-0.4,0.1-0.9,0.3-1.2c0.4-0.9,1.3-0.9,1.8-0.1c0.9,1.3,0.9,3,0.4,4.5c-0.1,0.2,1,0.1,1.1-0.2c0.6-1.6,0.6-5.7-2-5.5
			c-0.9,0.1-1.9,0.5-2.3,1.3c-0.7,1.2-0.6,3.1-0.7,4.5c0.4-0.1,0.8-0.2,1.2-0.3c0.2-1.8,0.2-3.5,0.1-5.3
			C102.5,2.4,101.3,2.6,101.3,2.9L101.3,2.9z"/>
	</g>
</g>
<g id="XMLID_152_">
	<g id="XMLID_426_">
		<path id="XMLID_430_" class="st7" d="M81.4,13.8c0.2,2.7,0,5.4-0.1,8.1c0,0.4,0.9,0.2,0.9-0.1c0.1-2.7,0.3-5.5,0.1-8.3
			C82.2,13.3,81.3,13.5,81.4,13.8L81.4,13.8z"/>
	</g>
</g>
<g id="XMLID_159_">
	<g id="XMLID_420_">
		<path id="XMLID_424_" class="st7" d="M83.2,19.3c-0.3,0.5-0.6,1-0.9,1.5c-0.2,0.3-0.5,1.1-0.8,1.3c0.2,0,0.4-0.1,0.5-0.1
			c-0.4-0.1-0.8-1-1.1-1.3c-0.4-0.5-0.8-0.9-1.3-1.3c-0.2-0.2-1.1,0.1-0.8,0.4c0.6,0.6,1.2,1.2,1.7,1.9c0.3,0.4,0.5,0.9,1.1,0.9
			c0.4,0,0.7-0.4,0.9-0.7c0.5-0.8,1-1.7,1.5-2.5C84.2,18.9,83.3,19,83.2,19.3L83.2,19.3z"/>
	</g>
</g>
<g id="XMLID_166_">
	<g id="XMLID_414_">
		<path id="XMLID_418_" class="st7" d="M136.3,5.6c-1,0-1.9,0.3-2.8,0.9c-1.2,0.9-1.2,1.6-1.2,3c0,1.3,0,2.6,1.1,3.3
			c0.8,0.5,2.1,0.8,3.1,0.7c2-0.3,3.3-2.6,3.4-4.5c0.2-2.7-2.9-4-5.2-3.6c-0.5,0.1-1,0.7-0.2,0.5c3.8-0.8,5.6,4.2,2.9,6.5
			c-1.6,1.4-3.7-0.3-3.9-1.9c-0.2-1.8-0.3-4.4,2.3-4.5C136.1,6.1,137,5.6,136.3,5.6L136.3,5.6z"/>
	</g>
</g>
<g id="XMLID_173_">
	<g id="XMLID_408_">
		<path id="XMLID_412_" class="st7" d="M141,8c0,0.9,0,1.8,0,2.8c0,0.6-0.1,1.5,0.2,2.1c0.4,0.9,2,1.2,2.8,1c1-0.2,1.5-1,1.7-2
			c0.1-0.7,0.2-1.5,0.3-2.2c0.1-0.7,0.2-1.3-0.1-2c-0.2-0.5-1.1-0.3-1.2,0.2c-0.3,2-0.2,4,0.3,6c0.1,0.5,1.3,0.2,1.2-0.3
			c-0.5-1.9-0.6-3.9-0.3-5.8c-0.4,0.1-0.8,0.1-1.2,0.2c0.4,0.8,0.1,1.5,0,2.3c-0.1,0.6,0,1.8-0.4,2.3c-0.6,0.7-1.8,0.6-2.1-0.3
			c-0.2-0.4-0.1-1.1-0.1-1.6c0-0.9,0-1.8,0-2.8C142.2,7.3,141,7.5,141,8L141,8z"/>
	</g>
</g>
<g id="XMLID_180_">
	<g id="XMLID_402_">
		<path id="XMLID_406_" class="st7" d="M147.9,6.7c0.1,1.4-1.2,9,2.4,6.9c0.7-0.4-0.3-0.7-0.8-0.5c-0.6,0.4-0.7-3.2-0.6-3.6
			c0.1-1,0.2-2,0.1-3.1C149,5.9,147.8,6.2,147.9,6.7L147.9,6.7z"/>
	</g>
</g>
<g id="XMLID_187_">
	<g id="XMLID_396_">
		<path id="XMLID_400_" class="st7" d="M150.3,7.9c-0.9,0-1.9,0-2.8,0c-0.7,0-0.9,0.9-0.1,0.8c0.9,0,1.9,0,2.8,0
			C150.9,8.8,151.1,8,150.3,7.9L150.3,7.9z"/>
	</g>
</g>
<g id="XMLID_194_">
	<g id="XMLID_390_">
		<path id="XMLID_394_" class="st7" d="M151.6,8.2c0.1,2.5,0.1,5.1,0.2,7.6c0,0.6,1.2,0.5,1.2-0.1c-0.1-2.5-0.1-5.1-0.2-7.6
			C152.7,7.5,151.6,7.6,151.6,8.2L151.6,8.2z"/>
	</g>
</g>
<g id="XMLID_201_">
	<g id="XMLID_384_">
		<path id="XMLID_388_" class="st7" d="M152.8,9.8c0.5-0.7,1.3-1.3,2.2-1c0.8,0.3,0.9,1.3,1,2c0.1,0.8,0,2-1.1,2.1
			c-0.8,0.1-1.6-0.4-2.1-1.1c-0.3-0.4-1.4,0-1.1,0.5c0.7,1.1,2.1,1.6,3.4,1.4c1.4-0.2,2.1-1.4,2-2.7c0-1.3-0.3-2.8-1.7-3.1
			c-1.4-0.3-2.9,0.4-3.6,1.5C151.5,10.1,152.5,10.3,152.8,9.8L152.8,9.8z"/>
	</g>
</g>
<g id="XMLID_208_">
	<g id="XMLID_378_">
		<path id="XMLID_382_" class="st7" d="M158.4,8.2c-0.1,1.6-0.4,5.8,2.2,5.5c2.8-0.3,3-3.7,2.9-5.8c0-0.5-1.1-0.3-1.2,0.1
			c-0.1,0.8-0.1,1.7-0.1,2.5c0,1,0.3,2,0.2,3.1c0,0.5,1.1,0.3,1.2-0.1c0.1-0.8-0.1-1.6-0.2-2.4c-0.1-1,0-2.1,0.1-3.1
			c-0.4,0-0.8,0.1-1.2,0.1c0,1.1,0,5.1-1.8,4.8c-1.5-0.3-1.1-3.7-1-4.8C159.6,7.6,158.5,7.8,158.4,8.2L158.4,8.2z"/>
	</g>
</g>
<g id="XMLID_215_">
	<g id="XMLID_369_">
		<path id="XMLID_373_" class="st7" d="M165.3,6.7c0,1.3,0,2.5,0,3.8c0,0.8-0.1,1.9,0.3,2.6c0.7,1.3,2.1,0.7,3,0
			c0.6-0.5-0.3-0.8-0.8-0.5c-1.5,1.2-1.4-2-1.4-2.6c0-1.2,0-2.4,0-3.5C166.5,6,165.3,6.2,165.3,6.7L165.3,6.7z"/>
	</g>
</g>
<g id="XMLID_222_">
	<g id="XMLID_363_">
		<path id="XMLID_367_" class="st7" d="M164.5,8.7c1.2,0.1,2.4,0.2,3.6,0.1c0.6,0,0.9-0.9,0.1-0.8c-1.1,0.1-2.2-0.1-3.3-0.1
			c-0.2,0-0.7,0.1-0.8,0.3C164.1,8.5,164.3,8.7,164.5,8.7L164.5,8.7z"/>
	</g>
</g>
<g id="XMLID_236_">
	<g id="XMLID_357_">
		<path id="XMLID_361_" class="st7" d="M149.7,19.5c-0.2,2.5-0.2,5-0.2,7.5c0,0.4,0.9,0.3,0.9-0.1c-0.1-2.5,0-5,0.2-7.5
			C150.6,19,149.8,19.2,149.7,19.5L149.7,19.5z"/>
	</g>
</g>
<g id="XMLID_243_">
	<g id="XMLID_300_">
		<path id="XMLID_354_" class="st7" d="M148,25.7c0.4,0.7,0.9,1.9,1.6,2.3c0.2,0.1,0.5,0.1,0.6-0.1c0.4-0.3,0.5-0.8,0.9-1.2
			c0.5-0.4,0.9-0.9,1.4-1.4c0.4-0.4-0.5-0.5-0.7-0.2c-0.5,0.5-1,1-1.5,1.4c-0.3,0.3-0.4,0.7-0.6,0.9c0.2,0,0.4,0,0.6-0.1
			c-0.3-0.2-0.6-0.7-0.9-1.1c-0.2-0.4-0.5-0.8-0.7-1.1C148.7,25,147.8,25.3,148,25.7L148,25.7z"/>
	</g>
</g>
<line id="XMLID_352_" class="st0" x1="231.2" y1="38.4" x2="268" y2="38.4"/>
<text id="XMLID_351_" transform="matrix(1 0 0 1 278.597 41.2568)" class="st1 st2 st3">Identity</text>
<path id="XMLID_350_" class="st4" d="M318.2,46h-47.9c-1.2,0-2.2-1-2.2-2.2V33.1c0-1.2,1-2.2,2.2-2.2h47.9c1.2,0,2.2,1,2.2,2.2v10.8
	C320.4,45,319.4,46,318.2,46z"/>
<line id="XMLID_349_" class="st0" x1="231.2" y1="62.5" x2="268" y2="62.5"/>
<text id="XMLID_348_" transform="matrix(1 0 0 1 275.7254 65.6325)" class="st1 st2 st3">Negation</text>
<path id="XMLID_347_" class="st4" d="M318.4,70.4h-47.9c-1.2,0-2.2-1-2.2-2.2V57.4c0-1.2,1-2.2,2.2-2.2h47.9c1.2,0,2.2,1,2.2,2.2
	v10.8C320.6,69.4,319.6,70.4,318.4,70.4z"/>
<line id="XMLID_346_" class="st0" x1="231.2" y1="86.6" x2="268" y2="86.6"/>
<text id="XMLID_345_" transform="matrix(1 0 0 1 272.1941 89.4457)" class="st1 st2 st3">Constant-0</text>
<path id="XMLID_344_" class="st4" d="M318.4,94.2h-47.9c-1.2,0-2.2-1-2.2-2.2V81.2c0-1.2,1-2.2,2.2-2.2h47.9c1.2,0,2.2,1,2.2,2.2V92
	C320.6,93.2,319.6,94.2,318.4,94.2z"/>
<line id="XMLID_343_" class="st0" x1="231.2" y1="110.7" x2="268" y2="110.7"/>
<line id="XMLID_342_" class="st5" x1="320.4" y1="38.4" x2="357.7" y2="38.4"/>
<line id="XMLID_341_" class="st5" x1="320.4" y1="62.5" x2="357.7" y2="62.5"/>
<line id="XMLID_340_" class="st5" x1="320.4" y1="86.6" x2="357.7" y2="86.6"/>
<line id="XMLID_339_" class="st5" x1="320.4" y1="110.7" x2="357.7" y2="110.7"/>
<text id="XMLID_338_" transform="matrix(1 0 0 1 272.1941 113.5406)" class="st1 st2 st3">Constant-1</text>
<text id="XMLID_337_" transform="matrix(1 0 0 1 223.3326 41.9547)" class="st1 st2 st6">1</text>
<text id="XMLID_336_" transform="matrix(1 0 0 1 223.3326 66.0492)" class="st1 st2 st6">1</text>
<text id="XMLID_335_" transform="matrix(1 0 0 1 223.3326 90.1437)" class="st1 st2 st6">1</text>
<text id="XMLID_334_" transform="matrix(1 0 0 1 223.3326 114.2381)" class="st1 st2 st6">1</text>
<text id="XMLID_333_" transform="matrix(1 0 0 1 359.582 41.9547)" class="st1 st2 st6">1</text>
<text id="XMLID_332_" transform="matrix(1 0 0 1 359.582 66.0492)" class="st1 st2 st6">0</text>
<text id="XMLID_331_" transform="matrix(1 0 0 1 359.582 90.1437)" class="st1 st2 st6">1</text>
<text id="XMLID_330_" transform="matrix(1 0 0 1 359.582 114.2381)" class="st1 st2 st6">1</text>
<path id="XMLID_329_" class="st4" d="M318.4,118.3h-47.9c-1.2,0-2.2-1-2.2-2.2v-10.8c0-1.2,1-2.2,2.2-2.2h47.9c1.2,0,2.2,1,2.2,2.2
	v10.8C320.6,117.3,319.6,118.3,318.4,118.3z"/>
<g id="XMLID_328_">
	<g id="XMLID_293_">
		<path id="XMLID_298_" class="st7" d="M212.8,5.8c0.1,1.3-0.2,2.6-0.2,3.8c0,1.3,0.1,2.6,0.2,4c0,0.6,1.2,0.5,1.2-0.1
			c-0.1-1.3-0.2-2.6-0.2-4c0-1.3,0.3-2.6,0.2-3.8C213.9,5.1,212.7,5.3,212.8,5.8L212.8,5.8z"/>
	</g>
</g>
<g id="XMLID_327_">
	<g id="XMLID_285_">
		<path id="XMLID_290_" class="st7" d="M215.6,8.3c0.1,1.8,0.1,3.5,0.1,5.3c0,0.6,1.1,0.4,1.2-0.1c0.1-1.1,0.2-4.7,1.8-4.7
			c1.6,0,1.2,4,1,4.9c-0.1,0.6,1.1,0.4,1.2-0.1c0.3-1.4,0.5-5.9-1.9-5.7c-0.9,0.1-1.9,0.5-2.3,1.3c-0.7,1.3-0.9,2.9-1,4.4
			c0.4,0,0.8-0.1,1.2-0.1c0-1.8-0.1-3.5-0.1-5.3C216.7,7.6,215.6,7.8,215.6,8.3L215.6,8.3z"/>
	</g>
</g>
<g id="XMLID_326_">
	<g id="XMLID_278_">
		<path id="XMLID_282_" class="st7" d="M222.3,8.3c-0.1,2.6,0.4,5.1,0.4,7.7c0,0.6,1.2,0.4,1.2-0.1c0-2.6-0.5-5.1-0.4-7.7
			C223.5,7.6,222.3,7.8,222.3,8.3L222.3,8.3z"/>
	</g>
</g>
<g id="XMLID_325_">
	<g id="XMLID_271_">
		<path id="XMLID_275_" class="st7" d="M223.5,9.9c0.7-0.7,1.4-1.5,2.4-1.3c0.9,0.2,1,1.2,1,2.1c0,0.6,0.1,1.7-0.3,2.2
			c-0.8,0.8-2-0.3-2.7-0.7c-0.3-0.2-1.4,0.3-0.9,0.6c1.4,0.9,2.2,1.6,3.8,0.9c1.2-0.5,1.3-1.7,1.3-2.9c0-1.3-0.3-2.9-1.8-3
			c-1.6-0.1-2.8,0.9-3.7,1.9C222.1,10.1,223.2,10.2,223.5,9.9L223.5,9.9z"/>
	</g>
</g>
<g id="XMLID_324_">
	<g id="XMLID_265_">
		<path id="XMLID_269_" class="st7" d="M229.2,8.4c0,2-0.7,6.2,2.6,5.4c2.7-0.6,3.1-4,2.9-6.3c0-0.2-1.1,0-1.2,0.3
			c-0.1,1.3-0.2,2.5-0.4,3.8c-0.1,0.9-0.2,1.8,0.7,2.4c0.3,0.2,1.2-0.3,1.1-0.4c-1-0.6-0.6-1.8-0.5-2.8c0.1-1.1,0.2-2.2,0.3-3.3
			c-0.4,0.1-0.8,0.2-1.2,0.3c0.1,1,0.1,2-0.1,3c-0.2,0.8-0.8,3.2-2.2,2.5c-0.7-0.4-0.7-1.4-0.7-2c0-1.1,0-2.1,0-3.2
			C230.3,7.9,229.2,8.1,229.2,8.4L229.2,8.4z"/>
	</g>
</g>
<g id="XMLID_323_">
	<g id="XMLID_259_">
		<path id="XMLID_263_" class="st7" d="M235.1,8.5c1.1,0.4,2.5,0.2,3.6,0c0.1,0,0.7-0.1,0.7-0.3c0-0.2-0.4-0.1-0.5-0.1
			c-0.9,0.1-2,0.3-2.9,0c-0.2-0.1-0.6,0.1-0.8,0.2C235.2,8.2,234.9,8.4,235.1,8.5L235.1,8.5z"/>
	</g>
</g>
<g id="XMLID_322_">
	<g id="XMLID_253_">
		<path id="XMLID_257_" class="st7" d="M236.1,6.6c-0.2,1.9-0.2,3.7,0.2,5.6c0.3,1.3,0.6,1.8,2,1.6c0.5-0.1,1-0.7,0.2-0.6
			c-1.8,0.3-1.3-5.7-1.2-6.7C237.4,6,236.2,6.2,236.1,6.6L236.1,6.6z"/>
	</g>
</g>
<g id="XMLID_320_">
	<g id="XMLID_247_">
		<path id="XMLID_251_" class="st7" d="M226.5,19.1c-0.3,2.2-0.5,4.4-0.4,6.6c0,0.5,1,0.4,1-0.1c-0.1-2.2,0.1-4.4,0.4-6.6
			C227.5,18.5,226.5,18.7,226.5,19.1L226.5,19.1z"/>
	</g>
</g>
<g id="XMLID_319_">
	<g id="XMLID_240_">
		<path id="XMLID_245_" class="st7" d="M223.6,23.1c0.9,1.1,1.8,2.2,2.4,3.5c0.1,0.3,0.7,0.1,0.8-0.1c0.9-1.7,2.6-2,4-3.2
			c0.4-0.3-0.5-0.3-0.7-0.1c-0.8,0.7-1.8,1-2.7,1.6c-0.6,0.5-1.1,1-1.4,1.7c0.3,0,0.6-0.1,0.8-0.1c-0.6-1.3-1.6-2.4-2.5-3.6
			C224.2,22.6,223.4,22.9,223.6,23.1L223.6,23.1z"/>
	</g>
</g>
<g id="XMLID_318_">
	<g id="XMLID_233_">
		<path id="XMLID_238_" class="st7" d="M274,0.2c-2.6-0.6-5.1,1.9-4.7,4.5c0.5,2.8,3,4.4,5.6,2.9c2.4-1.4,3.5-5.7,0.5-7.1
			c-2.5-1.2-4.8-0.2-5.9,2.3c-0.1,0.2,1,0.1,1.1-0.2c0.4-0.9,0.8-1.8,1.8-1.9c0.9-0.2,1.9,0.1,2.6,0.7c1.2,1.1,1.1,3.1,0.4,4.5
			c-0.6,1.2-2.1,2.3-3.3,1.5c-0.6-0.4-1.1-1.1-1.4-1.8c-0.3-0.8-0.5-1.7-0.4-2.6c0.2-1.1,1.3-2.6,2.6-2.3
			C273.3,0.8,274.3,0.3,274,0.2L274,0.2z"/>
	</g>
</g>
<g id="XMLID_317_">
	<g id="XMLID_227_">
		<path id="XMLID_231_" class="st7" d="M278,2.8c0.8,2.4,0.2,5.4,0.1,7.9c0,0.5,1.1,0.2,1.2-0.2c0.1-2.5,0.7-5.6-0.1-8
			C279,2.1,277.9,2.4,278,2.8L278,2.8z"/>
	</g>
</g>
<g id="XMLID_316_">
	<g id="XMLID_220_">
		<path id="XMLID_225_" class="st7" d="M279.7,3.9c0.6-0.4,1.1-0.9,1.8-0.6c0.6,0.3,0.8,0.9,1,1.5c0.1,0.5,0.1,1.1,0,1.6
			c-0.1,0.5-0.2,0.6-0.7,0.9c-0.3,0.3-0.6,0.3-1,0.1c-0.4,0-0.6-0.1-0.6-0.4c0-0.4-1.2-0.1-1.2,0.3c0.1,1.3,2,1.1,2.9,0.8
			c1.2-0.4,1.7-1.4,1.8-2.6c0-1.1-0.4-2.7-1.7-3c-1.3-0.2-2.2,0.4-3.2,1.2C278.3,4.2,279.4,4.2,279.7,3.9L279.7,3.9z"/>
	</g>
</g>
<g id="XMLID_315_">
	<g id="XMLID_213_">
		<path id="XMLID_218_" class="st7" d="M285,5.7c1.3,0,4.6,0.5,4.6-1.5c0-1.7-1.9-2.6-3.4-1.7c-1.4,0.9-2.5,2.9-1.4,4.5
			c0.9,1.3,3,1.9,4.4,1c0.6-0.5-0.3-0.7-0.7-0.4c-0.8,0.6-2.1-0.4-2.6-1c-0.7-1-0.3-2,0.4-2.9c0.4-0.5,0.9-1,1.6-0.5
			c0.4,0.3,0.6,0.9,0.5,1.4c-0.1,0.6-0.4,0.5-1,0.5c-0.7,0-1.3,0-2,0C285,5,284.3,5.7,285,5.7L285,5.7z"/>
	</g>
</g>
<g id="XMLID_314_">
	<g id="XMLID_206_">
		<path id="XMLID_211_" class="st7" d="M290.7,3c0.1,1.7,0.2,3.4,0.4,5.1c0.4-0.1,0.8-0.2,1.2-0.3c-0.1-0.8-0.1-1.7,0.1-2.5
			c0.1-0.4,0.5-2.3,1.1-2.1c0.4,0.1,1.4-0.5,0.7-0.6c-2.8-0.6-3.4,3.6-3,5.5c0.1,0.4,1.2,0.1,1.2-0.3c-0.2-1.7-0.3-3.4-0.4-5.1
			C291.9,2.3,290.7,2.5,290.7,3L290.7,3z"/>
	</g>
</g>
<g id="XMLID_313_">
	<g id="XMLID_199_">
		<path id="XMLID_204_" class="st7" d="M295.6,3.2c0.2-0.2,1.2-0.2,1.5,0c0.4,0.2,0.6,1,0.6,1.4c0.2,1.1,0.2,2.3,0.1,3.4
			c-0.1,0.5,1.1,0.3,1.2-0.1c0.1-1.4,0.4-4.1-0.8-5.1c-0.5-0.4-1.3-0.3-1.9-0.2c-0.6,0-1.1,0.1-1.6,0.5c-0.2,0.2-0.1,0.3,0.1,0.4
			C295.1,3.5,295.5,3.4,295.6,3.2L295.6,3.2z"/>
	</g>
</g>
<g id="XMLID_312_">
	<g id="XMLID_192_">
		<path id="XMLID_197_" class="st7" d="M298.3,4.6c-1.5-0.1-3.8,0.5-3.8,2.3c0,0.8,0.4,1.2,1.2,1.3c1,0.1,1.8-0.4,2.6-0.9
			c0.7-0.4-0.4-0.5-0.7-0.3c-0.4,0.2-0.8,0.6-1.2,0.6c-0.6,0-0.7-0.5-0.7-0.9c0-0.4,0.1-0.8,0.4-1.1c0.3-0.3,1-0.4,1.4-0.4
			c0.3,0,0.6,0,0.8-0.2C298.5,4.9,298.6,4.7,298.3,4.6L298.3,4.6z"/>
	</g>
</g>
<g id="XMLID_311_">
	<g id="XMLID_185_">
		<path id="XMLID_190_" class="st7" d="M300.9,1.1c-0.2,1-0.2,2-0.1,3c0.1,0.9-0.1,2.6,0.5,3.4c0.5,0.7,2,1,2.4,0.2
			c0.3-0.5-0.9-0.5-1.1-0.1c-0.1,0.2-0.4-1.5-0.5-1.7c-0.1-0.6-0.1-1.2-0.2-1.9c-0.1-1.1-0.1-2,0.1-3.1
			C302.1,0.5,300.9,0.6,300.9,1.1L300.9,1.1z"/>
	</g>
</g>
<g id="XMLID_310_">
	<g id="XMLID_178_">
		<path id="XMLID_183_" class="st7" d="M299.8,3.3c1,0.1,2.1,0.1,3.1,0c0.7,0,0.9-0.9,0.1-0.8c-0.9,0-1.9,0-2.8,0
			c-0.3,0-0.6,0.1-0.8,0.4C299.3,3,299.5,3.2,299.8,3.3L299.8,3.3z"/>
	</g>
</g>
<g id="XMLID_309_">
	<g id="XMLID_171_">
		<path id="XMLID_176_" class="st7" d="M304.6,2.8c0,1.7,0,3.4,0,5.1c0,0.4,1.2,0.2,1.2-0.3c0-1.6,0-3.3,0-4.9
			C305.8,2.2,304.6,2.4,304.6,2.8L304.6,2.8z"/>
	</g>
</g>
<g id="XMLID_308_">
	<g id="XMLID_164_">
		<path id="XMLID_169_" class="st7" d="M304.5,0.4c-0.2,0.5-0.2,0.9,0.1,1.3c0.2,0.5,1.3,0,1.1-0.5c-0.1-0.2-0.1-0.5,0-0.7
			C305.9-0.1,304.7-0.1,304.5,0.4L304.5,0.4z"/>
	</g>
</g>
<g id="XMLID_307_">
	<g id="XMLID_157_">
		<path id="XMLID_162_" class="st7" d="M310.5,2.6c-1.9-0.6-4.1,1.7-3.7,3.5c0.5,2,3.6,2.7,5,1.3c0.8-0.7,1-2.1,0.9-3.1
			c-0.2-1.2-1.3-1.9-2.4-2c-2.1-0.2-4.4,1.7-3.4,3.9c0.1,0.3,1.3-0.1,1.2-0.3c-0.7-1.6,0.7-3.8,2.5-2.8c1.2,0.7,1.2,2.1,0.8,3.3
			c-0.2,0.7-0.5,1.3-1.4,1.2c-0.7-0.1-1.4-0.6-1.8-1.2c-0.4-0.6-0.4-1.3-0.1-1.9c0.2-0.4,0.8-1.7,1.4-1.5
			C309.8,3.2,310.8,2.8,310.5,2.6L310.5,2.6z"/>
	</g>
</g>
<g id="XMLID_306_">
	<g id="XMLID_150_">
		<path id="XMLID_155_" class="st7" d="M313.9,2.9c0.1,1.8,0.1,3.5-0.1,5.3c0,0.2,1.1,0,1.2-0.3c0.1-0.9,0.2-1.9,0.3-2.8
			c0-0.4,0.1-0.9,0.3-1.2c0.4-0.9,1.3-0.9,1.8-0.1c0.9,1.3,0.9,3,0.4,4.5c-0.1,0.2,1,0.1,1.1-0.2c0.6-1.6,0.6-5.7-2-5.5
			C316,2.5,315,3,314.6,3.7c-0.7,1.2-0.6,3.1-0.7,4.5c0.4-0.1,0.8-0.2,1.2-0.3c0.2-1.8,0.2-3.5,0.1-5.3
			C315.1,2.4,313.9,2.6,313.9,2.9L313.9,2.9z"/>
	</g>
</g>
<g id="XMLID_304_">
	<g id="XMLID_144_">
		<path id="XMLID_148_" class="st7" d="M294,13.8c0.2,2.7,0,5.4-0.1,8.1c0,0.4,0.9,0.2,0.9-0.1c0.1-2.7,0.3-5.5,0.1-8.3
			C294.8,13.3,293.9,13.5,294,13.8L294,13.8z"/>
	</g>
</g>
<g id="XMLID_303_">
	<g id="XMLID_134_">
		<path id="XMLID_142_" class="st7" d="M295.8,19.3c-0.3,0.5-0.6,1-0.9,1.5c-0.2,0.3-0.5,1.1-0.8,1.3c0.2,0,0.4-0.1,0.5-0.1
			c-0.4-0.1-0.8-1-1.1-1.3c-0.4-0.5-0.8-0.9-1.3-1.3c-0.2-0.2-1.1,0.1-0.8,0.4c0.6,0.6,1.2,1.2,1.7,1.9c0.3,0.4,0.5,0.9,1.1,0.9
			c0.4,0,0.7-0.4,0.9-0.7c0.5-0.8,1-1.7,1.5-2.5C296.8,18.9,295.9,19,295.8,19.3L295.8,19.3z"/>
	</g>
</g>
<g id="XMLID_302_">
	<g id="XMLID_127_">
		<path id="XMLID_132_" class="st7" d="M348.9,5.6c-1,0-1.9,0.3-2.8,0.9c-1.2,0.9-1.2,1.6-1.2,3c0,1.3,0,2.6,1.1,3.3
			c0.8,0.5,2.1,0.8,3.1,0.7c2-0.3,3.3-2.6,3.4-4.5c0.2-2.7-2.9-4-5.2-3.6c-0.5,0.1-1,0.7-0.2,0.5c3.8-0.8,5.6,4.2,2.9,6.5
			c-1.6,1.4-3.7-0.3-3.9-1.9c-0.2-1.8-0.3-4.4,2.3-4.5C348.7,6.1,349.6,5.6,348.9,5.6L348.9,5.6z"/>
	</g>
</g>
<g id="XMLID_301_">
	<g id="XMLID_120_">
		<path id="XMLID_125_" class="st7" d="M353.6,8c0,0.9,0,1.8,0,2.8c0,0.6-0.1,1.5,0.2,2.1c0.4,0.9,2,1.2,2.8,1c1-0.2,1.5-1,1.7-2
			c0.1-0.7,0.2-1.5,0.3-2.2c0.1-0.7,0.2-1.3-0.1-2c-0.2-0.5-1.1-0.3-1.2,0.2c-0.3,2-0.2,4,0.3,6c0.1,0.5,1.3,0.2,1.2-0.3
			c-0.5-1.9-0.6-3.9-0.3-5.8c-0.4,0.1-0.8,0.1-1.2,0.2c0.4,0.8,0.1,1.5,0,2.3c-0.1,0.6,0,1.8-0.4,2.3c-0.6,0.7-1.8,0.6-2.1-0.3
			c-0.2-0.4-0.1-1.1-0.1-1.6c0-0.9,0-1.8,0-2.8C354.8,7.3,353.6,7.5,353.6,8L353.6,8z"/>
	</g>
</g>
<g id="XMLID_295_">
	<g id="XMLID_113_">
		<path id="XMLID_118_" class="st7" d="M360.5,6.7c0.1,1.4-1.2,9,2.4,6.9c0.7-0.4-0.3-0.7-0.8-0.5c-0.6,0.4-0.7-3.2-0.6-3.6
			c0.1-1,0.2-2,0.1-3.1C361.6,5.9,360.4,6.2,360.5,6.7L360.5,6.7z"/>
	</g>
</g>
<g id="XMLID_289_">
	<g id="XMLID_106_">
		<path id="XMLID_111_" class="st7" d="M362.9,7.9c-0.9,0-1.9,0-2.8,0c-0.7,0-0.9,0.9-0.1,0.8c0.9,0,1.9,0,2.8,0
			C363.5,8.8,363.7,8,362.9,7.9L362.9,7.9z"/>
	</g>
</g>
<g id="XMLID_283_">
	<g id="XMLID_99_">
		<path id="XMLID_104_" class="st7" d="M364.2,8.2c0.1,2.5,0.1,5.1,0.2,7.6c0,0.6,1.2,0.5,1.2-0.1c-0.1-2.5-0.1-5.1-0.2-7.6
			C365.3,7.5,364.2,7.6,364.2,8.2L364.2,8.2z"/>
	</g>
</g>
<g id="XMLID_277_">
	<g id="XMLID_92_">
		<path id="XMLID_97_" class="st7" d="M365.4,9.8c0.5-0.7,1.3-1.3,2.2-1c0.8,0.3,0.9,1.3,1,2c0.1,0.8,0,2-1.1,2.1
			c-0.8,0.1-1.6-0.4-2.1-1.1c-0.3-0.4-1.4,0-1.1,0.5c0.7,1.1,2.1,1.6,3.4,1.4c1.4-0.2,2.1-1.4,2-2.7c0-1.3-0.3-2.8-1.7-3.1
			c-1.4-0.3-2.9,0.4-3.6,1.5C364.1,10.1,365.1,10.3,365.4,9.8L365.4,9.8z"/>
	</g>
</g>
<g id="XMLID_37_">
	<g id="XMLID_85_">
		<path id="XMLID_90_" class="st7" d="M371,8.2c-0.1,1.6-0.4,5.8,2.2,5.5c2.8-0.3,3-3.7,2.9-5.8c0-0.5-1.1-0.3-1.2,0.1
			c-0.1,0.8-0.1,1.7-0.1,2.5c0,1,0.3,2,0.2,3.1c0,0.5,1.1,0.3,1.2-0.1c0.1-0.8-0.1-1.6-0.2-2.4c-0.1-1,0-2.1,0.1-3.1
			C375.8,8,375.4,8,375,8c0,1.1,0,5.1-1.8,4.8c-1.5-0.3-1.1-3.7-1-4.8C372.2,7.6,371.1,7.8,371,8.2L371,8.2z"/>
	</g>
</g>
<g id="XMLID_30_">
	<g id="XMLID_78_">
		<path id="XMLID_83_" class="st7" d="M377.9,6.7c0,1.3,0,2.5,0,3.8c0,0.8-0.1,1.9,0.3,2.6c0.7,1.3,2.1,0.7,3,0
			c0.6-0.5-0.3-0.8-0.8-0.5c-1.5,1.2-1.4-2-1.4-2.6c0-1.2,0-2.4,0-3.5C379.1,6,377.9,6.2,377.9,6.7L377.9,6.7z"/>
	</g>
</g>
<g id="XMLID_29_">
	<g id="XMLID_71_">
		<path id="XMLID_76_" class="st7" d="M377.1,8.7c1.2,0.1,2.4,0.2,3.6,0.1c0.6,0,0.9-0.9,0.1-0.8c-1.1,0.1-2.2-0.1-3.3-0.1
			c-0.2,0-0.7,0.1-0.8,0.3C376.7,8.5,376.9,8.7,377.1,8.7L377.1,8.7z"/>
	</g>
</g>
<g id="XMLID_5_">
	<g id="XMLID_64_">
		<path id="XMLID_69_" class="st7" d="M362.3,19.5c-0.2,2.5-0.2,5-0.2,7.5c0,0.4,0.9,0.3,0.9-0.1c-0.1-2.5,0-5,0.2-7.5
			C363.2,19,362.3,19.2,362.3,19.5L362.3,19.5z"/>
	</g>
</g>
<g id="XMLID_4_">
	<g id="XMLID_57_">
		<path id="XMLID_62_" class="st7" d="M360.6,25.7c0.4,0.7,0.9,1.9,1.6,2.3c0.2,0.1,0.5,0.1,0.6-0.1c0.4-0.3,0.5-0.8,0.9-1.2
			c0.5-0.4,0.9-0.9,1.4-1.4c0.4-0.4-0.5-0.5-0.7-0.2c-0.5,0.5-1,1-1.5,1.4c-0.3,0.3-0.4,0.7-0.6,0.9c0.2,0,0.4,0,0.6-0.1
			c-0.3-0.2-0.6-0.7-0.9-1.1c-0.2-0.4-0.5-0.8-0.7-1.1C361.3,25,360.4,25.3,360.6,25.7L360.6,25.7z"/>
	</g>
</g>
<line id="XMLID_356_" class="st8" x1="190.2" y1="0.6" x2="190.2" y2="120.6"/>
</svg>
