<?xml version="1.0" encoding="utf-8"?>
<!-- Generator: Adobe Illustrator 19.0.0, SVG Export Plug-In . SVG Version: 6.00 Build 0)  -->
<svg version="1.1" id="Layer_1" xmlns="http://www.w3.org/2000/svg" xmlns:xlink="http://www.w3.org/1999/xlink" x="0px" y="0px"
	 viewBox="0 0 595.3 31.9" style="enable-background:new 0 0 595.3 31.9;" xml:space="preserve">
<style type="text/css">
	.st0{fill:#161616;}
</style>
<g id="XMLID_1543_">
	<g id="XMLID_1852_">
		<path id="XMLID_1857_" class="st0" d="M353.2,4.9c-1.8,0-3.6,0.1-5.4,0.1c-0.8,0-0.8,1.3,0,1.3c1.8,0,3.6-0.1,5.4-0.1
			C354,6.2,354,4.9,353.2,4.9L353.2,4.9z"/>
	</g>
</g>
<g id="XMLID_1536_">
	<g id="XMLID_1845_">
		<path id="XMLID_1850_" class="st0" d="M358.7,4.3c-2.5,0.8-3.7,3.3-3.9,5.9c-0.1,2.8,1.5,4.4,3.8,5.5c0.7,0.3,1.4-0.7,0.6-1.1
			c-1.5-0.7-2.8-1.4-3.1-3.2c-0.5-2.2,0.7-5.2,2.9-5.9C359.8,5.3,359.5,4.1,358.7,4.3L358.7,4.3z"/>
	</g>
</g>
<g id="XMLID_1528_">
	<g id="XMLID_1838_">
		<path id="XMLID_1843_" class="st0" d="M373.4,5.4c3.9,1.6,3.8,7.8,0,9.4c-0.7,0.3-0.4,1.5,0.3,1.2c2.5-1,3.7-3,3.8-5.7
			c0-2.4-1.2-5-3.5-6C373.3,4,372.6,5.1,373.4,5.4L373.4,5.4z"/>
	</g>
</g>
<g id="XMLID_21_">
	<g id="XMLID_1793_">
		<path id="XMLID_1799_" class="st0" d="M355.4,0.6c-7.6-2.6-5,11.5-6.7,14.5c-0.4,0.7,0.7,1.3,1.1,0.6c1.6-2.9-0.2-15.9,5.3-14
			C355.8,2.1,356.1,0.9,355.4,0.6L355.4,0.6z"/>
	</g>
</g>
<g id="XMLID_1500_">
	<g id="XMLID_1831_">
		<path id="XMLID_1836_" class="st0" d="M377.7,20.4c-0.4-0.9-1.3-1.4-2.2-1.9c-0.7-0.4-1.3,0.7-0.6,1.1c0.7,0.4,1.4,0.7,1.7,1.5
			C377,21.7,378.1,21.1,377.7,20.4L377.7,20.4z"/>
	</g>
</g>
<g id="XMLID_44_">
	<g id="XMLID_1824_">
		<path id="XMLID_1829_" class="st0" d="M376.6,20.6c-0.4,0.6-1,1-1.6,1.3c-0.7,0.4-0.1,1.5,0.6,1.1c0.8-0.5,1.5-1.1,2-1.8
			c0.2-0.3,0-0.7-0.2-0.9C377.2,20.1,376.9,20.3,376.6,20.6L376.6,20.6z"/>
	</g>
</g>
<g id="XMLID_1592_">
	<g id="XMLID_1817_">
		<path id="XMLID_1822_" class="st0" d="M263.2,20.1c-0.4-0.9-1.3-1.4-2.2-1.9c-0.7-0.4-1.3,0.7-0.6,1.1c0.7,0.4,1.4,0.7,1.7,1.5
			C262.5,21.5,263.5,20.8,263.2,20.1L263.2,20.1z"/>
	</g>
</g>
<g id="XMLID_1517_">
	<g id="XMLID_1809_">
		<path id="XMLID_1815_" class="st0" d="M262.1,20.3c-0.4,0.6-1,1-1.6,1.3c-0.7,0.4-0.1,1.5,0.6,1.1c0.8-0.5,1.5-1.1,2-1.8
			c0.2-0.3,0-0.7-0.2-0.9C262.6,19.9,262.3,20,262.1,20.3L262.1,20.3z"/>
	</g>
</g>
<g id="XMLID_17_">
	<g id="XMLID_1801_">
		<path id="XMLID_1807_" class="st0" d="M297.1,10C292.1,9.9,287,9.8,282,9.7c-4.9-0.1-10.3-0.8-15.2-0.2c-6.3,0.8-4.4,7.1-4.5,12.3
			c-0.1,6.9,0.2,9.3,7.6,9.6c8.8,0.3,17.7,0.1,26.5,0c10-0.1,20-0.1,30.1-0.3c1.7,0,3.3,0.3,4.5-1.2c1.7-2.2,0.8-7.4,0.8-9.9
			c0-2.5,0.8-7.2-0.8-9.4c-1.1-1.4-3.5-1.1-4.9-1.1c-10.1-0.3-20.3,0-30.5,0.3c-0.8,0-0.8,1.3,0,1.3c6.7-0.2,13.3-0.3,20-0.4
			c3.2,0,6.3,0,9.5,0c1.8,0,4.2-0.1,5.2,1.9c0.5,1,0.2,4.4,0.2,5.5c0,2.2,1,7.4-0.2,9.2c-2.2,3.5-8.2,2.5-11.6,2.5
			c-6.8,0.1-13.6,0.1-20.4,0.2c-5.7,0-11.3,0.1-17-0.1c-3.2-0.1-6.4,0.1-9.6,0.2c-2.9,0-3.4,0-5.9-2.3c-2.8-2.6-2.3-2.7-2.2-6.1
			c0-3.8-1-9.2,3.2-11.1c2-0.9,7.3,0.1,9.5,0.1c6.9,0.1,13.9,0.2,20.8,0.3C297.9,11.2,297.9,10,297.1,10L297.1,10z"/>
	</g>
</g>
<g id="XMLID_35_">
	<g id="XMLID_32_">
		<g id="XMLID_46_">
			<g id="XMLID_1785_">
				<path id="XMLID_1791_" class="st0" d="M229.4,8.1c0.6-0.1,1.1,1.6,1.3,2c0.3,0.7,0.7,1.3,1.2,1.9c0.7,1,1.4,1.8,2.7,1.6
					c0.8-0.2,0.5-1.4-0.3-1.2c-1.1,0.2-2.5-3-2.9-3.8c-0.4-1-1.1-1.9-2.3-1.6C228.2,7.1,228.6,8.3,229.4,8.1L229.4,8.1z"/>
			</g>
		</g>
		<g id="XMLID_34_">
			<g id="XMLID_1777_">
				<path id="XMLID_1782_" class="st0" d="M229.6,13.4c1.4-1.9,2.9-3.8,4.5-5.5c0.5-0.6-0.3-1.5-0.9-0.9c-1.7,1.8-3.3,3.8-4.7,5.8
					C228,13.4,229.1,14,229.6,13.4L229.6,13.4z"/>
			</g>
		</g>
	</g>
	<g id="XMLID_40_">
		<g id="XMLID_1768_">
			<path id="XMLID_1774_" class="st0" d="M225.8,4.9c-0.4,3.5-0.2,7.1,0,10.6c0,0.8,1.3,0.8,1.3,0c-0.2-3.5-0.4-7.1,0-10.6
				C227.2,4.1,225.9,4.1,225.8,4.9L225.8,4.9z"/>
		</g>
	</g>
	<g id="XMLID_42_">
		<g id="XMLID_1760_">
			<path id="XMLID_1766_" class="st0" d="M235.9,15.9c1.2-1.1,2-2.5,3.2-3.6c0.6-0.6,2-1.3,2-2.2c0.1-0.8-1-1.5-1.4-2
				c-1.2-1.3-2.5-2.4-3.9-3.5c-0.6-0.5-1.5,0.4-0.9,0.9c0.9,0.7,1.8,1.5,2.6,2.3c0.3,0.3,2.3,1.9,2.2,2.3c0,0.5-1.9,1.8-2.3,2.2
				c-0.9,0.9-1.6,2-2.5,2.9C234.5,15.6,235.4,16.5,235.9,15.9L235.9,15.9z"/>
		</g>
	</g>
</g>
<g id="XMLID_1484_">
	<g id="XMLID_1530_">
		<g id="XMLID_1559_">
			<g id="XMLID_1752_">
				<path id="XMLID_1758_" class="st0" d="M364,8c0.6-0.1,1.1,1.6,1.3,2c0.3,0.7,0.7,1.3,1.2,1.9c0.7,1,1.4,1.8,2.7,1.6
					c0.8-0.2,0.5-1.4-0.3-1.2c-1.1,0.2-2.5-3-2.9-3.8c-0.4-1-1.1-1.9-2.3-1.6C362.9,7,363.2,8.2,364,8L364,8z"/>
			</g>
		</g>
		<g id="XMLID_1531_">
			<g id="XMLID_1744_">
				<path id="XMLID_1750_" class="st0" d="M364.2,13.3c1.4-1.9,2.9-3.8,4.5-5.5c0.5-0.6-0.3-1.5-0.9-0.9c-1.7,1.8-3.3,3.8-4.7,5.8
					C362.7,13.3,363.7,13.9,364.2,13.3L364.2,13.3z"/>
			</g>
		</g>
	</g>
	<g id="XMLID_1521_">
		<g id="XMLID_1736_">
			<path id="XMLID_1742_" class="st0" d="M360.5,4.8c-0.4,3.5-0.2,7.1,0,10.6c0,0.8,1.3,0.8,1.3,0c-0.2-3.5-0.4-7.1,0-10.6
				C361.8,4,360.6,4,360.5,4.8L360.5,4.8z"/>
		</g>
	</g>
	<g id="XMLID_1491_">
		<g id="XMLID_1711_">
			<path id="XMLID_1717_" class="st0" d="M370.6,15.8c1.2-1.1,2-2.5,3.2-3.6c0.6-0.6,2-1.3,2-2.2c0.1-0.8-1-1.5-1.4-2
				c-1.2-1.3-2.5-2.4-3.9-3.5c-0.6-0.5-1.5,0.4-0.9,0.9c0.9,0.7,1.8,1.5,2.6,2.3c0.3,0.3,2.3,1.9,2.2,2.3c0,0.5-1.9,1.8-2.3,2.2
				c-0.9,0.9-1.6,2-2.5,2.9C369.1,15.5,370,16.3,370.6,15.8L370.6,15.8z"/>
		</g>
	</g>
</g>
<g id="XMLID_19_">
	<g id="XMLID_1728_">
		<path id="XMLID_1733_" class="st0" d="M331.5,21.1c15.1-0.2,30.3,0.6,45.4,0.1c0.8,0,0.8-1.3,0-1.3c-15.1,0.5-30.2-0.3-45.4-0.1
			C330.7,19.9,330.7,21.1,331.5,21.1L331.5,21.1z"/>
	</g>
</g>
<g id="XMLID_20_">
	<g id="XMLID_1719_">
		<path id="XMLID_1725_" class="st0" d="M226.2,21.2c12.1-0.1,24.3,0.5,36.4,0.1c0.8,0,0.8-1.3,0-1.3c-12.1,0.4-24.3-0.2-36.4-0.1
			C225.4,19.9,225.4,21.2,226.2,21.2L226.2,21.2z"/>
	</g>
</g>
<g id="XMLID_1600_">
	<g id="XMLID_1703_">
		<path id="XMLID_1709_" class="st0" d="M188.1,15.7c0.4,2.8-0.1,5.9-0.1,8.7c0,0.8,1.2,0.8,1.3,0c0.1-3,0.5-6.1,0.1-9
			C189.2,14.6,188,14.9,188.1,15.7L188.1,15.7z"/>
	</g>
</g>
<g id="XMLID_1601_">
	<g id="XMLID_1695_">
		<path id="XMLID_1701_" class="st0" d="M191.2,18.3c-0.1,2.1-0.1,4.1-0.1,6.2c0,0.8,1.3,0.8,1.3,0c0-2.1,0-4.1,0.1-6.2
			C192.5,17.5,191.3,17.5,191.2,18.3L191.2,18.3z"/>
	</g>
</g>
<g id="XMLID_1602_">
	<g id="XMLID_1687_">
		<path id="XMLID_1693_" class="st0" d="M192.4,20.2c0.6-0.6,1.1-1.3,1.9-1.4c1.1-0.1,1.3,0.8,1.4,1.6c0.2,1.4,0.1,2.7,0,4.1
			c-0.1,0.8,1.2,0.8,1.3,0c0.1-1.3,0.2-2.6,0-3.9c-0.1-0.8-0.1-1.9-0.7-2.5c-0.6-0.6-1.7-0.7-2.5-0.6c-1,0.2-1.6,1-2.3,1.7
			C190.9,19.9,191.8,20.8,192.4,20.2L192.4,20.2z"/>
	</g>
</g>
<g id="XMLID_1603_">
	<g id="XMLID_1679_">
		<path id="XMLID_1684_" class="st0" d="M198.5,18.2c0.1,2.9,0.3,5.9,0.1,8.8c0,0.8,1.2,0.8,1.3,0c0.2-2.9,0-5.9-0.1-8.8
			C199.7,17.4,198.5,17.4,198.5,18.2L198.5,18.2z"/>
	</g>
</g>
<g id="XMLID_1605_">
	<g id="XMLID_1670_">
		<path id="XMLID_1676_" class="st0" d="M199.7,20.5c0.5-0.8,1.1-1.3,2-1.5c1.5-0.3,1.9,0.8,1.9,2.1c0,1.1,0.1,2.1-1,2.5
			c-1.1,0.5-2.1,0.1-2.8-0.8c-0.5-0.6-1.4,0.3-0.9,0.9c1.1,1.2,2.8,1.7,4.3,1c1.8-0.8,1.8-2.4,1.7-4.1c-0.1-1.4-0.7-2.9-2.3-3
			c-1.6-0.1-3.1,0.8-4,2.2C198.2,20.5,199.3,21.2,199.7,20.5L199.7,20.5z"/>
	</g>
</g>
<g id="XMLID_1606_">
	<g id="XMLID_1662_">
		<path id="XMLID_1668_" class="st0" d="M206.5,18.1c-0.3,1.6-0.4,3.3-0.1,5c0.3,1.3,1,1.8,2.2,1.9c3.6,0.4,3.7-4.3,3.6-6.8
			c0-0.8-1.3-0.8-1.3,0c0,1.6,0.3,5.4-1.9,5.6c-1.5,0.1-1.6-1.2-1.6-2.3c0-1,0-2,0.2-3C207.8,17.7,206.6,17.3,206.5,18.1L206.5,18.1
			z"/>
	</g>
</g>
<g id="XMLID_1608_">
	<g id="XMLID_1654_">
		<path id="XMLID_1660_" class="st0" d="M211,18.3c0,2.1,0,4.1-0.1,6.2c0,0.8,1.2,0.8,1.3,0c0.1-2.1,0.1-4.1,0.1-6.2
			C212.2,17.5,211,17.5,211,18.3L211,18.3z"/>
	</g>
</g>
<g id="XMLID_1610_">
	<g id="XMLID_1646_">
		<path id="XMLID_1652_" class="st0" d="M214,16.4c0,2.4-0.3,5.1,0.1,7.5c0.2,1.2,1,1.5,2.1,1.1c0.8-0.2,0.4-1.4-0.3-1.2
			c-0.9,0.3-0.5-0.6-0.5-1.2c0-0.7,0-1.5,0-2.2c0-1.4,0-2.7,0-4.1C215.2,15.6,214,15.6,214,16.4L214,16.4z"/>
	</g>
</g>
<g id="XMLID_1619_">
	<g id="XMLID_1639_">
		<path id="XMLID_1644_" class="st0" d="M213.3,18.8c1,0.3,2,0.3,3,0.1c0.8-0.2,0.5-1.4-0.3-1.2c-0.8,0.2-1.5,0.1-2.3-0.1
			C212.8,17.4,212.5,18.6,213.3,18.8L213.3,18.8z"/>
	</g>
</g>
<g id="XMLID_1627_">
	<g id="XMLID_1623_">
		<path id="XMLID_1635_" class="st0" d="M388.9,15c-2.4-0.2-5,2.2-4.7,4.6c0.3,2.7,1.3,5.9,4.5,5.6c5-0.4,6.2-10.6,0.3-10.1
			c-0.8,0.1-0.8,1.3,0,1.3c4.2-0.3,2.9,6.3,0.2,7.3c-2.3,0.9-2.9-1.3-3.5-3c-0.6-2.1,0.7-4.7,3.2-4.5
			C389.7,16.4,389.7,15.1,388.9,15L388.9,15z"/>
	</g>
</g>
<g id="XMLID_1642_">
	<g id="XMLID_1615_">
		<path id="XMLID_1621_" class="st0" d="M394.5,18.3c0.1,0.9,0.1,1.9,0.2,2.8c0,0.7,0,1.6,0.2,2.3c0.3,1.2,1.5,1.4,2.6,1.5
			c3.1,0,3.2-4.5,3.2-6.7c0-0.8-1.2-0.8-1.3,0c-0.1,2.1-0.2,4.2-0.3,6.3c0,0.8,1.2,0.8,1.3,0c0.1-2.1,0.2-4.2,0.3-6.3
			c-0.4,0-0.8,0-1.3,0c0,1.6,0.1,5.4-2.2,5.4c-1.3,0-1.3-1-1.3-2.1c-0.1-1.1-0.1-2.2-0.2-3.3C395.7,17.5,394.5,17.5,394.5,18.3
			L394.5,18.3z"/>
	</g>
</g>
<g id="XMLID_1649_">
	<g id="XMLID_1599_">
		<path id="XMLID_1613_" class="st0" d="M402.2,16.7c0.5,2.4-0.5,4.8,0,7.2c0.2,1.2,1.2,1.6,2.3,1.2c0.8-0.2,0.4-1.5-0.3-1.2
			c-1.3,0.4-0.6-3.3-0.6-3.9c0.1-1.2,0.1-2.4-0.2-3.6C403.3,15.6,402.1,15.9,402.2,16.7L402.2,16.7z"/>
	</g>
</g>
<g id="XMLID_1658_">
	<g id="XMLID_1591_">
		<path id="XMLID_1596_" class="st0" d="M401.7,18.9c0.8,0,1.6,0,2.3,0c0.8,0,0.8-1.2,0-1.3c-0.8,0-1.6,0-2.3,0
			C400.9,17.7,400.9,18.9,401.7,18.9L401.7,18.9z"/>
	</g>
</g>
<g id="XMLID_1666_">
	<g id="XMLID_1584_">
		<path id="XMLID_1588_" class="st0" d="M405.8,18.4c0.2,2.9,0.1,5.7-0.1,8.6c-0.1,0.8,1.2,0.8,1.3,0c0.3-2.9,0.3-5.7,0.1-8.6
			C407,17.6,405.8,17.6,405.8,18.4L405.8,18.4z"/>
	</g>
</g>
<g id="XMLID_1674_">
	<g id="XMLID_1577_">
		<path id="XMLID_1581_" class="st0" d="M406.9,20.2c0.4-0.7,1-1,1.8-1.2c0.5-0.1,1.3-0.1,1.7,0.3c0.2,0.3,0.2,0.9,0.3,1.3
			c0,0.6,0.2,1.5-0.1,2.1c-0.4,1-2.6,1.3-3.4,0.6c-0.6-0.5-1.5,0.4-0.9,0.9c1.2,1,3.2,0.9,4.5,0.1c1.4-0.8,1.2-2.8,1.1-4.1
			c-0.1-1.5-0.8-2.7-2.5-2.6c-1.4,0-2.8,0.7-3.5,1.9C405.4,20.3,406.5,20.9,406.9,20.2L406.9,20.2z"/>
	</g>
</g>
<g id="XMLID_1682_">
	<g id="XMLID_1570_">
		<path id="XMLID_1574_" class="st0" d="M413.6,18.3c0,1.5-0.3,3.3-0.1,4.8c0.2,1.2,1.4,1.5,2.5,1.6c3.4,0.3,3-3.9,3.2-6.2
			c0.1-0.7-1.1-0.9-1.2-0.2c-0.3,1.9-0.4,3.9-0.3,5.8c0.1,0.8,1.3,0.8,1.3,0c-0.1-1.8,0-3.7,0.3-5.5c-0.4-0.1-0.8-0.1-1.2-0.2
			c-0.1,0.9-0.2,1.9-0.3,2.8c-0.1,1.3-0.4,2.4-2.1,2c-1.2-0.2-0.9-1.4-0.9-2.3c0-0.9,0.1-1.9,0.1-2.8
			C414.9,17.5,413.6,17.5,413.6,18.3L413.6,18.3z"/>
	</g>
</g>
<g id="XMLID_1690_">
	<g id="XMLID_1563_">
		<path id="XMLID_1567_" class="st0" d="M420.7,16.5c0.1,2.2-0.1,4.6,0.2,6.8c0.1,1.1,0.9,2,2.1,1.6c0.7-0.3,0.4-1.5-0.3-1.2
			c-0.6,0.2-0.6-3.3-0.6-3.7c0-1.2-0.1-2.3-0.1-3.5C422,15.7,420.7,15.7,420.7,16.5L420.7,16.5z"/>
	</g>
</g>
<g id="XMLID_1698_">
	<g id="XMLID_1555_">
		<path id="XMLID_1560_" class="st0" d="M420.1,19c0.9,0.4,2.1,0.3,3.1,0.2c0.8,0,0.8-1.3,0-1.3c-0.4,0-0.8,0-1.2,0
			c-0.3,0-0.9,0.1-1.2-0.1C420,17.5,419.4,18.6,420.1,19L420.1,19z"/>
	</g>
</g>
<g id="XMLID_1707_">
	<g id="XMLID_1549_">
		<path id="XMLID_1553_" class="st0" d="M270.5,15.7c0,1.6-0.5,3.1-0.6,4.6c-0.1,1.4,0,2.7,0.2,4c0.1,0.8,1.3,0.5,1.2-0.3
			c-0.2-1.4-0.3-2.9-0.2-4.3c0.1-1.4,0.5-2.7,0.5-4C271.8,14.9,270.6,14.9,270.5,15.7L270.5,15.7z"/>
	</g>
</g>
<g id="XMLID_1715_">
	<g id="XMLID_1542_">
		<path id="XMLID_1547_" class="st0" d="M270.9,16.2c0.8-0.1,4.4-0.5,4.6,0.8c0.2,1.5-1.1,1.9-2.2,2c-0.7,0.1-1.4,0-2-0.1
			c0,0.4,0,0.8,0,1.3c0.8-0.1,1.5-0.2,2.3-0.2c1.2,0,2.1,0.1,2.4,1.4c0.7,2.7-3.4,2.3-5.1,2.3c-0.8,0-0.8,1.2,0,1.3
			c2.3,0.1,6.7,0.2,6.6-3.3c-0.1-3.3-3.9-2.9-6.2-2.7c-0.8,0.1-0.8,1.2,0,1.3c2,0.2,5.9,0.1,5.6-2.9c-0.3-3-3.6-2.6-5.9-2.4
			C270.1,15,270.1,16.2,270.9,16.2L270.9,16.2z"/>
	</g>
</g>
<g id="XMLID_1723_">
	<g id="XMLID_1535_">
		<path id="XMLID_1540_" class="st0" d="M279,15.3c-0.4,2.8-0.4,5.7-0.3,8.5c0,0.8,1.3,0.8,1.3,0c-0.2-2.9-0.1-5.7,0.3-8.5
			C280.4,14.5,279.1,14.5,279,15.3L279,15.3z"/>
	</g>
</g>
<g id="XMLID_1731_">
	<g id="XMLID_1524_">
		<path id="XMLID_1532_" class="st0" d="M282.9,19.7c0.7-1.1,2.1-1.7,2.9-0.3c0.5,0.9,0.2,2.3,0.2,3.3c-0.1,1.1,0.3,2,1.5,1.8
			c0.8-0.1,0.5-1.3-0.3-1.2c0.3-0.1,0.1-3.1,0-3.5c-0.1-0.9-0.4-1.7-1.2-2.2c-1.5-0.9-3.2,0-4.1,1.3
			C281.4,19.8,282.5,20.4,282.9,19.7L282.9,19.7z"/>
	</g>
</g>
<g id="XMLID_1739_">
	<g id="XMLID_1514_">
		<path id="XMLID_1522_" class="st0" d="M286.3,19.8c-1.2,0.3-2.7,0.4-3.8,1c-0.8,0.4-1.3,1.7-1.1,2.5c0.3,1,1.6,1.3,2.4,1.2
			c1.2,0,2.2-0.6,3-1.4c0.6-0.6-0.3-1.4-0.9-0.9c-0.4,0.4-0.9,0.8-1.6,0.9c-0.6,0.2-2.2,0.2-1.7-0.9c0.3-0.6,1.2-0.7,1.8-0.8
			c0.7-0.2,1.3-0.3,2-0.5C287.4,20.8,287.1,19.6,286.3,19.8L286.3,19.8z"/>
	</g>
</g>
<g id="XMLID_1747_">
	<g id="XMLID_1507_">
		<path id="XMLID_1511_" class="st0" d="M294.6,19.3c-0.2-0.7-0.1-1.1-0.8-1.5c-0.7-0.4-1.6-0.4-2.4-0.4c-1.6,0.1-2.5,1.1-2.7,2.7
			c-0.2,1.5,0,3.5,1.5,4.2c0.7,0.4,1.8,0.5,2.6,0.4c0.8-0.2,1-0.8,1.7-1.1c0.7-0.4,0.1-1.5-0.6-1.1c-0.9,0.5-1.2,1.2-2.4,0.9
			c-1.3-0.3-1.6-1.3-1.6-2.5c0-1,0.2-2.2,1.5-2.3c0.4,0,0.9,0,1.3,0.1c0.6,0.2,0.5,0.4,0.7,1C293.7,20.4,294.9,20.1,294.6,19.3
			L294.6,19.3z"/>
	</g>
</g>
<g id="XMLID_1756_">
	<g id="XMLID_1498_">
		<path id="XMLID_1504_" class="st0" d="M296.1,15.3c-0.2,2.8,0.5,5.7,0.1,8.5c-0.1,0.8,1.1,1.1,1.2,0.3c0.5-3-0.3-5.9,0-8.8
			C297.4,14.5,296.2,14.5,296.1,15.3L296.1,15.3z"/>
	</g>
</g>
<g id="XMLID_1764_">
	<g id="XMLID_1490_">
		<path id="XMLID_1496_" class="st0" d="M297.8,21.5c0.1-0.3,0.5-0.6,0.7-0.8c0.3-0.3,0.6-0.5,0.8-0.8c0.6-0.5,1.1-1,1.6-1.6
			c0.5-0.6-0.4-1.5-0.9-0.9c-0.6,0.7-1.3,1.3-1.9,1.9c-0.6,0.5-1.3,1.1-1.5,1.9C296.4,21.9,297.6,22.3,297.8,21.5L297.8,21.5z"/>
	</g>
</g>
<g id="XMLID_1772_">
	<g id="XMLID_1482_">
		<path id="XMLID_1488_" class="st0" d="M297.8,20.2c0.1,0.7,0.6,1.3,1,1.9c0.5,0.7,1,1.5,1.6,2.2c0.5,0.6,1.5,0,1.1-0.6
			c-0.5-0.7-0.9-1.3-1.4-2c-0.4-0.6-0.9-1.1-1.1-1.8C298.9,19.1,297.6,19.4,297.8,20.2L297.8,20.2z"/>
	</g>
</g>
<g id="XMLID_1780_">
	<g id="XMLID_1443_">
		<path id="XMLID_1480_" class="st0" d="M302.8,15.4c0.1,2.9,0.1,5.7,0,8.6c0,0.8,1.2,0.8,1.3,0c0.1-2.9,0.2-5.7,0-8.6
			C304,14.6,302.8,14.6,302.8,15.4L302.8,15.4z"/>
	</g>
</g>
<g id="XMLID_1788_">
	<g id="XMLID_39_">
		<path id="XMLID_48_" class="st0" d="M303.7,16.4c1.4-0.1,3.4-1.1,4.1,0.6c0.9,2-2.5,2-3.7,2c-0.8,0-0.8,1.2,0,1.3
			c1.3,0.1,6.3-0.2,3.9,2.4c-1.1,1.2-2.8,1.3-4.4,1.1c-0.8-0.1-0.8,1.2,0,1.3c2,0.2,6.1-0.1,6.3-2.8c0.2-3.5-3.4-3.1-5.8-3.2
			c0,0.4,0,0.8,0,1.3c2.2-0.1,5.5-0.2,5-3.1c-0.5-3.1-3.1-2.3-5.5-2.1C302.9,15.2,302.9,16.5,303.7,16.4L303.7,16.4z"/>
	</g>
</g>
<g id="XMLID_1796_">
	<g id="XMLID_29_">
		<path id="XMLID_36_" class="st0" d="M314.4,17.2c-4.4,0.2-4.9,7.7-0.2,7.6C319.1,24.8,318.8,17.7,314.4,17.2
			c-0.9,0-0.9,1.3-0.1,1.3c2.9,0.3,3.2,5.2-0.1,5.1c-3.1-0.1-2.6-5,0.2-5.1C315.2,18.4,315.2,17.1,314.4,17.2L314.4,17.2z"/>
	</g>
</g>
<g id="XMLID_1805_">
	<g id="XMLID_23_">
		<path id="XMLID_27_" class="st0" d="M318.6,18.3c0.7,0.8,1.1,1.9,1.8,2.8c0.8,1.1,1.7,2.2,2.4,3.3c0.4,0.7,1.5,0.1,1.1-0.6
			c-0.7-1.1-1.5-2.2-2.4-3.3c-0.8-1-1.2-2.2-2-3.1C319,16.8,318.1,17.7,318.6,18.3L318.6,18.3z"/>
	</g>
</g>
<g id="XMLID_1813_">
	<g id="XMLID_12_">
		<path id="XMLID_18_" class="st0" d="M323.1,17.1c-2.2,1.9-3.3,4.6-5,6.8c-0.5,0.6,0.4,1.5,0.9,0.9c1.8-2.2,2.9-5,5-6.8
			C324.6,17.5,323.7,16.6,323.1,17.1L323.1,17.1z"/>
	</g>
</g>
</svg>
