<?xml version="1.0" encoding="utf-8"?>
<!-- Generator: Adobe Illustrator 19.0.0, SVG Export Plug-In . SVG Version: 6.00 Build 0)  -->
<svg version="1.2" baseProfile="tiny" xmlns="http://www.w3.org/2000/svg" xmlns:xlink="http://www.w3.org/1999/xlink" x="0px"
	 y="0px" viewBox="0 0 595.3 61.3" xml:space="preserve">
<g id="Layer_1">
	<g id="XMLID_1600_">
		<g id="XMLID_1703_">
			<path id="XMLID_1709_" fill="#0F0F0D" d="M105.8,9c0.4,2.8-0.1,5.9-0.1,8.7c0,0.8,1.2,0.8,1.3,0c0.1-3,0.5-6.1,0.1-9
				C106.9,7.9,105.7,8.2,105.8,9L105.8,9z"/>
		</g>
	</g>
	<g id="XMLID_1601_">
		<g id="XMLID_1695_">
			<path id="XMLID_1701_" fill="#0F0F0D" d="M108.9,11.6c-0.1,2.1-0.1,4.2-0.1,6.2c0,0.8,1.3,0.8,1.3,0c0-2.1,0-4.1,0.1-6.2
				C110.2,10.8,108.9,10.8,108.9,11.6L108.9,11.6z"/>
		</g>
	</g>
	<g id="XMLID_1602_">
		<g id="XMLID_1687_">
			<path id="XMLID_1693_" fill="#0F0F0D" d="M110,13.5c0.6-0.6,1.1-1.3,1.9-1.4c1.1-0.1,1.3,0.8,1.4,1.6c0.2,1.4,0.1,2.7,0,4.1
				c-0.1,0.8,1.2,0.8,1.3,0c0.1-1.3,0.2-2.6,0-3.9c-0.1-0.8-0.1-1.9-0.7-2.5s-1.7-0.7-2.5-0.6c-1,0.2-1.6,1-2.3,1.7
				C108.6,13.2,109.4,14.1,110,13.5L110,13.5z"/>
		</g>
	</g>
	<g id="XMLID_1603_">
		<g id="XMLID_1679_">
			<path id="XMLID_1684_" fill="#0F0F0D" d="M116.1,11.5c0.1,2.9,0.3,5.9,0.1,8.8c0,0.8,1.2,0.8,1.3,0c0.2-2.9,0-5.9-0.1-8.8
				C117.3,10.7,116.1,10.7,116.1,11.5L116.1,11.5z"/>
		</g>
	</g>
	<g id="XMLID_1605_">
		<g id="XMLID_1670_">
			<path id="XMLID_1676_" fill="#0F0F0D" d="M117.4,13.8c0.5-0.8,1.1-1.3,2-1.5c1.5-0.3,1.9,0.8,1.9,2.1c0,1.1,0.1,2.1-1,2.5
				c-1.1,0.5-2.1,0.1-2.8-0.8c-0.5-0.6-1.4,0.3-0.9,0.9c1.1,1.2,2.8,1.7,4.3,1c1.8-0.8,1.8-2.4,1.7-4.1c-0.1-1.4-0.7-2.9-2.3-3
				s-3.1,0.8-4,2.2C115.9,13.8,116.9,14.5,117.4,13.8L117.4,13.8z"/>
		</g>
	</g>
	<g id="XMLID_1606_">
		<g id="XMLID_1662_">
			<path id="XMLID_1668_" fill="#0F0F0D" d="M124.1,11.4c-0.3,1.6-0.4,3.3-0.1,5c0.3,1.3,1,1.8,2.2,1.9c3.6,0.4,3.7-4.3,3.6-6.8
				c0-0.8-1.3-0.8-1.3,0c0,1.6,0.3,5.4-1.9,5.6c-1.5,0.1-1.6-1.2-1.6-2.3c0-1,0-2,0.2-3C125.5,11,124.3,10.6,124.1,11.4L124.1,11.4z
				"/>
		</g>
	</g>
	<g id="XMLID_1608_">
		<g id="XMLID_1654_">
			<path id="XMLID_1660_" fill="#0F0F0D" d="M128.6,11.6c0,2.1,0,4.1-0.1,6.2c0,0.8,1.2,0.8,1.3,0c0.1-2.1,0.1-4.1,0.1-6.2
				C129.8,10.8,128.6,10.8,128.6,11.6L128.6,11.6z"/>
		</g>
	</g>
	<g id="XMLID_1610_">
		<g id="XMLID_1646_">
			<path id="XMLID_1652_" fill="#0F0F0D" d="M131.6,9.7c0,2.4-0.3,5.1,0.1,7.5c0.2,1.2,1,1.5,2.1,1.1c0.8-0.2,0.4-1.4-0.3-1.2
				c-0.9,0.3-0.5-0.6-0.5-1.2c0-0.7,0-1.5,0-2.2c0-1.4,0-2.7,0-4.1C132.9,8.9,131.6,8.9,131.6,9.7L131.6,9.7z"/>
		</g>
	</g>
	<g id="XMLID_1619_">
		<g id="XMLID_1639_">
			<path id="XMLID_1644_" fill="#0F0F0D" d="M130.9,12.1c1,0.3,2,0.3,3,0.1c0.8-0.2,0.5-1.4-0.3-1.2s-1.5,0.1-2.3-0.1
				S130.1,11.9,130.9,12.1L130.9,12.1z"/>
		</g>
	</g>
	<g id="XMLID_246_">
		<g id="XMLID_248_">
			<path id="XMLID_252_" fill="#0F0F0D" d="M105.8,41.9c0.4,2.8-0.1,5.9-0.1,8.7c0,0.8,1.2,0.8,1.3,0c0.1-3,0.5-6.1,0.1-9
				C106.9,40.8,105.7,41.1,105.8,41.9L105.8,41.9z"/>
		</g>
	</g>
	<g id="XMLID_239_">
		<g id="XMLID_241_">
			<path id="XMLID_245_" fill="#0F0F0D" d="M108.9,44.5c-0.1,2-0.1,4.1-0.1,6.2c0,0.8,1.3,0.8,1.3,0c0-2.1,0-4.1,0.1-6.2
				C110.2,43.7,108.9,43.7,108.9,44.5L108.9,44.5z"/>
		</g>
	</g>
	<g id="XMLID_232_">
		<g id="XMLID_234_">
			<path id="XMLID_238_" fill="#0F0F0D" d="M110,46.4c0.6-0.6,1.1-1.3,1.9-1.4c1.1-0.1,1.3,0.8,1.4,1.6c0.2,1.4,0.1,2.7,0,4.1
				c-0.1,0.8,1.2,0.8,1.3,0c0.1-1.3,0.2-2.6,0-3.9c-0.1-0.8-0.1-1.9-0.7-2.5s-1.7-0.7-2.5-0.6c-1,0.2-1.6,1-2.3,1.7
				C108.6,46.1,109.4,46.9,110,46.4L110,46.4z"/>
		</g>
	</g>
	<g id="XMLID_225_">
		<g id="XMLID_227_">
			<path id="XMLID_231_" fill="#0F0F0D" d="M116.1,44.3c0.1,2.9,0.3,5.9,0.1,8.8c0,0.8,1.2,0.8,1.3,0c0.2-2.9,0-5.9-0.1-8.8
				C117.3,43.5,116.1,43.5,116.1,44.3L116.1,44.3z"/>
		</g>
	</g>
	<g id="XMLID_218_">
		<g id="XMLID_220_">
			<path id="XMLID_224_" fill="#0F0F0D" d="M117.4,46.6c0.5-0.8,1.1-1.3,2-1.5c1.5-0.3,1.9,0.8,1.9,2.1c0,1.1,0.1,2.1-1,2.5
				c-1.1,0.5-2.1,0.1-2.8-0.8c-0.5-0.6-1.4,0.3-0.9,0.9c1.1,1.2,2.8,1.7,4.3,1c1.8-0.8,1.8-2.4,1.7-4.1c-0.1-1.4-0.7-2.9-2.3-3
				s-3.1,0.8-4,2.2C115.9,46.7,116.9,47.3,117.4,46.6L117.4,46.6z"/>
		</g>
	</g>
	<g id="XMLID_211_">
		<g id="XMLID_213_">
			<path id="XMLID_217_" fill="#0F0F0D" d="M124.1,44.3c-0.3,1.6-0.4,3.3-0.1,5c0.3,1.3,1,1.8,2.2,1.9c3.6,0.4,3.7-4.3,3.6-6.8
				c0-0.8-1.3-0.8-1.3,0c0,1.6,0.3,5.4-1.9,5.6c-1.5,0.1-1.6-1.2-1.6-2.3c0-1,0-2,0.2-3C125.5,43.8,124.3,43.5,124.1,44.3
				L124.1,44.3z"/>
		</g>
	</g>
	<g id="XMLID_204_">
		<g id="XMLID_206_">
			<path id="XMLID_210_" fill="#0F0F0D" d="M128.6,44.4c0,2.1,0,4.1-0.1,6.2c0,0.8,1.2,0.8,1.3,0c0.1-2.1,0.1-4.1,0.1-6.2
				C129.8,43.6,128.6,43.6,128.6,44.4L128.6,44.4z"/>
		</g>
	</g>
	<g id="XMLID_197_">
		<g id="XMLID_199_">
			<path id="XMLID_203_" fill="#0F0F0D" d="M131.6,42.6c0,2.4-0.3,5.1,0.1,7.5c0.2,1.2,1,1.5,2.1,1.1c0.8-0.2,0.4-1.4-0.3-1.2
				c-0.9,0.3-0.5-0.6-0.5-1.2c0-0.7,0-1.5,0-2.2c0-1.4,0-2.7,0-4.1C132.9,41.8,131.6,41.8,131.6,42.6L131.6,42.6z"/>
		</g>
	</g>
	<g id="XMLID_190_">
		<g id="XMLID_192_">
			<path id="XMLID_196_" fill="#0F0F0D" d="M130.9,45c1,0.3,2,0.3,3,0.1c0.8-0.2,0.5-1.4-0.3-1.2s-1.5,0.1-2.3-0.1
				C130.5,43.6,130.1,44.8,130.9,45L130.9,45z"/>
		</g>
	</g>
	<g id="XMLID_34_">
		<g id="XMLID_1159_">
			<g id="XMLID_275_">
				<path id="XMLID_279_" fill="#0F0F0D" d="M136.8,16.2c1-0.7,1.9-1.3,2.9-2c-0.3-0.2-0.6-0.5-0.9-0.7c-0.5,2.5-0.7,5-0.6,7.6
					c0,0.8,1.3,0.8,1.3,0c-0.1-2.4,0.1-4.9,0.6-7.3c0.1-0.5-0.4-1-0.9-0.7c-1,0.7-1.9,1.3-2.9,2C135.5,15.6,136.1,16.7,136.8,16.2
					L136.8,16.2z"/>
			</g>
		</g>
		<g id="XMLID_795_">
			<g id="XMLID_269_">
				<path id="XMLID_273_" fill="#0F0F0D" d="M135.9,21.9c1.7,0,3.4-0.1,5.1-0.2c0.8,0,0.8-1.3,0-1.3c-1.7,0.1-3.4,0.1-5.1,0.2
					C135.1,20.6,135.1,21.9,135.9,21.9L135.9,21.9z"/>
			</g>
		</g>
	</g>
	<g id="XMLID_32_">
		<g id="XMLID_266_">
			<path id="XMLID_288_" fill="#0F0F0D" d="M137,49.2c0.2-0.4,0.5-0.8,0.9-1c0.6-0.4,0.9-0.5,1.5,0c0.5,0.4,0.5,0.6,0.4,1.2
				c-0.1,0.4-0.3,0.8-0.4,1.1c-0.7,1.4-2,2.5-3.5,3c-0.7,0.2-0.5,1.2,0.2,1.2c2.2,0.2,4.3,0.1,6.5-0.1c0.8-0.1,0.8-1.3,0-1.3
				c-2.2,0.2-4.3,0.3-6.5,0.1c0.1,0.4,0.1,0.8,0.2,1.2c2.5-0.9,5.3-3.5,5-6.4c-0.4-3.2-4-1.7-5.1,0.2
				C135.5,49.2,136.6,49.9,137,49.2L137,49.2z"/>
		</g>
	</g>
	<g id="XMLID_18_">
		<path id="XMLID_465_" fill="#0F0F0D" d="M401.8,18.7c1.7,0,1.7-1.4,0-1.4c-26.3,0.2-52.6,0.2-78.8,0.2c0,0.5,0,0.9-0.1,1.3
			C349.2,18.8,375.4,18.8,401.8,18.7z"/>
		<path id="XMLID_466_" fill="#0F0F0D" d="M149.2,17.2c-2.4,0-2.4,1.4,0,1.4c57.8-0.1,115.6,0.2,173.3,0.3c0-0.4,0-0.9,0-1.3
			C264.7,17.4,207,17.1,149.2,17.2z"/>
		<path id="XMLID_468_" fill="#0F0F0D" d="M401.8,49.9c-26.5,0.2-52.9,0.2-79.3,0.2c0,0.4,0.1,0.9,0.1,1.3c26.4,0,52.8,0,79.2-0.1
			C403.4,51.3,403.4,49.9,401.8,49.9z"/>
		<path id="XMLID_471_" fill="#0F0F0D" d="M149.2,49.8c-2.4,0-2.4,1.4,0,1.4c58-0.1,115.8,0.2,173.7,0.3c0-0.4,0-0.9,0-1.3
			C265,50,207.1,49.7,149.2,49.8z"/>
		<path id="XMLID_479_" fill="#0F0F0D" d="M321.7,18.8c0.4,0,0.8,0,1.2,0c0-0.4,0-0.9,0.1-1.3c-0.4,0-0.8,0-1.2,0
			C321.7,17.9,321.7,18.4,321.7,18.8z"/>
		<path id="XMLID_480_" fill="#0F0F0D" d="M269,17.4c-0.2,0-0.4,0-0.6,0c0,0.4,0,0.9,0,1.3c0.2,0,0.4,0,0.6,0
			C269,18.3,269,17.8,269,17.4z"/>
		<path id="XMLID_481_" fill="#0F0F0D" d="M269,50c-0.4,0-0.7,0-1.1,0c0,0.4,0,0.9,0,1.3c0.4,0,0.7,0,1.1,0
			C269,50.9,269,50.4,269,50z"/>
		<path id="XMLID_482_" fill="#0F0F0D" d="M321.3,50.1c0,0.2,0,0.3,0,0.5c0,0.3,0,0.5,0,0.8c0.4,0,0.8,0,1.2,0
			c0-0.5-0.1-0.9-0.1-1.3C322.1,50.1,321.7,50.1,321.3,50.1z"/>
	</g>
	<g id="XMLID_129_">
		<g id="XMLID_674_">
			<path id="XMLID_675_" fill="#0F0F0D" d="M148.2,0.6c-0.4,3.5-0.2,7.1,0,10.6c0,0.8,1.3,0.8,1.3,0c-0.2-3.5-0.4-7.1,0-10.6
				C149.6-0.2,148.3-0.2,148.2,0.6L148.2,0.6z"/>
		</g>
	</g>
	<g id="XMLID_122_">
		<g id="XMLID_123_">
			<path id="XMLID_125_" fill="#0F0F0D" d="M158.3,11.6c1.2-1.1,2-2.5,3.2-3.6c0.6-0.6,2-1.3,2-2.2c0.1-0.8-1-1.5-1.4-2
				c-1.2-1.3-2.5-2.4-3.9-3.5c-0.6-0.5-1.5,0.4-0.9,0.9c0.9,0.7,1.8,1.5,2.6,2.3c0.3,0.3,2.3,1.9,2.2,2.3c0,0.5-1.9,1.8-2.3,2.2
				c-0.9,0.9-1.6,2-2.5,2.9C156.9,11.3,157.8,12.2,158.3,11.6L158.3,11.6z"/>
		</g>
	</g>
	<g id="XMLID_44_">
		<g id="XMLID_116_">
			<path id="XMLID_118_" fill="#0F0F0D" d="M153.7,1.9c-4-0.5-3.9,9.1,0.8,8.3c2-0.3,2.2-3.5,2.1-5c-0.2-2.6-1.4-3.7-4-3.4
				c-0.8,0.1-0.5,1.3,0.3,1.2c1-0.1,1.7-0.2,2.2,1c0.2,0.4,0.2,1.3,0.2,1.8c0,1-0.1,2.4-1.1,2.8c-2.8,1.1-2.8-5.7-0.6-5.5
				C154.5,3.3,154.5,2,153.7,1.9L153.7,1.9z"/>
		</g>
	</g>
	<g id="XMLID_682_">
		<g id="XMLID_683_">
			<path id="XMLID_684_" fill="#0F0F0D" d="M148.2,33.4c-0.4,3.5-0.2,7.1,0,10.6c0,0.8,1.3,0.8,1.3,0c-0.2-3.5-0.4-7.1,0-10.6
				C149.6,32.6,148.3,32.6,148.2,33.4L148.2,33.4z"/>
		</g>
	</g>
	<g id="XMLID_679_">
		<g id="XMLID_680_">
			<path id="XMLID_681_" fill="#0F0F0D" d="M158.3,44.4c1.2-1.1,2-2.5,3.2-3.6c0.6-0.6,2-1.3,2-2.2c0.1-0.8-1-1.5-1.4-2
				c-1.2-1.3-2.5-2.4-3.9-3.5c-0.6-0.5-1.5,0.4-0.9,0.9c0.9,0.7,1.8,1.5,2.6,2.3c0.3,0.3,2.3,1.9,2.2,2.3c0,0.5-1.9,1.8-2.3,2.2
				c-0.9,0.9-1.6,2-2.5,2.9C156.9,44.1,157.8,45,158.3,44.4L158.3,44.4z"/>
		</g>
	</g>
	<g id="XMLID_676_">
		<g id="XMLID_677_">
			<path id="XMLID_678_" fill="#0F0F0D" d="M153.7,34.7c-4-0.5-3.9,9.1,0.8,8.3c2-0.3,2.2-3.5,2.1-5c-0.2-2.6-1.4-3.7-4-3.4
				c-0.8,0.1-0.5,1.3,0.3,1.2c1-0.1,1.7-0.2,2.2,1c0.2,0.4,0.2,1.3,0.2,1.8c0,1-0.1,2.4-1.1,2.8c-2.8,1.1-2.8-5.7-0.6-5.5
				C154.5,36.1,154.5,34.8,153.7,34.7L153.7,34.7z"/>
		</g>
	</g>
	<g id="XMLID_363_">
		<g id="XMLID_233_">
			<path id="XMLID_325_" fill="#A2C754" d="M220,8.2c-3.5-0.4-7.3-0.3-10.8-0.2c-2,0-4.3,0.2-5.1,2.3c-0.6,1.5,0,4.2,0.2,5.8
				c0.1,1.1,0.3,2.2,0.4,3.2c0.1,1.5-0.8,2.2-1,3.6c-0.4,2.4,2,3.9,4.1,4.2c1.4,0.2,2.9-0.1,4.3-0.2c1.7-0.1,3.4,0,5.2,0
				c2.2,0,4.2-1,4.7-3.3c0.3-1.7,0-3.5-0.1-5.2c-0.1-2.1,0.1-4,0.5-6.1c0.3-1.5-1-3.5-2.8-2.8c-3.1,1.3-5.6,1.9-9,1.7
				c-1.9-0.1-4.7-0.6-5.7,1.4c-1,1.9,0.4,4.1,1.3,5.7c1,1.8,0.9,4.6,3.2,5.3c1.2,0.3,2.7,0.1,3.9,0.1c1.1,0,2.4,0.2,3.4-0.3
				c1.8-0.9,2.4-3.6,2.5-5.4c0.1-1.9-0.3-3.6-2.4-3.9c-2.2-0.3-5.8,0.1-7.8,1c-0.7,0.3-1.2,1.2-1.1,2c0.4,4.3,4.8,4.9,7.8,2.8
				c-0.9-1.2-1.8-2.4-2.8-3.6c-1.5,1.5-1.3,3.9,0.7,4.9c2.2,1,4.9-1.8,2.8-3.6c-1.7-1.5-3.4-1.9-5.6-1.6c-2.9,0.4-1.7,4.8,1.2,4.4
				c0.4,0.1,0.8,0.3,1.2,0.4c0.9-1.2,1.8-2.4,2.8-3.6c0.1,0.1,0.1,0.2,0.2,0.2c0.1,0.6,0.2,1.2,0.2,1.8c-0.1,0.1-0.1,0.2-0.2,0.2
				c1.7-1.8-0.5-5.1-2.8-3.6c-0.6,0.2-0.9,0.5-1,1.1c-0.4,0.7-0.8,1.3-1.1,2c0.8-0.4,3.9-0.7,5-0.5c-0.5-0.5-1.1-1.1-1.6-1.6
				c0.1,0.6,0.1,1.1-0.1,1.7c-0.2,1-0.3,1.1-0.2,0.4c-0.7,0.3-3.2,0.1-4,0c0.5,0.3,0.9,0.7,1.4,1c-0.3-0.4-2.3-6.5-2.8-5.6
				c-0.5,0.3-0.9,0.7-1.4,1c2.2-0.6,4.9,0.3,7.2,0.1c2.1-0.2,4-1.1,5.9-1.9c-0.9-0.9-1.9-1.9-2.8-2.8c-0.3,1.5-0.6,3.1-0.7,4.6
				c-0.1,1.6,0.8,4.5,0.2,6c-0.4,1-0.3,0.6-1.6,0.7c-0.9,0-1.8,0-2.7,0c-1.3,0.1-4.5,0.9-5.5-0.2c0.2,0.5,0.4,1.1,0.7,1.6
				c0-0.1,0.6-1.1,0.8-1.6c0.3-0.9,0.3-1.8,0.3-2.8c-0.1-1.7-0.5-3.3-0.6-5c0-0.4,0.1-0.6,0-1c0-0.1-0.6-1.5-0.6-0.9
				c-0.5,0.1-0.6,0.1-0.1,0c0.2,0,0.5,0,0.7,0c0.5,0,1,0,1.5,0c3.2,0,6.5-0.2,9.6,0.2C222.9,13.1,222.9,8.6,220,8.2L220,8.2z"/>
		</g>
		<g id="XMLID_222_">
			<path id="XMLID_324_" d="M212.2,7.9c-1.7,0-5.6-0.4-7,0.7c-1.6,1.3-0.2,7.1-0.2,8.9c0,2.1-1.5,8,0.1,9.7c1.4,1.6,6.5,0,8.4,0
				c1.7,0,7.5,1.3,8.6,0c0.5-0.6,0.1-2.5,0.1-3.1c-0.1-2.1-0.5-4.3-0.5-6.4c0-2.4,0.5-4.7,0.7-7c0.1-0.8,0.3-1.9-0.4-2.5
				c-0.5-0.5-1.7-0.3-2.4-0.3C217.2,7.8,214.7,7.8,212.2,7.9c-0.4,0-0.4,0.7,0,0.7c2.1,0,5.4-0.7,7.5-0.1c3.4,1,1.6,5.2,1.4,7.8
				c-0.1,2.5,0.8,5.3,0.4,7.7c-0.3,2.2-0.8,2.3-2.8,2.6c-1.5,0.2-3.2-0.2-4.6-0.2c-2.1-0.1-6.1,1.2-7.7-0.3
				c-1.7-1.5-0.8-5.3-0.7-7.5c0.1-2.5-0.9-6.8,0.6-8.8c1.3-1.7,3.8-1.3,5.9-1.4C212.6,8.6,212.7,7.9,212.2,7.9L212.2,7.9z"/>
		</g>
		<g id="XMLID_221_">
			<path id="XMLID_323_" fill="#FFFFFF" d="M211.1,20.3c1.2-1.9,2.9-3.6,4.4-5.2c0.3-0.3-0.2-0.8-0.5-0.5c-1.5,1.7-3.3,3.4-4.5,5.4
				C210.3,20.4,210.9,20.7,211.1,20.3L211.1,20.3z"/>
		</g>
		<g id="XMLID_214_">
			<path id="XMLID_322_" fill="#FFFFFF" d="M210.5,15c1.4,1.9,2.6,3.9,4.3,5.5c0.3,0.3,0.8-0.2,0.5-0.5c-1.6-1.6-2.8-3.6-4.1-5.4
				C210.8,14.3,210.2,14.7,210.5,15L210.5,15z"/>
		</g>
	</g>
	<g id="XMLID_58_">
		<g id="XMLID_40_">
			<path id="XMLID_321_" fill="#0F0F0D" d="M252.5,10.1c-0.5-0.8-2-0.6-2.7-0.6c-1.8-0.1-3.6,0-5.4,0.2c-0.7,0.1-0.7,1.2,0,1.1
				c1.2-0.1,2.5-0.2,3.7-0.2c0.3,0,3.4-0.1,3.5,0C251.9,11.3,252.9,10.7,252.5,10.1L252.5,10.1z"/>
		</g>
		<g id="XMLID_49_">
			<path id="XMLID_320_" fill="#29B2DF" d="M248.9,10c-2.7,0.1-5.3,1-6.2,3.8c-0.4,1.2-0.4,2.4-0.2,3.6c0.2,1.1,0.7,3.5,0.5,3.9
				c-0.1,0.1-1.6,0.6-1.6,0.6c1.4,0.2,0.8-1.4,0.7-2.2c-0.1-1.1-0.7-4.9,0.1-5.8c0.3-0.4,2.6-0.4,3.5-0.4c1,0,2.1-0.1,3.1-0.1
				c0.3,0,0.7,0,1,0c1.1,0,1.4,0,0.7,0c-0.4-0.6-0.9-1.1-1.3-1.7c0.5,2.5-0.1,5.9-0.3,8.5c-0.2,1.4,0.2,1-0.9,1.5
				c-0.5,0.1-1.1,0.2-1.6,0.3c-1.4,0-1.2,0.9,0.6,2.6c0.5,0,2-1.4,2.3-1.6c0.8-0.6,1.8-1.2,2.5-2c1-1.2,1.3-2.9,0.4-4.3
				c-1.8-2.9-6.7-5.4-10-5c-4.9,0.5-3.4,6.8-2.9,10.2c0.3,1.8,2.8,2.7,4.2,1.7c1.3-0.9,2.6-1.8,3.9-2.7c3-2.1,0.2-7.1-2.9-5
				c-1.3,0.9-2.6,1.8-3.9,2.7c1.4,0.6,2.8,1.1,4.2,1.7c-0.2-1.4-0.7-3.5-0.3-4.9c-0.7,0.7-1.3,1.3-2,2c1.1-0.4,4.4,1.5,4.9,2.5
				c-0.1-0.7-0.2-1.5-0.3-2.2c0.4-0.7,0.2-0.6-0.7,0.3c-0.5,0.4-1,0.7-1.5,1.1c-0.8,0.6-1.8,1.1-2.5,1.9c-1.1,1.3-1.5,3.3-0.6,4.8
				c1.7,3,7.5,2.2,10,0.7c3.8-2.3,3.1-8.8,3.2-12.5c0.1-2,0.3-4.2-1.5-5.5c-1.7-1.2-4.2-0.9-6.2-0.8c-3.7,0.1-8.8-0.3-10.4,3.9
				c-0.8,2.3-0.7,5.2-0.5,7.6c0.1,2,0.2,4.5,1.3,6.3c0.8,1.3,2.3,2.3,3.9,2.3c1.4,0,3.9-1,5-2c1.3-1.2,2-3.3,2.2-5
				c0.1-1.2-0.1-2.2-0.3-3.4c-0.2-1.1-0.7-1.8,0.6-1.8C252.6,15.6,252.6,9.9,248.9,10L248.9,10z"/>
		</g>
		<g id="XMLID_24_">
			<path id="XMLID_319_" fill="#0F0F0D" d="M253.7,7.8c-3.2,0-6.3,0-9.5,0c-1.6,0-4.2-0.4-5.6,0.6c-2.6,1.7-1.7,8.4-1.7,10.9
				c0,2.4-0.7,7.3,1.8,8.6c1.9,1,6.2,0.2,8.3,0c2.2-0.1,5.3,0.3,7.4-0.3c0.2-0.1,0.4-0.2,0.4-0.4c0.6-3.1,0.1-7,0-10.2
				c0-2.4,0.6-6.8-0.5-8.8c-0.3-0.7-1.3-0.1-1,0.6c0.9,1.7,0.3,5.7,0.3,7.6c0,2.5,0.4,5.3,0.1,7.7c-0.2,1.5-0.1,2-1.9,2.5
				c-1,0.3-2.3,0.1-3.4,0.1c-2.1,0.1-5.5,0.9-7.5,0.2c-4.2-1.4-2.9-11-2.5-14.7c0.3-2.5,1-2.9,3.8-3.2c1.1-0.1,2.3,0,3.4-0.1
				c2.7,0,5.4,0,8.2,0C254.5,8.9,254.5,7.8,253.7,7.8L253.7,7.8z"/>
		</g>
		<g id="XMLID_50_">
			<path id="XMLID_318_" fill="#FFFFFF" d="M242.9,14.7c0.1,2,0,4.1-0.1,6.1c0,0.4,0.7,0.4,0.7,0c0.1-2,0.2-4,0.1-6.1
				C243.6,14.3,242.9,14.3,242.9,14.7L242.9,14.7z"/>
		</g>
		<g id="XMLID_51_">
			<path id="XMLID_317_" fill="#FFFFFF" d="M247.5,14.9c-0.1,1.9-0.2,3.9-0.3,5.8c0,0.4,0.7,0.4,0.7,0c0.1-1.9,0.2-3.9,0.3-5.8
				C248.2,14.5,247.5,14.5,247.5,14.9L247.5,14.9z"/>
		</g>
		<g id="XMLID_52_">
			<path id="XMLID_316_" fill="#FFFFFF" d="M243.3,18c1.4,0,2.7,0,4.1-0.1c0.4,0,0.4-0.7,0-0.7c-1.4,0-2.7,0-4.1,0.1
				C242.8,17.3,242.8,18,243.3,18L243.3,18z"/>
		</g>
	</g>
	<g id="XMLID_21_">
		<g id="XMLID_508_">
			<path id="XMLID_315_" fill="#0F0F0D" d="M350.2,10.1c-0.5-0.8-2-0.6-2.7-0.6c-1.8-0.1-3.6,0-5.4,0.2c-0.7,0.1-0.7,1.2,0,1.1
				c1.2-0.1,2.5-0.2,3.7-0.2c0.3,0,3.4-0.1,3.5,0C349.5,11.3,350.5,10.7,350.2,10.1L350.2,10.1z"/>
		</g>
		<g id="XMLID_501_">
			<path id="XMLID_308_" fill="#29B2DF" d="M346.6,10c-2.7,0.1-5.3,1-6.2,3.8c-0.4,1.2-0.4,2.4-0.2,3.6c0.2,1.1,0.7,3.5,0.5,3.9
				c-0.1,0.1-1.6,0.6-1.6,0.6c1.4,0.2,0.8-1.4,0.7-2.2c-0.1-1.1-0.7-4.9,0.1-5.8c0.3-0.4,2.6-0.4,3.5-0.4c1,0,2.1-0.1,3.1-0.1
				c0.3,0,0.7,0,1,0c1.1,0,1.4,0,0.7,0c-0.4-0.6-0.9-1.1-1.3-1.7c0.5,2.5-0.1,5.9-0.3,8.5c-0.2,1.4,0.2,1-0.9,1.5
				c-0.5,0.1-1.1,0.2-1.6,0.3c-1.4,0-1.2,0.9,0.6,2.6c0.5,0,2-1.4,2.3-1.6c0.8-0.6,1.8-1.2,2.5-2c1-1.2,1.3-2.9,0.4-4.3
				c-1.8-2.9-6.7-5.4-10-5c-4.9,0.5-3.4,6.8-2.9,10.2c0.3,1.8,2.8,2.7,4.2,1.7c1.3-0.9,2.6-1.8,3.9-2.7c3-2.1,0.2-7.1-2.9-5
				c-1.3,0.9-2.6,1.8-3.9,2.7c1.4,0.6,2.8,1.1,4.2,1.7c-0.2-1.4-0.7-3.5-0.3-4.9c-0.7,0.7-1.3,1.3-2,2c1.1-0.4,4.4,1.5,4.9,2.5
				c-0.1-0.7-0.2-1.5-0.3-2.2c0.4-0.7,0.2-0.6-0.7,0.3c-0.5,0.4-1,0.7-1.5,1.1c-0.8,0.6-1.8,1.1-2.5,1.9c-1.1,1.3-1.5,3.3-0.6,4.8
				c1.7,3,7.5,2.2,10,0.7c3.8-2.3,3.1-8.8,3.2-12.5c0.1-2,0.3-4.2-1.5-5.5c-1.7-1.2-4.2-0.9-6.2-0.8c-3.7,0.1-8.8-0.3-10.4,3.9
				c-0.8,2.3-0.7,5.2-0.5,7.6c0.1,2,0.2,4.5,1.3,6.3c0.8,1.3,2.3,2.3,3.9,2.3c1.4,0,3.9-1,5-2c1.3-1.2,2-3.3,2.2-5
				c0.1-1.2-0.1-2.2-0.3-3.4c-0.2-1.1-0.7-1.8,0.6-1.8C350.3,15.6,350.3,9.9,346.6,10L346.6,10z"/>
		</g>
		<g id="XMLID_494_">
			<path id="XMLID_314_" fill="#0F0F0D" d="M351.4,7.8c-3.2,0-6.3,0-9.5,0c-1.6,0-4.2-0.4-5.6,0.6c-2.6,1.7-1.7,8.4-1.7,10.9
				c0,2.4-0.7,7.3,1.8,8.6c1.9,1,6.2,0.2,8.3,0c2.2-0.1,5.3,0.3,7.4-0.3c0.2-0.1,0.4-0.2,0.4-0.4c0.6-3.1,0.1-7,0-10.2
				c0-2.4,0.6-6.8-0.5-8.8c-0.3-0.7-1.3-0.1-1,0.6c0.9,1.7,0.3,5.7,0.3,7.6c0,2.5,0.4,5.3,0.1,7.7c-0.2,1.5-0.1,2-1.9,2.5
				c-1,0.3-2.3,0.1-3.4,0.1c-2.1,0.1-5.5,0.9-7.5,0.2c-4.2-1.4-2.9-11-2.5-14.7c0.3-2.5,1-2.9,3.8-3.2c1.1-0.1,2.3,0,3.4-0.1
				c2.7,0,5.4,0,8.2,0C352.1,8.9,352.1,7.8,351.4,7.8L351.4,7.8z"/>
		</g>
		<g id="XMLID_487_">
			<path id="XMLID_313_" fill="#FFFFFF" d="M340.6,14.7c0.1,2,0,4.1-0.1,6.1c0,0.4,0.7,0.4,0.7,0c0.1-2,0.2-4,0.1-6.1
				C341.2,14.3,340.5,14.3,340.6,14.7L340.6,14.7z"/>
		</g>
		<g id="XMLID_250_">
			<path id="XMLID_311_" fill="#FFFFFF" d="M345.1,14.9c-0.1,1.9-0.2,3.9-0.3,5.8c0,0.4,0.7,0.4,0.7,0c0.1-1.9,0.2-3.9,0.3-5.8
				C345.9,14.5,345.2,14.5,345.1,14.9L345.1,14.9z"/>
		</g>
		<g id="XMLID_25_">
			<path id="XMLID_310_" fill="#FFFFFF" d="M340.9,18c1.4,0,2.7,0,4.1-0.1c0.4,0,0.4-0.7,0-0.7c-1.4,0-2.7,0-4.1,0.1
				C340.5,17.3,340.5,18,340.9,18L340.9,18z"/>
		</g>
	</g>
	<g id="XMLID_17_">
		<g id="XMLID_76_">
			<path id="XMLID_309_" fill="#DB71A3" d="M380.6,10.4c0.1,2.7-0.2,5.5-0.3,8.2c-0.1,2.3-0.9,4-0.4,6.4c0.1-0.5,0.1-1.1,0.2-1.6
				c-0.5,0.8-6.2,0.2-7,0.1c-1.5-0.2-1.6-0.2-1.9-1.5c-0.3-1,0-2.5,0.1-3.5c0.1-0.8,0.4-5.9,1.3-6.6c-1,0.8,2.5,0.5,2.5,0.5
				c1,0,2.7-0.4,3.6,0c0.3,0,0.6,0,0.9,0c0.1,0.6,0.3,1.2,0.5,1.8c0.4,1.2,1,1.7,0.9,3.2c0,0.5-0.9,5,0.5,4.1
				c0.4-0.3-0.2-5.8-0.2-6.4c-0.1-1.4,0-2.8-1.4-3.5c-2.3-1.2-7.4-0.7-9,1.6c-0.8,1.1-0.9,2.5-0.9,3.9c0,1.7-0.2,4.1,0.5,5.7
				c1,2.2,5.1,2.4,6.7,0.6c1.7-1.8,1.5-6.6,0.1-8.5c-1.1-1.4-3.2-1.3-3.8,0.5c-0.9,2.5-1.6,7.2,1.9,8.2c3.4,0.9,4.1-3.5,3.8-5.8
				c-0.3-1.7-3.1-2.1-3.8-0.5c-1.1,2.3-1,4.2,0,6.5c1.1,2.4,4.6,0.3,3.6-2.1c0-0.8,0-1.5,0-2.3c-1.3-0.2-2.5-0.3-3.8-0.5
				c0.1,0.2,0.2,0.4,0.2,0.7c0.5,0.1,1.1,0.1,1.6,0.2c-0.7-0.5,0.2-2.7,0.4-3.3c-1.3,0.2-2.5,0.3-3.8,0.5c0.5,0.7,0.4,1.6,0.3,2.4
				c-0.1,1.2,0.2,1.2-1,0.8c0.5,0.5,1,1,1.4,1.4c-0.4-1.2-0.7-3.8-0.4-5c0.4-1.6,2.9-1.6,4.4-1.2c-0.5-0.5-1-1-1.4-1.4
				c0.9,3.2-1.4,9.4,2.5,11.4c1.4,0.7,3,0.3,4.1-0.6c1.5-1.2,1.2-2.6,1.1-4.3c-0.1-2.8,0.7-4.3-0.5-6.9c-0.8-1.6-0.7-3.7-2.5-4.7
				c-1.7-1-4.8-0.6-6.7-0.5c-1.6,0.1-4.2-0.2-5.6,1c-1.3,1.1-1.4,3.4-1.7,5c-0.5,2.4-0.7,4.7-0.8,7.1c0,1.7-0.3,3.6,1.2,4.8
				c1.6,1.3,4.1,1.5,6.1,1.6c3,0.1,8.8,0.6,9.6-3.3c0.2-1,0-2.2,0.2-3.3c0.1-0.9,0.2-1.7,0.3-2.5c0.1-2.7,0.4-5.5,0.3-8.2
				C384.6,7.8,380.5,7.8,380.6,10.4L380.6,10.4z"/>
		</g>
		<g id="XMLID_460_">
			<path id="XMLID_306_" fill="#FFFFFF" d="M370.9,21.9c0.3-2.1,1.9-3.8,4.2-3.7c0.9,0.1,1.8,0.2,2.5,0.9c0.5,0.6,1.3,1.9,1.2,2.7
				c-0.1,0.4,0.6,0.6,0.7,0.2c0.4-2.4-2-4.4-4.1-4.6c-1.2-0.1-2.5,0.5-3.5,1.2c-1.1,0.8-1.4,2-1.6,3.3
				C370.2,22.4,370.8,22.4,370.9,21.9L370.9,21.9z"/>
		</g>
		<g id="XMLID_453_">
			<path id="XMLID_301_" fill="#FFFFFF" d="M375.1,21.7c1.2-1.7,2.1-3.5,3-5.4c0.2-0.4-0.4-0.8-0.6-0.4c-0.9,1.9-1.8,3.7-3,5.4
				C374.2,21.7,374.8,22,375.1,21.7L375.1,21.7z"/>
		</g>
		<g id="XMLID_446_">
			<path id="XMLID_299_" fill="#FFFFFF" d="M375.8,16.8c0.5,0,0.9-0.3,1.4-0.4c0.1,0,0.2-0.1,0.4-0.1c0.2,0,0.1-0.1,0.2,0.1
				c0.1,0.3,0.1,0.6,0.1,0.9c0,0.4,0.7,0.4,0.7,0c0-0.5,0-1.6-0.6-1.8c-0.3-0.1-0.7,0-1,0.1c-0.4,0.1-0.8,0.4-1.2,0.4
				C375.4,16.1,375.4,16.8,375.8,16.8L375.8,16.8z"/>
		</g>
		<g id="XMLID_56_">
			<path id="XMLID_295_" fill="#FFFFFF" d="M379.3,14.4c0.7,0,1.5,0,2.2,0.1c-0.1-0.2-0.1-0.4-0.2-0.6c-0.8,0.7-1.5,1.6-2,2.6
				c-0.1,0.2,0,0.5,0.3,0.5c0.7,0,1.4-0.1,2.1-0.1c0.4,0,0.4-0.7,0-0.7c-0.7,0-1.4,0.1-2.1,0.1c0.1,0.2,0.2,0.3,0.3,0.5
				c0.5-1,1.1-1.8,1.9-2.5c0.2-0.2,0.1-0.5-0.2-0.6c-0.8-0.2-1.6-0.2-2.4-0.1C378.9,13.7,378.9,14.4,379.3,14.4L379.3,14.4z"/>
		</g>
		<g id="XMLID_54_">
			<path id="XMLID_293_" fill="#0F0F0D" d="M371,9.1c2.7-0.1,5.4,0,8,0.1c0.8,0,3.3-0.2,4,0.2c1.6,0.9,0.8,2.6,0.7,4
				c-0.2,2.2-0.1,4.4-0.3,6.6c-0.1,1.5,0.3,5.3-0.6,6.2c-1.3,1.4-6,0.8-7.8,0.8c-1.2,0-3.1,0.1-4.3-0.2c-3.1-0.9-2.6-2.2-2.6-4.6
				c0.1-2.6,0.5-5.2,0.7-7.8c0.1-1.1,0-2.3,0.2-3.4c0.5-2.1,1.1-2,3.1-2c0.7,0,0.7-1.2,0-1.1c-1.6,0-3.3-0.4-4.1,1.1
				c-0.8,1.5-0.3,5.1-0.5,6.8c-0.2,2.1-0.5,4.3-0.6,6.4c-0.1,2.4-1,4.7,1.4,5.4c4.2,1.2,9.4,0.5,13.7,0.2c1.8-0.1,2.2,0,2.5-1.7
				c0.3-1.8-0.3-4.3-0.1-6.2c0.2-2.2,0.1-4.3,0.3-6.5c0.2-1.7,1.1-4-0.4-5.2c-0.9-0.7-4.2-0.2-5.5-0.3c-2.7-0.1-5.4-0.2-8-0.1
				C370.2,7.9,370.2,9.1,371,9.1L371,9.1z"/>
		</g>
	</g>
	<g id="XMLID_645_">
		<g id="XMLID_667_">
			<path id="XMLID_289_" fill="#A2C754" d="M220,40.8c-3.5-0.4-7.3-0.3-10.8-0.2c-2,0-4.3,0.2-5.1,2.3c-0.6,1.5,0,4.2,0.2,5.8
				c0.1,1.1,0.3,2.2,0.4,3.2c0.1,1.5-0.8,2.2-1,3.6c-0.4,2.4,2,3.9,4.1,4.2c1.4,0.2,2.9-0.1,4.3-0.2c1.7-0.1,3.4,0,5.2,0
				c2.2,0,4.2-1,4.7-3.3c0.3-1.7,0-3.5-0.1-5.2c-0.1-2.1,0.1-4,0.5-6.1c0.3-1.5-1-3.5-2.8-2.8c-3.1,1.3-5.6,1.9-9,1.7
				c-1.9-0.1-4.7-0.6-5.7,1.4c-1,1.9,0.4,4.1,1.3,5.7c1,1.8,0.9,4.6,3.2,5.3c1.2,0.3,2.7,0.1,3.9,0.1c1.1,0,2.4,0.2,3.4-0.3
				c1.8-0.9,2.4-3.6,2.5-5.4c0.1-1.9-0.3-3.6-2.4-3.9c-2.2-0.3-5.8,0.1-7.8,1c-0.7,0.3-1.2,1.2-1.1,2c0.4,4.3,4.8,4.9,7.8,2.8
				c-0.9-1.2-1.8-2.4-2.8-3.6c-1.5,1.5-1.3,3.9,0.7,4.9c2.2,1,4.9-1.8,2.8-3.6c-1.7-1.5-3.4-1.9-5.6-1.6c-2.9,0.4-1.7,4.8,1.2,4.4
				c0.4,0.1,0.8,0.3,1.2,0.4c0.9-1.2,1.8-2.4,2.8-3.6c0.1,0.1,0.1,0.2,0.2,0.2c0.1,0.6,0.2,1.2,0.2,1.8c-0.1,0.1-0.1,0.2-0.2,0.2
				c1.7-1.8-0.5-5.1-2.8-3.6c-0.6,0.2-0.9,0.5-1,1.1c-0.4,0.7-0.8,1.3-1.1,2c0.8-0.4,3.9-0.7,5-0.5c-0.5-0.5-1.1-1.1-1.6-1.6
				c0.1,0.6,0.1,1.1-0.1,1.7c-0.2,1-0.3,1.1-0.2,0.4c-0.7,0.3-3.2,0.1-4,0c0.5,0.3,0.9,0.7,1.4,1c-0.3-0.4-2.3-6.5-2.8-5.6
				c-0.5,0.3-0.9,0.7-1.4,1c2.2-0.6,4.9,0.3,7.2,0.1c2.1-0.2,4-1.1,5.9-1.9c-0.9-0.9-1.9-1.9-2.8-2.8c-0.3,1.5-0.6,3.1-0.7,4.6
				c-0.1,1.6,0.8,4.5,0.2,6c-0.4,1-0.3,0.6-1.6,0.7c-0.9,0-1.8,0-2.7,0c-1.3,0.1-4.5,0.9-5.5-0.2c0.2,0.5,0.4,1.1,0.7,1.6
				c0-0.1,0.6-1.1,0.8-1.6c0.3-0.9,0.3-1.8,0.3-2.8c-0.1-1.7-0.5-3.3-0.6-5c0-0.4,0.1-0.6,0-1c0-0.1-0.6-1.5-0.6-0.9
				c-0.5,0.1-0.6,0.1-0.1,0c0.2,0,0.5,0,0.7,0c0.5,0,1,0,1.5,0c3.2,0,6.5-0.2,9.6,0.2C222.9,45.7,222.9,41.1,220,40.8L220,40.8z"/>
		</g>
		<g id="XMLID_660_">
			<path id="XMLID_286_" d="M212.2,40.4c-1.7,0-5.6-0.4-7,0.7c-1.6,1.3-0.2,7.1-0.2,8.9c0,2.1-1.5,8,0.1,9.7c1.4,1.6,6.5,0,8.4,0
				c1.7,0,7.5,1.3,8.6,0c0.5-0.6,0.1-2.5,0.1-3.1c-0.1-2.1-0.5-4.3-0.5-6.4c0-2.4,0.5-4.7,0.7-7c0.1-0.8,0.3-1.9-0.4-2.5
				c-0.5-0.5-1.7-0.3-2.4-0.3C217.2,40.3,214.7,40.4,212.2,40.4c-0.4,0-0.4,0.7,0,0.7c2.1,0,5.4-0.7,7.5-0.1c3.4,1,1.6,5.2,1.4,7.8
				c-0.1,2.5,0.8,5.3,0.4,7.7c-0.3,2.2-0.8,2.3-2.8,2.6c-1.5,0.2-3.2-0.2-4.6-0.2c-2.1-0.1-6.1,1.2-7.7-0.3
				c-1.7-1.5-0.8-5.3-0.7-7.5c0.1-2.5-0.9-6.8,0.6-8.8c1.3-1.7,3.8-1.3,5.9-1.4C212.6,41.1,212.7,40.4,212.2,40.4L212.2,40.4z"/>
		</g>
		<g id="XMLID_653_">
			<path id="XMLID_282_" fill="#FFFFFF" d="M211.1,52.9c1.2-1.9,2.9-3.6,4.4-5.2c0.3-0.3-0.2-0.8-0.5-0.5c-1.5,1.7-3.3,3.4-4.5,5.4
				C210.3,52.9,210.9,53.3,211.1,52.9L211.1,52.9z"/>
		</g>
		<g id="XMLID_646_">
			<path id="XMLID_274_" fill="#FFFFFF" d="M210.5,47.6c1.4,1.9,2.6,3.9,4.3,5.5c0.3,0.3,0.8-0.2,0.5-0.5c-1.6-1.6-2.8-3.6-4.1-5.4
				C210.8,46.9,210.2,47.2,210.5,47.6L210.5,47.6z"/>
		</g>
	</g>
	<g id="XMLID_602_">
		<g id="XMLID_638_">
			<path id="XMLID_280_" fill="#0F0F0D" d="M252.5,42.6c-0.5-0.8-2-0.6-2.7-0.6c-1.8-0.1-3.6,0-5.4,0.2c-0.7,0.1-0.7,1.2,0,1.1
				c1.2-0.1,2.5-0.2,3.7-0.2c0.3,0,3.4-0.1,3.5,0C251.9,43.8,252.9,43.3,252.5,42.6L252.5,42.6z"/>
		</g>
		<g id="XMLID_631_">
			<path id="XMLID_265_" fill="#29B2DF" d="M248.9,42.5c-2.7,0.1-5.3,1-6.2,3.8c-0.4,1.2-0.4,2.4-0.2,3.6c0.2,1.1,0.7,3.5,0.5,3.9
				c-0.1,0.1-1.6,0.6-1.6,0.6c1.4,0.2,0.8-1.4,0.7-2.2c-0.1-1.1-0.7-4.9,0.1-5.8c0.3-0.4,2.6-0.4,3.5-0.4c1,0,2.1-0.1,3.1-0.1
				c0.3,0,0.7,0,1,0c1.1,0,1.4,0,0.7,0c-0.4-0.6-0.9-1.1-1.3-1.7c0.5,2.5-0.1,5.9-0.3,8.5c-0.2,1.4,0.2,1-0.9,1.5
				c-0.5,0.1-1.1,0.2-1.6,0.3c-1.4,0-1.2,0.9,0.6,2.6c0.5,0,2-1.4,2.3-1.6c0.8-0.6,1.8-1.2,2.5-2c1-1.2,1.3-2.9,0.4-4.3
				c-1.8-2.9-6.7-5.4-10-5c-4.9,0.5-3.4,6.8-2.9,10.2c0.3,1.8,2.8,2.7,4.2,1.7c1.3-0.9,2.6-1.8,3.9-2.7c3-2.1,0.2-7.1-2.9-5
				c-1.3,0.9-2.6,1.8-3.9,2.7c1.4,0.6,2.8,1.1,4.2,1.7c-0.2-1.4-0.7-3.5-0.3-4.9c-0.7,0.7-1.3,1.3-2,2c1.1-0.4,4.4,1.5,4.9,2.5
				c-0.1-0.7-0.2-1.5-0.3-2.2c0.4-0.7,0.2-0.6-0.7,0.3c-0.5,0.4-1,0.7-1.5,1.1c-0.8,0.6-1.8,1.1-2.5,1.9c-1.1,1.3-1.5,3.3-0.6,4.8
				c1.7,3,7.5,2.2,10,0.7c3.8-2.3,3.1-8.8,3.2-12.5c0.1-2,0.3-4.2-1.5-5.5c-1.7-1.2-4.2-0.9-6.2-0.8c-3.7,0.1-8.8-0.3-10.4,3.9
				c-0.8,2.3-0.7,5.2-0.5,7.6c0.1,2,0.2,4.5,1.3,6.3c0.8,1.3,2.3,2.3,3.9,2.3c1.4,0,3.9-1,5-2c1.3-1.2,2-3.3,2.2-5
				c0.1-1.2-0.1-2.2-0.3-3.4c-0.2-1.1-0.7-1.8,0.6-1.8C252.6,48.2,252.6,42.4,248.9,42.5L248.9,42.5z"/>
		</g>
		<g id="XMLID_624_">
			<path id="XMLID_263_" fill="#0F0F0D" d="M253.7,40.3c-3.2,0-6.3,0-9.5,0c-1.6,0-4.2-0.4-5.6,0.6c-2.6,1.7-1.7,8.4-1.7,10.9
				c0,2.4-0.7,7.3,1.8,8.6c1.9,1,6.2,0.2,8.3,0c2.2-0.1,5.3,0.3,7.4-0.3c0.2-0.1,0.4-0.2,0.4-0.4c0.6-3.1,0.1-7,0-10.2
				c0-2.4,0.6-6.8-0.5-8.8c-0.3-0.7-1.3-0.1-1,0.6c0.9,1.7,0.3,5.7,0.3,7.6c0,2.5,0.4,5.3,0.1,7.7c-0.2,1.5-0.1,2-1.9,2.5
				c-1,0.3-2.3,0.1-3.4,0.1c-2.1,0.1-5.5,0.9-7.5,0.2c-4.2-1.4-2.9-11-2.5-14.7c0.3-2.5,1-2.9,3.8-3.2c1.1-0.1,2.3,0,3.4-0.1
				c2.7,0,5.4,0,8.2,0C254.5,41.5,254.5,40.3,253.7,40.3L253.7,40.3z"/>
		</g>
		<g id="XMLID_617_">
			<path id="XMLID_259_" fill="#FFFFFF" d="M242.9,47.3c0.1,2,0,4.1-0.1,6.1c0,0.4,0.7,0.4,0.7,0c0.1-2,0.2-4,0.1-6.1
				C243.6,46.8,242.9,46.8,242.9,47.3L242.9,47.3z"/>
		</g>
		<g id="XMLID_610_">
			<path id="XMLID_257_" fill="#FFFFFF" d="M247.5,47.5c-0.1,1.9-0.2,3.9-0.3,5.8c0,0.4,0.7,0.4,0.7,0c0.1-1.9,0.2-3.9,0.3-5.8
				C248.2,47,247.5,47,247.5,47.5L247.5,47.5z"/>
		</g>
		<g id="XMLID_603_">
			<path id="XMLID_251_" fill="#FFFFFF" d="M243.3,50.5c1.4,0,2.7,0,4.1-0.1c0.4,0,0.4-0.7,0-0.7c-1.4,0-2.7,0-4.1,0.1
				C242.8,49.8,242.8,50.5,243.3,50.5L243.3,50.5z"/>
		</g>
	</g>
	<g id="XMLID_558_">
		<g id="XMLID_595_">
			<path id="XMLID_247_" fill="#0F0F0D" d="M350.2,42.6c-0.5-0.8-2-0.6-2.7-0.6c-1.8-0.1-3.6,0-5.4,0.2c-0.7,0.1-0.7,1.2,0,1.1
				c1.2-0.1,2.5-0.2,3.7-0.2c0.3,0,3.4-0.1,3.5,0C349.5,43.8,350.5,43.3,350.2,42.6L350.2,42.6z"/>
		</g>
		<g id="XMLID_587_">
			<path id="XMLID_236_" fill="#29B2DF" d="M346.6,42.5c-2.7,0.1-5.3,1-6.2,3.8c-0.4,1.2-0.4,2.4-0.2,3.6c0.2,1.1,0.7,3.5,0.5,3.9
				c-0.1,0.1-1.6,0.6-1.6,0.6c1.4,0.2,0.8-1.4,0.7-2.2c-0.1-1.1-0.7-4.9,0.1-5.8c0.3-0.4,2.6-0.4,3.5-0.4c1,0,2.1-0.1,3.1-0.1
				c0.3,0,0.7,0,1,0c1.1,0,1.4,0,0.7,0c-0.4-0.6-0.9-1.1-1.3-1.7c0.5,2.5-0.1,5.9-0.3,8.5c-0.2,1.4,0.2,1-0.9,1.5
				c-0.5,0.1-1.1,0.2-1.6,0.3c-1.4,0-1.2,0.9,0.6,2.6c0.5,0,2-1.4,2.3-1.6c0.8-0.6,1.8-1.2,2.5-2c1-1.2,1.3-2.9,0.4-4.3
				c-1.8-2.9-6.7-5.4-10-5c-4.9,0.5-3.4,6.8-2.9,10.2c0.3,1.8,2.8,2.7,4.2,1.7c1.3-0.9,2.6-1.8,3.9-2.7c3-2.1,0.2-7.1-2.9-5
				c-1.3,0.9-2.6,1.8-3.9,2.7c1.4,0.6,2.8,1.1,4.2,1.7c-0.2-1.4-0.7-3.5-0.3-4.9c-0.7,0.7-1.3,1.3-2,2c1.1-0.4,4.4,1.5,4.9,2.5
				c-0.1-0.7-0.2-1.5-0.3-2.2c0.4-0.7,0.2-0.6-0.7,0.3c-0.5,0.4-1,0.7-1.5,1.1c-0.8,0.6-1.8,1.1-2.5,1.9c-1.1,1.3-1.5,3.3-0.6,4.8
				c1.7,3,7.5,2.2,10,0.7c3.8-2.3,3.1-8.8,3.2-12.5c0.1-2,0.3-4.2-1.5-5.5c-1.7-1.2-4.2-0.9-6.2-0.8c-3.7,0.1-8.8-0.3-10.4,3.9
				c-0.8,2.3-0.7,5.2-0.5,7.6c0.1,2,0.2,4.5,1.3,6.3c0.8,1.3,2.3,2.3,3.9,2.3c1.4,0,3.9-1,5-2c1.3-1.2,2-3.3,2.2-5
				c0.1-1.2-0.1-2.2-0.3-3.4c-0.2-1.1-0.7-1.8,0.6-1.8C350.3,48.2,350.3,42.4,346.6,42.5L346.6,42.5z"/>
		</g>
		<g id="XMLID_580_">
			<path id="XMLID_223_" fill="#0F0F0D" d="M351.4,40.3c-3.2,0-6.3,0-9.5,0c-1.6,0-4.2-0.4-5.6,0.6c-2.6,1.7-1.7,8.4-1.7,10.9
				c0,2.4-0.7,7.3,1.8,8.6c1.9,1,6.2,0.2,8.3,0c2.2-0.1,5.3,0.3,7.4-0.3c0.2-0.1,0.4-0.2,0.4-0.4c0.6-3.1,0.1-7,0-10.2
				c0-2.4,0.6-6.8-0.5-8.8c-0.3-0.7-1.3-0.1-1,0.6c0.9,1.7,0.3,5.7,0.3,7.6c0,2.5,0.4,5.3,0.1,7.7c-0.2,1.5-0.1,2-1.9,2.5
				c-1,0.3-2.3,0.1-3.4,0.1c-2.1,0.1-5.5,0.9-7.5,0.2c-4.2-1.4-2.9-11-2.5-14.7c0.3-2.5,1-2.9,3.8-3.2c1.1-0.1,2.3,0,3.4-0.1
				c2.7,0,5.4,0,8.2,0C352.1,41.5,352.1,40.3,351.4,40.3L351.4,40.3z"/>
		</g>
		<g id="XMLID_573_">
			<path id="XMLID_198_" fill="#FFFFFF" d="M340.6,47.3c0.1,2,0,4.1-0.1,6.1c0,0.4,0.7,0.4,0.7,0c0.1-2,0.2-4,0.1-6.1
				C341.2,46.8,340.5,46.8,340.6,47.3L340.6,47.3z"/>
		</g>
		<g id="XMLID_566_">
			<path id="XMLID_188_" fill="#FFFFFF" d="M345.1,47.5c-0.1,1.9-0.2,3.9-0.3,5.8c0,0.4,0.7,0.4,0.7,0c0.1-1.9,0.2-3.9,0.3-5.8
				C345.9,47,345.2,47,345.1,47.5L345.1,47.5z"/>
		</g>
		<g id="XMLID_559_">
			<path id="XMLID_182_" fill="#FFFFFF" d="M340.9,50.5c1.4,0,2.7,0,4.1-0.1c0.4,0,0.4-0.7,0-0.7c-1.4,0-2.7,0-4.1,0.1
				C340.5,49.8,340.5,50.5,340.9,50.5L340.9,50.5z"/>
		</g>
	</g>
	<g id="XMLID_515_">
		<g id="XMLID_551_">
			<path id="XMLID_176_" fill="#DB71A3" d="M380.6,43c0.1,2.7-0.2,5.5-0.3,8.2c-0.1,2.3-0.9,4-0.4,6.4c0.1-0.5,0.1-1.1,0.2-1.6
				c-0.5,0.8-6.2,0.2-7,0.1c-1.5-0.2-1.6-0.2-1.9-1.5c-0.3-1,0-2.5,0.1-3.5c0.1-0.8,0.4-5.9,1.3-6.6c-1,0.8,2.5,0.5,2.5,0.5
				c1,0,2.7-0.4,3.6,0c0.3,0,0.6,0,0.9,0c0.1,0.6,0.3,1.2,0.5,1.8c0.4,1.2,1,1.7,0.9,3.2c0,0.5-0.9,5,0.5,4.1
				c0.4-0.3-0.2-5.8-0.2-6.4c-0.1-1.4,0-2.8-1.4-3.5c-2.3-1.2-7.4-0.7-9,1.6c-0.8,1.1-0.9,2.5-0.9,3.9c0,1.7-0.2,4.1,0.5,5.7
				c1,2.2,5.1,2.4,6.7,0.6c1.7-1.8,1.5-6.6,0.1-8.5c-1.1-1.4-3.2-1.3-3.8,0.5c-0.9,2.5-1.6,7.2,1.9,8.2c3.4,0.9,4.1-3.5,3.8-5.8
				c-0.3-1.7-3.1-2.1-3.8-0.5c-1.1,2.3-1,4.2,0,6.5c1.1,2.4,4.6,0.3,3.6-2.1c0-0.8,0-1.5,0-2.3c-1.3-0.2-2.5-0.3-3.8-0.5
				c0.1,0.2,0.2,0.4,0.2,0.7c0.5,0.1,1.1,0.1,1.6,0.2c-0.7-0.5,0.2-2.7,0.4-3.3c-1.3,0.2-2.5,0.3-3.8,0.5c0.5,0.7,0.4,1.6,0.3,2.4
				c-0.1,1.2,0.2,1.2-1,0.8c0.5,0.5,1,1,1.4,1.4c-0.4-1.2-0.7-3.8-0.4-5c0.4-1.6,2.9-1.6,4.4-1.2c-0.5-0.5-1-1-1.4-1.4
				c0.9,3.2-1.4,9.4,2.5,11.4c1.4,0.7,3,0.3,4.1-0.6c1.5-1.2,1.2-2.6,1.1-4.3c-0.1-2.8,0.7-4.3-0.5-6.9c-0.8-1.6-0.7-3.7-2.5-4.7
				c-1.7-1-4.8-0.6-6.7-0.5c-1.6,0.1-4.2-0.2-5.6,1c-1.3,1.1-1.4,3.4-1.7,5c-0.5,2.4-0.7,4.7-0.8,7.1c0,1.7-0.3,3.6,1.2,4.8
				c1.6,1.3,4.1,1.5,6.1,1.6c3,0.1,8.8,0.6,9.6-3.3c0.2-1,0-2.2,0.2-3.3c0.1-0.9,0.2-1.7,0.3-2.5c0.1-2.7,0.4-5.5,0.3-8.2
				C384.6,40.3,380.5,40.3,380.6,43L380.6,43z"/>
		</g>
		<g id="XMLID_544_">
			<path id="XMLID_170_" fill="#FFFFFF" d="M370.9,54.5c0.3-2.1,1.9-3.8,4.2-3.7c0.9,0.1,1.8,0.2,2.5,0.9c0.5,0.6,1.3,1.9,1.2,2.7
				c-0.1,0.4,0.6,0.6,0.7,0.2c0.4-2.4-2-4.4-4.1-4.6c-1.2-0.1-2.5,0.5-3.5,1.2c-1.1,0.8-1.4,2-1.6,3.3
				C370.2,54.9,370.8,54.9,370.9,54.5L370.9,54.5z"/>
		</g>
		<g id="XMLID_537_">
			<path id="XMLID_158_" fill="#FFFFFF" d="M375.1,54.2c1.2-1.7,2.1-3.5,3-5.4c0.2-0.4-0.4-0.8-0.6-0.4c-0.9,1.9-1.8,3.7-3,5.4
				C374.2,54.2,374.8,54.6,375.1,54.2L375.1,54.2z"/>
		</g>
		<g id="XMLID_530_">
			<path id="XMLID_152_" fill="#FFFFFF" d="M375.8,49.3c0.5,0,0.9-0.3,1.4-0.4c0.1,0,0.2-0.1,0.4-0.1c0.2,0,0.1-0.1,0.2,0.1
				c0.1,0.3,0.1,0.6,0.1,0.9c0,0.4,0.7,0.4,0.7,0c0-0.5,0-1.6-0.6-1.8c-0.3-0.1-0.7,0-1,0.1c-0.4,0.1-0.8,0.4-1.2,0.4
				C375.4,48.6,375.4,49.3,375.8,49.3L375.8,49.3z"/>
		</g>
		<g id="XMLID_523_">
			<path id="XMLID_146_" fill="#FFFFFF" d="M379.3,46.9c0.7,0,1.5,0,2.2,0.1c-0.1-0.2-0.1-0.4-0.2-0.6c-0.8,0.7-1.5,1.6-2,2.6
				c-0.1,0.2,0,0.5,0.3,0.5c0.7,0,1.4-0.1,2.1-0.1c0.4,0,0.4-0.7,0-0.7c-0.7,0-1.4,0.1-2.1,0.1c0.1,0.2,0.2,0.3,0.3,0.5
				c0.5-1,1.1-1.8,1.9-2.5c0.2-0.2,0.1-0.5-0.2-0.6c-0.8-0.2-1.6-0.2-2.4-0.1C378.9,46.2,378.9,46.9,379.3,46.9L379.3,46.9z"/>
		</g>
		<g id="XMLID_516_">
			<path id="XMLID_140_" fill="#0F0F0D" d="M371,41.6c2.7-0.1,5.4,0,8,0.1c0.8,0,3.3-0.2,4,0.2c1.6,0.9,0.8,2.6,0.7,4
				c-0.2,2.2-0.1,4.4-0.3,6.6c-0.1,1.5,0.3,5.3-0.6,6.2c-1.3,1.4-6,0.8-7.8,0.8c-1.2,0-3.1,0.1-4.3-0.2c-3.1-0.9-2.6-2.2-2.6-4.6
				c0.1-2.6,0.5-5.2,0.7-7.8c0.1-1.1,0-2.3,0.2-3.4c0.5-2.1,1.1-2,3.1-2c0.7,0,0.7-1.2,0-1.1c-1.6,0-3.3-0.4-4.1,1.1
				c-0.8,1.5-0.3,5.1-0.5,6.8c-0.2,2.1-0.5,4.3-0.6,6.4c-0.1,2.4-1,4.7,1.4,5.4c4.2,1.2,9.4,0.5,13.7,0.2c1.8-0.1,2.2,0,2.5-1.7
				c0.3-1.8-0.3-4.3-0.1-6.2c0.2-2.2,0.1-4.3,0.3-6.5c0.2-1.7,1.1-4-0.4-5.2c-0.9-0.7-4.2-0.2-5.5-0.3c-2.7-0.1-5.4-0.2-8-0.1
				C370.2,40.5,370.2,41.6,371,41.6L371,41.6z"/>
		</g>
	</g>
</g>
<g id="Layer_5" display="none">
</g>
<g id="Layer_2" display="none">
	<g id="XMLID_9_" display="inline">
		<g id="XMLID_439_">
			<path id="XMLID_205_" fill="#29B2DF" d="M282,52.4c0.3-0.8,0.6-1.4,0.3-2.3c-0.1-0.5-0.4-1-0.8-1.4c-0.5-0.5-1.1-0.7-1.8-1
				c0.4,0.2,0.8,0.5,1.3,0.7c0,0,0,0-0.1-0.1c0.2,0.4,0.5,0.8,0.7,1.3c-0.2-0.5-0.4-1-0.8-1.4c-0.4-0.4-0.8-0.6-1.3-0.8
				c-0.8-0.3-1.9-0.1-2.7,0.3c-0.4,0.3-0.9,0.6-1.3,1c-1,1-1.2,2.6-0.5,3.8c1,1.6,3.3,2.1,4.9,1.2c0.9-0.5,1.4-1.4,1.6-2.4
				c0.1-0.7,0-1.3-0.4-1.9c-0.1-0.3-0.3-0.5-0.5-0.7c-0.3-0.4-0.2-0.1,0.4,0.8c0,0.3,0.1,0.5,0.1,0.8c0,0,0-0.1,0-0.1
				c0,0.3-0.1,0.5-0.1,0.8c-0.2,0.3-0.4,0.6-0.6,0.9c1.1-1,1.1-3,0-4.1c-1.2-1.1-2.9-1.1-4.1,0c-0.7,0.7-1,1.6-1,2.5
				c0,0.5,0.2,1.1,0.4,1.6c0.2,0.2,0.3,0.5,0.5,0.7c0.3,0.4,0.2,0.1-0.5-0.8c0-0.5,0-1,0-1.5c0.5-0.5,1.1-1.1,1.6-1.6
				c0.3,0,0.5-0.1,0.8-0.1c-0.1,0-0.2,0-0.3,0c0.3,0,0.5,0.1,0.8,0.1c-0.7-0.2-0.3,0.2,1.2,1c0.1,0.5,0.3,1,0.4,1.4c0,0,0-0.1,0-0.1
				c0,0.3-0.1,0.5-0.1,0.8c0,0,0-0.1,0.1-0.1c-0.2,0.4-0.5,0.8-0.7,1.3c-0.4,0.3-0.5,0.3-0.3,0.2c0.1,0,0.1-0.1,0.2-0.1
				c0,0,0.1-0.1,0.1-0.1c0.3-0.2,0.1-0.1-0.3,0.1c-0.3,0-0.5,0.1-0.8,0.1c0,0,0.1,0,0.1,0c-0.3,0-0.5-0.1-0.8-0.1c0,0,0.1,0,0.1,0
				c-0.4-0.2-0.8-0.5-1.3-0.7c0,0,0,0.1,0.1,0.1c-0.2-0.4-0.5-0.8-0.7-1.3c0.2,0.6,0.4,1.1,0.9,1.5c0.4,0.3,0.8,0.6,1.3,0.7
				c0.6,0.2-0.2,0.1-0.8-0.5c-0.2-0.4-0.5-0.8-0.7-1.3c0,0,0,0.1,0,0.1c0.1-0.7,0.2-1.5,0.3-2.2c0,0,0,0.1,0,0.1
				c-0.3,0.7-0.5,1.4-0.3,2.2c0.2,0.7,0.7,1.4,1.3,1.7C279.3,54.1,281.4,53.9,282,52.4L282,52.4z"/>
		</g>
		<g id="XMLID_438_">
			<path id="XMLID_202_" fill="#29B2DF" d="M277.2,23.3c0.2-0.2,0.5-0.5,0.7-0.7c0.7-0.1,1.5-0.2,2.2-0.3c-1.6-0.3-3.3-0.8-4.1-2.3
				c-1.1-1.9-0.7-3.6,1.4-4.5c1.8-0.8,3.3,0,3.7,1.9c0.4,2.1-1,2.6-1.8,4.3c1.7,0,3.3,0,5,0c-0.5-0.7-0.8-1.7-1.2-2.5
				c-0.1-0.3-0.2-0.6-0.4-0.9c-0.4-1.2-0.5-1.2-0.3-0.1c-0.4,0.6-0.9,1.1-1.3,1.7c-0.1,0-0.2,0.1-0.3,0.1c3.3-0.1,3.8-4.6,0.8-5.6
				c-3.6-1.2-7.3,0.5-7.1,4.6c0.1,1.7,0.6,3.4,2.2,4.2c1.6,0.8,2.9-0.1,4.2-0.2c3.6-0.3,3.7-6.1,0-5.7c-0.4,0-2.1,0.6-2.3,0.5
				c0.6,0.4,1.1,0.9,1.7,1.3c0-0.7-0.1-0.7-0.5,0c-0.6,0.5-0.5,0.7,0.3,0.8c0.3-1.9,0.5-3.8,0.8-5.6c-2.1,0.1-4.1,1.1-4.1,3.5
				c0,1,0.6,2,0.9,2.9c0.5,1.3,0.9,2.7,1.7,3.9c1.2,1.6,3.9,2.1,5,0c1-2,2.6-2.9,2.7-5.4c0.1-2.3-0.4-4.8-1.8-6.7
				c-3-3.9-8.6-3.8-12.2-0.9c-1.7,1.4-2.8,3.3-3.3,5.5c-0.4,2.3,0.6,4.4,1.7,6.3c1.6,2.7,8.7,6.8,10.9,2.7
				C283.9,22.9,278.9,20,277.2,23.3L277.2,23.3z"/>
		</g>
		<g id="XMLID_432_">
			<path id="XMLID_201_" fill="#29B2DF" d="M278,28c0,6.7-0.1,13.4-0.1,20.1c0,0.6,0.9,0.6,0.9,0c0-6.7,0.1-13.4,0.1-20.1
				C278.9,27.4,278,27.4,278,28L278,28z"/>
		</g>
		<g id="XMLID_426_">
			<path id="XMLID_191_" fill="#0F0F0D" d="M279,9c-4.2-0.2-8.5,3.5-9.3,7.6c-1,5.5,2.5,8.9,7.3,10.6c0.3,0.1,0.5-0.4,0.2-0.6
				c-4.5-1.6-7.9-4.8-6.9-10c0.8-3.8,4.7-7.3,8.7-7.2C279.4,9.6,279.4,9,279,9L279,9z"/>
		</g>
		<g id="XMLID_420_">
			<path id="XMLID_184_" fill="#0F0F0D" d="M278.8,9.5c4.3,0.8,7.7,2.9,8.2,7.5c0.5,5.3-2.4,8.2-7.3,9.7c-0.4,0.1-0.2,0.7,0.2,0.6
				c4.8-1.4,8.2-4.4,7.8-9.7c-0.4-5.2-3.6-7.7-8.7-8.6C278.6,8.9,278.4,9.5,278.8,9.5L278.8,9.5z"/>
		</g>
		<g id="XMLID_414_">
			<path id="XMLID_178_" fill="#0F0F0D" d="M276.8,27.2c0.4,0.1,0.9,0.3,1.3,0.4c0.4,0.1,0.5-0.4,0.2-0.6c-0.4-0.1-0.9-0.3-1.3-0.4
				C276.6,26.5,276.4,27.1,276.8,27.2L276.8,27.2z"/>
		</g>
		<g id="XMLID_253_">
			<path id="XMLID_172_" fill="#0F0F0D" d="M277.9,27.6c-0.2,6.6-0.2,13.1-0.1,19.7c0,0.4,0.6,0.4,0.6,0c-0.1-6.6,0-13.1,0.1-19.7
				C278.5,27.3,277.9,27.3,277.9,27.6L277.9,27.6z"/>
		</g>
		<g id="XMLID_22_">
			<path id="XMLID_166_" fill="#0F0F0D" d="M279.1,47.3c0-3.5,0-7,0.1-10.5c0-1.2-0.8-8.9,0.5-9.5c0.3-0.2,0-0.7-0.3-0.5
				c-1.2,0.6-0.8,3.4-0.8,4.3c0,5.4-0.1,10.8-0.1,16.2C278.6,47.7,279.1,47.7,279.1,47.3L279.1,47.3z"/>
		</g>
		<g id="XMLID_20_">
			<path id="XMLID_160_" fill="#0F0F0D" d="M277.9,47c-1.7,1-3.1,2.1-2.9,4.4c0.3,2.2,2.1,3.2,4.1,2.9c1.7-0.2,3.2-1.7,3.2-3.5
				c0-2-1.7-3.3-3.5-3.8c-0.4-0.1-0.5,0.4-0.2,0.6c1.3,0.4,2.6,1.1,3,2.6c0.5,1.8-1.2,3.5-2.9,3.6c-1.9,0.1-3.3-1.2-3.2-3.1
				c0.1-1.7,1.3-2.3,2.6-3.1C278.5,47.3,278.2,46.8,277.9,47L277.9,47z"/>
		</g>
		<g id="XMLID_19_">
			<path id="XMLID_154_" fill="#0F0F0D" d="M279.3,27.6c0.2-0.3,0.1-0.2,0.4-0.3c0.4-0.1,0.2-0.6-0.2-0.6c-0.4,0.1-0.5,0.2-0.7,0.6
				C278.6,27.7,279.1,28,279.3,27.6L279.3,27.6z"/>
		</g>
		<g id="XMLID_11_">
			<path id="XMLID_148_" fill="#FFFFFF" d="M276.1,18.7c1.7,0,3.4,0,5-0.1c0.7,0,0.7-1.2,0-1.1c-1.7,0.1-3.3,0.1-5,0.1
				C275.3,17.5,275.3,18.7,276.1,18.7L276.1,18.7z"/>
		</g>
		<g id="XMLID_10_">
			<path id="XMLID_209_" fill="#FFFFFF" d="M277.6,15.8c0,1.5,0.1,3.1,0,4.6c0,0.7,1.1,0.7,1.1,0c0-1.5,0-3.1,0-4.6
				C278.7,15.1,277.6,15.1,277.6,15.8L277.6,15.8z"/>
		</g>
	</g>
</g>
<g id="Layer_3" display="none">
	<g id="XMLID_23_" display="inline">
		<g id="XMLID_437_">
			<path id="XMLID_110_" fill="#29B2DF" d="M282,52.4c0.3-0.8,0.6-1.4,0.3-2.3c-0.1-0.5-0.4-1-0.8-1.4c-0.5-0.5-1.1-0.7-1.8-1
				c0.4,0.2,0.8,0.5,1.3,0.7c0,0,0,0-0.1-0.1c0.2,0.4,0.5,0.8,0.7,1.3c-0.2-0.5-0.4-1-0.8-1.4c-0.4-0.4-0.8-0.6-1.3-0.8
				c-0.8-0.3-1.9-0.1-2.7,0.3c-0.4,0.3-0.9,0.6-1.3,1c-1,1-1.2,2.6-0.5,3.8c1,1.6,3.3,2.1,4.9,1.2c0.9-0.5,1.4-1.4,1.6-2.4
				c0.1-0.7,0-1.3-0.4-1.9c-0.1-0.3-0.3-0.5-0.5-0.7c-0.3-0.4-0.2-0.1,0.4,0.8c0,0.3,0.1,0.5,0.1,0.8c0,0,0-0.1,0-0.1
				c0,0.3-0.1,0.5-0.1,0.8c-0.2,0.3-0.4,0.6-0.6,0.9c1.1-1,1.1-3,0-4.1c-1.2-1.1-2.9-1.1-4.1,0c-0.7,0.7-1,1.6-1,2.5
				c0,0.5,0.2,1.1,0.4,1.6c0.2,0.2,0.3,0.5,0.5,0.7c0.3,0.4,0.2,0.1-0.5-0.8c0-0.5,0-1,0-1.5c0.5-0.5,1.1-1.1,1.6-1.6
				c0.3,0,0.5-0.1,0.8-0.1c-0.1,0-0.2,0-0.3,0c0.3,0,0.5,0.1,0.8,0.1c-0.7-0.2-0.3,0.2,1.2,1c0.1,0.5,0.3,1,0.4,1.4c0,0,0-0.1,0-0.1
				c0,0.3-0.1,0.5-0.1,0.8c0,0,0-0.1,0.1-0.1c-0.2,0.4-0.5,0.8-0.7,1.3c-0.4,0.3-0.5,0.3-0.3,0.2c0.1,0,0.1-0.1,0.2-0.1
				c0,0,0.1-0.1,0.1-0.1c0.3-0.2,0.1-0.1-0.3,0.1c-0.3,0-0.5,0.1-0.8,0.1c0,0,0.1,0,0.1,0c-0.3,0-0.5-0.1-0.8-0.1c0,0,0.1,0,0.1,0
				c-0.4-0.2-0.8-0.5-1.3-0.7c0,0,0,0.1,0.1,0.1c-0.2-0.4-0.5-0.8-0.7-1.3c0.2,0.6,0.4,1.1,0.9,1.5c0.4,0.3,0.8,0.6,1.3,0.7
				c0.6,0.2-0.2,0.1-0.8-0.5c-0.2-0.4-0.5-0.8-0.7-1.3c0,0,0,0.1,0,0.1c0.1-0.7,0.2-1.5,0.3-2.2c0,0,0,0.1,0,0.1
				c-0.3,0.7-0.5,1.4-0.3,2.2c0.2,0.7,0.7,1.4,1.3,1.7C279.3,54.1,281.4,53.9,282,52.4L282,52.4z"/>
		</g>
		<g id="XMLID_402_">
			<path id="XMLID_109_" fill="#29B2DF" d="M277.2,23.3c0.2-0.2,0.5-0.5,0.7-0.7c0.7-0.1,1.5-0.2,2.2-0.3c-1.6-0.3-3.3-0.8-4.1-2.3
				c-1.1-1.9-0.7-3.6,1.4-4.5c1.8-0.8,3.3,0,3.7,1.9c0.4,2.1-1,2.6-1.8,4.3c1.7,0,3.3,0,5,0c-0.5-0.7-0.8-1.7-1.2-2.5
				c-0.1-0.3-0.2-0.6-0.4-0.9c-0.4-1.2-0.5-1.2-0.3-0.1c-0.4,0.6-0.9,1.1-1.3,1.7c-0.1,0-0.2,0.1-0.3,0.1c3.3-0.1,3.8-4.6,0.8-5.6
				c-3.6-1.2-7.3,0.5-7.1,4.6c0.1,1.7,0.6,3.4,2.2,4.2c1.6,0.8,2.9-0.1,4.2-0.2c3.6-0.3,3.7-6.1,0-5.7c-0.4,0-2.1,0.6-2.3,0.5
				c0.6,0.4,1.1,0.9,1.7,1.3c0-0.7-0.1-0.7-0.5,0c-0.6,0.5-0.5,0.7,0.3,0.8c0.3-1.9,0.5-3.8,0.8-5.6c-2.1,0.1-4.1,1.1-4.1,3.5
				c0,1,0.6,2,0.9,2.9c0.5,1.3,0.9,2.7,1.7,3.9c1.2,1.6,3.9,2.1,5,0c1-2,2.6-2.9,2.7-5.4c0.1-2.3-0.4-4.8-1.8-6.7
				c-3-3.9-8.6-3.8-12.2-0.9c-1.7,1.4-2.8,3.3-3.3,5.5c-0.4,2.3,0.6,4.4,1.7,6.3c1.6,2.7,8.7,6.8,10.9,2.7
				C283.9,22.9,278.9,20,277.2,23.3L277.2,23.3z"/>
		</g>
		<g id="XMLID_378_">
			<path id="XMLID_108_" fill="#29B2DF" d="M278,28c0,6.7-0.1,13.4-0.1,20.1c0,0.6,0.9,0.6,0.9,0c0-6.7,0.1-13.4,0.1-20.1
				C278.9,27.4,278,27.4,278,28L278,28z"/>
		</g>
		<g id="XMLID_366_">
			<path id="XMLID_107_" fill="#0F0F0D" d="M279,9c-4.2-0.2-8.5,3.5-9.3,7.6c-1,5.5,2.5,8.9,7.3,10.6c0.3,0.1,0.5-0.4,0.2-0.6
				c-4.5-1.6-7.9-4.8-6.9-10c0.8-3.8,4.7-7.3,8.7-7.2C279.4,9.6,279.4,9,279,9L279,9z"/>
		</g>
		<g id="XMLID_305_">
			<path id="XMLID_106_" fill="#0F0F0D" d="M278.8,9.5c4.3,0.8,7.7,2.9,8.2,7.5c0.5,5.3-2.4,8.2-7.3,9.7c-0.4,0.1-0.2,0.7,0.2,0.6
				c4.8-1.4,8.2-4.4,7.8-9.7c-0.4-5.2-3.6-7.7-8.7-8.6C278.6,8.9,278.4,9.5,278.8,9.5L278.8,9.5z"/>
		</g>
		<g id="XMLID_75_">
			<path id="XMLID_95_" fill="#0F0F0D" d="M276.8,27.2c0.4,0.1,0.9,0.3,1.3,0.4c0.4,0.1,0.5-0.4,0.2-0.6c-0.4-0.1-0.9-0.3-1.3-0.4
				C276.6,26.5,276.4,27.1,276.8,27.2L276.8,27.2z"/>
		</g>
		<g id="XMLID_68_">
			<path id="XMLID_93_" fill="#0F0F0D" d="M277.9,27.6c-0.2,6.6-0.2,13.1-0.1,19.7c0,0.4,0.6,0.4,0.6,0c-0.1-6.6,0-13.1,0.1-19.7
				C278.5,27.3,277.9,27.3,277.9,27.6L277.9,27.6z"/>
		</g>
		<g id="XMLID_33_">
			<path id="XMLID_92_" fill="#0F0F0D" d="M279.1,47.3c0-3.5,0-7,0.1-10.5c0-1.2-0.8-8.9,0.5-9.5c0.3-0.2,0-0.7-0.3-0.5
				c-1.2,0.6-0.8,3.4-0.8,4.3c0,5.4-0.1,10.8-0.1,16.2C278.6,47.7,279.1,47.7,279.1,47.3L279.1,47.3z"/>
		</g>
		<g id="XMLID_31_">
			<path id="XMLID_91_" fill="#0F0F0D" d="M277.9,47c-1.7,1-3.1,2.1-2.9,4.4c0.3,2.2,2.1,3.2,4.1,2.9c1.7-0.2,3.2-1.7,3.2-3.5
				c0-2-1.7-3.3-3.5-3.8c-0.4-0.1-0.5,0.4-0.2,0.6c1.3,0.4,2.6,1.1,3,2.6c0.5,1.8-1.2,3.5-2.9,3.6c-1.9,0.1-3.3-1.2-3.2-3.1
				c0.1-1.7,1.3-2.3,2.6-3.1C278.5,47.3,278.2,46.8,277.9,47L277.9,47z"/>
		</g>
		<g id="XMLID_30_">
			<path id="XMLID_90_" fill="#0F0F0D" d="M279.3,27.6c0.2-0.3,0.1-0.2,0.4-0.3c0.4-0.1,0.2-0.6-0.2-0.6c-0.4,0.1-0.5,0.2-0.7,0.6
				C278.6,27.7,279.1,28,279.3,27.6L279.3,27.6z"/>
		</g>
		<g id="XMLID_29_">
			<path id="XMLID_79_" fill="#FFFFFF" d="M276.1,18.7c1.7,0,3.4,0,5-0.1c0.7,0,0.7-1.2,0-1.1c-1.7,0.1-3.3,0.1-5,0.1
				C275.3,17.5,275.3,18.7,276.1,18.7L276.1,18.7z"/>
		</g>
		<g id="XMLID_28_">
			<path id="XMLID_80_" fill="#FFFFFF" d="M277.6,15.8c0,1.5,0.1,3.1,0,4.6c0,0.7,1.1,0.7,1.1,0c0-1.5,0-3.1,0-4.6
				C278.7,15.1,277.6,15.1,277.6,15.8L277.6,15.8z"/>
		</g>
	</g>
	<g id="XMLID_464_" display="inline">
		<g id="XMLID_475_">
			<path id="XMLID_81_" fill="#A2C754" d="M317.7,8.2c-3.5-0.4-7.3-0.3-10.8-0.2c-2,0-4.3,0.2-5.1,2.3c-0.6,1.5,0,4.2,0.2,5.8
				c0.1,1.1,0.3,2.2,0.4,3.2c0.1,1.5-0.8,2.2-1,3.6c-0.4,2.4,2,3.9,4.1,4.2c1.4,0.2,2.9-0.1,4.3-0.2c1.7-0.1,3.4,0,5.2,0
				c2.2,0,4.2-1,4.7-3.3c0.3-1.7,0-3.5-0.1-5.2c-0.1-2.1,0.1-4,0.5-6.1c0.3-1.5-1-3.5-2.8-2.8c-3.1,1.3-5.6,1.9-9,1.7
				c-1.9-0.1-4.7-0.6-5.7,1.4c-1,1.9,0.4,4.1,1.3,5.7c1,1.8,0.9,4.6,3.2,5.3c1.2,0.3,2.7,0.1,3.9,0.1c1.1,0,2.4,0.2,3.4-0.3
				c1.8-0.9,2.4-3.6,2.5-5.4c0.1-1.9-0.3-3.6-2.4-3.9c-2.2-0.3-5.8,0.1-7.8,1c-0.7,0.3-1.2,1.2-1.1,2c0.4,4.3,4.8,4.9,7.8,2.8
				c-0.9-1.2-1.8-2.4-2.8-3.6c-1.5,1.5-1.3,3.9,0.7,4.9c2.2,1,4.9-1.8,2.8-3.6c-1.7-1.5-3.4-1.9-5.6-1.6c-2.9,0.4-1.7,4.8,1.2,4.4
				c0.4,0.1,0.8,0.3,1.2,0.4c0.9-1.2,1.8-2.4,2.8-3.6c0.1,0.1,0.1,0.2,0.2,0.2c0.1,0.6,0.2,1.2,0.2,1.8c-0.1,0.1-0.1,0.2-0.2,0.2
				c1.7-1.8-0.5-5.1-2.8-3.6c-0.6,0.2-0.9,0.5-1,1.1c-0.4,0.7-0.8,1.3-1.1,2c0.8-0.4,3.9-0.7,5-0.5c-0.5-0.5-1.1-1.1-1.6-1.6
				c0.1,0.6,0.1,1.1-0.1,1.7c-0.2,1-0.3,1.1-0.2,0.4c-0.7,0.3-3.2,0.1-4,0c0.5,0.3,0.9,0.7,1.4,1c-0.3-0.4-2.3-6.5-2.8-5.6
				c-0.5,0.3-0.9,0.7-1.4,1c2.2-0.6,4.9,0.3,7.2,0.1c2.1-0.2,4-1.1,5.9-1.9c-0.9-0.9-1.9-1.9-2.8-2.8c-0.3,1.5-0.6,3.1-0.7,4.6
				c-0.1,1.6,0.8,4.5,0.2,6c-0.4,1-0.3,0.6-1.6,0.7c-0.9,0-1.8,0-2.7,0c-1.3,0.1-4.5,0.9-5.5-0.2c0.2,0.5,0.4,1.1,0.7,1.6
				c0-0.1,0.6-1.1,0.8-1.6c0.3-0.9,0.3-1.8,0.3-2.8c-0.1-1.7-0.5-3.3-0.6-5c0-0.4,0.1-0.6,0-1c0-0.1-0.6-1.5-0.6-0.9
				c-0.5,0.1-0.6,0.1-0.1,0c0.2,0,0.5,0,0.7,0c0.5,0,1,0,1.5,0c3.2,0,6.5-0.2,9.6,0.2C320.6,13.1,320.5,8.6,317.7,8.2L317.7,8.2z"/>
		</g>
		<g id="XMLID_474_">
			<path id="XMLID_82_" d="M309.9,7.9c-1.7,0-5.6-0.4-7,0.7c-1.6,1.3-0.2,7.1-0.2,8.9c0,2.1-1.5,8,0.1,9.7c1.4,1.6,6.5,0,8.4,0
				c1.7,0,7.5,1.3,8.6,0c0.5-0.6,0.1-2.5,0.1-3.1c-0.1-2.1-0.5-4.3-0.5-6.4c0-2.4,0.5-4.7,0.7-7c0.1-0.8,0.3-1.9-0.4-2.5
				c-0.5-0.5-1.7-0.3-2.4-0.3C314.8,7.8,312.3,7.8,309.9,7.9c-0.4,0-0.4,0.7,0,0.7c2.1,0,5.4-0.7,7.5-0.1c3.4,1,1.6,5.2,1.4,7.8
				c-0.1,2.5,0.8,5.3,0.4,7.7c-0.3,2.2-0.8,2.3-2.8,2.6c-1.5,0.2-3.2-0.2-4.6-0.2c-2.1-0.1-6.1,1.2-7.7-0.3
				c-1.7-1.5-0.8-5.3-0.7-7.5c0.1-2.5-0.9-6.8,0.6-8.8c1.3-1.7,3.8-1.3,5.9-1.4C310.3,8.6,310.3,7.9,309.9,7.9L309.9,7.9z"/>
		</g>
		<g id="XMLID_473_">
			<path id="XMLID_94_" fill="#FFFFFF" d="M308.8,20.3c1.2-1.9,2.9-3.6,4.4-5.2c0.3-0.3-0.2-0.8-0.5-0.5c-1.5,1.7-3.3,3.4-4.5,5.4
				C308,20.4,308.6,20.7,308.8,20.3L308.8,20.3z"/>
		</g>
		<g id="XMLID_472_">
			<path id="XMLID_207_" fill="#FFFFFF" d="M308.1,15c1.4,1.9,2.6,3.9,4.3,5.5c0.3,0.3,0.8-0.2,0.5-0.5c-1.6-1.6-2.8-3.6-4.1-5.4
				C308.5,14.3,307.9,14.7,308.1,15L308.1,15z"/>
		</g>
	</g>
</g>
<g id="Layer_4">
	<g id="XMLID_71_">
		<g id="XMLID_77_">
			<path id="XMLID_114_" fill="#A2C754" d="M289.3,8.2c-3.5-0.4-7.3-0.3-10.8-0.2c-2,0-4.3,0.2-5.1,2.3c-0.6,1.5,0,4.2,0.2,5.8
				c0.1,1.1,0.3,2.2,0.4,3.2c0.1,1.5-0.8,2.2-1,3.6c-0.4,2.4,2,3.9,4.1,4.2c1.4,0.2,2.9-0.1,4.3-0.2c1.7-0.1,3.4,0,5.2,0
				c2.2,0,4.2-1,4.7-3.3c0.3-1.7,0-3.5-0.1-5.2c-0.1-2.1,0.1-4,0.5-6.1c0.3-1.5-1-3.5-2.8-2.8c-3.1,1.3-5.6,1.9-9,1.7
				c-1.9-0.1-4.7-0.6-5.7,1.4c-1,1.9,0.4,4.1,1.3,5.7c1,1.8,0.9,4.6,3.2,5.3c1.2,0.3,2.7,0.1,3.9,0.1c1.1,0,2.4,0.2,3.4-0.3
				c1.8-0.9,2.4-3.6,2.5-5.4c0.1-1.9-0.3-3.6-2.4-3.9c-2.2-0.3-5.8,0.1-7.8,1c-0.7,0.3-1.2,1.2-1.1,2c0.4,4.3,4.8,4.9,7.8,2.8
				c-0.9-1.2-1.8-2.4-2.8-3.6c-1.5,1.5-1.3,3.9,0.7,4.9c2.2,1,4.9-1.8,2.8-3.6c-1.7-1.5-3.4-1.9-5.6-1.6c-2.9,0.4-1.7,4.8,1.2,4.4
				c0.4,0.1,0.8,0.3,1.2,0.4c0.9-1.2,1.8-2.4,2.8-3.6c0.1,0.1,0.1,0.2,0.2,0.2c0.1,0.6,0.2,1.2,0.2,1.8c-0.1,0.1-0.1,0.2-0.2,0.2
				c1.7-1.8-0.5-5.1-2.8-3.6c-0.6,0.2-0.9,0.5-1,1.1c-0.4,0.7-0.8,1.3-1.1,2c0.8-0.4,3.9-0.7,5-0.5c-0.5-0.5-1.1-1.1-1.6-1.6
				c0.1,0.6,0.1,1.1-0.1,1.7c-0.2,1-0.3,1.1-0.2,0.4c-0.7,0.3-3.2,0.1-4,0c0.5,0.3,0.9,0.7,1.4,1c-0.3-0.4-2.3-6.5-2.8-5.6
				c-0.5,0.3-0.9,0.7-1.4,1c2.2-0.6,4.9,0.3,7.2,0.1c2.1-0.2,4-1.1,5.9-1.9c-0.9-0.9-1.9-1.9-2.8-2.8c-0.3,1.5-0.6,3.1-0.7,4.6
				c-0.1,1.6,0.8,4.5,0.2,6c-0.4,1-0.3,0.6-1.6,0.7c-0.9,0-1.8,0-2.7,0c-1.3,0.1-4.5,0.9-5.5-0.2c0.2,0.5,0.4,1.1,0.7,1.6
				c0-0.1,0.6-1.1,0.8-1.6c0.3-0.9,0.3-1.8,0.3-2.8c-0.1-1.7-0.5-3.3-0.6-5c0-0.4,0.1-0.6,0-1c0-0.1-0.6-1.5-0.6-0.9
				c-0.5,0.1-0.6,0.1-0.1,0c0.2,0,0.5,0,0.7,0c0.5,0,1,0,1.5,0c3.2,0,6.5-0.2,9.6,0.2C292.2,13.1,292.2,8.6,289.3,8.2L289.3,8.2z"/>
		</g>
		<g id="XMLID_74_">
			<path id="XMLID_113_" d="M281.5,7.9c-1.7,0-5.6-0.4-7,0.7c-1.6,1.3-0.2,7.1-0.2,8.9c0,2.1-1.5,8,0.1,9.7c1.4,1.6,6.5,0,8.4,0
				c1.7,0,7.5,1.3,8.6,0c0.5-0.6,0.1-2.5,0.1-3.1c-0.1-2.1-0.5-4.3-0.5-6.4c0-2.4,0.5-4.7,0.7-7c0.1-0.8,0.3-1.9-0.4-2.5
				c-0.5-0.5-1.7-0.3-2.4-0.3C286.5,7.8,284,7.8,281.5,7.9c-0.4,0-0.4,0.7,0,0.7c2.1,0,5.4-0.7,7.5-0.1c3.4,1,1.6,5.2,1.4,7.8
				c-0.1,2.5,0.8,5.3,0.4,7.7c-0.3,2.2-0.8,2.3-2.8,2.6c-1.5,0.2-3.2-0.2-4.6-0.2c-2.1-0.1-6.1,1.2-7.7-0.3
				c-1.7-1.5-0.8-5.3-0.7-7.5c0.1-2.5-0.9-6.8,0.6-8.8c1.3-1.7,3.8-1.3,5.9-1.4C282,8.6,282,7.9,281.5,7.9L281.5,7.9z"/>
		</g>
		<g id="XMLID_73_">
			<path id="XMLID_112_" fill="#FFFFFF" d="M280.5,20.3c1.2-1.9,2.9-3.6,4.4-5.2c0.3-0.3-0.2-0.8-0.5-0.5c-1.5,1.7-3.3,3.4-4.5,5.4
				C279.6,20.4,280.2,20.7,280.5,20.3L280.5,20.3z"/>
		</g>
		<g id="XMLID_72_">
			<path id="XMLID_111_" fill="#FFFFFF" d="M279.8,15c1.4,1.9,2.6,3.9,4.3,5.5c0.3,0.3,0.8-0.2,0.5-0.5c-1.6-1.6-2.8-3.6-4.1-5.4
				C280.1,14.3,279.5,14.7,279.8,15L279.8,15z"/>
		</g>
	</g>
</g>
</svg>
