<?xml version="1.0" encoding="utf-8"?>
<!-- Generator: Adobe Illustrator 19.0.0, SVG Export Plug-In . SVG Version: 6.00 Build 0)  -->
<svg version="1.1" id="Layer_1" xmlns="http://www.w3.org/2000/svg" xmlns:xlink="http://www.w3.org/1999/xlink" x="0px" y="0px"
	 viewBox="0 0 595.3 64" style="enable-background:new 0 0 595.3 64;" xml:space="preserve">
<style type="text/css">
	.st0{fill:#161616;}
</style>
<g id="XMLID_1543_">
	<g id="XMLID_1852_">
		<path id="XMLID_1857_" class="st0" d="M353.2,5.3c-1.8,0-3.6,0.1-5.4,0.1c-0.8,0-0.8,1.3,0,1.3c1.8,0,3.6-0.1,5.4-0.1
			C354,6.5,354,5.2,353.2,5.3L353.2,5.3z"/>
	</g>
</g>
<g id="XMLID_1536_">
	<g id="XMLID_1845_">
		<path id="XMLID_1850_" class="st0" d="M358.7,4.7c-2.5,0.8-3.7,3.3-3.9,5.9c-0.1,2.8,1.5,4.4,3.8,5.5c0.7,0.3,1.4-0.7,0.6-1.1
			c-1.5-0.7-2.8-1.4-3.1-3.2c-0.5-2.2,0.7-5.2,2.9-5.9C359.8,5.6,359.5,4.4,358.7,4.7L358.7,4.7z"/>
	</g>
</g>
<g id="XMLID_1528_">
	<g id="XMLID_1838_">
		<path id="XMLID_1843_" class="st0" d="M373.4,5.7c3.9,1.6,3.8,7.8,0,9.4c-0.7,0.3-0.4,1.5,0.3,1.2c2.5-1,3.7-3,3.8-5.7
			c0-2.4-1.2-5-3.5-6C373.3,4.4,372.6,5.4,373.4,5.7L373.4,5.7z"/>
	</g>
</g>
<g id="XMLID_21_">
	<g id="XMLID_1793_">
		<path id="XMLID_1799_" class="st0" d="M355.4,0.9c-7.6-2.6-5,11.5-6.7,14.5c-0.4,0.7,0.7,1.3,1.1,0.6c1.6-2.9-0.2-15.9,5.3-14
			C355.8,2.4,356.1,1.2,355.4,0.9L355.4,0.9z"/>
	</g>
</g>
<g id="XMLID_1500_">
	<g id="XMLID_1831_">
		<path id="XMLID_1836_" class="st0" d="M378,20.9c-0.4-0.9-1.3-1.4-2.2-1.9c-0.7-0.4-1.3,0.7-0.6,1.1c0.7,0.4,1.4,0.7,1.7,1.5
			C377.3,22.2,378.4,21.6,378,20.9L378,20.9z"/>
	</g>
</g>
<g id="XMLID_44_">
	<g id="XMLID_1824_">
		<path id="XMLID_1829_" class="st0" d="M376.9,21c-0.4,0.6-1,1-1.6,1.3c-0.7,0.4-0.1,1.5,0.6,1.1c0.8-0.5,1.5-1.1,2-1.8
			c0.2-0.3,0-0.7-0.2-0.9C377.5,20.6,377.1,20.8,376.9,21L376.9,21z"/>
	</g>
</g>
<g id="XMLID_1592_">
	<g id="XMLID_1817_">
		<path id="XMLID_1822_" class="st0" d="M263.1,20.4c-0.4-0.9-1.3-1.4-2.2-1.9c-0.7-0.4-1.3,0.7-0.6,1.1c0.7,0.4,1.4,0.7,1.7,1.5
			C262.3,21.8,263.4,21.1,263.1,20.4L263.1,20.4z"/>
	</g>
</g>
<g id="XMLID_1517_">
	<g id="XMLID_1809_">
		<path id="XMLID_1815_" class="st0" d="M262,20.6c-0.4,0.6-1,1-1.6,1.3c-0.7,0.4-0.1,1.5,0.6,1.1c0.8-0.5,1.5-1.1,2-1.8
			c0.2-0.3,0-0.7-0.2-0.9C262.5,20.2,262.2,20.3,262,20.6L262,20.6z"/>
	</g>
</g>
<g id="XMLID_40_">
	<g id="XMLID_1768_">
		<path id="XMLID_1774_" class="st0" d="M225.8,5.2c-0.4,3.5-0.2,7.1,0,10.6c0,0.8,1.3,0.8,1.3,0c-0.2-3.5-0.4-7.1,0-10.6
			C227.2,4.4,225.9,4.4,225.8,5.2L225.8,5.2z"/>
	</g>
</g>
<g id="XMLID_42_">
	<g id="XMLID_1760_">
		<path id="XMLID_1766_" class="st0" d="M235.9,16.2c1.2-1.1,2-2.5,3.2-3.6c0.6-0.6,2-1.3,2-2.2c0.1-0.8-1-1.5-1.4-2
			c-1.2-1.3-2.5-2.4-3.9-3.5c-0.6-0.5-1.5,0.4-0.9,0.9c0.9,0.7,1.8,1.5,2.6,2.3c0.3,0.3,2.3,1.9,2.2,2.3c0,0.5-1.9,1.8-2.3,2.2
			c-0.9,0.9-1.6,2-2.5,2.9C234.5,15.9,235.4,16.8,235.9,16.2L235.9,16.2z"/>
	</g>
</g>
<g id="XMLID_130_">
	<g id="XMLID_145_">
		<g id="XMLID_153_">
			<g id="XMLID_155_">
				<path id="XMLID_159_" class="st0" d="M229.4,36.8c0.6-0.1,1.1,1.6,1.3,2c0.3,0.7,0.7,1.3,1.2,1.9c0.7,1,1.4,1.8,2.7,1.6
					c0.8-0.2,0.5-1.4-0.3-1.2c-1.1,0.2-2.5-3-2.9-3.8c-0.4-1-1.1-1.9-2.3-1.6C228.2,35.7,228.6,36.9,229.4,36.8L229.4,36.8z"/>
			</g>
		</g>
		<g id="XMLID_146_">
			<g id="XMLID_148_">
				<path id="XMLID_152_" class="st0" d="M229.6,42.1c1.4-1.9,2.9-3.8,4.5-5.5c0.5-0.6-0.3-1.5-0.9-0.9c-1.7,1.8-3.3,3.8-4.7,5.8
					C228,42.1,229.1,42.7,229.6,42.1L229.6,42.1z"/>
			</g>
		</g>
	</g>
	<g id="XMLID_138_">
		<g id="XMLID_140_">
			<path id="XMLID_144_" class="st0" d="M225.8,33.5c-0.4,3.5-0.2,7.1,0,10.6c0,0.8,1.3,0.8,1.3,0c-0.2-3.5-0.4-7.1,0-10.6
				C227.2,32.7,225.9,32.8,225.8,33.5L225.8,33.5z"/>
		</g>
	</g>
	<g id="XMLID_131_">
		<g id="XMLID_133_">
			<path id="XMLID_137_" class="st0" d="M235.9,44.6c1.2-1.1,2-2.5,3.2-3.6c0.6-0.6,2-1.3,2-2.2c0.1-0.8-1-1.5-1.4-2
				c-1.2-1.3-2.5-2.4-3.9-3.5c-0.6-0.5-1.5,0.4-0.9,0.9c0.9,0.7,1.8,1.5,2.6,2.3c0.3,0.3,2.3,1.9,2.2,2.3c0,0.5-1.9,1.8-2.3,2.2
				c-0.9,0.9-1.6,2-2.5,2.9C234.5,44.3,235.4,45.1,235.9,44.6L235.9,44.6z"/>
		</g>
	</g>
</g>
<g id="XMLID_160_">
	<g id="XMLID_175_">
		<g id="XMLID_183_">
			<g id="XMLID_185_">
				<path id="XMLID_189_" class="st0" d="M365.4,36.8c0.6-0.1,1.1,1.6,1.3,2c0.3,0.7,0.7,1.3,1.2,1.9c0.7,1,1.4,1.8,2.7,1.6
					c0.8-0.2,0.5-1.4-0.3-1.2c-1.1,0.2-2.5-3-2.9-3.8c-0.4-1-1.1-1.9-2.3-1.6C364.3,35.7,364.6,36.9,365.4,36.8L365.4,36.8z"/>
			</g>
		</g>
		<g id="XMLID_176_">
			<g id="XMLID_178_">
				<path id="XMLID_182_" class="st0" d="M365.6,42.1c1.4-1.9,2.9-3.8,4.5-5.5c0.5-0.6-0.3-1.5-0.9-0.9c-1.7,1.8-3.3,3.8-4.7,5.8
					C364.1,42.1,365.2,42.7,365.6,42.1L365.6,42.1z"/>
			</g>
		</g>
	</g>
	<g id="XMLID_168_">
		<g id="XMLID_170_">
			<path id="XMLID_174_" class="st0" d="M361.9,33.5c-0.4,3.5-0.2,7.1,0,10.6c0,0.8,1.3,0.8,1.3,0c-0.2-3.5-0.4-7.1,0-10.6
				C363.2,32.7,362,32.8,361.9,33.5L361.9,33.5z"/>
		</g>
	</g>
	<g id="XMLID_161_">
		<g id="XMLID_163_">
			<path id="XMLID_167_" class="st0" d="M372,44.6c1.2-1.1,2-2.5,3.2-3.6c0.6-0.6,2-1.3,2-2.2c0.1-0.8-1-1.5-1.4-2
				c-1.2-1.3-2.5-2.4-3.9-3.5c-0.6-0.5-1.5,0.4-0.9,0.9c0.9,0.7,1.8,1.5,2.6,2.3c0.3,0.3,2.3,1.9,2.2,2.3c0,0.5-1.9,1.8-2.3,2.2
				c-0.9,0.9-1.6,2-2.5,2.9C370.5,44.3,371.4,45.1,372,44.6L372,44.6z"/>
		</g>
	</g>
</g>
<g id="XMLID_1484_">
	<g id="XMLID_1530_">
		<g id="XMLID_1559_">
			<g id="XMLID_1752_">
				<path id="XMLID_1758_" class="st0" d="M364,8.3c0.6-0.1,1.1,1.6,1.3,2c0.3,0.7,0.7,1.3,1.2,1.9c0.7,1,1.4,1.8,2.7,1.6
					c0.8-0.2,0.5-1.4-0.3-1.2c-1.1,0.2-2.5-3-2.9-3.8c-0.4-1-1.1-1.9-2.3-1.6C362.9,7.3,363.2,8.5,364,8.3L364,8.3z"/>
			</g>
		</g>
		<g id="XMLID_1531_">
			<g id="XMLID_1744_">
				<path id="XMLID_1750_" class="st0" d="M364.2,13.6c1.4-1.9,2.9-3.8,4.5-5.5c0.5-0.6-0.3-1.5-0.9-0.9c-1.7,1.8-3.3,3.8-4.7,5.8
					C362.7,13.6,363.7,14.3,364.2,13.6L364.2,13.6z"/>
			</g>
		</g>
	</g>
	<g id="XMLID_1521_">
		<g id="XMLID_1736_">
			<path id="XMLID_1742_" class="st0" d="M360.5,5.1c-0.4,3.5-0.2,7.1,0,10.6c0,0.8,1.3,0.8,1.3,0c-0.2-3.5-0.4-7.1,0-10.6
				C361.8,4.3,360.6,4.3,360.5,5.1L360.5,5.1z"/>
		</g>
	</g>
	<g id="XMLID_1491_">
		<g id="XMLID_1711_">
			<path id="XMLID_1717_" class="st0" d="M370.6,16.1c1.2-1.1,2-2.5,3.2-3.6c0.6-0.6,2-1.3,2-2.2c0.1-0.8-1-1.5-1.4-2
				c-1.2-1.3-2.5-2.4-3.9-3.5c-0.6-0.5-1.5,0.4-0.9,0.9c0.9,0.7,1.8,1.5,2.6,2.3c0.3,0.3,2.3,1.9,2.2,2.3c0,0.5-1.9,1.8-2.3,2.2
				c-0.9,0.9-1.6,2-2.5,2.9C369.1,15.8,370,16.7,370.6,16.1L370.6,16.1z"/>
		</g>
	</g>
</g>
<g id="XMLID_19_">
	<g id="XMLID_1728_">
		<path id="XMLID_1733_" class="st0" d="M331.8,21.6c15.1-0.2,30.3,0.6,45.4,0.1c0.8,0,0.8-1.3,0-1.3c-15.1,0.5-30.2-0.3-45.4-0.1
			C331,20.4,331,21.6,331.8,21.6L331.8,21.6z"/>
	</g>
</g>
<g id="XMLID_20_">
	<g id="XMLID_1719_">
		<path id="XMLID_1725_" class="st0" d="M226.1,21.5c12.1-0.1,24.3,0.5,36.4,0.1c0.8,0,0.8-1.3,0-1.3c-12.1,0.4-24.3-0.2-36.4-0.1
			C225.3,20.2,225.3,21.5,226.1,21.5L226.1,21.5z"/>
	</g>
</g>
<g id="XMLID_123_">
	<g id="XMLID_125_">
		<path id="XMLID_129_" class="st0" d="M378,49.2c-0.4-0.9-1.3-1.4-2.2-1.9c-0.7-0.4-1.3,0.7-0.6,1.1c0.7,0.4,1.4,0.7,1.7,1.5
			C377.3,50.6,378.4,49.9,378,49.2L378,49.2z"/>
	</g>
</g>
<g id="XMLID_116_">
	<g id="XMLID_118_">
		<path id="XMLID_122_" class="st0" d="M376.9,49.4c-0.4,0.6-1,1-1.6,1.3c-0.7,0.4-0.1,1.5,0.6,1.1c0.8-0.5,1.5-1.1,2-1.8
			c0.2-0.3,0-0.7-0.2-0.9C377.5,49,377.1,49.1,376.9,49.4L376.9,49.4z"/>
	</g>
</g>
<g id="XMLID_109_">
	<g id="XMLID_111_">
		<path id="XMLID_115_" class="st0" d="M263.1,48.8c-0.4-0.9-1.3-1.4-2.2-1.9c-0.7-0.4-1.3,0.7-0.6,1.1c0.7,0.4,1.4,0.7,1.7,1.5
			C262.3,50.1,263.4,49.5,263.1,48.8L263.1,48.8z"/>
	</g>
</g>
<g id="XMLID_102_">
	<g id="XMLID_104_">
		<path id="XMLID_108_" class="st0" d="M262,48.9c-0.4,0.6-1,1-1.6,1.3c-0.7,0.4-0.1,1.5,0.6,1.1c0.8-0.5,1.5-1.1,2-1.8
			c0.2-0.3,0-0.7-0.2-0.9C262.5,48.5,262.2,48.7,262,48.9L262,48.9z"/>
	</g>
</g>
<g id="XMLID_89_">
	<g id="XMLID_91_">
		<path id="XMLID_95_" class="st0" d="M331.8,50c15.1-0.2,30.3,0.6,45.4,0.1c0.8,0,0.8-1.3,0-1.3c-15.1,0.5-30.2-0.3-45.4-0.1
			C331,48.7,331,50,331.8,50L331.8,50z"/>
	</g>
</g>
<g id="XMLID_81_">
	<g id="XMLID_84_">
		<path id="XMLID_88_" class="st0" d="M226.1,49.8c12.1-0.1,24.3,0.5,36.4,0.1c0.8,0,0.8-1.3,0-1.3c-12.1,0.4-24.3-0.2-36.4-0.1
			C225.3,48.6,225.3,49.8,226.1,49.8L226.1,49.8z"/>
	</g>
</g>
<g id="XMLID_1600_">
	<g id="XMLID_1703_">
		<path id="XMLID_1709_" class="st0" d="M183.9,13.2c0.4,2.8-0.1,5.9-0.1,8.7c0,0.8,1.2,0.8,1.3,0c0.1-3,0.5-6.1,0.1-9
			C185,12.1,183.8,12.4,183.9,13.2L183.9,13.2z"/>
	</g>
</g>
<g id="XMLID_1601_">
	<g id="XMLID_1695_">
		<path id="XMLID_1701_" class="st0" d="M187,15.8c-0.1,2.1-0.1,4.1-0.1,6.2c0,0.8,1.3,0.8,1.3,0c0-2.1,0-4.1,0.1-6.2
			C188.3,15,187,15,187,15.8L187,15.8z"/>
	</g>
</g>
<g id="XMLID_1602_">
	<g id="XMLID_1687_">
		<path id="XMLID_1693_" class="st0" d="M188.1,17.7c0.6-0.6,1.1-1.3,1.9-1.4c1.1-0.1,1.3,0.8,1.4,1.6c0.2,1.4,0.1,2.7,0,4.1
			c-0.1,0.8,1.2,0.8,1.3,0c0.1-1.3,0.2-2.6,0-3.9c-0.1-0.8-0.1-1.9-0.7-2.5c-0.6-0.6-1.7-0.7-2.5-0.6c-1,0.2-1.6,1-2.3,1.7
			C186.7,17.4,187.6,18.3,188.1,17.7L188.1,17.7z"/>
	</g>
</g>
<g id="XMLID_1603_">
	<g id="XMLID_1679_">
		<path id="XMLID_1684_" class="st0" d="M194.2,15.7c0.1,2.9,0.3,5.9,0.1,8.8c0,0.8,1.2,0.8,1.3,0c0.2-2.9,0-5.9-0.1-8.8
			C195.5,14.9,194.2,14.9,194.2,15.7L194.2,15.7z"/>
	</g>
</g>
<g id="XMLID_1605_">
	<g id="XMLID_1670_">
		<path id="XMLID_1676_" class="st0" d="M195.5,18c0.5-0.8,1.1-1.3,2-1.5c1.5-0.3,1.9,0.8,1.9,2.1c0,1.1,0.1,2.1-1,2.5
			c-1.1,0.5-2.1,0.1-2.8-0.8c-0.5-0.6-1.4,0.3-0.9,0.9c1.1,1.2,2.8,1.7,4.3,1c1.8-0.8,1.8-2.4,1.7-4.1c-0.1-1.4-0.7-2.9-2.3-3
			c-1.6-0.1-3.1,0.8-4,2.2C194,18,195,18.7,195.5,18L195.5,18z"/>
	</g>
</g>
<g id="XMLID_1606_">
	<g id="XMLID_1662_">
		<path id="XMLID_1668_" class="st0" d="M202.2,15.6c-0.3,1.6-0.4,3.3-0.1,5c0.3,1.3,1,1.8,2.2,1.9c3.6,0.4,3.7-4.3,3.6-6.8
			c0-0.8-1.3-0.8-1.3,0c0,1.6,0.3,5.4-1.9,5.6c-1.5,0.1-1.6-1.2-1.6-2.3c0-1,0-2,0.2-3C203.6,15.2,202.4,14.8,202.2,15.6L202.2,15.6
			z"/>
	</g>
</g>
<g id="XMLID_1608_">
	<g id="XMLID_1654_">
		<path id="XMLID_1660_" class="st0" d="M206.7,15.8c0,2.1,0,4.1-0.1,6.2c0,0.8,1.2,0.8,1.3,0c0.1-2.1,0.1-4.1,0.1-6.2
			C208,15,206.7,15,206.7,15.8L206.7,15.8z"/>
	</g>
</g>
<g id="XMLID_1610_">
	<g id="XMLID_1646_">
		<path id="XMLID_1652_" class="st0" d="M209.7,13.9c0,2.4-0.3,5.1,0.1,7.5c0.2,1.2,1,1.5,2.1,1.1c0.8-0.2,0.4-1.4-0.3-1.2
			c-0.9,0.3-0.5-0.6-0.5-1.2c0-0.7,0-1.5,0-2.2c0-1.4,0-2.7,0-4.1C211,13.1,209.7,13.1,209.7,13.9L209.7,13.9z"/>
	</g>
</g>
<g id="XMLID_1619_">
	<g id="XMLID_1639_">
		<path id="XMLID_1644_" class="st0" d="M209,16.3c1,0.3,2,0.3,3,0.1c0.8-0.2,0.5-1.4-0.3-1.2c-0.8,0.2-1.5,0.1-2.3-0.1
			C208.6,14.9,208.2,16.1,209,16.3L209,16.3z"/>
	</g>
</g>
<g id="XMLID_246_">
	<g id="XMLID_248_">
		<path id="XMLID_252_" class="st0" d="M183.9,41.6c0.4,2.8-0.1,5.9-0.1,8.7c0,0.8,1.2,0.8,1.3,0c0.1-3,0.5-6.1,0.1-9
			C185,40.5,183.8,40.8,183.9,41.6L183.9,41.6z"/>
	</g>
</g>
<g id="XMLID_239_">
	<g id="XMLID_241_">
		<path id="XMLID_245_" class="st0" d="M187,44.2c-0.1,2.1-0.1,4.1-0.1,6.2c0,0.8,1.3,0.8,1.3,0c0-2.1,0-4.1,0.1-6.2
			C188.3,43.4,187,43.4,187,44.2L187,44.2z"/>
	</g>
</g>
<g id="XMLID_232_">
	<g id="XMLID_234_">
		<path id="XMLID_238_" class="st0" d="M188.1,46.1c0.6-0.6,1.1-1.3,1.9-1.4c1.1-0.1,1.3,0.8,1.4,1.6c0.2,1.4,0.1,2.7,0,4.1
			c-0.1,0.8,1.2,0.8,1.3,0c0.1-1.3,0.2-2.6,0-3.9c-0.1-0.8-0.1-1.9-0.7-2.5c-0.6-0.6-1.7-0.7-2.5-0.6c-1,0.2-1.6,1-2.3,1.7
			C186.7,45.8,187.6,46.6,188.1,46.1L188.1,46.1z"/>
	</g>
</g>
<g id="XMLID_225_">
	<g id="XMLID_227_">
		<path id="XMLID_231_" class="st0" d="M194.2,44c0.1,2.9,0.3,5.9,0.1,8.8c0,0.8,1.2,0.8,1.3,0c0.2-2.9,0-5.9-0.1-8.8
			C195.5,43.2,194.2,43.2,194.2,44L194.2,44z"/>
	</g>
</g>
<g id="XMLID_218_">
	<g id="XMLID_220_">
		<path id="XMLID_224_" class="st0" d="M195.5,46.3c0.5-0.8,1.1-1.3,2-1.5c1.5-0.3,1.9,0.8,1.9,2.1c0,1.1,0.1,2.1-1,2.5
			c-1.1,0.5-2.1,0.1-2.8-0.8c-0.5-0.6-1.4,0.3-0.9,0.9c1.1,1.2,2.8,1.7,4.3,1c1.8-0.8,1.8-2.4,1.7-4.1c-0.1-1.4-0.7-2.9-2.3-3
			c-1.6-0.1-3.1,0.8-4,2.2C194,46.4,195,47,195.5,46.3L195.5,46.3z"/>
	</g>
</g>
<g id="XMLID_211_">
	<g id="XMLID_213_">
		<path id="XMLID_217_" class="st0" d="M202.2,44c-0.3,1.6-0.4,3.3-0.1,5c0.3,1.3,1,1.8,2.2,1.9c3.6,0.4,3.7-4.3,3.6-6.8
			c0-0.8-1.3-0.8-1.3,0c0,1.6,0.3,5.4-1.9,5.6c-1.5,0.1-1.6-1.2-1.6-2.3c0-1,0-2,0.2-3C203.6,43.5,202.4,43.2,202.2,44L202.2,44z"/>
	</g>
</g>
<g id="XMLID_204_">
	<g id="XMLID_206_">
		<path id="XMLID_210_" class="st0" d="M206.7,44.1c0,2.1,0,4.1-0.1,6.2c0,0.8,1.2,0.8,1.3,0c0.1-2.1,0.1-4.1,0.1-6.2
			C208,43.3,206.7,43.3,206.7,44.1L206.7,44.1z"/>
	</g>
</g>
<g id="XMLID_197_">
	<g id="XMLID_199_">
		<path id="XMLID_203_" class="st0" d="M209.7,42.3c0,2.4-0.3,5.1,0.1,7.5c0.2,1.2,1,1.5,2.1,1.1c0.8-0.2,0.4-1.4-0.3-1.2
			c-0.9,0.3-0.5-0.6-0.5-1.2c0-0.7,0-1.5,0-2.2c0-1.4,0-2.7,0-4.1C211,41.5,209.7,41.5,209.7,42.3L209.7,42.3z"/>
	</g>
</g>
<g id="XMLID_190_">
	<g id="XMLID_192_">
		<path id="XMLID_196_" class="st0" d="M209,44.7c1,0.3,2,0.3,3,0.1c0.8-0.2,0.5-1.4-0.3-1.2c-0.8,0.2-1.5,0.1-2.3-0.1
			C208.6,43.3,208.2,44.5,209,44.7L209,44.7z"/>
	</g>
</g>
<g id="XMLID_1627_">
	<g id="XMLID_1623_">
		<path id="XMLID_1635_" class="st0" d="M388.8,12.5c-2.4-0.2-5,2.2-4.7,4.6c0.3,2.7,1.3,5.9,4.5,5.6c5-0.4,6.2-10.6,0.3-10.1
			c-0.8,0.1-0.8,1.3,0,1.3c4.2-0.3,2.9,6.3,0.2,7.3c-2.3,0.9-2.9-1.3-3.5-3c-0.6-2.1,0.7-4.7,3.2-4.5
			C389.6,13.8,389.6,12.6,388.8,12.5L388.8,12.5z"/>
	</g>
</g>
<g id="XMLID_1642_">
	<g id="XMLID_1615_">
		<path id="XMLID_1621_" class="st0" d="M394.4,15.8c0.1,0.9,0.1,1.9,0.2,2.8c0,0.7,0,1.6,0.2,2.3c0.3,1.2,1.5,1.4,2.6,1.5
			c3.1,0,3.2-4.5,3.2-6.7c0-0.8-1.2-0.8-1.3,0c-0.1,2.1-0.2,4.2-0.3,6.3c0,0.8,1.2,0.8,1.3,0c0.1-2.1,0.2-4.2,0.3-6.3
			c-0.4,0-0.8,0-1.3,0c0,1.6,0.1,5.4-2.2,5.4c-1.3,0-1.3-1-1.3-2.1c-0.1-1.1-0.1-2.2-0.2-3.3C395.6,15,394.3,15,394.4,15.8
			L394.4,15.8z"/>
	</g>
</g>
<g id="XMLID_1649_">
	<g id="XMLID_1599_">
		<path id="XMLID_1613_" class="st0" d="M402,14.2c0.5,2.4-0.5,4.8,0,7.2c0.2,1.2,1.2,1.6,2.3,1.2c0.8-0.2,0.4-1.5-0.3-1.2
			c-1.3,0.4-0.6-3.3-0.6-3.9c0.1-1.2,0.1-2.4-0.2-3.6C403.1,13.1,401.9,13.4,402,14.2L402,14.2z"/>
	</g>
</g>
<g id="XMLID_1658_">
	<g id="XMLID_1591_">
		<path id="XMLID_1596_" class="st0" d="M401.6,16.4c0.8,0,1.6,0,2.3,0c0.8,0,0.8-1.2,0-1.3c-0.8,0-1.6,0-2.3,0
			C400.8,15.1,400.8,16.4,401.6,16.4L401.6,16.4z"/>
	</g>
</g>
<g id="XMLID_1666_">
	<g id="XMLID_1584_">
		<path id="XMLID_1588_" class="st0" d="M405.6,15.9c0.2,2.9,0.1,5.7-0.1,8.6c-0.1,0.8,1.2,0.8,1.3,0c0.3-2.9,0.3-5.7,0.1-8.6
			C406.8,15.1,405.6,15,405.6,15.9L405.6,15.9z"/>
	</g>
</g>
<g id="XMLID_1674_">
	<g id="XMLID_1577_">
		<path id="XMLID_1581_" class="st0" d="M406.7,17.7c0.4-0.7,1-1,1.8-1.2c0.5-0.1,1.3-0.1,1.7,0.3c0.2,0.3,0.2,0.9,0.3,1.3
			c0,0.6,0.2,1.5-0.1,2.1c-0.4,1-2.6,1.3-3.4,0.6c-0.6-0.5-1.5,0.4-0.9,0.9c1.2,1,3.2,0.9,4.5,0.1c1.4-0.8,1.2-2.8,1.1-4.1
			c-0.1-1.5-0.8-2.7-2.5-2.6c-1.4,0-2.8,0.7-3.5,1.9C405.2,17.8,406.3,18.4,406.7,17.7L406.7,17.7z"/>
	</g>
</g>
<g id="XMLID_1682_">
	<g id="XMLID_1570_">
		<path id="XMLID_1574_" class="st0" d="M413.4,15.8c0,1.5-0.3,3.3-0.1,4.8c0.2,1.2,1.4,1.5,2.5,1.6c3.4,0.3,3-3.9,3.2-6.2
			c0.1-0.7-1.1-0.9-1.2-0.2c-0.3,1.9-0.4,3.9-0.3,5.8c0.1,0.8,1.3,0.8,1.3,0c-0.1-1.8,0-3.7,0.3-5.5c-0.4-0.1-0.8-0.1-1.2-0.2
			c-0.1,0.9-0.2,1.9-0.3,2.8c-0.1,1.3-0.4,2.4-2.1,2c-1.2-0.2-0.9-1.4-0.9-2.3c0-0.9,0.1-1.9,0.1-2.8C414.7,15,413.5,15,413.4,15.8
			L413.4,15.8z"/>
	</g>
</g>
<g id="XMLID_1690_">
	<g id="XMLID_1563_">
		<path id="XMLID_1567_" class="st0" d="M420.6,14c0.1,2.2-0.1,4.6,0.2,6.8c0.1,1.1,0.9,2,2.1,1.6c0.7-0.3,0.4-1.5-0.3-1.2
			c-0.6,0.2-0.6-3.3-0.6-3.7c0-1.2-0.1-2.3-0.1-3.5C421.8,13.2,420.5,13.2,420.6,14L420.6,14z"/>
	</g>
</g>
<g id="XMLID_1698_">
	<g id="XMLID_1555_">
		<path id="XMLID_1560_" class="st0" d="M419.9,16.4c0.9,0.4,2.1,0.3,3.1,0.2c0.8,0,0.8-1.3,0-1.3c-0.4,0-0.8,0-1.2,0
			c-0.3,0-0.9,0.1-1.2-0.1C419.8,15,419.2,16.1,419.9,16.4L419.9,16.4z"/>
	</g>
</g>
<g id="XMLID_331_">
	<g id="XMLID_333_">
		<path id="XMLID_337_" class="st0" d="M388.8,40.9c-2.4-0.2-5,2.2-4.7,4.6c0.3,2.7,1.3,5.9,4.5,5.6c5-0.4,6.2-10.6,0.3-10.1
			c-0.8,0.1-0.8,1.3,0,1.3c4.2-0.3,2.9,6.3,0.2,7.3c-2.3,0.9-2.9-1.3-3.5-3c-0.6-2.1,0.7-4.7,3.2-4.5
			C389.6,42.2,389.6,40.9,388.8,40.9L388.8,40.9z"/>
	</g>
</g>
<g id="XMLID_324_">
	<g id="XMLID_326_">
		<path id="XMLID_330_" class="st0" d="M394.4,44.2c0.1,0.9,0.1,1.9,0.2,2.8c0,0.7,0,1.6,0.2,2.3c0.3,1.2,1.5,1.4,2.6,1.5
			c3.1,0,3.2-4.5,3.2-6.7c0-0.8-1.2-0.8-1.3,0c-0.1,2.1-0.2,4.2-0.3,6.3c0,0.8,1.2,0.8,1.3,0c0.1-2.1,0.2-4.2,0.3-6.3
			c-0.4,0-0.8,0-1.3,0c0,1.6,0.1,5.4-2.2,5.4c-1.3,0-1.3-1-1.3-2.1c-0.1-1.1-0.1-2.2-0.2-3.3C395.6,43.4,394.3,43.3,394.4,44.2
			L394.4,44.2z"/>
	</g>
</g>
<g id="XMLID_317_">
	<g id="XMLID_319_">
		<path id="XMLID_323_" class="st0" d="M402,42.5c0.5,2.4-0.5,4.8,0,7.2c0.2,1.2,1.2,1.6,2.3,1.2c0.8-0.2,0.4-1.5-0.3-1.2
			c-1.3,0.4-0.6-3.3-0.6-3.9c0.1-1.2,0.1-2.4-0.2-3.6C403.1,41.4,401.9,41.7,402,42.5L402,42.5z"/>
	</g>
</g>
<g id="XMLID_310_">
	<g id="XMLID_312_">
		<path id="XMLID_316_" class="st0" d="M401.6,44.8c0.8,0,1.6,0,2.3,0c0.8,0,0.8-1.2,0-1.3c-0.8,0-1.6,0-2.3,0
			C400.8,43.5,400.8,44.7,401.6,44.8L401.6,44.8z"/>
	</g>
</g>
<g id="XMLID_303_">
	<g id="XMLID_305_">
		<path id="XMLID_309_" class="st0" d="M405.6,44.2c0.2,2.9,0.1,5.7-0.1,8.6c-0.1,0.8,1.2,0.8,1.3,0c0.3-2.9,0.3-5.7,0.1-8.6
			C406.8,43.4,405.6,43.4,405.6,44.2L405.6,44.2z"/>
	</g>
</g>
<g id="XMLID_296_">
	<g id="XMLID_298_">
		<path id="XMLID_302_" class="st0" d="M406.7,46c0.4-0.7,1-1,1.8-1.2c0.5-0.1,1.3-0.1,1.7,0.3c0.2,0.3,0.2,0.9,0.3,1.3
			c0,0.6,0.2,1.5-0.1,2.1c-0.4,1-2.6,1.3-3.4,0.6c-0.6-0.5-1.5,0.4-0.9,0.9c1.2,1,3.2,0.9,4.5,0.1c1.4-0.8,1.2-2.8,1.1-4.1
			c-0.1-1.5-0.8-2.7-2.5-2.6c-1.4,0-2.8,0.7-3.5,1.9C405.2,46.1,406.3,46.7,406.7,46L406.7,46z"/>
	</g>
</g>
<g id="XMLID_289_">
	<g id="XMLID_291_">
		<path id="XMLID_295_" class="st0" d="M413.4,44.1c0,1.5-0.3,3.3-0.1,4.8c0.2,1.2,1.4,1.5,2.5,1.6c3.4,0.3,3-3.9,3.2-6.2
			c0.1-0.7-1.1-0.9-1.2-0.2c-0.3,1.9-0.4,3.9-0.3,5.8c0.1,0.8,1.3,0.8,1.3,0c-0.1-1.8,0-3.7,0.3-5.5c-0.4-0.1-0.8-0.1-1.2-0.2
			c-0.1,0.9-0.2,1.9-0.3,2.8c-0.1,1.3-0.4,2.4-2.1,2c-1.2-0.2-0.9-1.4-0.9-2.3c0-0.9,0.1-1.9,0.1-2.8
			C414.7,43.3,413.5,43.3,413.4,44.1L413.4,44.1z"/>
	</g>
</g>
<g id="XMLID_258_">
	<g id="XMLID_260_">
		<path id="XMLID_264_" class="st0" d="M420.6,42.3c0.1,2.2-0.1,4.6,0.2,6.8c0.1,1.1,0.9,2,2.1,1.6c0.7-0.3,0.4-1.5-0.3-1.2
			c-0.6,0.2-0.6-3.3-0.6-3.7c0-1.2-0.1-2.3-0.1-3.5C421.8,41.5,420.5,41.5,420.6,42.3L420.6,42.3z"/>
	</g>
</g>
<g id="XMLID_46_">
	<g id="XMLID_253_">
		<path id="XMLID_257_" class="st0" d="M419.9,44.8c0.9,0.4,2.1,0.3,3.1,0.2c0.8,0,0.8-1.3,0-1.3c-0.4,0-0.8,0-1.2,0
			c-0.3,0-0.9,0.1-1.2-0.1C419.8,43.3,419.2,44.4,419.9,44.8L419.9,44.8z"/>
	</g>
</g>
<g id="XMLID_1707_">
	<g id="XMLID_1549_">
		<path id="XMLID_1553_" class="st0" d="M270.7,31.8c0,1.6-0.5,3.1-0.6,4.6c-0.1,1.4,0,2.7,0.2,4c0.1,0.8,1.3,0.5,1.2-0.3
			c-0.2-1.4-0.3-2.9-0.2-4.3c0.1-1.4,0.5-2.7,0.5-4C271.9,31,270.7,31,270.7,31.8L270.7,31.8z"/>
	</g>
</g>
<g id="XMLID_1715_">
	<g id="XMLID_1542_">
		<path id="XMLID_1547_" class="st0" d="M271,32.3c0.8-0.1,4.4-0.5,4.6,0.8c0.2,1.5-1.1,1.9-2.2,2c-0.7,0.1-1.4,0-2-0.1
			c0,0.4,0,0.8,0,1.3c0.8-0.1,1.5-0.2,2.3-0.2c1.2,0,2.1,0.1,2.4,1.4c0.7,2.7-3.4,2.3-5.1,2.3c-0.8,0-0.8,1.2,0,1.3
			c2.3,0.1,6.7,0.2,6.6-3.3c-0.1-3.3-3.9-2.9-6.2-2.7c-0.8,0.1-0.8,1.2,0,1.3c2,0.2,5.9,0.1,5.6-2.9c-0.3-3-3.6-2.6-5.9-2.4
			C270.2,31.1,270.2,32.4,271,32.3L271,32.3z"/>
	</g>
</g>
<g id="XMLID_1723_">
	<g id="XMLID_1535_">
		<path id="XMLID_1540_" class="st0" d="M279.1,31.5c-0.4,2.8-0.4,5.7-0.3,8.5c0,0.8,1.3,0.8,1.3,0c-0.2-2.9-0.1-5.7,0.3-8.5
			C280.5,30.7,279.2,30.7,279.1,31.5L279.1,31.5z"/>
	</g>
</g>
<g id="XMLID_1731_">
	<g id="XMLID_1524_">
		<path id="XMLID_1532_" class="st0" d="M283,35.9c0.7-1.1,2.1-1.7,2.9-0.3c0.5,0.9,0.2,2.3,0.2,3.3c-0.1,1.1,0.3,2,1.5,1.8
			c0.8-0.1,0.5-1.3-0.3-1.2c0.3-0.1,0.1-3.1,0-3.5c-0.1-0.9-0.4-1.7-1.2-2.2c-1.5-0.9-3.2,0-4.1,1.3C281.5,35.9,282.6,36.5,283,35.9
			L283,35.9z"/>
	</g>
</g>
<g id="XMLID_1739_">
	<g id="XMLID_1514_">
		<path id="XMLID_1522_" class="st0" d="M286.4,35.9c-1.2,0.3-2.7,0.4-3.8,1c-0.8,0.4-1.3,1.7-1.1,2.5c0.3,1,1.6,1.3,2.4,1.2
			c1.2,0,2.2-0.6,3-1.4c0.6-0.6-0.3-1.4-0.9-0.9c-0.4,0.4-0.9,0.8-1.6,0.9c-0.6,0.2-2.2,0.2-1.7-0.9c0.3-0.6,1.2-0.7,1.8-0.8
			c0.7-0.2,1.3-0.3,2-0.5C287.5,37,287.2,35.8,286.4,35.9L286.4,35.9z"/>
	</g>
</g>
<g id="XMLID_1747_">
	<g id="XMLID_1507_">
		<path id="XMLID_1511_" class="st0" d="M294.7,35.4c-0.2-0.7-0.1-1.1-0.8-1.5c-0.7-0.4-1.6-0.4-2.4-0.4c-1.6,0.1-2.5,1.1-2.7,2.7
			c-0.2,1.5,0,3.5,1.5,4.2c0.7,0.4,1.8,0.5,2.6,0.4c0.8-0.2,1-0.8,1.7-1.1c0.7-0.4,0.1-1.5-0.6-1.1c-0.9,0.5-1.2,1.2-2.4,0.9
			c-1.3-0.3-1.6-1.3-1.6-2.5c0-1,0.2-2.2,1.5-2.3c0.4,0,0.9,0,1.3,0.1c0.6,0.2,0.5,0.4,0.7,1C293.8,36.5,295,36.2,294.7,35.4
			L294.7,35.4z"/>
	</g>
</g>
<g id="XMLID_1756_">
	<g id="XMLID_1498_">
		<path id="XMLID_1504_" class="st0" d="M296.2,31.5c-0.2,2.8,0.5,5.7,0.1,8.5c-0.1,0.8,1.1,1.1,1.2,0.3c0.5-3-0.3-5.9,0-8.8
			C297.5,30.7,296.3,30.7,296.2,31.5L296.2,31.5z"/>
	</g>
</g>
<g id="XMLID_1764_">
	<g id="XMLID_1490_">
		<path id="XMLID_1496_" class="st0" d="M297.9,37.6c0.1-0.3,0.5-0.6,0.7-0.8c0.3-0.3,0.6-0.5,0.8-0.8c0.6-0.5,1.1-1,1.6-1.6
			c0.5-0.6-0.4-1.5-0.9-0.9c-0.6,0.7-1.3,1.3-1.9,1.9c-0.6,0.5-1.3,1.1-1.5,1.9C296.5,38.1,297.7,38.4,297.9,37.6L297.9,37.6z"/>
	</g>
</g>
<g id="XMLID_1772_">
	<g id="XMLID_1482_">
		<path id="XMLID_1488_" class="st0" d="M297.9,36.3c0.1,0.7,0.6,1.3,1,1.9c0.5,0.7,1,1.5,1.6,2.2c0.5,0.6,1.5,0,1.1-0.6
			c-0.5-0.7-0.9-1.3-1.4-2c-0.4-0.6-0.9-1.1-1.1-1.8C299,35.2,297.8,35.5,297.9,36.3L297.9,36.3z"/>
	</g>
</g>
<g id="XMLID_1780_">
	<g id="XMLID_1443_">
		<path id="XMLID_1480_" class="st0" d="M302.9,31.5c0.1,2.9,0.1,5.7,0,8.6c0,0.8,1.2,0.8,1.3,0c0.1-2.9,0.2-5.7,0-8.6
			C304.1,30.7,302.9,30.7,302.9,31.5L302.9,31.5z"/>
	</g>
</g>
<g id="XMLID_1788_">
	<g id="XMLID_39_">
		<path id="XMLID_48_" class="st0" d="M303.8,32.5c1.4-0.1,3.4-1.1,4.1,0.6c0.9,2-2.5,2-3.7,2c-0.8,0-0.8,1.2,0,1.3
			c1.3,0.1,6.3-0.2,3.9,2.4c-1.1,1.2-2.8,1.3-4.4,1.1c-0.8-0.1-0.8,1.2,0,1.3c2,0.2,6.1-0.1,6.3-2.8c0.2-3.5-3.4-3.1-5.8-3.2
			c0,0.4,0,0.8,0,1.3c2.2-0.1,5.5-0.2,5-3.1c-0.5-3.1-3.1-2.3-5.5-2.1C303,31.4,303,32.6,303.8,32.5L303.8,32.5z"/>
	</g>
</g>
<g id="XMLID_1796_">
	<g id="XMLID_29_">
		<path id="XMLID_36_" class="st0" d="M314.5,33.3c-4.4,0.2-4.9,7.7-0.2,7.6C319.2,40.9,318.9,33.9,314.5,33.3
			c-0.9,0-0.9,1.3-0.1,1.3c2.9,0.3,3.2,5.2-0.1,5.1c-3.1-0.1-2.6-5,0.2-5.1C315.3,34.5,315.3,33.3,314.5,33.3L314.5,33.3z"/>
	</g>
</g>
<g id="XMLID_1805_">
	<g id="XMLID_23_">
		<path id="XMLID_27_" class="st0" d="M318.7,34.4c0.7,0.8,1.1,1.9,1.8,2.8c0.8,1.1,1.7,2.2,2.4,3.3c0.4,0.7,1.5,0.1,1.1-0.6
			c-0.7-1.1-1.5-2.2-2.4-3.3c-0.8-1-1.2-2.2-2-3.1C319.1,33,318.2,33.8,318.7,34.4L318.7,34.4z"/>
	</g>
</g>
<g id="XMLID_1813_">
	<g id="XMLID_12_">
		<path id="XMLID_18_" class="st0" d="M323.2,33.3c-2.2,1.9-3.3,4.6-5,6.8c-0.5,0.6,0.4,1.5,0.9,0.9c1.8-2.2,2.9-5,5-6.8
			C324.7,33.6,323.8,32.7,323.2,33.3L323.2,33.3z"/>
	</g>
</g>
<g id="XMLID_17_">
	<g id="XMLID_97_">
		<path id="XMLID_101_" class="st0" d="M264,11.2c18.4,0,36.8,0,55.1,0.1c2.1,0,4.7-0.4,6.8,0c4.8,0.8,5.2,3.8,5.3,7.6
			c0.1,4.4-0.1,8.8-0.3,13.3c-0.2,4.4-0.4,8.8-0.4,13.3c0,2.5,0.1,5,0.2,7.5c0.1,3.3,0.9,4.7-1.8,7c-2.5,2.2-3.8,1.7-6.9,1.5
			c-2.3-0.2-4.6-0.4-6.9-0.3c-4.2,0.1-8.4,0.6-12.6,0.4c-8.9-0.6-17.7-0.2-26.6-0.2c-2.2,0-4.5,0-6.7-0.2c-4.1-0.4-5.3-2.4-5.8-6.5
			c-0.5-4.3,0.1-9.1,0.1-13.5c0-4.5,0.1-9,0.1-13.5c0-2.4-1.3-15.3,0.9-16.4c0.7-0.4,0.1-1.5-0.6-1.1c-1.7,0.9-1.4,2.2-1.4,4
			c-0.1,5.1-0.1,10.3-0.1,15.4c0,4.5-0.1,9-0.1,13.5c0,4.7-0.9,10.2-0.1,14.8c1,5.3,7.8,4.6,11.8,4.7c9.2,0.1,18.4-0.6,27.6,0.1
			c4.6,0.3,9-0.1,13.5-0.3c4.2-0.2,8.5,0.9,12.7,0.4c1.3-0.1,3.3-0.3,4.1-1.6c1.5-2.5,0.1-8.3,0-11.1c-0.3-9.2,0.6-18.3,0.7-27.5
			c0.1-4.4,1.6-11.6-4.2-12.5c-5-0.9-10.8-0.1-15.8-0.1c-5.4,0-10.7,0-16.1,0c-10.8,0-21.6,0-32.4,0C263.2,9.9,263.2,11.1,264,11.2
			L264,11.2z"/>
	</g>
</g>
<g id="XMLID_1166_">
	<g id="XMLID_281_">
		<path id="XMLID_285_" class="st0" d="M231.3,6.5c-4-0.5-3.9,9.1,0.8,8.3c2-0.3,2.2-3.5,2.1-5c-0.2-2.6-1.4-3.7-4-3.4
			c-0.8,0.1-0.5,1.3,0.3,1.2c1-0.1,1.7-0.2,2.2,1c0.2,0.4,0.2,1.3,0.2,1.8c0,1-0.1,2.4-1.1,2.8c-2.8,1.1-2.8-5.7-0.6-5.5
			C232.1,7.9,232.1,6.6,231.3,6.5L231.3,6.5z"/>
	</g>
</g>
<g id="XMLID_34_">
	<g id="XMLID_1159_">
		<g id="XMLID_275_">
			<path id="XMLID_279_" class="st0" d="M214.9,20.4c1-0.7,1.9-1.3,2.9-2c-0.3-0.2-0.6-0.5-0.9-0.7c-0.5,2.5-0.7,5-0.6,7.6
				c0,0.8,1.3,0.8,1.3,0c-0.1-2.4,0.1-4.9,0.6-7.3c0.1-0.5-0.4-1-0.9-0.7c-1,0.7-1.9,1.3-2.9,2C213.6,19.8,214.2,20.9,214.9,20.4
				L214.9,20.4z"/>
		</g>
	</g>
	<g id="XMLID_795_">
		<g id="XMLID_269_">
			<path id="XMLID_273_" class="st0" d="M214,26.1c1.7,0,3.4-0.1,5.1-0.2c0.8,0,0.8-1.3,0-1.3c-1.7,0.1-3.4,0.1-5.1,0.2
				C213.2,24.8,213.2,26.1,214,26.1L214,26.1z"/>
		</g>
	</g>
</g>
<g id="XMLID_32_">
	<g id="XMLID_266_">
		<path id="XMLID_288_" class="st0" d="M215.1,48.9c0.2-0.4,0.5-0.8,0.9-1c0.6-0.4,0.9-0.5,1.5,0c0.5,0.4,0.5,0.6,0.4,1.2
			c-0.1,0.4-0.3,0.8-0.4,1.1c-0.7,1.4-2,2.5-3.5,3c-0.7,0.2-0.5,1.2,0.2,1.2c2.2,0.2,4.3,0.1,6.5-0.1c0.8-0.1,0.8-1.3,0-1.3
			c-2.2,0.2-4.3,0.3-6.5,0.1c0.1,0.4,0.1,0.8,0.2,1.2c2.5-0.9,5.3-3.5,5-6.4c-0.4-3.2-4-1.7-5.1,0.2
			C213.6,48.9,214.7,49.6,215.1,48.9L215.1,48.9z"/>
	</g>
</g>
<g id="XMLID_345_">
	<g id="XMLID_353_">
		<g id="XMLID_355_">
			<path id="XMLID_359_" class="st0" d="M426.1,20.4c1-0.7,1.9-1.3,2.9-2c-0.3-0.2-0.6-0.5-0.9-0.7c-0.5,2.5-0.7,5-0.6,7.6
				c0,0.8,1.3,0.8,1.3,0c-0.1-2.4,0.1-4.9,0.6-7.3c0.1-0.5-0.4-1-0.9-0.7c-1,0.7-1.9,1.3-2.9,2C424.8,19.8,425.4,20.9,426.1,20.4
				L426.1,20.4z"/>
		</g>
	</g>
	<g id="XMLID_346_">
		<g id="XMLID_348_">
			<path id="XMLID_352_" class="st0" d="M425.2,26.1c1.7,0,3.4-0.1,5.1-0.2c0.8,0,0.8-1.3,0-1.3c-1.7,0.1-3.4,0.1-5.1,0.2
				C424.4,24.8,424.4,26.1,425.2,26.1L425.2,26.1z"/>
		</g>
	</g>
</g>
<g id="XMLID_338_">
	<g id="XMLID_340_">
		<path id="XMLID_344_" class="st0" d="M426.3,48.9c0.2-0.4,0.5-0.8,0.9-1c0.6-0.4,0.9-0.5,1.5,0c0.5,0.4,0.5,0.6,0.4,1.2
			c-0.1,0.4-0.3,0.8-0.4,1.1c-0.7,1.4-2,2.5-3.5,3c-0.7,0.2-0.5,1.2,0.2,1.2c2.2,0.2,4.3,0.1,6.5-0.1c0.8-0.1,0.8-1.3,0-1.3
			c-2.2,0.2-4.3,0.3-6.5,0.1c0.1,0.4,0.1,0.8,0.2,1.2c2.5-0.9,5.3-3.5,5-6.4c-0.4-3.2-4-1.7-5.1,0.2
			C424.8,48.9,425.9,49.6,426.3,48.9L426.3,48.9z"/>
	</g>
</g>
</svg>
