<?xml version="1.0" encoding="utf-8"?>
<!-- Generator: Adobe Illustrator 19.0.0, SVG Export Plug-In . SVG Version: 6.00 Build 0)  -->
<svg version="1.1" id="Layer_1" xmlns="http://www.w3.org/2000/svg" xmlns:xlink="http://www.w3.org/1999/xlink" x="0px" y="0px"
	 viewBox="0 0 595.3 64" style="enable-background:new 0 0 595.3 64;" xml:space="preserve">
<style type="text/css">
	.st0{fill:#161616;}
</style>
<g id="XMLID_1543_">
	<g id="XMLID_1852_">
		<path id="XMLID_1857_" class="st0" d="M324.8,5.3c-1.8,0-3.6,0.1-5.4,0.1c-0.8,0-0.8,1.3,0,1.3c1.8,0,3.6-0.1,5.4-0.1
			C325.6,6.5,325.6,5.2,324.8,5.3L324.8,5.3z"/>
	</g>
</g>
<g id="XMLID_1536_">
	<g id="XMLID_1845_">
		<path id="XMLID_1850_" class="st0" d="M330.4,4.7c-2.5,0.8-3.7,3.3-3.9,5.9c-0.1,2.8,1.5,4.4,3.8,5.5c0.7,0.3,1.4-0.7,0.6-1.1
			c-1.5-0.7-2.8-1.4-3.1-3.2c-0.5-2.2,0.7-5.2,2.9-5.9C331.5,5.6,331.2,4.4,330.4,4.7L330.4,4.7z"/>
	</g>
</g>
<g id="XMLID_1528_">
	<g id="XMLID_1838_">
		<path id="XMLID_1843_" class="st0" d="M345,5.7c3.9,1.6,3.8,7.8,0,9.4c-0.7,0.3-0.4,1.5,0.3,1.2c2.5-1,3.7-3,3.8-5.7
			c0-2.4-1.2-5-3.5-6C344.9,4.4,344.3,5.4,345,5.7L345,5.7z"/>
	</g>
</g>
<g id="XMLID_21_">
	<g id="XMLID_1793_">
		<path id="XMLID_1799_" class="st0" d="M327,0.9c-7.6-2.6-5,11.5-6.7,14.5c-0.4,0.7,0.7,1.3,1.1,0.6c1.6-2.9-0.2-15.9,5.3-14
			C327.5,2.4,327.8,1.2,327,0.9L327,0.9z"/>
	</g>
</g>
<g id="XMLID_1500_">
	<g id="XMLID_1831_">
		<path id="XMLID_1836_" class="st0" d="M349.7,20.9c-0.4-0.9-1.3-1.4-2.2-1.9c-0.7-0.4-1.3,0.7-0.6,1.1c0.7,0.4,1.4,0.7,1.7,1.5
			C348.9,22.2,350,21.6,349.7,20.9L349.7,20.9z"/>
	</g>
</g>
<g id="XMLID_44_">
	<g id="XMLID_1824_">
		<path id="XMLID_1829_" class="st0" d="M348.6,21c-0.4,0.6-1,1-1.6,1.3c-0.7,0.4-0.1,1.5,0.6,1.1c0.8-0.5,1.5-1.1,2-1.8
			c0.2-0.3,0-0.7-0.2-0.9C349.1,20.6,348.8,20.8,348.6,21L348.6,21z"/>
	</g>
</g>
<g id="XMLID_1592_">
	<g id="XMLID_1817_">
		<path id="XMLID_1822_" class="st0" d="M234.7,20.4c-0.4-0.9-1.3-1.4-2.2-1.9c-0.7-0.4-1.3,0.7-0.6,1.1c0.7,0.4,1.4,0.7,1.7,1.5
			C234,21.8,235.1,21.1,234.7,20.4L234.7,20.4z"/>
	</g>
</g>
<g id="XMLID_1517_">
	<g id="XMLID_1809_">
		<path id="XMLID_1815_" class="st0" d="M233.6,20.6c-0.4,0.6-1,1-1.6,1.3c-0.7,0.4-0.1,1.5,0.6,1.1c0.8-0.5,1.5-1.1,2-1.8
			c0.2-0.3,0-0.7-0.2-0.9C234.2,20.2,233.8,20.3,233.6,20.6L233.6,20.6z"/>
	</g>
</g>
<g id="XMLID_40_">
	<g id="XMLID_1768_">
		<path id="XMLID_1774_" class="st0" d="M197.5,5.2c-0.4,3.5-0.2,7.1,0,10.6c0,0.8,1.3,0.8,1.3,0c-0.2-3.5-0.4-7.1,0-10.6
			C198.8,4.4,197.6,4.4,197.5,5.2L197.5,5.2z"/>
	</g>
</g>
<g id="XMLID_42_">
	<g id="XMLID_1760_">
		<path id="XMLID_1766_" class="st0" d="M207.6,16.2c1.2-1.1,2-2.5,3.2-3.6c0.6-0.6,2-1.3,2-2.2c0.1-0.8-1-1.5-1.4-2
			c-1.2-1.3-2.5-2.4-3.9-3.5c-0.6-0.5-1.5,0.4-0.9,0.9c0.9,0.7,1.8,1.5,2.6,2.3c0.3,0.3,2.3,1.9,2.2,2.3c0,0.5-1.9,1.8-2.3,2.2
			c-0.9,0.9-1.6,2-2.5,2.9C206.1,15.9,207,16.8,207.6,16.2L207.6,16.2z"/>
	</g>
</g>
<g id="XMLID_130_">
	<g id="XMLID_145_">
		<g id="XMLID_153_">
			<g id="XMLID_155_">
				<path id="XMLID_159_" class="st0" d="M201,36.8c0.6-0.1,1.1,1.6,1.3,2c0.3,0.7,0.7,1.3,1.2,1.9c0.7,1,1.4,1.8,2.7,1.6
					c0.8-0.2,0.5-1.4-0.3-1.2c-1.1,0.2-2.5-3-2.9-3.8c-0.4-1-1.1-1.9-2.3-1.6C199.9,35.7,200.2,36.9,201,36.8L201,36.8z"/>
			</g>
		</g>
		<g id="XMLID_146_">
			<g id="XMLID_148_">
				<path id="XMLID_152_" class="st0" d="M201.2,42.1c1.4-1.9,2.9-3.8,4.5-5.5c0.5-0.6-0.3-1.5-0.9-0.9c-1.7,1.8-3.3,3.8-4.7,5.8
					C199.7,42.1,200.8,42.7,201.2,42.1L201.2,42.1z"/>
			</g>
		</g>
	</g>
	<g id="XMLID_138_">
		<g id="XMLID_140_">
			<path id="XMLID_144_" class="st0" d="M197.5,33.5c-0.4,3.5-0.2,7.1,0,10.6c0,0.8,1.3,0.8,1.3,0c-0.2-3.5-0.4-7.1,0-10.6
				C198.8,32.7,197.6,32.8,197.5,33.5L197.5,33.5z"/>
		</g>
	</g>
	<g id="XMLID_131_">
		<g id="XMLID_133_">
			<path id="XMLID_137_" class="st0" d="M207.6,44.6c1.2-1.1,2-2.5,3.2-3.6c0.6-0.6,2-1.3,2-2.2c0.1-0.8-1-1.5-1.4-2
				c-1.2-1.3-2.5-2.4-3.9-3.5c-0.6-0.5-1.5,0.4-0.9,0.9c0.9,0.7,1.8,1.5,2.6,2.3c0.3,0.3,2.3,1.9,2.2,2.3c0,0.5-1.9,1.8-2.3,2.2
				c-0.9,0.9-1.6,2-2.5,2.9C206.1,44.3,207,45.1,207.6,44.6L207.6,44.6z"/>
		</g>
	</g>
</g>
<g id="XMLID_160_">
	<g id="XMLID_175_">
		<g id="XMLID_183_">
			<g id="XMLID_185_">
				<path id="XMLID_189_" class="st0" d="M337.1,36.8c0.6-0.1,1.1,1.6,1.3,2c0.3,0.7,0.7,1.3,1.2,1.9c0.7,1,1.4,1.8,2.7,1.6
					c0.8-0.2,0.5-1.4-0.3-1.2c-1.1,0.2-2.5-3-2.9-3.8c-0.4-1-1.1-1.9-2.3-1.6C336,35.7,336.3,36.9,337.1,36.8L337.1,36.8z"/>
			</g>
		</g>
		<g id="XMLID_176_">
			<g id="XMLID_178_">
				<path id="XMLID_182_" class="st0" d="M337.3,42.1c1.4-1.9,2.9-3.8,4.5-5.5c0.5-0.6-0.3-1.5-0.9-0.9c-1.7,1.8-3.3,3.8-4.7,5.8
					C335.7,42.1,336.8,42.7,337.3,42.1L337.3,42.1z"/>
			</g>
		</g>
	</g>
	<g id="XMLID_168_">
		<g id="XMLID_170_">
			<path id="XMLID_174_" class="st0" d="M333.6,33.5c-0.4,3.5-0.2,7.1,0,10.6c0,0.8,1.3,0.8,1.3,0c-0.2-3.5-0.4-7.1,0-10.6
				C334.9,32.7,333.6,32.8,333.6,33.5L333.6,33.5z"/>
		</g>
	</g>
	<g id="XMLID_161_">
		<g id="XMLID_163_">
			<path id="XMLID_167_" class="st0" d="M343.7,44.6c1.2-1.1,2-2.5,3.2-3.6c0.6-0.6,2-1.3,2-2.2c0.1-0.8-1-1.5-1.4-2
				c-1.2-1.3-2.5-2.4-3.9-3.5c-0.6-0.5-1.5,0.4-0.9,0.9c0.9,0.7,1.8,1.5,2.6,2.3c0.3,0.3,2.3,1.9,2.2,2.3c0,0.5-1.9,1.8-2.3,2.2
				c-0.9,0.9-1.6,2-2.5,2.9C342.2,44.3,343.1,45.1,343.7,44.6L343.7,44.6z"/>
		</g>
	</g>
</g>
<g id="XMLID_1484_">
	<g id="XMLID_1530_">
		<g id="XMLID_1559_">
			<g id="XMLID_1752_">
				<path id="XMLID_1758_" class="st0" d="M335.7,8.3c0.6-0.1,1.1,1.6,1.3,2c0.3,0.7,0.7,1.3,1.2,1.9c0.7,1,1.4,1.8,2.7,1.6
					c0.8-0.2,0.5-1.4-0.3-1.2c-1.1,0.2-2.5-3-2.9-3.8c-0.4-1-1.1-1.9-2.3-1.6C334.5,7.3,334.9,8.5,335.7,8.3L335.7,8.3z"/>
			</g>
		</g>
		<g id="XMLID_1531_">
			<g id="XMLID_1744_">
				<path id="XMLID_1750_" class="st0" d="M335.9,13.6c1.4-1.9,2.9-3.8,4.5-5.5c0.5-0.6-0.3-1.5-0.9-0.9c-1.7,1.8-3.3,3.8-4.7,5.8
					C334.3,13.6,335.4,14.3,335.9,13.6L335.9,13.6z"/>
			</g>
		</g>
	</g>
	<g id="XMLID_1521_">
		<g id="XMLID_1736_">
			<path id="XMLID_1742_" class="st0" d="M332.1,5.1c-0.4,3.5-0.2,7.1,0,10.6c0,0.8,1.3,0.8,1.3,0c-0.2-3.5-0.4-7.1,0-10.6
				C333.5,4.3,332.2,4.3,332.1,5.1L332.1,5.1z"/>
		</g>
	</g>
	<g id="XMLID_1491_">
		<g id="XMLID_1711_">
			<path id="XMLID_1717_" class="st0" d="M342.2,16.1c1.2-1.1,2-2.5,3.2-3.6c0.6-0.6,2-1.3,2-2.2c0.1-0.8-1-1.5-1.4-2
				c-1.2-1.3-2.5-2.4-3.9-3.5c-0.6-0.5-1.5,0.4-0.9,0.9c0.9,0.7,1.8,1.5,2.6,2.3c0.3,0.3,2.3,1.9,2.2,2.3c0,0.5-1.9,1.8-2.3,2.2
				c-0.9,0.9-1.6,2-2.5,2.9C340.8,15.8,341.6,16.7,342.2,16.1L342.2,16.1z"/>
		</g>
	</g>
</g>
<g id="XMLID_19_">
	<g id="XMLID_1728_">
		<path id="XMLID_1733_" class="st0" d="M303.4,21.6c15.1-0.2,30.3,0.6,45.4,0.1c0.8,0,0.8-1.3,0-1.3c-15.1,0.5-30.2-0.3-45.4-0.1
			C302.6,20.4,302.6,21.6,303.4,21.6L303.4,21.6z"/>
	</g>
</g>
<g id="XMLID_20_">
	<g id="XMLID_1719_">
		<path id="XMLID_1725_" class="st0" d="M197.8,21.5c12.1-0.1,24.3,0.5,36.4,0.1c0.8,0,0.8-1.3,0-1.3c-12.1,0.4-24.3-0.2-36.4-0.1
			C197,20.2,197,21.5,197.8,21.5L197.8,21.5z"/>
	</g>
</g>
<g id="XMLID_123_">
	<g id="XMLID_125_">
		<path id="XMLID_129_" class="st0" d="M349.7,49.2c-0.4-0.9-1.3-1.4-2.2-1.9c-0.7-0.4-1.3,0.7-0.6,1.1c0.7,0.4,1.4,0.7,1.7,1.5
			C348.9,50.6,350,49.9,349.7,49.2L349.7,49.2z"/>
	</g>
</g>
<g id="XMLID_116_">
	<g id="XMLID_118_">
		<path id="XMLID_122_" class="st0" d="M348.6,49.4c-0.4,0.6-1,1-1.6,1.3c-0.7,0.4-0.1,1.5,0.6,1.1c0.8-0.5,1.5-1.1,2-1.8
			c0.2-0.3,0-0.7-0.2-0.9C349.1,49,348.8,49.1,348.6,49.4L348.6,49.4z"/>
	</g>
</g>
<g id="XMLID_109_">
	<g id="XMLID_111_">
		<path id="XMLID_115_" class="st0" d="M234.7,48.8c-0.4-0.9-1.3-1.4-2.2-1.9c-0.7-0.4-1.3,0.7-0.6,1.1c0.7,0.4,1.4,0.7,1.7,1.5
			C234,50.1,235.1,49.5,234.7,48.8L234.7,48.8z"/>
	</g>
</g>
<g id="XMLID_102_">
	<g id="XMLID_104_">
		<path id="XMLID_108_" class="st0" d="M233.6,48.9c-0.4,0.6-1,1-1.6,1.3c-0.7,0.4-0.1,1.5,0.6,1.1c0.8-0.5,1.5-1.1,2-1.8
			c0.2-0.3,0-0.7-0.2-0.9C234.2,48.5,233.8,48.7,233.6,48.9L233.6,48.9z"/>
	</g>
</g>
<g id="XMLID_89_">
	<g id="XMLID_91_">
		<path id="XMLID_95_" class="st0" d="M303.4,50c15.1-0.2,30.3,0.6,45.4,0.1c0.8,0,0.8-1.3,0-1.3c-15.1,0.5-30.2-0.3-45.4-0.1
			C302.6,48.7,302.6,50,303.4,50L303.4,50z"/>
	</g>
</g>
<g id="XMLID_81_">
	<g id="XMLID_84_">
		<path id="XMLID_88_" class="st0" d="M197.8,49.8c12.1-0.1,24.3,0.5,36.4,0.1c0.8,0,0.8-1.3,0-1.3c-12.1,0.4-24.3-0.2-36.4-0.1
			C197,48.6,197,49.8,197.8,49.8L197.8,49.8z"/>
	</g>
</g>
<g id="XMLID_1600_">
	<g id="XMLID_1703_">
		<path id="XMLID_1709_" class="st0" d="M155.5,13.2c0.4,2.8-0.1,5.9-0.1,8.7c0,0.8,1.2,0.8,1.3,0c0.1-3,0.5-6.1,0.1-9
			C156.6,12.1,155.4,12.4,155.5,13.2L155.5,13.2z"/>
	</g>
</g>
<g id="XMLID_1601_">
	<g id="XMLID_1695_">
		<path id="XMLID_1701_" class="st0" d="M158.6,15.8c-0.1,2.1-0.1,4.1-0.1,6.2c0,0.8,1.3,0.8,1.3,0c0-2.1,0-4.1,0.1-6.2
			C159.9,15,158.7,15,158.6,15.8L158.6,15.8z"/>
	</g>
</g>
<g id="XMLID_1602_">
	<g id="XMLID_1687_">
		<path id="XMLID_1693_" class="st0" d="M159.8,17.7c0.6-0.6,1.1-1.3,1.9-1.4c1.1-0.1,1.3,0.8,1.4,1.6c0.2,1.4,0.1,2.7,0,4.1
			c-0.1,0.8,1.2,0.8,1.3,0c0.1-1.3,0.2-2.6,0-3.9c-0.1-0.8-0.1-1.9-0.7-2.5c-0.6-0.6-1.7-0.7-2.5-0.6c-1,0.2-1.6,1-2.3,1.7
			C158.3,17.4,159.2,18.3,159.8,17.7L159.8,17.7z"/>
	</g>
</g>
<g id="XMLID_1603_">
	<g id="XMLID_1679_">
		<path id="XMLID_1684_" class="st0" d="M165.9,15.7c0.1,2.9,0.3,5.9,0.1,8.8c0,0.8,1.2,0.8,1.3,0c0.2-2.9,0-5.9-0.1-8.8
			C167.1,14.9,165.9,14.9,165.9,15.7L165.9,15.7z"/>
	</g>
</g>
<g id="XMLID_1605_">
	<g id="XMLID_1670_">
		<path id="XMLID_1676_" class="st0" d="M167.1,18c0.5-0.8,1.1-1.3,2-1.5c1.5-0.3,1.9,0.8,1.9,2.1c0,1.1,0.1,2.1-1,2.5
			c-1.1,0.5-2.1,0.1-2.8-0.8c-0.5-0.6-1.4,0.3-0.9,0.9c1.1,1.2,2.8,1.7,4.3,1c1.8-0.8,1.8-2.4,1.7-4.1c-0.1-1.4-0.7-2.9-2.3-3
			c-1.6-0.1-3.1,0.8-4,2.2C165.6,18,166.7,18.7,167.1,18L167.1,18z"/>
	</g>
</g>
<g id="XMLID_1606_">
	<g id="XMLID_1662_">
		<path id="XMLID_1668_" class="st0" d="M173.9,15.6c-0.3,1.6-0.4,3.3-0.1,5c0.3,1.3,1,1.8,2.2,1.9c3.6,0.4,3.7-4.3,3.6-6.8
			c0-0.8-1.3-0.8-1.3,0c0,1.6,0.3,5.4-1.9,5.6c-1.5,0.1-1.6-1.2-1.6-2.3c0-1,0-2,0.2-3C175.2,15.2,174,14.8,173.9,15.6L173.9,15.6z"
			/>
	</g>
</g>
<g id="XMLID_1608_">
	<g id="XMLID_1654_">
		<path id="XMLID_1660_" class="st0" d="M178.4,15.8c0,2.1,0,4.1-0.1,6.2c0,0.8,1.2,0.8,1.3,0c0.1-2.1,0.1-4.1,0.1-6.2
			C179.6,15,178.4,15,178.4,15.8L178.4,15.8z"/>
	</g>
</g>
<g id="XMLID_1610_">
	<g id="XMLID_1646_">
		<path id="XMLID_1652_" class="st0" d="M181.4,13.9c0,2.4-0.3,5.1,0.1,7.5c0.2,1.2,1,1.5,2.1,1.1c0.8-0.2,0.4-1.4-0.3-1.2
			c-0.9,0.3-0.5-0.6-0.5-1.2c0-0.7,0-1.5,0-2.2c0-1.4,0-2.7,0-4.1C182.6,13.1,181.4,13.1,181.4,13.9L181.4,13.9z"/>
	</g>
</g>
<g id="XMLID_1619_">
	<g id="XMLID_1639_">
		<path id="XMLID_1644_" class="st0" d="M180.7,16.3c1,0.3,2,0.3,3,0.1c0.8-0.2,0.5-1.4-0.3-1.2c-0.8,0.2-1.5,0.1-2.3-0.1
			C180.2,14.9,179.9,16.1,180.7,16.3L180.7,16.3z"/>
	</g>
</g>
<g id="XMLID_246_">
	<g id="XMLID_248_">
		<path id="XMLID_252_" class="st0" d="M155.5,41.6c0.4,2.8-0.1,5.9-0.1,8.7c0,0.8,1.2,0.8,1.3,0c0.1-3,0.5-6.1,0.1-9
			C156.6,40.5,155.4,40.8,155.5,41.6L155.5,41.6z"/>
	</g>
</g>
<g id="XMLID_239_">
	<g id="XMLID_241_">
		<path id="XMLID_245_" class="st0" d="M158.6,44.2c-0.1,2.1-0.1,4.1-0.1,6.2c0,0.8,1.3,0.8,1.3,0c0-2.1,0-4.1,0.1-6.2
			C159.9,43.4,158.7,43.4,158.6,44.2L158.6,44.2z"/>
	</g>
</g>
<g id="XMLID_232_">
	<g id="XMLID_234_">
		<path id="XMLID_238_" class="st0" d="M159.8,46.1c0.6-0.6,1.1-1.3,1.9-1.4c1.1-0.1,1.3,0.8,1.4,1.6c0.2,1.4,0.1,2.7,0,4.1
			c-0.1,0.8,1.2,0.8,1.3,0c0.1-1.3,0.2-2.6,0-3.9c-0.1-0.8-0.1-1.9-0.7-2.5c-0.6-0.6-1.7-0.7-2.5-0.6c-1,0.2-1.6,1-2.3,1.7
			C158.3,45.8,159.2,46.6,159.8,46.1L159.8,46.1z"/>
	</g>
</g>
<g id="XMLID_225_">
	<g id="XMLID_227_">
		<path id="XMLID_231_" class="st0" d="M165.9,44c0.1,2.9,0.3,5.9,0.1,8.8c0,0.8,1.2,0.8,1.3,0c0.2-2.9,0-5.9-0.1-8.8
			C167.1,43.2,165.9,43.2,165.9,44L165.9,44z"/>
	</g>
</g>
<g id="XMLID_218_">
	<g id="XMLID_220_">
		<path id="XMLID_224_" class="st0" d="M167.1,46.3c0.5-0.8,1.1-1.3,2-1.5c1.5-0.3,1.9,0.8,1.9,2.1c0,1.1,0.1,2.1-1,2.5
			c-1.1,0.5-2.1,0.1-2.8-0.8c-0.5-0.6-1.4,0.3-0.9,0.9c1.1,1.2,2.8,1.7,4.3,1c1.8-0.8,1.8-2.4,1.7-4.1c-0.1-1.4-0.7-2.9-2.3-3
			c-1.6-0.1-3.1,0.8-4,2.2C165.6,46.4,166.7,47,167.1,46.3L167.1,46.3z"/>
	</g>
</g>
<g id="XMLID_211_">
	<g id="XMLID_213_">
		<path id="XMLID_217_" class="st0" d="M173.9,44c-0.3,1.6-0.4,3.3-0.1,5c0.3,1.3,1,1.8,2.2,1.9c3.6,0.4,3.7-4.3,3.6-6.8
			c0-0.8-1.3-0.8-1.3,0c0,1.6,0.3,5.4-1.9,5.6c-1.5,0.1-1.6-1.2-1.6-2.3c0-1,0-2,0.2-3C175.2,43.5,174,43.2,173.9,44L173.9,44z"/>
	</g>
</g>
<g id="XMLID_204_">
	<g id="XMLID_206_">
		<path id="XMLID_210_" class="st0" d="M178.4,44.1c0,2.1,0,4.1-0.1,6.2c0,0.8,1.2,0.8,1.3,0c0.1-2.1,0.1-4.1,0.1-6.2
			C179.6,43.3,178.4,43.3,178.4,44.1L178.4,44.1z"/>
	</g>
</g>
<g id="XMLID_197_">
	<g id="XMLID_199_">
		<path id="XMLID_203_" class="st0" d="M181.4,42.3c0,2.4-0.3,5.1,0.1,7.5c0.2,1.2,1,1.5,2.1,1.1c0.8-0.2,0.4-1.4-0.3-1.2
			c-0.9,0.3-0.5-0.6-0.5-1.2c0-0.7,0-1.5,0-2.2c0-1.4,0-2.7,0-4.1C182.6,41.5,181.4,41.5,181.4,42.3L181.4,42.3z"/>
	</g>
</g>
<g id="XMLID_190_">
	<g id="XMLID_192_">
		<path id="XMLID_196_" class="st0" d="M180.7,44.7c1,0.3,2,0.3,3,0.1c0.8-0.2,0.5-1.4-0.3-1.2c-0.8,0.2-1.5,0.1-2.3-0.1
			C180.2,43.3,179.9,44.5,180.7,44.7L180.7,44.7z"/>
	</g>
</g>
<g id="XMLID_1627_">
	<g id="XMLID_1623_">
		<path id="XMLID_1635_" class="st0" d="M360.4,12.5c-2.4-0.2-5,2.2-4.7,4.6c0.3,2.7,1.3,5.9,4.5,5.6c5-0.4,6.2-10.6,0.3-10.1
			c-0.8,0.1-0.8,1.3,0,1.3c4.2-0.3,2.9,6.3,0.2,7.3c-2.3,0.9-2.9-1.3-3.5-3c-0.6-2.1,0.7-4.7,3.2-4.5
			C361.2,13.8,361.2,12.6,360.4,12.5L360.4,12.5z"/>
	</g>
</g>
<g id="XMLID_1642_">
	<g id="XMLID_1615_">
		<path id="XMLID_1621_" class="st0" d="M366,15.8c0.1,0.9,0.1,1.9,0.2,2.8c0,0.7,0,1.6,0.2,2.3c0.3,1.2,1.5,1.4,2.6,1.5
			c3.1,0,3.2-4.5,3.2-6.7c0-0.8-1.2-0.8-1.3,0c-0.1,2.1-0.2,4.2-0.3,6.3c0,0.8,1.2,0.8,1.3,0c0.1-2.1,0.2-4.2,0.3-6.3
			c-0.4,0-0.8,0-1.3,0c0,1.6,0.1,5.4-2.2,5.4c-1.3,0-1.3-1-1.3-2.1c-0.1-1.1-0.1-2.2-0.2-3.3C367.2,15,366,15,366,15.8L366,15.8z"/>
	</g>
</g>
<g id="XMLID_1649_">
	<g id="XMLID_1599_">
		<path id="XMLID_1613_" class="st0" d="M373.7,14.2c0.5,2.4-0.5,4.8,0,7.2c0.2,1.2,1.2,1.6,2.3,1.2c0.8-0.2,0.4-1.5-0.3-1.2
			c-1.3,0.4-0.6-3.3-0.6-3.9c0.1-1.2,0.1-2.4-0.2-3.6C374.8,13.1,373.5,13.4,373.7,14.2L373.7,14.2z"/>
	</g>
</g>
<g id="XMLID_1658_">
	<g id="XMLID_1591_">
		<path id="XMLID_1596_" class="st0" d="M373.2,16.4c0.8,0,1.6,0,2.3,0c0.8,0,0.8-1.2,0-1.3c-0.8,0-1.6,0-2.3,0
			C372.4,15.1,372.4,16.4,373.2,16.4L373.2,16.4z"/>
	</g>
</g>
<g id="XMLID_1666_">
	<g id="XMLID_1584_">
		<path id="XMLID_1588_" class="st0" d="M377.3,15.9c0.2,2.9,0.1,5.7-0.1,8.6c-0.1,0.8,1.2,0.8,1.3,0c0.3-2.9,0.3-5.7,0.1-8.6
			C378.5,15.1,377.2,15,377.3,15.9L377.3,15.9z"/>
	</g>
</g>
<g id="XMLID_1674_">
	<g id="XMLID_1577_">
		<path id="XMLID_1581_" class="st0" d="M378.4,17.7c0.4-0.7,1-1,1.8-1.2c0.5-0.1,1.3-0.1,1.7,0.3c0.2,0.3,0.2,0.9,0.3,1.3
			c0,0.6,0.2,1.5-0.1,2.1c-0.4,1-2.6,1.3-3.4,0.6c-0.6-0.5-1.5,0.4-0.9,0.9c1.2,1,3.2,0.9,4.5,0.1c1.4-0.8,1.2-2.8,1.1-4.1
			c-0.1-1.5-0.8-2.7-2.5-2.6c-1.4,0-2.8,0.7-3.5,1.9C376.9,17.8,378,18.4,378.4,17.7L378.4,17.7z"/>
	</g>
</g>
<g id="XMLID_1682_">
	<g id="XMLID_1570_">
		<path id="XMLID_1574_" class="st0" d="M385.1,15.8c0,1.5-0.3,3.3-0.1,4.8c0.2,1.2,1.4,1.5,2.5,1.6c3.4,0.3,3-3.9,3.2-6.2
			c0.1-0.7-1.1-0.9-1.2-0.2c-0.3,1.9-0.4,3.9-0.3,5.8c0.1,0.8,1.3,0.8,1.3,0c-0.1-1.8,0-3.7,0.3-5.5c-0.4-0.1-0.8-0.1-1.2-0.2
			c-0.1,0.9-0.2,1.9-0.3,2.8c-0.1,1.3-0.4,2.4-2.1,2c-1.2-0.2-0.9-1.4-0.9-2.3c0-0.9,0.1-1.9,0.1-2.8C386.4,15,385.1,15,385.1,15.8
			L385.1,15.8z"/>
	</g>
</g>
<g id="XMLID_1690_">
	<g id="XMLID_1563_">
		<path id="XMLID_1567_" class="st0" d="M392.2,14c0.1,2.2-0.1,4.6,0.2,6.8c0.1,1.1,0.9,2,2.1,1.6c0.7-0.3,0.4-1.5-0.3-1.2
			c-0.6,0.2-0.6-3.3-0.6-3.7c0-1.2-0.1-2.3-0.1-3.5C393.5,13.2,392.2,13.2,392.2,14L392.2,14z"/>
	</g>
</g>
<g id="XMLID_1698_">
	<g id="XMLID_1555_">
		<path id="XMLID_1560_" class="st0" d="M391.6,16.4c0.9,0.4,2.1,0.3,3.1,0.2c0.8,0,0.8-1.3,0-1.3c-0.4,0-0.8,0-1.2,0
			c-0.3,0-0.9,0.1-1.2-0.1C391.5,15,390.9,16.1,391.6,16.4L391.6,16.4z"/>
	</g>
</g>
<g id="XMLID_331_">
	<g id="XMLID_333_">
		<path id="XMLID_337_" class="st0" d="M360.4,40.9c-2.4-0.2-5,2.2-4.7,4.6c0.3,2.7,1.3,5.9,4.5,5.6c5-0.4,6.2-10.6,0.3-10.1
			c-0.8,0.1-0.8,1.3,0,1.3c4.2-0.3,2.9,6.3,0.2,7.3c-2.3,0.9-2.9-1.3-3.5-3c-0.6-2.1,0.7-4.7,3.2-4.5
			C361.2,42.2,361.2,40.9,360.4,40.9L360.4,40.9z"/>
	</g>
</g>
<g id="XMLID_324_">
	<g id="XMLID_326_">
		<path id="XMLID_330_" class="st0" d="M366,44.2c0.1,0.9,0.1,1.9,0.2,2.8c0,0.7,0,1.6,0.2,2.3c0.3,1.2,1.5,1.4,2.6,1.5
			c3.1,0,3.2-4.5,3.2-6.7c0-0.8-1.2-0.8-1.3,0c-0.1,2.1-0.2,4.2-0.3,6.3c0,0.8,1.2,0.8,1.3,0c0.1-2.1,0.2-4.2,0.3-6.3
			c-0.4,0-0.8,0-1.3,0c0,1.6,0.1,5.4-2.2,5.4c-1.3,0-1.3-1-1.3-2.1c-0.1-1.1-0.1-2.2-0.2-3.3C367.2,43.4,366,43.3,366,44.2L366,44.2
			z"/>
	</g>
</g>
<g id="XMLID_317_">
	<g id="XMLID_319_">
		<path id="XMLID_323_" class="st0" d="M373.7,42.5c0.5,2.4-0.5,4.8,0,7.2c0.2,1.2,1.2,1.6,2.3,1.2c0.8-0.2,0.4-1.5-0.3-1.2
			c-1.3,0.4-0.6-3.3-0.6-3.9c0.1-1.2,0.1-2.4-0.2-3.6C374.8,41.4,373.5,41.7,373.7,42.5L373.7,42.5z"/>
	</g>
</g>
<g id="XMLID_310_">
	<g id="XMLID_312_">
		<path id="XMLID_316_" class="st0" d="M373.2,44.8c0.8,0,1.6,0,2.3,0c0.8,0,0.8-1.2,0-1.3c-0.8,0-1.6,0-2.3,0
			C372.4,43.5,372.4,44.7,373.2,44.8L373.2,44.8z"/>
	</g>
</g>
<g id="XMLID_303_">
	<g id="XMLID_305_">
		<path id="XMLID_309_" class="st0" d="M377.3,44.2c0.2,2.9,0.1,5.7-0.1,8.6c-0.1,0.8,1.2,0.8,1.3,0c0.3-2.9,0.3-5.7,0.1-8.6
			C378.5,43.4,377.2,43.4,377.3,44.2L377.3,44.2z"/>
	</g>
</g>
<g id="XMLID_296_">
	<g id="XMLID_298_">
		<path id="XMLID_302_" class="st0" d="M378.4,46c0.4-0.7,1-1,1.8-1.2c0.5-0.1,1.3-0.1,1.7,0.3c0.2,0.3,0.2,0.9,0.3,1.3
			c0,0.6,0.2,1.5-0.1,2.1c-0.4,1-2.6,1.3-3.4,0.6c-0.6-0.5-1.5,0.4-0.9,0.9c1.2,1,3.2,0.9,4.5,0.1c1.4-0.8,1.2-2.8,1.1-4.1
			c-0.1-1.5-0.8-2.7-2.5-2.6c-1.4,0-2.8,0.7-3.5,1.9C376.9,46.1,378,46.7,378.4,46L378.4,46z"/>
	</g>
</g>
<g id="XMLID_289_">
	<g id="XMLID_291_">
		<path id="XMLID_295_" class="st0" d="M385.1,44.1c0,1.5-0.3,3.3-0.1,4.8c0.2,1.2,1.4,1.5,2.5,1.6c3.4,0.3,3-3.9,3.2-6.2
			c0.1-0.7-1.1-0.9-1.2-0.2c-0.3,1.9-0.4,3.9-0.3,5.8c0.1,0.8,1.3,0.8,1.3,0c-0.1-1.8,0-3.7,0.3-5.5c-0.4-0.1-0.8-0.1-1.2-0.2
			c-0.1,0.9-0.2,1.9-0.3,2.8c-0.1,1.3-0.4,2.4-2.1,2c-1.2-0.2-0.9-1.4-0.9-2.3c0-0.9,0.1-1.9,0.1-2.8
			C386.4,43.3,385.1,43.3,385.1,44.1L385.1,44.1z"/>
	</g>
</g>
<g id="XMLID_258_">
	<g id="XMLID_260_">
		<path id="XMLID_264_" class="st0" d="M392.2,42.3c0.1,2.2-0.1,4.6,0.2,6.8c0.1,1.1,0.9,2,2.1,1.6c0.7-0.3,0.4-1.5-0.3-1.2
			c-0.6,0.2-0.6-3.3-0.6-3.7c0-1.2-0.1-2.3-0.1-3.5C393.5,41.5,392.2,41.5,392.2,42.3L392.2,42.3z"/>
	</g>
</g>
<g id="XMLID_46_">
	<g id="XMLID_253_">
		<path id="XMLID_257_" class="st0" d="M391.6,44.8c0.9,0.4,2.1,0.3,3.1,0.2c0.8,0,0.8-1.3,0-1.3c-0.4,0-0.8,0-1.2,0
			c-0.3,0-0.9,0.1-1.2-0.1C391.5,43.3,390.9,44.4,391.6,44.8L391.6,44.8z"/>
	</g>
</g>
<g id="XMLID_1707_">
	<g id="XMLID_1549_">
		<path id="XMLID_1553_" class="st0" d="M242.3,31.8c0,1.6-0.5,3.1-0.6,4.6c-0.1,1.4,0,2.7,0.2,4c0.1,0.8,1.3,0.5,1.2-0.3
			c-0.2-1.4-0.3-2.9-0.2-4.3c0.1-1.4,0.5-2.7,0.5-4C243.6,31,242.3,31,242.3,31.8L242.3,31.8z"/>
	</g>
</g>
<g id="XMLID_1715_">
	<g id="XMLID_1542_">
		<path id="XMLID_1547_" class="st0" d="M242.6,32.3c0.8-0.1,4.4-0.5,4.6,0.8c0.2,1.5-1.1,1.9-2.2,2c-0.7,0.1-1.4,0-2-0.1
			c0,0.4,0,0.8,0,1.3c0.8-0.1,1.5-0.2,2.3-0.2c1.2,0,2.1,0.1,2.4,1.4c0.7,2.7-3.4,2.3-5.1,2.3c-0.8,0-0.8,1.2,0,1.3
			c2.3,0.1,6.7,0.2,6.6-3.3c-0.1-3.3-3.9-2.9-6.2-2.7c-0.8,0.1-0.8,1.2,0,1.3c2,0.2,5.9,0.1,5.6-2.9c-0.3-3-3.6-2.6-5.9-2.4
			C241.8,31.1,241.8,32.4,242.6,32.3L242.6,32.3z"/>
	</g>
</g>
<g id="XMLID_1723_">
	<g id="XMLID_1535_">
		<path id="XMLID_1540_" class="st0" d="M250.8,31.5c-0.4,2.8-0.4,5.7-0.3,8.5c0,0.8,1.3,0.8,1.3,0c-0.2-2.9-0.1-5.7,0.3-8.5
			C252.1,30.7,250.9,30.7,250.8,31.5L250.8,31.5z"/>
	</g>
</g>
<g id="XMLID_1731_">
	<g id="XMLID_1524_">
		<path id="XMLID_1532_" class="st0" d="M254.7,35.9c0.7-1.1,2.1-1.7,2.9-0.3c0.5,0.9,0.2,2.3,0.2,3.3c-0.1,1.1,0.3,2,1.5,1.8
			c0.8-0.1,0.5-1.3-0.3-1.2c0.3-0.1,0.1-3.1,0-3.5c-0.1-0.9-0.4-1.7-1.2-2.2c-1.5-0.9-3.2,0-4.1,1.3
			C253.2,35.9,254.2,36.5,254.7,35.9L254.7,35.9z"/>
	</g>
</g>
<g id="XMLID_1739_">
	<g id="XMLID_1514_">
		<path id="XMLID_1522_" class="st0" d="M258.1,35.9c-1.2,0.3-2.7,0.4-3.8,1c-0.8,0.4-1.3,1.7-1.1,2.5c0.3,1,1.6,1.3,2.4,1.2
			c1.2,0,2.2-0.6,3-1.4c0.6-0.6-0.3-1.4-0.9-0.9c-0.4,0.4-0.9,0.8-1.6,0.9c-0.6,0.2-2.2,0.2-1.7-0.9c0.3-0.6,1.2-0.7,1.8-0.8
			c0.7-0.2,1.3-0.3,2-0.5C259.2,37,258.9,35.8,258.1,35.9L258.1,35.9z"/>
	</g>
</g>
<g id="XMLID_1747_">
	<g id="XMLID_1507_">
		<path id="XMLID_1511_" class="st0" d="M266.4,35.4c-0.2-0.7-0.1-1.1-0.8-1.5c-0.7-0.4-1.6-0.4-2.4-0.4c-1.6,0.1-2.5,1.1-2.7,2.7
			c-0.2,1.5,0,3.5,1.5,4.2c0.7,0.4,1.8,0.5,2.6,0.4c0.8-0.2,1-0.8,1.7-1.1c0.7-0.4,0.1-1.5-0.6-1.1c-0.9,0.5-1.2,1.2-2.4,0.9
			c-1.3-0.3-1.6-1.3-1.6-2.5c0-1,0.2-2.2,1.5-2.3c0.4,0,0.9,0,1.3,0.1c0.6,0.2,0.5,0.4,0.7,1C265.4,36.5,266.6,36.2,266.4,35.4
			L266.4,35.4z"/>
	</g>
</g>
<g id="XMLID_1756_">
	<g id="XMLID_1498_">
		<path id="XMLID_1504_" class="st0" d="M267.9,31.5c-0.2,2.8,0.5,5.7,0.1,8.5c-0.1,0.8,1.1,1.1,1.2,0.3c0.5-3-0.3-5.9,0-8.8
			C269.2,30.7,267.9,30.7,267.9,31.5L267.9,31.5z"/>
	</g>
</g>
<g id="XMLID_1764_">
	<g id="XMLID_1490_">
		<path id="XMLID_1496_" class="st0" d="M269.6,37.6c0.1-0.3,0.5-0.6,0.7-0.8c0.3-0.3,0.6-0.5,0.8-0.8c0.6-0.5,1.1-1,1.6-1.6
			c0.5-0.6-0.4-1.5-0.9-0.9c-0.6,0.7-1.3,1.3-1.9,1.9c-0.6,0.5-1.3,1.1-1.5,1.9C268.1,38.1,269.3,38.4,269.6,37.6L269.6,37.6z"/>
	</g>
</g>
<g id="XMLID_1772_">
	<g id="XMLID_1482_">
		<path id="XMLID_1488_" class="st0" d="M269.6,36.3c0.1,0.7,0.6,1.3,1,1.9c0.5,0.7,1,1.5,1.6,2.2c0.5,0.6,1.5,0,1.1-0.6
			c-0.5-0.7-0.9-1.3-1.4-2c-0.4-0.6-0.9-1.1-1.1-1.8C270.6,35.2,269.4,35.5,269.6,36.3L269.6,36.3z"/>
	</g>
</g>
<g id="XMLID_1780_">
	<g id="XMLID_1443_">
		<path id="XMLID_1480_" class="st0" d="M274.6,31.5c0.1,2.9,0.1,5.7,0,8.6c0,0.8,1.2,0.8,1.3,0c0.1-2.9,0.2-5.7,0-8.6
			C275.8,30.7,274.6,30.7,274.6,31.5L274.6,31.5z"/>
	</g>
</g>
<g id="XMLID_1788_">
	<g id="XMLID_39_">
		<path id="XMLID_48_" class="st0" d="M275.4,32.5c1.4-0.1,3.4-1.1,4.1,0.6c0.9,2-2.5,2-3.7,2c-0.8,0-0.8,1.2,0,1.3
			c1.3,0.1,6.3-0.2,3.9,2.4c-1.1,1.2-2.8,1.3-4.4,1.1c-0.8-0.1-0.8,1.2,0,1.3c2,0.2,6.1-0.1,6.3-2.8c0.2-3.5-3.4-3.1-5.8-3.2
			c0,0.4,0,0.8,0,1.3c2.2-0.1,5.5-0.2,5-3.1c-0.5-3.1-3.1-2.3-5.5-2.1C274.6,31.4,274.6,32.6,275.4,32.5L275.4,32.5z"/>
	</g>
</g>
<g id="XMLID_1796_">
	<g id="XMLID_29_">
		<path id="XMLID_36_" class="st0" d="M286.1,33.3c-4.4,0.2-4.9,7.7-0.2,7.6C290.8,40.9,290.6,33.9,286.1,33.3
			c-0.9,0-0.9,1.3-0.1,1.3c2.9,0.3,3.2,5.2-0.1,5.1c-3.1-0.1-2.6-5,0.2-5.1C286.9,34.5,286.9,33.3,286.1,33.3L286.1,33.3z"/>
	</g>
</g>
<g id="XMLID_1805_">
	<g id="XMLID_23_">
		<path id="XMLID_27_" class="st0" d="M290.4,34.4c0.7,0.8,1.1,1.9,1.8,2.8c0.8,1.1,1.7,2.2,2.4,3.3c0.4,0.7,1.5,0.1,1.1-0.6
			c-0.7-1.1-1.5-2.2-2.4-3.3c-0.8-1-1.2-2.2-2-3.1C290.7,33,289.8,33.8,290.4,34.4L290.4,34.4z"/>
	</g>
</g>
<g id="XMLID_1813_">
	<g id="XMLID_12_">
		<path id="XMLID_18_" class="st0" d="M294.8,33.3c-2.2,1.9-3.3,4.6-5,6.8c-0.5,0.6,0.4,1.5,0.9,0.9c1.8-2.2,2.9-5,5-6.8
			C296.3,33.6,295.4,32.7,294.8,33.3L294.8,33.3z"/>
	</g>
</g>
<g id="XMLID_17_">
	<g id="XMLID_97_">
		<path id="XMLID_101_" class="st0" d="M235.7,11.2c18.4,0,36.8,0,55.1,0.1c2.1,0,4.7-0.4,6.8,0c4.8,0.8,5.2,3.8,5.3,7.6
			c0.1,4.4-0.1,8.8-0.3,13.3c-0.2,4.4-0.4,8.8-0.4,13.3c0,2.5,0.1,5,0.2,7.5c0.1,3.3,0.9,4.7-1.8,7c-2.5,2.2-3.8,1.7-6.9,1.5
			c-2.3-0.2-4.6-0.4-6.9-0.3c-4.2,0.1-8.4,0.6-12.6,0.4c-8.9-0.6-17.7-0.2-26.6-0.2c-2.2,0-4.5,0-6.7-0.2c-4.1-0.4-5.3-2.4-5.8-6.5
			c-0.5-4.3,0.1-9.1,0.1-13.5c0-4.5,0.1-9,0.1-13.5c0-2.4-1.3-15.3,0.9-16.4c0.7-0.4,0.1-1.5-0.6-1.1c-1.7,0.9-1.4,2.2-1.4,4
			c-0.1,5.1-0.1,10.3-0.1,15.4c0,4.5-0.1,9-0.1,13.5c0,4.7-0.9,10.2-0.1,14.8c1,5.3,7.8,4.6,11.8,4.7c9.2,0.1,18.4-0.6,27.6,0.1
			c4.6,0.3,9-0.1,13.5-0.3c4.2-0.2,8.5,0.9,12.7,0.4c1.3-0.1,3.3-0.3,4.1-1.6c1.5-2.5,0.1-8.3,0-11.1c-0.3-9.2,0.6-18.3,0.7-27.5
			c0.1-4.4,1.6-11.6-4.2-12.5c-5-0.9-10.8-0.1-15.8-0.1c-5.4,0-10.7,0-16.1,0c-10.8,0-21.6,0-32.4,0
			C234.8,9.9,234.8,11.1,235.7,11.2L235.7,11.2z"/>
	</g>
</g>
<g id="XMLID_1166_">
	<g id="XMLID_281_">
		<path id="XMLID_285_" class="st0" d="M202.9,6.5c-4-0.5-3.9,9.1,0.8,8.3c2-0.3,2.2-3.5,2.1-5c-0.2-2.6-1.4-3.7-4-3.4
			c-0.8,0.1-0.5,1.3,0.3,1.2c1-0.1,1.7-0.2,2.2,1c0.2,0.4,0.2,1.3,0.2,1.8c0,1-0.1,2.4-1.1,2.8c-2.8,1.1-2.8-5.7-0.6-5.5
			C203.7,7.9,203.7,6.6,202.9,6.5L202.9,6.5z"/>
	</g>
</g>
<g id="XMLID_34_">
	<g id="XMLID_1159_">
		<g id="XMLID_275_">
			<path id="XMLID_279_" class="st0" d="M186.5,20.4c1-0.7,1.9-1.3,2.9-2c-0.3-0.2-0.6-0.5-0.9-0.7c-0.5,2.5-0.7,5-0.6,7.6
				c0,0.8,1.3,0.8,1.3,0c-0.1-2.4,0.1-4.9,0.6-7.3c0.1-0.5-0.4-1-0.9-0.7c-1,0.7-1.9,1.3-2.9,2C185.2,19.8,185.9,20.9,186.5,20.4
				L186.5,20.4z"/>
		</g>
	</g>
	<g id="XMLID_795_">
		<g id="XMLID_269_">
			<path id="XMLID_273_" class="st0" d="M185.6,26.1c1.7,0,3.4-0.1,5.1-0.2c0.8,0,0.8-1.3,0-1.3c-1.7,0.1-3.4,0.1-5.1,0.2
				C184.8,24.8,184.8,26.1,185.6,26.1L185.6,26.1z"/>
		</g>
	</g>
</g>
<g id="XMLID_32_">
	<g id="XMLID_266_">
		<path id="XMLID_288_" class="st0" d="M186.7,48.9c0.2-0.4,0.5-0.8,0.9-1c0.6-0.4,0.9-0.5,1.5,0c0.5,0.4,0.5,0.6,0.4,1.2
			c-0.1,0.4-0.3,0.8-0.4,1.1c-0.7,1.4-2,2.5-3.5,3c-0.7,0.2-0.5,1.2,0.2,1.2c2.2,0.2,4.3,0.1,6.5-0.1c0.8-0.1,0.8-1.3,0-1.3
			c-2.2,0.2-4.3,0.3-6.5,0.1c0.1,0.4,0.1,0.8,0.2,1.2c2.5-0.9,5.3-3.5,5-6.4c-0.4-3.2-4-1.7-5.1,0.2
			C185.2,48.9,186.3,49.6,186.7,48.9L186.7,48.9z"/>
	</g>
</g>
<g id="XMLID_345_">
	<g id="XMLID_353_">
		<g id="XMLID_355_">
			<path id="XMLID_359_" class="st0" d="M397.7,20.4c1-0.7,1.9-1.3,2.9-2c-0.3-0.2-0.6-0.5-0.9-0.7c-0.5,2.5-0.7,5-0.6,7.6
				c0,0.8,1.3,0.8,1.3,0c-0.1-2.4,0.1-4.9,0.6-7.3c0.1-0.5-0.4-1-0.9-0.7c-1,0.7-1.9,1.3-2.9,2C396.4,19.8,397,20.9,397.7,20.4
				L397.7,20.4z"/>
		</g>
	</g>
	<g id="XMLID_346_">
		<g id="XMLID_348_">
			<path id="XMLID_352_" class="st0" d="M396.8,26.1c1.7,0,3.4-0.1,5.1-0.2c0.8,0,0.8-1.3,0-1.3c-1.7,0.1-3.4,0.1-5.1,0.2
				C396,24.8,396,26.1,396.8,26.1L396.8,26.1z"/>
		</g>
	</g>
</g>
<g id="XMLID_338_">
	<g id="XMLID_340_">
		<path id="XMLID_344_" class="st0" d="M397.9,48.9c0.2-0.4,0.5-0.8,0.9-1c0.6-0.4,0.9-0.5,1.5,0c0.5,0.4,0.5,0.6,0.4,1.2
			c-0.1,0.4-0.3,0.8-0.4,1.1c-0.7,1.4-2,2.5-3.5,3c-0.7,0.2-0.5,1.2,0.2,1.2c2.2,0.2,4.3,0.1,6.5-0.1c0.8-0.1,0.8-1.3,0-1.3
			c-2.2,0.2-4.3,0.3-6.5,0.1c0.1,0.4,0.1,0.8,0.2,1.2c2.5-0.9,5.3-3.5,5-6.4c-0.4-3.2-4-1.7-5.1,0.2
			C396.4,48.9,397.5,49.6,397.9,48.9L397.9,48.9z"/>
	</g>
</g>
</svg>
