<?xml version="1.0" encoding="utf-8"?>
<!-- Generator: Adobe Illustrator 19.0.0, SVG Export Plug-In . SVG Version: 6.00 Build 0)  -->
<svg version="1.1" id="Layer_1" xmlns="http://www.w3.org/2000/svg" xmlns:xlink="http://www.w3.org/1999/xlink" x="0px" y="0px"
	 viewBox="0 403.5 595.3 48.4" style="enable-background:new 0 403.5 595.3 48.4;" xml:space="preserve">
<style type="text/css">
	.st0{fill:#0F0F0D;}
	.st1{display:none;}
	.st2{display:inline;}
	.st3{fill:#29B2DF;}
	.st4{fill:#FFFFFF;}
	.st5{fill:#A2C754;}
</style>
<g id="XMLID_18_">
	<path id="XMLID_465_" class="st0" d="M383.4,415c1.7,0,1.7-1.4,0-1.4c-26.3,0.2-52.6,0.2-78.8,0.2c0,0.5,0,0.9-0.1,1.3
		C330.8,415.1,357,415.1,383.4,415z"/>
	<path id="XMLID_466_" class="st0" d="M130.8,413.5c-2.4,0-2.4,1.4,0,1.4c57.8-0.1,115.6,0.2,173.3,0.3c0-0.4,0-0.9,0-1.3
		C246.3,413.7,188.6,413.4,130.8,413.5z"/>
	<path id="XMLID_468_" class="st0" d="M383.4,446.2c-26.5,0.2-52.9,0.2-79.3,0.2c0,0.4,0.1,0.9,0.1,1.3c26.4,0,52.8,0,79.2-0.1
		C385,447.6,385,446.2,383.4,446.2z"/>
	<path id="XMLID_471_" class="st0" d="M130.8,446.1c-2.4,0-2.4,1.4,0,1.4c58-0.1,115.8,0.2,173.7,0.3c0-0.4,0-0.9,0-1.3
		C246.6,446.3,188.7,446,130.8,446.1z"/>
	<path id="XMLID_479_" class="st0" d="M303.3,415.1c0.4,0,0.8,0,1.2,0c0-0.4,0-0.9,0.1-1.3c-0.4,0-0.8,0-1.2,0
		C303.3,414.2,303.3,414.7,303.3,415.1z"/>
	<path id="XMLID_480_" class="st0" d="M250.6,413.7c-0.2,0-0.4,0-0.6,0c0,0.4,0,0.9,0,1.3c0.2,0,0.4,0,0.6,0
		C250.6,414.6,250.6,414.1,250.6,413.7z"/>
	<path id="XMLID_481_" class="st0" d="M250.6,446.3c-0.4,0-0.7,0-1.1,0c0,0.4,0,0.9,0,1.3c0.4,0,0.7,0,1.1,0
		C250.6,447.2,250.6,446.7,250.6,446.3z"/>
	<path id="XMLID_482_" class="st0" d="M302.9,446.4c0,0.2,0,0.3,0,0.5c0,0.3,0,0.5,0,0.8c0.4,0,0.8,0,1.2,0c0-0.5-0.1-0.9-0.1-1.3
		C303.7,446.4,303.3,446.4,302.9,446.4z"/>
</g>
<g id="Layer_5" class="st1">
</g>
<g id="Layer_2" class="st1">
	<g id="XMLID_9_" class="st2">
		<g id="XMLID_439_">
			<path id="XMLID_136_" class="st3" d="M282,443c0.3-0.8,0.6-1.4,0.3-2.3c-0.1-0.5-0.4-1-0.8-1.4c-0.5-0.5-1.1-0.7-1.8-1
				c0.4,0.2,0.8,0.5,1.3,0.7c0,0,0,0-0.1-0.1c0.2,0.4,0.5,0.8,0.7,1.3c-0.2-0.5-0.4-1-0.8-1.4c-0.4-0.4-0.8-0.6-1.3-0.8
				c-0.8-0.3-1.9-0.1-2.7,0.3c-0.4,0.3-0.9,0.6-1.3,1c-1,1-1.2,2.6-0.5,3.8c1,1.6,3.3,2.1,4.9,1.2c0.9-0.5,1.4-1.4,1.6-2.4
				c0.1-0.7,0-1.3-0.4-1.9c-0.1-0.3-0.3-0.5-0.5-0.7c-0.3-0.4-0.2-0.1,0.4,0.8c0,0.3,0.1,0.5,0.1,0.8v-0.1c0,0.3-0.1,0.5-0.1,0.8
				c-0.2,0.3-0.4,0.6-0.6,0.9c1.1-1,1.1-3,0-4.1c-1.2-1.1-2.9-1.1-4.1,0c-0.7,0.7-1,1.6-1,2.5c0,0.5,0.2,1.1,0.4,1.6
				c0.2,0.2,0.3,0.5,0.5,0.7c0.3,0.4,0.2,0.1-0.5-0.8c0-0.5,0-1,0-1.5c0.5-0.5,1.1-1.1,1.6-1.6c0.3,0,0.5-0.1,0.8-0.1
				c-0.1,0-0.2,0-0.3,0c0.3,0,0.5,0.1,0.8,0.1c-0.7-0.2-0.3,0.2,1.2,1c0.1,0.5,0.3,1,0.4,1.4v-0.1c0,0.3-0.1,0.5-0.1,0.8
				c0,0,0-0.1,0.1-0.1c-0.2,0.4-0.5,0.8-0.7,1.3c-0.4,0.3-0.5,0.3-0.3,0.2c0.1,0,0.1-0.1,0.2-0.1l0.1-0.1c0.3-0.2,0.1-0.1-0.3,0.1
				c-0.3,0-0.5,0.1-0.8,0.1h0.1c-0.3,0-0.5-0.1-0.8-0.1h0.1c-0.4-0.2-0.8-0.5-1.3-0.7c0,0,0,0.1,0.1,0.1c-0.2-0.4-0.5-0.8-0.7-1.3
				c0.2,0.6,0.4,1.1,0.9,1.5c0.4,0.3,0.8,0.6,1.3,0.7c0.6,0.2-0.2,0.1-0.8-0.5c-0.2-0.4-0.5-0.8-0.7-1.3v0.1
				c0.1-0.7,0.2-1.5,0.3-2.2v0.1c-0.3,0.7-0.5,1.4-0.3,2.2c0.2,0.7,0.7,1.4,1.3,1.7C279.3,444.7,281.4,444.5,282,443L282,443z"/>
		</g>
		<g id="XMLID_438_">
			<path id="XMLID_131_" class="st3" d="M277.2,413.9c0.2-0.2,0.5-0.5,0.7-0.7c0.7-0.1,1.5-0.2,2.2-0.3c-1.6-0.3-3.3-0.8-4.1-2.3
				c-1.1-1.9-0.7-3.6,1.4-4.5c1.8-0.8,3.3,0,3.7,1.9c0.4,2.1-1,2.6-1.8,4.3c1.7,0,3.3,0,5,0c-0.5-0.7-0.8-1.7-1.2-2.5
				c-0.1-0.3-0.2-0.6-0.4-0.9c-0.4-1.2-0.5-1.2-0.3-0.1c-0.4,0.6-0.9,1.1-1.3,1.7c-0.1,0-0.2,0.1-0.3,0.1c3.3-0.1,3.8-4.6,0.8-5.6
				c-3.6-1.2-7.3,0.5-7.1,4.6c0.1,1.7,0.6,3.4,2.2,4.2c1.6,0.8,2.9-0.1,4.2-0.2c3.6-0.3,3.7-6.1,0-5.7c-0.4,0-2.1,0.6-2.3,0.5
				c0.6,0.4,1.1,0.9,1.7,1.3c0-0.7-0.1-0.7-0.5,0c-0.6,0.5-0.5,0.7,0.3,0.8c0.3-1.9,0.5-3.8,0.8-5.6c-2.1,0.1-4.1,1.1-4.1,3.5
				c0,1,0.6,2,0.9,2.9c0.5,1.3,0.9,2.7,1.7,3.9c1.2,1.6,3.9,2.1,5,0c1-2,2.6-2.9,2.7-5.4c0.1-2.3-0.4-4.8-1.8-6.7
				c-3-3.9-8.6-3.8-12.2-0.9c-1.7,1.4-2.8,3.3-3.3,5.5c-0.4,2.3,0.6,4.4,1.7,6.3c1.6,2.7,8.7,6.8,10.9,2.7
				C283.9,413.5,278.9,410.6,277.2,413.9L277.2,413.9z"/>
		</g>
		<g id="XMLID_432_">
			<path id="XMLID_130_" class="st3" d="M278,418.6c0,6.7-0.1,13.4-0.1,20.1c0,0.6,0.9,0.6,0.9,0c0-6.7,0.1-13.4,0.1-20.1
				C278.9,418,278,418,278,418.6L278,418.6z"/>
		</g>
		<g id="XMLID_426_">
			<path id="XMLID_128_" class="st0" d="M279,399.6c-4.2-0.2-8.5,3.5-9.3,7.6c-1,5.5,2.5,8.9,7.3,10.6c0.3,0.1,0.5-0.4,0.2-0.6
				c-4.5-1.6-7.9-4.8-6.9-10c0.8-3.8,4.7-7.3,8.7-7.2C279.4,400.2,279.4,399.6,279,399.6L279,399.6z"/>
		</g>
		<g id="XMLID_420_">
			<path id="XMLID_127_" class="st0" d="M278.8,400.1c4.3,0.8,7.7,2.9,8.2,7.5c0.5,5.3-2.4,8.2-7.3,9.7c-0.4,0.1-0.2,0.7,0.2,0.6
				c4.8-1.4,8.2-4.4,7.8-9.7c-0.4-5.2-3.6-7.7-8.7-8.6C278.6,399.5,278.4,400.1,278.8,400.1L278.8,400.1z"/>
		</g>
		<g id="XMLID_414_">
			<path id="XMLID_126_" class="st0" d="M276.8,417.8c0.4,0.1,0.9,0.3,1.3,0.4s0.5-0.4,0.2-0.6c-0.4-0.1-0.9-0.3-1.3-0.4
				S276.4,417.7,276.8,417.8L276.8,417.8z"/>
		</g>
		<g id="XMLID_253_">
			<path id="XMLID_124_" class="st0" d="M277.9,418.2c-0.2,6.6-0.2,13.1-0.1,19.7c0,0.4,0.6,0.4,0.6,0c-0.1-6.6,0-13.1,0.1-19.7
				C278.5,417.9,277.9,417.9,277.9,418.2L277.9,418.2z"/>
		</g>
		<g id="XMLID_22_">
			<path id="XMLID_121_" class="st0" d="M279.1,437.9c0-3.5,0-7,0.1-10.5c0-1.2-0.8-8.9,0.5-9.5c0.3-0.2,0-0.7-0.3-0.5
				c-1.2,0.6-0.8,3.4-0.8,4.3c0,5.4-0.1,10.8-0.1,16.2C278.6,438.3,279.1,438.3,279.1,437.9L279.1,437.9z"/>
		</g>
		<g id="XMLID_20_">
			<path id="XMLID_120_" class="st0" d="M277.9,437.6c-1.7,1-3.1,2.1-2.9,4.4c0.3,2.2,2.1,3.2,4.1,2.9c1.7-0.2,3.2-1.7,3.2-3.5
				c0-2-1.7-3.3-3.5-3.8c-0.4-0.1-0.5,0.4-0.2,0.6c1.3,0.4,2.6,1.1,3,2.6c0.5,1.8-1.2,3.5-2.9,3.6c-1.9,0.1-3.3-1.2-3.2-3.1
				c0.1-1.7,1.3-2.3,2.6-3.1C278.5,437.9,278.2,437.4,277.9,437.6L277.9,437.6z"/>
		</g>
		<g id="XMLID_19_">
			<path id="XMLID_117_" class="st0" d="M279.3,418.2c0.2-0.3,0.1-0.2,0.4-0.3c0.4-0.1,0.2-0.6-0.2-0.6c-0.4,0.1-0.5,0.2-0.7,0.6
				C278.6,418.3,279.1,418.6,279.3,418.2L279.3,418.2z"/>
		</g>
		<g id="XMLID_11_">
			<path id="XMLID_115_" class="st4" d="M276.1,409.3c1.7,0,3.4,0,5-0.1c0.7,0,0.7-1.2,0-1.1c-1.7,0.1-3.3,0.1-5,0.1
				C275.3,408.1,275.3,409.3,276.1,409.3L276.1,409.3z"/>
		</g>
		<g id="XMLID_10_">
			<path id="XMLID_274_" class="st4" d="M277.6,406.4c0,1.5,0.1,3.1,0,4.6c0,0.7,1.1,0.7,1.1,0c0-1.5,0-3.1,0-4.6
				C278.7,405.7,277.6,405.7,277.6,406.4L277.6,406.4z"/>
		</g>
	</g>
</g>
<g id="XMLID_23_">
	<g id="XMLID_437_">
		<path id="XMLID_113_" class="st3" d="M263.6,448.7c0.3-0.8,0.6-1.4,0.3-2.3c-0.1-0.5-0.4-1-0.8-1.4c-0.5-0.5-1.1-0.7-1.8-1
			c0.4,0.2,0.8,0.5,1.3,0.7c0,0,0,0-0.1-0.1c0.2,0.4,0.5,0.8,0.7,1.3c-0.2-0.5-0.4-1-0.8-1.4s-0.8-0.6-1.3-0.8
			c-0.8-0.3-1.9-0.1-2.7,0.3c-0.4,0.3-0.9,0.6-1.3,1c-1,1-1.2,2.6-0.5,3.8c1,1.6,3.3,2.1,4.9,1.2c0.9-0.5,1.4-1.4,1.6-2.4
			c0.1-0.7,0-1.3-0.4-1.9c-0.1-0.3-0.3-0.5-0.5-0.7c-0.3-0.4-0.2-0.1,0.4,0.8c0,0.3,0.1,0.5,0.1,0.8v-0.1c0,0.3-0.1,0.5-0.1,0.8
			c-0.2,0.3-0.4,0.6-0.6,0.9c1.1-1,1.1-3,0-4.1c-1.2-1.1-2.9-1.1-4.1,0c-0.7,0.7-1,1.6-1,2.5c0,0.5,0.2,1.1,0.4,1.6
			c0.2,0.2,0.3,0.5,0.5,0.7c0.3,0.4,0.2,0.1-0.5-0.8c0-0.5,0-1,0-1.5c0.5-0.5,1.1-1.1,1.6-1.6c0.3,0,0.5-0.1,0.8-0.1
			c-0.1,0-0.2,0-0.3,0c0.3,0,0.5,0.1,0.8,0.1c-0.7-0.2-0.3,0.2,1.2,1c0.1,0.5,0.3,1,0.4,1.4v-0.1c0,0.3-0.1,0.5-0.1,0.8
			c0,0,0-0.1,0.1-0.1c-0.2,0.4-0.5,0.8-0.7,1.3c-0.4,0.3-0.5,0.3-0.3,0.2c0.1,0,0.1-0.1,0.2-0.1l0.1-0.1c0.3-0.2,0.1-0.1-0.3,0.1
			c-0.3,0-0.5,0.1-0.8,0.1h0.1c-0.3,0-0.5-0.1-0.8-0.1h0.1c-0.4-0.2-0.8-0.5-1.3-0.7c0,0,0,0.1,0.1,0.1c-0.2-0.4-0.5-0.8-0.7-1.3
			c0.2,0.6,0.4,1.1,0.9,1.5c0.4,0.3,0.8,0.6,1.3,0.7c0.6,0.2-0.2,0.1-0.8-0.5c-0.2-0.4-0.5-0.8-0.7-1.3v0.1c0.1-0.7,0.2-1.5,0.3-2.2
			v0.1c-0.3,0.7-0.5,1.4-0.3,2.2c0.2,0.7,0.7,1.4,1.3,1.7C260.9,450.4,263,450.2,263.6,448.7L263.6,448.7z"/>
	</g>
	<g id="XMLID_402_">
		<path id="XMLID_112_" class="st3" d="M258.8,419.6c0.2-0.2,0.5-0.5,0.7-0.7c0.7-0.1,1.5-0.2,2.2-0.3c-1.6-0.3-3.3-0.8-4.1-2.3
			c-1.1-1.9-0.7-3.6,1.4-4.5c1.8-0.8,3.3,0,3.7,1.9c0.4,2.1-1,2.6-1.8,4.3c1.7,0,3.3,0,5,0c-0.5-0.7-0.8-1.7-1.2-2.5
			c-0.1-0.3-0.2-0.6-0.4-0.9c-0.4-1.2-0.5-1.2-0.3-0.1c-0.4,0.6-0.9,1.1-1.3,1.7c-0.1,0-0.2,0.1-0.3,0.1c3.3-0.1,3.8-4.6,0.8-5.6
			c-3.6-1.2-7.3,0.5-7.1,4.6c0.1,1.7,0.6,3.4,2.2,4.2s2.9-0.1,4.2-0.2c3.6-0.3,3.7-6.1,0-5.7c-0.4,0-2.1,0.6-2.3,0.5
			c0.6,0.4,1.1,0.9,1.7,1.3c0-0.7-0.1-0.7-0.5,0c-0.6,0.5-0.5,0.7,0.3,0.8c0.3-1.9,0.5-3.8,0.8-5.6c-2.1,0.1-4.1,1.1-4.1,3.5
			c0,1,0.6,2,0.9,2.9c0.5,1.3,0.9,2.7,1.7,3.9c1.2,1.6,3.9,2.1,5,0c1-2,2.6-2.9,2.7-5.4c0.1-2.3-0.4-4.8-1.8-6.7
			c-3-3.9-8.6-3.8-12.2-0.9c-1.7,1.4-2.8,3.3-3.3,5.5c-0.4,2.3,0.6,4.4,1.7,6.3c1.6,2.7,8.7,6.8,10.9,2.7
			C265.5,419.2,260.5,416.3,258.8,419.6L258.8,419.6z"/>
	</g>
	<g id="XMLID_378_">
		<path id="XMLID_111_" class="st3" d="M259.6,424.3c0,6.7-0.1,13.4-0.1,20.1c0,0.6,0.9,0.6,0.9,0c0-6.7,0.1-13.4,0.1-20.1
			C260.5,423.7,259.6,423.7,259.6,424.3L259.6,424.3z"/>
	</g>
	<g id="XMLID_366_">
		<path id="XMLID_110_" class="st0" d="M260.6,405.3c-4.2-0.2-8.5,3.5-9.3,7.6c-1,5.5,2.5,8.9,7.3,10.6c0.3,0.1,0.5-0.4,0.2-0.6
			c-4.5-1.6-7.9-4.8-6.9-10c0.8-3.8,4.7-7.3,8.7-7.2C261,405.9,261,405.3,260.6,405.3L260.6,405.3z"/>
	</g>
	<g id="XMLID_305_">
		<path id="XMLID_106_" class="st0" d="M260.4,405.8c4.3,0.8,7.7,2.9,8.2,7.5c0.5,5.3-2.4,8.2-7.3,9.7c-0.4,0.1-0.2,0.7,0.2,0.6
			c4.8-1.4,8.2-4.4,7.8-9.7c-0.4-5.2-3.6-7.7-8.7-8.6C260.2,405.2,260,405.8,260.4,405.8L260.4,405.8z"/>
	</g>
	<g id="XMLID_75_">
		<path id="XMLID_95_" class="st0" d="M258.4,423.5c0.4,0.1,0.9,0.3,1.3,0.4s0.5-0.4,0.2-0.6c-0.4-0.1-0.9-0.3-1.3-0.4
			S258,423.4,258.4,423.5L258.4,423.5z"/>
	</g>
	<g id="XMLID_68_">
		<path id="XMLID_93_" class="st0" d="M259.5,423.9c-0.2,6.6-0.2,13.1-0.1,19.7c0,0.4,0.6,0.4,0.6,0c-0.1-6.6,0-13.1,0.1-19.7
			C260.1,423.6,259.5,423.6,259.5,423.9L259.5,423.9z"/>
	</g>
	<g id="XMLID_33_">
		<path id="XMLID_92_" class="st0" d="M260.7,443.6c0-3.5,0-7,0.1-10.5c0-1.2-0.8-8.9,0.5-9.5c0.3-0.2,0-0.7-0.3-0.5
			c-1.2,0.6-0.8,3.4-0.8,4.3c0,5.4-0.1,10.8-0.1,16.2C260.2,444,260.7,444,260.7,443.6L260.7,443.6z"/>
	</g>
	<g id="XMLID_31_">
		<path id="XMLID_91_" class="st0" d="M259.5,443.3c-1.7,1-3.1,2.1-2.9,4.4c0.3,2.2,2.1,3.2,4.1,2.9c1.7-0.2,3.2-1.7,3.2-3.5
			c0-2-1.7-3.3-3.5-3.8c-0.4-0.1-0.5,0.4-0.2,0.6c1.3,0.4,2.6,1.1,3,2.6c0.5,1.8-1.2,3.5-2.9,3.6c-1.9,0.1-3.3-1.2-3.2-3.1
			c0.1-1.7,1.3-2.3,2.6-3.1C260.1,443.6,259.8,443.1,259.5,443.3L259.5,443.3z"/>
	</g>
	<g id="XMLID_30_">
		<path id="XMLID_94_" class="st0" d="M260.9,423.9c0.2-0.3,0.1-0.2,0.4-0.3c0.4-0.1,0.2-0.6-0.2-0.6c-0.4,0.1-0.5,0.2-0.7,0.6
			C260.2,424,260.7,424.3,260.9,423.9L260.9,423.9z"/>
	</g>
	<g id="XMLID_29_">
		<path id="XMLID_107_" class="st4" d="M257.7,415c1.7,0,3.4,0,5-0.1c0.7,0,0.7-1.2,0-1.1c-1.7,0.1-3.3,0.1-5,0.1
			C256.9,413.8,256.9,415,257.7,415L257.7,415z"/>
	</g>
	<g id="XMLID_28_">
		<path id="XMLID_108_" class="st4" d="M259.2,412.1c0,1.5,0.1,3.1,0,4.6c0,0.7,1.1,0.7,1.1,0c0-1.5,0-3.1,0-4.6
			C260.3,411.4,259.2,411.4,259.2,412.1L259.2,412.1z"/>
	</g>
</g>
<g id="Layer_4" class="st1">
	<g id="XMLID_71_" class="st2">
		<g id="XMLID_77_">
			<path id="XMLID_134_" class="st5" d="M289.3,398.8c-3.5-0.4-7.3-0.3-10.8-0.2c-2,0-4.3,0.2-5.1,2.3c-0.6,1.5,0,4.2,0.2,5.8
				c0.1,1.1,0.3,2.2,0.4,3.2c0.1,1.5-0.8,2.2-1,3.6c-0.4,2.4,2,3.9,4.1,4.2c1.4,0.2,2.9-0.1,4.3-0.2c1.7-0.1,3.4,0,5.2,0
				c2.2,0,4.2-1,4.7-3.3c0.3-1.7,0-3.5-0.1-5.2c-0.1-2.1,0.1-4,0.5-6.1c0.3-1.5-1-3.5-2.8-2.8c-3.1,1.3-5.6,1.9-9,1.7
				c-1.9-0.1-4.7-0.6-5.7,1.4c-1,1.9,0.4,4.1,1.3,5.7c1,1.8,0.9,4.6,3.2,5.3c1.2,0.3,2.7,0.1,3.9,0.1c1.1,0,2.4,0.2,3.4-0.3
				c1.8-0.9,2.4-3.6,2.5-5.4c0.1-1.9-0.3-3.6-2.4-3.9c-2.2-0.3-5.8,0.1-7.8,1c-0.7,0.3-1.2,1.2-1.1,2c0.4,4.3,4.8,4.9,7.8,2.8
				c-0.9-1.2-1.8-2.4-2.8-3.6c-1.5,1.5-1.3,3.9,0.7,4.9c2.2,1,4.9-1.8,2.8-3.6c-1.7-1.5-3.4-1.9-5.6-1.6c-2.9,0.4-1.7,4.8,1.2,4.4
				c0.4,0.1,0.8,0.3,1.2,0.4c0.9-1.2,1.8-2.4,2.8-3.6c0.1,0.1,0.1,0.2,0.2,0.2c0.1,0.6,0.2,1.2,0.2,1.8c-0.1,0.1-0.1,0.2-0.2,0.2
				c1.7-1.8-0.5-5.1-2.8-3.6c-0.6,0.2-0.9,0.5-1,1.1c-0.4,0.7-0.8,1.3-1.1,2c0.8-0.4,3.9-0.7,5-0.5c-0.5-0.5-1.1-1.1-1.6-1.6
				c0.1,0.6,0.1,1.1-0.1,1.7c-0.2,1-0.3,1.1-0.2,0.4c-0.7,0.3-3.2,0.1-4,0c0.5,0.3,0.9,0.7,1.4,1c-0.3-0.4-2.3-6.5-2.8-5.6
				c-0.5,0.3-0.9,0.7-1.4,1c2.2-0.6,4.9,0.3,7.2,0.1c2.1-0.2,4-1.1,5.9-1.9c-0.9-0.9-1.9-1.9-2.8-2.8c-0.3,1.5-0.6,3.1-0.7,4.6
				c-0.1,1.6,0.8,4.5,0.2,6c-0.4,1-0.3,0.6-1.6,0.7c-0.9,0-1.8,0-2.7,0c-1.3,0.1-4.5,0.9-5.5-0.2c0.2,0.5,0.4,1.1,0.7,1.6
				c0-0.1,0.6-1.1,0.8-1.6c0.3-0.9,0.3-1.8,0.3-2.8c-0.1-1.7-0.5-3.3-0.6-5c0-0.4,0.1-0.6,0-1c0-0.1-0.6-1.5-0.6-0.9
				c-0.5,0.1-0.6,0.1-0.1,0c0.2,0,0.5,0,0.7,0c0.5,0,1,0,1.5,0c3.2,0,6.5-0.2,9.6,0.2C292.2,403.7,292.2,399.2,289.3,398.8
				L289.3,398.8z"/>
		</g>
		<g id="XMLID_74_">
			<path id="XMLID_133_" d="M281.5,398.5c-1.7,0-5.6-0.4-7,0.7c-1.6,1.3-0.2,7.1-0.2,8.9c0,2.1-1.5,8,0.1,9.7c1.4,1.6,6.5,0,8.4,0
				c1.7,0,7.5,1.3,8.6,0c0.5-0.6,0.1-2.5,0.1-3.1c-0.1-2.1-0.5-4.3-0.5-6.4c0-2.4,0.5-4.7,0.7-7c0.1-0.8,0.3-1.9-0.4-2.5
				c-0.5-0.5-1.7-0.3-2.4-0.3C286.5,398.4,284,398.4,281.5,398.5c-0.4,0-0.4,0.7,0,0.7c2.1,0,5.4-0.7,7.5-0.1c3.4,1,1.6,5.2,1.4,7.8
				c-0.1,2.5,0.8,5.3,0.4,7.7c-0.3,2.2-0.8,2.3-2.8,2.6c-1.5,0.2-3.2-0.2-4.6-0.2c-2.1-0.1-6.1,1.2-7.7-0.3
				c-1.7-1.5-0.8-5.3-0.7-7.5c0.1-2.5-0.9-6.8,0.6-8.8c1.3-1.7,3.8-1.3,5.9-1.4C282,399.2,282,398.5,281.5,398.5L281.5,398.5z"/>
		</g>
		<g id="XMLID_73_">
			<path id="XMLID_132_" class="st4" d="M280.5,410.9c1.2-1.9,2.9-3.6,4.4-5.2c0.3-0.3-0.2-0.8-0.5-0.5c-1.5,1.7-3.3,3.4-4.5,5.4
				C279.6,411,280.2,411.3,280.5,410.9L280.5,410.9z"/>
		</g>
		<g id="XMLID_72_">
			<path id="XMLID_114_" class="st4" d="M279.8,405.6c1.4,1.9,2.6,3.9,4.3,5.5c0.3,0.3,0.8-0.2,0.5-0.5c-1.6-1.6-2.8-3.6-4.1-5.4
				C280.1,404.9,279.5,405.3,279.8,405.6L279.8,405.6z"/>
		</g>
	</g>
</g>
</svg>
