<?xml version="1.0" encoding="utf-8"?>
<!-- Generator: Adobe Illustrator 19.0.0, SVG Export Plug-In . SVG Version: 6.00 Build 0)  -->
<svg version="1.1" id="Layer_1" xmlns="http://www.w3.org/2000/svg" xmlns:xlink="http://www.w3.org/1999/xlink" x="0px" y="0px"
	 viewBox="0 255 595.3 104.5" style="enable-background:new 0 255 595.3 104.5;" xml:space="preserve">
<style type="text/css">
	.st0{display:none;}
	.st1{display:inline;}
	.st2{fill:#29B2DF;}
	.st3{fill:#0F0F0D;}
	.st4{fill:#FFFFFF;}
	.st5{fill:#A2C754;}
	.st6{fill:#060400;}
	.st7{fill:#090300;}
</style>
<g id="Layer_5" class="st0">
</g>
<g id="Layer_2" class="st0">
	<g id="XMLID_9_" class="st1">
		<g id="XMLID_439_">
			<path id="XMLID_136_" class="st2" d="M282,443c0.3-0.8,0.6-1.4,0.3-2.3c-0.1-0.5-0.4-1-0.8-1.4c-0.5-0.5-1.1-0.7-1.8-1
				c0.4,0.2,0.8,0.5,1.3,0.7c0,0,0,0-0.1-0.1c0.2,0.4,0.5,0.8,0.7,1.3c-0.2-0.5-0.4-1-0.8-1.4c-0.4-0.4-0.8-0.6-1.3-0.8
				c-0.8-0.3-1.9-0.1-2.7,0.3c-0.4,0.3-0.9,0.6-1.3,1c-1,1-1.2,2.6-0.5,3.8c1,1.6,3.3,2.1,4.9,1.2c0.9-0.5,1.4-1.4,1.6-2.4
				c0.1-0.7,0-1.3-0.4-1.9c-0.1-0.3-0.3-0.5-0.5-0.7c-0.3-0.4-0.2-0.1,0.4,0.8c0,0.3,0.1,0.5,0.1,0.8v-0.1c0,0.3-0.1,0.5-0.1,0.8
				c-0.2,0.3-0.4,0.6-0.6,0.9c1.1-1,1.1-3,0-4.1c-1.2-1.1-2.9-1.1-4.1,0c-0.7,0.7-1,1.6-1,2.5c0,0.5,0.2,1.1,0.4,1.6
				c0.2,0.2,0.3,0.5,0.5,0.7c0.3,0.4,0.2,0.1-0.5-0.8c0-0.5,0-1,0-1.5c0.5-0.5,1.1-1.1,1.6-1.6c0.3,0,0.5-0.1,0.8-0.1
				c-0.1,0-0.2,0-0.3,0c0.3,0,0.5,0.1,0.8,0.1c-0.7-0.2-0.3,0.2,1.2,1c0.1,0.5,0.3,1,0.4,1.4v-0.1c0,0.3-0.1,0.5-0.1,0.8
				c0,0,0-0.1,0.1-0.1c-0.2,0.4-0.5,0.8-0.7,1.3c-0.4,0.3-0.5,0.3-0.3,0.2c0.1,0,0.1-0.1,0.2-0.1l0.1-0.1c0.3-0.2,0.1-0.1-0.3,0.1
				c-0.3,0-0.5,0.1-0.8,0.1h0.1c-0.3,0-0.5-0.1-0.8-0.1h0.1c-0.4-0.2-0.8-0.5-1.3-0.7c0,0,0,0.1,0.1,0.1c-0.2-0.4-0.5-0.8-0.7-1.3
				c0.2,0.6,0.4,1.1,0.9,1.5c0.4,0.3,0.8,0.6,1.3,0.7c0.6,0.2-0.2,0.1-0.8-0.5c-0.2-0.4-0.5-0.8-0.7-1.3v0.1
				c0.1-0.7,0.2-1.5,0.3-2.2v0.1c-0.3,0.7-0.5,1.4-0.3,2.2c0.2,0.7,0.7,1.4,1.3,1.7C279.3,444.7,281.4,444.5,282,443L282,443z"/>
		</g>
		<g id="XMLID_438_">
			<path id="XMLID_131_" class="st2" d="M277.2,413.9c0.2-0.2,0.5-0.5,0.7-0.7c0.7-0.1,1.5-0.2,2.2-0.3c-1.6-0.3-3.3-0.8-4.1-2.3
				c-1.1-1.9-0.7-3.6,1.4-4.5c1.8-0.8,3.3,0,3.7,1.9c0.4,2.1-1,2.6-1.8,4.3c1.7,0,3.3,0,5,0c-0.5-0.7-0.8-1.7-1.2-2.5
				c-0.1-0.3-0.2-0.6-0.4-0.9c-0.4-1.2-0.5-1.2-0.3-0.1c-0.4,0.6-0.9,1.1-1.3,1.7c-0.1,0-0.2,0.1-0.3,0.1c3.3-0.1,3.8-4.6,0.8-5.6
				c-3.6-1.2-7.3,0.5-7.1,4.6c0.1,1.7,0.6,3.4,2.2,4.2c1.6,0.8,2.9-0.1,4.2-0.2c3.6-0.3,3.7-6.1,0-5.7c-0.4,0-2.1,0.6-2.3,0.5
				c0.6,0.4,1.1,0.9,1.7,1.3c0-0.7-0.1-0.7-0.5,0c-0.6,0.5-0.5,0.7,0.3,0.8c0.3-1.9,0.5-3.8,0.8-5.6c-2.1,0.1-4.1,1.1-4.1,3.5
				c0,1,0.6,2,0.9,2.9c0.5,1.3,0.9,2.7,1.7,3.9c1.2,1.6,3.9,2.1,5,0c1-2,2.6-2.9,2.7-5.4c0.1-2.3-0.4-4.8-1.8-6.7
				c-3-3.9-8.6-3.8-12.2-0.9c-1.7,1.4-2.8,3.3-3.3,5.5c-0.4,2.3,0.6,4.4,1.7,6.3c1.6,2.7,8.7,6.8,10.9,2.7
				C283.9,413.5,278.9,410.6,277.2,413.9L277.2,413.9z"/>
		</g>
		<g id="XMLID_432_">
			<path id="XMLID_130_" class="st2" d="M278,418.6c0,6.7-0.1,13.4-0.1,20.1c0,0.6,0.9,0.6,0.9,0c0-6.7,0.1-13.4,0.1-20.1
				C278.9,418,278,418,278,418.6L278,418.6z"/>
		</g>
		<g id="XMLID_426_">
			<path id="XMLID_128_" class="st3" d="M279,399.6c-4.2-0.2-8.5,3.5-9.3,7.6c-1,5.5,2.5,8.9,7.3,10.6c0.3,0.1,0.5-0.4,0.2-0.6
				c-4.5-1.6-7.9-4.8-6.9-10c0.8-3.8,4.7-7.3,8.7-7.2C279.4,400.2,279.4,399.6,279,399.6L279,399.6z"/>
		</g>
		<g id="XMLID_420_">
			<path id="XMLID_127_" class="st3" d="M278.8,400.1c4.3,0.8,7.7,2.9,8.2,7.5c0.5,5.3-2.4,8.2-7.3,9.7c-0.4,0.1-0.2,0.7,0.2,0.6
				c4.8-1.4,8.2-4.4,7.8-9.7c-0.4-5.2-3.6-7.7-8.7-8.6C278.6,399.5,278.4,400.1,278.8,400.1L278.8,400.1z"/>
		</g>
		<g id="XMLID_414_">
			<path id="XMLID_126_" class="st3" d="M276.8,417.8c0.4,0.1,0.9,0.3,1.3,0.4s0.5-0.4,0.2-0.6c-0.4-0.1-0.9-0.3-1.3-0.4
				S276.4,417.7,276.8,417.8L276.8,417.8z"/>
		</g>
		<g id="XMLID_253_">
			<path id="XMLID_124_" class="st3" d="M277.9,418.2c-0.2,6.6-0.2,13.1-0.1,19.7c0,0.4,0.6,0.4,0.6,0c-0.1-6.6,0-13.1,0.1-19.7
				C278.5,417.9,277.9,417.9,277.9,418.2L277.9,418.2z"/>
		</g>
		<g id="XMLID_22_">
			<path id="XMLID_121_" class="st3" d="M279.1,437.9c0-3.5,0-7,0.1-10.5c0-1.2-0.8-8.9,0.5-9.5c0.3-0.2,0-0.7-0.3-0.5
				c-1.2,0.6-0.8,3.4-0.8,4.3c0,5.4-0.1,10.8-0.1,16.2C278.6,438.3,279.1,438.3,279.1,437.9L279.1,437.9z"/>
		</g>
		<g id="XMLID_20_">
			<path id="XMLID_120_" class="st3" d="M277.9,437.6c-1.7,1-3.1,2.1-2.9,4.4c0.3,2.2,2.1,3.2,4.1,2.9c1.7-0.2,3.2-1.7,3.2-3.5
				c0-2-1.7-3.3-3.5-3.8c-0.4-0.1-0.5,0.4-0.2,0.6c1.3,0.4,2.6,1.1,3,2.6c0.5,1.8-1.2,3.5-2.9,3.6c-1.9,0.1-3.3-1.2-3.2-3.1
				c0.1-1.7,1.3-2.3,2.6-3.1C278.5,437.9,278.2,437.4,277.9,437.6L277.9,437.6z"/>
		</g>
		<g id="XMLID_19_">
			<path id="XMLID_117_" class="st3" d="M279.3,418.2c0.2-0.3,0.1-0.2,0.4-0.3c0.4-0.1,0.2-0.6-0.2-0.6c-0.4,0.1-0.5,0.2-0.7,0.6
				C278.6,418.3,279.1,418.6,279.3,418.2L279.3,418.2z"/>
		</g>
		<g id="XMLID_11_">
			<path id="XMLID_115_" class="st4" d="M276.1,409.3c1.7,0,3.4,0,5-0.1c0.7,0,0.7-1.2,0-1.1c-1.7,0.1-3.3,0.1-5,0.1
				C275.3,408.1,275.3,409.3,276.1,409.3L276.1,409.3z"/>
		</g>
		<g id="XMLID_10_">
			<path id="XMLID_274_" class="st4" d="M277.6,406.4c0,1.5,0.1,3.1,0,4.6c0,0.7,1.1,0.7,1.1,0c0-1.5,0-3.1,0-4.6
				C278.7,405.7,277.6,405.7,277.6,406.4L277.6,406.4z"/>
		</g>
	</g>
</g>
<g id="Layer_4" class="st0">
	<g id="XMLID_71_" class="st1">
		<g id="XMLID_77_">
			<path id="XMLID_134_" class="st5" d="M289.3,398.8c-3.5-0.4-7.3-0.3-10.8-0.2c-2,0-4.3,0.2-5.1,2.3c-0.6,1.5,0,4.2,0.2,5.8
				c0.1,1.1,0.3,2.2,0.4,3.2c0.1,1.5-0.8,2.2-1,3.6c-0.4,2.4,2,3.9,4.1,4.2c1.4,0.2,2.9-0.1,4.3-0.2c1.7-0.1,3.4,0,5.2,0
				c2.2,0,4.2-1,4.7-3.3c0.3-1.7,0-3.5-0.1-5.2c-0.1-2.1,0.1-4,0.5-6.1c0.3-1.5-1-3.5-2.8-2.8c-3.1,1.3-5.6,1.9-9,1.7
				c-1.9-0.1-4.7-0.6-5.7,1.4c-1,1.9,0.4,4.1,1.3,5.7c1,1.8,0.9,4.6,3.2,5.3c1.2,0.3,2.7,0.1,3.9,0.1c1.1,0,2.4,0.2,3.4-0.3
				c1.8-0.9,2.4-3.6,2.5-5.4c0.1-1.9-0.3-3.6-2.4-3.9c-2.2-0.3-5.8,0.1-7.8,1c-0.7,0.3-1.2,1.2-1.1,2c0.4,4.3,4.8,4.9,7.8,2.8
				c-0.9-1.2-1.8-2.4-2.8-3.6c-1.5,1.5-1.3,3.9,0.7,4.9c2.2,1,4.9-1.8,2.8-3.6c-1.7-1.5-3.4-1.9-5.6-1.6c-2.9,0.4-1.7,4.8,1.2,4.4
				c0.4,0.1,0.8,0.3,1.2,0.4c0.9-1.2,1.8-2.4,2.8-3.6c0.1,0.1,0.1,0.2,0.2,0.2c0.1,0.6,0.2,1.2,0.2,1.8c-0.1,0.1-0.1,0.2-0.2,0.2
				c1.7-1.8-0.5-5.1-2.8-3.6c-0.6,0.2-0.9,0.5-1,1.1c-0.4,0.7-0.8,1.3-1.1,2c0.8-0.4,3.9-0.7,5-0.5c-0.5-0.5-1.1-1.1-1.6-1.6
				c0.1,0.6,0.1,1.1-0.1,1.7c-0.2,1-0.3,1.1-0.2,0.4c-0.7,0.3-3.2,0.1-4,0c0.5,0.3,0.9,0.7,1.4,1c-0.3-0.4-2.3-6.5-2.8-5.6
				c-0.5,0.3-0.9,0.7-1.4,1c2.2-0.6,4.9,0.3,7.2,0.1c2.1-0.2,4-1.1,5.9-1.9c-0.9-0.9-1.9-1.9-2.8-2.8c-0.3,1.5-0.6,3.1-0.7,4.6
				c-0.1,1.6,0.8,4.5,0.2,6c-0.4,1-0.3,0.6-1.6,0.7c-0.9,0-1.8,0-2.7,0c-1.3,0.1-4.5,0.9-5.5-0.2c0.2,0.5,0.4,1.1,0.7,1.6
				c0-0.1,0.6-1.1,0.8-1.6c0.3-0.9,0.3-1.8,0.3-2.8c-0.1-1.7-0.5-3.3-0.6-5c0-0.4,0.1-0.6,0-1c0-0.1-0.6-1.5-0.6-0.9
				c-0.5,0.1-0.6,0.1-0.1,0c0.2,0,0.5,0,0.7,0c0.5,0,1,0,1.5,0c3.2,0,6.5-0.2,9.6,0.2C292.2,403.7,292.2,399.2,289.3,398.8
				L289.3,398.8z"/>
		</g>
		<g id="XMLID_74_">
			<path id="XMLID_133_" d="M281.5,398.5c-1.7,0-5.6-0.4-7,0.7c-1.6,1.3-0.2,7.1-0.2,8.9c0,2.1-1.5,8,0.1,9.7c1.4,1.6,6.5,0,8.4,0
				c1.7,0,7.5,1.3,8.6,0c0.5-0.6,0.1-2.5,0.1-3.1c-0.1-2.1-0.5-4.3-0.5-6.4c0-2.4,0.5-4.7,0.7-7c0.1-0.8,0.3-1.9-0.4-2.5
				c-0.5-0.5-1.7-0.3-2.4-0.3C286.5,398.4,284,398.4,281.5,398.5c-0.4,0-0.4,0.7,0,0.7c2.1,0,5.4-0.7,7.5-0.1c3.4,1,1.6,5.2,1.4,7.8
				c-0.1,2.5,0.8,5.3,0.4,7.7c-0.3,2.2-0.8,2.3-2.8,2.6c-1.5,0.2-3.2-0.2-4.6-0.2c-2.1-0.1-6.1,1.2-7.7-0.3
				c-1.7-1.5-0.8-5.3-0.7-7.5c0.1-2.5-0.9-6.8,0.6-8.8c1.3-1.7,3.8-1.3,5.9-1.4C282,399.2,282,398.5,281.5,398.5L281.5,398.5z"/>
		</g>
		<g id="XMLID_73_">
			<path id="XMLID_132_" class="st4" d="M280.5,410.9c1.2-1.9,2.9-3.6,4.4-5.2c0.3-0.3-0.2-0.8-0.5-0.5c-1.5,1.7-3.3,3.4-4.5,5.4
				C279.6,411,280.2,411.3,280.5,410.9L280.5,410.9z"/>
		</g>
		<g id="XMLID_72_">
			<path id="XMLID_114_" class="st4" d="M279.8,405.6c1.4,1.9,2.6,3.9,4.3,5.5c0.3,0.3,0.8-0.2,0.5-0.5c-1.6-1.6-2.8-3.6-4.1-5.4
				C280.1,404.9,279.5,405.3,279.8,405.6L279.8,405.6z"/>
		</g>
	</g>
</g>
<g id="XMLID_179_">
	<g id="XMLID_183_">
		<g id="XMLID_186_">
			<path id="XMLID_187_" class="st6" d="M290.7,332.5c1-0.7,1.9-1.3,2.9-2c-0.3-0.2-0.6-0.5-0.9-0.7c-0.5,2.5-0.7,5-0.6,7.6
				c0,0.8,1.3,0.8,1.3,0c-0.1-2.4,0.1-4.9,0.6-7.3c0.1-0.5-0.4-1-0.9-0.7c-1,0.7-1.9,1.3-2.9,2C289.4,331.9,290,333,290.7,332.5
				L290.7,332.5z"/>
		</g>
	</g>
	<g id="XMLID_180_">
		<g id="XMLID_181_">
			<path id="XMLID_182_" class="st6" d="M289.8,338.2c1.7,0,3.4-0.1,5.1-0.2c0.8,0,0.8-1.3,0-1.3c-1.7,0.1-3.4,0.1-5.1,0.2
				C289,336.9,289,338.2,289.8,338.2L289.8,338.2z"/>
		</g>
	</g>
</g>
<g id="XMLID_175_">
	<g id="XMLID_176_">
		<path id="XMLID_177_" class="st6" d="M156.7,294.3c-0.4,3.5-0.2,7.1,0,10.6c0,0.8,1.3,0.8,1.3,0c-0.2-3.5-0.4-7.1,0-10.6
			C158.1,293.5,156.8,293.5,156.7,294.3L156.7,294.3z"/>
	</g>
</g>
<g id="XMLID_170_">
	<g id="XMLID_173_">
		<path id="XMLID_174_" class="st6" d="M166.8,305.3c1.2-1.1,2-2.5,3.2-3.6c0.6-0.6,2-1.3,2-2.2c0.1-0.8-1-1.5-1.4-2
			c-1.2-1.3-2.5-2.4-3.9-3.5c-0.6-0.5-1.5,0.4-0.9,0.9c0.9,0.7,1.8,1.5,2.6,2.3c0.3,0.3,2.3,1.9,2.2,2.3c0,0.5-1.9,1.8-2.3,2.2
			c-0.9,0.9-1.6,2-2.5,2.9C165.4,305,166.3,305.9,166.8,305.3L166.8,305.3z"/>
	</g>
</g>
<g id="XMLID_167_">
	<g id="XMLID_168_">
		<path id="XMLID_169_" class="st6" d="M162.2,295.6c-4-0.5-3.9,9.1,0.8,8.3c2-0.3,2.2-3.5,2.1-5c-0.2-2.6-1.4-3.7-4-3.4
			c-0.8,0.1-0.5,1.3,0.3,1.2c1-0.1,1.7-0.2,2.2,1c0.2,0.4,0.2,1.3,0.2,1.8c0,1-0.1,2.4-1.1,2.8c-2.8,1.1-2.8-5.7-0.6-5.5
			C163,297,163,295.7,162.2,295.6L162.2,295.6z"/>
	</g>
</g>
<g id="XMLID_271_">
	<g id="XMLID_280_">
		<path id="XMLID_281_" class="st6" d="M156.7,311.4c-0.4,3.5-0.2,7.1,0,10.6c0,0.8,1.3,0.8,1.3,0c-0.2-3.5-0.4-7.1,0-10.6
			C158.1,310.6,156.8,310.6,156.7,311.4L156.7,311.4z"/>
	</g>
</g>
<g id="XMLID_255_">
	<g id="XMLID_262_">
		<path id="XMLID_270_" class="st6" d="M166.8,322.4c1.2-1.1,2-2.5,3.2-3.6c0.6-0.6,2-1.3,2-2.2c0.1-0.8-1-1.5-1.4-2
			c-1.2-1.3-2.5-2.4-3.9-3.5c-0.6-0.5-1.5,0.4-0.9,0.9c0.9,0.7,1.8,1.5,2.6,2.3c0.3,0.3,2.3,1.9,2.2,2.3c0,0.5-1.9,1.8-2.3,2.2
			c-0.9,0.9-1.6,2-2.5,2.9C165.4,322.1,166.3,323,166.8,322.4L166.8,322.4z"/>
	</g>
</g>
<g id="XMLID_162_">
	<g id="XMLID_163_">
		<path id="XMLID_165_" class="st6" d="M162.2,312.7c-4-0.5-3.9,9.1,0.8,8.3c2-0.3,2.2-3.5,2.1-5c-0.2-2.6-1.4-3.7-4-3.4
			c-0.8,0.1-0.5,1.3,0.3,1.2c1-0.1,1.7-0.2,2.2,1c0.2,0.4,0.2,1.3,0.2,1.8c0,1-0.1,2.4-1.1,2.8c-2.8,1.1-2.8-5.7-0.6-5.5
			C163,314.1,163,312.8,162.2,312.7L162.2,312.7z"/>
	</g>
</g>
<g id="XMLID_342_">
	<g id="XMLID_343_">
		<path id="XMLID_161_" class="st6" d="M214.8,294.3c-0.4,3.5-0.2,7.1,0,10.6c0,0.8,1.3,0.8,1.3,0c-0.2-3.5-0.4-7.1,0-10.6
			C216.2,293.5,214.9,293.5,214.8,294.3L214.8,294.3z"/>
	</g>
</g>
<g id="XMLID_156_">
	<g id="XMLID_158_">
		<path id="XMLID_159_" class="st6" d="M224.9,305.3c1.2-1.1,2-2.5,3.2-3.6c0.6-0.6,2-1.3,2-2.2c0.1-0.8-1-1.5-1.4-2
			c-1.2-1.3-2.5-2.4-3.9-3.5c-0.6-0.5-1.5,0.4-0.9,0.9c0.9,0.7,1.8,1.5,2.6,2.3c0.3,0.3,2.3,1.9,2.2,2.3c0,0.5-1.9,1.8-2.3,2.2
			c-0.9,0.9-1.6,2-2.5,2.9C223.5,305,224.4,305.9,224.9,305.3L224.9,305.3z"/>
	</g>
</g>
<g id="XMLID_336_">
	<g id="XMLID_337_">
		<path id="XMLID_155_" class="st6" d="M220.3,295.6c-4-0.5-3.9,9.1,0.8,8.3c2-0.3,2.2-3.5,2.1-5c-0.2-2.6-1.4-3.7-4-3.4
			c-0.8,0.1-0.5,1.3,0.3,1.2c1-0.1,1.7-0.2,2.2,1c0.2,0.4,0.2,1.3,0.2,1.8c0,1-0.1,2.4-1.1,2.8c-2.8,1.1-2.8-5.7-0.6-5.5
			C221.1,297,221.1,295.7,220.3,295.6L220.3,295.6z"/>
	</g>
</g>
<g id="XMLID_324_">
	<g id="XMLID_152_">
		<path id="XMLID_153_" class="st6" d="M214.8,328.4c-0.4,3.5-0.2,7.1,0,10.6c0,0.8,1.3,0.8,1.3,0c-0.2-3.5-0.4-7.1,0-10.6
			C216.2,327.6,214.9,327.6,214.8,328.4L214.8,328.4z"/>
	</g>
</g>
<g id="XMLID_321_">
	<g id="XMLID_322_">
		<path id="XMLID_151_" class="st6" d="M224.9,339.4c1.2-1.1,2-2.5,3.2-3.6c0.6-0.6,2-1.3,2-2.2c0.1-0.8-1-1.5-1.4-2
			c-1.2-1.3-2.5-2.4-3.9-3.5c-0.6-0.5-1.5,0.4-0.9,0.9c0.9,0.7,1.8,1.5,2.6,2.3c0.3,0.3,2.3,1.9,2.2,2.3c0,0.5-1.9,1.8-2.3,2.2
			c-0.9,0.9-1.6,2-2.5,2.9C223.5,339.1,224.4,340,224.9,339.4L224.9,339.4z"/>
	</g>
</g>
<g id="XMLID_318_">
	<g id="XMLID_319_">
		<path id="XMLID_320_" class="st6" d="M220.3,329.7c-4-0.5-3.9,9.1,0.8,8.3c2-0.3,2.2-3.5,2.1-5c-0.2-2.6-1.4-3.7-4-3.4
			c-0.8,0.1-0.5,1.3,0.3,1.2c1-0.1,1.7-0.2,2.2,1c0.2,0.4,0.2,1.3,0.2,1.8c0,1-0.1,2.4-1.1,2.8c-2.8,1.1-2.8-5.7-0.6-5.5
			C221.1,331.1,221.1,329.8,220.3,329.7L220.3,329.7z"/>
	</g>
</g>
<g id="XMLID_149_">
	<g id="XMLID_379_">
		<path id="XMLID_380_" class="st6" d="M287.1,294.3c-0.4,3.5-0.2,7.1,0,10.6c0,0.8,1.3,0.8,1.3,0c-0.2-3.5-0.4-7.1,0-10.6
			C288.5,293.5,287.2,293.5,287.1,294.3L287.1,294.3z"/>
	</g>
</g>
<g id="XMLID_375_">
	<g id="XMLID_376_">
		<path id="XMLID_377_" class="st6" d="M297.2,305.3c1.2-1.1,2-2.5,3.2-3.6c0.6-0.6,2-1.3,2-2.2c0.1-0.8-1-1.5-1.4-2
			c-1.2-1.3-2.5-2.4-3.9-3.5c-0.6-0.5-1.5,0.4-0.9,0.9c0.9,0.7,1.8,1.5,2.6,2.3c0.3,0.3,2.3,1.9,2.2,2.3c0,0.5-1.9,1.8-2.3,2.2
			c-0.9,0.9-1.6,2-2.5,2.9C295.8,305,296.7,305.9,297.2,305.3L297.2,305.3z"/>
	</g>
</g>
<g id="XMLID_372_">
	<g id="XMLID_373_">
		<path id="XMLID_374_" class="st6" d="M292.6,295.6c-4-0.5-3.9,9.1,0.8,8.3c2-0.3,2.2-3.5,2.1-5c-0.2-2.6-1.4-3.7-4-3.4
			c-0.8,0.1-0.5,1.3,0.3,1.2c1-0.1,1.7-0.2,2.2,1c0.2,0.4,0.2,1.3,0.2,1.8c0,1-0.1,2.4-1.1,2.8c-2.8,1.1-2.8-5.7-0.6-5.5
			C293.4,297,293.4,295.7,292.6,295.6L292.6,295.6z"/>
	</g>
</g>
<g id="XMLID_369_">
	<g id="XMLID_370_">
		<path id="XMLID_371_" class="st6" d="M287.1,311.4c-0.4,3.5-0.2,7.1,0,10.6c0,0.8,1.3,0.8,1.3,0c-0.2-3.5-0.4-7.1,0-10.6
			C288.5,310.6,287.2,310.6,287.1,311.4L287.1,311.4z"/>
	</g>
</g>
<g id="XMLID_147_">
	<g id="XMLID_367_">
		<path id="XMLID_368_" class="st6" d="M297.2,322.4c1.2-1.1,2-2.5,3.2-3.6c0.6-0.6,2-1.3,2-2.2c0.1-0.8-1-1.5-1.4-2
			c-1.2-1.3-2.5-2.4-3.9-3.5c-0.6-0.5-1.5,0.4-0.9,0.9c0.9,0.7,1.8,1.5,2.6,2.3c0.3,0.3,2.3,1.9,2.2,2.3c0,0.5-1.9,1.8-2.3,2.2
			c-0.9,0.9-1.6,2-2.5,2.9C295.8,322.1,296.7,323,297.2,322.4L297.2,322.4z"/>
	</g>
</g>
<g id="XMLID_146_">
	<g id="XMLID_364_">
		<path id="XMLID_365_" class="st6" d="M292.6,312.7c-4-0.5-3.9,9.1,0.8,8.3c2-0.3,2.2-3.5,2.1-5c-0.2-2.6-1.4-3.7-4-3.4
			c-0.8,0.1-0.5,1.3,0.3,1.2c1-0.1,1.7-0.2,2.2,1c0.2,0.4,0.2,1.3,0.2,1.8c0,1-0.1,2.4-1.1,2.8c-2.8,1.1-2.8-5.7-0.6-5.5
			C293.4,314.1,293.4,312.8,292.6,312.7L292.6,312.7z"/>
	</g>
</g>
<g id="XMLID_145_">
	<g id="XMLID_415_">
		<path id="XMLID_416_" class="st6" d="M345.2,294.3c-0.4,3.5-0.2,7.1,0,10.6c0,0.8,1.3,0.8,1.3,0c-0.2-3.5-0.4-7.1,0-10.6
			C346.6,293.5,345.3,293.5,345.2,294.3L345.2,294.3z"/>
	</g>
</g>
<g id="XMLID_411_">
	<g id="XMLID_412_">
		<path id="XMLID_413_" class="st6" d="M355.3,305.3c1.2-1.1,2-2.5,3.2-3.6c0.6-0.6,2-1.3,2-2.2c0.1-0.8-1-1.5-1.4-2
			c-1.2-1.3-2.5-2.4-3.9-3.5c-0.6-0.5-1.5,0.4-0.9,0.9c0.9,0.7,1.8,1.5,2.6,2.3c0.3,0.3,2.3,1.9,2.2,2.3c0,0.5-1.9,1.8-2.3,2.2
			c-0.9,0.9-1.6,2-2.5,2.9C353.9,305,354.8,305.9,355.3,305.3L355.3,305.3z"/>
	</g>
</g>
<g id="XMLID_408_">
	<g id="XMLID_409_">
		<path id="XMLID_410_" class="st6" d="M350.7,295.6c-4-0.5-3.9,9.1,0.8,8.3c2-0.3,2.2-3.5,2.1-5c-0.2-2.6-1.4-3.7-4-3.4
			c-0.8,0.1-0.5,1.3,0.3,1.2c1-0.1,1.7-0.2,2.2,1c0.2,0.4,0.2,1.3,0.2,1.8c0,1-0.1,2.4-1.1,2.8c-2.8,1.1-2.8-5.7-0.6-5.5
			C351.5,297,351.5,295.7,350.7,295.6L350.7,295.6z"/>
	</g>
</g>
<g id="XMLID_387_">
	<g id="XMLID_388_">
		<path id="XMLID_389_" class="st6" d="M345.2,345.4c-0.4,3.5-0.2,7.1,0,10.6c0,0.8,1.3,0.8,1.3,0c-0.2-3.5-0.4-7.1,0-10.6
			C346.6,344.6,345.3,344.6,345.2,345.4L345.2,345.4z"/>
	</g>
</g>
<g id="XMLID_384_">
	<g id="XMLID_385_">
		<path id="XMLID_386_" class="st6" d="M355.3,356.4c1.2-1.1,2-2.5,3.2-3.6c0.6-0.6,2-1.3,2-2.2c0.1-0.8-1-1.5-1.4-2
			c-1.2-1.3-2.5-2.4-3.9-3.5c-0.6-0.5-1.5,0.4-0.9,0.9c0.9,0.7,1.8,1.5,2.6,2.3c0.3,0.3,2.3,1.9,2.2,2.3c0,0.5-1.9,1.8-2.3,2.2
			c-0.9,0.9-1.6,2-2.5,2.9C353.9,356.1,354.8,357,355.3,356.4L355.3,356.4z"/>
	</g>
</g>
<g id="XMLID_381_">
	<g id="XMLID_382_">
		<path id="XMLID_383_" class="st6" d="M350.7,346.7c-4-0.5-3.9,9.1,0.8,8.3c2-0.3,2.2-3.5,2.1-5c-0.2-2.6-1.4-3.7-4-3.4
			c-0.8,0.1-0.5,1.3,0.3,1.2c1-0.1,1.7-0.2,2.2,1c0.2,0.4,0.2,1.3,0.2,1.8c0,1-0.1,2.4-1.1,2.8c-2.8,1.1-2.8-5.7-0.6-5.5
			C351.5,348.1,351.5,346.8,350.7,346.7L350.7,346.7z"/>
	</g>
</g>
<g id="XMLID_140_">
	<g id="XMLID_141_">
		<path id="XMLID_144_" class="st6" d="M287.1,328.4c-0.4,3.5-0.2,7.1,0,10.6c0,0.8,1.3,0.8,1.3,0c-0.2-3.5-0.4-7.1,0-10.6
			C288.5,327.6,287.2,327.6,287.1,328.4L287.1,328.4z"/>
	</g>
</g>
<g id="XMLID_137_">
	<g id="XMLID_138_">
		<path id="XMLID_139_" class="st6" d="M297.2,339.4c1.2-1.1,2-2.5,3.2-3.6c0.6-0.6,2-1.3,2-2.2c0.1-0.8-1-1.5-1.4-2
			c-1.2-1.3-2.5-2.4-3.9-3.5c-0.6-0.5-1.5,0.4-0.9,0.9c0.9,0.7,1.8,1.5,2.6,2.3c0.3,0.3,2.3,1.9,2.2,2.3c0,0.5-1.9,1.8-2.3,2.2
			c-0.9,0.9-1.6,2-2.5,2.9C295.8,339.1,296.7,340,297.2,339.4L297.2,339.4z"/>
	</g>
</g>
<g id="XMLID_360_">
	<g id="XMLID_391_">
		<g id="XMLID_392_">
			<path id="XMLID_393_" class="st6" d="M348.8,332.5c1-0.7,1.9-1.3,2.9-2c-0.3-0.2-0.6-0.5-0.9-0.7c-0.5,2.5-0.7,5-0.6,7.6
				c0,0.8,1.3,0.8,1.3,0c-0.1-2.4,0.1-4.9,0.6-7.3c0.1-0.5-0.4-1-0.9-0.7c-1,0.7-1.9,1.3-2.9,2C347.5,331.9,348.1,333,348.8,332.5
				L348.8,332.5z"/>
		</g>
	</g>
	<g id="XMLID_361_">
		<g id="XMLID_362_">
			<path id="XMLID_390_" class="st6" d="M347.9,338.2c1.7,0,3.4-0.1,5.1-0.2c0.8,0,0.8-1.3,0-1.3c-1.7,0.1-3.4,0.1-5.1,0.2
				C347.1,336.9,347.1,338.2,347.9,338.2L347.9,338.2z"/>
		</g>
	</g>
</g>
<g id="XMLID_357_">
	<g id="XMLID_358_">
		<path id="XMLID_359_" class="st6" d="M345.2,328.4c-0.4,3.5-0.2,7.1,0,10.6c0,0.8,1.3,0.8,1.3,0c-0.2-3.5-0.4-7.1,0-10.6
			C346.6,327.6,345.3,327.6,345.2,328.4L345.2,328.4z"/>
	</g>
</g>
<g id="XMLID_354_">
	<g id="XMLID_355_">
		<path id="XMLID_356_" class="st6" d="M355.3,339.4c1.2-1.1,2-2.5,3.2-3.6c0.6-0.6,2-1.3,2-2.2c0.1-0.8-1-1.5-1.4-2
			c-1.2-1.3-2.5-2.4-3.9-3.5c-0.6-0.5-1.5,0.4-0.9,0.9c0.9,0.7,1.8,1.5,2.6,2.3c0.3,0.3,2.3,1.9,2.2,2.3c0,0.5-1.9,1.8-2.3,2.2
			c-0.9,0.9-1.6,2-2.5,2.9C353.9,339.1,354.8,340,355.3,339.4L355.3,339.4z"/>
	</g>
</g>
<g id="XMLID_549_">
	<g id="XMLID_553_">
		<g id="XMLID_554_">
			<path id="XMLID_555_" class="st6" d="M290.7,349.5c1-0.7,1.9-1.3,2.9-2c-0.3-0.2-0.6-0.5-0.9-0.7c-0.5,2.5-0.7,5-0.6,7.6
				c0,0.8,1.3,0.8,1.3,0c-0.1-2.4,0.1-4.9,0.6-7.3c0.1-0.5-0.4-1-0.9-0.7c-1,0.7-1.9,1.3-2.9,2C289.4,348.9,290,350,290.7,349.5
				L290.7,349.5z"/>
		</g>
	</g>
	<g id="XMLID_550_">
		<g id="XMLID_105_">
			<path id="XMLID_552_" class="st6" d="M289.8,355.2c1.7,0,3.4-0.1,5.1-0.2c0.8,0,0.8-1.3,0-1.3c-1.7,0.1-3.4,0.1-5.1,0.2
				C289,353.9,289,355.2,289.8,355.2L289.8,355.2z"/>
		</g>
	</g>
</g>
<g id="XMLID_546_">
	<g id="XMLID_547_">
		<path id="XMLID_548_" class="st6" d="M287.1,345.4c-0.4,3.5-0.2,7.1,0,10.6c0,0.8,1.3,0.8,1.3,0c-0.2-3.5-0.4-7.1,0-10.6
			C288.5,344.6,287.2,344.6,287.1,345.4L287.1,345.4z"/>
	</g>
</g>
<g id="XMLID_543_">
	<g id="XMLID_104_">
		<path id="XMLID_545_" class="st6" d="M297.2,356.4c1.2-1.1,2-2.5,3.2-3.6c0.6-0.6,2-1.3,2-2.2c0.1-0.8-1-1.5-1.4-2
			c-1.2-1.3-2.5-2.4-3.9-3.5c-0.6-0.5-1.5,0.4-0.9,0.9c0.9,0.7,1.8,1.5,2.6,2.3c0.3,0.3,2.3,1.9,2.2,2.3c0,0.5-1.9,1.8-2.3,2.2
			c-0.9,0.9-1.6,2-2.5,2.9C295.8,356.1,296.7,357,297.2,356.4L297.2,356.4z"/>
	</g>
</g>
<g id="XMLID_99_">
	<g id="XMLID_314_">
		<g id="XMLID_101_">
			<path id="XMLID_103_" class="st6" d="M160.3,332.5c1-0.7,1.9-1.3,2.9-2c-0.3-0.2-0.6-0.5-0.9-0.7c-0.5,2.5-0.7,5-0.6,7.6
				c0,0.8,1.3,0.8,1.3,0c-0.1-2.4,0.1-4.9,0.6-7.3c0.1-0.5-0.4-1-0.9-0.7c-1,0.7-1.9,1.3-2.9,2C159,331.9,159.6,333,160.3,332.5
				L160.3,332.5z"/>
		</g>
	</g>
	<g id="XMLID_100_">
		<g id="XMLID_312_">
			<path id="XMLID_313_" class="st6" d="M159.4,338.2c1.7,0,3.4-0.1,5.1-0.2c0.8,0,0.8-1.3,0-1.3c-1.7,0.1-3.4,0.1-5.1,0.2
				C158.6,336.9,158.6,338.2,159.4,338.2L159.4,338.2z"/>
		</g>
	</g>
</g>
<g id="XMLID_303_">
	<g id="XMLID_304_">
		<path id="XMLID_307_" class="st6" d="M156.7,328.4c-0.4,3.5-0.2,7.1,0,10.6c0,0.8,1.3,0.8,1.3,0c-0.2-3.5-0.4-7.1,0-10.6
			C158.1,327.6,156.8,327.6,156.7,328.4L156.7,328.4z"/>
	</g>
</g>
<g id="XMLID_300_">
	<g id="XMLID_98_">
		<path id="XMLID_302_" class="st6" d="M166.8,339.4c1.2-1.1,2-2.5,3.2-3.6c0.6-0.6,2-1.3,2-2.2c0.1-0.8-1-1.5-1.4-2
			c-1.2-1.3-2.5-2.4-3.9-3.5c-0.6-0.5-1.5,0.4-0.9,0.9c0.9,0.7,1.8,1.5,2.6,2.3c0.3,0.3,2.3,1.9,2.2,2.3c0,0.5-1.9,1.8-2.3,2.2
			c-0.9,0.9-1.6,2-2.5,2.9C165.4,339.1,166.3,340,166.8,339.4L166.8,339.4z"/>
	</g>
</g>
<g id="XMLID_293_">
	<g id="XMLID_297_">
		<g id="XMLID_298_">
			<path id="XMLID_299_" class="st6" d="M160.3,349.5c1-0.7,1.9-1.3,2.9-2c-0.3-0.2-0.6-0.5-0.9-0.7c-0.5,2.5-0.7,5-0.6,7.6
				c0,0.8,1.3,0.8,1.3,0c-0.1-2.4,0.1-4.9,0.6-7.3c0.1-0.5-0.4-1-0.9-0.7c-1,0.7-1.9,1.3-2.9,2C159,348.9,159.6,350,160.3,349.5
				L160.3,349.5z"/>
		</g>
	</g>
	<g id="XMLID_294_">
		<g id="XMLID_97_">
			<path id="XMLID_296_" class="st6" d="M159.4,355.2c1.7,0,3.4-0.1,5.1-0.2c0.8,0,0.8-1.3,0-1.3c-1.7,0.1-3.4,0.1-5.1,0.2
				C158.6,353.9,158.6,355.2,159.4,355.2L159.4,355.2z"/>
		</g>
	</g>
</g>
<g id="XMLID_290_">
	<g id="XMLID_291_">
		<path id="XMLID_292_" class="st6" d="M156.7,345.4c-0.4,3.5-0.2,7.1,0,10.6c0,0.8,1.3,0.8,1.3,0c-0.2-3.5-0.4-7.1,0-10.6
			C158.1,344.6,156.8,344.6,156.7,345.4L156.7,345.4z"/>
	</g>
</g>
<g id="XMLID_287_">
	<g id="XMLID_89_">
		<path id="XMLID_96_" class="st6" d="M166.8,356.4c1.2-1.1,2-2.5,3.2-3.6c0.6-0.6,2-1.3,2-2.2c0.1-0.8-1-1.5-1.4-2
			c-1.2-1.3-2.5-2.4-3.9-3.5c-0.6-0.5-1.5,0.4-0.9,0.9c0.9,0.7,1.8,1.5,2.6,2.3c0.3,0.3,2.3,1.9,2.2,2.3c0,0.5-1.9,1.8-2.3,2.2
			c-0.9,0.9-1.6,2-2.5,2.9C165.4,356.1,166.3,357,166.8,356.4L166.8,356.4z"/>
	</g>
</g>
<g id="XMLID_332_">
	<g id="XMLID_87_">
		<g id="XMLID_346_">
			<path id="XMLID_347_" class="st6" d="M218.4,349.5c1-0.7,1.9-1.3,2.9-2c-0.3-0.2-0.6-0.5-0.9-0.7c-0.5,2.5-0.7,5-0.6,7.6
				c0,0.8,1.3,0.8,1.3,0c-0.1-2.4,0.1-4.9,0.6-7.3c0.1-0.5-0.4-1-0.9-0.7c-1,0.7-1.9,1.3-2.9,2C217.1,348.9,217.7,350,218.4,349.5
				L218.4,349.5z"/>
		</g>
	</g>
	<g id="XMLID_84_">
		<g id="XMLID_85_">
			<path id="XMLID_86_" class="st6" d="M217.5,355.2c1.7,0,3.4-0.1,5.1-0.2c0.8,0,0.8-1.3,0-1.3c-1.7,0.1-3.4,0.1-5.1,0.2
				C216.7,353.9,216.7,355.2,217.5,355.2L217.5,355.2z"/>
		</g>
	</g>
</g>
<g id="XMLID_83_">
	<g id="XMLID_330_">
		<path id="XMLID_331_" class="st6" d="M214.8,345.4c-0.4,3.5-0.2,7.1,0,10.6c0,0.8,1.3,0.8,1.3,0c-0.2-3.5-0.4-7.1,0-10.6
			C216.2,344.6,214.9,344.6,214.8,345.4L214.8,345.4z"/>
	</g>
</g>
<g id="XMLID_70_">
	<g id="XMLID_327_">
		<path id="XMLID_78_" class="st6" d="M224.9,356.4c1.2-1.1,2-2.5,3.2-3.6c0.6-0.6,2-1.3,2-2.2c0.1-0.8-1-1.5-1.4-2
			c-1.2-1.3-2.5-2.4-3.9-3.5c-0.6-0.5-1.5,0.4-0.9,0.9c0.9,0.7,1.8,1.5,2.6,2.3c0.3,0.3,2.3,1.9,2.2,2.3c0,0.5-1.9,1.8-2.3,2.2
			c-0.9,0.9-1.6,2-2.5,2.9C223.5,356.1,224.4,357,224.9,356.4L224.9,356.4z"/>
	</g>
</g>
<g id="XMLID_394_">
	<g id="XMLID_398_">
		<g id="XMLID_399_">
			<path id="XMLID_400_" class="st6" d="M218.4,315.5c1-0.7,1.9-1.3,2.9-2c-0.3-0.2-0.6-0.5-0.9-0.7c-0.5,2.5-0.7,5-0.6,7.6
				c0,0.8,1.3,0.8,1.3,0c-0.1-2.4,0.1-4.9,0.6-7.3c0.1-0.5-0.4-1-0.9-0.7c-1,0.7-1.9,1.3-2.9,2C217.1,314.9,217.7,316,218.4,315.5
				L218.4,315.5z"/>
		</g>
	</g>
	<g id="XMLID_395_">
		<g id="XMLID_396_">
			<path id="XMLID_397_" class="st6" d="M217.5,321.2c1.7,0,3.4-0.1,5.1-0.2c0.8,0,0.8-1.3,0-1.3c-1.7,0.1-3.4,0.1-5.1,0.2
				C216.7,319.9,216.7,321.2,217.5,321.2L217.5,321.2z"/>
		</g>
	</g>
</g>
<g id="XMLID_351_">
	<g id="XMLID_352_">
		<path id="XMLID_353_" class="st6" d="M214.8,311.4c-0.4,3.5-0.2,7.1,0,10.6c0,0.8,1.3,0.8,1.3,0c-0.2-3.5-0.4-7.1,0-10.6
			C216.2,310.6,214.9,310.6,214.8,311.4L214.8,311.4z"/>
	</g>
</g>
<g id="XMLID_348_">
	<g id="XMLID_349_">
		<path id="XMLID_350_" class="st6" d="M224.9,322.4c1.2-1.1,2-2.5,3.2-3.6c0.6-0.6,2-1.3,2-2.2c0.1-0.8-1-1.5-1.4-2
			c-1.2-1.3-2.5-2.4-3.9-3.5c-0.6-0.5-1.5,0.4-0.9,0.9c0.9,0.7,1.8,1.5,2.6,2.3c0.3,0.3,2.3,1.9,2.2,2.3c0,0.5-1.9,1.8-2.3,2.2
			c-0.9,0.9-1.6,2-2.5,2.9C223.5,322.1,224.4,323,224.9,322.4L224.9,322.4z"/>
	</g>
</g>
<g id="XMLID_562_">
	<g id="XMLID_69_">
		<g id="XMLID_567_">
			<path id="XMLID_568_" class="st6" d="M348.8,315.5c1-0.7,1.9-1.3,2.9-2c-0.3-0.2-0.6-0.5-0.9-0.7c-0.5,2.5-0.7,5-0.6,7.6
				c0,0.8,1.3,0.8,1.3,0c-0.1-2.4,0.1-4.9,0.6-7.3c0.1-0.5-0.4-1-0.9-0.7c-1,0.7-1.9,1.3-2.9,2C347.5,314.9,348.1,316,348.8,315.5
				L348.8,315.5z"/>
		</g>
	</g>
	<g id="XMLID_563_">
		<g id="XMLID_564_">
			<path id="XMLID_565_" class="st6" d="M347.9,321.2c1.7,0,3.4-0.1,5.1-0.2c0.8,0,0.8-1.3,0-1.3c-1.7,0.1-3.4,0.1-5.1,0.2
				C347.1,319.9,347.1,321.2,347.9,321.2L347.9,321.2z"/>
		</g>
	</g>
</g>
<g id="XMLID_66_">
	<g id="XMLID_560_">
		<path id="XMLID_561_" class="st6" d="M345.2,311.4c-0.4,3.5-0.2,7.1,0,10.6c0,0.8,1.3,0.8,1.3,0c-0.2-3.5-0.4-7.1,0-10.6
			C346.6,310.6,345.3,310.6,345.2,311.4L345.2,311.4z"/>
	</g>
</g>
<g id="XMLID_556_">
	<g id="XMLID_557_">
		<path id="XMLID_65_" class="st6" d="M355.3,322.4c1.2-1.1,2-2.5,3.2-3.6c0.6-0.6,2-1.3,2-2.2c0.1-0.8-1-1.5-1.4-2
			c-1.2-1.3-2.5-2.4-3.9-3.5c-0.6-0.5-1.5,0.4-0.9,0.9c0.9,0.7,1.8,1.5,2.6,2.3c0.3,0.3,2.3,1.9,2.2,2.3c0,0.5-1.9,1.8-2.3,2.2
			c-0.9,0.9-1.6,2-2.5,2.9C353.9,322.1,354.8,323,355.3,322.4L355.3,322.4z"/>
	</g>
</g>
<g id="XMLID_64_">
	<g id="XMLID_779_">
		<path id="XMLID_783_" class="st7" d="M132.7,274.4c40.9-2.8,81.8,0.3,122.7,0.6c20.5,0.2,40.9-1.4,61.3-1.9
			c20.3-0.5,40.6,1.9,60.8,0.1c0.8-0.1,0.8-1.3,0-1.3c-20.3,1.8-40.5-0.6-60.8-0.1c-20.5,0.5-40.8,2.1-61.3,1.9
			c-40.9-0.3-81.8-3.4-122.7-0.6C131.9,273.2,131.9,274.4,132.7,274.4L132.7,274.4z"/>
	</g>
</g>
<g id="XMLID_63_">
	<g id="XMLID_773_">
		<path id="XMLID_777_" class="st7" d="M176,257.8c0.5,3.3-0.3,6.5,0.1,9.8c0.1,0.8,1.3,0.8,1.3,0c-0.4-3.4,0.4-6.7-0.1-10.1
			C177.1,256.6,175.8,257,176,257.8L176,257.8z"/>
	</g>
</g>
<g id="XMLID_62_">
	<g id="XMLID_767_">
		<path id="XMLID_771_" class="st7" d="M181,261.4c-0.2,1.9,0.3,3.9,0,5.8c0.4,0,0.8,0,1.3,0c-0.1-1.6-0.8-4.8,1.2-5.4
			c2.9-0.9,2.3,3.9,2.1,5.4c-0.1,0.8,1.2,0.8,1.3,0c0.3-2.6,0.6-6.8-3.2-6.8c-1.3,0-2.1,1.1-2.6,2.2c-0.6,1.3-0.2,3.2-0.1,4.6
			c0,0.8,1.1,0.8,1.3,0c0.3-1.9-0.2-3.9,0-5.8C182.4,260.6,181.1,260.6,181,261.4L181,261.4z"/>
	</g>
</g>
<g id="XMLID_61_">
	<g id="XMLID_761_">
		<path id="XMLID_765_" class="st7" d="M189.3,261.5c0.4,2.9,0.4,5.8,0,8.6c-0.1,0.8,1.2,0.8,1.3,0c0.3-2.9,0.3-5.8,0-8.6
			C190.5,260.7,189.2,260.7,189.3,261.5L189.3,261.5z"/>
	</g>
</g>
<g id="XMLID_59_">
	<g id="XMLID_755_">
		<path id="XMLID_759_" class="st7" d="M190.6,263.1c0.6-0.7,1.5-1.2,2.4-1c1.1,0.3,1.4,1.3,1.4,2.2c0.1,1,0,2.2-1.2,2.5
			c-0.9,0.2-1.9-0.1-2.6-0.7c-0.6-0.5-1.3,0.6-0.6,1.1c1.2,0.9,3,1.3,4.4,0.5c1.3-0.7,1.3-2.5,1.2-3.8c-0.3-3.3-3.8-4.1-6-1.8
			C189.1,262.8,190,263.7,190.6,263.1L190.6,263.1z"/>
	</g>
</g>
<g id="XMLID_57_">
	<g id="XMLID_749_">
		<path id="XMLID_753_" class="st7" d="M197.6,261.2c0,1.7,0,3.5,0.4,5.2c0.2,1,0.9,1.8,2,1.8c2.8-0.1,3.3-4.4,3.2-6.4
			c0-0.8-1.3-0.8-1.3,0c0.1,1.8,0.2,3.5,0.3,5.3c0,0.8,1.3,0.8,1.3,0c-0.1-1.8-0.2-3.5-0.3-5.3c-0.4,0-0.8,0-1.3,0
			c0.1,1,0,1.9-0.3,2.8c-0.1,0.4-0.3,0.8-0.5,1.2c-0.3,0.7-0.4,0.9-1.3,0.7c-0.8-0.1-0.7-0.1-0.8-0.8c-0.1-0.6-0.2-1.1-0.2-1.7
			c-0.1-0.9-0.1-1.9-0.1-2.8C198.9,260.3,197.7,260.3,197.6,261.2L197.6,261.2z"/>
	</g>
</g>
<g id="XMLID_55_">
	<g id="XMLID_743_">
		<path id="XMLID_747_" class="st7" d="M206.3,258.8c0.1,1.9-0.1,3.8-0.3,5.7c-0.1,1-0.5,2.5,0.2,3.5c1.4,2,3.4-0.1,4-1.5
			c0.3-0.7-0.8-1.4-1.1-0.6c-0.1,0.3-0.2,0.6-0.4,0.9c-1.2,0.9-1.8,0.8-1.6-0.3c-0.1-0.7,0.2-1.5,0.2-2.2c0.2-1.8,0.3-3.6,0.2-5.4
			C207.6,258,206.3,258,206.3,258.8L206.3,258.8z"/>
	</g>
</g>
<g id="XMLID_48_">
	<g id="XMLID_737_">
		<path id="XMLID_741_" class="st7" d="M205.2,262.2c0.7,0.2,1.4,0.1,2,0.1c0.7,0.1,1.4,0.2,2.1,0c0.8-0.2,0.4-1.4-0.3-1.2
			c-0.6,0.2-1.2,0-1.8-0.1c-0.5,0-1.2,0.1-1.7-0.1C204.8,260.8,204.5,262,205.2,262.2L205.2,262.2z"/>
	</g>
</g>
<g id="XMLID_47_">
	<g id="XMLID_731_">
		<path id="XMLID_735_" class="st7" d="M305.5,256.7c-6.6,0-6.8,12.6-0.2,11.6c2.7-0.4,4.7-3.1,4.7-5.8c0-2.6-1.8-6-4.7-5.9
			c-0.8,0-0.8,1.3,0,1.3c2.3-0.1,3.5,2.8,3.5,4.7c0,1.6-0.9,3.2-2.3,4.1c-1,0.6-2.6,0.5-3.6-0.2c-0.8-0.6-1.1-2.3-1.1-3.1
			c-0.1-2.4,1-5.2,3.8-5.3C306.3,257.9,306.3,256.7,305.5,256.7L305.5,256.7z"/>
	</g>
</g>
<g id="XMLID_45_">
	<g id="XMLID_725_">
		<path id="XMLID_729_" class="st7" d="M312.7,261.2c-0.3,1.8-1.2,7.2,1.9,7.1c3.3-0.1,3.2-4.6,3.4-6.9c-0.4,0-0.8,0-1.3,0
			c-0.1,2,0,4,0.2,6c0.1,0.8,1.3,0.8,1.3,0c-0.2-2-0.3-4-0.2-6c0-0.8-1.2-0.8-1.3,0c-0.1,1.5,0.2,4.5-1.4,5.3c-1.7,1-1.7-1.1-1.7-2
			c0-1.1,0.1-2.1,0.2-3.1C314,260.7,312.8,260.4,312.7,261.2L312.7,261.2z"/>
	</g>
</g>
<g id="XMLID_46_">
	<g id="XMLID_719_">
		<path id="XMLID_723_" class="st7" d="M321,259.1c-0.2,2.4-0.4,4.9-0.1,7.3c0.1,1.1,0.6,2.1,1.8,2c0.8,0,0.8-1.3,0-1.3
			c-1.3,0-0.5-7.2-0.4-8.1C322.4,258.3,321.1,258.3,321,259.1L321,259.1z"/>
	</g>
</g>
<g id="XMLID_53_">
	<g id="XMLID_713_">
		<path id="XMLID_717_" class="st7" d="M320.2,262.1c1,0,2,0,3-0.1c0.8-0.1,0.8-1.3,0-1.3c-1,0.1-2,0.1-3,0.1
			C319.4,260.8,319.4,262.1,320.2,262.1L320.2,262.1z"/>
	</g>
</g>
<g id="XMLID_60_">
	<g id="XMLID_707_">
		<path id="XMLID_711_" class="st7" d="M326.8,261.5c0,2.8,0.1,5.7,0.1,8.5c0,0.8,1.3,0.8,1.3,0c0-2.8-0.1-5.7-0.1-8.5
			C328,260.7,326.8,260.7,326.8,261.5L326.8,261.5z"/>
	</g>
</g>
<g id="XMLID_67_">
	<g id="XMLID_701_">
		<path id="XMLID_705_" class="st7" d="M328.2,262.8c1.2-1.3,3.5-0.9,3.9,0.9c0.5,2.2-2.2,3.5-3.8,2c-0.6-0.5-1.5,0.3-0.9,0.9
			c2.3,2.1,6.3,0.5,6-2.8c-0.3-3-4.1-4-6.1-1.9C326.7,262.5,327.6,263.4,328.2,262.8L328.2,262.8z"/>
	</g>
</g>
<g id="XMLID_43_">
	<g id="XMLID_695_">
		<path id="XMLID_699_" class="st7" d="M335.1,261.4c-0.1,2.2-1.3,6.5,1.9,6.8c1.1,0.1,2.2-0.4,2.6-1.4c0.7-1.5,0.9-3.3,1.2-4.9
			c-0.4-0.1-0.8-0.2-1.2-0.3c-0.3,1.8-0.7,4-0.2,5.8c0.2,0.8,1.4,0.4,1.2-0.3c-0.4-1.6,0-3.6,0.2-5.2c0.1-0.8-1.1-1.1-1.2-0.3
			c-0.2,1-0.4,2-0.6,3c-0.2,1-0.3,2.4-1.7,2.4c-1.4,0-1.3-1.2-1.2-2.2c0.1-1.1,0.2-2.2,0.2-3.3C336.4,260.6,335.1,260.6,335.1,261.4
			L335.1,261.4z"/>
	</g>
</g>
<g id="XMLID_42_">
	<g id="XMLID_689_">
		<path id="XMLID_693_" class="st7" d="M344,258.4c-0.6,2.3-0.5,5.2-0.1,7.5c0.2,1.3,0.8,2.5,2.3,2.2c0.8-0.2,0.5-1.4-0.3-1.2
			c-1.4,0.3-0.9-7.3-0.7-8.1C345.4,258,344.2,257.6,344,258.4L344,258.4z"/>
	</g>
</g>
<g id="XMLID_88_">
	<g id="XMLID_672_">
		<path id="XMLID_687_" class="st7" d="M342.9,262c0.8,0,1.5-0.1,2.3,0c0.7,0,1.3,0.3,1.9,0.3c0.8,0.1,0.8-1.2,0-1.3
			c-0.6-0.1-1.3-0.3-1.9-0.3c-0.8,0-1.5,0-2.3,0C342.1,260.7,342.1,262,342.9,262L342.9,262z"/>
	</g>
</g>
<g id="XMLID_41_">
	<g id="XMLID_665_">
		<path id="XMLID_670_" class="st7" d="M148.2,280.7c-0.5-1.1-2.4-1.2-3.4-0.9c-1.2,0.4-1.9,1.7-2.3,2.8c-0.9,3.1,2.4,4.9,5,3.9
			c0.7-0.3,0.4-1.5-0.3-1.2c-1.5,0.6-3.9,0.1-3.5-2c0.1-0.6,0.5-1.5,1-1.9c0.4-0.4,2.1-0.7,2.5,0
			C147.5,282.1,148.5,281.4,148.2,280.7L148.2,280.7z"/>
	</g>
</g>
<g id="XMLID_102_">
	<g id="XMLID_658_">
		<path id="XMLID_663_" class="st7" d="M153,279.5c-1.9,0.1-3.3,1.4-3.6,3.3c-0.3,1.7,0.9,3.8,2.7,4.1c1.8,0.3,3.3-1,3.7-2.6
			c0.6-2.1-0.8-4-2.7-4.9c-0.7-0.3-1.4,0.7-0.6,1.1c1,0.5,2.2,1.4,2.3,2.6c0,1.2-0.9,2.6-2.2,2.6c-1.4,0-2.1-1.8-1.9-3
			c0.2-1.1,1.1-1.9,2.3-2C153.8,280.7,153.8,279.5,153,279.5L153,279.5z"/>
	</g>
</g>
<g id="XMLID_39_">
	<g id="XMLID_651_">
		<path id="XMLID_656_" class="st7" d="M157.8,280.2c0,1.9,0,3.7,0.1,5.6c0,0.8,1.3,0.8,1.3,0c0-1.9,0-3.7-0.1-5.6
			C159,279.4,157.8,279.4,157.8,280.2L157.8,280.2z"/>
	</g>
</g>
<g id="XMLID_38_">
	<g id="XMLID_643_">
		<path id="XMLID_649_" class="st7" d="M159.2,282.3c0.4-0.5,0.9-0.9,1.5-1.2c0.8-0.4,1.9-0.3,2,0.8c0.2,1.3,0,2.6-0.2,3.8
			c-0.2,0.8,1,1.1,1.2,0.3c0.3-1.3,0.4-2.6,0.3-3.9c-0.1-0.8-0.2-1.7-0.8-2.3c-1.6-1.3-4,0.5-5,1.8
			C157.6,282.3,158.7,283,159.2,282.3L159.2,282.3z"/>
	</g>
</g>
<g id="XMLID_37_">
	<g id="XMLID_636_">
		<path id="XMLID_641_" class="st7" d="M166.1,277.6c-0.2,2.1-1.7,10,2.5,9.2c0.8-0.2,0.5-1.4-0.3-1.2c-1.9,0.4-1-7.2-0.9-8
			C167.4,276.8,166.2,276.8,166.1,277.6L166.1,277.6z"/>
	</g>
</g>
<g id="XMLID_36_">
	<g id="XMLID_629_">
		<path id="XMLID_634_" class="st7" d="M165.1,280.9c0.5,0,1,0.1,1.5,0.1c0.5,0,1,0,1.5-0.1c0.8-0.1,0.8-1.3,0-1.3
			c-0.5,0-1,0.1-1.5,0.1c-0.5,0-1-0.1-1.5-0.1C164.3,279.7,164.3,280.9,165.1,280.9L165.1,280.9z"/>
	</g>
</g>
<g id="XMLID_143_">
	<g id="XMLID_622_">
		<path id="XMLID_627_" class="st7" d="M171.6,280.3c0,1.8,0,3.6,0,5.5c0.4-0.1,0.8-0.1,1.2-0.2c-0.1-1,0-1.9,0.3-2.9
			c0.2-0.9,0.6-2.4,1.8-1.4c0.6,0.5,1.5-0.4,0.9-0.9c-3.4-2.8-4.5,3.2-4.2,5.6c0.1,0.7,1.2,0.5,1.2-0.2c0-1.8,0-3.6,0-5.5
			C172.8,279.5,171.6,279.5,171.6,280.3L171.6,280.3z"/>
	</g>
</g>
<g id="XMLID_150_">
	<g id="XMLID_615_">
		<path id="XMLID_620_" class="st7" d="M180.4,279.4c-3.8-0.3-4.8,7.4-0.5,7.4c1.9,0,2.8-1.7,3.1-3.4c0.4-2.1-0.8-3.3-2.7-4
			c-0.8-0.3-1.1,0.9-0.3,1.2c1.2,0.4,2,1,1.8,2.3c-0.1,0.8-0.4,2-1.2,2.5c-2.9,1.5-3.1-4.9-0.2-4.7
			C181.2,280.7,181.2,279.5,180.4,279.4L180.4,279.4z"/>
	</g>
</g>
<g id="XMLID_157_">
	<g id="XMLID_608_">
		<path id="XMLID_613_" class="st7" d="M185.3,276.6c-0.2,2.6-0.2,5.2,0.1,7.8c0.1,1.2,0.3,2,1.6,2.1c0.8,0.1,0.8-1.2,0-1.3
			c-1.1-0.1-0.6-7.8-0.5-8.7C186.6,275.8,185.3,275.8,185.3,276.6L185.3,276.6z"/>
	</g>
</g>
<g id="XMLID_164_">
	<g id="XMLID_600_">
		<path id="XMLID_606_" class="st7" d="M205.1,277.4c-0.5,2.4-1,5-0.3,7.4c0.4,1.3,1.4,2.8,2.9,2c0.7-0.4,0.1-1.5-0.6-1.1
			c-1.1,0.6-1.4-3.6-1.4-3.9c0-1.4,0.3-2.7,0.6-4.1C206.5,277,205.3,276.7,205.1,277.4L205.1,277.4z"/>
	</g>
</g>
<g id="XMLID_171_">
	<g id="XMLID_593_">
		<path id="XMLID_598_" class="st7" d="M204,281c1.2-0.2,2.5,0.1,3.7,0.2c0.8,0.1,0.8-1.2,0-1.3c-1.3-0.1-2.7-0.4-4-0.2
			C202.9,279.9,203.2,281.2,204,281L204,281z"/>
	</g>
</g>
<g id="XMLID_35_">
	<g id="XMLID_586_">
		<path id="XMLID_591_" class="st7" d="M211.4,281.5c0.9-0.6,1.9-1.1,2.7,0c0.4,0.5,0.2,1.9,0.2,2.5c-0.1,1.1-0.3,2,0.6,2.8
			c0.6,0.5,1.5-0.4,0.9-0.9c-0.6-0.5-0.3-1.3-0.2-1.9c0-0.6,0-1.2-0.1-1.8c-0.1-0.7-0.2-1.4-0.7-2c-1.1-1.2-2.9-0.5-4,0.2
			C210.1,280.9,210.7,282,211.4,281.5L211.4,281.5z"/>
	</g>
</g>
<g id="XMLID_185_">
	<g id="XMLID_579_">
		<path id="XMLID_584_" class="st7" d="M214.6,282.2c-1.2,0-2.4,0.1-3.4,0.8c-0.8,0.6-1.4,1.7-1.1,2.7c0.3,1,1.2,1.6,2.2,1.5
			c1.2,0,2.1-0.8,2.8-1.5c0.6-0.6-0.3-1.4-0.9-0.9c-0.5,0.4-1,1-1.6,1.1c-0.6,0.2-1.3-0.1-1.4-0.8c0-1.6,2.2-1.7,3.3-1.7
			C215.4,283.4,215.4,282.2,214.6,282.2L214.6,282.2z"/>
	</g>
</g>
<g id="XMLID_27_">
	<g id="XMLID_572_">
		<path id="XMLID_577_" class="st7" d="M218.3,280.3c-0.2,1.8-0.2,3.7,0,5.5c0.1,0.8,1.2,0.8,1.3,0c0-0.9,0-1.8,0.1-2.7
			c0-0.5,0.1-0.9,0.4-1.3c0.1-0.2,1.3-1.5,1.4-0.5c0.1,0.8,1.3,0.5,1.2-0.3c-0.2-1.5-2.3-1.6-3.1-0.6c-1.3,1.5-1.1,3.5-1.2,5.4
			c0.4,0,0.8,0,1.3,0c-0.2-1.8-0.2-3.7,0-5.5C219.6,279.5,218.4,279.5,218.3,280.3L218.3,280.3z"/>
	</g>
</g>
<g id="XMLID_26_">
	<g id="XMLID_540_">
		<path id="XMLID_570_" class="st7" d="M228.9,280.3c-0.8-0.9-3.2-0.6-4.2,0c-1,0.6-1.6,2.2-1.2,3.3c0.5,1.3,2.1,1.7,3.3,1.5
			c1.8-0.3,2.1-2.1,2.5-3.6c-0.4-0.1-0.8-0.1-1.2-0.2c-0.1,1.2-0.3,2.3-0.5,3.5c-0.1,0.4-0.1,1.1-0.3,1.4c-0.4,0.7-1.9,1.6-2.6,0.4
			c-0.4-0.7-1.5-0.1-1.1,0.6c0.7,1.4,2.9,1.5,4.1,0.5c0.8-0.6,0.9-1.7,1.1-2.7c0.2-1.3,0.4-2.5,0.5-3.8c0.1-0.7-1-0.8-1.2-0.2
			c-0.1,0.5-0.3,1-0.4,1.5c-0.4,1.2-2.1,1.8-2.8,0.6c-0.5-0.9,0-1.9,1.1-2.1c0.3-0.1,1.8-0.3,2,0
			C228.5,281.8,229.4,280.9,228.9,280.3L228.9,280.3z"/>
	</g>
</g>
<g id="XMLID_16_">
	<g id="XMLID_532_">
		<path id="XMLID_538_" class="st7" d="M231.2,283.7c1,0.1,1.9,0.1,2.9,0.1c0.7,0,1.6,0.1,2.3-0.1c0.3-0.1,0.5-0.3,0.5-0.6
			c0-1.5-1.4-3.1-2.9-3.2c-1.8,0-3,1.5-3.2,3.2c-0.2,1.7,0.3,3.3,2.1,3.8c1.6,0.5,3.7-0.1,4.3-1.7c0.3-0.8-0.9-1.1-1.2-0.3
			c-0.3,1-2,1.2-2.8,0.8c-1-0.4-1.2-1.3-1.1-2.3c0.1-0.9,0.6-2,1.6-2.2c1-0.3,2.1,0.8,2.1,1.8c0.2-0.2,0.3-0.4,0.5-0.6
			c-0.7,0.2-1.7,0.1-2.4,0.1c-0.8,0-1.6,0-2.4-0.1C230.4,282.4,230.4,283.6,231.2,283.7L231.2,283.7z"/>
	</g>
</g>
<g id="XMLID_15_">
	<g id="XMLID_524_">
		<path id="XMLID_528_" class="st7" d="M238.8,277.7c0,1.7-0.1,3.4-0.1,5.1c0,1.1-0.1,2.3,0.3,3.3c0.7,1.4,2.3,1.7,3.2,0.3
			c0.4-0.7-0.7-1.3-1.1-0.6c-0.7,1.2-1.2-1.6-1.2-1.8c0-0.7,0-1.4,0-2.2c0-1.4,0-2.7,0.1-4.1C240.1,276.9,238.9,276.9,238.8,277.7
			L238.8,277.7z"/>
	</g>
</g>
<g id="XMLID_14_">
	<g id="XMLID_514_">
		<path id="XMLID_520_" class="st7" d="M237.5,281c0.8,0.3,1.6,0.2,2.4,0.2c0.7,0,1.4,0,2.1-0.3c0.7-0.3,0.1-1.4-0.6-1.1
			c-0.5,0.2-1.2,0.1-1.7,0.1c-0.6,0-1.3,0.1-1.8-0.1C237,279.5,236.7,280.7,237.5,281L237.5,281z"/>
	</g>
</g>
<g id="XMLID_536_">
	<g id="XMLID_507_">
		<path id="XMLID_512_" class="st7" d="M278.6,280.7c-0.5-1.1-2.4-1.2-3.4-0.9c-1.2,0.4-1.9,1.7-2.3,2.8c-0.9,3.1,2.4,4.9,5,3.9
			c0.7-0.3,0.4-1.5-0.3-1.2c-1.5,0.6-3.9,0.1-3.5-2c0.1-0.6,0.5-1.5,1-1.9c0.4-0.4,2.1-0.7,2.5,0
			C277.9,282.1,278.9,281.4,278.6,280.7L278.6,280.7z"/>
	</g>
</g>
<g id="XMLID_529_">
	<g id="XMLID_500_">
		<path id="XMLID_505_" class="st7" d="M283.4,279.5c-1.9,0.1-3.3,1.4-3.6,3.3c-0.3,1.7,0.9,3.8,2.7,4.1c1.8,0.3,3.3-1,3.7-2.6
			c0.6-2.1-0.8-4-2.7-4.9c-0.7-0.3-1.4,0.7-0.6,1.1c1,0.5,2.2,1.4,2.3,2.6c0,1.2-0.9,2.6-2.2,2.6c-1.4,0-2.1-1.8-1.9-3
			c0.2-1.1,1.1-1.9,2.3-2C284.2,280.7,284.2,279.5,283.4,279.5L283.4,279.5z"/>
	</g>
</g>
<g id="XMLID_522_">
	<g id="XMLID_493_">
		<path id="XMLID_498_" class="st7" d="M288.2,280.2c0,1.9,0,3.7,0.1,5.6c0,0.8,1.3,0.8,1.3,0c0-1.9,0-3.7-0.1-5.6
			C289.4,279.4,288.2,279.4,288.2,280.2L288.2,280.2z"/>
	</g>
</g>
<g id="XMLID_13_">
	<g id="XMLID_486_">
		<path id="XMLID_491_" class="st7" d="M289.5,282.3c0.4-0.5,0.9-0.9,1.5-1.2c0.8-0.4,1.9-0.3,2,0.8c0.2,1.3,0,2.6-0.2,3.8
			c-0.2,0.8,1,1.1,1.2,0.3c0.3-1.3,0.4-2.6,0.3-3.9c-0.1-0.8-0.2-1.7-0.8-2.3c-1.6-1.3-4,0.5-5,1.8C288,282.3,289.1,283,289.5,282.3
			L289.5,282.3z"/>
	</g>
</g>
<g id="XMLID_12_">
	<g id="XMLID_476_">
		<path id="XMLID_484_" class="st7" d="M296.5,277.6c-0.2,2.1-1.7,10,2.5,9.2c0.8-0.2,0.5-1.4-0.3-1.2c-1.9,0.4-1-7.2-0.9-8
			C297.8,276.8,296.6,276.8,296.5,277.6L296.5,277.6z"/>
	</g>
</g>
<g id="XMLID_8_">
	<g id="XMLID_461_">
		<path id="XMLID_469_" class="st7" d="M295.5,280.9c0.5,0,1,0.1,1.5,0.1c0.5,0,1,0,1.5-0.1c0.8-0.1,0.8-1.3,0-1.3
			c-0.5,0-1,0.1-1.5,0.1c-0.5,0-1-0.1-1.5-0.1C294.7,279.7,294.7,280.9,295.5,280.9L295.5,280.9z"/>
	</g>
</g>
<g id="XMLID_7_">
	<g id="XMLID_451_">
		<path id="XMLID_457_" class="st7" d="M302,280.3c0,1.8,0,3.6,0,5.5c0.4-0.1,0.8-0.1,1.2-0.2c-0.1-1,0-1.9,0.3-2.9
			c0.2-0.9,0.6-2.4,1.8-1.4c0.6,0.5,1.5-0.4,0.9-0.9c-3.4-2.8-4.5,3.2-4.2,5.6c0.1,0.7,1.2,0.5,1.2-0.2c0-1.8,0-3.6,0-5.5
			C303.2,279.5,302,279.5,302,280.3L302,280.3z"/>
	</g>
</g>
<g id="XMLID_6_">
	<g id="XMLID_443_">
		<path id="XMLID_449_" class="st7" d="M310.8,279.4c-3.8-0.3-4.8,7.4-0.5,7.4c1.9,0,2.8-1.7,3.1-3.4c0.4-2.1-0.8-3.3-2.7-4
			c-0.8-0.3-1.1,0.9-0.3,1.2c1.2,0.4,2,1,1.8,2.3c-0.1,0.8-0.4,2-1.2,2.5c-2.9,1.5-3.1-4.9-0.2-4.7
			C311.6,280.7,311.6,279.5,310.8,279.4L310.8,279.4z"/>
	</g>
</g>
<g id="XMLID_5_">
	<g id="XMLID_434_">
		<path id="XMLID_441_" class="st7" d="M315.7,276.6c-0.2,2.6-0.2,5.2,0.1,7.8c0.1,1.2,0.3,2,1.6,2.1c0.8,0.1,0.8-1.2,0-1.3
			c-1.1-0.1-0.6-7.8-0.5-8.7C317,275.8,315.7,275.8,315.7,276.6L315.7,276.6z"/>
	</g>
</g>
<g id="XMLID_4_">
	<g id="XMLID_425_">
		<path id="XMLID_430_" class="st7" d="M335.5,277.4c-0.5,2.4-1,5-0.3,7.4c0.4,1.3,1.4,2.8,2.9,2c0.7-0.4,0.1-1.5-0.6-1.1
			c-1.1,0.6-1.4-3.6-1.4-3.9c0-1.4,0.3-2.7,0.6-4.1C336.9,277,335.7,276.7,335.5,277.4L335.5,277.4z"/>
	</g>
</g>
<g id="XMLID_3_">
	<g id="XMLID_418_">
		<path id="XMLID_423_" class="st7" d="M334.4,281c1.2-0.2,2.5,0.1,3.7,0.2c0.8,0.1,0.8-1.2,0-1.3c-1.3-0.1-2.7-0.4-4-0.2
			C333.3,279.9,333.6,281.2,334.4,281L334.4,281z"/>
	</g>
</g>
<g id="XMLID_459_">
	<g id="XMLID_403_">
		<path id="XMLID_407_" class="st7" d="M341.8,281.5c0.9-0.6,1.9-1.1,2.7,0c0.4,0.5,0.2,1.9,0.2,2.5c-0.1,1.1-0.3,2,0.6,2.8
			c0.6,0.5,1.5-0.4,0.9-0.9c-0.6-0.5-0.3-1.3-0.2-1.9c0-0.6,0-1.2-0.1-1.8c-0.1-0.7-0.2-1.4-0.7-2c-1.1-1.2-2.9-0.5-4,0.2
			C340.5,280.9,341.1,282,341.8,281.5L341.8,281.5z"/>
	</g>
</g>
<g id="XMLID_452_">
	<g id="XMLID_283_">
		<path id="XMLID_308_" class="st7" d="M345,282.2c-1.2,0-2.4,0.1-3.4,0.8c-0.8,0.6-1.4,1.7-1.1,2.7c0.3,1,1.2,1.6,2.2,1.5
			c1.2,0,2.1-0.8,2.8-1.5c0.6-0.6-0.3-1.4-0.9-0.9c-0.5,0.4-1,1-1.6,1.1c-0.6,0.2-1.3-0.1-1.4-0.8c0-1.6,2.2-1.7,3.3-1.7
			C345.8,283.4,345.8,282.2,345,282.2L345,282.2z"/>
	</g>
</g>
<g id="XMLID_445_">
	<g id="XMLID_267_">
		<path id="XMLID_277_" class="st7" d="M348.7,280.3c-0.2,1.8-0.2,3.7,0,5.5c0.1,0.8,1.2,0.8,1.3,0c0-0.9,0-1.8,0.1-2.7
			c0-0.5,0.1-0.9,0.4-1.3c0.1-0.2,1.3-1.5,1.4-0.5c0.1,0.8,1.3,0.5,1.2-0.3c-0.2-1.5-2.3-1.6-3.1-0.6c-1.3,1.5-1.1,3.5-1.2,5.4
			c0.4,0,0.8,0,1.3,0c-0.2-1.8-0.2-3.7,0-5.5C350,279.5,348.8,279.5,348.7,280.3L348.7,280.3z"/>
	</g>
</g>
<g id="XMLID_2_">
	<g id="XMLID_257_">
		<path id="XMLID_263_" class="st7" d="M359.3,280.3c-0.8-0.9-3.2-0.6-4.2,0c-1,0.6-1.6,2.2-1.2,3.3c0.5,1.3,2.1,1.7,3.3,1.5
			c1.8-0.3,2.1-2.1,2.5-3.6c-0.4-0.1-0.8-0.1-1.2-0.2c-0.1,1.2-0.3,2.3-0.5,3.5c-0.1,0.4-0.1,1.1-0.3,1.4c-0.4,0.7-1.9,1.6-2.6,0.4
			c-0.4-0.7-1.5-0.1-1.1,0.6c0.7,1.4,2.9,1.5,4.1,0.5c0.8-0.6,0.9-1.7,1.1-2.7c0.2-1.3,0.4-2.5,0.5-3.8c0.1-0.7-1-0.8-1.2-0.2
			c-0.1,0.5-0.3,1-0.4,1.5c-0.4,1.2-2.1,1.8-2.8,0.6c-0.5-0.9,0-1.9,1.1-2.1c0.3-0.1,1.8-0.3,2,0
			C358.9,281.8,359.8,280.9,359.3,280.3L359.3,280.3z"/>
	</g>
</g>
<g id="XMLID_431_">
	<g id="XMLID_243_">
		<path id="XMLID_254_" class="st7" d="M361.6,283.7c1,0.1,1.9,0.1,2.9,0.1c0.7,0,1.6,0.1,2.3-0.1c0.3-0.1,0.5-0.3,0.5-0.6
			c0-1.5-1.4-3.1-2.9-3.2c-1.8,0-3,1.5-3.2,3.2c-0.2,1.7,0.3,3.3,2.1,3.8c1.6,0.5,3.7-0.1,4.3-1.7c0.3-0.8-0.9-1.1-1.2-0.3
			c-0.3,1-2,1.2-2.8,0.8c-1-0.4-1.2-1.3-1.1-2.3c0.1-0.9,0.6-2,1.6-2.2c1-0.3,2.1,0.8,2.1,1.8c0.2-0.2,0.3-0.4,0.5-0.6
			c-0.7,0.2-1.7,0.1-2.4,0.1c-0.8,0-1.6,0-2.4-0.1C360.8,282.4,360.8,283.6,361.6,283.7L361.6,283.7z"/>
	</g>
</g>
<g id="XMLID_284_">
	<g id="XMLID_229_">
		<path id="XMLID_237_" class="st7" d="M369.2,277.7c0,1.7-0.1,3.4-0.1,5.1c0,1.1-0.1,2.3,0.3,3.3c0.7,1.4,2.3,1.7,3.2,0.3
			c0.4-0.7-0.7-1.3-1.1-0.6c-0.7,1.2-1.2-1.6-1.2-1.8c0-0.7,0-1.4,0-2.2c0-1.4,0-2.7,0.1-4.1C370.5,276.9,369.3,276.9,369.2,277.7
			L369.2,277.7z"/>
	</g>
</g>
<g id="XMLID_1_">
	<g id="XMLID_209_">
		<path id="XMLID_223_" class="st7" d="M367.9,281c0.8,0.3,1.6,0.2,2.4,0.2c0.7,0,1.4,0,2.1-0.3c0.7-0.3,0.1-1.4-0.6-1.1
			c-0.5,0.2-1.2,0.1-1.7,0.1c-0.6,0-1.3,0.1-1.8-0.1C367.4,279.5,367.1,280.7,367.9,281L367.9,281z"/>
	</g>
</g>
</svg>
